<?xml version="1.0" encoding="utf-8" standalone="no"?>
<!DOCTYPE svg PUBLIC "-//W3C//DTD SVG 1.1//EN"
  "http://www.w3.org/Graphics/SVG/1.1/DTD/svg11.dtd">
<!-- Created with matplotlib (https://matplotlib.org/) -->
<svg height="499.453947pt" version="1.1" viewBox="0 0 665.745312 499.453947" width="665.745312pt" xmlns="http://www.w3.org/2000/svg" xmlns:xlink="http://www.w3.org/1999/xlink">
 <defs>
  <style type="text/css">
*{stroke-linecap:butt;stroke-linejoin:round;}
  </style>
 </defs>
 <g id="figure_1">
  <g id="patch_1">
   <path d="M 0 499.453947 
L 665.745312 499.453947 
L 665.745312 0 
L 0 0 
z
" style="fill:#ffffff;"/>
  </g>
  <g id="axes_1">
   <g id="patch_2">
    <path d="M 41.245313 438.12 
L 528.052209 438.12 
L 528.052209 57.6 
L 41.245313 57.6 
z
" style="fill:#ffffff;"/>
   </g>
   <g id="matplotlib.axis_1">
    <g id="xtick_1">
     <g id="line2d_1">
      <path clip-path="url(#p63b70ed811)" d="M 240.680596 438.12 
L 240.680596 57.6 
" style="fill:none;stroke:#cccccc;stroke-linecap:round;stroke-width:0.8;"/>
     </g>
     <g id="text_1">
      <!-- 19/01/18 -->
      <defs>
       <path d="M 37.25 0 
L 28.46875 0 
L 28.46875 56 
Q 25.296875 52.984375 20.140625 49.953125 
Q 14.984375 46.921875 10.890625 45.40625 
L 10.890625 53.90625 
Q 18.265625 57.375 23.78125 62.296875 
Q 29.296875 67.234375 31.59375 71.875 
L 37.25 71.875 
z
" id="ArialMT-49"/>
       <path d="M 5.46875 16.546875 
L 13.921875 17.328125 
Q 14.984375 11.375 18.015625 8.6875 
Q 21.046875 6 25.78125 6 
Q 29.828125 6 32.875 7.859375 
Q 35.9375 9.71875 37.890625 12.8125 
Q 39.84375 15.921875 41.15625 21.1875 
Q 42.484375 26.46875 42.484375 31.9375 
Q 42.484375 32.515625 42.4375 33.6875 
Q 39.796875 29.5 35.234375 26.875 
Q 30.671875 24.265625 25.34375 24.265625 
Q 16.453125 24.265625 10.296875 30.703125 
Q 4.15625 37.15625 4.15625 47.703125 
Q 4.15625 58.59375 10.578125 65.234375 
Q 17 71.875 26.65625 71.875 
Q 33.640625 71.875 39.421875 68.109375 
Q 45.21875 64.359375 48.21875 57.390625 
Q 51.21875 50.4375 51.21875 37.25 
Q 51.21875 23.53125 48.234375 15.40625 
Q 45.265625 7.28125 39.375 3.03125 
Q 33.5 -1.21875 25.59375 -1.21875 
Q 17.1875 -1.21875 11.859375 3.4375 
Q 6.546875 8.109375 5.46875 16.546875 
z
M 41.453125 48.140625 
Q 41.453125 55.71875 37.421875 60.15625 
Q 33.40625 64.59375 27.734375 64.59375 
Q 21.875 64.59375 17.53125 59.8125 
Q 13.1875 55.03125 13.1875 47.40625 
Q 13.1875 40.578125 17.3125 36.296875 
Q 21.4375 32.03125 27.484375 32.03125 
Q 33.59375 32.03125 37.515625 36.296875 
Q 41.453125 40.578125 41.453125 48.140625 
z
" id="ArialMT-57"/>
       <path d="M 0 -1.21875 
L 20.75 72.796875 
L 27.78125 72.796875 
L 7.078125 -1.21875 
z
" id="ArialMT-47"/>
       <path d="M 4.15625 35.296875 
Q 4.15625 48 6.765625 55.734375 
Q 9.375 63.484375 14.515625 67.671875 
Q 19.671875 71.875 27.484375 71.875 
Q 33.25 71.875 37.59375 69.546875 
Q 41.9375 67.234375 44.765625 62.859375 
Q 47.609375 58.5 49.21875 52.21875 
Q 50.828125 45.953125 50.828125 35.296875 
Q 50.828125 22.703125 48.234375 14.96875 
Q 45.65625 7.234375 40.5 3 
Q 35.359375 -1.21875 27.484375 -1.21875 
Q 17.140625 -1.21875 11.234375 6.203125 
Q 4.15625 15.140625 4.15625 35.296875 
z
M 13.1875 35.296875 
Q 13.1875 17.671875 17.3125 11.828125 
Q 21.4375 6 27.484375 6 
Q 33.546875 6 37.671875 11.859375 
Q 41.796875 17.71875 41.796875 35.296875 
Q 41.796875 52.984375 37.671875 58.78125 
Q 33.546875 64.59375 27.390625 64.59375 
Q 21.34375 64.59375 17.71875 59.46875 
Q 13.1875 52.9375 13.1875 35.296875 
z
" id="ArialMT-48"/>
       <path d="M 17.671875 38.8125 
Q 12.203125 40.828125 9.5625 44.53125 
Q 6.9375 48.25 6.9375 53.421875 
Q 6.9375 61.234375 12.546875 66.546875 
Q 18.171875 71.875 27.484375 71.875 
Q 36.859375 71.875 42.578125 66.421875 
Q 48.296875 60.984375 48.296875 53.171875 
Q 48.296875 48.1875 45.671875 44.5 
Q 43.0625 40.828125 37.75 38.8125 
Q 44.34375 36.671875 47.78125 31.875 
Q 51.21875 27.09375 51.21875 20.453125 
Q 51.21875 11.28125 44.71875 5.03125 
Q 38.234375 -1.21875 27.640625 -1.21875 
Q 17.046875 -1.21875 10.546875 5.046875 
Q 4.046875 11.328125 4.046875 20.703125 
Q 4.046875 27.6875 7.59375 32.390625 
Q 11.140625 37.109375 17.671875 38.8125 
z
M 15.921875 53.71875 
Q 15.921875 48.640625 19.1875 45.40625 
Q 22.46875 42.1875 27.6875 42.1875 
Q 32.765625 42.1875 36.015625 45.375 
Q 39.265625 48.578125 39.265625 53.21875 
Q 39.265625 58.0625 35.90625 61.359375 
Q 32.5625 64.65625 27.59375 64.65625 
Q 22.5625 64.65625 19.234375 61.421875 
Q 15.921875 58.203125 15.921875 53.71875 
z
M 13.09375 20.65625 
Q 13.09375 16.890625 14.875 13.375 
Q 16.65625 9.859375 20.171875 7.921875 
Q 23.6875 6 27.734375 6 
Q 34.03125 6 38.125 10.046875 
Q 42.234375 14.109375 42.234375 20.359375 
Q 42.234375 26.703125 38.015625 30.859375 
Q 33.796875 35.015625 27.4375 35.015625 
Q 21.234375 35.015625 17.15625 30.90625 
Q 13.09375 26.8125 13.09375 20.65625 
z
" id="ArialMT-56"/>
      </defs>
      <g style="fill:#262626;" transform="translate(228.747617 477.70326)rotate(-45)scale(0.1 -0.1)">
       <use xlink:href="#ArialMT-49"/>
       <use x="55.615234" xlink:href="#ArialMT-57"/>
       <use x="111.230469" xlink:href="#ArialMT-47"/>
       <use x="139.013672" xlink:href="#ArialMT-48"/>
       <use x="194.628906" xlink:href="#ArialMT-49"/>
       <use x="250.244141" xlink:href="#ArialMT-47"/>
       <use x="278.027344" xlink:href="#ArialMT-49"/>
       <use x="333.642578" xlink:href="#ArialMT-56"/>
      </g>
     </g>
    </g>
    <g id="xtick_2">
     <g id="line2d_2">
      <path clip-path="url(#p63b70ed811)" d="M 462.446471 438.12 
L 462.446471 57.6 
" style="fill:none;stroke:#cccccc;stroke-linecap:round;stroke-width:0.8;"/>
     </g>
     <g id="text_2">
      <!-- 20/01/18 -->
      <defs>
       <path d="M 50.34375 8.453125 
L 50.34375 0 
L 3.03125 0 
Q 2.9375 3.171875 4.046875 6.109375 
Q 5.859375 10.9375 9.828125 15.625 
Q 13.8125 20.3125 21.34375 26.46875 
Q 33.015625 36.03125 37.109375 41.625 
Q 41.21875 47.21875 41.21875 52.203125 
Q 41.21875 57.421875 37.46875 61 
Q 33.734375 64.59375 27.734375 64.59375 
Q 21.390625 64.59375 17.578125 60.78125 
Q 13.765625 56.984375 13.71875 50.25 
L 4.6875 51.171875 
Q 5.609375 61.28125 11.65625 66.578125 
Q 17.71875 71.875 27.9375 71.875 
Q 38.234375 71.875 44.234375 66.15625 
Q 50.25 60.453125 50.25 52 
Q 50.25 47.703125 48.484375 43.546875 
Q 46.734375 39.40625 42.65625 34.8125 
Q 38.578125 30.21875 29.109375 22.21875 
Q 21.1875 15.578125 18.9375 13.203125 
Q 16.703125 10.84375 15.234375 8.453125 
z
" id="ArialMT-50"/>
      </defs>
      <g style="fill:#262626;" transform="translate(450.513492 477.70326)rotate(-45)scale(0.1 -0.1)">
       <use xlink:href="#ArialMT-50"/>
       <use x="55.615234" xlink:href="#ArialMT-48"/>
       <use x="111.230469" xlink:href="#ArialMT-47"/>
       <use x="139.013672" xlink:href="#ArialMT-48"/>
       <use x="194.628906" xlink:href="#ArialMT-49"/>
       <use x="250.244141" xlink:href="#ArialMT-47"/>
       <use x="278.027344" xlink:href="#ArialMT-49"/>
       <use x="333.642578" xlink:href="#ArialMT-56"/>
      </g>
     </g>
    </g>
    <g id="text_3">
     <!-- Acquisition Date -->
     <defs>
      <path d="M -0.140625 0 
L 27.34375 71.578125 
L 37.546875 71.578125 
L 66.84375 0 
L 56.0625 0 
L 47.703125 21.6875 
L 17.78125 21.6875 
L 9.90625 0 
z
M 20.515625 29.390625 
L 44.78125 29.390625 
L 37.3125 49.21875 
Q 33.890625 58.25 32.234375 64.0625 
Q 30.859375 57.171875 28.375 50.390625 
z
" id="ArialMT-65"/>
      <path d="M 40.4375 19 
L 49.078125 17.875 
Q 47.65625 8.9375 41.8125 3.875 
Q 35.984375 -1.171875 27.484375 -1.171875 
Q 16.84375 -1.171875 10.375 5.78125 
Q 3.90625 12.75 3.90625 25.734375 
Q 3.90625 34.125 6.6875 40.421875 
Q 9.46875 46.734375 15.15625 49.875 
Q 20.84375 53.03125 27.546875 53.03125 
Q 35.984375 53.03125 41.359375 48.75 
Q 46.734375 44.484375 48.25 36.625 
L 39.703125 35.296875 
Q 38.484375 40.53125 35.375 43.15625 
Q 32.28125 45.796875 27.875 45.796875 
Q 21.234375 45.796875 17.078125 41.03125 
Q 12.9375 36.28125 12.9375 25.984375 
Q 12.9375 15.53125 16.9375 10.796875 
Q 20.953125 6.0625 27.390625 6.0625 
Q 32.5625 6.0625 36.03125 9.234375 
Q 39.5 12.40625 40.4375 19 
z
" id="ArialMT-99"/>
      <path d="M 39.65625 -19.875 
L 39.65625 5.515625 
Q 37.59375 2.640625 33.90625 0.734375 
Q 30.21875 -1.171875 26.078125 -1.171875 
Q 16.84375 -1.171875 10.171875 6.203125 
Q 3.515625 13.578125 3.515625 26.421875 
Q 3.515625 34.234375 6.21875 40.421875 
Q 8.9375 46.625 14.078125 49.828125 
Q 19.234375 53.03125 25.390625 53.03125 
Q 35.015625 53.03125 40.53125 44.921875 
L 40.53125 51.859375 
L 48.4375 51.859375 
L 48.4375 -19.875 
z
M 12.546875 26.078125 
Q 12.546875 16.0625 16.75 11.0625 
Q 20.953125 6.0625 26.8125 6.0625 
Q 32.421875 6.0625 36.46875 10.8125 
Q 40.53125 15.578125 40.53125 25.296875 
Q 40.53125 35.640625 36.25 40.859375 
Q 31.984375 46.09375 26.21875 46.09375 
Q 20.515625 46.09375 16.53125 41.234375 
Q 12.546875 36.375 12.546875 26.078125 
z
" id="ArialMT-113"/>
      <path d="M 40.578125 0 
L 40.578125 7.625 
Q 34.515625 -1.171875 24.125 -1.171875 
Q 19.53125 -1.171875 15.546875 0.578125 
Q 11.578125 2.34375 9.640625 5 
Q 7.71875 7.671875 6.9375 11.53125 
Q 6.390625 14.109375 6.390625 19.734375 
L 6.390625 51.859375 
L 15.1875 51.859375 
L 15.1875 23.09375 
Q 15.1875 16.21875 15.71875 13.8125 
Q 16.546875 10.359375 19.234375 8.375 
Q 21.921875 6.390625 25.875 6.390625 
Q 29.828125 6.390625 33.296875 8.421875 
Q 36.765625 10.453125 38.203125 13.9375 
Q 39.65625 17.4375 39.65625 24.078125 
L 39.65625 51.859375 
L 48.4375 51.859375 
L 48.4375 0 
z
" id="ArialMT-117"/>
      <path d="M 6.640625 61.46875 
L 6.640625 71.578125 
L 15.4375 71.578125 
L 15.4375 61.46875 
z
M 6.640625 0 
L 6.640625 51.859375 
L 15.4375 51.859375 
L 15.4375 0 
z
" id="ArialMT-105"/>
      <path d="M 3.078125 15.484375 
L 11.765625 16.84375 
Q 12.5 11.625 15.84375 8.84375 
Q 19.1875 6.0625 25.203125 6.0625 
Q 31.25 6.0625 34.171875 8.515625 
Q 37.109375 10.984375 37.109375 14.3125 
Q 37.109375 17.28125 34.515625 19 
Q 32.71875 20.171875 25.53125 21.96875 
Q 15.875 24.421875 12.140625 26.203125 
Q 8.40625 27.984375 6.46875 31.125 
Q 4.546875 34.28125 4.546875 38.09375 
Q 4.546875 41.546875 6.125 44.5 
Q 7.71875 47.46875 10.453125 49.421875 
Q 12.5 50.921875 16.03125 51.96875 
Q 19.578125 53.03125 23.640625 53.03125 
Q 29.734375 53.03125 34.34375 51.265625 
Q 38.96875 49.515625 41.15625 46.5 
Q 43.359375 43.5 44.1875 38.484375 
L 35.59375 37.3125 
Q 35.015625 41.3125 32.203125 43.546875 
Q 29.390625 45.796875 24.265625 45.796875 
Q 18.21875 45.796875 15.625 43.796875 
Q 13.03125 41.796875 13.03125 39.109375 
Q 13.03125 37.40625 14.109375 36.03125 
Q 15.1875 34.625 17.484375 33.6875 
Q 18.796875 33.203125 25.25 31.453125 
Q 34.578125 28.953125 38.25 27.359375 
Q 41.9375 25.78125 44.03125 22.75 
Q 46.140625 19.734375 46.140625 15.234375 
Q 46.140625 10.84375 43.578125 6.953125 
Q 41.015625 3.078125 36.171875 0.953125 
Q 31.34375 -1.171875 25.25 -1.171875 
Q 15.140625 -1.171875 9.84375 3.03125 
Q 4.546875 7.234375 3.078125 15.484375 
z
" id="ArialMT-115"/>
      <path d="M 25.78125 7.859375 
L 27.046875 0.09375 
Q 23.34375 -0.6875 20.40625 -0.6875 
Q 15.625 -0.6875 12.984375 0.828125 
Q 10.359375 2.34375 9.28125 4.8125 
Q 8.203125 7.28125 8.203125 15.1875 
L 8.203125 45.015625 
L 1.765625 45.015625 
L 1.765625 51.859375 
L 8.203125 51.859375 
L 8.203125 64.703125 
L 16.9375 69.96875 
L 16.9375 51.859375 
L 25.78125 51.859375 
L 25.78125 45.015625 
L 16.9375 45.015625 
L 16.9375 14.703125 
Q 16.9375 10.9375 17.40625 9.859375 
Q 17.875 8.796875 18.921875 8.15625 
Q 19.96875 7.515625 21.921875 7.515625 
Q 23.390625 7.515625 25.78125 7.859375 
z
" id="ArialMT-116"/>
      <path d="M 3.328125 25.921875 
Q 3.328125 40.328125 11.328125 47.265625 
Q 18.015625 53.03125 27.640625 53.03125 
Q 38.328125 53.03125 45.109375 46.015625 
Q 51.90625 39.015625 51.90625 26.65625 
Q 51.90625 16.65625 48.90625 10.90625 
Q 45.90625 5.171875 40.15625 2 
Q 34.421875 -1.171875 27.640625 -1.171875 
Q 16.75 -1.171875 10.03125 5.8125 
Q 3.328125 12.796875 3.328125 25.921875 
z
M 12.359375 25.921875 
Q 12.359375 15.96875 16.703125 11.015625 
Q 21.046875 6.0625 27.640625 6.0625 
Q 34.1875 6.0625 38.53125 11.03125 
Q 42.875 16.015625 42.875 26.21875 
Q 42.875 35.84375 38.5 40.796875 
Q 34.125 45.75 27.640625 45.75 
Q 21.046875 45.75 16.703125 40.8125 
Q 12.359375 35.890625 12.359375 25.921875 
z
" id="ArialMT-111"/>
      <path d="M 6.59375 0 
L 6.59375 51.859375 
L 14.5 51.859375 
L 14.5 44.484375 
Q 20.21875 53.03125 31 53.03125 
Q 35.6875 53.03125 39.625 51.34375 
Q 43.5625 49.65625 45.515625 46.921875 
Q 47.46875 44.1875 48.25 40.4375 
Q 48.734375 37.984375 48.734375 31.890625 
L 48.734375 0 
L 39.9375 0 
L 39.9375 31.546875 
Q 39.9375 36.921875 38.90625 39.578125 
Q 37.890625 42.234375 35.28125 43.8125 
Q 32.671875 45.40625 29.15625 45.40625 
Q 23.53125 45.40625 19.453125 41.84375 
Q 15.375 38.28125 15.375 28.328125 
L 15.375 0 
z
" id="ArialMT-110"/>
      <path id="ArialMT-32"/>
      <path d="M 7.71875 0 
L 7.71875 71.578125 
L 32.375 71.578125 
Q 40.71875 71.578125 45.125 70.5625 
Q 51.265625 69.140625 55.609375 65.4375 
Q 61.28125 60.640625 64.078125 53.1875 
Q 66.890625 45.75 66.890625 36.1875 
Q 66.890625 28.03125 64.984375 21.734375 
Q 63.09375 15.4375 60.109375 11.296875 
Q 57.125 7.171875 53.578125 4.796875 
Q 50.046875 2.4375 45.046875 1.21875 
Q 40.046875 0 33.546875 0 
z
M 17.1875 8.453125 
L 32.46875 8.453125 
Q 39.546875 8.453125 43.578125 9.765625 
Q 47.609375 11.078125 50 13.484375 
Q 53.375 16.84375 55.25 22.53125 
Q 57.125 28.21875 57.125 36.328125 
Q 57.125 47.5625 53.4375 53.59375 
Q 49.75 59.625 44.484375 61.671875 
Q 40.671875 63.140625 32.234375 63.140625 
L 17.1875 63.140625 
z
" id="ArialMT-68"/>
      <path d="M 40.4375 6.390625 
Q 35.546875 2.25 31.03125 0.53125 
Q 26.515625 -1.171875 21.34375 -1.171875 
Q 12.796875 -1.171875 8.203125 3 
Q 3.609375 7.171875 3.609375 13.671875 
Q 3.609375 17.484375 5.34375 20.625 
Q 7.078125 23.78125 9.890625 25.6875 
Q 12.703125 27.59375 16.21875 28.5625 
Q 18.796875 29.25 24.03125 29.890625 
Q 34.671875 31.15625 39.703125 32.90625 
Q 39.75 34.71875 39.75 35.203125 
Q 39.75 40.578125 37.25 42.78125 
Q 33.890625 45.75 27.25 45.75 
Q 21.046875 45.75 18.09375 43.578125 
Q 15.140625 41.40625 13.71875 35.890625 
L 5.125 37.0625 
Q 6.296875 42.578125 8.984375 45.96875 
Q 11.671875 49.359375 16.75 51.1875 
Q 21.828125 53.03125 28.515625 53.03125 
Q 35.15625 53.03125 39.296875 51.46875 
Q 43.453125 49.90625 45.40625 47.53125 
Q 47.359375 45.171875 48.140625 41.546875 
Q 48.578125 39.3125 48.578125 33.453125 
L 48.578125 21.734375 
Q 48.578125 9.46875 49.140625 6.21875 
Q 49.703125 2.984375 51.375 0 
L 42.1875 0 
Q 40.828125 2.734375 40.4375 6.390625 
z
M 39.703125 26.03125 
Q 34.90625 24.078125 25.34375 22.703125 
Q 19.921875 21.921875 17.671875 20.9375 
Q 15.4375 19.96875 14.203125 18.09375 
Q 12.984375 16.21875 12.984375 13.921875 
Q 12.984375 10.40625 15.640625 8.0625 
Q 18.3125 5.71875 23.4375 5.71875 
Q 28.515625 5.71875 32.46875 7.9375 
Q 36.421875 10.15625 38.28125 14.015625 
Q 39.703125 17 39.703125 22.796875 
z
" id="ArialMT-97"/>
      <path d="M 42.09375 16.703125 
L 51.171875 15.578125 
Q 49.03125 7.625 43.21875 3.21875 
Q 37.40625 -1.171875 28.375 -1.171875 
Q 17 -1.171875 10.328125 5.828125 
Q 3.65625 12.84375 3.65625 25.484375 
Q 3.65625 38.578125 10.390625 45.796875 
Q 17.140625 53.03125 27.875 53.03125 
Q 38.28125 53.03125 44.875 45.953125 
Q 51.46875 38.875 51.46875 26.03125 
Q 51.46875 25.25 51.421875 23.6875 
L 12.75 23.6875 
Q 13.234375 15.140625 17.578125 10.59375 
Q 21.921875 6.0625 28.421875 6.0625 
Q 33.25 6.0625 36.671875 8.59375 
Q 40.09375 11.140625 42.09375 16.703125 
z
M 13.234375 30.90625 
L 42.1875 30.90625 
Q 41.609375 37.453125 38.875 40.71875 
Q 34.671875 45.796875 27.984375 45.796875 
Q 21.921875 45.796875 17.796875 41.75 
Q 13.671875 37.703125 13.234375 30.90625 
z
" id="ArialMT-101"/>
     </defs>
     <g style="fill:#262626;" transform="translate(248.519855 490.266447)scale(0.1 -0.1)">
      <use xlink:href="#ArialMT-65"/>
      <use x="66.699219" xlink:href="#ArialMT-99"/>
      <use x="116.699219" xlink:href="#ArialMT-113"/>
      <use x="172.314453" xlink:href="#ArialMT-117"/>
      <use x="227.929688" xlink:href="#ArialMT-105"/>
      <use x="250.146484" xlink:href="#ArialMT-115"/>
      <use x="300.146484" xlink:href="#ArialMT-105"/>
      <use x="322.363281" xlink:href="#ArialMT-116"/>
      <use x="350.146484" xlink:href="#ArialMT-105"/>
      <use x="372.363281" xlink:href="#ArialMT-111"/>
      <use x="427.978516" xlink:href="#ArialMT-110"/>
      <use x="483.59375" xlink:href="#ArialMT-32"/>
      <use x="511.376953" xlink:href="#ArialMT-68"/>
      <use x="583.59375" xlink:href="#ArialMT-97"/>
      <use x="639.208984" xlink:href="#ArialMT-116"/>
      <use x="666.992188" xlink:href="#ArialMT-101"/>
     </g>
    </g>
   </g>
   <g id="matplotlib.axis_2">
    <g id="ytick_1">
     <g id="line2d_3">
      <path clip-path="url(#p63b70ed811)" d="M 41.245313 418.232697 
L 528.052209 418.232697 
" style="fill:none;stroke:#cccccc;stroke-linecap:round;stroke-width:0.8;"/>
     </g>
     <g id="text_4">
      <!-- 0.6 -->
      <defs>
       <path d="M 9.078125 0 
L 9.078125 10.015625 
L 19.09375 10.015625 
L 19.09375 0 
z
" id="ArialMT-46"/>
       <path d="M 49.75 54.046875 
L 41.015625 53.375 
Q 39.84375 58.546875 37.703125 60.890625 
Q 34.125 64.65625 28.90625 64.65625 
Q 24.703125 64.65625 21.53125 62.3125 
Q 17.390625 59.28125 14.984375 53.46875 
Q 12.59375 47.65625 12.5 36.921875 
Q 15.671875 41.75 20.265625 44.09375 
Q 24.859375 46.4375 29.890625 46.4375 
Q 38.671875 46.4375 44.84375 39.96875 
Q 51.03125 33.5 51.03125 23.25 
Q 51.03125 16.5 48.125 10.71875 
Q 45.21875 4.9375 40.140625 1.859375 
Q 35.0625 -1.21875 28.609375 -1.21875 
Q 17.625 -1.21875 10.6875 6.859375 
Q 3.765625 14.9375 3.765625 33.5 
Q 3.765625 54.25 11.421875 63.671875 
Q 18.109375 71.875 29.4375 71.875 
Q 37.890625 71.875 43.28125 67.140625 
Q 48.6875 62.40625 49.75 54.046875 
z
M 13.875 23.1875 
Q 13.875 18.65625 15.796875 14.5 
Q 17.71875 10.359375 21.1875 8.171875 
Q 24.65625 6 28.46875 6 
Q 34.03125 6 38.03125 10.484375 
Q 42.046875 14.984375 42.046875 22.703125 
Q 42.046875 30.125 38.078125 34.390625 
Q 34.125 38.671875 28.125 38.671875 
Q 22.171875 38.671875 18.015625 34.390625 
Q 13.875 30.125 13.875 23.1875 
z
" id="ArialMT-54"/>
      </defs>
      <g style="fill:#262626;" transform="translate(20.345313 421.811603)scale(0.1 -0.1)">
       <use xlink:href="#ArialMT-48"/>
       <use x="55.615234" xlink:href="#ArialMT-46"/>
       <use x="83.398438" xlink:href="#ArialMT-54"/>
      </g>
     </g>
    </g>
    <g id="ytick_2">
     <g id="line2d_4">
      <path clip-path="url(#p63b70ed811)" d="M 41.245313 346.394105 
L 528.052209 346.394105 
" style="fill:none;stroke:#cccccc;stroke-linecap:round;stroke-width:0.8;"/>
     </g>
     <g id="text_5">
      <!-- 0.8 -->
      <g style="fill:#262626;" transform="translate(20.345313 349.973011)scale(0.1 -0.1)">
       <use xlink:href="#ArialMT-48"/>
       <use x="55.615234" xlink:href="#ArialMT-46"/>
       <use x="83.398438" xlink:href="#ArialMT-56"/>
      </g>
     </g>
    </g>
    <g id="ytick_3">
     <g id="line2d_5">
      <path clip-path="url(#p63b70ed811)" d="M 41.245313 274.555513 
L 528.052209 274.555513 
" style="fill:none;stroke:#cccccc;stroke-linecap:round;stroke-width:0.8;"/>
     </g>
     <g id="text_6">
      <!-- 1.0 -->
      <g style="fill:#262626;" transform="translate(20.345313 278.134419)scale(0.1 -0.1)">
       <use xlink:href="#ArialMT-49"/>
       <use x="55.615234" xlink:href="#ArialMT-46"/>
       <use x="83.398438" xlink:href="#ArialMT-48"/>
      </g>
     </g>
    </g>
    <g id="ytick_4">
     <g id="line2d_6">
      <path clip-path="url(#p63b70ed811)" d="M 41.245313 202.716921 
L 528.052209 202.716921 
" style="fill:none;stroke:#cccccc;stroke-linecap:round;stroke-width:0.8;"/>
     </g>
     <g id="text_7">
      <!-- 1.2 -->
      <g style="fill:#262626;" transform="translate(20.345313 206.295827)scale(0.1 -0.1)">
       <use xlink:href="#ArialMT-49"/>
       <use x="55.615234" xlink:href="#ArialMT-46"/>
       <use x="83.398438" xlink:href="#ArialMT-50"/>
      </g>
     </g>
    </g>
    <g id="ytick_5">
     <g id="line2d_7">
      <path clip-path="url(#p63b70ed811)" d="M 41.245313 130.878329 
L 528.052209 130.878329 
" style="fill:none;stroke:#cccccc;stroke-linecap:round;stroke-width:0.8;"/>
     </g>
     <g id="text_8">
      <!-- 1.4 -->
      <defs>
       <path d="M 32.328125 0 
L 32.328125 17.140625 
L 1.265625 17.140625 
L 1.265625 25.203125 
L 33.9375 71.578125 
L 41.109375 71.578125 
L 41.109375 25.203125 
L 50.78125 25.203125 
L 50.78125 17.140625 
L 41.109375 17.140625 
L 41.109375 0 
z
M 32.328125 25.203125 
L 32.328125 57.46875 
L 9.90625 25.203125 
z
" id="ArialMT-52"/>
      </defs>
      <g style="fill:#262626;" transform="translate(20.345313 134.457235)scale(0.1 -0.1)">
       <use xlink:href="#ArialMT-49"/>
       <use x="55.615234" xlink:href="#ArialMT-46"/>
       <use x="83.398438" xlink:href="#ArialMT-52"/>
      </g>
     </g>
    </g>
    <g id="ytick_6">
     <g id="line2d_8">
      <path clip-path="url(#p63b70ed811)" d="M 41.245313 59.039737 
L 528.052209 59.039737 
" style="fill:none;stroke:#cccccc;stroke-linecap:round;stroke-width:0.8;"/>
     </g>
     <g id="text_9">
      <!-- 1.6 -->
      <g style="fill:#262626;" transform="translate(20.345313 62.618643)scale(0.1 -0.1)">
       <use xlink:href="#ArialMT-49"/>
       <use x="55.615234" xlink:href="#ArialMT-46"/>
       <use x="83.398438" xlink:href="#ArialMT-54"/>
      </g>
     </g>
    </g>
    <g id="text_10">
     <!-- TIC -->
     <defs>
      <path d="M 25.921875 0 
L 25.921875 63.140625 
L 2.34375 63.140625 
L 2.34375 71.578125 
L 59.078125 71.578125 
L 59.078125 63.140625 
L 35.40625 63.140625 
L 35.40625 0 
z
" id="ArialMT-84"/>
      <path d="M 9.328125 0 
L 9.328125 71.578125 
L 18.796875 71.578125 
L 18.796875 0 
z
" id="ArialMT-73"/>
      <path d="M 58.796875 25.09375 
L 68.265625 22.703125 
Q 65.28125 11.03125 57.546875 4.90625 
Q 49.8125 -1.21875 38.625 -1.21875 
Q 27.046875 -1.21875 19.796875 3.484375 
Q 12.546875 8.203125 8.765625 17.140625 
Q 4.984375 26.078125 4.984375 36.328125 
Q 4.984375 47.515625 9.25 55.828125 
Q 13.53125 64.15625 21.40625 68.46875 
Q 29.296875 72.796875 38.765625 72.796875 
Q 49.515625 72.796875 56.828125 67.328125 
Q 64.15625 61.859375 67.046875 51.953125 
L 57.71875 49.75 
Q 55.21875 57.5625 50.484375 61.125 
Q 45.75 64.703125 38.578125 64.703125 
Q 30.328125 64.703125 24.78125 60.734375 
Q 19.234375 56.78125 16.984375 50.109375 
Q 14.75 43.453125 14.75 36.375 
Q 14.75 27.25 17.40625 20.4375 
Q 20.0625 13.625 25.671875 10.25 
Q 31.296875 6.890625 37.84375 6.890625 
Q 45.796875 6.890625 51.3125 11.46875 
Q 56.84375 16.0625 58.796875 25.09375 
z
" id="ArialMT-67"/>
     </defs>
     <g style="fill:#262626;" transform="translate(14.357813 255.913906)rotate(-90)scale(0.1 -0.1)">
      <use xlink:href="#ArialMT-84"/>
      <use x="61.083984" xlink:href="#ArialMT-73"/>
      <use x="88.867188" xlink:href="#ArialMT-67"/>
     </g>
    </g>
    <g id="text_11">
     <!-- 1e9 -->
     <g style="fill:#262626;" transform="translate(41.245313 54.6)scale(0.1 -0.1)">
      <use xlink:href="#ArialMT-49"/>
      <use x="55.615234" xlink:href="#ArialMT-101"/>
      <use x="111.230469" xlink:href="#ArialMT-57"/>
     </g>
    </g>
   </g>
   <g id="line2d_9">
    <defs>
     <path d="M 0 3 
C 0.795609 3 1.55874 2.683901 2.12132 2.12132 
C 2.683901 1.55874 3 0.795609 3 0 
C 3 -0.795609 2.683901 -1.55874 2.12132 -2.12132 
C 1.55874 -2.683901 0.795609 -3 0 -3 
C -0.795609 -3 -1.55874 -2.683901 -2.12132 -2.12132 
C -2.683901 -1.55874 -3 -0.795609 -3 0 
C -3 0.795609 -2.683901 1.55874 -2.12132 2.12132 
C -1.55874 2.683901 -0.795609 3 0 3 
z
" id="maea32d1d8b" style="stroke:#4c72b0;"/>
    </defs>
    <g clip-path="url(#p63b70ed811)">
     <use style="fill:#4c72b0;stroke:#4c72b0;" x="407.159006" xlink:href="#maea32d1d8b" y="211.948921"/>
     <use style="fill:#4c72b0;stroke:#4c72b0;" x="213.113866" xlink:href="#maea32d1d8b" y="230.510426"/>
     <use style="fill:#4c72b0;stroke:#4c72b0;" x="210.803804" xlink:href="#maea32d1d8b" y="239.163882"/>
     <use style="fill:#4c72b0;stroke:#4c72b0;" x="201.56356" xlink:href="#maea32d1d8b" y="225.453744"/>
     <use style="fill:#4c72b0;stroke:#4c72b0;" x="238.678543" xlink:href="#maea32d1d8b" y="218.842951"/>
     <use style="fill:#4c72b0;stroke:#4c72b0;" x="400.228823" xlink:href="#maea32d1d8b" y="231.618858"/>
     <use style="fill:#4c72b0;stroke:#4c72b0;" x="229.438298" xlink:href="#maea32d1d8b" y="205.161157"/>
     <use style="fill:#4c72b0;stroke:#4c72b0;" x="259.623098" xlink:href="#maea32d1d8b" y="217.74441"/>
     <use style="fill:#4c72b0;stroke:#4c72b0;" x="289.807897" xlink:href="#maea32d1d8b" y="237.728802"/>
     <use style="fill:#4c72b0;stroke:#4c72b0;" x="231.748359" xlink:href="#maea32d1d8b" y="214.982732"/>
     <use style="fill:#4c72b0;stroke:#4c72b0;" x="365.423901" xlink:href="#maea32d1d8b" y="216.793342"/>
     <use style="fill:#4c72b0;stroke:#4c72b0;" x="245.608727" xlink:href="#maea32d1d8b" y="232.714724"/>
     <use style="fill:#4c72b0;stroke:#4c72b0;" x="324.61282" xlink:href="#maea32d1d8b" y="203.228121"/>
     <use style="fill:#4c72b0;stroke:#4c72b0;" x="273.483465" xlink:href="#maea32d1d8b" y="226.073693"/>
     <use style="fill:#4c72b0;stroke:#4c72b0;" x="372.354084" xlink:href="#maea32d1d8b" y="246.324244"/>
     <use style="fill:#4c72b0;stroke:#4c72b0;" x="390.988578" xlink:href="#maea32d1d8b" y="218.991855"/>
     <use style="fill:#4c72b0;stroke:#4c72b0;" x="171.37876" xlink:href="#maea32d1d8b" y="209.330481"/>
     <use style="fill:#4c72b0;stroke:#4c72b0;" x="220.044049" xlink:href="#maea32d1d8b" y="228.119384"/>
     <use style="fill:#4c72b0;stroke:#4c72b0;" x="196.943437" xlink:href="#maea32d1d8b" y="209.569124"/>
     <use style="fill:#4c72b0;stroke:#4c72b0;" x="257.313037" xlink:href="#maea32d1d8b" y="225.013731"/>
     <use style="fill:#4c72b0;stroke:#4c72b0;" x="376.974207" xlink:href="#maea32d1d8b" y="253.077154"/>
     <use style="fill:#4c72b0;stroke:#4c72b0;" x="409.469068" xlink:href="#maea32d1d8b" y="210.985009"/>
     <use style="fill:#4c72b0;stroke:#4c72b0;" x="310.752452" xlink:href="#maea32d1d8b" y="221.473003"/>
     <use style="fill:#4c72b0;stroke:#4c72b0;" x="266.553281" xlink:href="#maea32d1d8b" y="233.213722"/>
     <use style="fill:#4c72b0;stroke:#4c72b0;" x="381.594329" xlink:href="#maea32d1d8b" y="217.523009"/>
     <use style="fill:#4c72b0;stroke:#4c72b0;" x="299.048142" xlink:href="#maea32d1d8b" y="220.573688"/>
     <use style="fill:#4c72b0;stroke:#4c72b0;" x="275.793526" xlink:href="#maea32d1d8b" y="250.170796"/>
     <use style="fill:#4c72b0;stroke:#4c72b0;" x="234.058421" xlink:href="#maea32d1d8b" y="205.212837"/>
     <use style="fill:#4c72b0;stroke:#4c72b0;" x="182.929066" xlink:href="#maea32d1d8b" y="222.67247"/>
     <use style="fill:#4c72b0;stroke:#4c72b0;" x="317.682636" xlink:href="#maea32d1d8b" y="228.832268"/>
     <use style="fill:#4c72b0;stroke:#4c72b0;" x="294.42802" xlink:href="#maea32d1d8b" y="209.059464"/>
     <use style="fill:#4c72b0;stroke:#4c72b0;" x="287.497836" xlink:href="#maea32d1d8b" y="222.27115"/>
     <use style="fill:#4c72b0;stroke:#4c72b0;" x="240.988604" xlink:href="#maea32d1d8b" y="244.809277"/>
     <use style="fill:#4c72b0;stroke:#4c72b0;" x="243.298665" xlink:href="#maea32d1d8b" y="211.495492"/>
     <use style="fill:#4c72b0;stroke:#4c72b0;" x="227.128237" xlink:href="#maea32d1d8b" y="218.350137"/>
     <use style="fill:#4c72b0;stroke:#4c72b0;" x="282.877714" xlink:href="#maea32d1d8b" y="233.708556"/>
     <use style="fill:#4c72b0;stroke:#4c72b0;" x="386.368456" xlink:href="#maea32d1d8b" y="202.202195"/>
     <use style="fill:#4c72b0;stroke:#4c72b0;" x="331.543003" xlink:href="#maea32d1d8b" y="216.825825"/>
     <use style="fill:#4c72b0;stroke:#4c72b0;" x="296.738081" xlink:href="#maea32d1d8b" y="242.967678"/>
     <use style="fill:#4c72b0;stroke:#4c72b0;" x="178.308944" xlink:href="#maea32d1d8b" y="218.541069"/>
     <use style="fill:#4c72b0;stroke:#4c72b0;" x="271.173404" xlink:href="#maea32d1d8b" y="230.436818"/>
     <use style="fill:#4c72b0;stroke:#4c72b0;" x="199.253498" xlink:href="#maea32d1d8b" y="229.630253"/>
     <use style="fill:#4c72b0;stroke:#4c72b0;" x="393.298639" xlink:href="#maea32d1d8b" y="210.741583"/>
     <use style="fill:#4c72b0;stroke:#4c72b0;" x="255.002975" xlink:href="#maea32d1d8b" y="233.150181"/>
     <use style="fill:#4c72b0;stroke:#4c72b0;" x="379.284268" xlink:href="#maea32d1d8b" y="247.512557"/>
     <use style="fill:#4c72b0;stroke:#4c72b0;" x="261.933159" xlink:href="#maea32d1d8b" y="205.566021"/>
     <use style="fill:#4c72b0;stroke:#4c72b0;" x="308.442391" xlink:href="#maea32d1d8b" y="218.748394"/>
     <use style="fill:#4c72b0;stroke:#4c72b0;" x="363.113839" xlink:href="#maea32d1d8b" y="234.692258"/>
     <use style="fill:#4c72b0;stroke:#4c72b0;" x="189.85925" xlink:href="#maea32d1d8b" y="203.693809"/>
     <use style="fill:#4c72b0;stroke:#4c72b0;" x="285.187775" xlink:href="#maea32d1d8b" y="232.378023"/>
     <use style="fill:#4c72b0;stroke:#4c72b0;" x="280.567653" xlink:href="#maea32d1d8b" y="249.791044"/>
     <use style="fill:#4c72b0;stroke:#4c72b0;" x="313.062514" xlink:href="#maea32d1d8b" y="209.15105"/>
     <use style="fill:#4c72b0;stroke:#4c72b0;" x="367.733962" xlink:href="#maea32d1d8b" y="230.421524"/>
     <use style="fill:#4c72b0;stroke:#4c72b0;" x="175.998882" xlink:href="#maea32d1d8b" y="226.933723"/>
     <use style="fill:#4c72b0;stroke:#4c72b0;" x="370.044023" xlink:href="#maea32d1d8b" y="217.192693"/>
     <use style="fill:#4c72b0;stroke:#4c72b0;" x="185.239127" xlink:href="#maea32d1d8b" y="222.264313"/>
     <use style="fill:#4c72b0;stroke:#4c72b0;" x="303.668265" xlink:href="#maea32d1d8b" y="241.743487"/>
     <use style="fill:#4c72b0;stroke:#4c72b0;" x="322.302758" xlink:href="#maea32d1d8b" y="208.383655"/>
     <use style="fill:#4c72b0;stroke:#4c72b0;" x="173.688821" xlink:href="#maea32d1d8b" y="232.778732"/>
     <use style="fill:#4c72b0;stroke:#4c72b0;" x="252.692914" xlink:href="#maea32d1d8b" y="232.657633"/>
     <use style="fill:#4c72b0;stroke:#4c72b0;" x="395.6087" xlink:href="#maea32d1d8b" y="211.719687"/>
     <use style="fill:#4c72b0;stroke:#4c72b0;" x="397.918762" xlink:href="#maea32d1d8b" y="228.130919"/>
     <use style="fill:#4c72b0;stroke:#4c72b0;" x="329.232942" xlink:href="#maea32d1d8b" y="241.315445"/>
     <use style="fill:#4c72b0;stroke:#4c72b0;" x="217.733988" xlink:href="#maea32d1d8b" y="211.713735"/>
     <use style="fill:#4c72b0;stroke:#4c72b0;" x="206.183682" xlink:href="#maea32d1d8b" y="221.266542"/>
     <use style="fill:#4c72b0;stroke:#4c72b0;" x="315.372575" xlink:href="#maea32d1d8b" y="226.664752"/>
     <use style="fill:#4c72b0;stroke:#4c72b0;" x="383.90439" xlink:href="#maea32d1d8b" y="203.676143"/>
     <use style="fill:#4c72b0;stroke:#4c72b0;" x="247.918788" xlink:href="#maea32d1d8b" y="230.392174"/>
     <use style="fill:#4c72b0;stroke:#4c72b0;" x="404.848945" xlink:href="#maea32d1d8b" y="249.533423"/>
     <use style="fill:#4c72b0;stroke:#4c72b0;" x="301.358203" xlink:href="#maea32d1d8b" y="210.071116"/>
     <use style="fill:#4c72b0;stroke:#4c72b0;" x="192.169311" xlink:href="#maea32d1d8b" y="226.316804"/>
     <use style="fill:#4c72b0;stroke:#4c72b0;" x="268.863343" xlink:href="#maea32d1d8b" y="229.740632"/>
     <use style="fill:#4c72b0;stroke:#4c72b0;" x="326.922881" xlink:href="#maea32d1d8b" y="201.302594"/>
     <use style="fill:#4c72b0;stroke:#4c72b0;" x="203.873621" xlink:href="#maea32d1d8b" y="223.343639"/>
     <use style="fill:#4c72b0;stroke:#4c72b0;" x="215.423927" xlink:href="#maea32d1d8b" y="240.002539"/>
     <use style="fill:#4c72b0;stroke:#4c72b0;" x="224.818176" xlink:href="#maea32d1d8b" y="212.177797"/>
     <use style="fill:#4c72b0;stroke:#4c72b0;" x="187.549188" xlink:href="#maea32d1d8b" y="214.619094"/>
     <use style="fill:#4c72b0;stroke:#4c72b0;" x="169.068699" xlink:href="#maea32d1d8b" y="231.189816"/>
    </g>
   </g>
   <g id="line2d_10">
    <defs>
     <path d="M -0 4 
L 4 -4 
L -4 -4 
z
" id="mf6dea97741" style="stroke:#55a868;stroke-linejoin:miter;"/>
    </defs>
    <g clip-path="url(#p63b70ed811)">
     <use style="fill:#55a868;stroke:#55a868;stroke-linejoin:miter;" x="155.054328" xlink:href="#mf6dea97741" y="207.859349"/>
     <use style="fill:#55a868;stroke:#55a868;stroke-linejoin:miter;" x="360.803778" xlink:href="#mf6dea97741" y="209.632987"/>
     <use style="fill:#55a868;stroke:#55a868;stroke-linejoin:miter;" x="157.364389" xlink:href="#mf6dea97741" y="214.852229"/>
     <use style="fill:#55a868;stroke:#55a868;stroke-linejoin:miter;" x="159.67445" xlink:href="#mf6dea97741" y="195.448808"/>
     <use style="fill:#55a868;stroke:#55a868;stroke-linejoin:miter;" x="161.984511" xlink:href="#mf6dea97741" y="189.494948"/>
     <use style="fill:#55a868;stroke:#55a868;stroke-linejoin:miter;" x="164.294572" xlink:href="#mf6dea97741" y="212.418956"/>
     <use style="fill:#55a868;stroke:#55a868;stroke-linejoin:miter;" x="351.101521" xlink:href="#mf6dea97741" y="213.822927"/>
     <use style="fill:#55a868;stroke:#55a868;stroke-linejoin:miter;" x="353.719591" xlink:href="#mf6dea97741" y="218.183629"/>
     <use style="fill:#55a868;stroke:#55a868;stroke-linejoin:miter;" x="356.029652" xlink:href="#mf6dea97741" y="218.640276"/>
     <use style="fill:#55a868;stroke:#55a868;stroke-linejoin:miter;" x="358.493717" xlink:href="#mf6dea97741" y="213.383708"/>
     <use style="fill:#55a868;stroke:#55a868;stroke-linejoin:miter;" x="180.619005" xlink:href="#mf6dea97741" y="215.022816"/>
     <use style="fill:#55a868;stroke:#55a868;stroke-linejoin:miter;" x="208.493743" xlink:href="#mf6dea97741" y="228.298095"/>
     <use style="fill:#55a868;stroke:#55a868;stroke-linejoin:miter;" x="236.368482" xlink:href="#mf6dea97741" y="209.785455"/>
     <use style="fill:#55a868;stroke:#55a868;stroke-linejoin:miter;" x="264.24322" xlink:href="#mf6dea97741" y="217.621685"/>
     <use style="fill:#55a868;stroke:#55a868;stroke-linejoin:miter;" x="292.117959" xlink:href="#mf6dea97741" y="208.656857"/>
     <use style="fill:#55a868;stroke:#55a868;stroke-linejoin:miter;" x="319.992697" xlink:href="#mf6dea97741" y="203.590041"/>
     <use style="fill:#55a868;stroke:#55a868;stroke-linejoin:miter;" x="374.664145" xlink:href="#mf6dea97741" y="208.75913"/>
     <use style="fill:#55a868;stroke:#55a868;stroke-linejoin:miter;" x="402.538884" xlink:href="#mf6dea97741" y="208.207809"/>
    </g>
   </g>
   <g id="line2d_11">
    <defs>
     <path d="M 0 -4 
L -4 4 
L 4 4 
z
" id="mca4c2d463e" style="stroke:#c44e52;stroke-linejoin:miter;"/>
    </defs>
    <g clip-path="url(#p63b70ed811)">
     <use style="fill:#c44e52;stroke:#c44e52;stroke-linejoin:miter;" x="166.604634" xlink:href="#mca4c2d463e" y="192.14471"/>
     <use style="fill:#c44e52;stroke:#c44e52;stroke-linejoin:miter;" x="194.633376" xlink:href="#mca4c2d463e" y="203.191517"/>
     <use style="fill:#c44e52;stroke:#c44e52;stroke-linejoin:miter;" x="222.508115" xlink:href="#mca4c2d463e" y="205.263617"/>
     <use style="fill:#c44e52;stroke:#c44e52;stroke-linejoin:miter;" x="250.382853" xlink:href="#mca4c2d463e" y="199.927366"/>
     <use style="fill:#c44e52;stroke:#c44e52;stroke-linejoin:miter;" x="278.257591" xlink:href="#mca4c2d463e" y="208.747627"/>
     <use style="fill:#c44e52;stroke:#c44e52;stroke-linejoin:miter;" x="306.13233" xlink:href="#mca4c2d463e" y="204.577361"/>
     <use style="fill:#c44e52;stroke:#c44e52;stroke-linejoin:miter;" x="334.007068" xlink:href="#mca4c2d463e" y="197.668352"/>
     <use style="fill:#c44e52;stroke:#c44e52;stroke-linejoin:miter;" x="388.678517" xlink:href="#mca4c2d463e" y="206.143206"/>
    </g>
   </g>
   <g id="line2d_12">
    <defs>
     <path d="M -3 3 
L 3 3 
L 3 -3 
L -3 -3 
z
" id="m8c671a9a67" style="stroke:#8172b3;stroke-linejoin:miter;"/>
    </defs>
    <g clip-path="url(#p63b70ed811)">
     <use style="fill:#8172b3;stroke:#8172b3;stroke-linejoin:miter;" x="41.245312" xlink:href="#m8c671a9a67" y="405.579374"/>
     <use style="fill:#8172b3;stroke:#8172b3;stroke-linejoin:miter;" x="43.555374" xlink:href="#m8c671a9a67" y="401.215757"/>
     <use style="fill:#8172b3;stroke:#8172b3;stroke-linejoin:miter;" x="45.865435" xlink:href="#m8c671a9a67" y="406.21892"/>
     <use style="fill:#8172b3;stroke:#8172b3;stroke-linejoin:miter;" x="48.175496" xlink:href="#m8c671a9a67" y="409.174591"/>
     <use style="fill:#8172b3;stroke:#8172b3;stroke-linejoin:miter;" x="50.485557" xlink:href="#m8c671a9a67" y="400.655187"/>
     <use style="fill:#8172b3;stroke:#8172b3;stroke-linejoin:miter;" x="52.795618" xlink:href="#m8c671a9a67" y="403.556334"/>
     <use style="fill:#8172b3;stroke:#8172b3;stroke-linejoin:miter;" x="55.259684" xlink:href="#m8c671a9a67" y="399.554606"/>
     <use style="fill:#8172b3;stroke:#8172b3;stroke-linejoin:miter;" x="57.569745" xlink:href="#m8c671a9a67" y="401.031547"/>
     <use style="fill:#8172b3;stroke:#8172b3;stroke-linejoin:miter;" x="59.879806" xlink:href="#m8c671a9a67" y="402.344848"/>
     <use style="fill:#8172b3;stroke:#8172b3;stroke-linejoin:miter;" x="62.189867" xlink:href="#m8c671a9a67" y="405.029288"/>
     <use style="fill:#8172b3;stroke:#8172b3;stroke-linejoin:miter;" x="64.499929" xlink:href="#m8c671a9a67" y="340.758677"/>
     <use style="fill:#8172b3;stroke:#8172b3;stroke-linejoin:miter;" x="66.80999" xlink:href="#m8c671a9a67" y="341.756561"/>
     <use style="fill:#8172b3;stroke:#8172b3;stroke-linejoin:miter;" x="69.120051" xlink:href="#m8c671a9a67" y="341.390763"/>
     <use style="fill:#8172b3;stroke:#8172b3;stroke-linejoin:miter;" x="71.430112" xlink:href="#m8c671a9a67" y="339.151188"/>
     <use style="fill:#8172b3;stroke:#8172b3;stroke-linejoin:miter;" x="73.740173" xlink:href="#m8c671a9a67" y="346.296016"/>
     <use style="fill:#8172b3;stroke:#8172b3;stroke-linejoin:miter;" x="76.050235" xlink:href="#m8c671a9a67" y="344.9781"/>
     <use style="fill:#8172b3;stroke:#8172b3;stroke-linejoin:miter;" x="78.360296" xlink:href="#m8c671a9a67" y="338.882487"/>
     <use style="fill:#8172b3;stroke:#8172b3;stroke-linejoin:miter;" x="80.670357" xlink:href="#m8c671a9a67" y="342.659256"/>
     <use style="fill:#8172b3;stroke:#8172b3;stroke-linejoin:miter;" x="83.134422" xlink:href="#m8c671a9a67" y="344.15721"/>
     <use style="fill:#8172b3;stroke:#8172b3;stroke-linejoin:miter;" x="85.444483" xlink:href="#m8c671a9a67" y="338.082876"/>
     <use style="fill:#8172b3;stroke:#8172b3;stroke-linejoin:miter;" x="87.754545" xlink:href="#m8c671a9a67" y="295.943236"/>
     <use style="fill:#8172b3;stroke:#8172b3;stroke-linejoin:miter;" x="90.064606" xlink:href="#m8c671a9a67" y="296.707612"/>
     <use style="fill:#8172b3;stroke:#8172b3;stroke-linejoin:miter;" x="92.374667" xlink:href="#m8c671a9a67" y="299.414215"/>
     <use style="fill:#8172b3;stroke:#8172b3;stroke-linejoin:miter;" x="94.684728" xlink:href="#m8c671a9a67" y="286.948876"/>
     <use style="fill:#8172b3;stroke:#8172b3;stroke-linejoin:miter;" x="96.994789" xlink:href="#m8c671a9a67" y="288.17821"/>
     <use style="fill:#8172b3;stroke:#8172b3;stroke-linejoin:miter;" x="99.304851" xlink:href="#m8c671a9a67" y="210.812031"/>
     <use style="fill:#8172b3;stroke:#8172b3;stroke-linejoin:miter;" x="101.614912" xlink:href="#m8c671a9a67" y="215.018017"/>
     <use style="fill:#8172b3;stroke:#8172b3;stroke-linejoin:miter;" x="103.924973" xlink:href="#m8c671a9a67" y="213.146834"/>
     <use style="fill:#8172b3;stroke:#8172b3;stroke-linejoin:miter;" x="106.235034" xlink:href="#m8c671a9a67" y="211.049304"/>
     <use style="fill:#8172b3;stroke:#8172b3;stroke-linejoin:miter;" x="108.545095" xlink:href="#m8c671a9a67" y="164.713712"/>
     <use style="fill:#8172b3;stroke:#8172b3;stroke-linejoin:miter;" x="110.855157" xlink:href="#m8c671a9a67" y="165.130565"/>
     <use style="fill:#8172b3;stroke:#8172b3;stroke-linejoin:miter;" x="113.319222" xlink:href="#m8c671a9a67" y="120.602775"/>
     <use style="fill:#8172b3;stroke:#8172b3;stroke-linejoin:miter;" x="115.629283" xlink:href="#m8c671a9a67" y="117.299385"/>
     <use style="fill:#8172b3;stroke:#8172b3;stroke-linejoin:miter;" x="117.939344" xlink:href="#m8c671a9a67" y="125.909366"/>
     <use style="fill:#8172b3;stroke:#8172b3;stroke-linejoin:miter;" x="120.249405" xlink:href="#m8c671a9a67" y="123.387951"/>
     <use style="fill:#8172b3;stroke:#8172b3;stroke-linejoin:miter;" x="122.559467" xlink:href="#m8c671a9a67" y="124.804412"/>
     <use style="fill:#8172b3;stroke:#8172b3;stroke-linejoin:miter;" x="124.869528" xlink:href="#m8c671a9a67" y="83.374396"/>
     <use style="fill:#8172b3;stroke:#8172b3;stroke-linejoin:miter;" x="127.179589" xlink:href="#m8c671a9a67" y="87.804939"/>
     <use style="fill:#8172b3;stroke:#8172b3;stroke-linejoin:miter;" x="129.48965" xlink:href="#m8c671a9a67" y="116.745746"/>
     <use style="fill:#8172b3;stroke:#8172b3;stroke-linejoin:miter;" x="131.799711" xlink:href="#m8c671a9a67" y="82.267338"/>
     <use style="fill:#8172b3;stroke:#8172b3;stroke-linejoin:miter;" x="134.109773" xlink:href="#m8c671a9a67" y="157.316218"/>
     <use style="fill:#8172b3;stroke:#8172b3;stroke-linejoin:miter;" x="136.419834" xlink:href="#m8c671a9a67" y="89.106865"/>
     <use style="fill:#8172b3;stroke:#8172b3;stroke-linejoin:miter;" x="138.729895" xlink:href="#m8c671a9a67" y="89.348142"/>
     <use style="fill:#8172b3;stroke:#8172b3;stroke-linejoin:miter;" x="141.19396" xlink:href="#m8c671a9a67" y="111.904308"/>
     <use style="fill:#8172b3;stroke:#8172b3;stroke-linejoin:miter;" x="143.504022" xlink:href="#m8c671a9a67" y="74.896364"/>
     <use style="fill:#8172b3;stroke:#8172b3;stroke-linejoin:miter;" x="145.814083" xlink:href="#m8c671a9a67" y="88.88487"/>
     <use style="fill:#8172b3;stroke:#8172b3;stroke-linejoin:miter;" x="528.052209" xlink:href="#m8c671a9a67" y="417.732327"/>
     <use style="fill:#8172b3;stroke:#8172b3;stroke-linejoin:miter;" x="525.742148" xlink:href="#m8c671a9a67" y="418.048665"/>
     <use style="fill:#8172b3;stroke:#8172b3;stroke-linejoin:miter;" x="523.278083" xlink:href="#m8c671a9a67" y="420.823636"/>
     <use style="fill:#8172b3;stroke:#8172b3;stroke-linejoin:miter;" x="520.968021" xlink:href="#m8c671a9a67" y="418.588927"/>
     <use style="fill:#8172b3;stroke:#8172b3;stroke-linejoin:miter;" x="518.65796" xlink:href="#m8c671a9a67" y="417.70013"/>
     <use style="fill:#8172b3;stroke:#8172b3;stroke-linejoin:miter;" x="516.347899" xlink:href="#m8c671a9a67" y="418.316627"/>
     <use style="fill:#8172b3;stroke:#8172b3;stroke-linejoin:miter;" x="514.037838" xlink:href="#m8c671a9a67" y="416.691363"/>
     <use style="fill:#8172b3;stroke:#8172b3;stroke-linejoin:miter;" x="511.727777" xlink:href="#m8c671a9a67" y="414.749789"/>
     <use style="fill:#8172b3;stroke:#8172b3;stroke-linejoin:miter;" x="509.417715" xlink:href="#m8c671a9a67" y="415.3365"/>
     <use style="fill:#8172b3;stroke:#8172b3;stroke-linejoin:miter;" x="507.107654" xlink:href="#m8c671a9a67" y="414.054928"/>
     <use style="fill:#8172b3;stroke:#8172b3;stroke-linejoin:miter;" x="504.797593" xlink:href="#m8c671a9a67" y="362.07619"/>
     <use style="fill:#8172b3;stroke:#8172b3;stroke-linejoin:miter;" x="502.487532" xlink:href="#m8c671a9a67" y="362.480047"/>
     <use style="fill:#8172b3;stroke:#8172b3;stroke-linejoin:miter;" x="500.177471" xlink:href="#m8c671a9a67" y="357.36878"/>
     <use style="fill:#8172b3;stroke:#8172b3;stroke-linejoin:miter;" x="497.867409" xlink:href="#m8c671a9a67" y="360.640511"/>
     <use style="fill:#8172b3;stroke:#8172b3;stroke-linejoin:miter;" x="495.403344" xlink:href="#m8c671a9a67" y="358.400689"/>
     <use style="fill:#8172b3;stroke:#8172b3;stroke-linejoin:miter;" x="493.093283" xlink:href="#m8c671a9a67" y="362.613813"/>
     <use style="fill:#8172b3;stroke:#8172b3;stroke-linejoin:miter;" x="490.783222" xlink:href="#m8c671a9a67" y="357.945102"/>
     <use style="fill:#8172b3;stroke:#8172b3;stroke-linejoin:miter;" x="488.473161" xlink:href="#m8c671a9a67" y="362.125884"/>
     <use style="fill:#8172b3;stroke:#8172b3;stroke-linejoin:miter;" x="486.163099" xlink:href="#m8c671a9a67" y="360.116144"/>
     <use style="fill:#8172b3;stroke:#8172b3;stroke-linejoin:miter;" x="483.853038" xlink:href="#m8c671a9a67" y="360.607288"/>
     <use style="fill:#8172b3;stroke:#8172b3;stroke-linejoin:miter;" x="481.542977" xlink:href="#m8c671a9a67" y="311.376628"/>
     <use style="fill:#8172b3;stroke:#8172b3;stroke-linejoin:miter;" x="479.232916" xlink:href="#m8c671a9a67" y="312.754324"/>
     <use style="fill:#8172b3;stroke:#8172b3;stroke-linejoin:miter;" x="476.922855" xlink:href="#m8c671a9a67" y="312.121302"/>
     <use style="fill:#8172b3;stroke:#8172b3;stroke-linejoin:miter;" x="474.612793" xlink:href="#m8c671a9a67" y="309.677337"/>
     <use style="fill:#8172b3;stroke:#8172b3;stroke-linejoin:miter;" x="472.302732" xlink:href="#m8c671a9a67" y="314.818223"/>
     <use style="fill:#8172b3;stroke:#8172b3;stroke-linejoin:miter;" x="469.992671" xlink:href="#m8c671a9a67" y="239.780187"/>
     <use style="fill:#8172b3;stroke:#8172b3;stroke-linejoin:miter;" x="467.528606" xlink:href="#m8c671a9a67" y="240.973189"/>
     <use style="fill:#8172b3;stroke:#8172b3;stroke-linejoin:miter;" x="465.218544" xlink:href="#m8c671a9a67" y="246.553683"/>
     <use style="fill:#8172b3;stroke:#8172b3;stroke-linejoin:miter;" x="462.908483" xlink:href="#m8c671a9a67" y="192.773504"/>
     <use style="fill:#8172b3;stroke:#8172b3;stroke-linejoin:miter;" x="460.598422" xlink:href="#m8c671a9a67" y="193.405475"/>
     <use style="fill:#8172b3;stroke:#8172b3;stroke-linejoin:miter;" x="458.288361" xlink:href="#m8c671a9a67" y="194.865156"/>
     <use style="fill:#8172b3;stroke:#8172b3;stroke-linejoin:miter;" x="455.9783" xlink:href="#m8c671a9a67" y="159.383137"/>
     <use style="fill:#8172b3;stroke:#8172b3;stroke-linejoin:miter;" x="453.668238" xlink:href="#m8c671a9a67" y="143.782105"/>
     <use style="fill:#8172b3;stroke:#8172b3;stroke-linejoin:miter;" x="451.358177" xlink:href="#m8c671a9a67" y="148.98813"/>
     <use style="fill:#8172b3;stroke:#8172b3;stroke-linejoin:miter;" x="449.048116" xlink:href="#m8c671a9a67" y="138.053014"/>
     <use style="fill:#8172b3;stroke:#8172b3;stroke-linejoin:miter;" x="446.738055" xlink:href="#m8c671a9a67" y="143.932799"/>
     <use style="fill:#8172b3;stroke:#8172b3;stroke-linejoin:miter;" x="444.427994" xlink:href="#m8c671a9a67" y="116.074938"/>
     <use style="fill:#8172b3;stroke:#8172b3;stroke-linejoin:miter;" x="442.117932" xlink:href="#m8c671a9a67" y="114.371019"/>
     <use style="fill:#8172b3;stroke:#8172b3;stroke-linejoin:miter;" x="439.653867" xlink:href="#m8c671a9a67" y="99.602813"/>
     <use style="fill:#8172b3;stroke:#8172b3;stroke-linejoin:miter;" x="437.343806" xlink:href="#m8c671a9a67" y="107.049333"/>
     <use style="fill:#8172b3;stroke:#8172b3;stroke-linejoin:miter;" x="435.033745" xlink:href="#m8c671a9a67" y="125.369992"/>
     <use style="fill:#8172b3;stroke:#8172b3;stroke-linejoin:miter;" x="432.723684" xlink:href="#m8c671a9a67" y="118.361854"/>
     <use style="fill:#8172b3;stroke:#8172b3;stroke-linejoin:miter;" x="430.413622" xlink:href="#m8c671a9a67" y="105.519417"/>
     <use style="fill:#8172b3;stroke:#8172b3;stroke-linejoin:miter;" x="428.103561" xlink:href="#m8c671a9a67" y="100.645774"/>
     <use style="fill:#8172b3;stroke:#8172b3;stroke-linejoin:miter;" x="425.7935" xlink:href="#m8c671a9a67" y="94.955614"/>
     <use style="fill:#8172b3;stroke:#8172b3;stroke-linejoin:miter;" x="423.483439" xlink:href="#m8c671a9a67" y="94.086543"/>
    </g>
   </g>
   <g id="patch_3">
    <path d="M 41.245313 438.12 
L 41.245313 57.6 
" style="fill:none;stroke:#cccccc;stroke-linecap:square;stroke-linejoin:miter;stroke-width:0.8;"/>
   </g>
   <g id="patch_4">
    <path d="M 528.052209 438.12 
L 528.052209 57.6 
" style="fill:none;stroke:#cccccc;stroke-linecap:square;stroke-linejoin:miter;stroke-width:0.8;"/>
   </g>
   <g id="patch_5">
    <path d="M 41.245312 438.12 
L 528.052209 438.12 
" style="fill:none;stroke:#cccccc;stroke-linecap:square;stroke-linejoin:miter;stroke-width:0.8;"/>
   </g>
   <g id="patch_6">
    <path d="M 41.245312 57.6 
L 528.052209 57.6 
" style="fill:none;stroke:#cccccc;stroke-linecap:square;stroke-linejoin:miter;stroke-width:0.8;"/>
   </g>
  </g>
  <g id="axes_2">
   <g id="patch_7">
    <path d="M 549.217726 438.12 
L 655.045313 438.12 
L 655.045313 57.6 
L 549.217726 57.6 
z
" style="fill:#ffffff;"/>
   </g>
   <g id="matplotlib.axis_3">
    <g id="xtick_3">
     <g id="text_12">
      <!-- SS -->
      <defs>
       <path d="M 4.5 23 
L 13.421875 23.78125 
Q 14.0625 18.40625 16.375 14.96875 
Q 18.703125 11.53125 23.578125 9.40625 
Q 28.46875 7.28125 34.578125 7.28125 
Q 39.984375 7.28125 44.140625 8.890625 
Q 48.296875 10.5 50.3125 13.296875 
Q 52.34375 16.109375 52.34375 19.4375 
Q 52.34375 22.796875 50.390625 25.3125 
Q 48.4375 27.828125 43.953125 29.546875 
Q 41.0625 30.671875 31.203125 33.03125 
Q 21.34375 35.40625 17.390625 37.5 
Q 12.25 40.1875 9.734375 44.15625 
Q 7.234375 48.140625 7.234375 53.078125 
Q 7.234375 58.5 10.296875 63.203125 
Q 13.375 67.921875 19.28125 70.359375 
Q 25.203125 72.796875 32.421875 72.796875 
Q 40.375 72.796875 46.453125 70.234375 
Q 52.546875 67.671875 55.8125 62.6875 
Q 59.078125 57.71875 59.328125 51.421875 
L 50.25 50.734375 
Q 49.515625 57.515625 45.28125 60.984375 
Q 41.0625 64.453125 32.8125 64.453125 
Q 24.21875 64.453125 20.28125 61.296875 
Q 16.359375 58.15625 16.359375 53.71875 
Q 16.359375 49.859375 19.140625 47.359375 
Q 21.875 44.875 33.421875 42.265625 
Q 44.96875 39.65625 49.265625 37.703125 
Q 55.515625 34.8125 58.484375 30.390625 
Q 61.46875 25.984375 61.46875 20.21875 
Q 61.46875 14.5 58.203125 9.4375 
Q 54.9375 4.390625 48.796875 1.578125 
Q 42.671875 -1.21875 35.015625 -1.21875 
Q 25.296875 -1.21875 18.71875 1.609375 
Q 12.15625 4.4375 8.421875 10.125 
Q 4.6875 15.828125 4.5 23 
z
" id="ArialMT-83"/>
      </defs>
      <g style="fill:#262626;" transform="translate(555.775862 452.277812)scale(0.1 -0.1)">
       <use xlink:href="#ArialMT-83"/>
       <use x="66.699219" xlink:href="#ArialMT-83"/>
      </g>
     </g>
    </g>
    <g id="xtick_4">
     <g id="text_13">
      <!-- SR -->
      <defs>
       <path d="M 7.859375 0 
L 7.859375 71.578125 
L 39.59375 71.578125 
Q 49.171875 71.578125 54.140625 69.640625 
Q 59.125 67.71875 62.109375 62.828125 
Q 65.09375 57.953125 65.09375 52.046875 
Q 65.09375 44.4375 60.15625 39.203125 
Q 55.21875 33.984375 44.921875 32.5625 
Q 48.6875 30.765625 50.640625 29 
Q 54.78125 25.203125 58.5 19.484375 
L 70.953125 0 
L 59.03125 0 
L 49.5625 14.890625 
Q 45.40625 21.34375 42.71875 24.75 
Q 40.046875 28.171875 37.921875 29.53125 
Q 35.796875 30.90625 33.59375 31.453125 
Q 31.984375 31.78125 28.328125 31.78125 
L 17.328125 31.78125 
L 17.328125 0 
z
M 17.328125 39.984375 
L 37.703125 39.984375 
Q 44.1875 39.984375 47.84375 41.328125 
Q 51.515625 42.671875 53.421875 45.625 
Q 55.328125 48.578125 55.328125 52.046875 
Q 55.328125 57.125 51.640625 60.390625 
Q 47.953125 63.671875 39.984375 63.671875 
L 17.328125 63.671875 
z
" id="ArialMT-82"/>
      </defs>
      <g style="fill:#262626;" transform="translate(581.956977 452.277812)scale(0.1 -0.1)">
       <use xlink:href="#ArialMT-83"/>
       <use x="66.699219" xlink:href="#ArialMT-82"/>
      </g>
     </g>
    </g>
    <g id="xtick_5">
     <g id="text_14">
      <!-- LTR -->
      <defs>
       <path d="M 7.328125 0 
L 7.328125 71.578125 
L 16.796875 71.578125 
L 16.796875 8.453125 
L 52.046875 8.453125 
L 52.046875 0 
z
" id="ArialMT-76"/>
      </defs>
      <g style="fill:#262626;" transform="translate(605.920124 452.277812)scale(0.1 -0.1)">
       <use xlink:href="#ArialMT-76"/>
       <use x="55.505859" xlink:href="#ArialMT-84"/>
       <use x="116.589844" xlink:href="#ArialMT-82"/>
      </g>
     </g>
    </g>
    <g id="xtick_6">
     <g id="text_15">
      <!-- SRD -->
      <g style="fill:#262626;" transform="translate(631.259833 452.277812)scale(0.1 -0.1)">
       <use xlink:href="#ArialMT-83"/>
       <use x="66.699219" xlink:href="#ArialMT-82"/>
       <use x="138.916016" xlink:href="#ArialMT-68"/>
      </g>
     </g>
    </g>
    <g id="text_16">
     <!-- Sample Type -->
     <defs>
      <path d="M 6.59375 0 
L 6.59375 51.859375 
L 14.453125 51.859375 
L 14.453125 44.578125 
Q 16.890625 48.390625 20.9375 50.703125 
Q 25 53.03125 30.171875 53.03125 
Q 35.9375 53.03125 39.625 50.640625 
Q 43.3125 48.25 44.828125 43.953125 
Q 50.984375 53.03125 60.84375 53.03125 
Q 68.5625 53.03125 72.703125 48.75 
Q 76.859375 44.484375 76.859375 35.59375 
L 76.859375 0 
L 68.109375 0 
L 68.109375 32.671875 
Q 68.109375 37.9375 67.25 40.25 
Q 66.40625 42.578125 64.15625 43.984375 
Q 61.921875 45.40625 58.890625 45.40625 
Q 53.421875 45.40625 49.796875 41.765625 
Q 46.1875 38.140625 46.1875 30.125 
L 46.1875 0 
L 37.40625 0 
L 37.40625 33.6875 
Q 37.40625 39.546875 35.25 42.46875 
Q 33.109375 45.40625 28.21875 45.40625 
Q 24.515625 45.40625 21.359375 43.453125 
Q 18.21875 41.5 16.796875 37.734375 
Q 15.375 33.984375 15.375 26.90625 
L 15.375 0 
z
" id="ArialMT-109"/>
      <path d="M 6.59375 -19.875 
L 6.59375 51.859375 
L 14.59375 51.859375 
L 14.59375 45.125 
Q 17.4375 49.078125 21 51.046875 
Q 24.5625 53.03125 29.640625 53.03125 
Q 36.28125 53.03125 41.359375 49.609375 
Q 46.4375 46.1875 49.015625 39.953125 
Q 51.609375 33.734375 51.609375 26.3125 
Q 51.609375 18.359375 48.75 11.984375 
Q 45.90625 5.609375 40.453125 2.21875 
Q 35.015625 -1.171875 29 -1.171875 
Q 24.609375 -1.171875 21.109375 0.6875 
Q 17.625 2.546875 15.375 5.375 
L 15.375 -19.875 
z
M 14.546875 25.640625 
Q 14.546875 15.625 18.59375 10.84375 
Q 22.65625 6.0625 28.421875 6.0625 
Q 34.28125 6.0625 38.453125 11.015625 
Q 42.625 15.96875 42.625 26.375 
Q 42.625 36.28125 38.546875 41.203125 
Q 34.46875 46.140625 28.8125 46.140625 
Q 23.1875 46.140625 18.859375 40.890625 
Q 14.546875 35.640625 14.546875 25.640625 
z
" id="ArialMT-112"/>
      <path d="M 6.390625 0 
L 6.390625 71.578125 
L 15.1875 71.578125 
L 15.1875 0 
z
" id="ArialMT-108"/>
      <path d="M 6.203125 -19.96875 
L 5.21875 -11.71875 
Q 8.109375 -12.5 10.25 -12.5 
Q 13.1875 -12.5 14.9375 -11.515625 
Q 16.703125 -10.546875 17.828125 -8.796875 
Q 18.65625 -7.46875 20.515625 -2.25 
Q 20.75 -1.515625 21.296875 -0.09375 
L 1.609375 51.859375 
L 11.078125 51.859375 
L 21.875 21.828125 
Q 23.96875 16.109375 25.640625 9.8125 
Q 27.15625 15.875 29.25 21.625 
L 40.328125 51.859375 
L 49.125 51.859375 
L 29.390625 -0.875 
Q 26.21875 -9.421875 24.46875 -12.640625 
Q 22.125 -17 19.09375 -19.015625 
Q 16.0625 -21.046875 11.859375 -21.046875 
Q 9.328125 -21.046875 6.203125 -19.96875 
z
" id="ArialMT-121"/>
     </defs>
     <g style="fill:#262626;" transform="translate(572.679957 465.545)scale(0.1 -0.1)">
      <use xlink:href="#ArialMT-83"/>
      <use x="66.699219" xlink:href="#ArialMT-97"/>
      <use x="122.314453" xlink:href="#ArialMT-109"/>
      <use x="205.615234" xlink:href="#ArialMT-112"/>
      <use x="261.230469" xlink:href="#ArialMT-108"/>
      <use x="283.447266" xlink:href="#ArialMT-101"/>
      <use x="339.0625" xlink:href="#ArialMT-32"/>
      <use x="366.830078" xlink:href="#ArialMT-84"/>
      <use x="427.835938" xlink:href="#ArialMT-121"/>
      <use x="477.835938" xlink:href="#ArialMT-112"/>
      <use x="533.451172" xlink:href="#ArialMT-101"/>
     </g>
    </g>
   </g>
   <g id="matplotlib.axis_4">
    <g id="ytick_7">
     <g id="line2d_13">
      <path clip-path="url(#pfb512b5b64)" d="M 549.217726 418.232697 
L 655.045313 418.232697 
" style="fill:none;stroke:#cccccc;stroke-linecap:round;stroke-width:0.8;"/>
     </g>
     <g id="text_17">
      <!-- 0.6 -->
      <g style="fill:#262626;" transform="translate(528.317726 421.811603)scale(0.1 -0.1)">
       <use xlink:href="#ArialMT-48"/>
       <use x="55.615234" xlink:href="#ArialMT-46"/>
       <use x="83.398438" xlink:href="#ArialMT-54"/>
      </g>
     </g>
    </g>
    <g id="ytick_8">
     <g id="line2d_14">
      <path clip-path="url(#pfb512b5b64)" d="M 549.217726 346.394105 
L 655.045313 346.394105 
" style="fill:none;stroke:#cccccc;stroke-linecap:round;stroke-width:0.8;"/>
     </g>
     <g id="text_18">
      <!-- 0.8 -->
      <g style="fill:#262626;" transform="translate(528.317726 349.973011)scale(0.1 -0.1)">
       <use xlink:href="#ArialMT-48"/>
       <use x="55.615234" xlink:href="#ArialMT-46"/>
       <use x="83.398438" xlink:href="#ArialMT-56"/>
      </g>
     </g>
    </g>
    <g id="ytick_9">
     <g id="line2d_15">
      <path clip-path="url(#pfb512b5b64)" d="M 549.217726 274.555513 
L 655.045313 274.555513 
" style="fill:none;stroke:#cccccc;stroke-linecap:round;stroke-width:0.8;"/>
     </g>
     <g id="text_19">
      <!-- 1.0 -->
      <g style="fill:#262626;" transform="translate(528.317726 278.134419)scale(0.1 -0.1)">
       <use xlink:href="#ArialMT-49"/>
       <use x="55.615234" xlink:href="#ArialMT-46"/>
       <use x="83.398438" xlink:href="#ArialMT-48"/>
      </g>
     </g>
    </g>
    <g id="ytick_10">
     <g id="line2d_16">
      <path clip-path="url(#pfb512b5b64)" d="M 549.217726 202.716921 
L 655.045313 202.716921 
" style="fill:none;stroke:#cccccc;stroke-linecap:round;stroke-width:0.8;"/>
     </g>
     <g id="text_20">
      <!-- 1.2 -->
      <g style="fill:#262626;" transform="translate(528.317726 206.295827)scale(0.1 -0.1)">
       <use xlink:href="#ArialMT-49"/>
       <use x="55.615234" xlink:href="#ArialMT-46"/>
       <use x="83.398438" xlink:href="#ArialMT-50"/>
      </g>
     </g>
    </g>
    <g id="ytick_11">
     <g id="line2d_17">
      <path clip-path="url(#pfb512b5b64)" d="M 549.217726 130.878329 
L 655.045313 130.878329 
" style="fill:none;stroke:#cccccc;stroke-linecap:round;stroke-width:0.8;"/>
     </g>
     <g id="text_21">
      <!-- 1.4 -->
      <g style="fill:#262626;" transform="translate(528.317726 134.457235)scale(0.1 -0.1)">
       <use xlink:href="#ArialMT-49"/>
       <use x="55.615234" xlink:href="#ArialMT-46"/>
       <use x="83.398438" xlink:href="#ArialMT-52"/>
      </g>
     </g>
    </g>
    <g id="ytick_12">
     <g id="line2d_18">
      <path clip-path="url(#pfb512b5b64)" d="M 549.217726 59.039737 
L 655.045313 59.039737 
" style="fill:none;stroke:#cccccc;stroke-linecap:round;stroke-width:0.8;"/>
     </g>
     <g id="text_22">
      <!-- 1.6 -->
      <g style="fill:#262626;" transform="translate(528.317726 62.618643)scale(0.1 -0.1)">
       <use xlink:href="#ArialMT-49"/>
       <use x="55.615234" xlink:href="#ArialMT-46"/>
       <use x="83.398438" xlink:href="#ArialMT-54"/>
      </g>
     </g>
    </g>
    <g id="text_23">
     <!-- 1e9 -->
     <g style="fill:#262626;" transform="translate(549.217726 54.6)scale(0.1 -0.1)">
      <use xlink:href="#ArialMT-49"/>
      <use x="55.615234" xlink:href="#ArialMT-101"/>
      <use x="111.230469" xlink:href="#ArialMT-57"/>
     </g>
    </g>
   </g>
   <g id="PolyCollection_1">
    <defs>
     <path d="M 564.097603 -246.376792 
L 560.794746 -246.376792 
L 560.527027 -246.899768 
L 560.259688 -247.422743 
L 560.003413 -247.945718 
L 559.769311 -248.468694 
L 559.567606 -248.991669 
L 559.4062 -249.514645 
L 559.289408 -250.03762 
L 559.217175 -250.560595 
L 559.18499 -251.083571 
L 559.184516 -251.606546 
L 559.204792 -252.129521 
L 559.23375 -252.652497 
L 559.259786 -253.175472 
L 559.273157 -253.698447 
L 559.26708 -254.221423 
L 559.238477 -254.744398 
L 559.188299 -255.267373 
L 559.121399 -255.790349 
L 559.045907 -256.313324 
L 558.97208 -256.8363 
L 558.910677 -257.359275 
L 558.871014 -257.88225 
L 558.858912 -258.405226 
L 558.874824 -258.928201 
L 558.912453 -259.451176 
L 558.958128 -259.974152 
L 558.9912 -260.497127 
L 558.985574 -261.020102 
L 558.912413 -261.543078 
L 558.743832 -262.066053 
L 558.457169 -262.589029 
L 558.039214 -263.112004 
L 557.489618 -263.634979 
L 556.822731 -264.157955 
L 556.067314 -264.68093 
L 555.263971 -265.203905 
L 554.460612 -265.726881 
L 553.706697 -266.249856 
L 553.047274 -266.772831 
L 552.517852 -267.295807 
L 552.140929 -267.818782 
L 551.924625 -268.341757 
L 551.863416 -268.864733 
L 551.940586 -269.387708 
L 552.131749 -269.910684 
L 552.408666 -270.433659 
L 552.742665 -270.956634 
L 553.107126 -271.47961 
L 553.478832 -272.002585 
L 553.838264 -272.52556 
L 554.169221 -273.048536 
L 554.458235 -273.571511 
L 554.694202 -274.094486 
L 554.868438 -274.617462 
L 554.975112 -275.140437 
L 555.011817 -275.663413 
L 554.980029 -276.186388 
L 554.885297 -276.709363 
L 554.737202 -277.232339 
L 554.549227 -277.755314 
L 554.33859 -278.278289 
L 554.125941 -278.801265 
L 553.934576 -279.32424 
L 553.788765 -279.847215 
L 553.710956 -280.370191 
L 553.718055 -280.893166 
L 553.817429 -281.416141 
L 554.003709 -281.939117 
L 554.25748 -282.462092 
L 554.546665 -282.985068 
L 554.830765 -283.508043 
L 555.067369 -284.031018 
L 555.219742 -284.553994 
L 555.263926 -285.076969 
L 555.193808 -285.599944 
L 555.023048 -286.12292 
L 554.783327 -286.645895 
L 554.519208 -287.16887 
L 554.280536 -287.691846 
L 554.113836 -288.214821 
L 554.054371 -288.737796 
L 554.120362 -289.260772 
L 554.310485 -289.783747 
L 554.605056 -290.306723 
L 554.970602 -290.829698 
L 555.366835 -291.352673 
L 555.754558 -291.875649 
L 556.102883 -292.398624 
L 556.394345 -292.921599 
L 556.626994 -293.444575 
L 556.813254 -293.96755 
L 556.976057 -294.490525 
L 557.143276 -295.013501 
L 557.341778 -295.536476 
L 557.592302 -296.059452 
L 557.906064 -296.582427 
L 558.283481 -297.105402 
L 558.714946 -297.628378 
L 559.183184 -298.151353 
L 565.709165 -298.151353 
L 565.709165 -298.151353 
L 566.177404 -297.628378 
L 566.608868 -297.105402 
L 566.986286 -296.582427 
L 567.300047 -296.059452 
L 567.550571 -295.536476 
L 567.749073 -295.013501 
L 567.916292 -294.490525 
L 568.079095 -293.96755 
L 568.265356 -293.444575 
L 568.498004 -292.921599 
L 568.789466 -292.398624 
L 569.137791 -291.875649 
L 569.525514 -291.352673 
L 569.921748 -290.829698 
L 570.287293 -290.306723 
L 570.581864 -289.783747 
L 570.771987 -289.260772 
L 570.837979 -288.737796 
L 570.778513 -288.214821 
L 570.611813 -287.691846 
L 570.373141 -287.16887 
L 570.109022 -286.645895 
L 569.869301 -286.12292 
L 569.698541 -285.599944 
L 569.628424 -285.076969 
L 569.672607 -284.553994 
L 569.82498 -284.031018 
L 570.061584 -283.508043 
L 570.345684 -282.985068 
L 570.63487 -282.462092 
L 570.88864 -281.939117 
L 571.07492 -281.416141 
L 571.174294 -280.893166 
L 571.181393 -280.370191 
L 571.103585 -279.847215 
L 570.957773 -279.32424 
L 570.766408 -278.801265 
L 570.553759 -278.278289 
L 570.343122 -277.755314 
L 570.155147 -277.232339 
L 570.007052 -276.709363 
L 569.91232 -276.186388 
L 569.880532 -275.663413 
L 569.917237 -275.140437 
L 570.023911 -274.617462 
L 570.198147 -274.094486 
L 570.434114 -273.571511 
L 570.723128 -273.048536 
L 571.054085 -272.52556 
L 571.413517 -272.002585 
L 571.785223 -271.47961 
L 572.149684 -270.956634 
L 572.483683 -270.433659 
L 572.7606 -269.910684 
L 572.951763 -269.387708 
L 573.028933 -268.864733 
L 572.967724 -268.341757 
L 572.751421 -267.818782 
L 572.374498 -267.295807 
L 571.845075 -266.772831 
L 571.185652 -266.249856 
L 570.431737 -265.726881 
L 569.628378 -265.203905 
L 568.825035 -264.68093 
L 568.069618 -264.157955 
L 567.402731 -263.634979 
L 566.853135 -263.112004 
L 566.43518 -262.589029 
L 566.148517 -262.066053 
L 565.979936 -261.543078 
L 565.906776 -261.020102 
L 565.901149 -260.497127 
L 565.934221 -259.974152 
L 565.979897 -259.451176 
L 566.017525 -258.928201 
L 566.033437 -258.405226 
L 566.021335 -257.88225 
L 565.981672 -257.359275 
L 565.920269 -256.8363 
L 565.846442 -256.313324 
L 565.770951 -255.790349 
L 565.704051 -255.267373 
L 565.653872 -254.744398 
L 565.625269 -254.221423 
L 565.619193 -253.698447 
L 565.632563 -253.175472 
L 565.658599 -252.652497 
L 565.687557 -252.129521 
L 565.707833 -251.606546 
L 565.707359 -251.083571 
L 565.675174 -250.560595 
L 565.602941 -250.03762 
L 565.486149 -249.514645 
L 565.324743 -248.991669 
L 565.123038 -248.468694 
L 564.888936 -247.945718 
L 564.632661 -247.422743 
L 564.365322 -246.899768 
L 564.097603 -246.376792 
z
" id="mb928b03eb3" style="stroke:#4c4c4c;stroke-width:1.5;"/>
    </defs>
    <g clip-path="url(#pfb512b5b64)">
     <use style="fill:#5875a4;stroke:#4c4c4c;stroke-width:1.5;" x="0" xlink:href="#mb928b03eb3" y="499.453947"/>
    </g>
   </g>
   <g id="PolyCollection_2">
    <defs>
     <path d="M 590.748711 -271.155852 
L 587.057431 -271.155852 
L 587.103571 -271.547803 
L 587.235183 -271.939754 
L 587.433489 -272.331705 
L 587.672124 -272.723656 
L 587.922843 -273.115607 
L 588.160835 -273.507558 
L 588.36828 -273.899509 
L 588.535518 -274.29146 
L 588.660023 -274.683411 
L 588.743888 -275.075362 
L 588.790713 -275.467313 
L 588.802601 -275.859264 
L 588.777761 -276.251215 
L 588.709001 -276.643166 
L 588.583374 -277.035117 
L 588.38329 -277.427068 
L 588.089398 -277.819019 
L 587.685263 -278.21097 
L 587.163306 -278.602921 
L 586.530668 -278.994872 
L 585.813008 -279.386823 
L 585.054138 -279.778774 
L 584.310195 -280.170725 
L 583.638729 -280.562675 
L 583.085173 -280.954626 
L 582.670762 -281.346577 
L 582.386247 -281.738528 
L 582.194296 -282.130479 
L 582.040626 -282.52243 
L 581.870781 -282.914381 
L 581.647239 -283.306332 
L 581.361322 -283.698283 
L 581.03608 -284.090234 
L 580.719381 -284.482185 
L 580.469467 -284.874136 
L 580.337342 -285.266087 
L 580.350838 -285.658038 
L 580.504383 -286.049989 
L 580.756829 -286.44194 
L 581.037856 -286.833891 
L 581.261775 -287.225842 
L 581.346113 -287.617793 
L 581.23133 -288.009744 
L 580.897386 -288.401695 
L 580.373068 -288.793646 
L 579.735153 -289.185597 
L 579.0966 -289.577548 
L 578.58566 -289.969499 
L 578.320312 -290.36145 
L 578.383929 -290.753401 
L 578.808029 -291.145352 
L 579.566284 -291.537303 
L 580.580988 -291.929254 
L 581.74004 -292.321205 
L 582.919898 -292.713156 
L 584.008863 -293.105107 
L 584.925493 -293.497058 
L 585.628734 -293.889009 
L 586.118696 -294.28096 
L 586.429228 -294.67291 
L 586.615076 -295.064861 
L 586.737107 -295.456812 
L 586.849002 -295.848763 
L 586.988009 -296.240714 
L 587.171078 -296.632665 
L 587.396275 -297.024616 
L 587.648057 -297.416567 
L 587.904305 -297.808518 
L 588.142892 -298.200469 
L 588.346186 -298.59242 
L 588.502851 -298.984371 
L 588.607271 -299.376322 
L 588.657572 -299.768273 
L 588.653482 -300.160224 
L 588.595051 -300.552175 
L 588.482799 -300.944126 
L 588.319268 -301.336077 
L 588.111379 -301.728028 
L 587.872559 -302.119979 
L 587.623509 -302.51193 
L 587.390759 -302.903881 
L 587.202858 -303.295832 
L 587.084909 -303.687783 
L 587.052899 -304.079734 
L 587.109541 -304.471685 
L 587.242942 -304.863636 
L 587.428517 -305.255587 
L 587.633566 -305.647538 
L 587.823187 -306.039489 
L 587.966121 -306.43144 
L 588.039427 -306.823391 
L 588.03155 -307.215342 
L 587.943725 -307.607293 
L 587.789832 -307.999244 
L 587.594681 -308.391195 
L 587.390633 -308.783145 
L 587.21264 -309.175096 
L 587.092299 -309.567047 
L 587.052074 -309.958998 
L 590.754069 -309.958998 
L 590.754069 -309.958998 
L 590.713843 -309.567047 
L 590.593502 -309.175096 
L 590.41551 -308.783145 
L 590.211462 -308.391195 
L 590.016311 -307.999244 
L 589.862417 -307.607293 
L 589.774592 -307.215342 
L 589.766715 -306.823391 
L 589.840022 -306.43144 
L 589.982955 -306.039489 
L 590.172577 -305.647538 
L 590.377625 -305.255587 
L 590.5632 -304.863636 
L 590.696601 -304.471685 
L 590.753243 -304.079734 
L 590.721233 -303.687783 
L 590.603284 -303.295832 
L 590.415384 -302.903881 
L 590.182633 -302.51193 
L 589.933583 -302.119979 
L 589.694763 -301.728028 
L 589.486875 -301.336077 
L 589.323344 -300.944126 
L 589.211091 -300.552175 
L 589.15266 -300.160224 
L 589.14857 -299.768273 
L 589.198871 -299.376322 
L 589.303291 -298.984371 
L 589.459957 -298.59242 
L 589.66325 -298.200469 
L 589.901837 -297.808518 
L 590.158086 -297.416567 
L 590.409868 -297.024616 
L 590.635064 -296.632665 
L 590.818133 -296.240714 
L 590.95714 -295.848763 
L 591.069035 -295.456812 
L 591.191067 -295.064861 
L 591.376914 -294.67291 
L 591.687446 -294.28096 
L 592.177408 -293.889009 
L 592.88065 -293.497058 
L 593.79728 -293.105107 
L 594.886244 -292.713156 
L 596.066103 -292.321205 
L 597.225154 -291.929254 
L 598.239858 -291.537303 
L 598.998113 -291.145352 
L 599.422214 -290.753401 
L 599.48583 -290.36145 
L 599.220482 -289.969499 
L 598.709542 -289.577548 
L 598.070989 -289.185597 
L 597.433074 -288.793646 
L 596.908756 -288.401695 
L 596.574812 -288.009744 
L 596.460029 -287.617793 
L 596.544367 -287.225842 
L 596.768286 -286.833891 
L 597.049313 -286.44194 
L 597.301759 -286.049989 
L 597.455304 -285.658038 
L 597.468801 -285.266087 
L 597.336676 -284.874136 
L 597.086761 -284.482185 
L 596.770062 -284.090234 
L 596.444821 -283.698283 
L 596.158903 -283.306332 
L 595.935361 -282.914381 
L 595.765516 -282.52243 
L 595.611847 -282.130479 
L 595.419895 -281.738528 
L 595.13538 -281.346577 
L 594.72097 -280.954626 
L 594.167414 -280.562675 
L 593.495948 -280.170725 
L 592.752005 -279.778774 
L 591.993135 -279.386823 
L 591.275474 -278.994872 
L 590.642836 -278.602921 
L 590.120879 -278.21097 
L 589.716744 -277.819019 
L 589.422852 -277.427068 
L 589.222769 -277.035117 
L 589.097141 -276.643166 
L 589.028381 -276.251215 
L 589.003541 -275.859264 
L 589.015429 -275.467313 
L 589.062254 -275.075362 
L 589.14612 -274.683411 
L 589.270624 -274.29146 
L 589.437862 -273.899509 
L 589.645307 -273.507558 
L 589.883299 -273.115607 
L 590.134018 -272.723656 
L 590.372653 -272.331705 
L 590.570959 -271.939754 
L 590.702571 -271.547803 
L 590.748711 -271.155852 
z
" id="m8b683500df" style="stroke:#4c4c4c;stroke-width:1.5;"/>
    </defs>
    <g clip-path="url(#pfb512b5b64)">
     <use style="fill:#5f9e6e;stroke:#4c4c4c;stroke-width:1.5;" x="0" xlink:href="#m8b683500df" y="499.453947"/>
    </g>
   </g>
   <g id="PolyCollection_3">
    <defs>
     <path d="M 619.494512 -290.70632 
L 611.225423 -290.70632 
L 611.16751 -290.874026 
L 611.162955 -291.041733 
L 611.192931 -291.209439 
L 611.233142 -291.377145 
L 611.25628 -291.544851 
L 611.234929 -291.712558 
L 611.144549 -291.880264 
L 610.966135 -292.04797 
L 610.688254 -292.215676 
L 610.308243 -292.383382 
L 609.832455 -292.551089 
L 609.275609 -292.718795 
L 608.659383 -292.886501 
L 608.010446 -293.054207 
L 607.358197 -293.221914 
L 606.732427 -293.38962 
L 606.161137 -293.557326 
L 605.668656 -293.725032 
L 605.274176 -293.892739 
L 604.990795 -294.060445 
L 604.825084 -294.228151 
L 604.777209 -294.395857 
L 604.841575 -294.563563 
L 605.007943 -294.73127 
L 605.262897 -294.898976 
L 605.591493 -295.066682 
L 605.978888 -295.234388 
L 606.411704 -295.402095 
L 606.878935 -295.569801 
L 607.37225 -295.737507 
L 607.88567 -295.905213 
L 608.414691 -296.07292 
L 608.955074 -296.240626 
L 609.501558 -296.408332 
L 610.046774 -296.576038 
L 610.580622 -296.743744 
L 611.090239 -296.911451 
L 611.560613 -297.079157 
L 611.975743 -297.246863 
L 612.320192 -297.414569 
L 612.580806 -297.582276 
L 612.748353 -297.749982 
L 612.818864 -297.917688 
L 612.794498 -298.085394 
L 612.683793 -298.253101 
L 612.50123 -298.420807 
L 612.266121 -298.588513 
L 612.000881 -298.756219 
L 611.728853 -298.923925 
L 611.47192 -299.091632 
L 611.248208 -299.259338 
L 611.070208 -299.427044 
L 610.943616 -299.59475 
L 610.867119 -299.762457 
L 610.833207 -299.930163 
L 610.829921 -300.097869 
L 610.843283 -300.265575 
L 610.860012 -300.433282 
L 610.870067 -300.600988 
L 610.868581 -300.768694 
L 610.856823 -300.9364 
L 610.842058 -301.104107 
L 610.836308 -301.271813 
L 610.854274 -301.439519 
L 610.910808 -301.607225 
L 611.018375 -301.774931 
L 611.184962 -301.942638 
L 611.412755 -302.110344 
L 611.697767 -302.27805 
L 612.030409 -302.445756 
L 612.396818 -302.613463 
L 612.780678 -302.781169 
L 613.165165 -302.948875 
L 613.534724 -303.116581 
L 613.876412 -303.284288 
L 614.180683 -303.451994 
L 614.441575 -303.6197 
L 614.656387 -303.787406 
L 614.82497 -303.955112 
L 614.94881 -304.122819 
L 615.030072 -304.290525 
L 615.070753 -304.458231 
L 615.072049 -304.625937 
L 615.034021 -304.793644 
L 614.955594 -304.96135 
L 614.834893 -305.129056 
L 614.669873 -305.296762 
L 614.4592 -305.464469 
L 614.203247 -305.632175 
L 613.905092 -305.799881 
L 613.571326 -305.967587 
L 613.21252 -306.135293 
L 612.843188 -306.303 
L 612.481171 -306.470706 
L 612.146423 -306.638412 
L 611.859315 -306.806118 
L 611.638639 -306.973825 
L 611.499605 -307.141531 
L 611.452117 -307.309237 
L 619.267818 -307.309237 
L 619.267818 -307.309237 
L 619.220331 -307.141531 
L 619.081296 -306.973825 
L 618.86062 -306.806118 
L 618.573512 -306.638412 
L 618.238765 -306.470706 
L 617.876747 -306.303 
L 617.507416 -306.135293 
L 617.148609 -305.967587 
L 616.814843 -305.799881 
L 616.516688 -305.632175 
L 616.260736 -305.464469 
L 616.050062 -305.296762 
L 615.885042 -305.129056 
L 615.764341 -304.96135 
L 615.685915 -304.793644 
L 615.647887 -304.625937 
L 615.649182 -304.458231 
L 615.689863 -304.290525 
L 615.771126 -304.122819 
L 615.894965 -303.955112 
L 616.063548 -303.787406 
L 616.27836 -303.6197 
L 616.539252 -303.451994 
L 616.843523 -303.284288 
L 617.185211 -303.116581 
L 617.55477 -302.948875 
L 617.939257 -302.781169 
L 618.323117 -302.613463 
L 618.689527 -302.445756 
L 619.022168 -302.27805 
L 619.307181 -302.110344 
L 619.534974 -301.942638 
L 619.70156 -301.774931 
L 619.809128 -301.607225 
L 619.865662 -301.439519 
L 619.883628 -301.271813 
L 619.877877 -301.104107 
L 619.863112 -300.9364 
L 619.851355 -300.768694 
L 619.849868 -300.600988 
L 619.859924 -300.433282 
L 619.876652 -300.265575 
L 619.890014 -300.097869 
L 619.886728 -299.930163 
L 619.852817 -299.762457 
L 619.776319 -299.59475 
L 619.649727 -299.427044 
L 619.471727 -299.259338 
L 619.248016 -299.091632 
L 618.991083 -298.923925 
L 618.719054 -298.756219 
L 618.453814 -298.588513 
L 618.218705 -298.420807 
L 618.036142 -298.253101 
L 617.925437 -298.085394 
L 617.901072 -297.917688 
L 617.971583 -297.749982 
L 618.139129 -297.582276 
L 618.399744 -297.414569 
L 618.744193 -297.246863 
L 619.159322 -297.079157 
L 619.629696 -296.911451 
L 620.139314 -296.743744 
L 620.673161 -296.576038 
L 621.218378 -296.408332 
L 621.764861 -296.240626 
L 622.305245 -296.07292 
L 622.834265 -295.905213 
L 623.347685 -295.737507 
L 623.841001 -295.569801 
L 624.308232 -295.402095 
L 624.741047 -295.234388 
L 625.128442 -295.066682 
L 625.457038 -294.898976 
L 625.711992 -294.73127 
L 625.87836 -294.563563 
L 625.942726 -294.395857 
L 625.894851 -294.228151 
L 625.72914 -294.060445 
L 625.445759 -293.892739 
L 625.05128 -293.725032 
L 624.558798 -293.557326 
L 623.987508 -293.38962 
L 623.361739 -293.221914 
L 622.709489 -293.054207 
L 622.060553 -292.886501 
L 621.444326 -292.718795 
L 620.887481 -292.551089 
L 620.411692 -292.383382 
L 620.031681 -292.215676 
L 619.753801 -292.04797 
L 619.575386 -291.880264 
L 619.485006 -291.712558 
L 619.463656 -291.544851 
L 619.486793 -291.377145 
L 619.527004 -291.209439 
L 619.556981 -291.041733 
L 619.552425 -290.874026 
L 619.494512 -290.70632 
z
" id="m1939926044" style="stroke:#4c4c4c;stroke-width:1.5;"/>
    </defs>
    <g clip-path="url(#pfb512b5b64)">
     <use style="fill:#b55d60;stroke:#4c4c4c;stroke-width:1.5;" x="0" xlink:href="#m1939926044" y="499.453947"/>
    </g>
   </g>
   <g id="PolyCollection_4">
    <defs>
     <path d="M 650.67049 -78.63031 
L 632.963239 -78.63031 
L 632.44005 -82.124525 
L 632.037306 -85.61874 
L 631.761038 -89.112955 
L 631.607712 -92.60717 
L 631.564407 -96.101385 
L 631.61006 -99.5956 
L 631.717645 -103.089815 
L 631.857062 -106.584029 
L 631.998375 -110.078244 
L 632.115019 -113.572459 
L 632.186552 -117.066674 
L 632.200641 -120.560889 
L 632.154034 -124.055104 
L 632.052433 -127.549319 
L 631.909329 -131.043534 
L 631.743979 -134.537748 
L 631.578838 -138.031963 
L 631.436788 -141.526178 
L 631.338518 -145.020393 
L 631.300396 -148.514608 
L 631.333037 -152.008823 
L 631.440701 -155.503038 
L 631.621525 -158.997253 
L 631.868468 -162.491467 
L 632.170777 -165.985682 
L 632.515723 -169.479897 
L 632.890329 -172.974112 
L 633.282864 -176.468327 
L 633.683911 -179.962542 
L 634.086909 -183.456757 
L 634.488153 -186.950972 
L 634.886326 -190.445186 
L 635.281686 -193.939401 
L 635.675083 -197.433616 
L 636.066991 -200.927831 
L 636.456707 -204.422046 
L 636.841838 -207.916261 
L 637.218138 -211.410476 
L 637.579696 -214.904691 
L 637.919425 -218.398905 
L 638.229749 -221.89312 
L 638.503387 -225.387335 
L 638.734092 -228.88155 
L 638.917273 -232.375765 
L 639.050392 -235.86998 
L 639.133133 -239.364195 
L 639.167335 -242.85841 
L 639.156723 -246.352624 
L 639.106516 -249.846839 
L 639.022974 -253.341054 
L 638.912956 -256.835269 
L 638.783527 -260.329484 
L 638.641659 -263.823699 
L 638.494 -267.317914 
L 638.346704 -270.812129 
L 638.20529 -274.306343 
L 638.074488 -277.800558 
L 637.958052 -281.294773 
L 637.858556 -284.788988 
L 637.777175 -288.283203 
L 637.713494 -291.777418 
L 637.6654 -295.271633 
L 637.629089 -298.765848 
L 637.599225 -302.260062 
L 637.569247 -305.754277 
L 637.53181 -309.248492 
L 637.479304 -312.742707 
L 637.404399 -316.236922 
L 637.300543 -319.731137 
L 637.162361 -323.225352 
L 636.985919 -326.719567 
L 636.768851 -330.213781 
L 636.510359 -333.707996 
L 636.21114 -337.202211 
L 635.873283 -340.696426 
L 635.500189 -344.190641 
L 635.096531 -347.684856 
L 634.668283 -351.179071 
L 634.22278 -354.673286 
L 633.768766 -358.1675 
L 633.3164 -361.661715 
L 632.877149 -365.15593 
L 632.463541 -368.650145 
L 632.088775 -372.14436 
L 631.766199 -375.638575 
L 631.508689 -379.13279 
L 631.327997 -382.627005 
L 631.234106 -386.121219 
L 631.234668 -389.615434 
L 631.334543 -393.109649 
L 631.535471 -396.603864 
L 631.835893 -400.098079 
L 632.230929 -403.592294 
L 632.712495 -407.086509 
L 633.26958 -410.580724 
L 633.888669 -414.074938 
L 634.5543 -417.569153 
L 635.249753 -421.063368 
L 635.95782 -424.557583 
L 647.675909 -424.557583 
L 647.675909 -424.557583 
L 648.383975 -421.063368 
L 649.079428 -417.569153 
L 649.74506 -414.074938 
L 650.364148 -410.580724 
L 650.921234 -407.086509 
L 651.402799 -403.592294 
L 651.797835 -400.098079 
L 652.098258 -396.603864 
L 652.299185 -393.109649 
L 652.39906 -389.615434 
L 652.399623 -386.121219 
L 652.305732 -382.627005 
L 652.125039 -379.13279 
L 651.867529 -375.638575 
L 651.544953 -372.14436 
L 651.170188 -368.650145 
L 650.756579 -365.15593 
L 650.317328 -361.661715 
L 649.864963 -358.1675 
L 649.410949 -354.673286 
L 648.965445 -351.179071 
L 648.537198 -347.684856 
L 648.13354 -344.190641 
L 647.760445 -340.696426 
L 647.422589 -337.202211 
L 647.123369 -333.707996 
L 646.864877 -330.213781 
L 646.647809 -326.719567 
L 646.471368 -323.225352 
L 646.333186 -319.731137 
L 646.229329 -316.236922 
L 646.154424 -312.742707 
L 646.101918 -309.248492 
L 646.064481 -305.754277 
L 646.034504 -302.260062 
L 646.00464 -298.765848 
L 645.968329 -295.271633 
L 645.920234 -291.777418 
L 645.856553 -288.283203 
L 645.775172 -284.788988 
L 645.675677 -281.294773 
L 645.559241 -277.800558 
L 645.428438 -274.306343 
L 645.287025 -270.812129 
L 645.139729 -267.317914 
L 644.992069 -263.823699 
L 644.850201 -260.329484 
L 644.720773 -256.835269 
L 644.610754 -253.341054 
L 644.527213 -249.846839 
L 644.477005 -246.352624 
L 644.466393 -242.85841 
L 644.500595 -239.364195 
L 644.583337 -235.86998 
L 644.716456 -232.375765 
L 644.899636 -228.88155 
L 645.130342 -225.387335 
L 645.403979 -221.89312 
L 645.714304 -218.398905 
L 646.054033 -214.904691 
L 646.415591 -211.410476 
L 646.79189 -207.916261 
L 647.177021 -204.422046 
L 647.566738 -200.927831 
L 647.958646 -197.433616 
L 648.352043 -193.939401 
L 648.747402 -190.445186 
L 649.145576 -186.950972 
L 649.54682 -183.456757 
L 649.949817 -179.962542 
L 650.350864 -176.468327 
L 650.743399 -172.974112 
L 651.118005 -169.479897 
L 651.462951 -165.985682 
L 651.765261 -162.491467 
L 652.012203 -158.997253 
L 652.193027 -155.503038 
L 652.300691 -152.008823 
L 652.333332 -148.514608 
L 652.295211 -145.020393 
L 652.196941 -141.526178 
L 652.05489 -138.031963 
L 651.88975 -134.537748 
L 651.7244 -131.043534 
L 651.581295 -127.549319 
L 651.479695 -124.055104 
L 651.433088 -120.560889 
L 651.447177 -117.066674 
L 651.51871 -113.572459 
L 651.635353 -110.078244 
L 651.776667 -106.584029 
L 651.916083 -103.089815 
L 652.023668 -99.5956 
L 652.069321 -96.101385 
L 652.026017 -92.60717 
L 651.87269 -89.112955 
L 651.596423 -85.61874 
L 651.193678 -82.124525 
L 650.67049 -78.63031 
z
" id="m0fb89d64aa" style="stroke:#4c4c4c;stroke-width:1.5;"/>
    </defs>
    <g clip-path="url(#pfb512b5b64)">
     <use style="fill:#857aab;stroke:#4c4c4c;stroke-width:1.5;" x="0" xlink:href="#m0fb89d64aa" y="499.453947"/>
    </g>
   </g>
   <g id="line2d_19">
    <path clip-path="url(#pfb512b5b64)" d="M 562.446175 253.077154 
L 562.446175 201.302594 
" style="fill:none;stroke:#4c4c4c;stroke-linecap:round;stroke-width:1.5;"/>
   </g>
   <g id="line2d_20">
    <path clip-path="url(#pfb512b5b64)" d="M 562.446175 232.587731 
L 562.446175 212.00614 
" style="fill:none;stroke:#4c4c4c;stroke-linecap:round;stroke-width:4.5;"/>
   </g>
   <g id="line2d_21">
    <path clip-path="url(#pfb512b5b64)" d="M 588.903071 218.640276 
L 588.903071 203.590041 
" style="fill:none;stroke:#4c4c4c;stroke-linecap:round;stroke-width:1.5;"/>
   </g>
   <g id="line2d_22">
    <path clip-path="url(#pfb512b5b64)" d="M 588.903071 214.980169 
L 588.903071 208.320071 
" style="fill:none;stroke:#4c4c4c;stroke-linecap:round;stroke-width:4.5;"/>
   </g>
   <g id="line2d_23">
    <path clip-path="url(#pfb512b5b64)" d="M 615.359968 208.747627 
L 615.359968 192.14471 
" style="fill:none;stroke:#4c4c4c;stroke-linecap:round;stroke-width:1.5;"/>
   </g>
   <g id="line2d_24">
    <path clip-path="url(#pfb512b5b64)" d="M 615.359968 205.483514 
L 615.359968 199.362613 
" style="fill:none;stroke:#4c4c4c;stroke-linecap:round;stroke-width:4.5;"/>
   </g>
   <g id="line2d_25">
    <path clip-path="url(#pfb512b5b64)" d="M 641.816864 420.823636 
L 641.816864 74.896364 
" style="fill:none;stroke:#4c4c4c;stroke-linecap:round;stroke-width:1.5;"/>
   </g>
   <g id="line2d_26">
    <path clip-path="url(#pfb512b5b64)" d="M 641.816864 362.088613 
L 641.816864 125.774522 
" style="fill:none;stroke:#4c4c4c;stroke-linecap:round;stroke-width:4.5;"/>
   </g>
   <g id="patch_8">
    <path d="M 549.217726 418.232697 
L 549.217726 59.039737 
" style="fill:none;stroke:#cccccc;stroke-linecap:square;stroke-linejoin:miter;stroke-width:0.8;"/>
   </g>
   <g id="patch_9">
    <path d="M 562.446175 438.12 
L 641.816864 438.12 
" style="fill:none;stroke:#cccccc;stroke-linecap:square;stroke-linejoin:miter;stroke-width:0.8;"/>
   </g>
   <g id="PathCollection_1">
    <defs>
     <path d="M 0 1.5 
C 0.397805 1.5 0.77937 1.341951 1.06066 1.06066 
C 1.341951 0.77937 1.5 0.397805 1.5 0 
C 1.5 -0.397805 1.341951 -0.77937 1.06066 -1.06066 
C 0.77937 -1.341951 0.397805 -1.5 0 -1.5 
C -0.397805 -1.5 -0.77937 -1.341951 -1.06066 -1.06066 
C -1.341951 -0.77937 -1.5 -0.397805 -1.5 0 
C -1.5 0.397805 -1.341951 0.77937 -1.06066 1.06066 
C -0.77937 1.341951 -0.397805 1.5 0 1.5 
z
" id="m197c1ec637" style="stroke:#4c4c4c;"/>
    </defs>
    <g clip-path="url(#pfb512b5b64)">
     <use style="fill:#ffffff;stroke:#4c4c4c;" x="562.446175" xlink:href="#m197c1ec637" y="223.008054"/>
    </g>
   </g>
   <g id="PathCollection_2">
    <g clip-path="url(#pfb512b5b64)">
     <use style="fill:#ffffff;stroke:#4c4c4c;" x="588.903071" xlink:href="#m197c1ec637" y="211.102205"/>
    </g>
   </g>
   <g id="PathCollection_3">
    <g clip-path="url(#pfb512b5b64)">
     <use style="fill:#ffffff;stroke:#4c4c4c;" x="615.359968" xlink:href="#m197c1ec637" y="203.884439"/>
    </g>
   </g>
   <g id="PathCollection_4">
    <g clip-path="url(#pfb512b5b64)">
     <use style="fill:#ffffff;stroke:#4c4c4c;" x="641.816864" xlink:href="#m197c1ec637" y="298.060914"/>
    </g>
   </g>
  </g>
  <g id="text_24">
   <!-- TIC Post Batch-Correction -->
   <defs>
    <path d="M 7.71875 0 
L 7.71875 71.578125 
L 34.71875 71.578125 
Q 41.84375 71.578125 45.609375 70.90625 
Q 50.875 70.015625 54.4375 67.546875 
Q 58.015625 65.09375 60.1875 60.640625 
Q 62.359375 56.203125 62.359375 50.875 
Q 62.359375 41.75 56.546875 35.421875 
Q 50.734375 29.109375 35.546875 29.109375 
L 17.1875 29.109375 
L 17.1875 0 
z
M 17.1875 37.546875 
L 35.6875 37.546875 
Q 44.875 37.546875 48.734375 40.96875 
Q 52.59375 44.390625 52.59375 50.59375 
Q 52.59375 55.078125 50.3125 58.265625 
Q 48.046875 61.46875 44.34375 62.5 
Q 41.9375 63.140625 35.5 63.140625 
L 17.1875 63.140625 
z
" id="ArialMT-80"/>
    <path d="M 7.328125 0 
L 7.328125 71.578125 
L 34.1875 71.578125 
Q 42.390625 71.578125 47.34375 69.40625 
Q 52.296875 67.234375 55.09375 62.71875 
Q 57.90625 58.203125 57.90625 53.265625 
Q 57.90625 48.6875 55.421875 44.625 
Q 52.9375 40.578125 47.90625 38.09375 
Q 54.390625 36.1875 57.875 31.59375 
Q 61.375 27 61.375 20.75 
Q 61.375 15.71875 59.25 11.390625 
Q 57.125 7.078125 54 4.734375 
Q 50.875 2.390625 46.15625 1.1875 
Q 41.453125 0 34.625 0 
z
M 16.796875 41.5 
L 32.28125 41.5 
Q 38.578125 41.5 41.3125 42.328125 
Q 44.921875 43.40625 46.75 45.890625 
Q 48.578125 48.390625 48.578125 52.15625 
Q 48.578125 55.71875 46.875 58.421875 
Q 45.171875 61.140625 41.984375 62.140625 
Q 38.8125 63.140625 31.109375 63.140625 
L 16.796875 63.140625 
z
M 16.796875 8.453125 
L 34.625 8.453125 
Q 39.203125 8.453125 41.0625 8.796875 
Q 44.34375 9.375 46.53125 10.734375 
Q 48.734375 12.109375 50.140625 14.71875 
Q 51.5625 17.328125 51.5625 20.75 
Q 51.5625 24.75 49.515625 27.703125 
Q 47.46875 30.671875 43.828125 31.859375 
Q 40.1875 33.0625 33.34375 33.0625 
L 16.796875 33.0625 
z
" id="ArialMT-66"/>
    <path d="M 6.59375 0 
L 6.59375 71.578125 
L 15.375 71.578125 
L 15.375 45.90625 
Q 21.53125 53.03125 30.90625 53.03125 
Q 36.671875 53.03125 40.921875 50.75 
Q 45.171875 48.484375 47 44.484375 
Q 48.828125 40.484375 48.828125 32.859375 
L 48.828125 0 
L 40.046875 0 
L 40.046875 32.859375 
Q 40.046875 39.453125 37.1875 42.453125 
Q 34.328125 45.453125 29.109375 45.453125 
Q 25.203125 45.453125 21.75 43.421875 
Q 18.3125 41.40625 16.84375 37.9375 
Q 15.375 34.46875 15.375 28.375 
L 15.375 0 
z
" id="ArialMT-104"/>
    <path d="M 3.171875 21.484375 
L 3.171875 30.328125 
L 30.171875 30.328125 
L 30.171875 21.484375 
z
" id="ArialMT-45"/>
    <path d="M 6.5 0 
L 6.5 51.859375 
L 14.40625 51.859375 
L 14.40625 44 
Q 17.4375 49.515625 20 51.265625 
Q 22.5625 53.03125 25.640625 53.03125 
Q 30.078125 53.03125 34.671875 50.203125 
L 31.640625 42.046875 
Q 28.421875 43.953125 25.203125 43.953125 
Q 22.3125 43.953125 20.015625 42.21875 
Q 17.71875 40.484375 16.75 37.40625 
Q 15.28125 32.71875 15.28125 27.15625 
L 15.28125 0 
z
" id="ArialMT-114"/>
   </defs>
   <g style="fill:#262626;" transform="translate(268.22625 15.789375)scale(0.12 -0.12)">
    <use xlink:href="#ArialMT-84"/>
    <use x="61.083984" xlink:href="#ArialMT-73"/>
    <use x="88.867188" xlink:href="#ArialMT-67"/>
    <use x="161.083984" xlink:href="#ArialMT-32"/>
    <use x="188.867188" xlink:href="#ArialMT-80"/>
    <use x="255.566406" xlink:href="#ArialMT-111"/>
    <use x="311.181641" xlink:href="#ArialMT-115"/>
    <use x="361.181641" xlink:href="#ArialMT-116"/>
    <use x="388.964844" xlink:href="#ArialMT-32"/>
    <use x="416.748047" xlink:href="#ArialMT-66"/>
    <use x="483.447266" xlink:href="#ArialMT-97"/>
    <use x="539.0625" xlink:href="#ArialMT-116"/>
    <use x="566.845703" xlink:href="#ArialMT-99"/>
    <use x="616.845703" xlink:href="#ArialMT-104"/>
    <use x="672.460938" xlink:href="#ArialMT-45"/>
    <use x="705.761719" xlink:href="#ArialMT-67"/>
    <use x="777.978516" xlink:href="#ArialMT-111"/>
    <use x="833.59375" xlink:href="#ArialMT-114"/>
    <use x="866.894531" xlink:href="#ArialMT-114"/>
    <use x="900.195312" xlink:href="#ArialMT-101"/>
    <use x="955.810547" xlink:href="#ArialMT-99"/>
    <use x="1005.810547" xlink:href="#ArialMT-116"/>
    <use x="1033.59375" xlink:href="#ArialMT-105"/>
    <use x="1055.810547" xlink:href="#ArialMT-111"/>
    <use x="1111.425781" xlink:href="#ArialMT-110"/>
   </g>
  </g>
 </g>
 <defs>
  <clipPath id="p63b70ed811">
   <rect height="380.52" width="486.806897" x="41.245313" y="57.6"/>
  </clipPath>
  <clipPath id="pfb512b5b64">
   <rect height="380.52" width="105.827586" x="549.217726" y="57.6"/>
  </clipPath>
 </defs>
</svg>
