<?xml version="1.0" encoding="utf-8" standalone="no"?>
<!DOCTYPE svg PUBLIC "-//W3C//DTD SVG 1.1//EN"
  "http://www.w3.org/Graphics/SVG/1.1/DTD/svg11.dtd">
<!-- Created with matplotlib (https://matplotlib.org/) -->
<svg height="434.368437pt" version="1.1" viewBox="0 0 665.745312 434.368437" width="665.745312pt" xmlns="http://www.w3.org/2000/svg" xmlns:xlink="http://www.w3.org/1999/xlink">
 <defs>
  <style type="text/css">
*{stroke-linecap:butt;stroke-linejoin:round;}
  </style>
 </defs>
 <g id="figure_1">
  <g id="patch_1">
   <path d="M 0 434.368437 
L 665.745312 434.368437 
L 665.745312 0 
L 0 0 
z
" style="fill:#ffffff;"/>
  </g>
  <g id="axes_1">
   <g id="patch_2">
    <path d="M 41.245313 397.877812 
L 655.045313 397.877812 
L 655.045313 17.357812 
L 41.245313 17.357812 
z
" style="fill:#ffffff;"/>
   </g>
   <g id="matplotlib.axis_1">
    <g id="xtick_1">
     <g id="line2d_1">
      <path clip-path="url(#p897eaaa485)" d="M 69.152505 397.877812 
L 69.152505 17.357812 
" style="fill:none;stroke:#cccccc;stroke-linecap:round;stroke-width:0.8;"/>
     </g>
     <g id="text_1">
      <!-- 0 -->
      <defs>
       <path d="M 4.15625 35.296875 
Q 4.15625 48 6.765625 55.734375 
Q 9.375 63.484375 14.515625 67.671875 
Q 19.671875 71.875 27.484375 71.875 
Q 33.25 71.875 37.59375 69.546875 
Q 41.9375 67.234375 44.765625 62.859375 
Q 47.609375 58.5 49.21875 52.21875 
Q 50.828125 45.953125 50.828125 35.296875 
Q 50.828125 22.703125 48.234375 14.96875 
Q 45.65625 7.234375 40.5 3 
Q 35.359375 -1.21875 27.484375 -1.21875 
Q 17.140625 -1.21875 11.234375 6.203125 
Q 4.15625 15.140625 4.15625 35.296875 
z
M 13.1875 35.296875 
Q 13.1875 17.671875 17.3125 11.828125 
Q 21.4375 6 27.484375 6 
Q 33.546875 6 37.671875 11.859375 
Q 41.796875 17.71875 41.796875 35.296875 
Q 41.796875 52.984375 37.671875 58.78125 
Q 33.546875 64.59375 27.390625 64.59375 
Q 21.34375 64.59375 17.71875 59.46875 
Q 13.1875 52.9375 13.1875 35.296875 
z
" id="ArialMT-48"/>
      </defs>
      <g style="fill:#262626;" transform="translate(66.372036 412.035625)scale(0.1 -0.1)">
       <use xlink:href="#ArialMT-48"/>
      </g>
     </g>
    </g>
    <g id="xtick_2">
     <g id="line2d_2">
      <path clip-path="url(#p897eaaa485)" d="M 191.786706 397.877812 
L 191.786706 17.357812 
" style="fill:none;stroke:#cccccc;stroke-linecap:round;stroke-width:0.8;"/>
     </g>
     <g id="text_2">
      <!-- 20 -->
      <defs>
       <path d="M 50.34375 8.453125 
L 50.34375 0 
L 3.03125 0 
Q 2.9375 3.171875 4.046875 6.109375 
Q 5.859375 10.9375 9.828125 15.625 
Q 13.8125 20.3125 21.34375 26.46875 
Q 33.015625 36.03125 37.109375 41.625 
Q 41.21875 47.21875 41.21875 52.203125 
Q 41.21875 57.421875 37.46875 61 
Q 33.734375 64.59375 27.734375 64.59375 
Q 21.390625 64.59375 17.578125 60.78125 
Q 13.765625 56.984375 13.71875 50.25 
L 4.6875 51.171875 
Q 5.609375 61.28125 11.65625 66.578125 
Q 17.71875 71.875 27.9375 71.875 
Q 38.234375 71.875 44.234375 66.15625 
Q 50.25 60.453125 50.25 52 
Q 50.25 47.703125 48.484375 43.546875 
Q 46.734375 39.40625 42.65625 34.8125 
Q 38.578125 30.21875 29.109375 22.21875 
Q 21.1875 15.578125 18.9375 13.203125 
Q 16.703125 10.84375 15.234375 8.453125 
z
" id="ArialMT-50"/>
      </defs>
      <g style="fill:#262626;" transform="translate(186.225769 412.035625)scale(0.1 -0.1)">
       <use xlink:href="#ArialMT-50"/>
       <use x="55.615234" xlink:href="#ArialMT-48"/>
      </g>
     </g>
    </g>
    <g id="xtick_3">
     <g id="line2d_3">
      <path clip-path="url(#p897eaaa485)" d="M 314.420907 397.877812 
L 314.420907 17.357812 
" style="fill:none;stroke:#cccccc;stroke-linecap:round;stroke-width:0.8;"/>
     </g>
     <g id="text_3">
      <!-- 40 -->
      <defs>
       <path d="M 32.328125 0 
L 32.328125 17.140625 
L 1.265625 17.140625 
L 1.265625 25.203125 
L 33.9375 71.578125 
L 41.109375 71.578125 
L 41.109375 25.203125 
L 50.78125 25.203125 
L 50.78125 17.140625 
L 41.109375 17.140625 
L 41.109375 0 
z
M 32.328125 25.203125 
L 32.328125 57.46875 
L 9.90625 25.203125 
z
" id="ArialMT-52"/>
      </defs>
      <g style="fill:#262626;" transform="translate(308.85997 412.035625)scale(0.1 -0.1)">
       <use xlink:href="#ArialMT-52"/>
       <use x="55.615234" xlink:href="#ArialMT-48"/>
      </g>
     </g>
    </g>
    <g id="xtick_4">
     <g id="line2d_4">
      <path clip-path="url(#p897eaaa485)" d="M 437.055108 397.877812 
L 437.055108 17.357812 
" style="fill:none;stroke:#cccccc;stroke-linecap:round;stroke-width:0.8;"/>
     </g>
     <g id="text_4">
      <!-- 60 -->
      <defs>
       <path d="M 49.75 54.046875 
L 41.015625 53.375 
Q 39.84375 58.546875 37.703125 60.890625 
Q 34.125 64.65625 28.90625 64.65625 
Q 24.703125 64.65625 21.53125 62.3125 
Q 17.390625 59.28125 14.984375 53.46875 
Q 12.59375 47.65625 12.5 36.921875 
Q 15.671875 41.75 20.265625 44.09375 
Q 24.859375 46.4375 29.890625 46.4375 
Q 38.671875 46.4375 44.84375 39.96875 
Q 51.03125 33.5 51.03125 23.25 
Q 51.03125 16.5 48.125 10.71875 
Q 45.21875 4.9375 40.140625 1.859375 
Q 35.0625 -1.21875 28.609375 -1.21875 
Q 17.625 -1.21875 10.6875 6.859375 
Q 3.765625 14.9375 3.765625 33.5 
Q 3.765625 54.25 11.421875 63.671875 
Q 18.109375 71.875 29.4375 71.875 
Q 37.890625 71.875 43.28125 67.140625 
Q 48.6875 62.40625 49.75 54.046875 
z
M 13.875 23.1875 
Q 13.875 18.65625 15.796875 14.5 
Q 17.71875 10.359375 21.1875 8.171875 
Q 24.65625 6 28.46875 6 
Q 34.03125 6 38.03125 10.484375 
Q 42.046875 14.984375 42.046875 22.703125 
Q 42.046875 30.125 38.078125 34.390625 
Q 34.125 38.671875 28.125 38.671875 
Q 22.171875 38.671875 18.015625 34.390625 
Q 13.875 30.125 13.875 23.1875 
z
" id="ArialMT-54"/>
      </defs>
      <g style="fill:#262626;" transform="translate(431.494171 412.035625)scale(0.1 -0.1)">
       <use xlink:href="#ArialMT-54"/>
       <use x="55.615234" xlink:href="#ArialMT-48"/>
      </g>
     </g>
    </g>
    <g id="xtick_5">
     <g id="line2d_5">
      <path clip-path="url(#p897eaaa485)" d="M 559.689309 397.877812 
L 559.689309 17.357812 
" style="fill:none;stroke:#cccccc;stroke-linecap:round;stroke-width:0.8;"/>
     </g>
     <g id="text_5">
      <!-- 80 -->
      <defs>
       <path d="M 17.671875 38.8125 
Q 12.203125 40.828125 9.5625 44.53125 
Q 6.9375 48.25 6.9375 53.421875 
Q 6.9375 61.234375 12.546875 66.546875 
Q 18.171875 71.875 27.484375 71.875 
Q 36.859375 71.875 42.578125 66.421875 
Q 48.296875 60.984375 48.296875 53.171875 
Q 48.296875 48.1875 45.671875 44.5 
Q 43.0625 40.828125 37.75 38.8125 
Q 44.34375 36.671875 47.78125 31.875 
Q 51.21875 27.09375 51.21875 20.453125 
Q 51.21875 11.28125 44.71875 5.03125 
Q 38.234375 -1.21875 27.640625 -1.21875 
Q 17.046875 -1.21875 10.546875 5.046875 
Q 4.046875 11.328125 4.046875 20.703125 
Q 4.046875 27.6875 7.59375 32.390625 
Q 11.140625 37.109375 17.671875 38.8125 
z
M 15.921875 53.71875 
Q 15.921875 48.640625 19.1875 45.40625 
Q 22.46875 42.1875 27.6875 42.1875 
Q 32.765625 42.1875 36.015625 45.375 
Q 39.265625 48.578125 39.265625 53.21875 
Q 39.265625 58.0625 35.90625 61.359375 
Q 32.5625 64.65625 27.59375 64.65625 
Q 22.5625 64.65625 19.234375 61.421875 
Q 15.921875 58.203125 15.921875 53.71875 
z
M 13.09375 20.65625 
Q 13.09375 16.890625 14.875 13.375 
Q 16.65625 9.859375 20.171875 7.921875 
Q 23.6875 6 27.734375 6 
Q 34.03125 6 38.125 10.046875 
Q 42.234375 14.109375 42.234375 20.359375 
Q 42.234375 26.703125 38.015625 30.859375 
Q 33.796875 35.015625 27.4375 35.015625 
Q 21.234375 35.015625 17.15625 30.90625 
Q 13.09375 26.8125 13.09375 20.65625 
z
" id="ArialMT-56"/>
      </defs>
      <g style="fill:#262626;" transform="translate(554.128372 412.035625)scale(0.1 -0.1)">
       <use xlink:href="#ArialMT-56"/>
       <use x="55.615234" xlink:href="#ArialMT-48"/>
      </g>
     </g>
    </g>
    <g id="text_6">
     <!-- Run Order -->
     <defs>
      <path d="M 7.859375 0 
L 7.859375 71.578125 
L 39.59375 71.578125 
Q 49.171875 71.578125 54.140625 69.640625 
Q 59.125 67.71875 62.109375 62.828125 
Q 65.09375 57.953125 65.09375 52.046875 
Q 65.09375 44.4375 60.15625 39.203125 
Q 55.21875 33.984375 44.921875 32.5625 
Q 48.6875 30.765625 50.640625 29 
Q 54.78125 25.203125 58.5 19.484375 
L 70.953125 0 
L 59.03125 0 
L 49.5625 14.890625 
Q 45.40625 21.34375 42.71875 24.75 
Q 40.046875 28.171875 37.921875 29.53125 
Q 35.796875 30.90625 33.59375 31.453125 
Q 31.984375 31.78125 28.328125 31.78125 
L 17.328125 31.78125 
L 17.328125 0 
z
M 17.328125 39.984375 
L 37.703125 39.984375 
Q 44.1875 39.984375 47.84375 41.328125 
Q 51.515625 42.671875 53.421875 45.625 
Q 55.328125 48.578125 55.328125 52.046875 
Q 55.328125 57.125 51.640625 60.390625 
Q 47.953125 63.671875 39.984375 63.671875 
L 17.328125 63.671875 
z
" id="ArialMT-82"/>
      <path d="M 40.578125 0 
L 40.578125 7.625 
Q 34.515625 -1.171875 24.125 -1.171875 
Q 19.53125 -1.171875 15.546875 0.578125 
Q 11.578125 2.34375 9.640625 5 
Q 7.71875 7.671875 6.9375 11.53125 
Q 6.390625 14.109375 6.390625 19.734375 
L 6.390625 51.859375 
L 15.1875 51.859375 
L 15.1875 23.09375 
Q 15.1875 16.21875 15.71875 13.8125 
Q 16.546875 10.359375 19.234375 8.375 
Q 21.921875 6.390625 25.875 6.390625 
Q 29.828125 6.390625 33.296875 8.421875 
Q 36.765625 10.453125 38.203125 13.9375 
Q 39.65625 17.4375 39.65625 24.078125 
L 39.65625 51.859375 
L 48.4375 51.859375 
L 48.4375 0 
z
" id="ArialMT-117"/>
      <path d="M 6.59375 0 
L 6.59375 51.859375 
L 14.5 51.859375 
L 14.5 44.484375 
Q 20.21875 53.03125 31 53.03125 
Q 35.6875 53.03125 39.625 51.34375 
Q 43.5625 49.65625 45.515625 46.921875 
Q 47.46875 44.1875 48.25 40.4375 
Q 48.734375 37.984375 48.734375 31.890625 
L 48.734375 0 
L 39.9375 0 
L 39.9375 31.546875 
Q 39.9375 36.921875 38.90625 39.578125 
Q 37.890625 42.234375 35.28125 43.8125 
Q 32.671875 45.40625 29.15625 45.40625 
Q 23.53125 45.40625 19.453125 41.84375 
Q 15.375 38.28125 15.375 28.328125 
L 15.375 0 
z
" id="ArialMT-110"/>
      <path id="ArialMT-32"/>
      <path d="M 4.828125 34.859375 
Q 4.828125 52.6875 14.390625 62.765625 
Q 23.96875 72.859375 39.109375 72.859375 
Q 49.03125 72.859375 56.984375 68.109375 
Q 64.9375 63.375 69.109375 54.90625 
Q 73.296875 46.4375 73.296875 35.6875 
Q 73.296875 24.8125 68.890625 16.21875 
Q 64.5 7.625 56.4375 3.203125 
Q 48.390625 -1.21875 39.0625 -1.21875 
Q 28.953125 -1.21875 20.984375 3.65625 
Q 13.03125 8.546875 8.921875 16.984375 
Q 4.828125 25.4375 4.828125 34.859375 
z
M 14.59375 34.71875 
Q 14.59375 21.78125 21.546875 14.328125 
Q 28.515625 6.890625 39.015625 6.890625 
Q 49.703125 6.890625 56.609375 14.40625 
Q 63.53125 21.921875 63.53125 35.75 
Q 63.53125 44.484375 60.578125 51 
Q 57.625 57.515625 51.921875 61.109375 
Q 46.234375 64.703125 39.15625 64.703125 
Q 29.109375 64.703125 21.84375 57.78125 
Q 14.59375 50.875 14.59375 34.71875 
z
" id="ArialMT-79"/>
      <path d="M 6.5 0 
L 6.5 51.859375 
L 14.40625 51.859375 
L 14.40625 44 
Q 17.4375 49.515625 20 51.265625 
Q 22.5625 53.03125 25.640625 53.03125 
Q 30.078125 53.03125 34.671875 50.203125 
L 31.640625 42.046875 
Q 28.421875 43.953125 25.203125 43.953125 
Q 22.3125 43.953125 20.015625 42.21875 
Q 17.71875 40.484375 16.75 37.40625 
Q 15.28125 32.71875 15.28125 27.15625 
L 15.28125 0 
z
" id="ArialMT-114"/>
      <path d="M 40.234375 0 
L 40.234375 6.546875 
Q 35.296875 -1.171875 25.734375 -1.171875 
Q 19.53125 -1.171875 14.328125 2.25 
Q 9.125 5.671875 6.265625 11.796875 
Q 3.421875 17.921875 3.421875 25.875 
Q 3.421875 33.640625 6 39.96875 
Q 8.59375 46.296875 13.765625 49.65625 
Q 18.953125 53.03125 25.34375 53.03125 
Q 30.03125 53.03125 33.6875 51.046875 
Q 37.359375 49.078125 39.65625 45.90625 
L 39.65625 71.578125 
L 48.390625 71.578125 
L 48.390625 0 
z
M 12.453125 25.875 
Q 12.453125 15.921875 16.640625 10.984375 
Q 20.84375 6.0625 26.5625 6.0625 
Q 32.328125 6.0625 36.34375 10.765625 
Q 40.375 15.484375 40.375 25.140625 
Q 40.375 35.796875 36.265625 40.765625 
Q 32.171875 45.75 26.171875 45.75 
Q 20.3125 45.75 16.375 40.96875 
Q 12.453125 36.1875 12.453125 25.875 
z
" id="ArialMT-100"/>
      <path d="M 42.09375 16.703125 
L 51.171875 15.578125 
Q 49.03125 7.625 43.21875 3.21875 
Q 37.40625 -1.171875 28.375 -1.171875 
Q 17 -1.171875 10.328125 5.828125 
Q 3.65625 12.84375 3.65625 25.484375 
Q 3.65625 38.578125 10.390625 45.796875 
Q 17.140625 53.03125 27.875 53.03125 
Q 38.28125 53.03125 44.875 45.953125 
Q 51.46875 38.875 51.46875 26.03125 
Q 51.46875 25.25 51.421875 23.6875 
L 12.75 23.6875 
Q 13.234375 15.140625 17.578125 10.59375 
Q 21.921875 6.0625 28.421875 6.0625 
Q 33.25 6.0625 36.671875 8.59375 
Q 40.09375 11.140625 42.09375 16.703125 
z
M 13.234375 30.90625 
L 42.1875 30.90625 
Q 41.609375 37.453125 38.875 40.71875 
Q 34.671875 45.796875 27.984375 45.796875 
Q 21.921875 45.796875 17.796875 41.75 
Q 13.671875 37.703125 13.234375 30.90625 
z
" id="ArialMT-101"/>
     </defs>
     <g style="fill:#262626;" transform="translate(324.804688 425.180937)scale(0.1 -0.1)">
      <use xlink:href="#ArialMT-82"/>
      <use x="72.216797" xlink:href="#ArialMT-117"/>
      <use x="127.832031" xlink:href="#ArialMT-110"/>
      <use x="183.447266" xlink:href="#ArialMT-32"/>
      <use x="211.230469" xlink:href="#ArialMT-79"/>
      <use x="289.013672" xlink:href="#ArialMT-114"/>
      <use x="322.314453" xlink:href="#ArialMT-100"/>
      <use x="377.929688" xlink:href="#ArialMT-101"/>
      <use x="433.544922" xlink:href="#ArialMT-114"/>
     </g>
    </g>
   </g>
   <g id="matplotlib.axis_2">
    <g id="ytick_1">
     <g id="line2d_6">
      <path clip-path="url(#p897eaaa485)" d="M 41.245313 348.500655 
L 655.045313 348.500655 
" style="fill:none;stroke:#cccccc;stroke-linecap:round;stroke-width:0.8;"/>
     </g>
     <g id="text_7">
      <!-- 0.6 -->
      <defs>
       <path d="M 9.078125 0 
L 9.078125 10.015625 
L 19.09375 10.015625 
L 19.09375 0 
z
" id="ArialMT-46"/>
      </defs>
      <g style="fill:#262626;" transform="translate(20.345313 352.079561)scale(0.1 -0.1)">
       <use xlink:href="#ArialMT-48"/>
       <use x="55.615234" xlink:href="#ArialMT-46"/>
       <use x="83.398438" xlink:href="#ArialMT-54"/>
      </g>
     </g>
    </g>
    <g id="ytick_2">
     <g id="line2d_7">
      <path clip-path="url(#p897eaaa485)" d="M 41.245313 283.544669 
L 655.045313 283.544669 
" style="fill:none;stroke:#cccccc;stroke-linecap:round;stroke-width:0.8;"/>
     </g>
     <g id="text_8">
      <!-- 0.8 -->
      <g style="fill:#262626;" transform="translate(20.345313 287.123575)scale(0.1 -0.1)">
       <use xlink:href="#ArialMT-48"/>
       <use x="55.615234" xlink:href="#ArialMT-46"/>
       <use x="83.398438" xlink:href="#ArialMT-56"/>
      </g>
     </g>
    </g>
    <g id="ytick_3">
     <g id="line2d_8">
      <path clip-path="url(#p897eaaa485)" d="M 41.245313 218.588682 
L 655.045313 218.588682 
" style="fill:none;stroke:#cccccc;stroke-linecap:round;stroke-width:0.8;"/>
     </g>
     <g id="text_9">
      <!-- 1.0 -->
      <defs>
       <path d="M 37.25 0 
L 28.46875 0 
L 28.46875 56 
Q 25.296875 52.984375 20.140625 49.953125 
Q 14.984375 46.921875 10.890625 45.40625 
L 10.890625 53.90625 
Q 18.265625 57.375 23.78125 62.296875 
Q 29.296875 67.234375 31.59375 71.875 
L 37.25 71.875 
z
" id="ArialMT-49"/>
      </defs>
      <g style="fill:#262626;" transform="translate(20.345313 222.167589)scale(0.1 -0.1)">
       <use xlink:href="#ArialMT-49"/>
       <use x="55.615234" xlink:href="#ArialMT-46"/>
       <use x="83.398438" xlink:href="#ArialMT-48"/>
      </g>
     </g>
    </g>
    <g id="ytick_4">
     <g id="line2d_9">
      <path clip-path="url(#p897eaaa485)" d="M 41.245313 153.632696 
L 655.045313 153.632696 
" style="fill:none;stroke:#cccccc;stroke-linecap:round;stroke-width:0.8;"/>
     </g>
     <g id="text_10">
      <!-- 1.2 -->
      <g style="fill:#262626;" transform="translate(20.345313 157.211603)scale(0.1 -0.1)">
       <use xlink:href="#ArialMT-49"/>
       <use x="55.615234" xlink:href="#ArialMT-46"/>
       <use x="83.398438" xlink:href="#ArialMT-50"/>
      </g>
     </g>
    </g>
    <g id="ytick_5">
     <g id="line2d_10">
      <path clip-path="url(#p897eaaa485)" d="M 41.245313 88.67671 
L 655.045313 88.67671 
" style="fill:none;stroke:#cccccc;stroke-linecap:round;stroke-width:0.8;"/>
     </g>
     <g id="text_11">
      <!-- 1.4 -->
      <g style="fill:#262626;" transform="translate(20.345313 92.255617)scale(0.1 -0.1)">
       <use xlink:href="#ArialMT-49"/>
       <use x="55.615234" xlink:href="#ArialMT-46"/>
       <use x="83.398438" xlink:href="#ArialMT-52"/>
      </g>
     </g>
    </g>
    <g id="ytick_6">
     <g id="line2d_11">
      <path clip-path="url(#p897eaaa485)" d="M 41.245313 23.720724 
L 655.045313 23.720724 
" style="fill:none;stroke:#cccccc;stroke-linecap:round;stroke-width:0.8;"/>
     </g>
     <g id="text_12">
      <!-- 1.6 -->
      <g style="fill:#262626;" transform="translate(20.345313 27.29963)scale(0.1 -0.1)">
       <use xlink:href="#ArialMT-49"/>
       <use x="55.615234" xlink:href="#ArialMT-46"/>
       <use x="83.398438" xlink:href="#ArialMT-54"/>
      </g>
     </g>
    </g>
    <g id="text_13">
     <!-- TIC -->
     <defs>
      <path d="M 25.921875 0 
L 25.921875 63.140625 
L 2.34375 63.140625 
L 2.34375 71.578125 
L 59.078125 71.578125 
L 59.078125 63.140625 
L 35.40625 63.140625 
L 35.40625 0 
z
" id="ArialMT-84"/>
      <path d="M 9.328125 0 
L 9.328125 71.578125 
L 18.796875 71.578125 
L 18.796875 0 
z
" id="ArialMT-73"/>
      <path d="M 58.796875 25.09375 
L 68.265625 22.703125 
Q 65.28125 11.03125 57.546875 4.90625 
Q 49.8125 -1.21875 38.625 -1.21875 
Q 27.046875 -1.21875 19.796875 3.484375 
Q 12.546875 8.203125 8.765625 17.140625 
Q 4.984375 26.078125 4.984375 36.328125 
Q 4.984375 47.515625 9.25 55.828125 
Q 13.53125 64.15625 21.40625 68.46875 
Q 29.296875 72.796875 38.765625 72.796875 
Q 49.515625 72.796875 56.828125 67.328125 
Q 64.15625 61.859375 67.046875 51.953125 
L 57.71875 49.75 
Q 55.21875 57.5625 50.484375 61.125 
Q 45.75 64.703125 38.578125 64.703125 
Q 30.328125 64.703125 24.78125 60.734375 
Q 19.234375 56.78125 16.984375 50.109375 
Q 14.75 43.453125 14.75 36.375 
Q 14.75 27.25 17.40625 20.4375 
Q 20.0625 13.625 25.671875 10.25 
Q 31.296875 6.890625 37.84375 6.890625 
Q 45.796875 6.890625 51.3125 11.46875 
Q 56.84375 16.0625 58.796875 25.09375 
z
" id="ArialMT-67"/>
     </defs>
     <g style="fill:#262626;" transform="translate(14.357813 215.671719)rotate(-90)scale(0.1 -0.1)">
      <use xlink:href="#ArialMT-84"/>
      <use x="61.083984" xlink:href="#ArialMT-73"/>
      <use x="88.867188" xlink:href="#ArialMT-67"/>
     </g>
    </g>
    <g id="text_14">
     <!-- 1e9 -->
     <defs>
      <path d="M 5.46875 16.546875 
L 13.921875 17.328125 
Q 14.984375 11.375 18.015625 8.6875 
Q 21.046875 6 25.78125 6 
Q 29.828125 6 32.875 7.859375 
Q 35.9375 9.71875 37.890625 12.8125 
Q 39.84375 15.921875 41.15625 21.1875 
Q 42.484375 26.46875 42.484375 31.9375 
Q 42.484375 32.515625 42.4375 33.6875 
Q 39.796875 29.5 35.234375 26.875 
Q 30.671875 24.265625 25.34375 24.265625 
Q 16.453125 24.265625 10.296875 30.703125 
Q 4.15625 37.15625 4.15625 47.703125 
Q 4.15625 58.59375 10.578125 65.234375 
Q 17 71.875 26.65625 71.875 
Q 33.640625 71.875 39.421875 68.109375 
Q 45.21875 64.359375 48.21875 57.390625 
Q 51.21875 50.4375 51.21875 37.25 
Q 51.21875 23.53125 48.234375 15.40625 
Q 45.265625 7.28125 39.375 3.03125 
Q 33.5 -1.21875 25.59375 -1.21875 
Q 17.1875 -1.21875 11.859375 3.4375 
Q 6.546875 8.109375 5.46875 16.546875 
z
M 41.453125 48.140625 
Q 41.453125 55.71875 37.421875 60.15625 
Q 33.40625 64.59375 27.734375 64.59375 
Q 21.875 64.59375 17.53125 59.8125 
Q 13.1875 55.03125 13.1875 47.40625 
Q 13.1875 40.578125 17.3125 36.296875 
Q 21.4375 32.03125 27.484375 32.03125 
Q 33.59375 32.03125 37.515625 36.296875 
Q 41.453125 40.578125 41.453125 48.140625 
z
" id="ArialMT-57"/>
     </defs>
     <g style="fill:#262626;" transform="translate(41.245313 14.357812)scale(0.1 -0.1)">
      <use xlink:href="#ArialMT-49"/>
      <use x="55.615234" xlink:href="#ArialMT-101"/>
      <use x="111.230469" xlink:href="#ArialMT-57"/>
     </g>
    </g>
   </g>
   <g id="PathCollection_1">
    <defs>
     <path d="M 0 3 
C 0.795609 3 1.55874 2.683901 2.12132 2.12132 
C 2.683901 1.55874 3 0.795609 3 0 
C 3 -0.795609 2.683901 -1.55874 2.12132 -2.12132 
C 1.55874 -2.683901 0.795609 -3 0 -3 
C -0.795609 -3 -1.55874 -2.683901 -2.12132 -2.12132 
C -2.683901 -1.55874 -3 -0.795609 -3 0 
C -3 0.795609 -2.683901 1.55874 -2.12132 2.12132 
C -1.55874 2.683901 -0.795609 3 0 3 
z
" id="C0_0_dd8b8bd076"/>
    </defs>
    <g clip-path="url(#p897eaaa485)">
     <use style="fill:#000080;stroke:#808080;" x="69.152505" xlink:href="#C0_0_dd8b8bd076" y="330.618065"/>
    </g>
    <g clip-path="url(#p897eaaa485)">
     <use style="fill:#000080;stroke:#808080;" x="75.284215" xlink:href="#C0_0_dd8b8bd076" y="327.678342"/>
    </g>
    <g clip-path="url(#p897eaaa485)">
     <use style="fill:#000080;stroke:#808080;" x="81.415925" xlink:href="#C0_0_dd8b8bd076" y="329.772682"/>
    </g>
    <g clip-path="url(#p897eaaa485)">
     <use style="fill:#000080;stroke:#808080;" x="87.547635" xlink:href="#C0_0_dd8b8bd076" y="333.064011"/>
    </g>
    <g clip-path="url(#p897eaaa485)">
     <use style="fill:#000080;stroke:#808080;" x="93.679345" xlink:href="#C0_0_dd8b8bd076" y="327.033959"/>
    </g>
    <g clip-path="url(#p897eaaa485)">
     <use style="fill:#000080;stroke:#808080;" x="99.811055" xlink:href="#C0_0_dd8b8bd076" y="329.99325"/>
    </g>
    <g clip-path="url(#p897eaaa485)">
     <use style="fill:#000080;stroke:#808080;" x="105.942765" xlink:href="#C0_0_dd8b8bd076" y="325.3543"/>
    </g>
    <g clip-path="url(#p897eaaa485)">
     <use style="fill:#000080;stroke:#808080;" x="112.074475" xlink:href="#C0_0_dd8b8bd076" y="327.774258"/>
    </g>
    <g clip-path="url(#p897eaaa485)">
     <use style="fill:#000080;stroke:#808080;" x="118.206186" xlink:href="#C0_0_dd8b8bd076" y="327.712072"/>
    </g>
    <g clip-path="url(#p897eaaa485)">
     <use style="fill:#000080;stroke:#808080;" x="124.337896" xlink:href="#C0_0_dd8b8bd076" y="330.678526"/>
    </g>
    <g clip-path="url(#p897eaaa485)">
     <use style="fill:#0000e8;stroke:#808080;" x="130.469606" xlink:href="#C0_0_dd8b8bd076" y="276.534559"/>
    </g>
    <g clip-path="url(#p897eaaa485)">
     <use style="fill:#0000e8;stroke:#808080;" x="136.601316" xlink:href="#C0_0_dd8b8bd076" y="276.844546"/>
    </g>
    <g clip-path="url(#p897eaaa485)">
     <use style="fill:#0000e8;stroke:#808080;" x="142.733026" xlink:href="#C0_0_dd8b8bd076" y="275.497924"/>
    </g>
    <g clip-path="url(#p897eaaa485)">
     <use style="fill:#0000e8;stroke:#808080;" x="148.864736" xlink:href="#C0_0_dd8b8bd076" y="272.712819"/>
    </g>
    <g clip-path="url(#p897eaaa485)">
     <use style="fill:#0000e8;stroke:#808080;" x="154.996446" xlink:href="#C0_0_dd8b8bd076" y="278.590313"/>
    </g>
    <g clip-path="url(#p897eaaa485)">
     <use style="fill:#0000e8;stroke:#808080;" x="161.128156" xlink:href="#C0_0_dd8b8bd076" y="276.314066"/>
    </g>
    <g clip-path="url(#p897eaaa485)">
     <use style="fill:#0000e8;stroke:#808080;" x="167.259866" xlink:href="#C0_0_dd8b8bd076" y="274.45708"/>
    </g>
    <g clip-path="url(#p897eaaa485)">
     <use style="fill:#0000e8;stroke:#808080;" x="173.391576" xlink:href="#C0_0_dd8b8bd076" y="274.084935"/>
    </g>
    <g clip-path="url(#p897eaaa485)">
     <use style="fill:#0000e8;stroke:#808080;" x="179.523286" xlink:href="#C0_0_dd8b8bd076" y="277.430789"/>
    </g>
    <g clip-path="url(#p897eaaa485)">
     <use style="fill:#0000e8;stroke:#808080;" x="185.654996" xlink:href="#C0_0_dd8b8bd076" y="273.272914"/>
    </g>
    <g clip-path="url(#p897eaaa485)">
     <use style="fill:#0044ff;stroke:#808080;" x="191.786706" xlink:href="#C0_0_dd8b8bd076" y="238.280288"/>
    </g>
    <g clip-path="url(#p897eaaa485)">
     <use style="fill:#0044ff;stroke:#808080;" x="197.918416" xlink:href="#C0_0_dd8b8bd076" y="235.241767"/>
    </g>
    <g clip-path="url(#p897eaaa485)">
     <use style="fill:#0044ff;stroke:#808080;" x="204.050126" xlink:href="#C0_0_dd8b8bd076" y="237.032147"/>
    </g>
    <g clip-path="url(#p897eaaa485)">
     <use style="fill:#0044ff;stroke:#808080;" x="210.181836" xlink:href="#C0_0_dd8b8bd076" y="226.949807"/>
    </g>
    <g clip-path="url(#p897eaaa485)">
     <use style="fill:#0044ff;stroke:#808080;" x="216.313546" xlink:href="#C0_0_dd8b8bd076" y="229.32052"/>
    </g>
    <g clip-path="url(#p897eaaa485)">
     <use style="fill:#23ffd4;stroke:#808080;" x="222.445256" xlink:href="#C0_0_dd8b8bd076" y="154.400001"/>
    </g>
    <g clip-path="url(#p897eaaa485)">
     <use style="fill:#23ffd4;stroke:#808080;" x="228.576966" xlink:href="#C0_0_dd8b8bd076" y="167.334943"/>
    </g>
    <g clip-path="url(#p897eaaa485)">
     <use style="fill:#23ffd4;stroke:#808080;" x="234.708677" xlink:href="#C0_0_dd8b8bd076" y="167.506998"/>
    </g>
    <g clip-path="url(#p897eaaa485)">
     <use style="fill:#caff2c;stroke:#808080;" x="240.840387" xlink:href="#C0_0_dd8b8bd076" y="143.690601"/>
    </g>
    <g clip-path="url(#p897eaaa485)">
     <use style="fill:#caff2c;stroke:#808080;" x="246.972097" xlink:href="#C0_0_dd8b8bd076" y="125.225375"/>
    </g>
    <g clip-path="url(#p897eaaa485)">
     <use style="fill:#caff2c;stroke:#808080;" x="253.103807" xlink:href="#C0_0_dd8b8bd076" y="126.156239"/>
    </g>
    <g clip-path="url(#p897eaaa485)">
     <use style="fill:#ff6800;stroke:#808080;" x="259.235517" xlink:href="#C0_0_dd8b8bd076" y="88.441761"/>
    </g>
    <g clip-path="url(#p897eaaa485)">
     <use style="fill:#ff6800;stroke:#808080;" x="265.367227" xlink:href="#C0_0_dd8b8bd076" y="87.624656"/>
    </g>
    <g clip-path="url(#p897eaaa485)">
     <use style="fill:#ff6800;stroke:#808080;" x="271.498937" xlink:href="#C0_0_dd8b8bd076" y="95.104214"/>
    </g>
    <g clip-path="url(#p897eaaa485)">
     <use style="fill:#ff6800;stroke:#808080;" x="277.630647" xlink:href="#C0_0_dd8b8bd076" y="92.939358"/>
    </g>
    <g clip-path="url(#p897eaaa485)">
     <use style="fill:#ff6800;stroke:#808080;" x="283.762357" xlink:href="#C0_0_dd8b8bd076" y="93.514847"/>
    </g>
    <g clip-path="url(#p897eaaa485)">
     <use style="fill:#800000;stroke:#808080;" x="289.894067" xlink:href="#C0_0_dd8b8bd076" y="56.953658"/>
    </g>
    <g clip-path="url(#p897eaaa485)">
     <use style="fill:#800000;stroke:#808080;" x="296.025777" xlink:href="#C0_0_dd8b8bd076" y="60.681861"/>
    </g>
    <g clip-path="url(#p897eaaa485)">
     <use style="fill:#800000;stroke:#808080;" x="302.157487" xlink:href="#C0_0_dd8b8bd076" y="81.574866"/>
    </g>
    <g clip-path="url(#p897eaaa485)">
     <use style="fill:#800000;stroke:#808080;" x="308.289197" xlink:href="#C0_0_dd8b8bd076" y="58.331927"/>
    </g>
    <g clip-path="url(#p897eaaa485)">
     <use style="fill:#800000;stroke:#808080;" x="314.420907" xlink:href="#C0_0_dd8b8bd076" y="97.171003"/>
    </g>
    <g clip-path="url(#p897eaaa485)">
     <use style="fill:#800000;stroke:#808080;" x="320.552617" xlink:href="#C0_0_dd8b8bd076" y="65.963633"/>
    </g>
    <g clip-path="url(#p897eaaa485)">
     <use style="fill:#800000;stroke:#808080;" x="326.684327" xlink:href="#C0_0_dd8b8bd076" y="63.492309"/>
    </g>
    <g clip-path="url(#p897eaaa485)">
     <use style="fill:#800000;stroke:#808080;" x="332.816037" xlink:href="#C0_0_dd8b8bd076" y="62.621702"/>
    </g>
    <g clip-path="url(#p897eaaa485)">
     <use style="fill:#800000;stroke:#808080;" x="338.947747" xlink:href="#C0_0_dd8b8bd076" y="50.378143"/>
    </g>
    <g clip-path="url(#p897eaaa485)">
     <use style="fill:#800000;stroke:#808080;" x="345.079457" xlink:href="#C0_0_dd8b8bd076" y="64.749211"/>
    </g>
    <g clip-path="url(#p897eaaa485)">
     <use style="fill:#000080;stroke:#808080;" x="627.13812" xlink:href="#C0_0_dd8b8bd076" y="363.211296"/>
    </g>
    <g clip-path="url(#p897eaaa485)">
     <use style="fill:#000080;stroke:#808080;" x="621.00641" xlink:href="#C0_0_dd8b8bd076" y="362.699021"/>
    </g>
    <g clip-path="url(#p897eaaa485)">
     <use style="fill:#000080;stroke:#808080;" x="614.8747" xlink:href="#C0_0_dd8b8bd076" y="364.857482"/>
    </g>
    <g clip-path="url(#p897eaaa485)">
     <use style="fill:#000080;stroke:#808080;" x="608.74299" xlink:href="#C0_0_dd8b8bd076" y="363.829389"/>
    </g>
    <g clip-path="url(#p897eaaa485)">
     <use style="fill:#000080;stroke:#808080;" x="602.61128" xlink:href="#C0_0_dd8b8bd076" y="363.094548"/>
    </g>
    <g clip-path="url(#p897eaaa485)">
     <use style="fill:#000080;stroke:#808080;" x="596.47957" xlink:href="#C0_0_dd8b8bd076" y="362.241758"/>
    </g>
    <g clip-path="url(#p897eaaa485)">
     <use style="fill:#000080;stroke:#808080;" x="590.34786" xlink:href="#C0_0_dd8b8bd076" y="361.029467"/>
    </g>
    <g clip-path="url(#p897eaaa485)">
     <use style="fill:#000080;stroke:#808080;" x="584.21615" xlink:href="#C0_0_dd8b8bd076" y="359.188488"/>
    </g>
    <g clip-path="url(#p897eaaa485)">
     <use style="fill:#000080;stroke:#808080;" x="578.084439" xlink:href="#C0_0_dd8b8bd076" y="360.339375"/>
    </g>
    <g clip-path="url(#p897eaaa485)">
     <use style="fill:#000080;stroke:#808080;" x="571.952729" xlink:href="#C0_0_dd8b8bd076" y="359.435366"/>
    </g>
    <g clip-path="url(#p897eaaa485)">
     <use style="fill:#0000e8;stroke:#808080;" x="565.821019" xlink:href="#C0_0_dd8b8bd076" y="315.080531"/>
    </g>
    <g clip-path="url(#p897eaaa485)">
     <use style="fill:#0000e8;stroke:#808080;" x="559.689309" xlink:href="#C0_0_dd8b8bd076" y="314.387355"/>
    </g>
    <g clip-path="url(#p897eaaa485)">
     <use style="fill:#0000e8;stroke:#808080;" x="553.557599" xlink:href="#C0_0_dd8b8bd076" y="310.834418"/>
    </g>
    <g clip-path="url(#p897eaaa485)">
     <use style="fill:#0000e8;stroke:#808080;" x="547.425889" xlink:href="#C0_0_dd8b8bd076" y="313.434764"/>
    </g>
    <g clip-path="url(#p897eaaa485)">
     <use style="fill:#0000e8;stroke:#808080;" x="541.294179" xlink:href="#C0_0_dd8b8bd076" y="312.208062"/>
    </g>
    <g clip-path="url(#p897eaaa485)">
     <use style="fill:#0000e8;stroke:#808080;" x="535.162469" xlink:href="#C0_0_dd8b8bd076" y="314.860803"/>
    </g>
    <g clip-path="url(#p897eaaa485)">
     <use style="fill:#0000e8;stroke:#808080;" x="529.030759" xlink:href="#C0_0_dd8b8bd076" y="311.565476"/>
    </g>
    <g clip-path="url(#p897eaaa485)">
     <use style="fill:#0000e8;stroke:#808080;" x="522.899049" xlink:href="#C0_0_dd8b8bd076" y="314.373654"/>
    </g>
    <g clip-path="url(#p897eaaa485)">
     <use style="fill:#0000e8;stroke:#808080;" x="516.767339" xlink:href="#C0_0_dd8b8bd076" y="312.065856"/>
    </g>
    <g clip-path="url(#p897eaaa485)">
     <use style="fill:#0000e8;stroke:#808080;" x="510.635629" xlink:href="#C0_0_dd8b8bd076" y="313.64161"/>
    </g>
    <g clip-path="url(#p897eaaa485)">
     <use style="fill:#0044ff;stroke:#808080;" x="504.503919" xlink:href="#C0_0_dd8b8bd076" y="271.137365"/>
    </g>
    <g clip-path="url(#p897eaaa485)">
     <use style="fill:#0044ff;stroke:#808080;" x="498.372209" xlink:href="#C0_0_dd8b8bd076" y="271.990223"/>
    </g>
    <g clip-path="url(#p897eaaa485)">
     <use style="fill:#0044ff;stroke:#808080;" x="492.240499" xlink:href="#C0_0_dd8b8bd076" y="273.460468"/>
    </g>
    <g clip-path="url(#p897eaaa485)">
     <use style="fill:#0044ff;stroke:#808080;" x="486.108789" xlink:href="#C0_0_dd8b8bd076" y="270.405794"/>
    </g>
    <g clip-path="url(#p897eaaa485)">
     <use style="fill:#0044ff;stroke:#808080;" x="479.977079" xlink:href="#C0_0_dd8b8bd076" y="274.634212"/>
    </g>
    <g clip-path="url(#p897eaaa485)">
     <use style="fill:#23ffd4;stroke:#808080;" x="473.845369" xlink:href="#C0_0_dd8b8bd076" y="210.505275"/>
    </g>
    <g clip-path="url(#p897eaaa485)">
     <use style="fill:#23ffd4;stroke:#808080;" x="467.713659" xlink:href="#C0_0_dd8b8bd076" y="211.566245"/>
    </g>
    <g clip-path="url(#p897eaaa485)">
     <use style="fill:#23ffd4;stroke:#808080;" x="461.581948" xlink:href="#C0_0_dd8b8bd076" y="215.24554"/>
    </g>
    <g clip-path="url(#p897eaaa485)">
     <use style="fill:#caff2c;stroke:#808080;" x="455.450238" xlink:href="#C0_0_dd8b8bd076" y="168.320482"/>
    </g>
    <g clip-path="url(#p897eaaa485)">
     <use style="fill:#caff2c;stroke:#808080;" x="449.318528" xlink:href="#C0_0_dd8b8bd076" y="169.696061"/>
    </g>
    <g clip-path="url(#p897eaaa485)">
     <use style="fill:#caff2c;stroke:#808080;" x="443.186818" xlink:href="#C0_0_dd8b8bd076" y="168.600571"/>
    </g>
    <g clip-path="url(#p897eaaa485)">
     <use style="fill:#ff6800;stroke:#808080;" x="437.055108" xlink:href="#C0_0_dd8b8bd076" y="136.541952"/>
    </g>
    <g clip-path="url(#p897eaaa485)">
     <use style="fill:#ff6800;stroke:#808080;" x="430.923398" xlink:href="#C0_0_dd8b8bd076" y="128.083962"/>
    </g>
    <g clip-path="url(#p897eaaa485)">
     <use style="fill:#ff6800;stroke:#808080;" x="424.791688" xlink:href="#C0_0_dd8b8bd076" y="127.461848"/>
    </g>
    <g clip-path="url(#p897eaaa485)">
     <use style="fill:#ff6800;stroke:#808080;" x="418.659978" xlink:href="#C0_0_dd8b8bd076" y="124.105302"/>
    </g>
    <g clip-path="url(#p897eaaa485)">
     <use style="fill:#ff6800;stroke:#808080;" x="412.528268" xlink:href="#C0_0_dd8b8bd076" y="128.05908"/>
    </g>
    <g clip-path="url(#p897eaaa485)">
     <use style="fill:#800000;stroke:#808080;" x="406.396558" xlink:href="#C0_0_dd8b8bd076" y="93.08067"/>
    </g>
    <g clip-path="url(#p897eaaa485)">
     <use style="fill:#800000;stroke:#808080;" x="400.264848" xlink:href="#C0_0_dd8b8bd076" y="94.538925"/>
    </g>
    <g clip-path="url(#p897eaaa485)">
     <use style="fill:#800000;stroke:#808080;" x="394.133138" xlink:href="#C0_0_dd8b8bd076" y="91.385404"/>
    </g>
    <g clip-path="url(#p897eaaa485)">
     <use style="fill:#800000;stroke:#808080;" x="388.001428" xlink:href="#C0_0_dd8b8bd076" y="97.74027"/>
    </g>
    <g clip-path="url(#p897eaaa485)">
     <use style="fill:#800000;stroke:#808080;" x="381.869718" xlink:href="#C0_0_dd8b8bd076" y="101.965481"/>
    </g>
    <g clip-path="url(#p897eaaa485)">
     <use style="fill:#800000;stroke:#808080;" x="375.738008" xlink:href="#C0_0_dd8b8bd076" y="97.394234"/>
    </g>
    <g clip-path="url(#p897eaaa485)">
     <use style="fill:#800000;stroke:#808080;" x="369.606298" xlink:href="#C0_0_dd8b8bd076" y="96.263614"/>
    </g>
    <g clip-path="url(#p897eaaa485)">
     <use style="fill:#800000;stroke:#808080;" x="363.474588" xlink:href="#C0_0_dd8b8bd076" y="92.733709"/>
    </g>
    <g clip-path="url(#p897eaaa485)">
     <use style="fill:#800000;stroke:#808080;" x="357.342878" xlink:href="#C0_0_dd8b8bd076" y="88.453352"/>
    </g>
    <g clip-path="url(#p897eaaa485)">
     <use style="fill:#800000;stroke:#808080;" x="351.211168" xlink:href="#C0_0_dd8b8bd076" y="88.14356"/>
    </g>
   </g>
   <g id="line2d_12">
    <path clip-path="url(#p897eaaa485)" d="M 348.145313 380.581449 
L 348.145313 34.654176 
" style="fill:none;stroke:#1a1a1a;stroke-linecap:round;stroke-width:0.5;"/>
   </g>
   <g id="patch_3">
    <path d="M 41.245313 397.877812 
L 41.245313 17.357812 
" style="fill:none;stroke:#cccccc;stroke-linecap:square;stroke-linejoin:miter;stroke-width:0.8;"/>
   </g>
   <g id="patch_4">
    <path d="M 655.045313 397.877812 
L 655.045313 17.357812 
" style="fill:none;stroke:#cccccc;stroke-linecap:square;stroke-linejoin:miter;stroke-width:0.8;"/>
   </g>
   <g id="patch_5">
    <path d="M 41.245313 397.877812 
L 655.045313 397.877812 
" style="fill:none;stroke:#cccccc;stroke-linecap:square;stroke-linejoin:miter;stroke-width:0.8;"/>
   </g>
   <g id="patch_6">
    <path d="M 41.245313 17.357812 
L 655.045313 17.357812 
" style="fill:none;stroke:#cccccc;stroke-linecap:square;stroke-linejoin:miter;stroke-width:0.8;"/>
   </g>
  </g>
 </g>
 <defs>
  <clipPath id="p897eaaa485">
   <rect height="380.52" width="613.8" x="41.245313" y="17.357812"/>
  </clipPath>
 </defs>
</svg>
