<?xml version="1.0" encoding="utf-8" standalone="no"?>
<!DOCTYPE svg PUBLIC "-//W3C//DTD SVG 1.1//EN"
  "http://www.w3.org/Graphics/SVG/1.1/DTD/svg11.dtd">
<!-- Created with matplotlib (https://matplotlib.org/) -->
<svg height="427.710625pt" version="1.1" viewBox="0 0 635.2 427.710625" width="635.2pt" xmlns="http://www.w3.org/2000/svg" xmlns:xlink="http://www.w3.org/1999/xlink">
 <defs>
  <style type="text/css">
*{stroke-linecap:butt;stroke-linejoin:round;}
  </style>
 </defs>
 <g id="figure_1">
  <g id="patch_1">
   <path d="M 0 427.710625 
L 635.2 427.710625 
L 635.2 0 
L 0 0 
z
" style="fill:#ffffff;"/>
  </g>
  <g id="axes_1">
   <g id="patch_2">
    <path d="M 10.7 391.22 
L 624.5 391.22 
L 624.5 10.7 
L 10.7 10.7 
z
" style="fill:#ffffff;"/>
   </g>
   <g id="matplotlib.axis_1">
    <g id="xtick_1">
     <g id="line2d_1">
      <path clip-path="url(#p8165f28a16)" d="M 596.772193 391.22 
L 596.772193 10.7 
" style="fill:none;stroke:#cccccc;stroke-linecap:round;stroke-width:0.8;"/>
     </g>
     <g id="text_1">
      <!-- −0.3 -->
      <defs>
       <path d="M 52.828125 31.203125 
L 5.5625 31.203125 
L 5.5625 39.40625 
L 52.828125 39.40625 
z
" id="ArialMT-8722"/>
       <path d="M 4.15625 35.296875 
Q 4.15625 48 6.765625 55.734375 
Q 9.375 63.484375 14.515625 67.671875 
Q 19.671875 71.875 27.484375 71.875 
Q 33.25 71.875 37.59375 69.546875 
Q 41.9375 67.234375 44.765625 62.859375 
Q 47.609375 58.5 49.21875 52.21875 
Q 50.828125 45.953125 50.828125 35.296875 
Q 50.828125 22.703125 48.234375 14.96875 
Q 45.65625 7.234375 40.5 3 
Q 35.359375 -1.21875 27.484375 -1.21875 
Q 17.140625 -1.21875 11.234375 6.203125 
Q 4.15625 15.140625 4.15625 35.296875 
z
M 13.1875 35.296875 
Q 13.1875 17.671875 17.3125 11.828125 
Q 21.4375 6 27.484375 6 
Q 33.546875 6 37.671875 11.859375 
Q 41.796875 17.71875 41.796875 35.296875 
Q 41.796875 52.984375 37.671875 58.78125 
Q 33.546875 64.59375 27.390625 64.59375 
Q 21.34375 64.59375 17.71875 59.46875 
Q 13.1875 52.9375 13.1875 35.296875 
z
" id="ArialMT-48"/>
       <path d="M 9.078125 0 
L 9.078125 10.015625 
L 19.09375 10.015625 
L 19.09375 0 
z
" id="ArialMT-46"/>
       <path d="M 4.203125 18.890625 
L 12.984375 20.0625 
Q 14.5 12.59375 18.140625 9.296875 
Q 21.78125 6 27 6 
Q 33.203125 6 37.46875 10.296875 
Q 41.75 14.59375 41.75 20.953125 
Q 41.75 27 37.796875 30.921875 
Q 33.84375 34.859375 27.734375 34.859375 
Q 25.25 34.859375 21.53125 33.890625 
L 22.515625 41.609375 
Q 23.390625 41.5 23.921875 41.5 
Q 29.546875 41.5 34.03125 44.421875 
Q 38.53125 47.359375 38.53125 53.46875 
Q 38.53125 58.296875 35.25 61.46875 
Q 31.984375 64.65625 26.8125 64.65625 
Q 21.6875 64.65625 18.265625 61.421875 
Q 14.84375 58.203125 13.875 51.765625 
L 5.078125 53.328125 
Q 6.6875 62.15625 12.390625 67.015625 
Q 18.109375 71.875 26.609375 71.875 
Q 32.46875 71.875 37.390625 69.359375 
Q 42.328125 66.84375 44.9375 62.5 
Q 47.5625 58.15625 47.5625 53.265625 
Q 47.5625 48.640625 45.0625 44.828125 
Q 42.578125 41.015625 37.703125 38.765625 
Q 44.046875 37.3125 47.5625 32.6875 
Q 51.078125 28.078125 51.078125 21.140625 
Q 51.078125 11.765625 44.234375 5.25 
Q 37.40625 -1.265625 26.953125 -1.265625 
Q 17.53125 -1.265625 11.296875 4.34375 
Q 5.078125 9.96875 4.203125 18.890625 
z
" id="ArialMT-51"/>
      </defs>
      <g style="fill:#262626;" transform="translate(586.901881 405.377813)scale(0.1 -0.1)">
       <use xlink:href="#ArialMT-8722"/>
       <use x="58.398438" xlink:href="#ArialMT-48"/>
       <use x="114.013672" xlink:href="#ArialMT-46"/>
       <use x="141.796875" xlink:href="#ArialMT-51"/>
      </g>
     </g>
    </g>
    <g id="xtick_2">
     <g id="line2d_2">
      <path clip-path="url(#p8165f28a16)" d="M 503.699283 391.22 
L 503.699283 10.7 
" style="fill:none;stroke:#cccccc;stroke-linecap:round;stroke-width:0.8;"/>
     </g>
     <g id="text_2">
      <!-- −0.2 -->
      <defs>
       <path d="M 50.34375 8.453125 
L 50.34375 0 
L 3.03125 0 
Q 2.9375 3.171875 4.046875 6.109375 
Q 5.859375 10.9375 9.828125 15.625 
Q 13.8125 20.3125 21.34375 26.46875 
Q 33.015625 36.03125 37.109375 41.625 
Q 41.21875 47.21875 41.21875 52.203125 
Q 41.21875 57.421875 37.46875 61 
Q 33.734375 64.59375 27.734375 64.59375 
Q 21.390625 64.59375 17.578125 60.78125 
Q 13.765625 56.984375 13.71875 50.25 
L 4.6875 51.171875 
Q 5.609375 61.28125 11.65625 66.578125 
Q 17.71875 71.875 27.9375 71.875 
Q 38.234375 71.875 44.234375 66.15625 
Q 50.25 60.453125 50.25 52 
Q 50.25 47.703125 48.484375 43.546875 
Q 46.734375 39.40625 42.65625 34.8125 
Q 38.578125 30.21875 29.109375 22.21875 
Q 21.1875 15.578125 18.9375 13.203125 
Q 16.703125 10.84375 15.234375 8.453125 
z
" id="ArialMT-50"/>
      </defs>
      <g style="fill:#262626;" transform="translate(493.82897 405.377813)scale(0.1 -0.1)">
       <use xlink:href="#ArialMT-8722"/>
       <use x="58.398438" xlink:href="#ArialMT-48"/>
       <use x="114.013672" xlink:href="#ArialMT-46"/>
       <use x="141.796875" xlink:href="#ArialMT-50"/>
      </g>
     </g>
    </g>
    <g id="xtick_3">
     <g id="line2d_3">
      <path clip-path="url(#p8165f28a16)" d="M 410.626372 391.22 
L 410.626372 10.7 
" style="fill:none;stroke:#cccccc;stroke-linecap:round;stroke-width:0.8;"/>
     </g>
     <g id="text_3">
      <!-- −0.1 -->
      <defs>
       <path d="M 37.25 0 
L 28.46875 0 
L 28.46875 56 
Q 25.296875 52.984375 20.140625 49.953125 
Q 14.984375 46.921875 10.890625 45.40625 
L 10.890625 53.90625 
Q 18.265625 57.375 23.78125 62.296875 
Q 29.296875 67.234375 31.59375 71.875 
L 37.25 71.875 
z
" id="ArialMT-49"/>
      </defs>
      <g style="fill:#262626;" transform="translate(400.756059 405.377813)scale(0.1 -0.1)">
       <use xlink:href="#ArialMT-8722"/>
       <use x="58.398438" xlink:href="#ArialMT-48"/>
       <use x="114.013672" xlink:href="#ArialMT-46"/>
       <use x="141.796875" xlink:href="#ArialMT-49"/>
      </g>
     </g>
    </g>
    <g id="xtick_4">
     <g id="line2d_4">
      <path clip-path="url(#p8165f28a16)" d="M 317.553461 391.22 
L 317.553461 10.7 
" style="fill:none;stroke:#cccccc;stroke-linecap:round;stroke-width:0.8;"/>
     </g>
     <g id="text_4">
      <!-- 0.0 -->
      <g style="fill:#262626;" transform="translate(310.603461 405.377813)scale(0.1 -0.1)">
       <use xlink:href="#ArialMT-48"/>
       <use x="55.615234" xlink:href="#ArialMT-46"/>
       <use x="83.398438" xlink:href="#ArialMT-48"/>
      </g>
     </g>
    </g>
    <g id="xtick_5">
     <g id="line2d_5">
      <path clip-path="url(#p8165f28a16)" d="M 224.48055 391.22 
L 224.48055 10.7 
" style="fill:none;stroke:#cccccc;stroke-linecap:round;stroke-width:0.8;"/>
     </g>
     <g id="text_5">
      <!-- 0.1 -->
      <g style="fill:#262626;" transform="translate(217.53055 405.377813)scale(0.1 -0.1)">
       <use xlink:href="#ArialMT-48"/>
       <use x="55.615234" xlink:href="#ArialMT-46"/>
       <use x="83.398438" xlink:href="#ArialMT-49"/>
      </g>
     </g>
    </g>
    <g id="xtick_6">
     <g id="line2d_6">
      <path clip-path="url(#p8165f28a16)" d="M 131.40764 391.22 
L 131.40764 10.7 
" style="fill:none;stroke:#cccccc;stroke-linecap:round;stroke-width:0.8;"/>
     </g>
     <g id="text_6">
      <!-- 0.2 -->
      <g style="fill:#262626;" transform="translate(124.45764 405.377813)scale(0.1 -0.1)">
       <use xlink:href="#ArialMT-48"/>
       <use x="55.615234" xlink:href="#ArialMT-46"/>
       <use x="83.398438" xlink:href="#ArialMT-50"/>
      </g>
     </g>
    </g>
    <g id="xtick_7">
     <g id="line2d_7">
      <path clip-path="url(#p8165f28a16)" d="M 38.334729 391.22 
L 38.334729 10.7 
" style="fill:none;stroke:#cccccc;stroke-linecap:round;stroke-width:0.8;"/>
     </g>
     <g id="text_7">
      <!-- 0.3 -->
      <g style="fill:#262626;" transform="translate(31.384729 405.377813)scale(0.1 -0.1)">
       <use xlink:href="#ArialMT-48"/>
       <use x="55.615234" xlink:href="#ArialMT-46"/>
       <use x="83.398438" xlink:href="#ArialMT-51"/>
      </g>
     </g>
    </g>
    <g id="text_8">
     <!-- ppm -->
     <defs>
      <path d="M 6.59375 -19.875 
L 6.59375 51.859375 
L 14.59375 51.859375 
L 14.59375 45.125 
Q 17.4375 49.078125 21 51.046875 
Q 24.5625 53.03125 29.640625 53.03125 
Q 36.28125 53.03125 41.359375 49.609375 
Q 46.4375 46.1875 49.015625 39.953125 
Q 51.609375 33.734375 51.609375 26.3125 
Q 51.609375 18.359375 48.75 11.984375 
Q 45.90625 5.609375 40.453125 2.21875 
Q 35.015625 -1.171875 29 -1.171875 
Q 24.609375 -1.171875 21.109375 0.6875 
Q 17.625 2.546875 15.375 5.375 
L 15.375 -19.875 
z
M 14.546875 25.640625 
Q 14.546875 15.625 18.59375 10.84375 
Q 22.65625 6.0625 28.421875 6.0625 
Q 34.28125 6.0625 38.453125 11.015625 
Q 42.625 15.96875 42.625 26.375 
Q 42.625 36.28125 38.546875 41.203125 
Q 34.46875 46.140625 28.8125 46.140625 
Q 23.1875 46.140625 18.859375 40.890625 
Q 14.546875 35.640625 14.546875 25.640625 
z
" id="ArialMT-112"/>
      <path d="M 6.59375 0 
L 6.59375 51.859375 
L 14.453125 51.859375 
L 14.453125 44.578125 
Q 16.890625 48.390625 20.9375 50.703125 
Q 25 53.03125 30.171875 53.03125 
Q 35.9375 53.03125 39.625 50.640625 
Q 43.3125 48.25 44.828125 43.953125 
Q 50.984375 53.03125 60.84375 53.03125 
Q 68.5625 53.03125 72.703125 48.75 
Q 76.859375 44.484375 76.859375 35.59375 
L 76.859375 0 
L 68.109375 0 
L 68.109375 32.671875 
Q 68.109375 37.9375 67.25 40.25 
Q 66.40625 42.578125 64.15625 43.984375 
Q 61.921875 45.40625 58.890625 45.40625 
Q 53.421875 45.40625 49.796875 41.765625 
Q 46.1875 38.140625 46.1875 30.125 
L 46.1875 0 
L 37.40625 0 
L 37.40625 33.6875 
Q 37.40625 39.546875 35.25 42.46875 
Q 33.109375 45.40625 28.21875 45.40625 
Q 24.515625 45.40625 21.359375 43.453125 
Q 18.21875 41.5 16.796875 37.734375 
Q 15.375 33.984375 15.375 26.90625 
L 15.375 0 
z
" id="ArialMT-109"/>
     </defs>
     <g style="fill:#262626;" transform="translate(307.874219 418.523125)scale(0.1 -0.1)">
      <use xlink:href="#ArialMT-112"/>
      <use x="55.615234" xlink:href="#ArialMT-112"/>
      <use x="111.230469" xlink:href="#ArialMT-109"/>
     </g>
    </g>
   </g>
   <g id="matplotlib.axis_2"/>
   <g id="PolyCollection_1">
    <defs>
     <path d="M 38.6 -53.975025 
L 38.6 -53.833595 
L 39.111927 -53.828178 
L 39.623853 -53.80554 
L 40.13578 -53.831455 
L 40.647706 -53.824959 
L 41.159633 -53.818405 
L 41.67156 -53.837521 
L 42.183486 -53.83176 
L 42.695413 -53.826256 
L 43.207339 -53.834848 
L 43.719266 -53.826409 
L 44.231193 -53.805481 
L 44.743119 -53.824615 
L 45.255046 -53.832282 
L 45.766972 -53.8268 
L 46.278899 -53.820155 
L 46.790826 -53.805452 
L 47.302752 -53.813636 
L 47.814679 -53.825315 
L 48.326606 -53.837058 
L 48.838532 -53.819199 
L 49.350459 -53.822615 
L 49.862385 -53.822428 
L 50.374312 -53.828074 
L 50.886239 -53.840654 
L 51.398165 -53.837835 
L 51.910092 -53.819095 
L 52.422018 -53.816239 
L 52.933945 -53.811067 
L 53.445872 -53.814855 
L 53.957798 -53.83066 
L 54.469725 -53.841254 
L 54.981651 -53.829714 
L 55.493578 -53.830709 
L 56.005505 -53.829211 
L 56.517431 -53.815233 
L 57.029358 -53.81444 
L 57.541284 -53.821681 
L 58.053211 -53.813743 
L 58.565138 -53.805924 
L 59.077064 -53.80959 
L 59.588991 -53.812195 
L 60.100917 -53.816868 
L 60.612844 -53.81176 
L 61.124771 -53.818356 
L 61.636697 -53.819891 
L 62.148624 -53.829364 
L 62.66055 -53.834839 
L 63.172477 -53.830866 
L 63.684404 -53.827464 
L 64.19633 -53.823604 
L 64.708257 -53.814513 
L 65.220183 -53.83404 
L 65.73211 -53.838593 
L 66.244037 -53.820809 
L 66.755963 -53.824696 
L 67.26789 -53.83386 
L 67.779817 -53.81995 
L 68.291743 -53.813313 
L 68.80367 -53.804706 
L 69.315596 -53.814174 
L 69.827523 -53.819119 
L 70.33945 -53.814724 
L 70.851376 -53.828263 
L 71.363303 -53.84278 
L 71.875229 -53.824876 
L 72.387156 -53.816854 
L 72.899083 -53.829093 
L 73.411009 -53.827598 
L 73.922936 -53.799993 
L 74.434862 -53.833002 
L 74.946789 -53.830827 
L 75.458716 -53.828918 
L 75.970642 -53.848352 
L 76.482569 -53.827935 
L 76.994495 -53.822444 
L 77.506422 -53.831229 
L 78.018349 -53.824613 
L 78.530275 -53.831042 
L 79.042202 -53.82733 
L 79.554128 -53.824366 
L 80.066055 -53.818363 
L 80.577982 -53.823988 
L 81.089908 -53.817007 
L 81.601835 -53.813224 
L 82.113761 -53.827146 
L 82.625688 -53.817586 
L 83.137615 -53.834361 
L 83.649541 -53.817141 
L 84.161468 -53.836134 
L 84.673394 -53.823181 
L 85.185321 -53.818865 
L 85.697248 -53.814839 
L 86.209174 -53.835309 
L 86.721101 -53.84644 
L 87.233028 -53.830172 
L 87.744954 -53.823683 
L 88.256881 -53.816215 
L 88.768807 -53.842174 
L 89.280734 -53.822547 
L 89.792661 -53.822059 
L 90.304587 -53.824053 
L 90.816514 -53.828669 
L 91.32844 -53.810112 
L 91.840367 -53.81556 
L 92.352294 -53.825461 
L 92.86422 -53.834982 
L 93.376147 -53.829276 
L 93.888073 -53.816022 
L 94.4 -53.826654 
L 94.911927 -53.816534 
L 95.423853 -53.819744 
L 95.93578 -53.821797 
L 96.447706 -53.820304 
L 96.959633 -53.819892 
L 97.47156 -53.835979 
L 97.983486 -53.835447 
L 98.495413 -53.819477 
L 99.007339 -53.842321 
L 99.519266 -53.843746 
L 100.031193 -53.809156 
L 100.543119 -53.823418 
L 101.055046 -53.827051 
L 101.566972 -53.823391 
L 102.078899 -53.832286 
L 102.590826 -53.823102 
L 103.102752 -53.830692 
L 103.614679 -53.843615 
L 104.126606 -53.832764 
L 104.638532 -53.812517 
L 105.150459 -53.828179 
L 105.662385 -53.828173 
L 106.174312 -53.842793 
L 106.686239 -53.836237 
L 107.198165 -53.832194 
L 107.710092 -53.821932 
L 108.222018 -53.833193 
L 108.733945 -53.818862 
L 109.245872 -53.828498 
L 109.757798 -53.826414 
L 110.269725 -53.82763 
L 110.781651 -53.825507 
L 111.293578 -53.819652 
L 111.805505 -53.836096 
L 112.317431 -53.823873 
L 112.829358 -53.822077 
L 113.341284 -53.839526 
L 113.853211 -53.821319 
L 114.365138 -53.828721 
L 114.877064 -53.831977 
L 115.388991 -53.830924 
L 115.900917 -53.82404 
L 116.412844 -53.822483 
L 116.924771 -53.802115 
L 117.436697 -53.821114 
L 117.948624 -53.822564 
L 118.46055 -53.786989 
L 118.972477 -53.833696 
L 119.484404 -53.81891 
L 119.99633 -53.836585 
L 120.508257 -53.801989 
L 121.020183 -53.810733 
L 121.53211 -53.7954 
L 122.044037 -53.815689 
L 122.555963 -53.841435 
L 123.06789 -53.838732 
L 123.579817 -53.814912 
L 124.091743 -53.823939 
L 124.60367 -53.836487 
L 125.115596 -53.818925 
L 125.627523 -53.826443 
L 126.13945 -53.8256 
L 126.651376 -53.807773 
L 127.163303 -53.812063 
L 127.675229 -53.82564 
L 128.187156 -53.826297 
L 128.699083 -53.817612 
L 129.211009 -53.819452 
L 129.722936 -53.828205 
L 130.234862 -53.825191 
L 130.746789 -53.804227 
L 131.258716 -53.835557 
L 131.770642 -53.828435 
L 132.282569 -53.812179 
L 132.794495 -53.822663 
L 133.306422 -53.829272 
L 133.818349 -53.833158 
L 134.330275 -53.814256 
L 134.842202 -53.834809 
L 135.354128 -53.824554 
L 135.866055 -53.833595 
L 136.377982 -53.819722 
L 136.889908 -53.827457 
L 137.401835 -53.826401 
L 137.913761 -53.845255 
L 138.425688 -53.84157 
L 138.937615 -53.841724 
L 139.449541 -53.828982 
L 139.961468 -53.833821 
L 140.473394 -53.833944 
L 140.985321 -53.815352 
L 141.497248 -53.810326 
L 142.009174 -53.831666 
L 142.521101 -53.827733 
L 143.033028 -53.834581 
L 143.544954 -53.828552 
L 144.056881 -53.809834 
L 144.568807 -53.84254 
L 145.080734 -53.842346 
L 145.592661 -53.82664 
L 146.104587 -53.828257 
L 146.616514 -53.833903 
L 147.12844 -53.850119 
L 147.640367 -53.828873 
L 148.152294 -53.837484 
L 148.66422 -53.82789 
L 149.176147 -53.826179 
L 149.688073 -53.842727 
L 150.2 -53.851271 
L 150.711927 -53.860147 
L 151.223853 -53.859018 
L 151.73578 -53.852825 
L 152.247706 -53.832334 
L 152.759633 -53.824155 
L 153.27156 -53.813721 
L 153.783486 -53.809236 
L 154.295413 -53.806141 
L 154.807339 -53.819171 
L 155.319266 -53.815122 
L 155.831193 -53.830532 
L 156.343119 -53.823874 
L 156.855046 -53.828885 
L 157.366972 -53.829697 
L 157.878899 -53.834543 
L 158.390826 -53.821964 
L 158.902752 -53.845746 
L 159.414679 -53.827774 
L 159.926606 -53.858666 
L 160.438532 -53.88174 
L 160.950459 -53.930855 
L 161.462385 -54.131219 
L 161.974312 -54.061649 
L 162.486239 -53.939802 
L 162.998165 -53.875112 
L 163.510092 -53.8688 
L 164.022018 -53.845303 
L 164.533945 -53.84963 
L 165.045872 -53.841031 
L 165.557798 -53.842644 
L 166.069725 -53.825275 
L 166.581651 -53.83369 
L 167.093578 -53.82419 
L 167.605505 -53.835227 
L 168.117431 -53.823862 
L 168.629358 -53.836846 
L 169.141284 -53.831955 
L 169.653211 -53.813725 
L 170.165138 -53.823169 
L 170.677064 -53.802987 
L 171.188991 -53.83592 
L 171.700917 -53.831944 
L 172.212844 -53.821685 
L 172.724771 -53.822403 
L 173.236697 -53.820071 
L 173.748624 -53.817603 
L 174.26055 -53.8218 
L 174.772477 -53.829675 
L 175.284404 -53.832957 
L 175.79633 -53.833815 
L 176.308257 -53.842778 
L 176.820183 -53.830625 
L 177.33211 -53.823255 
L 177.844037 -53.825983 
L 178.355963 -53.81401 
L 178.86789 -53.815384 
L 179.379817 -53.821674 
L 179.891743 -53.829941 
L 180.40367 -53.817441 
L 180.915596 -53.822399 
L 181.427523 -53.820441 
L 181.93945 -53.85182 
L 182.451376 -53.876587 
L 182.963303 -53.889058 
L 183.475229 -53.867074 
L 183.987156 -53.848377 
L 184.499083 -53.841606 
L 185.011009 -53.831027 
L 185.522936 -53.848321 
L 186.034862 -53.827665 
L 186.546789 -53.829901 
L 187.058716 -53.836279 
L 187.570642 -53.817023 
L 188.082569 -53.826511 
L 188.594495 -53.831217 
L 189.106422 -53.833831 
L 189.618349 -53.831843 
L 190.130275 -53.816672 
L 190.642202 -53.826032 
L 191.154128 -53.818258 
L 191.666055 -53.830417 
L 192.177982 -53.821212 
L 192.689908 -53.810351 
L 193.201835 -53.822296 
L 193.713761 -53.835141 
L 194.225688 -53.812127 
L 194.737615 -53.833296 
L 195.249541 -53.82144 
L 195.761468 -53.824785 
L 196.273394 -53.803479 
L 196.785321 -53.835034 
L 197.297248 -53.822092 
L 197.809174 -53.825231 
L 198.321101 -53.821767 
L 198.833028 -53.821212 
L 199.344954 -53.823867 
L 199.856881 -53.810632 
L 200.368807 -53.817657 
L 200.880734 -53.818346 
L 201.392661 -53.810784 
L 201.904587 -53.818245 
L 202.416514 -53.832525 
L 202.92844 -53.826237 
L 203.440367 -53.806735 
L 203.952294 -53.820336 
L 204.46422 -53.818384 
L 204.976147 -53.829405 
L 205.488073 -53.820912 
L 206 -53.813872 
L 206.511927 -53.807645 
L 207.023853 -53.820564 
L 207.53578 -53.821983 
L 208.047706 -53.833616 
L 208.559633 -53.834812 
L 209.07156 -53.812256 
L 209.583486 -53.824985 
L 210.095413 -53.821496 
L 210.607339 -53.815726 
L 211.119266 -53.832278 
L 211.631193 -53.821662 
L 212.143119 -53.807096 
L 212.655046 -53.830111 
L 213.166972 -53.824416 
L 213.678899 -53.820535 
L 214.190826 -53.813088 
L 214.702752 -53.818685 
L 215.214679 -53.811511 
L 215.726606 -53.821365 
L 216.238532 -53.81731 
L 216.750459 -53.818666 
L 217.262385 -53.829386 
L 217.774312 -53.81835 
L 218.286239 -53.828773 
L 218.798165 -53.833271 
L 219.310092 -53.836206 
L 219.822018 -53.831185 
L 220.333945 -53.831528 
L 220.845872 -53.834086 
L 221.357798 -53.855676 
L 221.869725 -53.867924 
L 222.381651 -53.873559 
L 222.893578 -53.859 
L 223.405505 -53.845385 
L 223.917431 -53.855536 
L 224.429358 -53.879401 
L 224.941284 -53.892263 
L 225.453211 -53.950685 
L 225.965138 -54.087351 
L 226.477064 -54.408414 
L 226.988991 -54.992625 
L 227.500917 -55.005397 
L 228.012844 -54.524001 
L 228.524771 -54.169591 
L 229.036697 -53.99311 
L 229.548624 -53.919877 
L 230.06055 -53.894951 
L 230.572477 -53.860724 
L 231.084404 -53.87031 
L 231.59633 -53.854594 
L 232.108257 -53.852041 
L 232.620183 -53.871004 
L 233.13211 -53.855216 
L 233.644037 -53.839452 
L 234.155963 -53.836726 
L 234.66789 -53.846455 
L 235.179817 -53.815762 
L 235.691743 -53.828008 
L 236.20367 -53.82151 
L 236.715596 -53.821465 
L 237.227523 -53.829027 
L 237.73945 -53.826173 
L 238.251376 -53.821475 
L 238.763303 -53.852711 
L 239.275229 -53.841178 
L 239.787156 -53.836342 
L 240.299083 -53.829833 
L 240.811009 -53.815417 
L 241.322936 -53.83029 
L 241.834862 -53.820922 
L 242.346789 -53.829469 
L 242.858716 -53.826383 
L 243.370642 -53.816812 
L 243.882569 -53.818639 
L 244.394495 -53.827274 
L 244.906422 -53.832137 
L 245.418349 -53.832629 
L 245.930275 -53.82707 
L 246.442202 -53.833252 
L 246.954128 -53.833191 
L 247.466055 -53.833768 
L 247.977982 -53.841744 
L 248.489908 -53.828908 
L 249.001835 -53.828936 
L 249.513761 -53.840213 
L 250.025688 -53.841606 
L 250.537615 -53.823622 
L 251.049541 -53.824081 
L 251.561468 -53.831315 
L 252.073394 -53.827173 
L 252.585321 -53.83131 
L 253.097248 -53.847919 
L 253.609174 -53.828377 
L 254.121101 -53.831847 
L 254.633028 -53.844371 
L 255.144954 -53.841798 
L 255.656881 -53.82647 
L 256.168807 -53.830692 
L 256.680734 -53.830232 
L 257.192661 -53.81728 
L 257.704587 -53.823157 
L 258.216514 -53.832039 
L 258.72844 -53.827076 
L 259.240367 -53.849299 
L 259.752294 -53.845945 
L 260.26422 -53.847939 
L 260.776147 -53.855965 
L 261.288073 -53.845272 
L 261.8 -53.83796 
L 262.311927 -53.821082 
L 262.823853 -53.81891 
L 263.33578 -53.845812 
L 263.847706 -53.83433 
L 264.359633 -53.838313 
L 264.87156 -53.861365 
L 265.383486 -53.852394 
L 265.895413 -53.835982 
L 266.407339 -53.836948 
L 266.919266 -53.840761 
L 267.431193 -53.83559 
L 267.943119 -53.836476 
L 268.455046 -53.848266 
L 268.966972 -53.839773 
L 269.478899 -53.84654 
L 269.990826 -53.840089 
L 270.502752 -53.833054 
L 271.014679 -53.824586 
L 271.526606 -53.810387 
L 272.038532 -53.816091 
L 272.550459 -53.830189 
L 273.062385 -53.82539 
L 273.574312 -53.825947 
L 274.086239 -53.83653 
L 274.598165 -53.848655 
L 275.110092 -53.830601 
L 275.622018 -53.820462 
L 276.133945 -53.839169 
L 276.645872 -53.82053 
L 277.157798 -53.856584 
L 277.669725 -53.859233 
L 278.181651 -53.838597 
L 278.693578 -53.84889 
L 279.205505 -53.849355 
L 279.717431 -53.835807 
L 280.229358 -53.843862 
L 280.741284 -53.836324 
L 281.253211 -53.847175 
L 281.765138 -53.843151 
L 282.277064 -53.838501 
L 282.788991 -53.846948 
L 283.300917 -53.862716 
L 283.812844 -53.841544 
L 284.324771 -53.847108 
L 284.836697 -53.868639 
L 285.348624 -53.882935 
L 285.86055 -53.867185 
L 286.372477 -53.870461 
L 286.884404 -53.863132 
L 287.39633 -53.851867 
L 287.908257 -53.850601 
L 288.420183 -53.860154 
L 288.93211 -53.85834 
L 289.444037 -53.856126 
L 289.955963 -53.864405 
L 290.46789 -53.856149 
L 290.979817 -53.913628 
L 291.491743 -53.910634 
L 292.00367 -53.860982 
L 292.515596 -53.839514 
L 293.027523 -53.847562 
L 293.53945 -53.870732 
L 294.051376 -53.881304 
L 294.563303 -53.899415 
L 295.075229 -53.915216 
L 295.587156 -53.919591 
L 296.099083 -53.902148 
L 296.611009 -53.897488 
L 297.122936 -53.898716 
L 297.634862 -53.884736 
L 298.146789 -53.906602 
L 298.658716 -53.908375 
L 299.170642 -53.920162 
L 299.682569 -53.943624 
L 300.194495 -53.958447 
L 300.706422 -53.972864 
L 301.218349 -53.952526 
L 301.730275 -53.950329 
L 302.242202 -53.961459 
L 302.754128 -53.974133 
L 303.266055 -53.989615 
L 303.777982 -54.015033 
L 304.289908 -54.054197 
L 304.801835 -54.079185 
L 305.313761 -54.11277 
L 305.825688 -54.139834 
L 306.337615 -54.170814 
L 306.849541 -54.211162 
L 307.361468 -54.219105 
L 307.873394 -54.275711 
L 308.385321 -54.360009 
L 308.897248 -54.417456 
L 309.409174 -54.515805 
L 309.921101 -54.669461 
L 310.433028 -54.939774 
L 310.944954 -55.293636 
L 311.456881 -55.990255 
L 311.968807 -58.532804 
L 312.480734 -62.86799 
L 312.992661 -60.064262 
L 313.504587 -58.141452 
L 314.016514 -58.042211 
L 314.52844 -59.067563 
L 315.040367 -61.5211 
L 315.552294 -67.221923 
L 316.06422 -77.235353 
L 316.576147 -99.535427 
L 317.088073 -197.404541 
L 317.6 -343.094085 
L 318.111927 -216.422162 
L 318.623853 -121.891427 
L 319.13578 -86.677432 
L 319.647706 -72.212579 
L 320.159633 -64.591836 
L 320.67156 -60.522527 
L 321.183486 -58.88357 
L 321.695413 -58.223225 
L 322.207339 -59.576907 
L 322.719266 -63.431664 
L 323.231193 -60.446611 
L 323.743119 -57.368273 
L 324.255046 -56.047726 
L 324.766972 -55.401225 
L 325.278899 -55.02037 
L 325.790826 -54.756811 
L 326.302752 -54.651693 
L 326.814679 -54.572973 
L 327.326606 -54.486724 
L 327.838532 -54.399962 
L 328.350459 -54.386574 
L 328.862385 -54.343847 
L 329.374312 -54.310695 
L 329.886239 -54.288504 
L 330.398165 -54.36794 
L 330.910092 -54.339585 
L 331.422018 -54.390143 
L 331.933945 -54.358135 
L 332.445872 -54.271853 
L 332.957798 -54.177234 
L 333.469725 -54.119486 
L 333.981651 -54.082479 
L 334.493578 -54.05112 
L 335.005505 -54.034046 
L 335.517431 -54.016699 
L 336.029358 -53.98686 
L 336.541284 -54.003323 
L 337.053211 -54.049945 
L 337.565138 -54.054542 
L 338.077064 -54.149811 
L 338.588991 -54.192115 
L 339.100917 -54.195416 
L 339.612844 -54.176759 
L 340.124771 -54.123005 
L 340.636697 -54.058193 
L 341.148624 -54.009123 
L 341.66055 -53.962621 
L 342.172477 -53.941555 
L 342.684404 -53.916089 
L 343.19633 -53.889842 
L 343.708257 -53.882591 
L 344.220183 -53.85413 
L 344.73211 -53.889759 
L 345.244037 -53.893528 
L 345.755963 -53.902511 
L 346.26789 -53.962639 
L 346.779817 -53.975952 
L 347.291743 -53.997774 
L 347.80367 -53.999267 
L 348.315596 -53.969691 
L 348.827523 -53.932146 
L 349.33945 -53.910822 
L 349.851376 -53.910271 
L 350.363303 -53.890862 
L 350.875229 -53.874813 
L 351.387156 -53.869607 
L 351.899083 -53.885129 
L 352.411009 -53.893324 
L 352.922936 -53.890115 
L 353.434862 -53.901096 
L 353.946789 -53.881125 
L 354.458716 -53.872179 
L 354.970642 -53.878892 
L 355.482569 -53.879565 
L 355.994495 -53.86733 
L 356.506422 -53.896184 
L 357.018349 -53.891006 
L 357.530275 -53.892941 
L 358.042202 -53.881913 
L 358.554128 -53.87327 
L 359.066055 -53.874094 
L 359.577982 -53.856419 
L 360.089908 -53.8651 
L 360.601835 -53.858036 
L 361.113761 -53.873515 
L 361.625688 -53.868442 
L 362.137615 -53.867044 
L 362.649541 -53.861201 
L 363.161468 -53.870264 
L 363.673394 -53.84516 
L 364.185321 -53.853464 
L 364.697248 -53.844879 
L 365.209174 -53.861203 
L 365.721101 -53.861106 
L 366.233028 -53.846867 
L 366.744954 -53.861544 
L 367.256881 -53.855308 
L 367.768807 -53.850226 
L 368.280734 -53.860124 
L 368.792661 -53.852903 
L 369.304587 -53.859031 
L 369.816514 -53.857666 
L 370.32844 -53.865695 
L 370.840367 -53.846982 
L 371.352294 -53.833104 
L 371.86422 -53.866278 
L 372.376147 -53.847923 
L 372.888073 -53.840929 
L 373.4 -53.858863 
L 373.911927 -53.861661 
L 374.423853 -53.852261 
L 374.93578 -53.839689 
L 375.447706 -53.859877 
L 375.959633 -53.840411 
L 376.47156 -53.855451 
L 376.983486 -53.851779 
L 377.495413 -53.858966 
L 378.007339 -53.859738 
L 378.519266 -53.845618 
L 379.031193 -53.867086 
L 379.543119 -53.864747 
L 380.055046 -53.861716 
L 380.566972 -53.882143 
L 381.078899 -53.871837 
L 381.590826 -53.855043 
L 382.102752 -53.85134 
L 382.614679 -53.850822 
L 383.126606 -53.850896 
L 383.638532 -53.85413 
L 384.150459 -53.869507 
L 384.662385 -53.86933 
L 385.174312 -53.846996 
L 385.686239 -53.866638 
L 386.198165 -53.841013 
L 386.710092 -53.871101 
L 387.222018 -53.880375 
L 387.733945 -53.867388 
L 388.245872 -53.883574 
L 388.757798 -53.88254 
L 389.269725 -53.896008 
L 389.781651 -53.881458 
L 390.293578 -53.899909 
L 390.805505 -53.871642 
L 391.317431 -53.875207 
L 391.829358 -53.874445 
L 392.341284 -53.847013 
L 392.853211 -53.868619 
L 393.365138 -53.872433 
L 393.877064 -53.875487 
L 394.388991 -53.864342 
L 394.900917 -53.869007 
L 395.412844 -53.876358 
L 395.924771 -53.865046 
L 396.436697 -53.872248 
L 396.948624 -53.869176 
L 397.46055 -53.876649 
L 397.972477 -53.886143 
L 398.484404 -53.878896 
L 398.99633 -53.86121 
L 399.508257 -53.871748 
L 400.020183 -53.849326 
L 400.53211 -53.846246 
L 401.044037 -53.845837 
L 401.555963 -53.850686 
L 402.06789 -53.853549 
L 402.579817 -53.840817 
L 403.091743 -53.827452 
L 403.60367 -53.845709 
L 404.115596 -53.85062 
L 404.627523 -53.871193 
L 405.13945 -53.887886 
L 405.651376 -53.884401 
L 406.163303 -53.899778 
L 406.675229 -53.870777 
L 407.187156 -53.877539 
L 407.699083 -53.881075 
L 408.211009 -53.871532 
L 408.722936 -53.918255 
L 409.234862 -53.953752 
L 409.746789 -54.132635 
L 410.258716 -54.574555 
L 410.770642 -55.058645 
L 411.282569 -54.910415 
L 411.794495 -54.440104 
L 412.306422 -54.135785 
L 412.818349 -54.004822 
L 413.330275 -53.937512 
L 413.842202 -53.896959 
L 414.354128 -53.877149 
L 414.866055 -53.864803 
L 415.377982 -53.875683 
L 415.889908 -53.900188 
L 416.401835 -53.866842 
L 416.913761 -53.873729 
L 417.425688 -53.836559 
L 417.937615 -53.850191 
L 418.449541 -53.848252 
L 418.961468 -53.854374 
L 419.473394 -53.841562 
L 419.985321 -53.841276 
L 420.497248 -53.859932 
L 421.009174 -53.855339 
L 421.521101 -53.847072 
L 422.033028 -53.831192 
L 422.544954 -53.826775 
L 423.056881 -53.844995 
L 423.568807 -53.829125 
L 424.080734 -53.844156 
L 424.592661 -53.840466 
L 425.104587 -53.842625 
L 425.616514 -53.850933 
L 426.12844 -53.828927 
L 426.640367 -53.827659 
L 427.152294 -53.836998 
L 427.66422 -53.839423 
L 428.176147 -53.841002 
L 428.688073 -53.830142 
L 429.2 -53.828925 
L 429.711927 -53.834154 
L 430.223853 -53.846524 
L 430.73578 -53.852119 
L 431.247706 -53.832 
L 431.759633 -53.833286 
L 432.27156 -53.832143 
L 432.783486 -53.833889 
L 433.295413 -53.820041 
L 433.807339 -53.84 
L 434.319266 -53.843553 
L 434.831193 -53.846374 
L 435.343119 -53.839619 
L 435.855046 -53.841618 
L 436.366972 -53.849566 
L 436.878899 -53.842092 
L 437.390826 -53.839196 
L 437.902752 -53.845742 
L 438.414679 -53.86678 
L 438.926606 -53.873661 
L 439.438532 -53.870474 
L 439.950459 -53.832654 
L 440.462385 -53.823079 
L 440.974312 -53.822549 
L 441.486239 -53.844095 
L 441.998165 -53.835793 
L 442.510092 -53.830098 
L 443.022018 -53.852047 
L 443.533945 -53.845593 
L 444.045872 -53.840669 
L 444.557798 -53.856192 
L 445.069725 -53.856907 
L 445.581651 -53.875815 
L 446.093578 -53.853442 
L 446.605505 -53.84992 
L 447.117431 -53.837858 
L 447.629358 -53.85082 
L 448.141284 -53.858016 
L 448.653211 -53.862211 
L 449.165138 -53.832826 
L 449.677064 -53.841694 
L 450.188991 -53.831801 
L 450.700917 -53.841516 
L 451.212844 -53.843213 
L 451.724771 -53.833973 
L 452.236697 -53.815126 
L 452.748624 -53.836078 
L 453.26055 -53.839951 
L 453.772477 -53.830082 
L 454.284404 -53.862521 
L 454.79633 -53.85312 
L 455.308257 -53.833301 
L 455.820183 -53.861986 
L 456.33211 -53.855578 
L 456.844037 -53.85419 
L 457.355963 -53.833035 
L 457.86789 -53.833956 
L 458.379817 -53.835953 
L 458.891743 -53.833319 
L 459.40367 -53.8244 
L 459.915596 -53.815552 
L 460.427523 -53.82858 
L 460.93945 -53.818579 
L 461.451376 -53.816641 
L 461.963303 -53.841423 
L 462.475229 -53.840892 
L 462.987156 -53.847539 
L 463.499083 -53.836967 
L 464.011009 -53.853533 
L 464.522936 -53.841471 
L 465.034862 -53.846858 
L 465.546789 -53.832763 
L 466.058716 -53.824317 
L 466.570642 -53.829625 
L 467.082569 -53.820543 
L 467.594495 -53.822483 
L 468.106422 -53.822131 
L 468.618349 -53.831863 
L 469.130275 -53.82886 
L 469.642202 -53.843214 
L 470.154128 -53.84076 
L 470.666055 -53.833662 
L 471.177982 -53.834076 
L 471.689908 -53.831587 
L 472.201835 -53.846295 
L 472.713761 -53.835949 
L 473.225688 -53.811945 
L 473.737615 -53.82204 
L 474.249541 -53.820401 
L 474.761468 -53.823412 
L 475.273394 -53.817505 
L 475.785321 -53.812898 
L 476.297248 -53.834465 
L 476.809174 -53.822047 
L 477.321101 -53.811979 
L 477.833028 -53.815334 
L 478.344954 -53.833675 
L 478.856881 -53.828398 
L 479.368807 -53.827105 
L 479.880734 -53.80788 
L 480.392661 -53.823095 
L 480.904587 -53.825908 
L 481.416514 -53.826286 
L 481.92844 -53.804181 
L 482.440367 -53.80318 
L 482.952294 -53.82909 
L 483.46422 -53.82844 
L 483.976147 -53.797382 
L 484.488073 -53.815813 
L 485 -53.816157 
L 485.511927 -53.81646 
L 486.023853 -53.806497 
L 486.53578 -53.819941 
L 487.047706 -53.8296 
L 487.559633 -53.812383 
L 488.07156 -53.816708 
L 488.583486 -53.818486 
L 489.095413 -53.801772 
L 489.607339 -53.816961 
L 490.119266 -53.795548 
L 490.631193 -53.813857 
L 491.143119 -53.822538 
L 491.655046 -53.812297 
L 492.166972 -53.819453 
L 492.678899 -53.829528 
L 493.190826 -53.831477 
L 493.702752 -53.830139 
L 494.214679 -53.818287 
L 494.726606 -53.811395 
L 495.238532 -53.816124 
L 495.750459 -53.83247 
L 496.262385 -53.822522 
L 496.774312 -53.82913 
L 497.286239 -53.824733 
L 497.798165 -53.812712 
L 498.310092 -53.829329 
L 498.822018 -53.813487 
L 499.333945 -53.817372 
L 499.845872 -53.81915 
L 500.357798 -53.816092 
L 500.869725 -53.821605 
L 501.381651 -53.81255 
L 501.893578 -53.819561 
L 502.405505 -53.820131 
L 502.917431 -53.806647 
L 503.429358 -53.827102 
L 503.941284 -53.816622 
L 504.453211 -53.815278 
L 504.965138 -53.830107 
L 505.477064 -53.826157 
L 505.988991 -53.816988 
L 506.500917 -53.83107 
L 507.012844 -53.819596 
L 507.524771 -53.821103 
L 508.036697 -53.820318 
L 508.548624 -53.815878 
L 509.06055 -53.804583 
L 509.572477 -53.80859 
L 510.084404 -53.818782 
L 510.59633 -53.810382 
L 511.108257 -53.822339 
L 511.620183 -53.814659 
L 512.13211 -53.816126 
L 512.644037 -53.815724 
L 513.155963 -53.808338 
L 513.66789 -53.824232 
L 514.179817 -53.801414 
L 514.691743 -53.823789 
L 515.20367 -53.82305 
L 515.715596 -53.81337 
L 516.227523 -53.821335 
L 516.73945 -53.815334 
L 517.251376 -53.819143 
L 517.763303 -53.817334 
L 518.275229 -53.826803 
L 518.787156 -53.829148 
L 519.299083 -53.833304 
L 519.811009 -53.828103 
L 520.322936 -53.817663 
L 520.834862 -53.824897 
L 521.346789 -53.812386 
L 521.858716 -53.820182 
L 522.370642 -53.812028 
L 522.882569 -53.812204 
L 523.394495 -53.819476 
L 523.906422 -53.822048 
L 524.418349 -53.813673 
L 524.930275 -53.822262 
L 525.442202 -53.83489 
L 525.954128 -53.792381 
L 526.466055 -53.816676 
L 526.977982 -53.822118 
L 527.489908 -53.815396 
L 528.001835 -53.811502 
L 528.513761 -53.817541 
L 529.025688 -53.828862 
L 529.537615 -53.811237 
L 530.049541 -53.8262 
L 530.561468 -53.833464 
L 531.073394 -53.817432 
L 531.585321 -53.812983 
L 532.097248 -53.832784 
L 532.609174 -53.813603 
L 533.121101 -53.817017 
L 533.633028 -53.827925 
L 534.144954 -53.819839 
L 534.656881 -53.800134 
L 535.168807 -53.817084 
L 535.680734 -53.807208 
L 536.192661 -53.821371 
L 536.704587 -53.814012 
L 537.216514 -53.809623 
L 537.72844 -53.812533 
L 538.240367 -53.830094 
L 538.752294 -53.81494 
L 539.26422 -53.825583 
L 539.776147 -53.821355 
L 540.288073 -53.806036 
L 540.8 -53.806269 
L 541.311927 -53.820561 
L 541.823853 -53.810533 
L 542.33578 -53.812332 
L 542.847706 -53.801967 
L 543.359633 -53.814355 
L 543.87156 -53.82922 
L 544.383486 -53.820213 
L 544.895413 -53.810511 
L 545.407339 -53.829522 
L 545.919266 -53.801956 
L 546.431193 -53.807866 
L 546.943119 -53.823761 
L 547.455046 -53.84979 
L 547.966972 -53.829357 
L 548.478899 -53.818752 
L 548.990826 -53.814587 
L 549.502752 -53.811545 
L 550.014679 -53.80487 
L 550.526606 -53.821034 
L 551.038532 -53.815279 
L 551.550459 -53.80472 
L 552.062385 -53.821446 
L 552.574312 -53.813201 
L 553.086239 -53.822679 
L 553.598165 -53.829657 
L 554.110092 -53.818254 
L 554.622018 -53.823113 
L 555.133945 -53.823794 
L 555.645872 -53.820863 
L 556.157798 -53.826281 
L 556.669725 -53.817545 
L 557.181651 -53.802649 
L 557.693578 -53.819975 
L 558.205505 -53.825316 
L 558.717431 -53.816848 
L 559.229358 -53.813645 
L 559.741284 -53.824918 
L 560.253211 -53.819056 
L 560.765138 -53.814062 
L 561.277064 -53.814983 
L 561.788991 -53.821914 
L 562.300917 -53.801463 
L 562.812844 -53.819343 
L 563.324771 -53.809854 
L 563.836697 -53.815983 
L 564.348624 -53.817756 
L 564.86055 -53.814808 
L 565.372477 -53.825933 
L 565.884404 -53.828151 
L 566.39633 -53.814756 
L 566.908257 -53.809949 
L 567.420183 -53.824039 
L 567.93211 -53.798908 
L 568.444037 -53.80527 
L 568.955963 -53.803526 
L 569.46789 -53.804245 
L 569.979817 -53.807087 
L 570.491743 -53.816175 
L 571.00367 -53.821686 
L 571.515596 -53.833151 
L 572.027523 -53.811289 
L 572.53945 -53.821964 
L 573.051376 -53.814069 
L 573.563303 -53.811779 
L 574.075229 -53.827145 
L 574.587156 -53.845967 
L 575.099083 -53.818955 
L 575.611009 -53.815468 
L 576.122936 -53.823136 
L 576.634862 -53.808834 
L 577.146789 -53.81624 
L 577.658716 -53.821897 
L 578.170642 -53.824561 
L 578.682569 -53.813034 
L 579.194495 -53.815143 
L 579.706422 -53.813389 
L 580.218349 -53.831799 
L 580.730275 -53.833837 
L 581.242202 -53.835168 
L 581.754128 -53.811534 
L 582.266055 -53.824274 
L 582.777982 -53.829767 
L 583.289908 -53.810053 
L 583.801835 -53.806213 
L 584.313761 -53.827724 
L 584.825688 -53.823573 
L 585.337615 -53.834717 
L 585.849541 -53.809904 
L 586.361468 -53.800029 
L 586.873394 -53.826858 
L 587.385321 -53.815992 
L 587.897248 -53.812508 
L 588.409174 -53.818023 
L 588.921101 -53.823221 
L 589.433028 -53.807435 
L 589.944954 -53.817599 
L 590.456881 -53.810715 
L 590.968807 -53.822452 
L 591.480734 -53.822394 
L 591.992661 -53.815661 
L 592.504587 -53.817599 
L 593.016514 -53.818553 
L 593.52844 -53.818436 
L 594.040367 -53.818018 
L 594.552294 -53.824503 
L 595.06422 -53.829974 
L 595.576147 -53.827206 
L 596.088073 -53.805324 
L 596.6 -53.819195 
L 596.6 -53.986016 
L 596.6 -53.986016 
L 596.088073 -53.969588 
L 595.576147 -53.950655 
L 595.06422 -53.95215 
L 594.552294 -53.967309 
L 594.040367 -53.972788 
L 593.52844 -53.971958 
L 593.016514 -53.943726 
L 592.504587 -53.954317 
L 591.992661 -53.963359 
L 591.480734 -53.964618 
L 590.968807 -53.959838 
L 590.456881 -53.954552 
L 589.944954 -53.950704 
L 589.433028 -53.968762 
L 588.921101 -53.962807 
L 588.409174 -53.975579 
L 587.897248 -53.963776 
L 587.385321 -53.96773 
L 586.873394 -53.972887 
L 586.361468 -53.964928 
L 585.849541 -53.975225 
L 585.337615 -53.977952 
L 584.825688 -53.973142 
L 584.313761 -53.974523 
L 583.801835 -53.951057 
L 583.289908 -53.951085 
L 582.777982 -53.980726 
L 582.266055 -53.965015 
L 581.754128 -53.965771 
L 581.242202 -53.979811 
L 580.730275 -53.975511 
L 580.218349 -53.971969 
L 579.706422 -53.953665 
L 579.194495 -53.982983 
L 578.682569 -53.950763 
L 578.170642 -53.969649 
L 577.658716 -53.953584 
L 577.146789 -53.956762 
L 576.634862 -53.970571 
L 576.122936 -53.960896 
L 575.611009 -53.948791 
L 575.099083 -53.966193 
L 574.587156 -53.975447 
L 574.075229 -53.9621 
L 573.563303 -53.972764 
L 573.051376 -53.963066 
L 572.53945 -53.951152 
L 572.027523 -53.946692 
L 571.515596 -53.950922 
L 571.00367 -53.952057 
L 570.491743 -53.959609 
L 569.979817 -53.958546 
L 569.46789 -53.967688 
L 568.955963 -53.959053 
L 568.444037 -53.963453 
L 567.93211 -53.982454 
L 567.420183 -53.971862 
L 566.908257 -53.972467 
L 566.39633 -53.955393 
L 565.884404 -53.949574 
L 565.372477 -53.977809 
L 564.86055 -53.952176 
L 564.348624 -53.965433 
L 563.836697 -53.951375 
L 563.324771 -53.962731 
L 562.812844 -53.945243 
L 562.300917 -53.961032 
L 561.788991 -53.985099 
L 561.277064 -53.977834 
L 560.765138 -53.985721 
L 560.253211 -53.984899 
L 559.741284 -53.988859 
L 559.229358 -53.963386 
L 558.717431 -53.957699 
L 558.205505 -53.961028 
L 557.693578 -53.973367 
L 557.181651 -53.972135 
L 556.669725 -53.964183 
L 556.157798 -53.946543 
L 555.645872 -53.958068 
L 555.133945 -53.957802 
L 554.622018 -53.957713 
L 554.110092 -53.968677 
L 553.598165 -53.974019 
L 553.086239 -53.973103 
L 552.574312 -53.957926 
L 552.062385 -53.94277 
L 551.550459 -53.98068 
L 551.038532 -53.968447 
L 550.526606 -53.961173 
L 550.014679 -53.95172 
L 549.502752 -53.962054 
L 548.990826 -53.961728 
L 548.478899 -53.975938 
L 547.966972 -53.969691 
L 547.455046 -53.964217 
L 546.943119 -53.966817 
L 546.431193 -53.968929 
L 545.919266 -53.96036 
L 545.407339 -53.978768 
L 544.895413 -53.965654 
L 544.383486 -53.952179 
L 543.87156 -53.955916 
L 543.359633 -53.949959 
L 542.847706 -53.98028 
L 542.33578 -53.969186 
L 541.823853 -53.985478 
L 541.311927 -53.973588 
L 540.8 -53.962966 
L 540.288073 -53.969677 
L 539.776147 -53.966759 
L 539.26422 -53.963682 
L 538.752294 -53.97332 
L 538.240367 -53.963788 
L 537.72844 -53.958405 
L 537.216514 -53.963772 
L 536.704587 -53.964666 
L 536.192661 -53.968526 
L 535.680734 -53.979919 
L 535.168807 -53.986655 
L 534.656881 -53.973181 
L 534.144954 -53.966578 
L 533.633028 -53.962719 
L 533.121101 -53.946951 
L 532.609174 -53.967615 
L 532.097248 -53.962631 
L 531.585321 -53.958571 
L 531.073394 -53.959391 
L 530.561468 -53.977433 
L 530.049541 -53.979273 
L 529.537615 -53.97925 
L 529.025688 -53.97651 
L 528.513761 -53.967095 
L 528.001835 -53.964041 
L 527.489908 -53.963951 
L 526.977982 -53.958988 
L 526.466055 -53.960921 
L 525.954128 -53.970063 
L 525.442202 -53.970763 
L 524.930275 -53.971967 
L 524.418349 -53.988081 
L 523.906422 -53.967641 
L 523.394495 -53.95716 
L 522.882569 -53.946194 
L 522.370642 -53.959402 
L 521.858716 -53.961995 
L 521.346789 -53.965488 
L 520.834862 -53.978359 
L 520.322936 -53.973664 
L 519.811009 -53.964663 
L 519.299083 -53.977297 
L 518.787156 -53.950538 
L 518.275229 -53.978895 
L 517.763303 -53.960941 
L 517.251376 -53.957899 
L 516.73945 -53.981093 
L 516.227523 -53.969366 
L 515.715596 -53.9898 
L 515.20367 -53.962708 
L 514.691743 -53.974831 
L 514.179817 -53.97154 
L 513.66789 -53.961547 
L 513.155963 -53.957428 
L 512.644037 -53.958646 
L 512.13211 -53.958131 
L 511.620183 -53.971474 
L 511.108257 -53.952772 
L 510.59633 -53.963188 
L 510.084404 -53.977925 
L 509.572477 -53.964009 
L 509.06055 -53.959096 
L 508.548624 -53.961839 
L 508.036697 -53.952202 
L 507.524771 -53.959726 
L 507.012844 -53.977606 
L 506.500917 -53.984297 
L 505.988991 -53.97511 
L 505.477064 -53.968939 
L 504.965138 -53.961229 
L 504.453211 -53.961924 
L 503.941284 -53.967537 
L 503.429358 -53.96237 
L 502.917431 -53.970119 
L 502.405505 -53.942923 
L 501.893578 -53.943866 
L 501.381651 -53.972307 
L 500.869725 -53.95866 
L 500.357798 -53.951318 
L 499.845872 -53.965535 
L 499.333945 -53.982676 
L 498.822018 -53.991744 
L 498.310092 -53.979302 
L 497.798165 -53.96863 
L 497.286239 -53.959133 
L 496.774312 -53.961401 
L 496.262385 -53.981974 
L 495.750459 -53.981357 
L 495.238532 -53.971076 
L 494.726606 -53.972052 
L 494.214679 -53.967529 
L 493.702752 -53.971439 
L 493.190826 -53.973521 
L 492.678899 -53.957819 
L 492.166972 -53.958175 
L 491.655046 -53.961892 
L 491.143119 -53.961597 
L 490.631193 -53.960361 
L 490.119266 -53.989257 
L 489.607339 -53.990016 
L 489.095413 -53.957942 
L 488.583486 -53.949313 
L 488.07156 -53.953079 
L 487.559633 -53.974097 
L 487.047706 -53.95747 
L 486.53578 -53.952235 
L 486.023853 -53.972393 
L 485.511927 -53.963552 
L 485 -53.971135 
L 484.488073 -53.965443 
L 483.976147 -53.950979 
L 483.46422 -53.95268 
L 482.952294 -53.989294 
L 482.440367 -53.966156 
L 481.92844 -53.959438 
L 481.416514 -53.940778 
L 480.904587 -53.945764 
L 480.392661 -53.944425 
L 479.880734 -53.966654 
L 479.368807 -53.963724 
L 478.856881 -53.964441 
L 478.344954 -53.951167 
L 477.833028 -53.958677 
L 477.321101 -53.944611 
L 476.809174 -53.978285 
L 476.297248 -53.949291 
L 475.785321 -53.97293 
L 475.273394 -53.972189 
L 474.761468 -53.968835 
L 474.249541 -53.974532 
L 473.737615 -53.951695 
L 473.225688 -53.968922 
L 472.713761 -53.970017 
L 472.201835 -53.966195 
L 471.689908 -53.969307 
L 471.177982 -53.977197 
L 470.666055 -53.971404 
L 470.154128 -53.970174 
L 469.642202 -53.962091 
L 469.130275 -53.971574 
L 468.618349 -53.974661 
L 468.106422 -53.988872 
L 467.594495 -53.977109 
L 467.082569 -53.98227 
L 466.570642 -53.97338 
L 466.058716 -53.973815 
L 465.546789 -53.997953 
L 465.034862 -53.981171 
L 464.522936 -53.986951 
L 464.011009 -53.99521 
L 463.499083 -53.991033 
L 462.987156 -53.999581 
L 462.475229 -53.989739 
L 461.963303 -53.982378 
L 461.451376 -53.982598 
L 460.93945 -53.987746 
L 460.427523 -53.972512 
L 459.915596 -53.976028 
L 459.40367 -53.974601 
L 458.891743 -53.972279 
L 458.379817 -53.982366 
L 457.86789 -54.004976 
L 457.355963 -53.989237 
L 456.844037 -54.006603 
L 456.33211 -54.003267 
L 455.820183 -54.017089 
L 455.308257 -54.005051 
L 454.79633 -53.998112 
L 454.284404 -54.014468 
L 453.772477 -54.006941 
L 453.26055 -54.008108 
L 452.748624 -53.989975 
L 452.236697 -53.981356 
L 451.724771 -53.963376 
L 451.212844 -53.994168 
L 450.700917 -53.97272 
L 450.188991 -53.979423 
L 449.677064 -53.986955 
L 449.165138 -53.995198 
L 448.653211 -53.994246 
L 448.141284 -54.015184 
L 447.629358 -54.020734 
L 447.117431 -54.00089 
L 446.605505 -53.999278 
L 446.093578 -54.005052 
L 445.581651 -54.023525 
L 445.069725 -54.005445 
L 444.557798 -54.006982 
L 444.045872 -53.986686 
L 443.533945 -53.977193 
L 443.022018 -54.000548 
L 442.510092 -53.986427 
L 441.998165 -53.972721 
L 441.486239 -53.993457 
L 440.974312 -53.986226 
L 440.462385 -54.001663 
L 439.950459 -54.001744 
L 439.438532 -54.003959 
L 438.926606 -53.999632 
L 438.414679 -54.015919 
L 437.902752 -53.988951 
L 437.390826 -53.995606 
L 436.878899 -53.995181 
L 436.366972 -53.995361 
L 435.855046 -53.975926 
L 435.343119 -53.975653 
L 434.831193 -53.975727 
L 434.319266 -53.985175 
L 433.807339 -53.981345 
L 433.295413 -53.989125 
L 432.783486 -53.963999 
L 432.27156 -53.98483 
L 431.759633 -53.991682 
L 431.247706 -54.003049 
L 430.73578 -53.997525 
L 430.223853 -53.99812 
L 429.711927 -53.999871 
L 429.2 -53.992614 
L 428.688073 -53.992746 
L 428.176147 -53.980162 
L 427.66422 -53.967485 
L 427.152294 -53.969938 
L 426.640367 -53.98889 
L 426.12844 -54.00102 
L 425.616514 -53.995647 
L 425.104587 -53.987692 
L 424.592661 -53.980481 
L 424.080734 -53.96519 
L 423.568807 -53.967719 
L 423.056881 -53.975677 
L 422.544954 -53.971853 
L 422.033028 -53.990074 
L 421.521101 -53.988669 
L 421.009174 -53.99206 
L 420.497248 -53.993057 
L 419.985321 -54.011969 
L 419.473394 -53.973646 
L 418.961468 -53.994011 
L 418.449541 -53.988142 
L 417.937615 -53.997223 
L 417.425688 -54.029604 
L 416.913761 -53.998831 
L 416.401835 -54.010581 
L 415.889908 -54.033611 
L 415.377982 -54.02661 
L 414.866055 -54.010432 
L 414.354128 -54.028182 
L 413.842202 -54.049109 
L 413.330275 -54.098589 
L 412.818349 -54.156586 
L 412.306422 -54.291134 
L 411.794495 -54.625326 
L 411.282569 -55.137917 
L 410.770642 -55.296336 
L 410.258716 -54.806198 
L 409.746789 -54.315275 
L 409.234862 -54.142916 
L 408.722936 -54.084338 
L 408.211009 -54.039939 
L 407.699083 -54.019726 
L 407.187156 -54.022326 
L 406.675229 -54.047253 
L 406.163303 -54.054996 
L 405.651376 -54.039306 
L 405.13945 -54.034101 
L 404.627523 -54.017712 
L 404.115596 -54.013432 
L 403.60367 -54.007894 
L 403.091743 -54.014189 
L 402.579817 -54.017551 
L 402.06789 -54.016997 
L 401.555963 -54.003862 
L 401.044037 -54.006427 
L 400.53211 -54.013047 
L 400.020183 -53.996994 
L 399.508257 -54.024241 
L 398.99633 -54.012313 
L 398.484404 -54.010286 
L 397.972477 -54.034179 
L 397.46055 -54.030867 
L 396.948624 -54.035506 
L 396.436697 -54.041777 
L 395.924771 -54.027251 
L 395.412844 -54.042622 
L 394.900917 -54.015478 
L 394.388991 -54.020634 
L 393.877064 -54.018333 
L 393.365138 -54.002235 
L 392.853211 -54.015937 
L 392.341284 -54.012706 
L 391.829358 -54.008004 
L 391.317431 -54.014656 
L 390.805505 -54.035647 
L 390.293578 -54.039415 
L 389.781651 -54.043787 
L 389.269725 -54.027823 
L 388.757798 -54.066152 
L 388.245872 -54.042726 
L 387.733945 -54.029964 
L 387.222018 -54.035565 
L 386.710092 -54.020061 
L 386.198165 -54.017355 
L 385.686239 -54.005327 
L 385.174312 -54.0173 
L 384.662385 -54.006655 
L 384.150459 -54.001718 
L 383.638532 -54.023195 
L 383.126606 -54.019291 
L 382.614679 -54.008569 
L 382.102752 -54.003391 
L 381.590826 -54.00946 
L 381.078899 -54.017857 
L 380.566972 -54.005132 
L 380.055046 -54.011976 
L 379.543119 -54.017131 
L 379.031193 -54.028008 
L 378.519266 -54.019432 
L 378.007339 -54.008945 
L 377.495413 -54.021926 
L 376.983486 -54.004868 
L 376.47156 -53.987594 
L 375.959633 -53.990163 
L 375.447706 -54.00066 
L 374.93578 -53.998381 
L 374.423853 -54.005531 
L 373.911927 -54.005516 
L 373.4 -53.999798 
L 372.888073 -54.015172 
L 372.376147 -54.002648 
L 371.86422 -53.984803 
L 371.352294 -53.996745 
L 370.840367 -54.009801 
L 370.32844 -54.002953 
L 369.816514 -54.014509 
L 369.304587 -53.989424 
L 368.792661 -54.025207 
L 368.280734 -54.021052 
L 367.768807 -54.037037 
L 367.256881 -54.014183 
L 366.744954 -54.029521 
L 366.233028 -54.028654 
L 365.721101 -54.006965 
L 365.209174 -54.006027 
L 364.697248 -54.03468 
L 364.185321 -54.032439 
L 363.673394 -54.055605 
L 363.161468 -54.058506 
L 362.649541 -54.018668 
L 362.137615 -54.012195 
L 361.625688 -54.014322 
L 361.113761 -54.025323 
L 360.601835 -54.017385 
L 360.089908 -54.019253 
L 359.577982 -54.032091 
L 359.066055 -54.022344 
L 358.554128 -54.03255 
L 358.042202 -54.038495 
L 357.530275 -54.037033 
L 357.018349 -54.04527 
L 356.506422 -54.04987 
L 355.994495 -54.048936 
L 355.482569 -54.04322 
L 354.970642 -54.046249 
L 354.458716 -54.037738 
L 353.946789 -54.039487 
L 353.434862 -54.037583 
L 352.922936 -54.035712 
L 352.411009 -54.034178 
L 351.899083 -54.033592 
L 351.387156 -54.03022 
L 350.875229 -54.033802 
L 350.363303 -54.056883 
L 349.851376 -54.056226 
L 349.33945 -54.059014 
L 348.827523 -54.112101 
L 348.315596 -54.130942 
L 347.80367 -54.162136 
L 347.291743 -54.17246 
L 346.779817 -54.139372 
L 346.26789 -54.125463 
L 345.755963 -54.107638 
L 345.244037 -54.132803 
L 344.73211 -54.119248 
L 344.220183 -54.157554 
L 343.708257 -54.179347 
L 343.19633 -54.145239 
L 342.684404 -54.151768 
L 342.172477 -54.180414 
L 341.66055 -54.201054 
L 341.148624 -54.217476 
L 340.636697 -54.283767 
L 340.124771 -54.359366 
L 339.612844 -54.406709 
L 339.100917 -54.458907 
L 338.588991 -54.459788 
L 338.077064 -54.3962 
L 337.565138 -54.326425 
L 337.053211 -54.273555 
L 336.541284 -54.237179 
L 336.029358 -54.237508 
L 335.517431 -54.259633 
L 335.005505 -54.283303 
L 334.493578 -54.297032 
L 333.981651 -54.311354 
L 333.469725 -54.398523 
L 332.957798 -54.443001 
L 332.445872 -54.558323 
L 331.933945 -54.584699 
L 331.422018 -54.644064 
L 330.910092 -54.654049 
L 330.398165 -54.63834 
L 329.886239 -54.628856 
L 329.374312 -54.640085 
L 328.862385 -54.638749 
L 328.350459 -54.72191 
L 327.838532 -54.758457 
L 327.326606 -54.836904 
L 326.814679 -54.976581 
L 326.302752 -55.083015 
L 325.790826 -55.286897 
L 325.278899 -55.592204 
L 324.766972 -56.081745 
L 324.255046 -56.752006 
L 323.743119 -58.414513 
L 323.231193 -62.021132 
L 322.719266 -65.041611 
L 322.207339 -61.165408 
L 321.695413 -60.047158 
L 321.183486 -61.025643 
L 320.67156 -63.53432 
L 320.159633 -68.86216 
L 319.647706 -78.149668 
L 319.13578 -94.680534 
L 318.623853 -138.089069 
L 318.111927 -256.241002 
L 317.6 -399.714261 
L 317.088073 -257.179473 
L 316.576147 -121.039612 
L 316.06422 -85.994855 
L 315.552294 -72.55002 
L 315.040367 -66.076538 
L 314.52844 -61.445179 
L 314.016514 -59.603717 
L 313.504587 -59.48874 
L 312.992661 -61.502533 
L 312.480734 -64.312743 
L 311.968807 -60.344666 
L 311.456881 -57.082969 
L 310.944954 -56.031714 
L 310.433028 -55.575364 
L 309.921101 -55.198329 
L 309.409174 -54.946778 
L 308.897248 -54.772786 
L 308.385321 -54.630092 
L 307.873394 -54.592462 
L 307.361468 -54.533981 
L 306.849541 -54.504583 
L 306.337615 -54.432404 
L 305.825688 -54.40758 
L 305.313761 -54.37538 
L 304.801835 -54.337213 
L 304.289908 -54.273161 
L 303.777982 -54.248935 
L 303.266055 -54.241686 
L 302.754128 -54.200204 
L 302.242202 -54.203962 
L 301.730275 -54.212755 
L 301.218349 -54.195091 
L 300.706422 -54.168507 
L 300.194495 -54.191298 
L 299.682569 -54.201034 
L 299.170642 -54.158108 
L 298.658716 -54.113741 
L 298.146789 -54.107005 
L 297.634862 -54.109553 
L 297.122936 -54.111595 
L 296.611009 -54.112563 
L 296.099083 -54.103817 
L 295.587156 -54.106251 
L 295.075229 -54.104069 
L 294.563303 -54.067291 
L 294.051376 -54.068398 
L 293.53945 -54.068622 
L 293.027523 -54.075558 
L 292.515596 -54.092926 
L 292.00367 -54.146073 
L 291.491743 -54.193022 
L 290.979817 -54.19608 
L 290.46789 -54.109789 
L 289.955963 -54.063259 
L 289.444037 -54.068754 
L 288.93211 -54.028871 
L 288.420183 -54.015247 
L 287.908257 -54.010045 
L 287.39633 -54.031781 
L 286.884404 -54.030057 
L 286.372477 -54.02078 
L 285.86055 -54.031547 
L 285.348624 -54.022285 
L 284.836697 -54.021521 
L 284.324771 -54.011302 
L 283.812844 -54.001478 
L 283.300917 -54.008553 
L 282.788991 -54.023564 
L 282.277064 -53.989673 
L 281.765138 -54.007385 
L 281.253211 -54.002538 
L 280.741284 -54.017956 
L 280.229358 -54.024571 
L 279.717431 -53.999336 
L 279.205505 -53.996754 
L 278.693578 -53.9964 
L 278.181651 -53.999982 
L 277.669725 -54.012203 
L 277.157798 -54.026574 
L 276.645872 -54.000005 
L 276.133945 -54.002682 
L 275.622018 -53.990831 
L 275.110092 -53.985686 
L 274.598165 -53.993044 
L 274.086239 -53.996454 
L 273.574312 -53.990394 
L 273.062385 -53.974469 
L 272.550459 -54.011668 
L 272.038532 -54.011443 
L 271.526606 -54.025971 
L 271.014679 -54.052028 
L 270.502752 -54.015349 
L 269.990826 -54.016526 
L 269.478899 -54.000784 
L 268.966972 -53.990837 
L 268.455046 -53.986283 
L 267.943119 -53.989746 
L 267.431193 -53.982987 
L 266.919266 -53.985332 
L 266.407339 -53.993239 
L 265.895413 -53.971088 
L 265.383486 -53.995372 
L 264.87156 -53.989739 
L 264.359633 -53.973787 
L 263.847706 -53.974944 
L 263.33578 -53.987354 
L 262.823853 -53.991961 
L 262.311927 -53.974709 
L 261.8 -53.986316 
L 261.288073 -53.996456 
L 260.776147 -54.011444 
L 260.26422 -54.003125 
L 259.752294 -53.996062 
L 259.240367 -53.995896 
L 258.72844 -53.986106 
L 258.216514 -53.97279 
L 257.704587 -53.962223 
L 257.192661 -53.973126 
L 256.680734 -53.985346 
L 256.168807 -53.969334 
L 255.656881 -53.982633 
L 255.144954 -53.981349 
L 254.633028 -53.98387 
L 254.121101 -53.981198 
L 253.609174 -53.990097 
L 253.097248 -53.977979 
L 252.585321 -53.999585 
L 252.073394 -53.977615 
L 251.561468 -53.979326 
L 251.049541 -53.995093 
L 250.537615 -53.978628 
L 250.025688 -53.991355 
L 249.513761 -53.986456 
L 249.001835 -54.003166 
L 248.489908 -53.979533 
L 247.977982 -53.972349 
L 247.466055 -53.964096 
L 246.954128 -53.966748 
L 246.442202 -53.974047 
L 245.930275 -53.97118 
L 245.418349 -53.975114 
L 244.906422 -53.964676 
L 244.394495 -53.966536 
L 243.882569 -53.978465 
L 243.370642 -53.989881 
L 242.858716 -53.965197 
L 242.346789 -53.954251 
L 241.834862 -53.961777 
L 241.322936 -53.977906 
L 240.811009 -53.962951 
L 240.299083 -53.970657 
L 239.787156 -53.966198 
L 239.275229 -53.977624 
L 238.763303 -53.983241 
L 238.251376 -53.975289 
L 237.73945 -53.966085 
L 237.227523 -53.961301 
L 236.715596 -53.971854 
L 236.20367 -53.975929 
L 235.691743 -53.958903 
L 235.179817 -53.96897 
L 234.66789 -53.975302 
L 234.155963 -53.984586 
L 233.644037 -53.98122 
L 233.13211 -53.991075 
L 232.620183 -54.016647 
L 232.108257 -54.008057 
L 231.59633 -53.994859 
L 231.084404 -53.985983 
L 230.572477 -54.010282 
L 230.06055 -54.035037 
L 229.548624 -54.07084 
L 229.036697 -54.143926 
L 228.524771 -54.346521 
L 228.012844 -54.763193 
L 227.500917 -55.26553 
L 226.988991 -55.209208 
L 226.477064 -54.648844 
L 225.965138 -54.231289 
L 225.453211 -54.093673 
L 224.941284 -54.03478 
L 224.429358 -54.019916 
L 223.917431 -54.016644 
L 223.405505 -54.009424 
L 222.893578 -54.011654 
L 222.381651 -54.027909 
L 221.869725 -54.014795 
L 221.357798 -53.990804 
L 220.845872 -53.980508 
L 220.333945 -53.9683 
L 219.822018 -53.984457 
L 219.310092 -53.982434 
L 218.798165 -53.97038 
L 218.286239 -53.959516 
L 217.774312 -53.980574 
L 217.262385 -53.980214 
L 216.750459 -53.969627 
L 216.238532 -53.976539 
L 215.726606 -53.968437 
L 215.214679 -53.975486 
L 214.702752 -54.001751 
L 214.190826 -53.988336 
L 213.678899 -54.000767 
L 213.166972 -53.976316 
L 212.655046 -53.984747 
L 212.143119 -53.978581 
L 211.631193 -53.970709 
L 211.119266 -53.972626 
L 210.607339 -53.965124 
L 210.095413 -53.97387 
L 209.583486 -53.982775 
L 209.07156 -53.999331 
L 208.559633 -53.980025 
L 208.047706 -53.968151 
L 207.53578 -53.969652 
L 207.023853 -53.963278 
L 206.511927 -53.96211 
L 206 -53.996761 
L 205.488073 -53.960306 
L 204.976147 -53.971852 
L 204.46422 -53.982822 
L 203.952294 -53.979568 
L 203.440367 -53.984572 
L 202.92844 -53.971418 
L 202.416514 -53.974107 
L 201.904587 -53.976576 
L 201.392661 -53.96875 
L 200.880734 -53.981176 
L 200.368807 -53.964716 
L 199.856881 -53.960195 
L 199.344954 -53.977571 
L 198.833028 -53.963954 
L 198.321101 -53.972421 
L 197.809174 -53.974696 
L 197.297248 -53.975049 
L 196.785321 -53.97839 
L 196.273394 -53.961175 
L 195.761468 -53.968121 
L 195.249541 -53.980315 
L 194.737615 -53.97558 
L 194.225688 -53.970573 
L 193.713761 -53.966185 
L 193.201835 -53.974708 
L 192.689908 -53.967704 
L 192.177982 -53.956646 
L 191.666055 -53.971435 
L 191.154128 -53.968269 
L 190.642202 -53.984207 
L 190.130275 -53.970278 
L 189.618349 -53.969611 
L 189.106422 -53.975283 
L 188.594495 -53.973245 
L 188.082569 -53.973188 
L 187.570642 -53.977621 
L 187.058716 -53.987869 
L 186.546789 -53.971225 
L 186.034862 -53.97329 
L 185.522936 -53.967268 
L 185.011009 -53.969975 
L 184.499083 -53.98209 
L 183.987156 -54.00351 
L 183.475229 -54.027462 
L 182.963303 -54.042622 
L 182.451376 -54.043006 
L 181.93945 -53.980071 
L 181.427523 -53.965423 
L 180.915596 -53.948361 
L 180.40367 -53.963698 
L 179.891743 -53.96067 
L 179.379817 -53.961654 
L 178.86789 -53.97102 
L 178.355963 -53.969827 
L 177.844037 -53.970267 
L 177.33211 -53.970431 
L 176.820183 -53.971382 
L 176.308257 -53.964745 
L 175.79633 -53.993013 
L 175.284404 -53.961643 
L 174.772477 -53.978724 
L 174.26055 -53.959915 
L 173.748624 -53.954861 
L 173.236697 -53.947646 
L 172.724771 -53.958178 
L 172.212844 -53.963959 
L 171.700917 -53.94845 
L 171.188991 -53.962437 
L 170.677064 -53.967996 
L 170.165138 -53.974695 
L 169.653211 -53.975196 
L 169.141284 -53.98638 
L 168.629358 -53.97748 
L 168.117431 -53.965027 
L 167.605505 -53.969395 
L 167.093578 -53.991673 
L 166.581651 -53.972639 
L 166.069725 -53.97299 
L 165.557798 -53.980027 
L 165.045872 -53.975475 
L 164.533945 -53.973889 
L 164.022018 -53.983877 
L 163.510092 -53.998544 
L 162.998165 -54.025953 
L 162.486239 -54.102119 
L 161.974312 -54.315175 
L 161.462385 -54.499484 
L 160.950459 -54.307573 
L 160.438532 -54.051728 
L 159.926606 -54.00158 
L 159.414679 -53.989489 
L 158.902752 -53.979054 
L 158.390826 -53.993953 
L 157.878899 -53.980702 
L 157.366972 -53.987782 
L 156.855046 -53.978714 
L 156.343119 -53.966976 
L 155.831193 -53.976945 
L 155.319266 -53.983932 
L 154.807339 -53.972752 
L 154.295413 -53.967277 
L 153.783486 -53.96943 
L 153.27156 -53.9725 
L 152.759633 -53.980816 
L 152.247706 -53.976958 
L 151.73578 -54.009196 
L 151.223853 -54.028186 
L 150.711927 -54.065979 
L 150.2 -54.020368 
L 149.688073 -53.975813 
L 149.176147 -53.984091 
L 148.66422 -54.001615 
L 148.152294 -53.970156 
L 147.640367 -53.987999 
L 147.12844 -53.973263 
L 146.616514 -53.982476 
L 146.104587 -53.976318 
L 145.592661 -53.989889 
L 145.080734 -53.980543 
L 144.568807 -53.98137 
L 144.056881 -53.964659 
L 143.544954 -53.98747 
L 143.033028 -53.975427 
L 142.521101 -53.982108 
L 142.009174 -53.966257 
L 141.497248 -53.962446 
L 140.985321 -53.973728 
L 140.473394 -53.972401 
L 139.961468 -53.9965 
L 139.449541 -53.99471 
L 138.937615 -53.994538 
L 138.425688 -53.965972 
L 137.913761 -53.962969 
L 137.401835 -53.978809 
L 136.889908 -53.982119 
L 136.377982 -53.989198 
L 135.866055 -53.975613 
L 135.354128 -53.972722 
L 134.842202 -53.959131 
L 134.330275 -53.967178 
L 133.818349 -53.961488 
L 133.306422 -53.973285 
L 132.794495 -53.975028 
L 132.282569 -53.966939 
L 131.770642 -53.959301 
L 131.258716 -53.962704 
L 130.746789 -53.983433 
L 130.234862 -53.961312 
L 129.722936 -53.962485 
L 129.211009 -53.952009 
L 128.699083 -53.976969 
L 128.187156 -53.980962 
L 127.675229 -53.976936 
L 127.163303 -53.988746 
L 126.651376 -53.953261 
L 126.13945 -53.957291 
L 125.627523 -53.975005 
L 125.115596 -53.970739 
L 124.60367 -53.967361 
L 124.091743 -53.952925 
L 123.579817 -53.976312 
L 123.06789 -53.980411 
L 122.555963 -53.96207 
L 122.044037 -53.968085 
L 121.53211 -53.954822 
L 121.020183 -53.974295 
L 120.508257 -53.96216 
L 119.99633 -53.960627 
L 119.484404 -53.958353 
L 118.972477 -53.968146 
L 118.46055 -53.971425 
L 117.948624 -53.974619 
L 117.436697 -53.961367 
L 116.924771 -53.958381 
L 116.412844 -53.969714 
L 115.900917 -53.984411 
L 115.388991 -53.968758 
L 114.877064 -53.970218 
L 114.365138 -53.978555 
L 113.853211 -53.973224 
L 113.341284 -53.963595 
L 112.829358 -53.977906 
L 112.317431 -53.983755 
L 111.805505 -53.991335 
L 111.293578 -53.966719 
L 110.781651 -53.96726 
L 110.269725 -53.963771 
L 109.757798 -53.95849 
L 109.245872 -53.970909 
L 108.733945 -53.950297 
L 108.222018 -53.962159 
L 107.710092 -53.973439 
L 107.198165 -53.988134 
L 106.686239 -53.99062 
L 106.174312 -53.991673 
L 105.662385 -53.986447 
L 105.150459 -53.988753 
L 104.638532 -53.986907 
L 104.126606 -53.975485 
L 103.614679 -53.982141 
L 103.102752 -53.987134 
L 102.590826 -53.960341 
L 102.078899 -53.968856 
L 101.566972 -53.974628 
L 101.055046 -53.966593 
L 100.543119 -53.98257 
L 100.031193 -53.980521 
L 99.519266 -53.970552 
L 99.007339 -53.97375 
L 98.495413 -53.979385 
L 97.983486 -53.985921 
L 97.47156 -53.981328 
L 96.959633 -53.986405 
L 96.447706 -53.964894 
L 95.93578 -53.960698 
L 95.423853 -53.971601 
L 94.911927 -53.967467 
L 94.4 -53.975165 
L 93.888073 -53.964745 
L 93.376147 -53.972807 
L 92.86422 -53.964795 
L 92.352294 -53.964989 
L 91.840367 -53.955812 
L 91.32844 -53.98523 
L 90.816514 -53.964537 
L 90.304587 -53.977477 
L 89.792661 -53.971048 
L 89.280734 -53.972151 
L 88.768807 -53.968142 
L 88.256881 -53.998234 
L 87.744954 -53.977034 
L 87.233028 -53.973892 
L 86.721101 -53.982179 
L 86.209174 -53.967155 
L 85.697248 -53.976026 
L 85.185321 -53.978747 
L 84.673394 -53.972829 
L 84.161468 -53.97291 
L 83.649541 -53.965578 
L 83.137615 -53.970346 
L 82.625688 -53.968013 
L 82.113761 -53.99014 
L 81.601835 -53.974739 
L 81.089908 -53.971638 
L 80.577982 -53.967443 
L 80.066055 -53.973904 
L 79.554128 -53.973605 
L 79.042202 -53.971348 
L 78.530275 -53.969392 
L 78.018349 -53.974891 
L 77.506422 -53.962409 
L 76.994495 -53.971914 
L 76.482569 -53.974789 
L 75.970642 -53.953503 
L 75.458716 -53.970353 
L 74.946789 -53.991218 
L 74.434862 -53.967528 
L 73.922936 -53.973815 
L 73.411009 -53.968033 
L 72.899083 -53.954061 
L 72.387156 -53.969958 
L 71.875229 -53.966086 
L 71.363303 -53.965309 
L 70.851376 -53.9658 
L 70.33945 -53.967 
L 69.827523 -53.976855 
L 69.315596 -53.96912 
L 68.80367 -53.968223 
L 68.291743 -53.966073 
L 67.779817 -53.96386 
L 67.26789 -53.980738 
L 66.755963 -53.973521 
L 66.244037 -53.967823 
L 65.73211 -53.959833 
L 65.220183 -53.976604 
L 64.708257 -53.970567 
L 64.19633 -53.963731 
L 63.684404 -53.97022 
L 63.172477 -53.973468 
L 62.66055 -53.955797 
L 62.148624 -53.974112 
L 61.636697 -53.983355 
L 61.124771 -53.987117 
L 60.612844 -53.975652 
L 60.100917 -53.966688 
L 59.588991 -53.957545 
L 59.077064 -53.959172 
L 58.565138 -53.964913 
L 58.053211 -53.969335 
L 57.541284 -53.965843 
L 57.029358 -53.963157 
L 56.517431 -53.962262 
L 56.005505 -53.96932 
L 55.493578 -53.964074 
L 54.981651 -53.962062 
L 54.469725 -53.971331 
L 53.957798 -53.991237 
L 53.445872 -53.992562 
L 52.933945 -53.980735 
L 52.422018 -53.977512 
L 51.910092 -53.966731 
L 51.398165 -53.97353 
L 50.886239 -53.969785 
L 50.374312 -53.979057 
L 49.862385 -53.971595 
L 49.350459 -53.980191 
L 48.838532 -53.983686 
L 48.326606 -53.967528 
L 47.814679 -53.970012 
L 47.302752 -53.974764 
L 46.790826 -53.965894 
L 46.278899 -53.977487 
L 45.766972 -53.969735 
L 45.255046 -53.968888 
L 44.743119 -53.960195 
L 44.231193 -53.958104 
L 43.719266 -53.982523 
L 43.207339 -53.965205 
L 42.695413 -53.974789 
L 42.183486 -53.986356 
L 41.67156 -53.976623 
L 41.159633 -53.97609 
L 40.647706 -53.998769 
L 40.13578 -53.97105 
L 39.623853 -53.961703 
L 39.111927 -53.975619 
L 38.6 -53.975025 
z
" id="m6ead18d2f7" style="stroke:#00664c;stroke-opacity:0.2;"/>
    </defs>
    <g clip-path="url(#p8165f28a16)">
     <use style="fill:#00664c;fill-opacity:0.2;stroke:#00664c;stroke-opacity:0.2;" x="0" xlink:href="#m6ead18d2f7" y="427.710625"/>
    </g>
   </g>
   <g id="line2d_8">
    <path clip-path="url(#p8165f28a16)" d="M 38.6 373.818688 
L 47.814679 373.812999 
L 70.33945 373.809708 
L 104.638532 373.810783 
L 110.269725 373.806884 
L 117.948624 373.811017 
L 127.163303 373.81269 
L 159.926606 373.783325 
L 160.950459 373.625568 
L 161.462385 373.371914 
L 162.998165 373.754433 
L 165.557798 373.803645 
L 174.26055 373.817913 
L 179.891743 373.8122 
L 182.451376 373.76087 
L 187.570642 373.819187 
L 194.737615 373.815353 
L 225.453211 373.685004 
L 225.965138 373.560088 
L 226.477064 373.170976 
L 226.988991 372.62392 
L 227.500917 372.555663 
L 228.524771 373.462494 
L 229.548624 373.712102 
L 231.59633 373.785289 
L 242.346789 373.821168 
L 271.526606 373.78018 
L 273.574312 373.79834 
L 282.277064 373.780017 
L 290.46789 373.733568 
L 291.491743 373.649722 
L 293.027523 373.739914 
L 304.289908 373.547321 
L 308.897248 373.122662 
L 309.921101 372.764241 
L 310.433028 372.49571 
L 310.944954 372.071356 
L 311.456881 371.25518 
L 311.968807 368.407343 
L 312.480734 364.152205 
L 312.992661 366.855482 
L 313.504587 368.898768 
L 314.016514 368.933104 
L 314.52844 367.666596 
L 315.040367 364.4706 
L 315.552294 358.733808 
L 316.06422 346.946766 
L 316.576147 320.022207 
L 317.088073 200.21151 
L 317.6 53.088658 
L 318.111927 192.342694 
L 318.623853 298.449377 
L 319.13578 337.149073 
L 319.647706 352.509087 
L 320.159633 361.370029 
L 320.67156 365.880861 
L 321.183486 367.93736 
L 321.695413 368.707527 
L 322.207339 367.261704 
L 322.719266 363.423675 
L 323.743119 369.840338 
L 324.255046 371.329001 
L 324.766972 371.99604 
L 325.278899 372.420637 
L 326.302752 372.844746 
L 327.838532 373.107705 
L 329.886239 373.235941 
L 331.933945 373.215946 
L 333.981651 373.503454 
L 336.541284 373.58559 
L 339.612844 373.421184 
L 341.66055 373.640937 
L 345.755963 373.70382 
L 348.315596 373.659053 
L 351.387156 373.754197 
L 359.066055 373.751208 
L 367.768807 373.782595 
L 375.447706 373.786554 
L 382.614679 373.780339 
L 390.293578 373.738274 
L 393.365138 373.780337 
L 398.484404 373.754924 
L 402.579817 373.788487 
L 409.234862 373.662452 
L 409.746789 373.479458 
L 410.770642 372.519477 
L 411.282569 372.682081 
L 411.794495 373.187688 
L 412.306422 373.506233 
L 413.330275 373.699964 
L 415.377982 373.769586 
L 420.497248 373.786945 
L 472.201835 373.805907 
L 475.785321 373.817413 
L 489.095413 373.814749 
L 515.715596 373.813016 
L 568.444037 373.817107 
L 572.53945 373.830269 
L 587.385321 373.813985 
L 596.6 373.821953 
L 596.6 373.821953 
" style="fill:none;stroke:#75b5a1;stroke-linecap:round;stroke-width:1.5;"/>
   </g>
   <g id="line2d_9">
    <path clip-path="url(#p8165f28a16)" d="M 317.553461 391.22 
L 317.553461 10.7 
" style="fill:none;stroke:#1a1a1a;stroke-dasharray:5.55,2.4;stroke-dashoffset:0;stroke-width:1.5;"/>
   </g>
   <g id="patch_3">
    <path d="M 10.7 391.22 
L 10.7 10.7 
" style="fill:none;stroke:#cccccc;stroke-linecap:square;stroke-linejoin:miter;stroke-width:0.8;"/>
   </g>
   <g id="patch_4">
    <path d="M 624.5 391.22 
L 624.5 10.7 
" style="fill:none;stroke:#cccccc;stroke-linecap:square;stroke-linejoin:miter;stroke-width:0.8;"/>
   </g>
   <g id="patch_5">
    <path d="M 10.7 391.22 
L 624.5 391.22 
" style="fill:none;stroke:#cccccc;stroke-linecap:square;stroke-linejoin:miter;stroke-width:0.8;"/>
   </g>
   <g id="patch_6">
    <path d="M 10.7 10.7 
L 624.5 10.7 
" style="fill:none;stroke:#cccccc;stroke-linecap:square;stroke-linejoin:miter;stroke-width:0.8;"/>
   </g>
   <g id="legend_1">
    <g id="patch_7">
     <path d="M 465.99375 32.845312 
L 617.5 32.845312 
Q 619.5 32.845312 619.5 30.845312 
L 619.5 17.7 
Q 619.5 15.7 617.5 15.7 
L 465.99375 15.7 
Q 463.99375 15.7 463.99375 17.7 
L 463.99375 30.845312 
Q 463.99375 32.845312 465.99375 32.845312 
z
" style="fill:#ffffff;opacity:0.8;stroke:#cccccc;stroke-linejoin:miter;"/>
    </g>
    <g id="patch_8">
     <path d="M 467.99375 26.857812 
L 487.99375 26.857812 
L 487.99375 19.857812 
L 467.99375 19.857812 
z
" style="fill:#00664c;fill-opacity:0.2;stroke:#00664c;stroke-linejoin:miter;stroke-opacity:0.2;"/>
    </g>
    <g id="text_9">
     <!-- Variance about the median -->
     <defs>
      <path d="M 28.171875 0 
L 0.4375 71.578125 
L 10.6875 71.578125 
L 29.296875 19.578125 
Q 31.546875 13.328125 33.0625 7.859375 
Q 34.71875 13.71875 36.921875 19.578125 
L 56.25 71.578125 
L 65.921875 71.578125 
L 37.890625 0 
z
" id="ArialMT-86"/>
      <path d="M 40.4375 6.390625 
Q 35.546875 2.25 31.03125 0.53125 
Q 26.515625 -1.171875 21.34375 -1.171875 
Q 12.796875 -1.171875 8.203125 3 
Q 3.609375 7.171875 3.609375 13.671875 
Q 3.609375 17.484375 5.34375 20.625 
Q 7.078125 23.78125 9.890625 25.6875 
Q 12.703125 27.59375 16.21875 28.5625 
Q 18.796875 29.25 24.03125 29.890625 
Q 34.671875 31.15625 39.703125 32.90625 
Q 39.75 34.71875 39.75 35.203125 
Q 39.75 40.578125 37.25 42.78125 
Q 33.890625 45.75 27.25 45.75 
Q 21.046875 45.75 18.09375 43.578125 
Q 15.140625 41.40625 13.71875 35.890625 
L 5.125 37.0625 
Q 6.296875 42.578125 8.984375 45.96875 
Q 11.671875 49.359375 16.75 51.1875 
Q 21.828125 53.03125 28.515625 53.03125 
Q 35.15625 53.03125 39.296875 51.46875 
Q 43.453125 49.90625 45.40625 47.53125 
Q 47.359375 45.171875 48.140625 41.546875 
Q 48.578125 39.3125 48.578125 33.453125 
L 48.578125 21.734375 
Q 48.578125 9.46875 49.140625 6.21875 
Q 49.703125 2.984375 51.375 0 
L 42.1875 0 
Q 40.828125 2.734375 40.4375 6.390625 
z
M 39.703125 26.03125 
Q 34.90625 24.078125 25.34375 22.703125 
Q 19.921875 21.921875 17.671875 20.9375 
Q 15.4375 19.96875 14.203125 18.09375 
Q 12.984375 16.21875 12.984375 13.921875 
Q 12.984375 10.40625 15.640625 8.0625 
Q 18.3125 5.71875 23.4375 5.71875 
Q 28.515625 5.71875 32.46875 7.9375 
Q 36.421875 10.15625 38.28125 14.015625 
Q 39.703125 17 39.703125 22.796875 
z
" id="ArialMT-97"/>
      <path d="M 6.5 0 
L 6.5 51.859375 
L 14.40625 51.859375 
L 14.40625 44 
Q 17.4375 49.515625 20 51.265625 
Q 22.5625 53.03125 25.640625 53.03125 
Q 30.078125 53.03125 34.671875 50.203125 
L 31.640625 42.046875 
Q 28.421875 43.953125 25.203125 43.953125 
Q 22.3125 43.953125 20.015625 42.21875 
Q 17.71875 40.484375 16.75 37.40625 
Q 15.28125 32.71875 15.28125 27.15625 
L 15.28125 0 
z
" id="ArialMT-114"/>
      <path d="M 6.640625 61.46875 
L 6.640625 71.578125 
L 15.4375 71.578125 
L 15.4375 61.46875 
z
M 6.640625 0 
L 6.640625 51.859375 
L 15.4375 51.859375 
L 15.4375 0 
z
" id="ArialMT-105"/>
      <path d="M 6.59375 0 
L 6.59375 51.859375 
L 14.5 51.859375 
L 14.5 44.484375 
Q 20.21875 53.03125 31 53.03125 
Q 35.6875 53.03125 39.625 51.34375 
Q 43.5625 49.65625 45.515625 46.921875 
Q 47.46875 44.1875 48.25 40.4375 
Q 48.734375 37.984375 48.734375 31.890625 
L 48.734375 0 
L 39.9375 0 
L 39.9375 31.546875 
Q 39.9375 36.921875 38.90625 39.578125 
Q 37.890625 42.234375 35.28125 43.8125 
Q 32.671875 45.40625 29.15625 45.40625 
Q 23.53125 45.40625 19.453125 41.84375 
Q 15.375 38.28125 15.375 28.328125 
L 15.375 0 
z
" id="ArialMT-110"/>
      <path d="M 40.4375 19 
L 49.078125 17.875 
Q 47.65625 8.9375 41.8125 3.875 
Q 35.984375 -1.171875 27.484375 -1.171875 
Q 16.84375 -1.171875 10.375 5.78125 
Q 3.90625 12.75 3.90625 25.734375 
Q 3.90625 34.125 6.6875 40.421875 
Q 9.46875 46.734375 15.15625 49.875 
Q 20.84375 53.03125 27.546875 53.03125 
Q 35.984375 53.03125 41.359375 48.75 
Q 46.734375 44.484375 48.25 36.625 
L 39.703125 35.296875 
Q 38.484375 40.53125 35.375 43.15625 
Q 32.28125 45.796875 27.875 45.796875 
Q 21.234375 45.796875 17.078125 41.03125 
Q 12.9375 36.28125 12.9375 25.984375 
Q 12.9375 15.53125 16.9375 10.796875 
Q 20.953125 6.0625 27.390625 6.0625 
Q 32.5625 6.0625 36.03125 9.234375 
Q 39.5 12.40625 40.4375 19 
z
" id="ArialMT-99"/>
      <path d="M 42.09375 16.703125 
L 51.171875 15.578125 
Q 49.03125 7.625 43.21875 3.21875 
Q 37.40625 -1.171875 28.375 -1.171875 
Q 17 -1.171875 10.328125 5.828125 
Q 3.65625 12.84375 3.65625 25.484375 
Q 3.65625 38.578125 10.390625 45.796875 
Q 17.140625 53.03125 27.875 53.03125 
Q 38.28125 53.03125 44.875 45.953125 
Q 51.46875 38.875 51.46875 26.03125 
Q 51.46875 25.25 51.421875 23.6875 
L 12.75 23.6875 
Q 13.234375 15.140625 17.578125 10.59375 
Q 21.921875 6.0625 28.421875 6.0625 
Q 33.25 6.0625 36.671875 8.59375 
Q 40.09375 11.140625 42.09375 16.703125 
z
M 13.234375 30.90625 
L 42.1875 30.90625 
Q 41.609375 37.453125 38.875 40.71875 
Q 34.671875 45.796875 27.984375 45.796875 
Q 21.921875 45.796875 17.796875 41.75 
Q 13.671875 37.703125 13.234375 30.90625 
z
" id="ArialMT-101"/>
      <path id="ArialMT-32"/>
      <path d="M 14.703125 0 
L 6.546875 0 
L 6.546875 71.578125 
L 15.328125 71.578125 
L 15.328125 46.046875 
Q 20.90625 53.03125 29.546875 53.03125 
Q 34.328125 53.03125 38.59375 51.09375 
Q 42.875 49.171875 45.625 45.671875 
Q 48.390625 42.1875 49.953125 37.25 
Q 51.515625 32.328125 51.515625 26.703125 
Q 51.515625 13.375 44.921875 6.09375 
Q 38.328125 -1.171875 29.109375 -1.171875 
Q 19.921875 -1.171875 14.703125 6.5 
z
M 14.59375 26.3125 
Q 14.59375 17 17.140625 12.84375 
Q 21.296875 6.0625 28.375 6.0625 
Q 34.125 6.0625 38.328125 11.0625 
Q 42.53125 16.0625 42.53125 25.984375 
Q 42.53125 36.140625 38.5 40.96875 
Q 34.46875 45.796875 28.765625 45.796875 
Q 23 45.796875 18.796875 40.796875 
Q 14.59375 35.796875 14.59375 26.3125 
z
" id="ArialMT-98"/>
      <path d="M 3.328125 25.921875 
Q 3.328125 40.328125 11.328125 47.265625 
Q 18.015625 53.03125 27.640625 53.03125 
Q 38.328125 53.03125 45.109375 46.015625 
Q 51.90625 39.015625 51.90625 26.65625 
Q 51.90625 16.65625 48.90625 10.90625 
Q 45.90625 5.171875 40.15625 2 
Q 34.421875 -1.171875 27.640625 -1.171875 
Q 16.75 -1.171875 10.03125 5.8125 
Q 3.328125 12.796875 3.328125 25.921875 
z
M 12.359375 25.921875 
Q 12.359375 15.96875 16.703125 11.015625 
Q 21.046875 6.0625 27.640625 6.0625 
Q 34.1875 6.0625 38.53125 11.03125 
Q 42.875 16.015625 42.875 26.21875 
Q 42.875 35.84375 38.5 40.796875 
Q 34.125 45.75 27.640625 45.75 
Q 21.046875 45.75 16.703125 40.8125 
Q 12.359375 35.890625 12.359375 25.921875 
z
" id="ArialMT-111"/>
      <path d="M 40.578125 0 
L 40.578125 7.625 
Q 34.515625 -1.171875 24.125 -1.171875 
Q 19.53125 -1.171875 15.546875 0.578125 
Q 11.578125 2.34375 9.640625 5 
Q 7.71875 7.671875 6.9375 11.53125 
Q 6.390625 14.109375 6.390625 19.734375 
L 6.390625 51.859375 
L 15.1875 51.859375 
L 15.1875 23.09375 
Q 15.1875 16.21875 15.71875 13.8125 
Q 16.546875 10.359375 19.234375 8.375 
Q 21.921875 6.390625 25.875 6.390625 
Q 29.828125 6.390625 33.296875 8.421875 
Q 36.765625 10.453125 38.203125 13.9375 
Q 39.65625 17.4375 39.65625 24.078125 
L 39.65625 51.859375 
L 48.4375 51.859375 
L 48.4375 0 
z
" id="ArialMT-117"/>
      <path d="M 25.78125 7.859375 
L 27.046875 0.09375 
Q 23.34375 -0.6875 20.40625 -0.6875 
Q 15.625 -0.6875 12.984375 0.828125 
Q 10.359375 2.34375 9.28125 4.8125 
Q 8.203125 7.28125 8.203125 15.1875 
L 8.203125 45.015625 
L 1.765625 45.015625 
L 1.765625 51.859375 
L 8.203125 51.859375 
L 8.203125 64.703125 
L 16.9375 69.96875 
L 16.9375 51.859375 
L 25.78125 51.859375 
L 25.78125 45.015625 
L 16.9375 45.015625 
L 16.9375 14.703125 
Q 16.9375 10.9375 17.40625 9.859375 
Q 17.875 8.796875 18.921875 8.15625 
Q 19.96875 7.515625 21.921875 7.515625 
Q 23.390625 7.515625 25.78125 7.859375 
z
" id="ArialMT-116"/>
      <path d="M 6.59375 0 
L 6.59375 71.578125 
L 15.375 71.578125 
L 15.375 45.90625 
Q 21.53125 53.03125 30.90625 53.03125 
Q 36.671875 53.03125 40.921875 50.75 
Q 45.171875 48.484375 47 44.484375 
Q 48.828125 40.484375 48.828125 32.859375 
L 48.828125 0 
L 40.046875 0 
L 40.046875 32.859375 
Q 40.046875 39.453125 37.1875 42.453125 
Q 34.328125 45.453125 29.109375 45.453125 
Q 25.203125 45.453125 21.75 43.421875 
Q 18.3125 41.40625 16.84375 37.9375 
Q 15.375 34.46875 15.375 28.375 
L 15.375 0 
z
" id="ArialMT-104"/>
      <path d="M 40.234375 0 
L 40.234375 6.546875 
Q 35.296875 -1.171875 25.734375 -1.171875 
Q 19.53125 -1.171875 14.328125 2.25 
Q 9.125 5.671875 6.265625 11.796875 
Q 3.421875 17.921875 3.421875 25.875 
Q 3.421875 33.640625 6 39.96875 
Q 8.59375 46.296875 13.765625 49.65625 
Q 18.953125 53.03125 25.34375 53.03125 
Q 30.03125 53.03125 33.6875 51.046875 
Q 37.359375 49.078125 39.65625 45.90625 
L 39.65625 71.578125 
L 48.390625 71.578125 
L 48.390625 0 
z
M 12.453125 25.875 
Q 12.453125 15.921875 16.640625 10.984375 
Q 20.84375 6.0625 26.5625 6.0625 
Q 32.328125 6.0625 36.34375 10.765625 
Q 40.375 15.484375 40.375 25.140625 
Q 40.375 35.796875 36.265625 40.765625 
Q 32.171875 45.75 26.171875 45.75 
Q 20.3125 45.75 16.375 40.96875 
Q 12.453125 36.1875 12.453125 25.875 
z
" id="ArialMT-100"/>
     </defs>
     <g style="fill:#262626;" transform="translate(495.99375 26.857812)scale(0.1 -0.1)">
      <use xlink:href="#ArialMT-86"/>
      <use x="66.589844" xlink:href="#ArialMT-97"/>
      <use x="122.205078" xlink:href="#ArialMT-114"/>
      <use x="155.505859" xlink:href="#ArialMT-105"/>
      <use x="177.722656" xlink:href="#ArialMT-97"/>
      <use x="233.337891" xlink:href="#ArialMT-110"/>
      <use x="288.953125" xlink:href="#ArialMT-99"/>
      <use x="338.953125" xlink:href="#ArialMT-101"/>
      <use x="394.568359" xlink:href="#ArialMT-32"/>
      <use x="422.351562" xlink:href="#ArialMT-97"/>
      <use x="477.966797" xlink:href="#ArialMT-98"/>
      <use x="533.582031" xlink:href="#ArialMT-111"/>
      <use x="589.197266" xlink:href="#ArialMT-117"/>
      <use x="644.8125" xlink:href="#ArialMT-116"/>
      <use x="672.595703" xlink:href="#ArialMT-32"/>
      <use x="700.378906" xlink:href="#ArialMT-116"/>
      <use x="728.162109" xlink:href="#ArialMT-104"/>
      <use x="783.777344" xlink:href="#ArialMT-101"/>
      <use x="839.392578" xlink:href="#ArialMT-32"/>
      <use x="867.175781" xlink:href="#ArialMT-109"/>
      <use x="950.476562" xlink:href="#ArialMT-101"/>
      <use x="1006.091797" xlink:href="#ArialMT-100"/>
      <use x="1061.707031" xlink:href="#ArialMT-105"/>
      <use x="1083.923828" xlink:href="#ArialMT-97"/>
      <use x="1139.539062" xlink:href="#ArialMT-110"/>
     </g>
    </g>
   </g>
  </g>
 </g>
 <defs>
  <clipPath id="p8165f28a16">
   <rect height="380.52" width="613.8" x="10.7" y="10.7"/>
  </clipPath>
 </defs>
</svg>
