<?xml version="1.0" encoding="utf-8" standalone="no"?>
<!DOCTYPE svg PUBLIC "-//W3C//DTD SVG 1.1//EN"
  "http://www.w3.org/Graphics/SVG/1.1/DTD/svg11.dtd">
<!-- Created with matplotlib (https://matplotlib.org/) -->
<svg height="504pt" version="1.1" viewBox="0 0 792 504" width="792pt" xmlns="http://www.w3.org/2000/svg" xmlns:xlink="http://www.w3.org/1999/xlink">
 <defs>
  <style type="text/css">
*{stroke-linecap:butt;stroke-linejoin:round;}
  </style>
 </defs>
 <g id="figure_1">
  <g id="patch_1">
   <path d="M 0 504 
L 792 504 
L 792 0 
L 0 0 
z
" style="fill:#ffffff;"/>
  </g>
  <g id="axes_1">
   <g id="patch_2">
    <path d="M 99 441 
L 712.8 441 
L 712.8 60.48 
L 99 60.48 
z
" style="fill:#ffffff;"/>
   </g>
   <g id="matplotlib.axis_1">
    <g id="xtick_1">
     <g id="line2d_1">
      <path clip-path="url(#p426ffad332)" d="M 686.007032 441 
L 686.007032 60.48 
" style="fill:none;stroke:#cccccc;stroke-linecap:round;stroke-width:0.8;"/>
     </g>
     <g id="text_1">
      <!-- −0.100 -->
      <defs>
       <path d="M 52.828125 31.203125 
L 5.5625 31.203125 
L 5.5625 39.40625 
L 52.828125 39.40625 
z
" id="ArialMT-8722"/>
       <path d="M 4.15625 35.296875 
Q 4.15625 48 6.765625 55.734375 
Q 9.375 63.484375 14.515625 67.671875 
Q 19.671875 71.875 27.484375 71.875 
Q 33.25 71.875 37.59375 69.546875 
Q 41.9375 67.234375 44.765625 62.859375 
Q 47.609375 58.5 49.21875 52.21875 
Q 50.828125 45.953125 50.828125 35.296875 
Q 50.828125 22.703125 48.234375 14.96875 
Q 45.65625 7.234375 40.5 3 
Q 35.359375 -1.21875 27.484375 -1.21875 
Q 17.140625 -1.21875 11.234375 6.203125 
Q 4.15625 15.140625 4.15625 35.296875 
z
M 13.1875 35.296875 
Q 13.1875 17.671875 17.3125 11.828125 
Q 21.4375 6 27.484375 6 
Q 33.546875 6 37.671875 11.859375 
Q 41.796875 17.71875 41.796875 35.296875 
Q 41.796875 52.984375 37.671875 58.78125 
Q 33.546875 64.59375 27.390625 64.59375 
Q 21.34375 64.59375 17.71875 59.46875 
Q 13.1875 52.9375 13.1875 35.296875 
z
" id="ArialMT-48"/>
       <path d="M 9.078125 0 
L 9.078125 10.015625 
L 19.09375 10.015625 
L 19.09375 0 
z
" id="ArialMT-46"/>
       <path d="M 37.25 0 
L 28.46875 0 
L 28.46875 56 
Q 25.296875 52.984375 20.140625 49.953125 
Q 14.984375 46.921875 10.890625 45.40625 
L 10.890625 53.90625 
Q 18.265625 57.375 23.78125 62.296875 
Q 29.296875 67.234375 31.59375 71.875 
L 37.25 71.875 
z
" id="ArialMT-49"/>
      </defs>
      <g style="fill:#262626;" transform="translate(670.575782 455.157812)scale(0.1 -0.1)">
       <use xlink:href="#ArialMT-8722"/>
       <use x="58.398438" xlink:href="#ArialMT-48"/>
       <use x="114.013672" xlink:href="#ArialMT-46"/>
       <use x="141.796875" xlink:href="#ArialMT-49"/>
       <use x="197.412109" xlink:href="#ArialMT-48"/>
       <use x="253.027344" xlink:href="#ArialMT-48"/>
      </g>
     </g>
    </g>
    <g id="xtick_2">
     <g id="line2d_2">
      <path clip-path="url(#p426ffad332)" d="M 615.945241 441 
L 615.945241 60.48 
" style="fill:none;stroke:#cccccc;stroke-linecap:round;stroke-width:0.8;"/>
     </g>
     <g id="text_2">
      <!-- −0.075 -->
      <defs>
       <path d="M 4.734375 62.203125 
L 4.734375 70.65625 
L 51.078125 70.65625 
L 51.078125 63.8125 
Q 44.234375 56.546875 37.515625 44.484375 
Q 30.8125 32.421875 27.15625 19.671875 
Q 24.515625 10.6875 23.78125 0 
L 14.75 0 
Q 14.890625 8.453125 18.0625 20.40625 
Q 21.234375 32.375 27.171875 43.484375 
Q 33.109375 54.59375 39.796875 62.203125 
z
" id="ArialMT-55"/>
       <path d="M 4.15625 18.75 
L 13.375 19.53125 
Q 14.40625 12.796875 18.140625 9.390625 
Q 21.875 6 27.15625 6 
Q 33.5 6 37.890625 10.78125 
Q 42.28125 15.578125 42.28125 23.484375 
Q 42.28125 31 38.0625 35.34375 
Q 33.84375 39.703125 27 39.703125 
Q 22.75 39.703125 19.328125 37.765625 
Q 15.921875 35.84375 13.96875 32.765625 
L 5.71875 33.84375 
L 12.640625 70.609375 
L 48.25 70.609375 
L 48.25 62.203125 
L 19.671875 62.203125 
L 15.828125 42.96875 
Q 22.265625 47.46875 29.34375 47.46875 
Q 38.71875 47.46875 45.15625 40.96875 
Q 51.609375 34.46875 51.609375 24.265625 
Q 51.609375 14.546875 45.953125 7.46875 
Q 39.0625 -1.21875 27.15625 -1.21875 
Q 17.390625 -1.21875 11.203125 4.25 
Q 5.03125 9.71875 4.15625 18.75 
z
" id="ArialMT-53"/>
      </defs>
      <g style="fill:#262626;" transform="translate(600.513991 455.157812)scale(0.1 -0.1)">
       <use xlink:href="#ArialMT-8722"/>
       <use x="58.398438" xlink:href="#ArialMT-48"/>
       <use x="114.013672" xlink:href="#ArialMT-46"/>
       <use x="141.796875" xlink:href="#ArialMT-48"/>
       <use x="197.412109" xlink:href="#ArialMT-55"/>
       <use x="253.027344" xlink:href="#ArialMT-53"/>
      </g>
     </g>
    </g>
    <g id="xtick_3">
     <g id="line2d_3">
      <path clip-path="url(#p426ffad332)" d="M 545.883451 441 
L 545.883451 60.48 
" style="fill:none;stroke:#cccccc;stroke-linecap:round;stroke-width:0.8;"/>
     </g>
     <g id="text_3">
      <!-- −0.050 -->
      <g style="fill:#262626;" transform="translate(530.452201 455.157812)scale(0.1 -0.1)">
       <use xlink:href="#ArialMT-8722"/>
       <use x="58.398438" xlink:href="#ArialMT-48"/>
       <use x="114.013672" xlink:href="#ArialMT-46"/>
       <use x="141.796875" xlink:href="#ArialMT-48"/>
       <use x="197.412109" xlink:href="#ArialMT-53"/>
       <use x="253.027344" xlink:href="#ArialMT-48"/>
      </g>
     </g>
    </g>
    <g id="xtick_4">
     <g id="line2d_4">
      <path clip-path="url(#p426ffad332)" d="M 475.82166 441 
L 475.82166 60.48 
" style="fill:none;stroke:#cccccc;stroke-linecap:round;stroke-width:0.8;"/>
     </g>
     <g id="text_4">
      <!-- −0.025 -->
      <defs>
       <path d="M 50.34375 8.453125 
L 50.34375 0 
L 3.03125 0 
Q 2.9375 3.171875 4.046875 6.109375 
Q 5.859375 10.9375 9.828125 15.625 
Q 13.8125 20.3125 21.34375 26.46875 
Q 33.015625 36.03125 37.109375 41.625 
Q 41.21875 47.21875 41.21875 52.203125 
Q 41.21875 57.421875 37.46875 61 
Q 33.734375 64.59375 27.734375 64.59375 
Q 21.390625 64.59375 17.578125 60.78125 
Q 13.765625 56.984375 13.71875 50.25 
L 4.6875 51.171875 
Q 5.609375 61.28125 11.65625 66.578125 
Q 17.71875 71.875 27.9375 71.875 
Q 38.234375 71.875 44.234375 66.15625 
Q 50.25 60.453125 50.25 52 
Q 50.25 47.703125 48.484375 43.546875 
Q 46.734375 39.40625 42.65625 34.8125 
Q 38.578125 30.21875 29.109375 22.21875 
Q 21.1875 15.578125 18.9375 13.203125 
Q 16.703125 10.84375 15.234375 8.453125 
z
" id="ArialMT-50"/>
      </defs>
      <g style="fill:#262626;" transform="translate(460.39041 455.157812)scale(0.1 -0.1)">
       <use xlink:href="#ArialMT-8722"/>
       <use x="58.398438" xlink:href="#ArialMT-48"/>
       <use x="114.013672" xlink:href="#ArialMT-46"/>
       <use x="141.796875" xlink:href="#ArialMT-48"/>
       <use x="197.412109" xlink:href="#ArialMT-50"/>
       <use x="253.027344" xlink:href="#ArialMT-53"/>
      </g>
     </g>
    </g>
    <g id="xtick_5">
     <g id="line2d_5">
      <path clip-path="url(#p426ffad332)" d="M 405.759869 441 
L 405.759869 60.48 
" style="fill:none;stroke:#cccccc;stroke-linecap:round;stroke-width:0.8;"/>
     </g>
     <g id="text_5">
      <!-- 0.000 -->
      <g style="fill:#262626;" transform="translate(393.248932 455.157812)scale(0.1 -0.1)">
       <use xlink:href="#ArialMT-48"/>
       <use x="55.615234" xlink:href="#ArialMT-46"/>
       <use x="83.398438" xlink:href="#ArialMT-48"/>
       <use x="139.013672" xlink:href="#ArialMT-48"/>
       <use x="194.628906" xlink:href="#ArialMT-48"/>
      </g>
     </g>
    </g>
    <g id="xtick_6">
     <g id="line2d_6">
      <path clip-path="url(#p426ffad332)" d="M 335.698079 441 
L 335.698079 60.48 
" style="fill:none;stroke:#cccccc;stroke-linecap:round;stroke-width:0.8;"/>
     </g>
     <g id="text_6">
      <!-- 0.025 -->
      <g style="fill:#262626;" transform="translate(323.187141 455.157812)scale(0.1 -0.1)">
       <use xlink:href="#ArialMT-48"/>
       <use x="55.615234" xlink:href="#ArialMT-46"/>
       <use x="83.398438" xlink:href="#ArialMT-48"/>
       <use x="139.013672" xlink:href="#ArialMT-50"/>
       <use x="194.628906" xlink:href="#ArialMT-53"/>
      </g>
     </g>
    </g>
    <g id="xtick_7">
     <g id="line2d_7">
      <path clip-path="url(#p426ffad332)" d="M 265.636288 441 
L 265.636288 60.48 
" style="fill:none;stroke:#cccccc;stroke-linecap:round;stroke-width:0.8;"/>
     </g>
     <g id="text_7">
      <!-- 0.050 -->
      <g style="fill:#262626;" transform="translate(253.125351 455.157812)scale(0.1 -0.1)">
       <use xlink:href="#ArialMT-48"/>
       <use x="55.615234" xlink:href="#ArialMT-46"/>
       <use x="83.398438" xlink:href="#ArialMT-48"/>
       <use x="139.013672" xlink:href="#ArialMT-53"/>
       <use x="194.628906" xlink:href="#ArialMT-48"/>
      </g>
     </g>
    </g>
    <g id="xtick_8">
     <g id="line2d_8">
      <path clip-path="url(#p426ffad332)" d="M 195.574498 441 
L 195.574498 60.48 
" style="fill:none;stroke:#cccccc;stroke-linecap:round;stroke-width:0.8;"/>
     </g>
     <g id="text_8">
      <!-- 0.075 -->
      <g style="fill:#262626;" transform="translate(183.06356 455.157812)scale(0.1 -0.1)">
       <use xlink:href="#ArialMT-48"/>
       <use x="55.615234" xlink:href="#ArialMT-46"/>
       <use x="83.398438" xlink:href="#ArialMT-48"/>
       <use x="139.013672" xlink:href="#ArialMT-55"/>
       <use x="194.628906" xlink:href="#ArialMT-53"/>
      </g>
     </g>
    </g>
    <g id="xtick_9">
     <g id="line2d_9">
      <path clip-path="url(#p426ffad332)" d="M 125.512707 441 
L 125.512707 60.48 
" style="fill:none;stroke:#cccccc;stroke-linecap:round;stroke-width:0.8;"/>
     </g>
     <g id="text_9">
      <!-- 0.100 -->
      <g style="fill:#262626;" transform="translate(113.00177 455.157812)scale(0.1 -0.1)">
       <use xlink:href="#ArialMT-48"/>
       <use x="55.615234" xlink:href="#ArialMT-46"/>
       <use x="83.398438" xlink:href="#ArialMT-49"/>
       <use x="139.013672" xlink:href="#ArialMT-48"/>
       <use x="194.628906" xlink:href="#ArialMT-48"/>
      </g>
     </g>
    </g>
    <g id="text_10">
     <!-- ppm -->
     <defs>
      <path d="M 6.59375 -19.875 
L 6.59375 51.859375 
L 14.59375 51.859375 
L 14.59375 45.125 
Q 17.4375 49.078125 21 51.046875 
Q 24.5625 53.03125 29.640625 53.03125 
Q 36.28125 53.03125 41.359375 49.609375 
Q 46.4375 46.1875 49.015625 39.953125 
Q 51.609375 33.734375 51.609375 26.3125 
Q 51.609375 18.359375 48.75 11.984375 
Q 45.90625 5.609375 40.453125 2.21875 
Q 35.015625 -1.171875 29 -1.171875 
Q 24.609375 -1.171875 21.109375 0.6875 
Q 17.625 2.546875 15.375 5.375 
L 15.375 -19.875 
z
M 14.546875 25.640625 
Q 14.546875 15.625 18.59375 10.84375 
Q 22.65625 6.0625 28.421875 6.0625 
Q 34.28125 6.0625 38.453125 11.015625 
Q 42.625 15.96875 42.625 26.375 
Q 42.625 36.28125 38.546875 41.203125 
Q 34.46875 46.140625 28.8125 46.140625 
Q 23.1875 46.140625 18.859375 40.890625 
Q 14.546875 35.640625 14.546875 25.640625 
z
" id="ArialMT-112"/>
      <path d="M 6.59375 0 
L 6.59375 51.859375 
L 14.453125 51.859375 
L 14.453125 44.578125 
Q 16.890625 48.390625 20.9375 50.703125 
Q 25 53.03125 30.171875 53.03125 
Q 35.9375 53.03125 39.625 50.640625 
Q 43.3125 48.25 44.828125 43.953125 
Q 50.984375 53.03125 60.84375 53.03125 
Q 68.5625 53.03125 72.703125 48.75 
Q 76.859375 44.484375 76.859375 35.59375 
L 76.859375 0 
L 68.109375 0 
L 68.109375 32.671875 
Q 68.109375 37.9375 67.25 40.25 
Q 66.40625 42.578125 64.15625 43.984375 
Q 61.921875 45.40625 58.890625 45.40625 
Q 53.421875 45.40625 49.796875 41.765625 
Q 46.1875 38.140625 46.1875 30.125 
L 46.1875 0 
L 37.40625 0 
L 37.40625 33.6875 
Q 37.40625 39.546875 35.25 42.46875 
Q 33.109375 45.40625 28.21875 45.40625 
Q 24.515625 45.40625 21.359375 43.453125 
Q 18.21875 41.5 16.796875 37.734375 
Q 15.375 33.984375 15.375 26.90625 
L 15.375 0 
z
" id="ArialMT-109"/>
     </defs>
     <g style="fill:#262626;" transform="translate(396.174219 468.303125)scale(0.1 -0.1)">
      <use xlink:href="#ArialMT-112"/>
      <use x="55.615234" xlink:href="#ArialMT-112"/>
      <use x="111.230469" xlink:href="#ArialMT-109"/>
     </g>
    </g>
   </g>
   <g id="matplotlib.axis_2">
    <g id="ytick_1">
     <g id="line2d_10">
      <path clip-path="url(#p426ffad332)" d="M 99 423.596499 
L 712.8 423.596499 
" style="fill:none;stroke:#cccccc;stroke-linecap:round;stroke-width:0.8;"/>
     </g>
     <g id="text_11">
      <!-- 0 -->
      <g style="fill:#262626;" transform="translate(86.439063 427.175405)scale(0.1 -0.1)">
       <use xlink:href="#ArialMT-48"/>
      </g>
     </g>
    </g>
    <g id="ytick_2">
     <g id="line2d_11">
      <path clip-path="url(#p426ffad332)" d="M 99 359.003938 
L 712.8 359.003938 
" style="fill:none;stroke:#cccccc;stroke-linecap:round;stroke-width:0.8;"/>
     </g>
     <g id="text_12">
      <!-- 1000000 -->
      <g style="fill:#262626;" transform="translate(53.073437 362.582844)scale(0.1 -0.1)">
       <use xlink:href="#ArialMT-49"/>
       <use x="55.615234" xlink:href="#ArialMT-48"/>
       <use x="111.230469" xlink:href="#ArialMT-48"/>
       <use x="166.845703" xlink:href="#ArialMT-48"/>
       <use x="222.460938" xlink:href="#ArialMT-48"/>
       <use x="278.076172" xlink:href="#ArialMT-48"/>
       <use x="333.691406" xlink:href="#ArialMT-48"/>
      </g>
     </g>
    </g>
    <g id="ytick_3">
     <g id="line2d_12">
      <path clip-path="url(#p426ffad332)" d="M 99 294.411377 
L 712.8 294.411377 
" style="fill:none;stroke:#cccccc;stroke-linecap:round;stroke-width:0.8;"/>
     </g>
     <g id="text_13">
      <!-- 2000000 -->
      <g style="fill:#262626;" transform="translate(53.073437 297.990283)scale(0.1 -0.1)">
       <use xlink:href="#ArialMT-50"/>
       <use x="55.615234" xlink:href="#ArialMT-48"/>
       <use x="111.230469" xlink:href="#ArialMT-48"/>
       <use x="166.845703" xlink:href="#ArialMT-48"/>
       <use x="222.460938" xlink:href="#ArialMT-48"/>
       <use x="278.076172" xlink:href="#ArialMT-48"/>
       <use x="333.691406" xlink:href="#ArialMT-48"/>
      </g>
     </g>
    </g>
    <g id="ytick_4">
     <g id="line2d_13">
      <path clip-path="url(#p426ffad332)" d="M 99 229.818815 
L 712.8 229.818815 
" style="fill:none;stroke:#cccccc;stroke-linecap:round;stroke-width:0.8;"/>
     </g>
     <g id="text_14">
      <!-- 3000000 -->
      <defs>
       <path d="M 4.203125 18.890625 
L 12.984375 20.0625 
Q 14.5 12.59375 18.140625 9.296875 
Q 21.78125 6 27 6 
Q 33.203125 6 37.46875 10.296875 
Q 41.75 14.59375 41.75 20.953125 
Q 41.75 27 37.796875 30.921875 
Q 33.84375 34.859375 27.734375 34.859375 
Q 25.25 34.859375 21.53125 33.890625 
L 22.515625 41.609375 
Q 23.390625 41.5 23.921875 41.5 
Q 29.546875 41.5 34.03125 44.421875 
Q 38.53125 47.359375 38.53125 53.46875 
Q 38.53125 58.296875 35.25 61.46875 
Q 31.984375 64.65625 26.8125 64.65625 
Q 21.6875 64.65625 18.265625 61.421875 
Q 14.84375 58.203125 13.875 51.765625 
L 5.078125 53.328125 
Q 6.6875 62.15625 12.390625 67.015625 
Q 18.109375 71.875 26.609375 71.875 
Q 32.46875 71.875 37.390625 69.359375 
Q 42.328125 66.84375 44.9375 62.5 
Q 47.5625 58.15625 47.5625 53.265625 
Q 47.5625 48.640625 45.0625 44.828125 
Q 42.578125 41.015625 37.703125 38.765625 
Q 44.046875 37.3125 47.5625 32.6875 
Q 51.078125 28.078125 51.078125 21.140625 
Q 51.078125 11.765625 44.234375 5.25 
Q 37.40625 -1.265625 26.953125 -1.265625 
Q 17.53125 -1.265625 11.296875 4.34375 
Q 5.078125 9.96875 4.203125 18.890625 
z
" id="ArialMT-51"/>
      </defs>
      <g style="fill:#262626;" transform="translate(53.073437 233.397722)scale(0.1 -0.1)">
       <use xlink:href="#ArialMT-51"/>
       <use x="55.615234" xlink:href="#ArialMT-48"/>
       <use x="111.230469" xlink:href="#ArialMT-48"/>
       <use x="166.845703" xlink:href="#ArialMT-48"/>
       <use x="222.460938" xlink:href="#ArialMT-48"/>
       <use x="278.076172" xlink:href="#ArialMT-48"/>
       <use x="333.691406" xlink:href="#ArialMT-48"/>
      </g>
     </g>
    </g>
    <g id="ytick_5">
     <g id="line2d_14">
      <path clip-path="url(#p426ffad332)" d="M 99 165.226254 
L 712.8 165.226254 
" style="fill:none;stroke:#cccccc;stroke-linecap:round;stroke-width:0.8;"/>
     </g>
     <g id="text_15">
      <!-- 4000000 -->
      <defs>
       <path d="M 32.328125 0 
L 32.328125 17.140625 
L 1.265625 17.140625 
L 1.265625 25.203125 
L 33.9375 71.578125 
L 41.109375 71.578125 
L 41.109375 25.203125 
L 50.78125 25.203125 
L 50.78125 17.140625 
L 41.109375 17.140625 
L 41.109375 0 
z
M 32.328125 25.203125 
L 32.328125 57.46875 
L 9.90625 25.203125 
z
" id="ArialMT-52"/>
      </defs>
      <g style="fill:#262626;" transform="translate(53.073437 168.80516)scale(0.1 -0.1)">
       <use xlink:href="#ArialMT-52"/>
       <use x="55.615234" xlink:href="#ArialMT-48"/>
       <use x="111.230469" xlink:href="#ArialMT-48"/>
       <use x="166.845703" xlink:href="#ArialMT-48"/>
       <use x="222.460938" xlink:href="#ArialMT-48"/>
       <use x="278.076172" xlink:href="#ArialMT-48"/>
       <use x="333.691406" xlink:href="#ArialMT-48"/>
      </g>
     </g>
    </g>
    <g id="ytick_6">
     <g id="line2d_15">
      <path clip-path="url(#p426ffad332)" d="M 99 100.633693 
L 712.8 100.633693 
" style="fill:none;stroke:#cccccc;stroke-linecap:round;stroke-width:0.8;"/>
     </g>
     <g id="text_16">
      <!-- 5000000 -->
      <g style="fill:#262626;" transform="translate(53.073437 104.212599)scale(0.1 -0.1)">
       <use xlink:href="#ArialMT-53"/>
       <use x="55.615234" xlink:href="#ArialMT-48"/>
       <use x="111.230469" xlink:href="#ArialMT-48"/>
       <use x="166.845703" xlink:href="#ArialMT-48"/>
       <use x="222.460938" xlink:href="#ArialMT-48"/>
       <use x="278.076172" xlink:href="#ArialMT-48"/>
       <use x="333.691406" xlink:href="#ArialMT-48"/>
      </g>
     </g>
    </g>
   </g>
   <g id="PolyCollection_1">
    <defs>
     <path d="M 126.9 -80.59095 
L 126.9 -80.448453 
L 128.441436 -80.506866 
L 129.982873 -80.643514 
L 131.524309 -80.964533 
L 133.065746 -81.548665 
L 134.607182 -81.561436 
L 136.148619 -81.080105 
L 137.690055 -80.725743 
L 139.231492 -80.549285 
L 140.772928 -80.476063 
L 142.314365 -80.45114 
L 143.855801 -80.416918 
L 145.397238 -80.426503 
L 146.938674 -80.410788 
L 148.48011 -80.408236 
L 150.021547 -80.427197 
L 151.562983 -80.41141 
L 153.10442 -80.395648 
L 154.645856 -80.392922 
L 156.187293 -80.40265 
L 157.728729 -80.371962 
L 159.270166 -80.384206 
L 160.811602 -80.377709 
L 162.353039 -80.377664 
L 163.894475 -80.385225 
L 165.435912 -80.382372 
L 166.977348 -80.377674 
L 168.518785 -80.408906 
L 170.060221 -80.397374 
L 171.601657 -80.392539 
L 173.143094 -80.386031 
L 174.68453 -80.371617 
L 176.225967 -80.386488 
L 177.767403 -80.37712 
L 179.30884 -80.385667 
L 180.850276 -80.382581 
L 182.391713 -80.373011 
L 183.933149 -80.374838 
L 185.474586 -80.383472 
L 187.016022 -80.388335 
L 188.557459 -80.388826 
L 190.098895 -80.383268 
L 191.640331 -80.389449 
L 193.181768 -80.389388 
L 194.723204 -80.389965 
L 196.264641 -80.39794 
L 197.806077 -80.385105 
L 199.347514 -80.385134 
L 200.88895 -80.39641 
L 202.430387 -80.397803 
L 203.971823 -80.379821 
L 205.51326 -80.38028 
L 207.054696 -80.387512 
L 208.596133 -80.383371 
L 210.137569 -80.387508 
L 211.679006 -80.404115 
L 213.220442 -80.384575 
L 214.761878 -80.388045 
L 216.303315 -80.400566 
L 217.844751 -80.397995 
L 219.386188 -80.382668 
L 220.927624 -80.38689 
L 222.469061 -80.38643 
L 224.010497 -80.373479 
L 225.551934 -80.379355 
L 227.09337 -80.388236 
L 228.634807 -80.383274 
L 230.176243 -80.405494 
L 231.71768 -80.40214 
L 233.259116 -80.404134 
L 234.800552 -80.412159 
L 236.341989 -80.401468 
L 237.883425 -80.394157 
L 239.424862 -80.377281 
L 240.966298 -80.375109 
L 242.507735 -80.402008 
L 244.049171 -80.390528 
L 245.590608 -80.394509 
L 247.132044 -80.417559 
L 248.673481 -80.408589 
L 250.214917 -80.392179 
L 251.756354 -80.393145 
L 253.29779 -80.396958 
L 254.839227 -80.391787 
L 256.380663 -80.392673 
L 257.922099 -80.404461 
L 259.463536 -80.39597 
L 261.004972 -80.402735 
L 262.546409 -80.396286 
L 264.087845 -80.389252 
L 265.629282 -80.380784 
L 267.170718 -80.366587 
L 268.712155 -80.372291 
L 270.253591 -80.386386 
L 271.795028 -80.381589 
L 273.336464 -80.382145 
L 274.877901 -80.392727 
L 276.419337 -80.40485 
L 277.960773 -80.386799 
L 279.50221 -80.376661 
L 281.043646 -80.395366 
L 282.585083 -80.376729 
L 284.126519 -80.412778 
L 285.667956 -80.415427 
L 287.209392 -80.394793 
L 288.750829 -80.405085 
L 290.292265 -80.405551 
L 291.833702 -80.392004 
L 293.375138 -80.400058 
L 294.916575 -80.392521 
L 296.458011 -80.40337 
L 297.999448 -80.399347 
L 299.540884 -80.394697 
L 301.08232 -80.403143 
L 302.623757 -80.418909 
L 304.165193 -80.397741 
L 305.70663 -80.403303 
L 307.248066 -80.424831 
L 308.789503 -80.439125 
L 310.330939 -80.423378 
L 311.872376 -80.426654 
L 313.413812 -80.419326 
L 314.955249 -80.408062 
L 316.496685 -80.406796 
L 318.038122 -80.416348 
L 319.579558 -80.414534 
L 321.120994 -80.41232 
L 322.662431 -80.420598 
L 324.203867 -80.412343 
L 325.745304 -80.469815 
L 327.28674 -80.466821 
L 328.828177 -80.417176 
L 330.369613 -80.39571 
L 331.91105 -80.403758 
L 333.452486 -80.426924 
L 334.993923 -80.437495 
L 336.535359 -80.455603 
L 338.076796 -80.471402 
L 339.618232 -80.475777 
L 341.159669 -80.458336 
L 342.701105 -80.453676 
L 344.242541 -80.454904 
L 345.783978 -80.440926 
L 347.325414 -80.462789 
L 348.866851 -80.464562 
L 350.408287 -80.476348 
L 351.949724 -80.499806 
L 353.49116 -80.514627 
L 355.032597 -80.529042 
L 356.574033 -80.508707 
L 358.11547 -80.506511 
L 359.656906 -80.517639 
L 361.198343 -80.530311 
L 362.739779 -80.545791 
L 364.281215 -80.571205 
L 365.822652 -80.610364 
L 367.364088 -80.635349 
L 368.905525 -80.66893 
L 370.446961 -80.695989 
L 371.988398 -80.726966 
L 373.529834 -80.767308 
L 375.071271 -80.77525 
L 376.612707 -80.831848 
L 378.154144 -80.916135 
L 379.69558 -80.973574 
L 381.237017 -81.07191 
L 382.778453 -81.225546 
L 384.31989 -81.495821 
L 385.861326 -81.849635 
L 387.402762 -82.54616 
L 388.944199 -85.088365 
L 390.485635 -89.422964 
L 392.027072 -86.619616 
L 393.568508 -84.697066 
L 395.109945 -84.597838 
L 396.651381 -85.623051 
L 398.192818 -88.076256 
L 399.734254 -93.776308 
L 401.275691 -103.788382 
L 402.817127 -126.085438 
L 404.358564 -223.941303 
L 405.9 -369.611125 
L 407.441436 -242.956349 
L 408.982873 -148.438411 
L 410.524309 -113.229183 
L 412.065746 -98.766289 
L 413.607182 -91.146577 
L 415.148619 -87.077818 
L 416.690055 -85.439083 
L 418.231492 -84.778828 
L 419.772928 -86.132327 
L 421.314365 -89.986562 
L 422.855801 -87.001913 
L 424.397238 -83.923992 
L 425.938674 -82.603624 
L 427.48011 -81.95721 
L 429.021547 -81.576406 
L 430.562983 -81.312884 
L 432.10442 -81.20778 
L 433.645856 -81.129071 
L 435.187293 -81.042833 
L 436.728729 -80.956082 
L 438.270166 -80.942697 
L 439.811602 -80.899975 
L 441.353039 -80.866828 
L 442.894475 -80.84464 
L 444.435912 -80.924065 
L 445.977348 -80.895714 
L 447.518785 -80.946265 
L 449.060221 -80.914262 
L 450.601657 -80.827991 
L 452.143094 -80.733384 
L 453.68453 -80.675644 
L 455.225967 -80.638642 
L 456.767403 -80.607288 
L 458.30884 -80.590216 
L 459.850276 -80.572871 
L 461.391713 -80.543037 
L 462.933149 -80.559497 
L 464.474586 -80.606113 
L 466.016022 -80.61071 
L 467.557459 -80.705965 
L 469.098895 -80.748264 
L 470.640331 -80.751564 
L 472.181768 -80.73291 
L 473.723204 -80.679163 
L 475.264641 -80.61436 
L 476.806077 -80.565297 
L 478.347514 -80.518801 
L 479.88895 -80.497737 
L 481.430387 -80.472275 
L 482.971823 -80.446032 
L 484.51326 -80.438782 
L 486.054696 -80.410324 
L 487.596133 -80.445949 
L 489.137569 -80.449718 
L 490.679006 -80.458699 
L 492.220442 -80.518819 
L 493.761878 -80.53213 
L 495.303315 -80.553949 
L 496.844751 -80.555442 
L 498.386188 -80.52587 
L 499.927624 -80.48833 
L 501.469061 -80.467009 
L 503.010497 -80.466458 
L 504.551934 -80.447051 
L 506.09337 -80.431005 
L 507.634807 -80.425799 
L 509.176243 -80.441319 
L 510.71768 -80.449513 
L 512.259116 -80.446305 
L 513.800552 -80.457284 
L 515.341989 -80.437315 
L 516.883425 -80.428371 
L 518.424862 -80.435083 
L 519.966298 -80.435756 
L 521.507735 -80.423523 
L 523.049171 -80.452373 
L 524.590608 -80.447195 
L 526.132044 -80.44913 
L 527.673481 -80.438104 
L 529.214917 -80.429462 
L 530.756354 -80.430286 
L 532.29779 -80.412614 
L 533.839227 -80.421293 
L 535.380663 -80.41423 
L 536.922099 -80.429707 
L 538.463536 -80.424634 
L 540.004972 -80.423237 
L 541.546409 -80.417394 
L 543.087845 -80.426457 
L 544.629282 -80.401356 
L 546.170718 -80.409658 
L 547.712155 -80.401075 
L 549.253591 -80.417397 
L 550.795028 -80.4173 
L 552.336464 -80.403063 
L 553.877901 -80.417738 
L 555.419337 -80.411502 
L 556.960773 -80.406421 
L 558.50221 -80.416317 
L 560.043646 -80.409098 
L 561.585083 -80.415225 
L 563.126519 -80.41386 
L 564.667956 -80.421888 
L 566.209392 -80.403178 
L 567.750829 -80.389301 
L 569.292265 -80.422471 
L 570.833702 -80.404119 
L 572.375138 -80.397126 
L 573.916575 -80.415056 
L 575.458011 -80.417854 
L 576.999448 -80.408455 
L 578.540884 -80.395885 
L 580.08232 -80.416071 
L 581.623757 -80.396607 
L 583.165193 -80.411646 
L 584.70663 -80.407973 
L 586.248066 -80.41516 
L 587.789503 -80.415931 
L 589.330939 -80.401814 
L 590.872376 -80.423279 
L 592.413812 -80.42094 
L 593.955249 -80.417909 
L 595.496685 -80.438334 
L 597.038122 -80.428029 
L 598.579558 -80.411237 
L 600.120994 -80.407535 
L 601.662431 -80.407017 
L 603.203867 -80.407091 
L 604.745304 -80.410324 
L 606.28674 -80.425699 
L 607.828177 -80.425523 
L 609.369613 -80.403191 
L 610.91105 -80.422831 
L 612.452486 -80.397209 
L 613.993923 -80.427294 
L 615.535359 -80.436566 
L 617.076796 -80.423581 
L 618.618232 -80.439765 
L 620.159669 -80.438731 
L 621.701105 -80.452197 
L 623.242541 -80.437649 
L 624.783978 -80.456098 
L 626.325414 -80.427834 
L 627.866851 -80.431399 
L 629.408287 -80.430637 
L 630.949724 -80.403209 
L 632.49116 -80.424811 
L 634.032597 -80.428625 
L 635.574033 -80.431679 
L 637.11547 -80.420535 
L 638.656906 -80.425199 
L 640.198343 -80.432549 
L 641.739779 -80.421239 
L 643.281215 -80.42844 
L 644.822652 -80.425368 
L 646.364088 -80.432841 
L 647.905525 -80.442333 
L 649.446961 -80.435087 
L 650.988398 -80.417403 
L 652.529834 -80.42794 
L 654.071271 -80.405521 
L 655.612707 -80.402442 
L 657.154144 -80.402033 
L 658.69558 -80.406881 
L 660.237017 -80.409743 
L 661.778453 -80.397014 
L 663.31989 -80.38365 
L 664.861326 -80.401904 
L 666.402762 -80.406815 
L 667.944199 -80.427385 
L 669.485635 -80.444076 
L 671.027072 -80.440591 
L 672.568508 -80.455966 
L 674.109945 -80.426969 
L 675.651381 -80.43373 
L 677.192818 -80.437266 
L 678.734254 -80.427724 
L 680.275691 -80.474441 
L 681.817127 -80.509933 
L 683.358564 -80.688792 
L 684.9 -81.130652 
L 684.9 -81.362264 
L 684.9 -81.362264 
L 683.358564 -80.871407 
L 681.817127 -80.699072 
L 680.275691 -80.640501 
L 678.734254 -80.596109 
L 677.192818 -80.575898 
L 675.651381 -80.578498 
L 674.109945 -80.603422 
L 672.568508 -80.611164 
L 671.027072 -80.595476 
L 669.485635 -80.590271 
L 667.944199 -80.573885 
L 666.402762 -80.569605 
L 664.861326 -80.564067 
L 663.31989 -80.570362 
L 661.778453 -80.573724 
L 660.237017 -80.573169 
L 658.69558 -80.560036 
L 657.154144 -80.562601 
L 655.612707 -80.56922 
L 654.071271 -80.553169 
L 652.529834 -80.580412 
L 650.988398 -80.568486 
L 649.446961 -80.56646 
L 647.905525 -80.590349 
L 646.364088 -80.587038 
L 644.822652 -80.591676 
L 643.281215 -80.597946 
L 641.739779 -80.583422 
L 640.198343 -80.598791 
L 638.656906 -80.571651 
L 637.11547 -80.576806 
L 635.574033 -80.574506 
L 634.032597 -80.558409 
L 632.49116 -80.572109 
L 630.949724 -80.568879 
L 629.408287 -80.564178 
L 627.866851 -80.570829 
L 626.325414 -80.591817 
L 624.783978 -80.595584 
L 623.242541 -80.599956 
L 621.701105 -80.583994 
L 620.159669 -80.622317 
L 618.618232 -80.598895 
L 617.076796 -80.586135 
L 615.535359 -80.591735 
L 613.993923 -80.576233 
L 612.452486 -80.573528 
L 610.91105 -80.561501 
L 609.369613 -80.573472 
L 607.828177 -80.562829 
L 606.28674 -80.557892 
L 604.745304 -80.579366 
L 603.203867 -80.575463 
L 601.662431 -80.564742 
L 600.120994 -80.559565 
L 598.579558 -80.565634 
L 597.038122 -80.574029 
L 595.496685 -80.561306 
L 593.955249 -80.568149 
L 592.413812 -80.573303 
L 590.872376 -80.584178 
L 589.330939 -80.575604 
L 587.789503 -80.565119 
L 586.248066 -80.578097 
L 584.70663 -80.561043 
L 583.165193 -80.543771 
L 581.623757 -80.546339 
L 580.08232 -80.556834 
L 578.540884 -80.554556 
L 576.999448 -80.561705 
L 575.458011 -80.56169 
L 573.916575 -80.555973 
L 572.375138 -80.571345 
L 570.833702 -80.558822 
L 569.292265 -80.54098 
L 567.750829 -80.55292 
L 566.209392 -80.565975 
L 564.667956 -80.559127 
L 563.126519 -80.570682 
L 561.585083 -80.5456 
L 560.043646 -80.581378 
L 558.50221 -80.577224 
L 556.960773 -80.593207 
L 555.419337 -80.570356 
L 553.877901 -80.585691 
L 552.336464 -80.584825 
L 550.795028 -80.563138 
L 549.253591 -80.562201 
L 547.712155 -80.59085 
L 546.170718 -80.588609 
L 544.629282 -80.611772 
L 543.087845 -80.614673 
L 541.546409 -80.57484 
L 540.004972 -80.568368 
L 538.463536 -80.570495 
L 536.922099 -80.581495 
L 535.380663 -80.573557 
L 533.839227 -80.575425 
L 532.29779 -80.588262 
L 530.756354 -80.578516 
L 529.214917 -80.58872 
L 527.673481 -80.594664 
L 526.132044 -80.593203 
L 524.590608 -80.601438 
L 523.049171 -80.606038 
L 521.507735 -80.605104 
L 519.966298 -80.599388 
L 518.424862 -80.602418 
L 516.883425 -80.593907 
L 515.341989 -80.595657 
L 513.800552 -80.593753 
L 512.259116 -80.591882 
L 510.71768 -80.590348 
L 509.176243 -80.589763 
L 507.634807 -80.586391 
L 506.09337 -80.589972 
L 504.551934 -80.61305 
L 503.010497 -80.612393 
L 501.469061 -80.615181 
L 499.927624 -80.668261 
L 498.386188 -80.687099 
L 496.844751 -80.718289 
L 495.303315 -80.728612 
L 493.761878 -80.695528 
L 492.220442 -80.68162 
L 490.679006 -80.663798 
L 489.137569 -80.68896 
L 487.596133 -80.675406 
L 486.054696 -80.713707 
L 484.51326 -80.735497 
L 482.971823 -80.701394 
L 481.430387 -80.707922 
L 479.88895 -80.736564 
L 478.347514 -80.757201 
L 476.806077 -80.773621 
L 475.264641 -80.839904 
L 473.723204 -80.915492 
L 472.181768 -80.962829 
L 470.640331 -81.01502 
L 469.098895 -81.0159 
L 467.557459 -80.952322 
L 466.016022 -80.882556 
L 464.474586 -80.829693 
L 462.933149 -80.793321 
L 461.391713 -80.79365 
L 459.850276 -80.815772 
L 458.30884 -80.83944 
L 456.767403 -80.853167 
L 455.225967 -80.867486 
L 453.68453 -80.954644 
L 452.143094 -80.999116 
L 450.601657 -81.114422 
L 449.060221 -81.140794 
L 447.518785 -81.200151 
L 445.977348 -81.210136 
L 444.435912 -81.194428 
L 442.894475 -81.184946 
L 441.353039 -81.196173 
L 439.811602 -81.194837 
L 438.270166 -81.277987 
L 436.728729 -81.314529 
L 435.187293 -81.392966 
L 433.645856 -81.532624 
L 432.10442 -81.639043 
L 430.562983 -81.842898 
L 429.021547 -82.148163 
L 427.48011 -82.637637 
L 425.938674 -83.307808 
L 424.397238 -84.97009 
L 422.855801 -88.576221 
L 421.314365 -91.596291 
L 419.772928 -87.720613 
L 418.231492 -86.602514 
L 416.690055 -87.580866 
L 415.148619 -90.089204 
L 413.607182 -95.416323 
L 412.065746 -104.702573 
L 410.524309 -121.231202 
L 408.982873 -164.633861 
L 407.441436 -282.769799 
L 405.9 -426.223636 
L 404.358564 -283.708143 
L 402.817127 -147.586711 
L 401.275691 -112.546698 
L 399.734254 -99.103684 
L 398.192818 -92.631077 
L 396.651381 -88.000346 
L 395.109945 -86.159133 
L 393.568508 -86.044171 
L 392.027072 -88.057693 
L 390.485635 -90.867522 
L 388.944199 -86.899982 
L 387.402762 -83.638726 
L 385.861326 -82.587613 
L 384.31989 -82.131325 
L 382.778453 -81.754342 
L 381.237017 -81.502824 
L 379.69558 -81.328856 
L 378.154144 -81.186182 
L 376.612707 -81.148557 
L 375.071271 -81.090084 
L 373.529834 -81.060689 
L 371.988398 -80.988521 
L 370.446961 -80.9637 
L 368.905525 -80.931504 
L 367.364088 -80.893342 
L 365.822652 -80.829298 
L 364.281215 -80.805076 
L 362.739779 -80.797828 
L 361.198343 -80.756351 
L 359.656906 -80.760109 
L 358.11547 -80.768901 
L 356.574033 -80.751239 
L 355.032597 -80.724659 
L 353.49116 -80.747447 
L 351.949724 -80.757182 
L 350.408287 -80.714261 
L 348.866851 -80.6699 
L 347.325414 -80.663166 
L 345.783978 -80.665713 
L 344.242541 -80.667755 
L 342.701105 -80.668722 
L 341.159669 -80.659978 
L 339.618232 -80.662411 
L 338.076796 -80.66023 
L 336.535359 -80.623456 
L 334.993923 -80.624563 
L 333.452486 -80.624787 
L 331.91105 -80.631722 
L 330.369613 -80.649088 
L 328.828177 -80.702228 
L 327.28674 -80.74917 
L 325.745304 -80.752228 
L 324.203867 -80.665949 
L 322.662431 -80.619425 
L 321.120994 -80.624919 
L 319.579558 -80.585042 
L 318.038122 -80.571419 
L 316.496685 -80.566218 
L 314.955249 -80.587952 
L 313.413812 -80.586227 
L 311.872376 -80.576952 
L 310.330939 -80.587717 
L 308.789503 -80.578456 
L 307.248066 -80.577693 
L 305.70663 -80.567475 
L 304.165193 -80.557653 
L 302.623757 -80.564726 
L 301.08232 -80.579736 
L 299.540884 -80.545849 
L 297.999448 -80.563559 
L 296.458011 -80.558713 
L 294.916575 -80.574128 
L 293.375138 -80.580743 
L 291.833702 -80.555511 
L 290.292265 -80.552929 
L 288.750829 -80.552575 
L 287.209392 -80.556156 
L 285.667956 -80.568377 
L 284.126519 -80.582745 
L 282.585083 -80.556179 
L 281.043646 -80.558856 
L 279.50221 -80.547007 
L 277.960773 -80.541863 
L 276.419337 -80.54922 
L 274.877901 -80.552629 
L 273.336464 -80.54657 
L 271.795028 -80.530648 
L 270.253591 -80.567842 
L 268.712155 -80.567616 
L 267.170718 -80.582143 
L 265.629282 -80.608195 
L 264.087845 -80.571522 
L 262.546409 -80.572699 
L 261.004972 -80.556959 
L 259.463536 -80.547013 
L 257.922099 -80.542459 
L 256.380663 -80.545922 
L 254.839227 -80.539164 
L 253.29779 -80.541508 
L 251.756354 -80.549414 
L 250.214917 -80.527267 
L 248.673481 -80.551548 
L 247.132044 -80.545915 
L 245.590608 -80.529965 
L 244.049171 -80.531122 
L 242.507735 -80.54353 
L 240.966298 -80.548137 
L 239.424862 -80.530887 
L 237.883425 -80.542493 
L 236.341989 -80.552631 
L 234.800552 -80.567617 
L 233.259116 -80.5593 
L 231.71768 -80.552237 
L 230.176243 -80.552071 
L 228.634807 -80.542282 
L 227.09337 -80.528969 
L 225.551934 -80.518403 
L 224.010497 -80.529304 
L 222.469061 -80.541523 
L 220.927624 -80.525513 
L 219.386188 -80.53881 
L 217.844751 -80.537527 
L 216.303315 -80.540046 
L 214.761878 -80.537376 
L 213.220442 -80.546273 
L 211.679006 -80.534157 
L 210.137569 -80.55576 
L 208.596133 -80.533792 
L 207.054696 -80.535503 
L 205.51326 -80.551268 
L 203.971823 -80.534805 
L 202.430387 -80.547531 
L 200.88895 -80.542632 
L 199.347514 -80.55934 
L 197.806077 -80.53571 
L 196.264641 -80.528528 
L 194.723204 -80.520276 
L 193.181768 -80.522928 
L 191.640331 -80.530226 
L 190.098895 -80.527358 
L 188.557459 -80.531292 
L 187.016022 -80.520855 
L 185.474586 -80.522715 
L 183.933149 -80.534642 
L 182.391713 -80.546057 
L 180.850276 -80.521376 
L 179.30884 -80.510432 
L 177.767403 -80.517957 
L 176.225967 -80.534083 
L 174.68453 -80.519131 
L 173.143094 -80.526836 
L 171.601657 -80.522377 
L 170.060221 -80.533802 
L 168.518785 -80.539418 
L 166.977348 -80.531467 
L 165.435912 -80.522264 
L 163.894475 -80.517481 
L 162.353039 -80.528033 
L 160.811602 -80.532107 
L 159.270166 -80.515083 
L 157.728729 -80.525149 
L 156.187293 -80.53148 
L 154.645856 -80.540763 
L 153.10442 -80.537397 
L 151.562983 -80.547251 
L 150.021547 -80.572819 
L 148.48011 -80.564231 
L 146.938674 -80.551035 
L 145.397238 -80.54216 
L 143.855801 -80.566456 
L 142.314365 -80.591207 
L 140.772928 -80.627005 
L 139.231492 -80.700082 
L 137.690055 -80.902648 
L 136.148619 -81.319264 
L 134.607182 -81.821533 
L 133.065746 -81.765219 
L 131.524309 -81.204931 
L 129.982873 -80.787432 
L 128.441436 -80.649835 
L 126.9 -80.59095 
z
" id="m8636e5de2c" style="stroke:#00664c;stroke-opacity:0.2;"/>
    </defs>
    <g clip-path="url(#p426ffad332)">
     <use style="fill:#00664c;fill-opacity:0.2;stroke:#00664c;stroke-opacity:0.2;" x="0" xlink:href="#m8636e5de2c" y="504"/>
    </g>
   </g>
   <g id="line2d_16">
    <path clip-path="url(#p426ffad332)" d="M 126.9 423.479639 
L 129.982873 423.293309 
L 131.524309 422.904249 
L 133.065746 422.357268 
L 134.607182 422.28902 
L 137.690055 423.195728 
L 140.772928 423.445302 
L 146.938674 423.51848 
L 179.30884 423.554353 
L 267.170718 423.513371 
L 273.336464 423.531528 
L 299.540884 423.513208 
L 324.203867 423.466765 
L 327.28674 423.38293 
L 331.91105 423.47311 
L 365.822652 423.280543 
L 379.69558 422.855942 
L 382.778453 422.49757 
L 384.31989 422.229075 
L 385.861326 421.804779 
L 387.402762 420.988713 
L 388.944199 418.141261 
L 390.485635 413.886699 
L 392.027072 416.589611 
L 393.568508 418.63262 
L 395.109945 418.666951 
L 396.651381 417.400614 
L 398.192818 414.205051 
L 399.734254 408.469035 
L 401.275691 396.683589 
L 402.817127 369.762675 
L 404.358564 249.968197 
L 405.9 102.865261 
L 407.441436 242.100446 
L 408.982873 348.192765 
L 410.524309 386.887223 
L 412.065746 402.245158 
L 413.607182 411.104899 
L 415.148619 415.615121 
L 416.690055 417.671342 
L 418.231492 418.441404 
L 419.772928 416.995777 
L 421.314365 413.158267 
L 422.855801 416.12103 
L 424.397238 419.574062 
L 425.938674 421.062524 
L 427.48011 421.729473 
L 429.021547 422.154012 
L 432.10442 422.578064 
L 436.728729 422.840987 
L 442.894475 422.969205 
L 449.060221 422.949213 
L 455.225967 423.236682 
L 462.933149 423.318807 
L 472.181768 423.154424 
L 478.347514 423.374146 
L 490.679006 423.437021 
L 498.386188 423.39226 
L 507.634807 423.487392 
L 530.756354 423.484403 
L 556.960773 423.515786 
L 580.08232 423.519744 
L 601.662431 423.513529 
L 624.783978 423.47147 
L 634.032597 423.513528 
L 649.446961 423.488118 
L 661.778453 423.521677 
L 681.817127 423.395659 
L 683.358564 423.21269 
L 684.9 422.759606 
L 684.9 422.759606 
" style="fill:none;stroke:#75b5a1;stroke-linecap:round;stroke-width:1.5;"/>
   </g>
   <g id="line2d_17">
    <path clip-path="url(#p426ffad332)" d="M 126.9 423.464561 
L 129.982873 423.227415 
L 133.065746 422.437516 
L 134.607182 422.453455 
L 139.231492 423.32097 
L 140.772928 423.443706 
L 150.021547 423.514339 
L 156.187293 423.501097 
L 165.435912 423.559419 
L 171.601657 423.602531 
L 173.143094 423.496674 
L 179.30884 423.54465 
L 224.010497 423.497113 
L 227.09337 423.55704 
L 234.800552 423.504211 
L 239.424862 423.545007 
L 253.29779 423.568894 
L 254.839227 423.45233 
L 257.922099 423.490127 
L 261.004972 423.562763 
L 262.546409 423.570399 
L 264.087845 423.431568 
L 299.540884 423.564735 
L 304.165193 423.457011 
L 316.496685 423.393723 
L 324.203867 423.443427 
L 325.745304 423.197216 
L 327.28674 423.247315 
L 328.828177 423.452433 
L 336.535359 423.48142 
L 339.618232 423.423574 
L 347.325414 423.450223 
L 356.574033 423.497821 
L 359.656906 423.363377 
L 362.739779 423.293985 
L 364.281215 423.321536 
L 365.822652 423.219402 
L 367.364088 423.306321 
L 368.905525 423.202427 
L 371.988398 423.208687 
L 382.778453 422.373505 
L 384.31989 421.948126 
L 385.861326 421.282001 
L 387.402762 419.991776 
L 390.485635 414.493209 
L 392.027072 416.044678 
L 393.568508 417.370328 
L 395.109945 416.959888 
L 396.651381 415.074673 
L 398.192818 410.267515 
L 399.734254 401.28951 
L 401.275691 384.711671 
L 402.817127 344.822981 
L 404.358564 235.366303 
L 405.9 156.50574 
L 407.441436 261.492748 
L 408.982873 350.092948 
L 410.524309 385.980221 
L 412.065746 401.126849 
L 413.607182 408.96383 
L 415.148619 413.381828 
L 416.690055 415.948499 
L 418.231492 416.971438 
L 419.772928 415.687735 
L 421.314365 413.674128 
L 422.855801 416.361887 
L 424.397238 419.33952 
L 425.938674 420.774461 
L 427.48011 421.459481 
L 429.021547 421.866996 
L 432.10442 422.353602 
L 436.728729 422.637656 
L 438.270166 422.681549 
L 439.811602 422.888119 
L 444.435912 422.878719 
L 447.518785 422.803056 
L 450.601657 423.079763 
L 452.143094 423.176589 
L 453.68453 423.094854 
L 458.30884 423.125013 
L 462.933149 423.287676 
L 466.016022 423.329376 
L 470.640331 423.191322 
L 476.806077 423.308647 
L 478.347514 423.445011 
L 486.054696 423.453401 
L 489.137569 423.440178 
L 493.761878 423.410055 
L 501.469061 423.42286 
L 504.551934 423.512115 
L 506.09337 423.378165 
L 510.71768 423.469452 
L 515.341989 423.424288 
L 519.966298 423.444872 
L 526.132044 423.462477 
L 529.214917 423.489548 
L 535.380663 423.466554 
L 546.170718 423.515843 
L 547.712155 423.399214 
L 552.336464 423.494504 
L 556.960773 423.496792 
L 558.50221 423.596493 
L 561.585083 423.48079 
L 564.667956 423.563161 
L 570.833702 423.468382 
L 572.375138 423.553893 
L 578.540884 423.508836 
L 580.08232 423.568705 
L 584.70663 423.435811 
L 590.872376 423.492889 
L 600.120994 423.599529 
L 601.662431 423.534896 
L 604.745304 423.611719 
L 610.91105 423.469899 
L 620.159669 423.467036 
L 623.242541 423.467433 
L 627.866851 423.593357 
L 632.49116 423.583471 
L 634.032597 423.517717 
L 637.11547 423.591262 
L 640.198343 423.479391 
L 644.822652 423.4916 
L 655.612707 423.508568 
L 663.31989 423.553568 
L 666.402762 423.407791 
L 678.734254 423.467804 
L 683.358564 423.126826 
L 684.9 422.725653 
L 684.9 422.725653 
" style="fill:none;stroke:#cc0d03;stroke-linecap:round;stroke-opacity:0.7;stroke-width:1.5;"/>
   </g>
   <g id="line2d_18">
    <path clip-path="url(#p426ffad332)" d="M 126.9 423.506149 
L 128.441436 423.537971 
L 129.982873 423.318098 
L 131.524309 422.952954 
L 133.065746 422.445619 
L 134.607182 422.329569 
L 136.148619 422.814789 
L 137.690055 423.144123 
L 142.314365 423.498447 
L 156.187293 423.510789 
L 157.728729 423.459418 
L 162.353039 423.61193 
L 163.894475 423.516712 
L 165.435912 423.56877 
L 168.518785 423.488799 
L 194.723204 423.54333 
L 197.806077 423.465746 
L 214.761878 423.491188 
L 216.303315 423.428827 
L 220.927624 423.529164 
L 222.469061 423.470803 
L 227.09337 423.630897 
L 228.634807 423.520226 
L 231.71768 423.5476 
L 240.966298 423.561718 
L 250.214917 423.51984 
L 259.463536 423.561216 
L 262.546409 423.422394 
L 265.629282 423.54358 
L 270.253591 423.60778 
L 271.795028 423.513409 
L 273.336464 423.637214 
L 277.960773 423.513162 
L 281.043646 423.549902 
L 290.292265 423.541782 
L 293.375138 423.703636 
L 296.458011 423.53203 
L 301.08232 423.478754 
L 305.70663 423.577838 
L 313.413812 423.508147 
L 319.579558 423.582985 
L 321.120994 423.42537 
L 324.203867 423.381709 
L 325.745304 423.464822 
L 327.28674 423.339561 
L 330.369613 423.379642 
L 331.91105 423.490768 
L 336.535359 423.481455 
L 339.618232 423.500114 
L 342.701105 423.368697 
L 345.783978 423.434495 
L 356.574033 423.38194 
L 361.198343 423.420394 
L 365.822652 423.28688 
L 368.905525 423.362679 
L 376.612707 423.054752 
L 381.237017 422.897057 
L 384.31989 422.316263 
L 385.861326 421.82012 
L 387.402762 420.909829 
L 388.944199 417.987782 
L 390.485635 414.807158 
L 393.568508 418.691334 
L 395.109945 418.757914 
L 396.651381 417.642179 
L 398.192818 414.854852 
L 399.734254 409.264832 
L 401.275691 396.627721 
L 402.817127 357.969394 
L 405.9 140.741924 
L 408.982873 345.435556 
L 410.524309 384.330836 
L 412.065746 399.314236 
L 413.607182 408.363079 
L 415.148619 414.019674 
L 416.690055 416.72053 
L 418.231492 417.567184 
L 419.772928 416.281274 
L 421.314365 413.924456 
L 422.855801 416.232875 
L 424.397238 419.340916 
L 425.938674 420.822467 
L 427.48011 421.505076 
L 429.021547 421.954525 
L 432.10442 422.540396 
L 436.728729 422.797857 
L 455.225967 423.156746 
L 458.30884 423.312313 
L 459.850276 423.341779 
L 461.391713 423.195712 
L 462.933149 423.336009 
L 472.181768 423.144586 
L 484.51326 423.461543 
L 487.596133 423.419697 
L 490.679006 423.489029 
L 495.303315 423.369147 
L 504.551934 423.549235 
L 509.176243 423.410575 
L 515.341989 423.52029 
L 533.839227 423.554087 
L 538.463536 423.390241 
L 541.546409 423.434934 
L 544.629282 423.437387 
L 547.712155 423.502148 
L 550.795028 423.533225 
L 552.336464 423.405242 
L 556.960773 423.570433 
L 558.50221 423.46131 
L 563.126519 423.511213 
L 569.292265 423.473183 
L 575.458011 423.498855 
L 576.999448 423.600073 
L 589.330939 423.531165 
L 598.579558 423.559019 
L 601.662431 423.43687 
L 649.446961 423.515401 
L 655.612707 423.588394 
L 660.237017 423.652094 
L 666.402762 423.500977 
L 675.651381 423.475346 
L 678.734254 423.523252 
L 683.358564 423.2178 
L 684.9 422.769576 
L 684.9 422.769576 
" style="fill:none;stroke:#cc0d03;stroke-linecap:round;stroke-opacity:0.7;stroke-width:1.5;"/>
   </g>
   <g id="line2d_19">
    <path clip-path="url(#p426ffad332)" d="M 126.9 423.48167 
L 128.441436 423.416778 
L 131.524309 422.911113 
L 133.065746 422.4751 
L 134.607182 422.44453 
L 139.231492 423.335807 
L 143.855801 423.556478 
L 153.10442 423.500416 
L 156.187293 423.597876 
L 180.850276 423.509967 
L 193.181768 423.578605 
L 213.220442 423.518722 
L 216.303315 423.58586 
L 222.469061 423.540134 
L 225.551934 423.617899 
L 227.09337 423.492059 
L 231.71768 423.467923 
L 236.341989 423.441961 
L 237.883425 423.593706 
L 240.966298 423.533236 
L 248.673481 423.494257 
L 250.214917 423.387037 
L 254.839227 423.463072 
L 261.004972 423.458302 
L 265.629282 423.461323 
L 268.712155 423.63132 
L 274.877901 423.476123 
L 277.960773 423.583855 
L 279.50221 423.509325 
L 282.585083 423.530191 
L 284.126519 423.456222 
L 287.209392 423.607236 
L 290.292265 423.568221 
L 291.833702 423.612362 
L 294.916575 423.454431 
L 299.540884 423.568863 
L 304.165193 423.482588 
L 305.70663 423.575936 
L 308.789503 423.515407 
L 311.872376 423.577452 
L 314.955249 423.413204 
L 321.120994 423.421976 
L 333.452486 423.46403 
L 336.535359 423.400895 
L 339.618232 423.524701 
L 350.408287 423.421045 
L 351.949724 423.452947 
L 353.49116 423.369031 
L 358.11547 423.503025 
L 364.281215 423.28714 
L 365.822652 423.393741 
L 373.529834 423.202853 
L 381.237017 422.618286 
L 382.778453 422.235446 
L 384.31989 421.970701 
L 385.861326 421.560787 
L 387.402762 420.316724 
L 388.944199 417.218389 
L 390.485635 414.456324 
L 392.027072 416.334827 
L 393.568508 417.855327 
L 395.109945 417.453932 
L 396.651381 415.785567 
L 398.192818 411.933101 
L 399.734254 405.035472 
L 401.275691 391.382911 
L 402.817127 355.512228 
L 404.358564 241.488562 
L 405.9 151.273066 
L 407.441436 255.68331 
L 408.982873 347.486397 
L 410.524309 384.864839 
L 412.065746 399.80112 
L 413.607182 408.646684 
L 415.148619 414.084478 
L 416.690055 416.718109 
L 418.231492 417.539767 
L 419.772928 416.308921 
L 421.314365 414.121201 
L 422.855801 416.626349 
L 424.397238 419.461057 
L 425.938674 420.911333 
L 427.48011 421.545054 
L 430.562983 422.244166 
L 438.270166 422.720971 
L 439.811602 422.824326 
L 447.518785 422.803023 
L 452.143094 423.012599 
L 458.30884 423.209976 
L 464.474586 423.179839 
L 470.640331 423.042833 
L 481.430387 423.340709 
L 484.51326 423.364879 
L 493.761878 423.371054 
L 496.844751 423.357132 
L 523.049171 423.435429 
L 529.214917 423.510582 
L 533.839227 423.570021 
L 538.463536 423.532726 
L 549.253591 423.470824 
L 550.795028 423.58943 
L 556.960773 423.528749 
L 560.043646 423.523516 
L 567.750829 423.467961 
L 570.833702 423.491057 
L 580.08232 423.517741 
L 583.165193 423.548228 
L 586.248066 423.552056 
L 587.789503 423.657799 
L 590.872376 423.489215 
L 595.496685 423.477194 
L 600.120994 423.583005 
L 606.28674 423.435925 
L 613.993923 423.493471 
L 638.656906 423.441419 
L 640.198343 423.391242 
L 641.739779 423.474161 
L 644.822652 423.355208 
L 649.446961 423.482177 
L 650.988398 423.43158 
L 655.612707 423.519204 
L 657.154144 423.561238 
L 658.69558 423.476705 
L 661.778453 423.624625 
L 664.861326 423.551119 
L 667.944199 423.514428 
L 671.027072 423.53049 
L 678.734254 423.469092 
L 681.817127 423.350101 
L 683.358564 423.153429 
L 684.9 422.768822 
L 684.9 422.768822 
" style="fill:none;stroke:#cc0d03;stroke-linecap:round;stroke-opacity:0.7;stroke-width:1.5;"/>
   </g>
   <g id="line2d_20">
    <path clip-path="url(#p426ffad332)" d="M 126.9 423.492302 
L 129.982873 423.199928 
L 133.065746 422.52155 
L 134.607182 422.544914 
L 136.148619 422.942037 
L 139.231492 423.310454 
L 142.314365 423.464653 
L 148.48011 423.477364 
L 153.10442 423.508309 
L 157.728729 423.568259 
L 182.391713 423.423658 
L 183.933149 423.360224 
L 187.016022 423.572105 
L 190.098895 423.527779 
L 193.181768 423.478131 
L 207.054696 423.480392 
L 210.137569 423.515051 
L 217.844751 423.558373 
L 222.469061 423.496777 
L 225.551934 423.558232 
L 230.176243 423.467014 
L 233.259116 423.43731 
L 236.341989 423.524314 
L 240.966298 423.566434 
L 244.049171 423.450704 
L 245.590608 423.579165 
L 250.214917 423.524935 
L 287.209392 423.422134 
L 290.292265 423.503332 
L 301.08232 423.556541 
L 302.623757 423.507465 
L 304.165193 423.583931 
L 305.70663 423.448195 
L 308.789503 423.51434 
L 313.413812 423.518374 
L 319.579558 423.51022 
L 358.11547 423.127673 
L 361.198343 423.154963 
L 368.905525 423.203755 
L 373.529834 422.890903 
L 381.237017 422.266949 
L 384.31989 421.625201 
L 385.861326 421.026117 
L 387.402762 419.85795 
L 388.944199 416.853261 
L 390.485635 414.614621 
L 392.027072 415.763317 
L 393.568508 416.714038 
L 395.109945 416.063205 
L 396.651381 414.124129 
L 398.192818 410.190731 
L 399.734254 402.028326 
L 401.275691 384.672139 
L 402.817127 346.309293 
L 404.358564 242.847422 
L 405.9 187.612132 
L 408.982873 352.906797 
L 410.524309 385.058783 
L 412.065746 398.817168 
L 413.607182 407.410136 
L 415.148619 412.804004 
L 416.690055 415.322365 
L 418.231492 416.250716 
L 421.314365 414.017329 
L 422.855801 415.991816 
L 424.397238 418.67546 
L 425.938674 420.063382 
L 429.021547 421.2796 
L 432.10442 421.900078 
L 436.728729 422.220029 
L 439.811602 422.412524 
L 442.894475 422.360245 
L 447.518785 422.522472 
L 455.225967 423.065627 
L 458.30884 423.139827 
L 461.391713 423.176983 
L 462.933149 423.035587 
L 472.181768 423.095965 
L 478.347514 423.23753 
L 489.137569 423.358655 
L 493.761878 423.182838 
L 495.303315 423.280217 
L 501.469061 423.303553 
L 504.551934 423.303077 
L 506.09337 423.289789 
L 509.176243 423.415065 
L 510.71768 423.290065 
L 516.883425 423.464072 
L 518.424862 423.357365 
L 523.049171 423.486574 
L 527.673481 423.392637 
L 530.756354 423.42649 
L 538.463536 423.408939 
L 543.087845 423.539612 
L 546.170718 423.412667 
L 556.960773 423.477006 
L 560.043646 423.429727 
L 563.126519 423.556867 
L 566.209392 423.466081 
L 570.833702 423.512677 
L 572.375138 423.389813 
L 575.458011 423.524941 
L 592.413812 423.464522 
L 595.496685 423.501245 
L 620.159669 423.495951 
L 634.032597 423.521712 
L 637.11547 423.559975 
L 638.656906 423.588589 
L 640.198343 423.442161 
L 647.905525 423.496706 
L 661.778453 423.507837 
L 672.568508 423.509114 
L 674.109945 423.401789 
L 675.651381 423.476148 
L 677.192818 423.394662 
L 680.275691 423.413128 
L 683.358564 423.057319 
L 684.9 422.689683 
L 684.9 422.689683 
" style="fill:none;stroke:#cc0d03;stroke-linecap:round;stroke-opacity:0.7;stroke-width:1.5;"/>
   </g>
   <g id="line2d_21">
    <path clip-path="url(#p426ffad332)" d="M 405.759869 441 
L 405.759869 60.48 
" style="fill:none;stroke:#1a1a1a;stroke-dasharray:5.55,2.4;stroke-dashoffset:0;stroke-width:1.5;"/>
   </g>
   <g id="patch_3">
    <path d="M 99 441 
L 99 60.48 
" style="fill:none;stroke:#cccccc;stroke-linecap:square;stroke-linejoin:miter;stroke-width:0.8;"/>
   </g>
   <g id="patch_4">
    <path d="M 712.8 441 
L 712.8 60.48 
" style="fill:none;stroke:#cccccc;stroke-linecap:square;stroke-linejoin:miter;stroke-width:0.8;"/>
   </g>
   <g id="patch_5">
    <path d="M 99 441 
L 712.8 441 
" style="fill:none;stroke:#cccccc;stroke-linecap:square;stroke-linejoin:miter;stroke-width:0.8;"/>
   </g>
   <g id="patch_6">
    <path d="M 99 60.48 
L 712.8 60.48 
" style="fill:none;stroke:#cccccc;stroke-linecap:square;stroke-linejoin:miter;stroke-width:0.8;"/>
   </g>
   <g id="legend_1">
    <g id="patch_7">
     <path d="M 407.582813 139.206563 
L 705.8 139.206563 
Q 707.8 139.206563 707.8 137.206563 
L 707.8 67.48 
Q 707.8 65.48 705.8 65.48 
L 407.582813 65.48 
Q 405.582813 65.48 405.582813 67.48 
L 405.582813 137.206563 
Q 405.582813 139.206563 407.582813 139.206563 
z
" style="fill:#ffffff;opacity:0.8;stroke:#cccccc;stroke-linejoin:miter;"/>
    </g>
    <g id="line2d_22">
     <path d="M 409.582813 73.137812 
L 429.582813 73.137812 
" style="fill:none;stroke:#cc0d03;stroke-linecap:round;stroke-opacity:0.7;stroke-width:1.5;"/>
    </g>
    <g id="line2d_23"/>
    <g id="text_17">
     <!-- Exceeded threshold: DEVSET U 1D NMR raw data files/560 -->
     <defs>
      <path d="M 7.90625 0 
L 7.90625 71.578125 
L 59.671875 71.578125 
L 59.671875 63.140625 
L 17.390625 63.140625 
L 17.390625 41.21875 
L 56.984375 41.21875 
L 56.984375 32.8125 
L 17.390625 32.8125 
L 17.390625 8.453125 
L 61.328125 8.453125 
L 61.328125 0 
z
" id="ArialMT-69"/>
      <path d="M 0.734375 0 
L 19.671875 26.953125 
L 2.15625 51.859375 
L 13.140625 51.859375 
L 21.09375 39.703125 
Q 23.34375 36.234375 24.703125 33.890625 
Q 26.859375 37.109375 28.65625 39.59375 
L 37.40625 51.859375 
L 47.90625 51.859375 
L 29.984375 27.4375 
L 49.265625 0 
L 38.484375 0 
L 27.828125 16.109375 
L 25 20.453125 
L 11.375 0 
z
" id="ArialMT-120"/>
      <path d="M 40.4375 19 
L 49.078125 17.875 
Q 47.65625 8.9375 41.8125 3.875 
Q 35.984375 -1.171875 27.484375 -1.171875 
Q 16.84375 -1.171875 10.375 5.78125 
Q 3.90625 12.75 3.90625 25.734375 
Q 3.90625 34.125 6.6875 40.421875 
Q 9.46875 46.734375 15.15625 49.875 
Q 20.84375 53.03125 27.546875 53.03125 
Q 35.984375 53.03125 41.359375 48.75 
Q 46.734375 44.484375 48.25 36.625 
L 39.703125 35.296875 
Q 38.484375 40.53125 35.375 43.15625 
Q 32.28125 45.796875 27.875 45.796875 
Q 21.234375 45.796875 17.078125 41.03125 
Q 12.9375 36.28125 12.9375 25.984375 
Q 12.9375 15.53125 16.9375 10.796875 
Q 20.953125 6.0625 27.390625 6.0625 
Q 32.5625 6.0625 36.03125 9.234375 
Q 39.5 12.40625 40.4375 19 
z
" id="ArialMT-99"/>
      <path d="M 42.09375 16.703125 
L 51.171875 15.578125 
Q 49.03125 7.625 43.21875 3.21875 
Q 37.40625 -1.171875 28.375 -1.171875 
Q 17 -1.171875 10.328125 5.828125 
Q 3.65625 12.84375 3.65625 25.484375 
Q 3.65625 38.578125 10.390625 45.796875 
Q 17.140625 53.03125 27.875 53.03125 
Q 38.28125 53.03125 44.875 45.953125 
Q 51.46875 38.875 51.46875 26.03125 
Q 51.46875 25.25 51.421875 23.6875 
L 12.75 23.6875 
Q 13.234375 15.140625 17.578125 10.59375 
Q 21.921875 6.0625 28.421875 6.0625 
Q 33.25 6.0625 36.671875 8.59375 
Q 40.09375 11.140625 42.09375 16.703125 
z
M 13.234375 30.90625 
L 42.1875 30.90625 
Q 41.609375 37.453125 38.875 40.71875 
Q 34.671875 45.796875 27.984375 45.796875 
Q 21.921875 45.796875 17.796875 41.75 
Q 13.671875 37.703125 13.234375 30.90625 
z
" id="ArialMT-101"/>
      <path d="M 40.234375 0 
L 40.234375 6.546875 
Q 35.296875 -1.171875 25.734375 -1.171875 
Q 19.53125 -1.171875 14.328125 2.25 
Q 9.125 5.671875 6.265625 11.796875 
Q 3.421875 17.921875 3.421875 25.875 
Q 3.421875 33.640625 6 39.96875 
Q 8.59375 46.296875 13.765625 49.65625 
Q 18.953125 53.03125 25.34375 53.03125 
Q 30.03125 53.03125 33.6875 51.046875 
Q 37.359375 49.078125 39.65625 45.90625 
L 39.65625 71.578125 
L 48.390625 71.578125 
L 48.390625 0 
z
M 12.453125 25.875 
Q 12.453125 15.921875 16.640625 10.984375 
Q 20.84375 6.0625 26.5625 6.0625 
Q 32.328125 6.0625 36.34375 10.765625 
Q 40.375 15.484375 40.375 25.140625 
Q 40.375 35.796875 36.265625 40.765625 
Q 32.171875 45.75 26.171875 45.75 
Q 20.3125 45.75 16.375 40.96875 
Q 12.453125 36.1875 12.453125 25.875 
z
" id="ArialMT-100"/>
      <path id="ArialMT-32"/>
      <path d="M 25.78125 7.859375 
L 27.046875 0.09375 
Q 23.34375 -0.6875 20.40625 -0.6875 
Q 15.625 -0.6875 12.984375 0.828125 
Q 10.359375 2.34375 9.28125 4.8125 
Q 8.203125 7.28125 8.203125 15.1875 
L 8.203125 45.015625 
L 1.765625 45.015625 
L 1.765625 51.859375 
L 8.203125 51.859375 
L 8.203125 64.703125 
L 16.9375 69.96875 
L 16.9375 51.859375 
L 25.78125 51.859375 
L 25.78125 45.015625 
L 16.9375 45.015625 
L 16.9375 14.703125 
Q 16.9375 10.9375 17.40625 9.859375 
Q 17.875 8.796875 18.921875 8.15625 
Q 19.96875 7.515625 21.921875 7.515625 
Q 23.390625 7.515625 25.78125 7.859375 
z
" id="ArialMT-116"/>
      <path d="M 6.59375 0 
L 6.59375 71.578125 
L 15.375 71.578125 
L 15.375 45.90625 
Q 21.53125 53.03125 30.90625 53.03125 
Q 36.671875 53.03125 40.921875 50.75 
Q 45.171875 48.484375 47 44.484375 
Q 48.828125 40.484375 48.828125 32.859375 
L 48.828125 0 
L 40.046875 0 
L 40.046875 32.859375 
Q 40.046875 39.453125 37.1875 42.453125 
Q 34.328125 45.453125 29.109375 45.453125 
Q 25.203125 45.453125 21.75 43.421875 
Q 18.3125 41.40625 16.84375 37.9375 
Q 15.375 34.46875 15.375 28.375 
L 15.375 0 
z
" id="ArialMT-104"/>
      <path d="M 6.5 0 
L 6.5 51.859375 
L 14.40625 51.859375 
L 14.40625 44 
Q 17.4375 49.515625 20 51.265625 
Q 22.5625 53.03125 25.640625 53.03125 
Q 30.078125 53.03125 34.671875 50.203125 
L 31.640625 42.046875 
Q 28.421875 43.953125 25.203125 43.953125 
Q 22.3125 43.953125 20.015625 42.21875 
Q 17.71875 40.484375 16.75 37.40625 
Q 15.28125 32.71875 15.28125 27.15625 
L 15.28125 0 
z
" id="ArialMT-114"/>
      <path d="M 3.078125 15.484375 
L 11.765625 16.84375 
Q 12.5 11.625 15.84375 8.84375 
Q 19.1875 6.0625 25.203125 6.0625 
Q 31.25 6.0625 34.171875 8.515625 
Q 37.109375 10.984375 37.109375 14.3125 
Q 37.109375 17.28125 34.515625 19 
Q 32.71875 20.171875 25.53125 21.96875 
Q 15.875 24.421875 12.140625 26.203125 
Q 8.40625 27.984375 6.46875 31.125 
Q 4.546875 34.28125 4.546875 38.09375 
Q 4.546875 41.546875 6.125 44.5 
Q 7.71875 47.46875 10.453125 49.421875 
Q 12.5 50.921875 16.03125 51.96875 
Q 19.578125 53.03125 23.640625 53.03125 
Q 29.734375 53.03125 34.34375 51.265625 
Q 38.96875 49.515625 41.15625 46.5 
Q 43.359375 43.5 44.1875 38.484375 
L 35.59375 37.3125 
Q 35.015625 41.3125 32.203125 43.546875 
Q 29.390625 45.796875 24.265625 45.796875 
Q 18.21875 45.796875 15.625 43.796875 
Q 13.03125 41.796875 13.03125 39.109375 
Q 13.03125 37.40625 14.109375 36.03125 
Q 15.1875 34.625 17.484375 33.6875 
Q 18.796875 33.203125 25.25 31.453125 
Q 34.578125 28.953125 38.25 27.359375 
Q 41.9375 25.78125 44.03125 22.75 
Q 46.140625 19.734375 46.140625 15.234375 
Q 46.140625 10.84375 43.578125 6.953125 
Q 41.015625 3.078125 36.171875 0.953125 
Q 31.34375 -1.171875 25.25 -1.171875 
Q 15.140625 -1.171875 9.84375 3.03125 
Q 4.546875 7.234375 3.078125 15.484375 
z
" id="ArialMT-115"/>
      <path d="M 3.328125 25.921875 
Q 3.328125 40.328125 11.328125 47.265625 
Q 18.015625 53.03125 27.640625 53.03125 
Q 38.328125 53.03125 45.109375 46.015625 
Q 51.90625 39.015625 51.90625 26.65625 
Q 51.90625 16.65625 48.90625 10.90625 
Q 45.90625 5.171875 40.15625 2 
Q 34.421875 -1.171875 27.640625 -1.171875 
Q 16.75 -1.171875 10.03125 5.8125 
Q 3.328125 12.796875 3.328125 25.921875 
z
M 12.359375 25.921875 
Q 12.359375 15.96875 16.703125 11.015625 
Q 21.046875 6.0625 27.640625 6.0625 
Q 34.1875 6.0625 38.53125 11.03125 
Q 42.875 16.015625 42.875 26.21875 
Q 42.875 35.84375 38.5 40.796875 
Q 34.125 45.75 27.640625 45.75 
Q 21.046875 45.75 16.703125 40.8125 
Q 12.359375 35.890625 12.359375 25.921875 
z
" id="ArialMT-111"/>
      <path d="M 6.390625 0 
L 6.390625 71.578125 
L 15.1875 71.578125 
L 15.1875 0 
z
" id="ArialMT-108"/>
      <path d="M 9.03125 41.84375 
L 9.03125 51.859375 
L 19.046875 51.859375 
L 19.046875 41.84375 
z
M 9.03125 0 
L 9.03125 10.015625 
L 19.046875 10.015625 
L 19.046875 0 
z
" id="ArialMT-58"/>
      <path d="M 7.71875 0 
L 7.71875 71.578125 
L 32.375 71.578125 
Q 40.71875 71.578125 45.125 70.5625 
Q 51.265625 69.140625 55.609375 65.4375 
Q 61.28125 60.640625 64.078125 53.1875 
Q 66.890625 45.75 66.890625 36.1875 
Q 66.890625 28.03125 64.984375 21.734375 
Q 63.09375 15.4375 60.109375 11.296875 
Q 57.125 7.171875 53.578125 4.796875 
Q 50.046875 2.4375 45.046875 1.21875 
Q 40.046875 0 33.546875 0 
z
M 17.1875 8.453125 
L 32.46875 8.453125 
Q 39.546875 8.453125 43.578125 9.765625 
Q 47.609375 11.078125 50 13.484375 
Q 53.375 16.84375 55.25 22.53125 
Q 57.125 28.21875 57.125 36.328125 
Q 57.125 47.5625 53.4375 53.59375 
Q 49.75 59.625 44.484375 61.671875 
Q 40.671875 63.140625 32.234375 63.140625 
L 17.1875 63.140625 
z
" id="ArialMT-68"/>
      <path d="M 28.171875 0 
L 0.4375 71.578125 
L 10.6875 71.578125 
L 29.296875 19.578125 
Q 31.546875 13.328125 33.0625 7.859375 
Q 34.71875 13.71875 36.921875 19.578125 
L 56.25 71.578125 
L 65.921875 71.578125 
L 37.890625 0 
z
" id="ArialMT-86"/>
      <path d="M 4.5 23 
L 13.421875 23.78125 
Q 14.0625 18.40625 16.375 14.96875 
Q 18.703125 11.53125 23.578125 9.40625 
Q 28.46875 7.28125 34.578125 7.28125 
Q 39.984375 7.28125 44.140625 8.890625 
Q 48.296875 10.5 50.3125 13.296875 
Q 52.34375 16.109375 52.34375 19.4375 
Q 52.34375 22.796875 50.390625 25.3125 
Q 48.4375 27.828125 43.953125 29.546875 
Q 41.0625 30.671875 31.203125 33.03125 
Q 21.34375 35.40625 17.390625 37.5 
Q 12.25 40.1875 9.734375 44.15625 
Q 7.234375 48.140625 7.234375 53.078125 
Q 7.234375 58.5 10.296875 63.203125 
Q 13.375 67.921875 19.28125 70.359375 
Q 25.203125 72.796875 32.421875 72.796875 
Q 40.375 72.796875 46.453125 70.234375 
Q 52.546875 67.671875 55.8125 62.6875 
Q 59.078125 57.71875 59.328125 51.421875 
L 50.25 50.734375 
Q 49.515625 57.515625 45.28125 60.984375 
Q 41.0625 64.453125 32.8125 64.453125 
Q 24.21875 64.453125 20.28125 61.296875 
Q 16.359375 58.15625 16.359375 53.71875 
Q 16.359375 49.859375 19.140625 47.359375 
Q 21.875 44.875 33.421875 42.265625 
Q 44.96875 39.65625 49.265625 37.703125 
Q 55.515625 34.8125 58.484375 30.390625 
Q 61.46875 25.984375 61.46875 20.21875 
Q 61.46875 14.5 58.203125 9.4375 
Q 54.9375 4.390625 48.796875 1.578125 
Q 42.671875 -1.21875 35.015625 -1.21875 
Q 25.296875 -1.21875 18.71875 1.609375 
Q 12.15625 4.4375 8.421875 10.125 
Q 4.6875 15.828125 4.5 23 
z
" id="ArialMT-83"/>
      <path d="M 25.921875 0 
L 25.921875 63.140625 
L 2.34375 63.140625 
L 2.34375 71.578125 
L 59.078125 71.578125 
L 59.078125 63.140625 
L 35.40625 63.140625 
L 35.40625 0 
z
" id="ArialMT-84"/>
      <path d="M 54.6875 71.578125 
L 64.15625 71.578125 
L 64.15625 30.21875 
Q 64.15625 19.4375 61.71875 13.078125 
Q 59.28125 6.734375 52.90625 2.75 
Q 46.53125 -1.21875 36.1875 -1.21875 
Q 26.125 -1.21875 19.71875 2.25 
Q 13.328125 5.71875 10.59375 12.28125 
Q 7.859375 18.84375 7.859375 30.21875 
L 7.859375 71.578125 
L 17.328125 71.578125 
L 17.328125 30.28125 
Q 17.328125 20.953125 19.0625 16.53125 
Q 20.796875 12.109375 25.015625 9.71875 
Q 29.25 7.328125 35.359375 7.328125 
Q 45.796875 7.328125 50.234375 12.0625 
Q 54.6875 16.796875 54.6875 30.28125 
z
" id="ArialMT-85"/>
      <path d="M 7.625 0 
L 7.625 71.578125 
L 17.328125 71.578125 
L 54.9375 15.375 
L 54.9375 71.578125 
L 64.015625 71.578125 
L 64.015625 0 
L 54.296875 0 
L 16.703125 56.25 
L 16.703125 0 
z
" id="ArialMT-78"/>
      <path d="M 7.421875 0 
L 7.421875 71.578125 
L 21.6875 71.578125 
L 38.625 20.90625 
Q 40.96875 13.8125 42.046875 10.296875 
Q 43.265625 14.203125 45.84375 21.78125 
L 62.984375 71.578125 
L 75.734375 71.578125 
L 75.734375 0 
L 66.609375 0 
L 66.609375 59.90625 
L 45.796875 0 
L 37.25 0 
L 16.546875 60.9375 
L 16.546875 0 
z
" id="ArialMT-77"/>
      <path d="M 7.859375 0 
L 7.859375 71.578125 
L 39.59375 71.578125 
Q 49.171875 71.578125 54.140625 69.640625 
Q 59.125 67.71875 62.109375 62.828125 
Q 65.09375 57.953125 65.09375 52.046875 
Q 65.09375 44.4375 60.15625 39.203125 
Q 55.21875 33.984375 44.921875 32.5625 
Q 48.6875 30.765625 50.640625 29 
Q 54.78125 25.203125 58.5 19.484375 
L 70.953125 0 
L 59.03125 0 
L 49.5625 14.890625 
Q 45.40625 21.34375 42.71875 24.75 
Q 40.046875 28.171875 37.921875 29.53125 
Q 35.796875 30.90625 33.59375 31.453125 
Q 31.984375 31.78125 28.328125 31.78125 
L 17.328125 31.78125 
L 17.328125 0 
z
M 17.328125 39.984375 
L 37.703125 39.984375 
Q 44.1875 39.984375 47.84375 41.328125 
Q 51.515625 42.671875 53.421875 45.625 
Q 55.328125 48.578125 55.328125 52.046875 
Q 55.328125 57.125 51.640625 60.390625 
Q 47.953125 63.671875 39.984375 63.671875 
L 17.328125 63.671875 
z
" id="ArialMT-82"/>
      <path d="M 40.4375 6.390625 
Q 35.546875 2.25 31.03125 0.53125 
Q 26.515625 -1.171875 21.34375 -1.171875 
Q 12.796875 -1.171875 8.203125 3 
Q 3.609375 7.171875 3.609375 13.671875 
Q 3.609375 17.484375 5.34375 20.625 
Q 7.078125 23.78125 9.890625 25.6875 
Q 12.703125 27.59375 16.21875 28.5625 
Q 18.796875 29.25 24.03125 29.890625 
Q 34.671875 31.15625 39.703125 32.90625 
Q 39.75 34.71875 39.75 35.203125 
Q 39.75 40.578125 37.25 42.78125 
Q 33.890625 45.75 27.25 45.75 
Q 21.046875 45.75 18.09375 43.578125 
Q 15.140625 41.40625 13.71875 35.890625 
L 5.125 37.0625 
Q 6.296875 42.578125 8.984375 45.96875 
Q 11.671875 49.359375 16.75 51.1875 
Q 21.828125 53.03125 28.515625 53.03125 
Q 35.15625 53.03125 39.296875 51.46875 
Q 43.453125 49.90625 45.40625 47.53125 
Q 47.359375 45.171875 48.140625 41.546875 
Q 48.578125 39.3125 48.578125 33.453125 
L 48.578125 21.734375 
Q 48.578125 9.46875 49.140625 6.21875 
Q 49.703125 2.984375 51.375 0 
L 42.1875 0 
Q 40.828125 2.734375 40.4375 6.390625 
z
M 39.703125 26.03125 
Q 34.90625 24.078125 25.34375 22.703125 
Q 19.921875 21.921875 17.671875 20.9375 
Q 15.4375 19.96875 14.203125 18.09375 
Q 12.984375 16.21875 12.984375 13.921875 
Q 12.984375 10.40625 15.640625 8.0625 
Q 18.3125 5.71875 23.4375 5.71875 
Q 28.515625 5.71875 32.46875 7.9375 
Q 36.421875 10.15625 38.28125 14.015625 
Q 39.703125 17 39.703125 22.796875 
z
" id="ArialMT-97"/>
      <path d="M 16.15625 0 
L 0.296875 51.859375 
L 9.375 51.859375 
L 17.625 21.921875 
L 20.703125 10.796875 
Q 20.90625 11.625 23.390625 21.484375 
L 31.640625 51.859375 
L 40.671875 51.859375 
L 48.4375 21.78125 
L 51.03125 11.859375 
L 54 21.875 
L 62.890625 51.859375 
L 71.4375 51.859375 
L 55.21875 0 
L 46.09375 0 
L 37.84375 31.0625 
L 35.84375 39.890625 
L 25.34375 0 
z
" id="ArialMT-119"/>
      <path d="M 8.6875 0 
L 8.6875 45.015625 
L 0.921875 45.015625 
L 0.921875 51.859375 
L 8.6875 51.859375 
L 8.6875 57.375 
Q 8.6875 62.59375 9.625 65.140625 
Q 10.890625 68.5625 14.078125 70.671875 
Q 17.28125 72.796875 23.046875 72.796875 
Q 26.765625 72.796875 31.25 71.921875 
L 29.9375 64.265625 
Q 27.203125 64.75 24.75 64.75 
Q 20.75 64.75 19.09375 63.03125 
Q 17.4375 61.328125 17.4375 56.640625 
L 17.4375 51.859375 
L 27.546875 51.859375 
L 27.546875 45.015625 
L 17.4375 45.015625 
L 17.4375 0 
z
" id="ArialMT-102"/>
      <path d="M 6.640625 61.46875 
L 6.640625 71.578125 
L 15.4375 71.578125 
L 15.4375 61.46875 
z
M 6.640625 0 
L 6.640625 51.859375 
L 15.4375 51.859375 
L 15.4375 0 
z
" id="ArialMT-105"/>
      <path d="M 0 -1.21875 
L 20.75 72.796875 
L 27.78125 72.796875 
L 7.078125 -1.21875 
z
" id="ArialMT-47"/>
      <path d="M 49.75 54.046875 
L 41.015625 53.375 
Q 39.84375 58.546875 37.703125 60.890625 
Q 34.125 64.65625 28.90625 64.65625 
Q 24.703125 64.65625 21.53125 62.3125 
Q 17.390625 59.28125 14.984375 53.46875 
Q 12.59375 47.65625 12.5 36.921875 
Q 15.671875 41.75 20.265625 44.09375 
Q 24.859375 46.4375 29.890625 46.4375 
Q 38.671875 46.4375 44.84375 39.96875 
Q 51.03125 33.5 51.03125 23.25 
Q 51.03125 16.5 48.125 10.71875 
Q 45.21875 4.9375 40.140625 1.859375 
Q 35.0625 -1.21875 28.609375 -1.21875 
Q 17.625 -1.21875 10.6875 6.859375 
Q 3.765625 14.9375 3.765625 33.5 
Q 3.765625 54.25 11.421875 63.671875 
Q 18.109375 71.875 29.4375 71.875 
Q 37.890625 71.875 43.28125 67.140625 
Q 48.6875 62.40625 49.75 54.046875 
z
M 13.875 23.1875 
Q 13.875 18.65625 15.796875 14.5 
Q 17.71875 10.359375 21.1875 8.171875 
Q 24.65625 6 28.46875 6 
Q 34.03125 6 38.03125 10.484375 
Q 42.046875 14.984375 42.046875 22.703125 
Q 42.046875 30.125 38.078125 34.390625 
Q 34.125 38.671875 28.125 38.671875 
Q 22.171875 38.671875 18.015625 34.390625 
Q 13.875 30.125 13.875 23.1875 
z
" id="ArialMT-54"/>
     </defs>
     <g style="fill:#262626;" transform="translate(437.582813 76.637812)scale(0.1 -0.1)">
      <use xlink:href="#ArialMT-69"/>
      <use x="66.699219" xlink:href="#ArialMT-120"/>
      <use x="116.699219" xlink:href="#ArialMT-99"/>
      <use x="166.699219" xlink:href="#ArialMT-101"/>
      <use x="222.314453" xlink:href="#ArialMT-101"/>
      <use x="277.929688" xlink:href="#ArialMT-100"/>
      <use x="333.544922" xlink:href="#ArialMT-101"/>
      <use x="389.160156" xlink:href="#ArialMT-100"/>
      <use x="444.775391" xlink:href="#ArialMT-32"/>
      <use x="472.558594" xlink:href="#ArialMT-116"/>
      <use x="500.341797" xlink:href="#ArialMT-104"/>
      <use x="555.957031" xlink:href="#ArialMT-114"/>
      <use x="589.257812" xlink:href="#ArialMT-101"/>
      <use x="644.873047" xlink:href="#ArialMT-115"/>
      <use x="694.873047" xlink:href="#ArialMT-104"/>
      <use x="750.488281" xlink:href="#ArialMT-111"/>
      <use x="806.103516" xlink:href="#ArialMT-108"/>
      <use x="828.320312" xlink:href="#ArialMT-100"/>
      <use x="883.935547" xlink:href="#ArialMT-58"/>
      <use x="911.71875" xlink:href="#ArialMT-32"/>
      <use x="939.501953" xlink:href="#ArialMT-68"/>
      <use x="1011.71875" xlink:href="#ArialMT-69"/>
      <use x="1078.417969" xlink:href="#ArialMT-86"/>
      <use x="1145.117188" xlink:href="#ArialMT-83"/>
      <use x="1211.816406" xlink:href="#ArialMT-69"/>
      <use x="1278.515625" xlink:href="#ArialMT-84"/>
      <use x="1339.583984" xlink:href="#ArialMT-32"/>
      <use x="1367.367188" xlink:href="#ArialMT-85"/>
      <use x="1439.583984" xlink:href="#ArialMT-32"/>
      <use x="1467.367188" xlink:href="#ArialMT-49"/>
      <use x="1522.982422" xlink:href="#ArialMT-68"/>
      <use x="1595.199219" xlink:href="#ArialMT-32"/>
      <use x="1622.982422" xlink:href="#ArialMT-78"/>
      <use x="1695.199219" xlink:href="#ArialMT-77"/>
      <use x="1778.5" xlink:href="#ArialMT-82"/>
      <use x="1850.716797" xlink:href="#ArialMT-32"/>
      <use x="1878.5" xlink:href="#ArialMT-114"/>
      <use x="1911.800781" xlink:href="#ArialMT-97"/>
      <use x="1967.416016" xlink:href="#ArialMT-119"/>
      <use x="2039.632812" xlink:href="#ArialMT-32"/>
      <use x="2067.416016" xlink:href="#ArialMT-100"/>
      <use x="2123.03125" xlink:href="#ArialMT-97"/>
      <use x="2178.646484" xlink:href="#ArialMT-116"/>
      <use x="2206.429688" xlink:href="#ArialMT-97"/>
      <use x="2262.044922" xlink:href="#ArialMT-32"/>
      <use x="2289.828125" xlink:href="#ArialMT-102"/>
      <use x="2317.611328" xlink:href="#ArialMT-105"/>
      <use x="2339.828125" xlink:href="#ArialMT-108"/>
      <use x="2362.044922" xlink:href="#ArialMT-101"/>
      <use x="2417.660156" xlink:href="#ArialMT-115"/>
      <use x="2467.660156" xlink:href="#ArialMT-47"/>
      <use x="2495.443359" xlink:href="#ArialMT-53"/>
      <use x="2551.058594" xlink:href="#ArialMT-54"/>
      <use x="2606.673828" xlink:href="#ArialMT-48"/>
     </g>
    </g>
    <g id="line2d_24">
     <path d="M 409.582813 87.283125 
L 429.582813 87.283125 
" style="fill:none;stroke:#cc0d03;stroke-linecap:round;stroke-opacity:0.7;stroke-width:1.5;"/>
    </g>
    <g id="line2d_25"/>
    <g id="text_18">
     <!-- Exceeded threshold: DEVSET U 1D NMR raw data files/660 -->
     <g style="fill:#262626;" transform="translate(437.582813 90.783125)scale(0.1 -0.1)">
      <use xlink:href="#ArialMT-69"/>
      <use x="66.699219" xlink:href="#ArialMT-120"/>
      <use x="116.699219" xlink:href="#ArialMT-99"/>
      <use x="166.699219" xlink:href="#ArialMT-101"/>
      <use x="222.314453" xlink:href="#ArialMT-101"/>
      <use x="277.929688" xlink:href="#ArialMT-100"/>
      <use x="333.544922" xlink:href="#ArialMT-101"/>
      <use x="389.160156" xlink:href="#ArialMT-100"/>
      <use x="444.775391" xlink:href="#ArialMT-32"/>
      <use x="472.558594" xlink:href="#ArialMT-116"/>
      <use x="500.341797" xlink:href="#ArialMT-104"/>
      <use x="555.957031" xlink:href="#ArialMT-114"/>
      <use x="589.257812" xlink:href="#ArialMT-101"/>
      <use x="644.873047" xlink:href="#ArialMT-115"/>
      <use x="694.873047" xlink:href="#ArialMT-104"/>
      <use x="750.488281" xlink:href="#ArialMT-111"/>
      <use x="806.103516" xlink:href="#ArialMT-108"/>
      <use x="828.320312" xlink:href="#ArialMT-100"/>
      <use x="883.935547" xlink:href="#ArialMT-58"/>
      <use x="911.71875" xlink:href="#ArialMT-32"/>
      <use x="939.501953" xlink:href="#ArialMT-68"/>
      <use x="1011.71875" xlink:href="#ArialMT-69"/>
      <use x="1078.417969" xlink:href="#ArialMT-86"/>
      <use x="1145.117188" xlink:href="#ArialMT-83"/>
      <use x="1211.816406" xlink:href="#ArialMT-69"/>
      <use x="1278.515625" xlink:href="#ArialMT-84"/>
      <use x="1339.583984" xlink:href="#ArialMT-32"/>
      <use x="1367.367188" xlink:href="#ArialMT-85"/>
      <use x="1439.583984" xlink:href="#ArialMT-32"/>
      <use x="1467.367188" xlink:href="#ArialMT-49"/>
      <use x="1522.982422" xlink:href="#ArialMT-68"/>
      <use x="1595.199219" xlink:href="#ArialMT-32"/>
      <use x="1622.982422" xlink:href="#ArialMT-78"/>
      <use x="1695.199219" xlink:href="#ArialMT-77"/>
      <use x="1778.5" xlink:href="#ArialMT-82"/>
      <use x="1850.716797" xlink:href="#ArialMT-32"/>
      <use x="1878.5" xlink:href="#ArialMT-114"/>
      <use x="1911.800781" xlink:href="#ArialMT-97"/>
      <use x="1967.416016" xlink:href="#ArialMT-119"/>
      <use x="2039.632812" xlink:href="#ArialMT-32"/>
      <use x="2067.416016" xlink:href="#ArialMT-100"/>
      <use x="2123.03125" xlink:href="#ArialMT-97"/>
      <use x="2178.646484" xlink:href="#ArialMT-116"/>
      <use x="2206.429688" xlink:href="#ArialMT-97"/>
      <use x="2262.044922" xlink:href="#ArialMT-32"/>
      <use x="2289.828125" xlink:href="#ArialMT-102"/>
      <use x="2317.611328" xlink:href="#ArialMT-105"/>
      <use x="2339.828125" xlink:href="#ArialMT-108"/>
      <use x="2362.044922" xlink:href="#ArialMT-101"/>
      <use x="2417.660156" xlink:href="#ArialMT-115"/>
      <use x="2467.660156" xlink:href="#ArialMT-47"/>
      <use x="2495.443359" xlink:href="#ArialMT-54"/>
      <use x="2551.058594" xlink:href="#ArialMT-54"/>
      <use x="2606.673828" xlink:href="#ArialMT-48"/>
     </g>
    </g>
    <g id="line2d_26">
     <path d="M 409.582813 101.428437 
L 429.582813 101.428437 
" style="fill:none;stroke:#cc0d03;stroke-linecap:round;stroke-opacity:0.7;stroke-width:1.5;"/>
    </g>
    <g id="line2d_27"/>
    <g id="text_19">
     <!-- Exceeded threshold: DEVSET U 1D NMR raw data files/510 -->
     <g style="fill:#262626;" transform="translate(437.582813 104.928437)scale(0.1 -0.1)">
      <use xlink:href="#ArialMT-69"/>
      <use x="66.699219" xlink:href="#ArialMT-120"/>
      <use x="116.699219" xlink:href="#ArialMT-99"/>
      <use x="166.699219" xlink:href="#ArialMT-101"/>
      <use x="222.314453" xlink:href="#ArialMT-101"/>
      <use x="277.929688" xlink:href="#ArialMT-100"/>
      <use x="333.544922" xlink:href="#ArialMT-101"/>
      <use x="389.160156" xlink:href="#ArialMT-100"/>
      <use x="444.775391" xlink:href="#ArialMT-32"/>
      <use x="472.558594" xlink:href="#ArialMT-116"/>
      <use x="500.341797" xlink:href="#ArialMT-104"/>
      <use x="555.957031" xlink:href="#ArialMT-114"/>
      <use x="589.257812" xlink:href="#ArialMT-101"/>
      <use x="644.873047" xlink:href="#ArialMT-115"/>
      <use x="694.873047" xlink:href="#ArialMT-104"/>
      <use x="750.488281" xlink:href="#ArialMT-111"/>
      <use x="806.103516" xlink:href="#ArialMT-108"/>
      <use x="828.320312" xlink:href="#ArialMT-100"/>
      <use x="883.935547" xlink:href="#ArialMT-58"/>
      <use x="911.71875" xlink:href="#ArialMT-32"/>
      <use x="939.501953" xlink:href="#ArialMT-68"/>
      <use x="1011.71875" xlink:href="#ArialMT-69"/>
      <use x="1078.417969" xlink:href="#ArialMT-86"/>
      <use x="1145.117188" xlink:href="#ArialMT-83"/>
      <use x="1211.816406" xlink:href="#ArialMT-69"/>
      <use x="1278.515625" xlink:href="#ArialMT-84"/>
      <use x="1339.583984" xlink:href="#ArialMT-32"/>
      <use x="1367.367188" xlink:href="#ArialMT-85"/>
      <use x="1439.583984" xlink:href="#ArialMT-32"/>
      <use x="1467.367188" xlink:href="#ArialMT-49"/>
      <use x="1522.982422" xlink:href="#ArialMT-68"/>
      <use x="1595.199219" xlink:href="#ArialMT-32"/>
      <use x="1622.982422" xlink:href="#ArialMT-78"/>
      <use x="1695.199219" xlink:href="#ArialMT-77"/>
      <use x="1778.5" xlink:href="#ArialMT-82"/>
      <use x="1850.716797" xlink:href="#ArialMT-32"/>
      <use x="1878.5" xlink:href="#ArialMT-114"/>
      <use x="1911.800781" xlink:href="#ArialMT-97"/>
      <use x="1967.416016" xlink:href="#ArialMT-119"/>
      <use x="2039.632812" xlink:href="#ArialMT-32"/>
      <use x="2067.416016" xlink:href="#ArialMT-100"/>
      <use x="2123.03125" xlink:href="#ArialMT-97"/>
      <use x="2178.646484" xlink:href="#ArialMT-116"/>
      <use x="2206.429688" xlink:href="#ArialMT-97"/>
      <use x="2262.044922" xlink:href="#ArialMT-32"/>
      <use x="2289.828125" xlink:href="#ArialMT-102"/>
      <use x="2317.611328" xlink:href="#ArialMT-105"/>
      <use x="2339.828125" xlink:href="#ArialMT-108"/>
      <use x="2362.044922" xlink:href="#ArialMT-101"/>
      <use x="2417.660156" xlink:href="#ArialMT-115"/>
      <use x="2467.660156" xlink:href="#ArialMT-47"/>
      <use x="2495.443359" xlink:href="#ArialMT-53"/>
      <use x="2551.058594" xlink:href="#ArialMT-49"/>
      <use x="2606.673828" xlink:href="#ArialMT-48"/>
     </g>
    </g>
    <g id="line2d_28">
     <path d="M 409.582813 115.57375 
L 429.582813 115.57375 
" style="fill:none;stroke:#cc0d03;stroke-linecap:round;stroke-opacity:0.7;stroke-width:1.5;"/>
    </g>
    <g id="line2d_29"/>
    <g id="text_20">
     <!-- Exceeded threshold: DEVSET U 1D NMR raw data files/580 -->
     <defs>
      <path d="M 17.671875 38.8125 
Q 12.203125 40.828125 9.5625 44.53125 
Q 6.9375 48.25 6.9375 53.421875 
Q 6.9375 61.234375 12.546875 66.546875 
Q 18.171875 71.875 27.484375 71.875 
Q 36.859375 71.875 42.578125 66.421875 
Q 48.296875 60.984375 48.296875 53.171875 
Q 48.296875 48.1875 45.671875 44.5 
Q 43.0625 40.828125 37.75 38.8125 
Q 44.34375 36.671875 47.78125 31.875 
Q 51.21875 27.09375 51.21875 20.453125 
Q 51.21875 11.28125 44.71875 5.03125 
Q 38.234375 -1.21875 27.640625 -1.21875 
Q 17.046875 -1.21875 10.546875 5.046875 
Q 4.046875 11.328125 4.046875 20.703125 
Q 4.046875 27.6875 7.59375 32.390625 
Q 11.140625 37.109375 17.671875 38.8125 
z
M 15.921875 53.71875 
Q 15.921875 48.640625 19.1875 45.40625 
Q 22.46875 42.1875 27.6875 42.1875 
Q 32.765625 42.1875 36.015625 45.375 
Q 39.265625 48.578125 39.265625 53.21875 
Q 39.265625 58.0625 35.90625 61.359375 
Q 32.5625 64.65625 27.59375 64.65625 
Q 22.5625 64.65625 19.234375 61.421875 
Q 15.921875 58.203125 15.921875 53.71875 
z
M 13.09375 20.65625 
Q 13.09375 16.890625 14.875 13.375 
Q 16.65625 9.859375 20.171875 7.921875 
Q 23.6875 6 27.734375 6 
Q 34.03125 6 38.125 10.046875 
Q 42.234375 14.109375 42.234375 20.359375 
Q 42.234375 26.703125 38.015625 30.859375 
Q 33.796875 35.015625 27.4375 35.015625 
Q 21.234375 35.015625 17.15625 30.90625 
Q 13.09375 26.8125 13.09375 20.65625 
z
" id="ArialMT-56"/>
     </defs>
     <g style="fill:#262626;" transform="translate(437.582813 119.07375)scale(0.1 -0.1)">
      <use xlink:href="#ArialMT-69"/>
      <use x="66.699219" xlink:href="#ArialMT-120"/>
      <use x="116.699219" xlink:href="#ArialMT-99"/>
      <use x="166.699219" xlink:href="#ArialMT-101"/>
      <use x="222.314453" xlink:href="#ArialMT-101"/>
      <use x="277.929688" xlink:href="#ArialMT-100"/>
      <use x="333.544922" xlink:href="#ArialMT-101"/>
      <use x="389.160156" xlink:href="#ArialMT-100"/>
      <use x="444.775391" xlink:href="#ArialMT-32"/>
      <use x="472.558594" xlink:href="#ArialMT-116"/>
      <use x="500.341797" xlink:href="#ArialMT-104"/>
      <use x="555.957031" xlink:href="#ArialMT-114"/>
      <use x="589.257812" xlink:href="#ArialMT-101"/>
      <use x="644.873047" xlink:href="#ArialMT-115"/>
      <use x="694.873047" xlink:href="#ArialMT-104"/>
      <use x="750.488281" xlink:href="#ArialMT-111"/>
      <use x="806.103516" xlink:href="#ArialMT-108"/>
      <use x="828.320312" xlink:href="#ArialMT-100"/>
      <use x="883.935547" xlink:href="#ArialMT-58"/>
      <use x="911.71875" xlink:href="#ArialMT-32"/>
      <use x="939.501953" xlink:href="#ArialMT-68"/>
      <use x="1011.71875" xlink:href="#ArialMT-69"/>
      <use x="1078.417969" xlink:href="#ArialMT-86"/>
      <use x="1145.117188" xlink:href="#ArialMT-83"/>
      <use x="1211.816406" xlink:href="#ArialMT-69"/>
      <use x="1278.515625" xlink:href="#ArialMT-84"/>
      <use x="1339.583984" xlink:href="#ArialMT-32"/>
      <use x="1367.367188" xlink:href="#ArialMT-85"/>
      <use x="1439.583984" xlink:href="#ArialMT-32"/>
      <use x="1467.367188" xlink:href="#ArialMT-49"/>
      <use x="1522.982422" xlink:href="#ArialMT-68"/>
      <use x="1595.199219" xlink:href="#ArialMT-32"/>
      <use x="1622.982422" xlink:href="#ArialMT-78"/>
      <use x="1695.199219" xlink:href="#ArialMT-77"/>
      <use x="1778.5" xlink:href="#ArialMT-82"/>
      <use x="1850.716797" xlink:href="#ArialMT-32"/>
      <use x="1878.5" xlink:href="#ArialMT-114"/>
      <use x="1911.800781" xlink:href="#ArialMT-97"/>
      <use x="1967.416016" xlink:href="#ArialMT-119"/>
      <use x="2039.632812" xlink:href="#ArialMT-32"/>
      <use x="2067.416016" xlink:href="#ArialMT-100"/>
      <use x="2123.03125" xlink:href="#ArialMT-97"/>
      <use x="2178.646484" xlink:href="#ArialMT-116"/>
      <use x="2206.429688" xlink:href="#ArialMT-97"/>
      <use x="2262.044922" xlink:href="#ArialMT-32"/>
      <use x="2289.828125" xlink:href="#ArialMT-102"/>
      <use x="2317.611328" xlink:href="#ArialMT-105"/>
      <use x="2339.828125" xlink:href="#ArialMT-108"/>
      <use x="2362.044922" xlink:href="#ArialMT-101"/>
      <use x="2417.660156" xlink:href="#ArialMT-115"/>
      <use x="2467.660156" xlink:href="#ArialMT-47"/>
      <use x="2495.443359" xlink:href="#ArialMT-53"/>
      <use x="2551.058594" xlink:href="#ArialMT-56"/>
      <use x="2606.673828" xlink:href="#ArialMT-48"/>
     </g>
    </g>
    <g id="patch_8">
     <path d="M 409.582813 133.219063 
L 429.582813 133.219063 
L 429.582813 126.219063 
L 409.582813 126.219063 
z
" style="fill:#00664c;fill-opacity:0.2;stroke:#00664c;stroke-linejoin:miter;stroke-opacity:0.2;"/>
    </g>
    <g id="text_21">
     <!-- Variance about the median -->
     <defs>
      <path d="M 6.59375 0 
L 6.59375 51.859375 
L 14.5 51.859375 
L 14.5 44.484375 
Q 20.21875 53.03125 31 53.03125 
Q 35.6875 53.03125 39.625 51.34375 
Q 43.5625 49.65625 45.515625 46.921875 
Q 47.46875 44.1875 48.25 40.4375 
Q 48.734375 37.984375 48.734375 31.890625 
L 48.734375 0 
L 39.9375 0 
L 39.9375 31.546875 
Q 39.9375 36.921875 38.90625 39.578125 
Q 37.890625 42.234375 35.28125 43.8125 
Q 32.671875 45.40625 29.15625 45.40625 
Q 23.53125 45.40625 19.453125 41.84375 
Q 15.375 38.28125 15.375 28.328125 
L 15.375 0 
z
" id="ArialMT-110"/>
      <path d="M 14.703125 0 
L 6.546875 0 
L 6.546875 71.578125 
L 15.328125 71.578125 
L 15.328125 46.046875 
Q 20.90625 53.03125 29.546875 53.03125 
Q 34.328125 53.03125 38.59375 51.09375 
Q 42.875 49.171875 45.625 45.671875 
Q 48.390625 42.1875 49.953125 37.25 
Q 51.515625 32.328125 51.515625 26.703125 
Q 51.515625 13.375 44.921875 6.09375 
Q 38.328125 -1.171875 29.109375 -1.171875 
Q 19.921875 -1.171875 14.703125 6.5 
z
M 14.59375 26.3125 
Q 14.59375 17 17.140625 12.84375 
Q 21.296875 6.0625 28.375 6.0625 
Q 34.125 6.0625 38.328125 11.0625 
Q 42.53125 16.0625 42.53125 25.984375 
Q 42.53125 36.140625 38.5 40.96875 
Q 34.46875 45.796875 28.765625 45.796875 
Q 23 45.796875 18.796875 40.796875 
Q 14.59375 35.796875 14.59375 26.3125 
z
" id="ArialMT-98"/>
      <path d="M 40.578125 0 
L 40.578125 7.625 
Q 34.515625 -1.171875 24.125 -1.171875 
Q 19.53125 -1.171875 15.546875 0.578125 
Q 11.578125 2.34375 9.640625 5 
Q 7.71875 7.671875 6.9375 11.53125 
Q 6.390625 14.109375 6.390625 19.734375 
L 6.390625 51.859375 
L 15.1875 51.859375 
L 15.1875 23.09375 
Q 15.1875 16.21875 15.71875 13.8125 
Q 16.546875 10.359375 19.234375 8.375 
Q 21.921875 6.390625 25.875 6.390625 
Q 29.828125 6.390625 33.296875 8.421875 
Q 36.765625 10.453125 38.203125 13.9375 
Q 39.65625 17.4375 39.65625 24.078125 
L 39.65625 51.859375 
L 48.4375 51.859375 
L 48.4375 0 
z
" id="ArialMT-117"/>
     </defs>
     <g style="fill:#262626;" transform="translate(437.582813 133.219063)scale(0.1 -0.1)">
      <use xlink:href="#ArialMT-86"/>
      <use x="66.589844" xlink:href="#ArialMT-97"/>
      <use x="122.205078" xlink:href="#ArialMT-114"/>
      <use x="155.505859" xlink:href="#ArialMT-105"/>
      <use x="177.722656" xlink:href="#ArialMT-97"/>
      <use x="233.337891" xlink:href="#ArialMT-110"/>
      <use x="288.953125" xlink:href="#ArialMT-99"/>
      <use x="338.953125" xlink:href="#ArialMT-101"/>
      <use x="394.568359" xlink:href="#ArialMT-32"/>
      <use x="422.351562" xlink:href="#ArialMT-97"/>
      <use x="477.966797" xlink:href="#ArialMT-98"/>
      <use x="533.582031" xlink:href="#ArialMT-111"/>
      <use x="589.197266" xlink:href="#ArialMT-117"/>
      <use x="644.8125" xlink:href="#ArialMT-116"/>
      <use x="672.595703" xlink:href="#ArialMT-32"/>
      <use x="700.378906" xlink:href="#ArialMT-116"/>
      <use x="728.162109" xlink:href="#ArialMT-104"/>
      <use x="783.777344" xlink:href="#ArialMT-101"/>
      <use x="839.392578" xlink:href="#ArialMT-32"/>
      <use x="867.175781" xlink:href="#ArialMT-109"/>
      <use x="950.476562" xlink:href="#ArialMT-101"/>
      <use x="1006.091797" xlink:href="#ArialMT-100"/>
      <use x="1061.707031" xlink:href="#ArialMT-105"/>
      <use x="1083.923828" xlink:href="#ArialMT-97"/>
      <use x="1139.539062" xlink:href="#ArialMT-110"/>
     </g>
    </g>
   </g>
  </g>
 </g>
 <defs>
  <clipPath id="p426ffad332">
   <rect height="380.52" width="613.8" x="99" y="60.48"/>
  </clipPath>
 </defs>
</svg>
