<?xml version="1.0" encoding="utf-8" standalone="no"?>
<!DOCTYPE svg PUBLIC "-//W3C//DTD SVG 1.1//EN"
  "http://www.w3.org/Graphics/SVG/1.1/DTD/svg11.dtd">
<!-- Created with matplotlib (https://matplotlib.org/) -->
<svg height="414.565312pt" version="1.1" viewBox="0 0 635.2 414.565312" width="635.2pt" xmlns="http://www.w3.org/2000/svg" xmlns:xlink="http://www.w3.org/1999/xlink">
 <defs>
  <style type="text/css">
*{stroke-linecap:butt;stroke-linejoin:round;}
  </style>
 </defs>
 <g id="figure_1">
  <g id="patch_1">
   <path d="M 0 414.565312 
L 635.2 414.565312 
L 635.2 0 
L 0 0 
z
" style="fill:#ffffff;"/>
  </g>
  <g id="axes_1">
   <g id="patch_2">
    <path d="M 10.7 391.22 
L 624.5 391.22 
L 624.5 10.7 
L 10.7 10.7 
z
" style="fill:#ffffff;"/>
   </g>
   <g id="matplotlib.axis_1">
    <g id="xtick_1">
     <g id="line2d_1">
      <path clip-path="url(#p635c91c981)" d="M 597.131029 391.22 
L 597.131029 10.7 
" style="fill:none;stroke:#cccccc;stroke-linecap:round;stroke-width:0.8;"/>
     </g>
     <g id="text_1">
      <!-- 4.60 -->
      <defs>
       <path d="M 32.328125 0 
L 32.328125 17.140625 
L 1.265625 17.140625 
L 1.265625 25.203125 
L 33.9375 71.578125 
L 41.109375 71.578125 
L 41.109375 25.203125 
L 50.78125 25.203125 
L 50.78125 17.140625 
L 41.109375 17.140625 
L 41.109375 0 
z
M 32.328125 25.203125 
L 32.328125 57.46875 
L 9.90625 25.203125 
z
" id="ArialMT-52"/>
       <path d="M 9.078125 0 
L 9.078125 10.015625 
L 19.09375 10.015625 
L 19.09375 0 
z
" id="ArialMT-46"/>
       <path d="M 49.75 54.046875 
L 41.015625 53.375 
Q 39.84375 58.546875 37.703125 60.890625 
Q 34.125 64.65625 28.90625 64.65625 
Q 24.703125 64.65625 21.53125 62.3125 
Q 17.390625 59.28125 14.984375 53.46875 
Q 12.59375 47.65625 12.5 36.921875 
Q 15.671875 41.75 20.265625 44.09375 
Q 24.859375 46.4375 29.890625 46.4375 
Q 38.671875 46.4375 44.84375 39.96875 
Q 51.03125 33.5 51.03125 23.25 
Q 51.03125 16.5 48.125 10.71875 
Q 45.21875 4.9375 40.140625 1.859375 
Q 35.0625 -1.21875 28.609375 -1.21875 
Q 17.625 -1.21875 10.6875 6.859375 
Q 3.765625 14.9375 3.765625 33.5 
Q 3.765625 54.25 11.421875 63.671875 
Q 18.109375 71.875 29.4375 71.875 
Q 37.890625 71.875 43.28125 67.140625 
Q 48.6875 62.40625 49.75 54.046875 
z
M 13.875 23.1875 
Q 13.875 18.65625 15.796875 14.5 
Q 17.71875 10.359375 21.1875 8.171875 
Q 24.65625 6 28.46875 6 
Q 34.03125 6 38.03125 10.484375 
Q 42.046875 14.984375 42.046875 22.703125 
Q 42.046875 30.125 38.078125 34.390625 
Q 34.125 38.671875 28.125 38.671875 
Q 22.171875 38.671875 18.015625 34.390625 
Q 13.875 30.125 13.875 23.1875 
z
" id="ArialMT-54"/>
       <path d="M 4.15625 35.296875 
Q 4.15625 48 6.765625 55.734375 
Q 9.375 63.484375 14.515625 67.671875 
Q 19.671875 71.875 27.484375 71.875 
Q 33.25 71.875 37.59375 69.546875 
Q 41.9375 67.234375 44.765625 62.859375 
Q 47.609375 58.5 49.21875 52.21875 
Q 50.828125 45.953125 50.828125 35.296875 
Q 50.828125 22.703125 48.234375 14.96875 
Q 45.65625 7.234375 40.5 3 
Q 35.359375 -1.21875 27.484375 -1.21875 
Q 17.140625 -1.21875 11.234375 6.203125 
Q 4.15625 15.140625 4.15625 35.296875 
z
M 13.1875 35.296875 
Q 13.1875 17.671875 17.3125 11.828125 
Q 21.4375 6 27.484375 6 
Q 33.546875 6 37.671875 11.859375 
Q 41.796875 17.71875 41.796875 35.296875 
Q 41.796875 52.984375 37.671875 58.78125 
Q 33.546875 64.59375 27.390625 64.59375 
Q 21.34375 64.59375 17.71875 59.46875 
Q 13.1875 52.9375 13.1875 35.296875 
z
" id="ArialMT-48"/>
      </defs>
      <g style="fill:#262626;" transform="translate(587.400561 405.377812)scale(0.1 -0.1)">
       <use xlink:href="#ArialMT-52"/>
       <use x="55.615234" xlink:href="#ArialMT-46"/>
       <use x="83.398438" xlink:href="#ArialMT-54"/>
       <use x="139.013672" xlink:href="#ArialMT-48"/>
      </g>
     </g>
    </g>
    <g id="xtick_2">
     <g id="line2d_2">
      <path clip-path="url(#p635c91c981)" d="M 527.262246 391.22 
L 527.262246 10.7 
" style="fill:none;stroke:#cccccc;stroke-linecap:round;stroke-width:0.8;"/>
     </g>
     <g id="text_2">
      <!-- 4.65 -->
      <defs>
       <path d="M 4.15625 18.75 
L 13.375 19.53125 
Q 14.40625 12.796875 18.140625 9.390625 
Q 21.875 6 27.15625 6 
Q 33.5 6 37.890625 10.78125 
Q 42.28125 15.578125 42.28125 23.484375 
Q 42.28125 31 38.0625 35.34375 
Q 33.84375 39.703125 27 39.703125 
Q 22.75 39.703125 19.328125 37.765625 
Q 15.921875 35.84375 13.96875 32.765625 
L 5.71875 33.84375 
L 12.640625 70.609375 
L 48.25 70.609375 
L 48.25 62.203125 
L 19.671875 62.203125 
L 15.828125 42.96875 
Q 22.265625 47.46875 29.34375 47.46875 
Q 38.71875 47.46875 45.15625 40.96875 
Q 51.609375 34.46875 51.609375 24.265625 
Q 51.609375 14.546875 45.953125 7.46875 
Q 39.0625 -1.21875 27.15625 -1.21875 
Q 17.390625 -1.21875 11.203125 4.25 
Q 5.03125 9.71875 4.15625 18.75 
z
" id="ArialMT-53"/>
      </defs>
      <g style="fill:#262626;" transform="translate(517.531778 405.377812)scale(0.1 -0.1)">
       <use xlink:href="#ArialMT-52"/>
       <use x="55.615234" xlink:href="#ArialMT-46"/>
       <use x="83.398438" xlink:href="#ArialMT-54"/>
       <use x="139.013672" xlink:href="#ArialMT-53"/>
      </g>
     </g>
    </g>
    <g id="xtick_3">
     <g id="line2d_3">
      <path clip-path="url(#p635c91c981)" d="M 457.393464 391.22 
L 457.393464 10.7 
" style="fill:none;stroke:#cccccc;stroke-linecap:round;stroke-width:0.8;"/>
     </g>
     <g id="text_3">
      <!-- 4.70 -->
      <defs>
       <path d="M 4.734375 62.203125 
L 4.734375 70.65625 
L 51.078125 70.65625 
L 51.078125 63.8125 
Q 44.234375 56.546875 37.515625 44.484375 
Q 30.8125 32.421875 27.15625 19.671875 
Q 24.515625 10.6875 23.78125 0 
L 14.75 0 
Q 14.890625 8.453125 18.0625 20.40625 
Q 21.234375 32.375 27.171875 43.484375 
Q 33.109375 54.59375 39.796875 62.203125 
z
" id="ArialMT-55"/>
      </defs>
      <g style="fill:#262626;" transform="translate(447.662995 405.377812)scale(0.1 -0.1)">
       <use xlink:href="#ArialMT-52"/>
       <use x="55.615234" xlink:href="#ArialMT-46"/>
       <use x="83.398438" xlink:href="#ArialMT-55"/>
       <use x="139.013672" xlink:href="#ArialMT-48"/>
      </g>
     </g>
    </g>
    <g id="xtick_4">
     <g id="line2d_4">
      <path clip-path="url(#p635c91c981)" d="M 387.524681 391.22 
L 387.524681 10.7 
" style="fill:none;stroke:#cccccc;stroke-linecap:round;stroke-width:0.8;"/>
     </g>
     <g id="text_4">
      <!-- 4.75 -->
      <g style="fill:#262626;" transform="translate(377.794212 405.377812)scale(0.1 -0.1)">
       <use xlink:href="#ArialMT-52"/>
       <use x="55.615234" xlink:href="#ArialMT-46"/>
       <use x="83.398438" xlink:href="#ArialMT-55"/>
       <use x="139.013672" xlink:href="#ArialMT-53"/>
      </g>
     </g>
    </g>
    <g id="xtick_5">
     <g id="line2d_5">
      <path clip-path="url(#p635c91c981)" d="M 317.655898 391.22 
L 317.655898 10.7 
" style="fill:none;stroke:#cccccc;stroke-linecap:round;stroke-width:0.8;"/>
     </g>
     <g id="text_5">
      <!-- 4.80 -->
      <defs>
       <path d="M 17.671875 38.8125 
Q 12.203125 40.828125 9.5625 44.53125 
Q 6.9375 48.25 6.9375 53.421875 
Q 6.9375 61.234375 12.546875 66.546875 
Q 18.171875 71.875 27.484375 71.875 
Q 36.859375 71.875 42.578125 66.421875 
Q 48.296875 60.984375 48.296875 53.171875 
Q 48.296875 48.1875 45.671875 44.5 
Q 43.0625 40.828125 37.75 38.8125 
Q 44.34375 36.671875 47.78125 31.875 
Q 51.21875 27.09375 51.21875 20.453125 
Q 51.21875 11.28125 44.71875 5.03125 
Q 38.234375 -1.21875 27.640625 -1.21875 
Q 17.046875 -1.21875 10.546875 5.046875 
Q 4.046875 11.328125 4.046875 20.703125 
Q 4.046875 27.6875 7.59375 32.390625 
Q 11.140625 37.109375 17.671875 38.8125 
z
M 15.921875 53.71875 
Q 15.921875 48.640625 19.1875 45.40625 
Q 22.46875 42.1875 27.6875 42.1875 
Q 32.765625 42.1875 36.015625 45.375 
Q 39.265625 48.578125 39.265625 53.21875 
Q 39.265625 58.0625 35.90625 61.359375 
Q 32.5625 64.65625 27.59375 64.65625 
Q 22.5625 64.65625 19.234375 61.421875 
Q 15.921875 58.203125 15.921875 53.71875 
z
M 13.09375 20.65625 
Q 13.09375 16.890625 14.875 13.375 
Q 16.65625 9.859375 20.171875 7.921875 
Q 23.6875 6 27.734375 6 
Q 34.03125 6 38.125 10.046875 
Q 42.234375 14.109375 42.234375 20.359375 
Q 42.234375 26.703125 38.015625 30.859375 
Q 33.796875 35.015625 27.4375 35.015625 
Q 21.234375 35.015625 17.15625 30.90625 
Q 13.09375 26.8125 13.09375 20.65625 
z
" id="ArialMT-56"/>
      </defs>
      <g style="fill:#262626;" transform="translate(307.925429 405.377812)scale(0.1 -0.1)">
       <use xlink:href="#ArialMT-52"/>
       <use x="55.615234" xlink:href="#ArialMT-46"/>
       <use x="83.398438" xlink:href="#ArialMT-56"/>
       <use x="139.013672" xlink:href="#ArialMT-48"/>
      </g>
     </g>
    </g>
    <g id="xtick_6">
     <g id="line2d_6">
      <path clip-path="url(#p635c91c981)" d="M 247.787115 391.22 
L 247.787115 10.7 
" style="fill:none;stroke:#cccccc;stroke-linecap:round;stroke-width:0.8;"/>
     </g>
     <g id="text_6">
      <!-- 4.85 -->
      <g style="fill:#262626;" transform="translate(238.056646 405.377812)scale(0.1 -0.1)">
       <use xlink:href="#ArialMT-52"/>
       <use x="55.615234" xlink:href="#ArialMT-46"/>
       <use x="83.398438" xlink:href="#ArialMT-56"/>
       <use x="139.013672" xlink:href="#ArialMT-53"/>
      </g>
     </g>
    </g>
    <g id="xtick_7">
     <g id="line2d_7">
      <path clip-path="url(#p635c91c981)" d="M 177.918332 391.22 
L 177.918332 10.7 
" style="fill:none;stroke:#cccccc;stroke-linecap:round;stroke-width:0.8;"/>
     </g>
     <g id="text_7">
      <!-- 4.90 -->
      <defs>
       <path d="M 5.46875 16.546875 
L 13.921875 17.328125 
Q 14.984375 11.375 18.015625 8.6875 
Q 21.046875 6 25.78125 6 
Q 29.828125 6 32.875 7.859375 
Q 35.9375 9.71875 37.890625 12.8125 
Q 39.84375 15.921875 41.15625 21.1875 
Q 42.484375 26.46875 42.484375 31.9375 
Q 42.484375 32.515625 42.4375 33.6875 
Q 39.796875 29.5 35.234375 26.875 
Q 30.671875 24.265625 25.34375 24.265625 
Q 16.453125 24.265625 10.296875 30.703125 
Q 4.15625 37.15625 4.15625 47.703125 
Q 4.15625 58.59375 10.578125 65.234375 
Q 17 71.875 26.65625 71.875 
Q 33.640625 71.875 39.421875 68.109375 
Q 45.21875 64.359375 48.21875 57.390625 
Q 51.21875 50.4375 51.21875 37.25 
Q 51.21875 23.53125 48.234375 15.40625 
Q 45.265625 7.28125 39.375 3.03125 
Q 33.5 -1.21875 25.59375 -1.21875 
Q 17.1875 -1.21875 11.859375 3.4375 
Q 6.546875 8.109375 5.46875 16.546875 
z
M 41.453125 48.140625 
Q 41.453125 55.71875 37.421875 60.15625 
Q 33.40625 64.59375 27.734375 64.59375 
Q 21.875 64.59375 17.53125 59.8125 
Q 13.1875 55.03125 13.1875 47.40625 
Q 13.1875 40.578125 17.3125 36.296875 
Q 21.4375 32.03125 27.484375 32.03125 
Q 33.59375 32.03125 37.515625 36.296875 
Q 41.453125 40.578125 41.453125 48.140625 
z
" id="ArialMT-57"/>
      </defs>
      <g style="fill:#262626;" transform="translate(168.187863 405.377812)scale(0.1 -0.1)">
       <use xlink:href="#ArialMT-52"/>
       <use x="55.615234" xlink:href="#ArialMT-46"/>
       <use x="83.398438" xlink:href="#ArialMT-57"/>
       <use x="139.013672" xlink:href="#ArialMT-48"/>
      </g>
     </g>
    </g>
    <g id="xtick_8">
     <g id="line2d_8">
      <path clip-path="url(#p635c91c981)" d="M 108.049549 391.22 
L 108.049549 10.7 
" style="fill:none;stroke:#cccccc;stroke-linecap:round;stroke-width:0.8;"/>
     </g>
     <g id="text_8">
      <!-- 4.95 -->
      <g style="fill:#262626;" transform="translate(98.31908 405.377812)scale(0.1 -0.1)">
       <use xlink:href="#ArialMT-52"/>
       <use x="55.615234" xlink:href="#ArialMT-46"/>
       <use x="83.398438" xlink:href="#ArialMT-57"/>
       <use x="139.013672" xlink:href="#ArialMT-53"/>
      </g>
     </g>
    </g>
    <g id="xtick_9">
     <g id="line2d_9">
      <path clip-path="url(#p635c91c981)" d="M 38.180766 391.22 
L 38.180766 10.7 
" style="fill:none;stroke:#cccccc;stroke-linecap:round;stroke-width:0.8;"/>
     </g>
     <g id="text_9">
      <!-- 5.00 -->
      <g style="fill:#262626;" transform="translate(28.450298 405.377812)scale(0.1 -0.1)">
       <use xlink:href="#ArialMT-53"/>
       <use x="55.615234" xlink:href="#ArialMT-46"/>
       <use x="83.398438" xlink:href="#ArialMT-48"/>
       <use x="139.013672" xlink:href="#ArialMT-48"/>
      </g>
     </g>
    </g>
   </g>
   <g id="matplotlib.axis_2"/>
   <g id="PolyCollection_1">
    <defs>
     <path d="M 38.6 -147.257065 
L 38.6 -147.011575 
L 39.368595 -147.039958 
L 40.13719 -147.039716 
L 40.905785 -147.099687 
L 41.67438 -147.072802 
L 42.442975 -147.045504 
L 43.21157 -147.003114 
L 43.980165 -147.021027 
L 44.74876 -147.004121 
L 45.517355 -147.02138 
L 46.28595 -147.021831 
L 47.054545 -147.007104 
L 47.82314 -147.029884 
L 48.591736 -147.065277 
L 49.360331 -147.043031 
L 50.128926 -146.99455 
L 50.897521 -146.995518 
L 51.666116 -147.037445 
L 52.434711 -147.040406 
L 53.203306 -147.021206 
L 53.971901 -147.002398 
L 54.740496 -146.971228 
L 55.509091 -146.982419 
L 56.277686 -146.97197 
L 57.046281 -147.032202 
L 57.814876 -147.140881 
L 58.583471 -147.225831 
L 59.352066 -147.314283 
L 60.120661 -147.300611 
L 60.889256 -147.300385 
L 61.657851 -147.291997 
L 62.426446 -147.234392 
L 63.195041 -147.202117 
L 63.963636 -147.184618 
L 64.732231 -147.095584 
L 65.500826 -147.105918 
L 66.269421 -147.092102 
L 67.038017 -147.030271 
L 67.806612 -146.996186 
L 68.575207 -146.945295 
L 69.343802 -146.941152 
L 70.112397 -146.968534 
L 70.880992 -147.051134 
L 71.649587 -147.114146 
L 72.418182 -147.111062 
L 73.186777 -147.138259 
L 73.955372 -147.230047 
L 74.723967 -147.255527 
L 75.492562 -147.279828 
L 76.261157 -147.211572 
L 77.029752 -147.179932 
L 77.798347 -147.143932 
L 78.566942 -147.115846 
L 79.335537 -147.102712 
L 80.104132 -147.09971 
L 80.872727 -147.113749 
L 81.641322 -147.130897 
L 82.409917 -147.174997 
L 83.178512 -147.171296 
L 83.947107 -147.141612 
L 84.715702 -147.13016 
L 85.484298 -147.117672 
L 86.252893 -147.113607 
L 87.021488 -147.114864 
L 87.790083 -147.095337 
L 88.558678 -147.085636 
L 89.327273 -147.030249 
L 90.095868 -147.017239 
L 90.864463 -147.03155 
L 91.633058 -147.035469 
L 92.401653 -147.049617 
L 93.170248 -147.076073 
L 93.938843 -147.0954 
L 94.707438 -147.066335 
L 95.476033 -147.068216 
L 96.244628 -147.131504 
L 97.013223 -147.189921 
L 97.781818 -147.487281 
L 98.550413 -147.448504 
L 99.319008 -147.297047 
L 100.087603 -147.206914 
L 100.856198 -147.15983 
L 101.624793 -147.229611 
L 102.393388 -147.233665 
L 103.161983 -147.197548 
L 103.930579 -147.253626 
L 104.699174 -147.420723 
L 105.467769 -147.459454 
L 106.236364 -147.287988 
L 107.004959 -147.135687 
L 107.773554 -147.071384 
L 108.542149 -147.061808 
L 109.310744 -147.093219 
L 110.079339 -147.083092 
L 110.847934 -147.036706 
L 111.616529 -146.998455 
L 112.385124 -146.982031 
L 113.153719 -146.982747 
L 113.922314 -146.981154 
L 114.690909 -147.021481 
L 115.459504 -147.087237 
L 116.228099 -147.055343 
L 116.996694 -147.094881 
L 117.765289 -147.07259 
L 118.533884 -147.05432 
L 119.302479 -147.064673 
L 120.071074 -146.984086 
L 120.839669 -146.952586 
L 121.608264 -146.949536 
L 122.37686 -147.029603 
L 123.145455 -147.105763 
L 123.91405 -147.191603 
L 124.682645 -147.192719 
L 125.45124 -147.096864 
L 126.219835 -147.075708 
L 126.98843 -147.098005 
L 127.757025 -147.129443 
L 128.52562 -147.117956 
L 129.294215 -147.079224 
L 130.06281 -147.134724 
L 130.831405 -147.155439 
L 131.6 -147.224645 
L 132.368595 -147.299272 
L 133.13719 -147.423496 
L 133.905785 -147.469095 
L 134.67438 -147.519505 
L 135.442975 -147.373242 
L 136.21157 -147.289203 
L 136.980165 -147.207651 
L 137.74876 -147.169768 
L 138.517355 -147.151821 
L 139.28595 -147.140821 
L 140.054545 -147.142681 
L 140.82314 -147.147708 
L 141.591736 -147.216429 
L 142.360331 -147.467784 
L 143.128926 -147.635983 
L 143.897521 -147.514515 
L 144.666116 -147.307795 
L 145.434711 -147.130715 
L 146.203306 -147.047841 
L 146.971901 -147.046084 
L 147.740496 -147.006278 
L 148.509091 -146.98209 
L 149.277686 -146.963727 
L 150.046281 -146.962083 
L 150.814876 -146.977722 
L 151.583471 -146.969539 
L 152.352066 -146.984804 
L 153.120661 -146.997862 
L 153.889256 -146.97928 
L 154.657851 -146.987609 
L 155.426446 -146.950036 
L 156.195041 -146.98328 
L 156.963636 -146.954304 
L 157.732231 -146.967141 
L 158.500826 -146.973856 
L 159.269421 -147.01014 
L 160.038017 -147.008978 
L 160.806612 -147.007994 
L 161.575207 -146.988716 
L 162.343802 -147.004652 
L 163.112397 -146.933845 
L 163.880992 -146.890167 
L 164.649587 -146.903951 
L 165.418182 -146.95181 
L 166.186777 -146.9721 
L 166.955372 -146.950363 
L 167.723967 -146.891635 
L 168.492562 -146.892138 
L 169.261157 -146.899231 
L 170.029752 -146.933792 
L 170.798347 -146.99104 
L 171.566942 -146.999748 
L 172.335537 -147.046969 
L 173.104132 -147.105421 
L 173.872727 -147.210768 
L 174.641322 -147.373136 
L 175.409917 -147.450419 
L 176.178512 -147.33833 
L 176.947107 -147.161656 
L 177.715702 -147.121231 
L 178.484298 -147.115641 
L 179.252893 -147.064758 
L 180.021488 -147.044813 
L 180.790083 -146.987145 
L 181.558678 -146.966421 
L 182.327273 -146.974734 
L 183.095868 -146.974329 
L 183.864463 -146.948247 
L 184.633058 -146.913076 
L 185.401653 -146.923984 
L 186.170248 -146.906152 
L 186.938843 -146.88987 
L 187.707438 -146.89303 
L 188.476033 -146.946211 
L 189.244628 -146.971796 
L 190.013223 -147.024567 
L 190.781818 -147.047576 
L 191.550413 -147.140286 
L 192.319008 -147.191911 
L 193.087603 -147.239763 
L 193.856198 -147.291909 
L 194.624793 -147.35922 
L 195.393388 -147.222987 
L 196.161983 -147.059492 
L 196.930579 -146.935416 
L 197.699174 -146.906071 
L 198.467769 -146.906622 
L 199.236364 -146.885945 
L 200.004959 -146.894555 
L 200.773554 -146.906924 
L 201.542149 -146.910962 
L 202.310744 -146.917833 
L 203.079339 -146.900339 
L 203.847934 -146.874437 
L 204.616529 -146.899612 
L 205.385124 -146.913504 
L 206.153719 -146.956415 
L 206.922314 -146.93455 
L 207.690909 -146.957028 
L 208.459504 -146.948088 
L 209.228099 -146.94092 
L 209.996694 -146.876228 
L 210.765289 -146.858248 
L 211.533884 -146.833952 
L 212.302479 -146.758654 
L 213.071074 -146.748647 
L 213.839669 -146.707547 
L 214.608264 -146.728375 
L 215.37686 -146.740065 
L 216.145455 -146.709968 
L 216.91405 -146.747842 
L 217.682645 -146.698485 
L 218.45124 -146.702351 
L 219.219835 -146.70268 
L 219.98843 -146.658585 
L 220.757025 -146.680158 
L 221.52562 -146.696531 
L 222.294215 -146.659519 
L 223.06281 -146.624125 
L 223.831405 -146.638271 
L 224.6 -146.628175 
L 225.368595 -146.628766 
L 226.13719 -146.58322 
L 226.905785 -146.47845 
L 227.67438 -146.401559 
L 228.442975 -146.288127 
L 229.21157 -146.198123 
L 229.980165 -146.098584 
L 230.74876 -146.042106 
L 231.517355 -145.78603 
L 232.28595 -145.671565 
L 233.054545 -145.517864 
L 233.82314 -145.301871 
L 234.591736 -145.144025 
L 235.360331 -145.197465 
L 236.128926 -145.187934 
L 236.897521 -145.142089 
L 237.666116 -145.465699 
L 238.434711 -145.575789 
L 239.203306 -145.534489 
L 239.971901 -145.564508 
L 240.740496 -145.652329 
L 241.509091 -145.743204 
L 242.277686 -145.780847 
L 243.046281 -145.79018 
L 243.814876 -145.931813 
L 244.583471 -146.062987 
L 245.352066 -146.107754 
L 246.120661 -146.100821 
L 246.889256 -146.216193 
L 247.657851 -146.236508 
L 248.426446 -146.217848 
L 249.195041 -146.186903 
L 249.963636 -146.205217 
L 250.732231 -146.172903 
L 251.500826 -146.215877 
L 252.269421 -146.170403 
L 253.038017 -146.235084 
L 253.806612 -146.232709 
L 254.575207 -146.21262 
L 255.343802 -146.214958 
L 256.112397 -146.153439 
L 256.880992 -146.168558 
L 257.649587 -146.180578 
L 258.418182 -146.318973 
L 259.186777 -146.355471 
L 259.955372 -146.425623 
L 260.723967 -146.480768 
L 261.492562 -146.437327 
L 262.261157 -146.337699 
L 263.029752 -146.277578 
L 263.798347 -146.316331 
L 264.566942 -146.372906 
L 265.335537 -146.401214 
L 266.104132 -146.459986 
L 266.872727 -146.495682 
L 267.641322 -146.683457 
L 268.409917 -146.674952 
L 269.178512 -146.715537 
L 269.947107 -146.667027 
L 270.715702 -146.603184 
L 271.484298 -146.523671 
L 272.252893 -146.606009 
L 273.021488 -146.482687 
L 273.790083 -146.429526 
L 274.558678 -146.327468 
L 275.327273 -146.21724 
L 276.095868 -146.21016 
L 276.864463 -146.417922 
L 277.633058 -146.513319 
L 278.401653 -146.894737 
L 279.170248 -146.897483 
L 279.938843 -146.914907 
L 280.707438 -146.970834 
L 281.476033 -146.765536 
L 282.244628 -146.729063 
L 283.013223 -146.709752 
L 283.781818 -146.662034 
L 284.550413 -146.743308 
L 285.319008 -146.815114 
L 286.087603 -146.998404 
L 286.856198 -146.960499 
L 287.624793 -146.790139 
L 288.393388 -146.713727 
L 289.161983 -146.62983 
L 289.930579 -146.477518 
L 290.699174 -146.298391 
L 291.467769 -146.158324 
L 292.236364 -146.199008 
L 293.004959 -146.04814 
L 293.773554 -146.130761 
L 294.542149 -146.243102 
L 295.310744 -146.378639 
L 296.079339 -146.327432 
L 296.847934 -146.212078 
L 297.616529 -146.322849 
L 298.385124 -146.662432 
L 299.153719 -146.676395 
L 299.922314 -147.260824 
L 300.690909 -147.502015 
L 301.459504 -147.634866 
L 302.228099 -148.071082 
L 302.996694 -148.208238 
L 303.765289 -148.886226 
L 304.533884 -149.057097 
L 305.302479 -149.44342 
L 306.071074 -149.840555 
L 306.839669 -150.386268 
L 307.608264 -151.177755 
L 308.37686 -152.356622 
L 309.145455 -153.225684 
L 309.91405 -153.349926 
L 310.682645 -154.527009 
L 311.45124 -154.926609 
L 312.219835 -155.557659 
L 312.98843 -156.584856 
L 313.757025 -157.853624 
L 314.52562 -158.573854 
L 315.294215 -159.682693 
L 316.06281 -160.420684 
L 316.831405 -161.780954 
L 317.6 -162.82394 
L 318.368595 -163.310946 
L 319.13719 -163.95744 
L 319.905785 -165.107459 
L 320.67438 -165.224409 
L 321.442975 -164.736856 
L 322.21157 -164.732105 
L 322.980165 -165.723652 
L 323.74876 -165.68553 
L 324.517355 -165.796031 
L 325.28595 -164.751134 
L 326.054545 -161.018183 
L 326.82314 -158.435818 
L 327.591736 -154.013126 
L 328.360331 -150.369963 
L 329.128926 -136.728463 
L 329.897521 -118.71837 
L 330.666116 -100.399765 
L 331.434711 -84.182266 
L 332.203306 -74.317786 
L 332.971901 -64.555775 
L 333.740496 -58.925769 
L 334.509091 -51.241506 
L 335.277686 -48.854196 
L 336.046281 -44.634627 
L 336.814876 -62.414714 
L 337.583471 -63.355763 
L 338.352066 -60.148783 
L 339.120661 -100.222897 
L 339.889256 -128.303044 
L 340.657851 -149.76261 
L 341.426446 -157.765589 
L 342.195041 -161.3203 
L 342.963636 -161.887887 
L 343.732231 -160.156845 
L 344.500826 -157.867656 
L 345.269421 -157.348399 
L 346.038017 -154.864861 
L 346.806612 -152.871739 
L 347.575207 -151.353616 
L 348.343802 -149.879947 
L 349.112397 -147.33673 
L 349.880992 -145.144135 
L 350.649587 -144.42331 
L 351.418182 -143.482848 
L 352.186777 -142.905267 
L 352.955372 -142.264457 
L 353.723967 -141.823136 
L 354.492562 -141.649424 
L 355.261157 -141.435024 
L 356.029752 -141.536383 
L 356.798347 -141.609325 
L 357.566942 -141.555134 
L 358.335537 -141.657925 
L 359.104132 -142.161662 
L 359.872727 -142.035411 
L 360.641322 -141.878733 
L 361.409917 -142.04698 
L 362.178512 -142.570875 
L 362.947107 -142.898578 
L 363.715702 -142.464493 
L 364.484298 -142.535424 
L 365.252893 -143.166574 
L 366.021488 -143.088963 
L 366.790083 -143.347141 
L 367.558678 -143.769198 
L 368.327273 -143.850155 
L 369.095868 -143.914022 
L 369.864463 -143.992242 
L 370.633058 -144.033104 
L 371.401653 -144.248465 
L 372.170248 -144.35656 
L 372.938843 -144.500067 
L 373.707438 -144.720853 
L 374.476033 -144.820023 
L 375.244628 -144.762006 
L 376.013223 -144.661865 
L 376.781818 -144.921895 
L 377.550413 -145.009013 
L 378.319008 -145.098964 
L 379.087603 -144.900235 
L 379.856198 -145.01133 
L 380.624793 -145.078389 
L 381.393388 -145.011253 
L 382.161983 -144.970335 
L 382.930579 -145.109993 
L 383.699174 -145.135812 
L 384.467769 -145.203088 
L 385.236364 -145.321043 
L 386.004959 -145.487428 
L 386.773554 -145.410414 
L 387.542149 -145.320925 
L 388.310744 -145.282886 
L 389.079339 -145.235971 
L 389.847934 -145.231756 
L 390.616529 -145.299878 
L 391.385124 -145.362252 
L 392.153719 -145.469245 
L 392.922314 -145.417115 
L 393.690909 -145.472941 
L 394.459504 -145.499442 
L 395.228099 -145.521141 
L 395.996694 -145.664296 
L 396.765289 -145.460356 
L 397.533884 -145.542819 
L 398.302479 -145.464914 
L 399.071074 -145.494197 
L 399.839669 -145.512078 
L 400.608264 -145.424595 
L 401.37686 -145.592813 
L 402.145455 -145.572584 
L 402.91405 -145.617989 
L 403.682645 -145.736222 
L 404.45124 -145.781315 
L 405.219835 -145.961509 
L 405.98843 -145.967353 
L 406.757025 -146.010231 
L 407.52562 -145.908527 
L 408.294215 -145.881582 
L 409.06281 -145.848008 
L 409.831405 -145.862928 
L 410.6 -145.923187 
L 411.368595 -145.923178 
L 412.13719 -145.996167 
L 412.905785 -146.060061 
L 413.67438 -146.097085 
L 414.442975 -146.114269 
L 415.21157 -146.15807 
L 415.980165 -146.185272 
L 416.74876 -146.124814 
L 417.517355 -146.157619 
L 418.28595 -146.198239 
L 419.054545 -146.301647 
L 419.82314 -146.241666 
L 420.591736 -146.285825 
L 421.360331 -146.241749 
L 422.128926 -146.21401 
L 422.897521 -146.257301 
L 423.666116 -146.161203 
L 424.434711 -146.157029 
L 425.203306 -146.084458 
L 425.971901 -146.054405 
L 426.740496 -145.978757 
L 427.509091 -145.875876 
L 428.277686 -145.814053 
L 429.046281 -145.728238 
L 429.814876 -145.230139 
L 430.583471 -145.198556 
L 431.352066 -145.046406 
L 432.120661 -145.019232 
L 432.889256 -145.081902 
L 433.657851 -145.149122 
L 434.426446 -145.259721 
L 435.195041 -145.423326 
L 435.963636 -145.371125 
L 436.732231 -145.550931 
L 437.500826 -145.643471 
L 438.269421 -145.72553 
L 439.038017 -145.806927 
L 439.806612 -145.875663 
L 440.575207 -145.958075 
L 441.343802 -146.093793 
L 442.112397 -146.301804 
L 442.880992 -146.409551 
L 443.649587 -146.439574 
L 444.418182 -146.431953 
L 445.186777 -146.466263 
L 445.955372 -146.390226 
L 446.723967 -146.322472 
L 447.492562 -146.356303 
L 448.261157 -146.419946 
L 449.029752 -146.442673 
L 449.798347 -146.439632 
L 450.566942 -146.466751 
L 451.335537 -146.505463 
L 452.104132 -146.585422 
L 452.872727 -146.681114 
L 453.641322 -146.66051 
L 454.409917 -146.689056 
L 455.178512 -146.679348 
L 455.947107 -146.725982 
L 456.715702 -146.762024 
L 457.484298 -146.782772 
L 458.252893 -146.830463 
L 459.021488 -146.81797 
L 459.790083 -147.010924 
L 460.558678 -147.309248 
L 461.327273 -147.934771 
L 462.095868 -148.443873 
L 462.864463 -148.622775 
L 463.633058 -148.693229 
L 464.401653 -148.220585 
L 465.170248 -147.607353 
L 465.938843 -147.26494 
L 466.707438 -147.08931 
L 467.476033 -147.010057 
L 468.244628 -146.929689 
L 469.013223 -147.000545 
L 469.781818 -146.980927 
L 470.550413 -147.066586 
L 471.319008 -147.205124 
L 472.087603 -147.469454 
L 472.856198 -147.678954 
L 473.624793 -147.900776 
L 474.393388 -148.407213 
L 475.161983 -148.876115 
L 475.930579 -149.031746 
L 476.699174 -149.008919 
L 477.467769 -148.474585 
L 478.236364 -147.825637 
L 479.004959 -147.406605 
L 479.773554 -147.230794 
L 480.542149 -147.093555 
L 481.310744 -147.089729 
L 482.079339 -147.109143 
L 482.847934 -147.230922 
L 483.616529 -147.314672 
L 484.385124 -147.261431 
L 485.153719 -147.171232 
L 485.922314 -147.119208 
L 486.690909 -147.135048 
L 487.459504 -147.112235 
L 488.228099 -147.183221 
L 488.996694 -147.280166 
L 489.765289 -147.380359 
L 490.533884 -147.485349 
L 491.302479 -147.443615 
L 492.071074 -147.384345 
L 492.839669 -147.374079 
L 493.608264 -147.38012 
L 494.37686 -147.450184 
L 495.145455 -147.557209 
L 495.91405 -147.599724 
L 496.682645 -147.564003 
L 497.45124 -147.42237 
L 498.219835 -147.237955 
L 498.98843 -147.106636 
L 499.757025 -147.068883 
L 500.52562 -147.081352 
L 501.294215 -147.130065 
L 502.06281 -147.226901 
L 502.831405 -147.270139 
L 503.6 -147.223797 
L 504.368595 -147.231975 
L 505.13719 -147.321921 
L 505.905785 -147.488784 
L 506.67438 -147.751443 
L 507.442975 -148.204259 
L 508.21157 -149.577567 
L 508.980165 -149.105095 
L 509.74876 -148.568171 
L 510.517355 -148.319164 
L 511.28595 -148.13823 
L 512.054545 -148.369224 
L 512.82314 -148.980618 
L 513.591736 -148.506807 
L 514.360331 -148.055349 
L 515.128926 -147.763939 
L 515.897521 -147.628055 
L 516.666116 -147.622014 
L 517.434711 -147.538635 
L 518.203306 -147.475718 
L 518.971901 -147.461532 
L 519.740496 -147.433017 
L 520.509091 -147.426152 
L 521.277686 -147.491828 
L 522.046281 -147.59536 
L 522.814876 -147.727811 
L 523.583471 -147.781476 
L 524.352066 -147.873856 
L 525.120661 -147.99169 
L 525.889256 -148.51177 
L 526.657851 -149.876897 
L 527.426446 -149.662277 
L 528.195041 -149.341177 
L 528.963636 -149.027211 
L 529.732231 -148.79005 
L 530.500826 -148.818332 
L 531.269421 -149.469046 
L 532.038017 -149.137271 
L 532.806612 -148.640907 
L 533.575207 -148.378644 
L 534.343802 -148.250105 
L 535.112397 -148.041651 
L 535.880992 -147.861645 
L 536.649587 -147.784439 
L 537.418182 -147.714471 
L 538.186777 -147.685241 
L 538.955372 -147.808426 
L 539.723967 -147.87439 
L 540.492562 -147.900262 
L 541.261157 -147.835411 
L 542.029752 -147.777173 
L 542.798347 -147.71584 
L 543.566942 -147.776436 
L 544.335537 -147.79365 
L 545.104132 -147.796834 
L 545.872727 -147.762559 
L 546.641322 -147.80081 
L 547.409917 -147.754427 
L 548.178512 -147.793171 
L 548.947107 -147.714794 
L 549.715702 -147.686478 
L 550.484298 -147.736692 
L 551.252893 -147.831655 
L 552.021488 -147.80015 
L 552.790083 -147.751339 
L 553.558678 -147.710547 
L 554.327273 -147.600636 
L 555.095868 -147.483019 
L 555.864463 -147.475381 
L 556.633058 -147.519017 
L 557.401653 -147.520545 
L 558.170248 -147.549459 
L 558.938843 -147.536109 
L 559.707438 -147.438762 
L 560.476033 -147.410809 
L 561.244628 -147.360212 
L 562.013223 -147.339636 
L 562.781818 -147.290968 
L 563.550413 -147.29256 
L 564.319008 -147.336588 
L 565.087603 -147.422791 
L 565.856198 -147.471244 
L 566.624793 -147.516323 
L 567.393388 -147.459925 
L 568.161983 -147.494675 
L 568.930579 -147.526544 
L 569.699174 -147.54318 
L 570.467769 -147.561517 
L 571.236364 -147.579298 
L 572.004959 -147.561697 
L 572.773554 -147.541054 
L 573.542149 -147.576956 
L 574.310744 -147.615022 
L 575.079339 -147.637561 
L 575.847934 -147.695292 
L 576.616529 -147.787952 
L 577.385124 -147.797787 
L 578.153719 -147.805005 
L 578.922314 -147.845349 
L 579.690909 -147.971027 
L 580.459504 -148.109368 
L 581.228099 -148.484078 
L 581.996694 -148.972226 
L 582.765289 -149.231983 
L 583.533884 -149.100973 
L 584.302479 -148.671576 
L 585.071074 -148.193964 
L 585.839669 -147.876895 
L 586.608264 -147.688869 
L 587.37686 -147.608754 
L 588.145455 -147.625633 
L 588.91405 -147.683049 
L 589.682645 -147.734187 
L 590.45124 -147.687206 
L 591.219835 -147.680776 
L 591.98843 -147.723013 
L 592.757025 -147.786847 
L 593.52562 -147.746509 
L 594.294215 -147.683783 
L 595.06281 -147.635278 
L 595.831405 -147.574837 
L 596.6 -147.529357 
L 596.6 -148.421599 
L 596.6 -148.421599 
L 595.831405 -148.483927 
L 595.06281 -148.501938 
L 594.294215 -148.517309 
L 593.52562 -148.684576 
L 592.757025 -149.1728 
L 591.98843 -149.48368 
L 591.219835 -149.245592 
L 590.45124 -148.823754 
L 589.682645 -148.47433 
L 588.91405 -148.29883 
L 588.145455 -148.274481 
L 587.37686 -148.234637 
L 586.608264 -148.403757 
L 585.839669 -148.821983 
L 585.071074 -149.338654 
L 584.302479 -150.484662 
L 583.533884 -152.217761 
L 582.765289 -152.989112 
L 581.996694 -152.473176 
L 581.228099 -151.053053 
L 580.459504 -149.412889 
L 579.690909 -148.762477 
L 578.922314 -148.605706 
L 578.153719 -148.510608 
L 577.385124 -148.389557 
L 576.616529 -148.340212 
L 575.847934 -148.23455 
L 575.079339 -148.159632 
L 574.310744 -148.083634 
L 573.542149 -148.019951 
L 572.773554 -148.01874 
L 572.004959 -147.958752 
L 571.236364 -148.075157 
L 570.467769 -148.201644 
L 569.699174 -148.250017 
L 568.930579 -148.248151 
L 568.161983 -148.18978 
L 567.393388 -148.076646 
L 566.624793 -148.11352 
L 565.856198 -148.193937 
L 565.087603 -148.078763 
L 564.319008 -147.912 
L 563.550413 -147.721662 
L 562.781818 -147.642155 
L 562.013223 -147.622583 
L 561.244628 -147.651054 
L 560.476033 -147.712509 
L 559.707438 -147.836953 
L 558.938843 -148.203543 
L 558.170248 -148.572743 
L 557.401653 -148.600243 
L 556.633058 -148.585639 
L 555.864463 -148.325768 
L 555.095868 -148.081481 
L 554.327273 -148.032978 
L 553.558678 -148.117099 
L 552.790083 -148.233378 
L 552.021488 -148.318985 
L 551.252893 -148.358247 
L 550.484298 -148.456365 
L 549.715702 -148.610032 
L 548.947107 -148.64264 
L 548.178512 -148.545137 
L 547.409917 -148.447008 
L 546.641322 -148.499572 
L 545.872727 -148.565833 
L 545.104132 -148.582634 
L 544.335537 -148.406262 
L 543.566942 -148.228619 
L 542.798347 -148.141047 
L 542.029752 -148.186548 
L 541.261157 -148.304314 
L 540.492562 -148.453927 
L 539.723967 -148.510963 
L 538.955372 -148.453239 
L 538.186777 -148.344721 
L 537.418182 -148.356471 
L 536.649587 -148.481263 
L 535.880992 -148.592342 
L 535.112397 -148.677473 
L 534.343802 -148.791517 
L 533.575207 -149.086923 
L 532.806612 -149.415714 
L 532.038017 -150.002874 
L 531.269421 -150.921675 
L 530.500826 -151.352219 
L 529.732231 -151.052484 
L 528.963636 -150.169995 
L 528.195041 -150.611926 
L 527.426446 -151.859328 
L 526.657851 -152.356097 
L 525.889256 -151.50749 
L 525.120661 -150.25692 
L 524.352066 -148.930078 
L 523.583471 -148.469035 
L 522.814876 -148.222836 
L 522.046281 -148.050215 
L 521.277686 -147.882843 
L 520.509091 -147.783727 
L 519.740496 -147.738947 
L 518.971901 -147.820371 
L 518.203306 -147.861258 
L 517.434711 -147.910862 
L 516.666116 -148.007491 
L 515.897521 -148.016104 
L 515.128926 -148.171425 
L 514.360331 -148.406818 
L 513.591736 -149.20322 
L 512.82314 -150.001651 
L 512.054545 -150.267001 
L 511.28595 -150.251635 
L 510.517355 -149.175016 
L 509.74876 -149.705265 
L 508.980165 -151.038372 
L 508.21157 -151.829711 
L 507.442975 -151.31394 
L 506.67438 -149.868247 
L 505.905785 -148.588394 
L 505.13719 -148.038205 
L 504.368595 -147.867264 
L 503.6 -147.791383 
L 502.831405 -147.894432 
L 502.06281 -147.982613 
L 501.294215 -147.860399 
L 500.52562 -147.748082 
L 499.757025 -147.644273 
L 498.98843 -147.728218 
L 498.219835 -147.859157 
L 497.45124 -148.016432 
L 496.682645 -148.091438 
L 495.91405 -148.263773 
L 495.145455 -148.129155 
L 494.37686 -147.927779 
L 493.608264 -147.888062 
L 492.839669 -147.856481 
L 492.071074 -147.919524 
L 491.302479 -148.042623 
L 490.533884 -148.081712 
L 489.765289 -147.922652 
L 488.996694 -147.807831 
L 488.228099 -147.824215 
L 487.459504 -147.760633 
L 486.690909 -147.750094 
L 485.922314 -147.731301 
L 485.153719 -147.741168 
L 484.385124 -147.833976 
L 483.616529 -147.955658 
L 482.847934 -147.995581 
L 482.079339 -147.792889 
L 481.310744 -147.744612 
L 480.542149 -147.75813 
L 479.773554 -147.838179 
L 479.004959 -148.149802 
L 478.236364 -148.780976 
L 477.467769 -149.6325 
L 476.699174 -149.991782 
L 475.930579 -150.047084 
L 475.161983 -149.790219 
L 474.393388 -149.308045 
L 473.624793 -148.625692 
L 472.856198 -148.257396 
L 472.087603 -148.08608 
L 471.319008 -147.830275 
L 470.550413 -147.683247 
L 469.781818 -147.590936 
L 469.013223 -147.595922 
L 468.244628 -147.664706 
L 467.476033 -147.738146 
L 466.707438 -147.817418 
L 465.938843 -148.197076 
L 465.170248 -148.804041 
L 464.401653 -149.554845 
L 463.633058 -149.736944 
L 462.864463 -149.654344 
L 462.095868 -149.44946 
L 461.327273 -149.025252 
L 460.558678 -148.39413 
L 459.790083 -147.986229 
L 459.021488 -147.820919 
L 458.252893 -147.842385 
L 457.484298 -147.849523 
L 456.715702 -147.832831 
L 455.947107 -147.89009 
L 455.178512 -147.949155 
L 454.409917 -147.895758 
L 453.641322 -148.038421 
L 452.872727 -147.980204 
L 452.104132 -147.947938 
L 451.335537 -148.009544 
L 450.566942 -148.022949 
L 449.798347 -147.969027 
L 449.029752 -148.010748 
L 448.261157 -148.012738 
L 447.492562 -148.014928 
L 446.723967 -148.101874 
L 445.955372 -148.168184 
L 445.186777 -148.233152 
L 444.418182 -148.259916 
L 443.649587 -148.287095 
L 442.880992 -148.365854 
L 442.112397 -148.441037 
L 441.343802 -148.543391 
L 440.575207 -148.66565 
L 439.806612 -148.684002 
L 439.038017 -148.98649 
L 438.269421 -149.279513 
L 437.500826 -149.281421 
L 436.732231 -149.253192 
L 435.963636 -149.291362 
L 435.195041 -149.360156 
L 434.426446 -149.317794 
L 433.657851 -149.38526 
L 432.889256 -149.458251 
L 432.120661 -149.634109 
L 431.352066 -149.879762 
L 430.583471 -149.913398 
L 429.814876 -149.726915 
L 429.046281 -149.699867 
L 428.277686 -149.578146 
L 427.509091 -149.429082 
L 426.740496 -149.36735 
L 425.971901 -149.248328 
L 425.203306 -149.256651 
L 424.434711 -149.215853 
L 423.666116 -149.081026 
L 422.897521 -149.199441 
L 422.128926 -149.207173 
L 421.360331 -149.126887 
L 420.591736 -149.226848 
L 419.82314 -149.28063 
L 419.054545 -149.384074 
L 418.28595 -149.422844 
L 417.517355 -149.397374 
L 416.74876 -149.324387 
L 415.980165 -149.319583 
L 415.21157 -149.309757 
L 414.442975 -149.322227 
L 413.67438 -149.376098 
L 412.905785 -149.317297 
L 412.13719 -149.149287 
L 411.368595 -149.040569 
L 410.6 -149.078619 
L 409.831405 -149.07473 
L 409.06281 -149.119167 
L 408.294215 -149.085861 
L 407.52562 -149.040844 
L 406.757025 -149.002981 
L 405.98843 -149.136639 
L 405.219835 -149.354544 
L 404.45124 -149.489241 
L 403.682645 -149.529609 
L 402.91405 -149.659717 
L 402.145455 -149.52876 
L 401.37686 -149.411621 
L 400.608264 -149.39961 
L 399.839669 -149.183875 
L 399.071074 -149.239707 
L 398.302479 -149.375915 
L 397.533884 -149.463053 
L 396.765289 -149.319373 
L 395.996694 -149.349026 
L 395.228099 -149.336538 
L 394.459504 -149.414362 
L 393.690909 -149.489963 
L 392.922314 -149.666959 
L 392.153719 -149.622938 
L 391.385124 -149.709454 
L 390.616529 -149.721518 
L 389.847934 -149.834581 
L 389.079339 -150.072424 
L 388.310744 -150.115321 
L 387.542149 -150.052751 
L 386.773554 -150.033271 
L 386.004959 -149.952841 
L 385.236364 -149.908567 
L 384.467769 -149.86427 
L 383.699174 -149.884364 
L 382.930579 -149.913275 
L 382.161983 -149.905175 
L 381.393388 -149.851267 
L 380.624793 -149.91278 
L 379.856198 -150.031851 
L 379.087603 -150.137718 
L 378.319008 -150.235803 
L 377.550413 -150.471832 
L 376.781818 -150.626742 
L 376.013223 -150.594499 
L 375.244628 -150.868572 
L 374.476033 -151.132954 
L 373.707438 -151.976481 
L 372.938843 -152.553592 
L 372.170248 -152.98959 
L 371.401653 -153.160902 
L 370.633058 -152.859583 
L 369.864463 -152.371481 
L 369.095868 -152.024211 
L 368.327273 -151.77481 
L 367.558678 -151.674718 
L 366.790083 -151.953951 
L 366.021488 -152.29961 
L 365.252893 -152.705592 
L 364.484298 -152.677942 
L 363.715702 -152.934455 
L 362.947107 -152.798109 
L 362.178512 -153.281862 
L 361.409917 -153.656701 
L 360.641322 -153.822752 
L 359.872727 -153.802785 
L 359.104132 -153.424215 
L 358.335537 -153.521718 
L 357.566942 -153.746593 
L 356.798347 -153.44596 
L 356.029752 -153.259015 
L 355.261157 -153.811422 
L 354.492562 -154.488538 
L 353.723967 -156.109613 
L 352.955372 -159.325005 
L 352.186777 -162.859705 
L 351.418182 -164.504391 
L 350.649587 -168.948053 
L 349.880992 -172.642427 
L 349.112397 -174.23484 
L 348.343802 -176.123558 
L 347.575207 -178.866088 
L 346.806612 -183.085521 
L 346.038017 -187.887012 
L 345.269421 -191.439424 
L 344.500826 -197.525421 
L 343.732231 -204.455415 
L 342.963636 -208.465497 
L 342.195041 -212.786584 
L 341.426446 -220.097249 
L 340.657851 -227.633822 
L 339.889256 -230.665731 
L 339.120661 -233.684673 
L 338.352066 -232.656121 
L 337.583471 -232.47194 
L 336.814876 -223.119166 
L 336.046281 -213.545444 
L 335.277686 -192.401684 
L 334.509091 -201.537175 
L 333.740496 -218.885456 
L 332.971901 -246.691457 
L 332.203306 -247.785934 
L 331.434711 -261.27581 
L 330.666116 -273.027081 
L 329.897521 -267.249133 
L 329.128926 -266.018092 
L 328.360331 -255.838957 
L 327.591736 -243.418838 
L 326.82314 -234.505701 
L 326.054545 -225.166253 
L 325.28595 -219.787575 
L 324.517355 -213.123869 
L 323.74876 -207.698568 
L 322.980165 -205.016775 
L 322.21157 -201.079692 
L 321.442975 -197.750283 
L 320.67438 -195.322399 
L 319.905785 -193.089768 
L 319.13719 -192.13326 
L 318.368595 -190.2606 
L 317.6 -187.316715 
L 316.831405 -183.471833 
L 316.06281 -180.051556 
L 315.294215 -177.292776 
L 314.52562 -175.594594 
L 313.757025 -173.679592 
L 312.98843 -171.572851 
L 312.219835 -169.312641 
L 311.45124 -167.458746 
L 310.682645 -166.248804 
L 309.91405 -164.866322 
L 309.145455 -163.646867 
L 308.37686 -162.600301 
L 307.608264 -161.860436 
L 306.839669 -161.302318 
L 306.071074 -160.612006 
L 305.302479 -159.488315 
L 304.533884 -158.223673 
L 303.765289 -157.041944 
L 302.996694 -156.633148 
L 302.228099 -156.30148 
L 301.459504 -155.886019 
L 300.690909 -155.549098 
L 299.922314 -154.955307 
L 299.153719 -154.221792 
L 298.385124 -153.885361 
L 297.616529 -153.428765 
L 296.847934 -153.055558 
L 296.079339 -152.959669 
L 295.310744 -153.061115 
L 294.542149 -153.171191 
L 293.773554 -153.335641 
L 293.004959 -153.253024 
L 292.236364 -152.866528 
L 291.467769 -152.266914 
L 290.699174 -151.530269 
L 289.930579 -151.000934 
L 289.161983 -150.635789 
L 288.393388 -150.353181 
L 287.624793 -150.163004 
L 286.856198 -150.116429 
L 286.087603 -149.955138 
L 285.319008 -150.018432 
L 284.550413 -149.998723 
L 283.781818 -149.90231 
L 283.013223 -149.865215 
L 282.244628 -149.697883 
L 281.476033 -149.6539 
L 280.707438 -149.751192 
L 279.938843 -149.833552 
L 279.170248 -149.899255 
L 278.401653 -149.876548 
L 277.633058 -149.794635 
L 276.864463 -149.674341 
L 276.095868 -149.512608 
L 275.327273 -149.372241 
L 274.558678 -149.335912 
L 273.790083 -149.347403 
L 273.021488 -149.319341 
L 272.252893 -149.255319 
L 271.484298 -149.271364 
L 270.715702 -149.290832 
L 269.947107 -149.314502 
L 269.178512 -149.082318 
L 268.409917 -149.11914 
L 267.641322 -149.107809 
L 266.872727 -148.887042 
L 266.104132 -148.946646 
L 265.335537 -148.88821 
L 264.566942 -148.764965 
L 263.798347 -148.678244 
L 263.029752 -148.712658 
L 262.261157 -148.695966 
L 261.492562 -148.659747 
L 260.723967 -148.562704 
L 259.955372 -148.445535 
L 259.186777 -148.482243 
L 258.418182 -148.383701 
L 257.649587 -148.393555 
L 256.880992 -148.369742 
L 256.112397 -148.291971 
L 255.343802 -148.268183 
L 254.575207 -148.190474 
L 253.806612 -148.131034 
L 253.038017 -148.162681 
L 252.269421 -148.13166 
L 251.500826 -148.099575 
L 250.732231 -148.077452 
L 249.963636 -148.081229 
L 249.195041 -148.071144 
L 248.426446 -148.051607 
L 247.657851 -148.016823 
L 246.889256 -147.981122 
L 246.120661 -147.969117 
L 245.352066 -148.011823 
L 244.583471 -148.010221 
L 243.814876 -148.00764 
L 243.046281 -148.030731 
L 242.277686 -148.027659 
L 241.509091 -147.95875 
L 240.740496 -147.990609 
L 239.971901 -148.086008 
L 239.203306 -148.224607 
L 238.434711 -148.314869 
L 237.666116 -148.206183 
L 236.897521 -148.314345 
L 236.128926 -148.548304 
L 235.360331 -148.842708 
L 234.591736 -149.05633 
L 233.82314 -148.899584 
L 233.054545 -149.135973 
L 232.28595 -149.418134 
L 231.517355 -149.573635 
L 230.74876 -149.378838 
L 229.980165 -148.914859 
L 229.21157 -148.522249 
L 228.442975 -148.316436 
L 227.67438 -148.185748 
L 226.905785 -148.085655 
L 226.13719 -147.951233 
L 225.368595 -147.771893 
L 224.6 -147.762214 
L 223.831405 -147.747876 
L 223.06281 -147.691421 
L 222.294215 -147.686693 
L 221.52562 -147.691109 
L 220.757025 -147.637611 
L 219.98843 -147.590846 
L 219.219835 -147.578533 
L 218.45124 -147.556818 
L 217.682645 -147.521044 
L 216.91405 -147.50379 
L 216.145455 -147.494149 
L 215.37686 -147.474585 
L 214.608264 -147.462214 
L 213.839669 -147.448217 
L 213.071074 -147.429424 
L 212.302479 -147.467548 
L 211.533884 -147.468223 
L 210.765289 -147.526313 
L 209.996694 -147.507847 
L 209.228099 -147.590073 
L 208.459504 -147.554884 
L 207.690909 -147.612906 
L 206.922314 -147.602667 
L 206.153719 -147.583115 
L 205.385124 -147.542839 
L 204.616529 -147.576125 
L 203.847934 -147.552023 
L 203.079339 -147.534195 
L 202.310744 -147.50552 
L 201.542149 -147.485059 
L 200.773554 -147.472914 
L 200.004959 -147.403915 
L 199.236364 -147.391397 
L 198.467769 -147.43143 
L 197.699174 -147.438511 
L 196.930579 -147.457853 
L 196.161983 -147.605288 
L 195.393388 -147.774216 
L 194.624793 -147.92235 
L 193.856198 -147.836419 
L 193.087603 -147.672836 
L 192.319008 -147.625335 
L 191.550413 -147.588462 
L 190.781818 -147.517237 
L 190.013223 -147.49271 
L 189.244628 -147.419622 
L 188.476033 -147.389519 
L 187.707438 -147.336955 
L 186.938843 -147.32855 
L 186.170248 -147.303145 
L 185.401653 -147.290635 
L 184.633058 -147.336858 
L 183.864463 -147.371705 
L 183.095868 -147.421518 
L 182.327273 -147.419557 
L 181.558678 -147.37152 
L 180.790083 -147.352521 
L 180.021488 -147.36655 
L 179.252893 -147.399497 
L 178.484298 -147.459838 
L 177.715702 -147.462579 
L 176.947107 -147.508079 
L 176.178512 -147.678171 
L 175.409917 -147.827477 
L 174.641322 -147.760775 
L 173.872727 -147.627177 
L 173.104132 -147.531199 
L 172.335537 -147.447956 
L 171.566942 -147.459372 
L 170.798347 -147.468422 
L 170.029752 -147.496047 
L 169.261157 -147.468313 
L 168.492562 -147.425244 
L 167.723967 -147.485165 
L 166.955372 -147.518228 
L 166.186777 -147.552486 
L 165.418182 -147.533478 
L 164.649587 -147.479477 
L 163.880992 -147.456896 
L 163.112397 -147.436793 
L 162.343802 -147.456511 
L 161.575207 -147.477151 
L 160.806612 -147.489931 
L 160.038017 -147.482937 
L 159.269421 -147.46025 
L 158.500826 -147.41023 
L 157.732231 -147.363372 
L 156.963636 -147.308908 
L 156.195041 -147.290377 
L 155.426446 -147.334142 
L 154.657851 -147.378376 
L 153.889256 -147.471832 
L 153.120661 -147.652143 
L 152.352066 -147.885256 
L 151.583471 -147.93892 
L 150.814876 -147.851506 
L 150.046281 -147.622504 
L 149.277686 -147.487681 
L 148.509091 -147.427152 
L 147.740496 -147.425259 
L 146.971901 -147.40611 
L 146.203306 -147.397715 
L 145.434711 -147.470829 
L 144.666116 -147.604644 
L 143.897521 -147.85333 
L 143.128926 -148.031762 
L 142.360331 -148.023463 
L 141.591736 -147.982463 
L 140.82314 -148.038114 
L 140.054545 -148.134013 
L 139.28595 -148.194029 
L 138.517355 -148.167564 
L 137.74876 -148.157385 
L 136.980165 -148.030377 
L 136.21157 -147.915873 
L 135.442975 -147.886745 
L 134.67438 -148.025316 
L 133.905785 -148.220964 
L 133.13719 -148.385421 
L 132.368595 -148.53283 
L 131.6 -148.468078 
L 130.831405 -148.288829 
L 130.06281 -147.937447 
L 129.294215 -147.81126 
L 128.52562 -147.870817 
L 127.757025 -148.0049 
L 126.98843 -148.124803 
L 126.219835 -148.187052 
L 125.45124 -148.195847 
L 124.682645 -148.168733 
L 123.91405 -148.294686 
L 123.145455 -148.336686 
L 122.37686 -148.13409 
L 121.608264 -147.825446 
L 120.839669 -147.655547 
L 120.071074 -147.500708 
L 119.302479 -147.422562 
L 118.533884 -147.388262 
L 117.765289 -147.403233 
L 116.996694 -147.455374 
L 116.228099 -147.49102 
L 115.459504 -147.447487 
L 114.690909 -147.415243 
L 113.922314 -147.307412 
L 113.153719 -147.303303 
L 112.385124 -147.295599 
L 111.616529 -147.327576 
L 110.847934 -147.358982 
L 110.079339 -147.388987 
L 109.310744 -147.433292 
L 108.542149 -147.485586 
L 107.773554 -147.435143 
L 107.004959 -147.526836 
L 106.236364 -147.816784 
L 105.467769 -148.342971 
L 104.699174 -148.717498 
L 103.930579 -148.570029 
L 103.161983 -147.995927 
L 102.393388 -147.610465 
L 101.624793 -147.517545 
L 100.856198 -147.505562 
L 100.087603 -147.542687 
L 99.319008 -147.666909 
L 98.550413 -148.0777 
L 97.781818 -148.532402 
L 97.013223 -148.605042 
L 96.244628 -148.171298 
L 95.476033 -147.596592 
L 94.707438 -147.465118 
L 93.938843 -147.445533 
L 93.170248 -147.461467 
L 92.401653 -147.460497 
L 91.633058 -147.484175 
L 90.864463 -147.406985 
L 90.095868 -147.433647 
L 89.327273 -147.451728 
L 88.558678 -147.423683 
L 87.790083 -147.428341 
L 87.021488 -147.456422 
L 86.252893 -147.418017 
L 85.484298 -147.42263 
L 84.715702 -147.445363 
L 83.947107 -147.499816 
L 83.178512 -147.531723 
L 82.409917 -147.484742 
L 81.641322 -147.420421 
L 80.872727 -147.40009 
L 80.104132 -147.416153 
L 79.335537 -147.411653 
L 78.566942 -147.452019 
L 77.798347 -147.481743 
L 77.029752 -147.511447 
L 76.261157 -147.489396 
L 75.492562 -147.53733 
L 74.723967 -147.585083 
L 73.955372 -147.57946 
L 73.186777 -147.557375 
L 72.418182 -147.430623 
L 71.649587 -147.360854 
L 70.880992 -147.354196 
L 70.112397 -147.307435 
L 69.343802 -147.278166 
L 68.575207 -147.215839 
L 67.806612 -147.235674 
L 67.038017 -147.272528 
L 66.269421 -147.318379 
L 65.500826 -147.347468 
L 64.732231 -147.398418 
L 63.963636 -147.469073 
L 63.195041 -147.465434 
L 62.426446 -147.490893 
L 61.657851 -147.534625 
L 60.889256 -147.587282 
L 60.120661 -147.669389 
L 59.352066 -147.62787 
L 58.583471 -147.51125 
L 57.814876 -147.457675 
L 57.046281 -147.324676 
L 56.277686 -147.266522 
L 55.509091 -147.226047 
L 54.740496 -147.261894 
L 53.971901 -147.279424 
L 53.203306 -147.349488 
L 52.434711 -147.32419 
L 51.666116 -147.286067 
L 50.897521 -147.23044 
L 50.128926 -147.229987 
L 49.360331 -147.291873 
L 48.591736 -147.338306 
L 47.82314 -147.346931 
L 47.054545 -147.277832 
L 46.28595 -147.264413 
L 45.517355 -147.293006 
L 44.74876 -147.279023 
L 43.980165 -147.245328 
L 43.21157 -147.253475 
L 42.442975 -147.28021 
L 41.67438 -147.35761 
L 40.905785 -147.344129 
L 40.13719 -147.352363 
L 39.368595 -147.318106 
L 38.6 -147.257065 
z
" id="mcd319c383c" style="stroke:#00664c;stroke-opacity:0.2;"/>
    </defs>
    <g clip-path="url(#p635c91c981)">
     <use style="fill:#00664c;fill-opacity:0.2;stroke:#00664c;stroke-opacity:0.2;" x="0" xlink:href="#mcd319c383c" y="414.565312"/>
    </g>
   </g>
   <g id="patch_3">
    <path clip-path="url(#p635c91c981)" d="M 457.393464 391.22 
L 457.393464 10.7 
L 177.918332 10.7 
L 177.918332 391.22 
z
" style="fill:#1a1a1a;opacity:0.2;stroke:#ffffff;stroke-linejoin:miter;"/>
   </g>
   <g id="line2d_10">
    <path clip-path="url(#p635c91c981)" d="M 38.6 267.448302 
L 40.905785 267.364541 
L 42.442975 267.41348 
L 43.980165 267.460082 
L 48.591736 267.367296 
L 50.897521 267.431605 
L 53.203306 267.406198 
L 55.509091 267.456561 
L 57.046281 267.384709 
L 60.120661 267.090335 
L 68.575207 267.476168 
L 71.649587 267.351625 
L 75.492562 267.167167 
L 77.798347 267.269099 
L 80.104132 267.315149 
L 82.409917 267.244868 
L 83.947107 267.231492 
L 87.790083 267.324718 
L 95.476033 267.252858 
L 96.244628 267.060024 
L 97.013223 266.624465 
L 97.781818 266.482585 
L 98.550413 266.854105 
L 99.319008 267.101038 
L 100.856198 267.221669 
L 103.161983 267.11178 
L 103.930579 266.854609 
L 104.699174 266.420005 
L 105.467769 266.653983 
L 106.236364 267.055112 
L 107.773554 267.325286 
L 110.847934 267.381961 
L 113.153719 267.429276 
L 119.302479 267.328588 
L 121.608264 267.269839 
L 123.91405 266.870742 
L 125.45124 267.009155 
L 127.757025 267.000179 
L 129.294215 267.12812 
L 130.06281 267.113519 
L 132.368595 266.715432 
L 134.67438 266.731637 
L 136.21157 267.016205 
L 136.980165 267.069082 
L 138.517355 266.974735 
L 141.591736 267.013944 
L 143.128926 266.712619 
L 146.203306 267.352728 
L 150.046281 267.348288 
L 152.352066 267.196755 
L 156.963636 267.438527 
L 159.269421 267.340385 
L 171.566942 267.358036 
L 173.104132 267.265713 
L 175.409917 266.936134 
L 177.715702 267.29854 
L 189.244628 267.376738 
L 194.624793 266.988219 
L 197.699174 267.444137 
L 200.004959 267.454363 
L 201.542149 267.394405 
L 218.45124 267.494987 
L 220.757025 267.448529 
L 228.442975 267.572851 
L 229.980165 267.582607 
L 231.517355 267.54185 
L 236.897521 267.626549 
L 238.434711 267.574748 
L 246.889256 267.395491 
L 252.269421 267.269706 
L 254.575207 267.321165 
L 256.112397 267.293606 
L 258.418182 267.267247 
L 259.955372 267.202393 
L 261.492562 267.067864 
L 264.566942 266.983103 
L 267.641322 266.790433 
L 269.947107 266.891997 
L 272.252893 266.76013 
L 276.095868 266.673844 
L 277.633058 266.559239 
L 279.938843 266.460956 
L 281.476033 266.190001 
L 282.244628 266.201548 
L 283.013223 266.061434 
L 284.550413 266.026776 
L 286.087603 265.827141 
L 293.004959 265.140502 
L 293.773554 264.875837 
L 294.542149 264.867562 
L 296.079339 264.379935 
L 297.616529 264.342947 
L 299.153719 263.813513 
L 299.922314 263.445217 
L 301.459504 263.043932 
L 302.228099 262.298961 
L 304.533884 260.906429 
L 305.302479 260.38127 
L 306.071074 259.569958 
L 306.839669 259.225217 
L 310.682645 255.203205 
L 314.52562 249.808113 
L 319.13719 240.933282 
L 319.905785 240.004345 
L 320.67438 239.546972 
L 321.442975 238.484879 
L 324.517355 232.361167 
L 325.28595 230.177203 
L 326.054545 228.963219 
L 326.82314 226.323656 
L 327.591736 221.099556 
L 328.360331 221.246 
L 329.128926 221.143139 
L 329.897521 221.500372 
L 330.666116 230.584072 
L 332.203306 263.515623 
L 332.971901 284.681017 
L 333.740496 292.681166 
L 334.509091 301.889925 
L 335.277686 300.550921 
L 336.046281 288.637255 
L 336.814876 274.131793 
L 337.583471 255.687066 
L 338.352066 241.561042 
L 339.120661 233.905489 
L 339.889256 230.628638 
L 340.657851 228.961079 
L 341.426446 229.725572 
L 342.963636 234.843435 
L 343.732231 236.866807 
L 344.500826 240.868427 
L 345.269421 242.981165 
L 346.038017 246.55601 
L 349.880992 261.19636 
L 350.649587 262.898482 
L 351.418182 264.101052 
L 352.955372 265.943551 
L 355.261157 266.773194 
L 356.798347 267.561048 
L 357.566942 267.505134 
L 359.104132 267.673821 
L 361.409917 268.157059 
L 362.947107 267.85414 
L 364.484298 267.927513 
L 365.252893 267.869998 
L 366.021488 267.455216 
L 366.790083 267.321599 
L 367.558678 267.342393 
L 369.864463 267.672745 
L 371.401653 267.482231 
L 372.170248 267.576623 
L 373.707438 267.350448 
L 375.244628 267.658028 
L 376.013223 267.671111 
L 376.781818 267.79871 
L 377.550413 267.698325 
L 379.087603 267.794885 
L 381.393388 267.725905 
L 382.930579 267.754912 
L 386.773554 267.641756 
L 388.310744 267.603324 
L 398.302479 267.719626 
L 399.071074 267.768036 
L 399.839669 267.653857 
L 400.608264 267.670892 
L 401.37686 267.566843 
L 404.45124 267.544741 
L 405.98843 267.524883 
L 408.294215 267.619331 
L 409.06281 267.557391 
L 410.6 267.649131 
L 412.905785 267.593233 
L 419.054545 267.444105 
L 422.128926 267.58167 
L 424.434711 267.519572 
L 425.203306 267.59771 
L 427.509091 267.537068 
L 429.046281 267.629109 
L 430.583471 267.589729 
L 432.120661 267.659142 
L 433.657851 267.458595 
L 435.963636 267.510328 
L 438.269421 267.26527 
L 439.806612 267.436263 
L 445.955372 267.446778 
L 447.492562 267.51114 
L 450.566942 267.541204 
L 453.641322 267.47088 
L 455.947107 267.441042 
L 458.252893 267.421313 
L 459.790083 267.185882 
L 460.558678 266.745512 
L 461.327273 266.088112 
L 462.095868 265.62316 
L 462.864463 265.384385 
L 463.633058 265.370974 
L 464.401653 265.726258 
L 465.170248 266.378276 
L 465.938843 266.868685 
L 466.707438 267.115718 
L 468.244628 267.240168 
L 469.781818 267.27983 
L 471.319008 266.999596 
L 472.856198 266.63492 
L 473.624793 266.349577 
L 474.393388 265.707647 
L 475.161983 265.217607 
L 475.930579 265.073725 
L 476.699174 265.136422 
L 477.467769 265.54636 
L 478.236364 266.269302 
L 479.004959 266.810252 
L 480.542149 267.162136 
L 482.079339 267.070602 
L 482.847934 266.937374 
L 484.385124 267.05365 
L 485.922314 267.14856 
L 487.459504 267.094049 
L 489.765289 266.883781 
L 490.533884 266.771272 
L 494.37686 266.871689 
L 495.91405 266.666356 
L 497.45124 266.892191 
L 498.98843 267.150917 
L 500.52562 267.167855 
L 502.06281 266.982984 
L 504.368595 267.059312 
L 505.13719 266.938785 
L 505.905785 266.679 
L 506.67438 266.140454 
L 507.442975 264.708522 
L 508.21157 263.641648 
L 508.980165 264.465354 
L 509.74876 265.58302 
L 510.517355 265.92549 
L 511.28595 265.697274 
L 512.054545 264.832896 
L 512.82314 265.038637 
L 513.591736 265.764739 
L 514.360331 266.322876 
L 515.128926 266.603264 
L 516.666116 266.773934 
L 520.509091 266.973193 
L 522.046281 266.756767 
L 523.583471 266.412524 
L 524.352066 266.138637 
L 525.120661 265.611082 
L 526.657851 263.18617 
L 527.426446 263.781888 
L 528.195041 264.729767 
L 528.963636 264.932783 
L 529.732231 264.638034 
L 530.500826 263.981553 
L 531.269421 264.391652 
L 532.038017 265.05589 
L 533.575207 265.892908 
L 535.112397 266.192656 
L 538.186777 266.517282 
L 540.492562 266.408745 
L 542.029752 266.582992 
L 544.335537 266.466152 
L 545.872727 266.250248 
L 548.178512 266.457698 
L 549.715702 266.263121 
L 553.558678 266.624763 
L 555.095868 266.778415 
L 558.170248 266.518834 
L 559.707438 266.913294 
L 562.013223 267.096329 
L 563.550413 267.031412 
L 565.856198 266.710523 
L 568.930579 266.698069 
L 570.467769 266.639238 
L 572.773554 266.800516 
L 574.310744 266.738467 
L 577.385124 266.480298 
L 578.922314 266.323542 
L 579.690909 266.13375 
L 580.459504 265.704924 
L 581.996694 264.336317 
L 582.765289 264.224061 
L 583.533884 264.682315 
L 585.071074 265.954288 
L 586.608264 266.521386 
L 588.145455 266.582141 
L 590.45124 266.374426 
L 591.98843 265.763887 
L 595.831405 266.576722 
L 596.6 266.639124 
L 596.6 266.639124 
" style="fill:none;stroke:#75b5a1;stroke-linecap:round;stroke-width:1.5;"/>
   </g>
   <g id="line2d_11">
    <path clip-path="url(#p635c91c981)" d="M 38.6 266.599132 
L 42.442975 266.158579 
L 43.21157 266.217473 
L 45.517355 266.116906 
L 47.82314 266.04893 
L 49.360331 265.908063 
L 50.128926 265.976201 
L 53.203306 265.462859 
L 54.740496 265.550404 
L 56.277686 265.562743 
L 58.583471 265.039698 
L 60.889256 264.900091 
L 63.195041 264.452601 
L 65.500826 264.511884 
L 66.269421 264.698134 
L 68.575207 264.650656 
L 72.418182 264.072933 
L 73.955372 263.509215 
L 76.261157 263.554992 
L 77.798347 263.497038 
L 80.872727 263.44256 
L 89.327273 262.362878 
L 90.095868 262.365214 
L 90.864463 262.108114 
L 93.938843 261.680356 
L 95.476033 261.455229 
L 96.244628 261.182075 
L 97.781818 260.226436 
L 100.087603 260.79469 
L 100.856198 260.654747 
L 103.161983 260.510351 
L 103.930579 260.191858 
L 104.699174 259.544487 
L 105.467769 259.403637 
L 107.004959 259.937037 
L 109.310744 259.846217 
L 110.079339 259.714341 
L 111.616529 259.627769 
L 114.690909 259.093395 
L 115.459504 258.764226 
L 116.228099 258.593314 
L 117.765289 258.529468 
L 119.302479 258.23643 
L 120.071074 258.172553 
L 121.608264 257.819926 
L 123.145455 257.526467 
L 124.682645 257.148073 
L 126.219835 256.926533 
L 127.757025 256.483944 
L 130.06281 256.057052 
L 132.368595 255.415124 
L 133.13719 255.080858 
L 135.442975 254.642077 
L 136.980165 254.543234 
L 140.82314 253.989068 
L 143.128926 252.989328 
L 146.971901 252.779108 
L 150.046281 252.312336 
L 151.583471 251.914825 
L 153.120661 251.693214 
L 155.426446 251.051998 
L 160.038017 250.024514 
L 160.806612 249.804643 
L 161.575207 249.760651 
L 162.343802 249.502526 
L 163.112397 249.471138 
L 165.418182 248.917803 
L 166.955372 248.385802 
L 167.723967 248.26876 
L 168.492562 247.965654 
L 170.798347 247.445094 
L 176.947107 245.81173 
L 177.715702 245.733047 
L 179.252893 245.396091 
L 182.327273 244.905008 
L 186.170248 244.063912 
L 186.938843 243.990633 
L 193.087603 242.33791 
L 193.856198 241.968608 
L 196.161983 241.73303 
L 196.930579 241.664811 
L 197.699174 241.728016 
L 198.467769 241.675304 
L 200.004959 241.325741 
L 203.079339 240.643174 
L 203.847934 240.386677 
L 204.616529 240.340875 
L 205.385124 240.117781 
L 211.533884 239.227384 
L 212.302479 238.950501 
L 215.37686 238.727001 
L 217.682645 238.467503 
L 219.219835 238.027274 
L 220.757025 237.827039 
L 224.6 237.428692 
L 226.13719 237.341993 
L 227.67438 237.384859 
L 228.442975 237.503059 
L 229.980165 238.162324 
L 231.517355 239.13168 
L 232.28595 239.23146 
L 233.054545 239.159243 
L 233.82314 238.87498 
L 234.591736 238.266376 
L 236.897521 235.315435 
L 237.666116 234.641501 
L 239.203306 233.767328 
L 243.046281 232.787871 
L 243.814876 232.809982 
L 244.583471 232.659122 
L 245.352066 232.653334 
L 247.657851 232.174543 
L 248.426446 231.88807 
L 249.195041 231.787582 
L 250.732231 231.415675 
L 253.806612 231.024739 
L 254.575207 230.902041 
L 255.343802 230.624068 
L 257.649587 230.056016 
L 262.261157 227.934758 
L 263.798347 227.569321 
L 266.104132 226.794794 
L 267.641322 226.313114 
L 269.178512 225.267007 
L 270.715702 224.166922 
L 272.252893 223.173864 
L 275.327273 221.016107 
L 276.864463 220.110614 
L 278.401653 218.941198 
L 279.170248 218.374096 
L 283.013223 214.477929 
L 284.550413 213.040388 
L 289.161983 208.568563 
L 290.699174 206.573927 
L 293.773554 201.458509 
L 296.079339 197.061195 
L 297.616529 194.95377 
L 299.922314 192.282969 
L 300.690909 191.226631 
L 301.459504 189.929044 
L 302.228099 188.073246 
L 306.071074 176.365831 
L 306.839669 174.459126 
L 308.37686 171.116814 
L 309.145455 168.942309 
L 310.682645 163.444911 
L 311.45124 159.829412 
L 312.219835 155.35954 
L 317.6 119.019176 
L 318.368595 111.745035 
L 321.442975 77.326554 
L 322.21157 72.32616 
L 322.980165 70.24864 
L 323.74876 71.688282 
L 324.517355 75.483082 
L 325.28595 80.676913 
L 326.054545 83.649324 
L 326.82314 80.064827 
L 327.591736 67.068676 
L 329.128926 29.949224 
L 329.897521 27.996364 
L 330.666116 57.202251 
L 331.434711 123.050951 
L 332.971901 281.613895 
L 333.740496 338.90942 
L 334.509091 371.61491 
L 335.277686 373.923636 
L 336.046281 350.30255 
L 338.352066 246.264156 
L 339.120661 223.702903 
L 339.889256 209.641622 
L 340.657851 202.034818 
L 341.426446 198.68872 
L 342.195041 198.311015 
L 342.963636 199.582929 
L 343.732231 201.335314 
L 344.500826 202.742424 
L 345.269421 203.863879 
L 346.038017 204.615155 
L 351.418182 208.542807 
L 352.955372 209.106733 
L 354.492562 208.55875 
L 355.261157 208.159769 
L 356.029752 208.087957 
L 356.798347 208.539996 
L 358.335537 210.365902 
L 359.872727 212.364228 
L 360.641322 213.077935 
L 361.409917 213.448365 
L 362.178512 213.472986 
L 362.947107 213.353074 
L 365.252893 212.378464 
L 366.021488 212.505848 
L 366.790083 212.808943 
L 367.558678 213.351766 
L 369.095868 214.687467 
L 370.633058 215.574925 
L 371.401653 215.426804 
L 372.170248 215.113339 
L 374.476033 213.633059 
L 375.244628 213.379854 
L 377.550413 213.174947 
L 379.087603 213.452795 
L 380.624793 213.589726 
L 382.161983 213.697232 
L 383.699174 213.58318 
L 384.467769 213.475741 
L 386.773554 212.882254 
L 388.310744 212.551449 
L 391.385124 212.206957 
L 392.922314 211.70619 
L 395.228099 210.881274 
L 395.996694 210.445744 
L 397.533884 209.853702 
L 399.071074 209.149772 
L 400.608264 208.694907 
L 402.145455 208.160306 
L 402.91405 207.9508 
L 405.98843 206.479011 
L 406.757025 206.212971 
L 408.294215 205.372786 
L 412.905785 203.702305 
L 416.74876 202.421388 
L 417.517355 202.00106 
L 418.28595 201.772743 
L 420.591736 200.825633 
L 422.128926 200.273488 
L 424.434711 199.719922 
L 427.509091 198.358374 
L 428.277686 197.827194 
L 429.814876 196.228912 
L 431.352066 194.286194 
L 432.120661 193.3366 
L 432.889256 192.662506 
L 433.657851 192.143208 
L 434.426446 192.155102 
L 435.195041 192.435329 
L 437.500826 193.704969 
L 438.269421 193.985804 
L 439.806612 194.0886 
L 445.955372 193.195167 
L 453.641322 191.957966 
L 454.409917 192.068717 
L 455.947107 191.988261 
L 457.484298 191.776134 
L 459.790083 191.360676 
L 462.095868 189.786599 
L 463.633058 189.385424 
L 464.401653 189.683871 
L 465.170248 190.275918 
L 466.707438 191.073246 
L 467.476033 191.198277 
L 471.319008 191.134193 
L 472.087603 191.054636 
L 473.624793 190.579751 
L 474.393388 189.965214 
L 475.161983 189.581911 
L 475.930579 189.40628 
L 476.699174 189.552393 
L 477.467769 190.063467 
L 479.004959 191.364971 
L 480.542149 191.969501 
L 481.310744 192.103324 
L 483.616529 192.035186 
L 485.922314 192.563304 
L 486.690909 192.864112 
L 488.996694 193.152266 
L 489.765289 193.23496 
L 490.533884 193.136619 
L 491.302479 193.340644 
L 492.071074 193.702107 
L 493.608264 194.089037 
L 494.37686 194.148498 
L 495.91405 194.565034 
L 496.682645 194.556136 
L 497.45124 194.766523 
L 498.219835 195.148763 
L 499.757025 195.688104 
L 502.06281 195.970169 
L 503.6 196.43367 
L 505.905785 196.867643 
L 506.67438 196.454906 
L 508.21157 194.684725 
L 508.980165 195.501466 
L 509.74876 196.844905 
L 510.517355 197.496697 
L 511.28595 197.616413 
L 512.054545 197.277201 
L 512.82314 197.396176 
L 514.360331 199.19604 
L 515.128926 199.771843 
L 518.203306 201.120143 
L 518.971901 201.314497 
L 520.509091 202.044082 
L 523.583471 202.536837 
L 524.352066 202.566387 
L 525.120661 202.225692 
L 526.657851 200.19101 
L 527.426446 200.768906 
L 528.195041 201.971549 
L 528.963636 202.56038 
L 529.732231 202.747281 
L 530.500826 202.682923 
L 531.269421 203.096869 
L 532.806612 204.993823 
L 534.343802 205.987384 
L 538.955372 208.339336 
L 540.492562 208.781256 
L 543.566942 210.195016 
L 545.104132 210.68116 
L 546.641322 211.090812 
L 548.947107 212.097705 
L 554.327273 214.135116 
L 555.095868 214.321456 
L 557.401653 213.84564 
L 558.170248 214.324808 
L 559.707438 216.16078 
L 561.244628 217.10037 
L 563.550413 218.009828 
L 566.624793 218.95825 
L 568.161983 219.769845 
L 569.699174 220.182428 
L 573.542149 221.419928 
L 575.079339 221.874054 
L 575.847934 222.138731 
L 576.616529 222.276757 
L 577.385124 222.543485 
L 579.690909 222.863461 
L 580.459504 222.688065 
L 581.228099 222.165903 
L 581.996694 221.83853 
L 582.765289 222.093317 
L 583.533884 222.587136 
L 585.071074 224.336751 
L 587.37686 225.609741 
L 588.91405 226.268063 
L 590.45124 226.61912 
L 591.98843 226.39321 
L 592.757025 226.590847 
L 593.52562 227.134942 
L 595.831405 228.073734 
L 596.6 228.452846 
L 596.6 228.452846 
" style="fill:none;stroke:#cc0d03;stroke-linecap:round;stroke-opacity:0.7;stroke-width:1.5;"/>
   </g>
   <g id="line2d_12">
    <path clip-path="url(#p635c91c981)" d="M 38.6 266.599132 
L 42.442975 266.158579 
L 43.21157 266.217473 
L 45.517355 266.116906 
L 47.82314 266.04893 
L 49.360331 265.908063 
L 50.128926 265.976201 
L 53.203306 265.462859 
L 54.740496 265.550404 
L 56.277686 265.562743 
L 58.583471 265.039698 
L 60.889256 264.900091 
L 63.195041 264.452601 
L 65.500826 264.511884 
L 66.269421 264.698134 
L 68.575207 264.650656 
L 72.418182 264.072933 
L 73.955372 263.509215 
L 76.261157 263.554992 
L 77.798347 263.497038 
L 80.872727 263.44256 
L 89.327273 262.362878 
L 90.095868 262.365214 
L 90.864463 262.108114 
L 93.938843 261.680356 
L 95.476033 261.455229 
L 96.244628 261.182075 
L 97.781818 260.226436 
L 100.087603 260.79469 
L 100.856198 260.654747 
L 103.161983 260.510351 
L 103.930579 260.191858 
L 104.699174 259.544487 
L 105.467769 259.403637 
L 107.004959 259.937037 
L 109.310744 259.846217 
L 110.079339 259.714341 
L 111.616529 259.627769 
L 114.690909 259.093395 
L 115.459504 258.764226 
L 116.228099 258.593314 
L 117.765289 258.529468 
L 119.302479 258.23643 
L 120.071074 258.172553 
L 121.608264 257.819926 
L 123.145455 257.526467 
L 124.682645 257.148073 
L 126.219835 256.926533 
L 127.757025 256.483944 
L 130.06281 256.057052 
L 132.368595 255.415124 
L 133.13719 255.080858 
L 135.442975 254.642077 
L 136.980165 254.543234 
L 140.82314 253.989068 
L 143.128926 252.989328 
L 146.971901 252.779108 
L 150.046281 252.312336 
L 151.583471 251.914825 
L 153.120661 251.693214 
L 155.426446 251.051998 
L 160.038017 250.024514 
L 160.806612 249.804643 
L 161.575207 249.760651 
L 162.343802 249.502526 
L 163.112397 249.471138 
L 165.418182 248.917803 
L 166.955372 248.385802 
L 167.723967 248.26876 
L 168.492562 247.965654 
L 170.798347 247.445094 
L 176.947107 245.81173 
L 177.715702 245.733047 
L 179.252893 245.396091 
L 182.327273 244.905008 
L 186.170248 244.063912 
L 186.938843 243.990633 
L 193.087603 242.33791 
L 193.856198 241.968608 
L 196.161983 241.73303 
L 196.930579 241.664811 
L 197.699174 241.728016 
L 198.467769 241.675304 
L 200.004959 241.325741 
L 203.079339 240.643174 
L 203.847934 240.386677 
L 204.616529 240.340875 
L 205.385124 240.117781 
L 211.533884 239.227384 
L 212.302479 238.950501 
L 215.37686 238.727001 
L 217.682645 238.467503 
L 219.219835 238.027274 
L 220.757025 237.827039 
L 224.6 237.428692 
L 226.13719 237.341993 
L 227.67438 237.384859 
L 228.442975 237.503059 
L 229.980165 238.162324 
L 231.517355 239.13168 
L 232.28595 239.23146 
L 233.054545 239.159243 
L 233.82314 238.87498 
L 234.591736 238.266376 
L 236.897521 235.315435 
L 237.666116 234.641501 
L 239.203306 233.767328 
L 243.046281 232.787871 
L 243.814876 232.809982 
L 244.583471 232.659122 
L 245.352066 232.653334 
L 247.657851 232.174543 
L 248.426446 231.88807 
L 249.195041 231.787582 
L 250.732231 231.415675 
L 253.806612 231.024739 
L 254.575207 230.902041 
L 255.343802 230.624068 
L 257.649587 230.056016 
L 262.261157 227.934758 
L 263.798347 227.569321 
L 266.104132 226.794794 
L 267.641322 226.313114 
L 269.178512 225.267007 
L 270.715702 224.166922 
L 272.252893 223.173864 
L 275.327273 221.016107 
L 276.864463 220.110614 
L 278.401653 218.941198 
L 279.170248 218.374096 
L 283.013223 214.477929 
L 284.550413 213.040388 
L 289.161983 208.568563 
L 290.699174 206.573927 
L 293.773554 201.458509 
L 296.079339 197.061195 
L 297.616529 194.95377 
L 299.922314 192.282969 
L 300.690909 191.226631 
L 301.459504 189.929044 
L 302.228099 188.073246 
L 306.071074 176.365831 
L 306.839669 174.459126 
L 308.37686 171.116814 
L 309.145455 168.942309 
L 310.682645 163.444911 
L 311.45124 159.829412 
L 312.219835 155.35954 
L 317.6 119.019176 
L 318.368595 111.745035 
L 321.442975 77.326554 
L 322.21157 72.32616 
L 322.980165 70.24864 
L 323.74876 71.688282 
L 324.517355 75.483082 
L 325.28595 80.676913 
L 326.054545 83.649324 
L 326.82314 80.064827 
L 327.591736 67.068676 
L 329.128926 29.949224 
L 329.897521 27.996364 
L 330.666116 57.202251 
L 331.434711 123.050951 
L 332.971901 281.613895 
L 333.740496 338.90942 
L 334.509091 371.61491 
L 335.277686 373.923636 
L 336.046281 350.30255 
L 338.352066 246.264156 
L 339.120661 223.702903 
L 339.889256 209.641622 
L 340.657851 202.034818 
L 341.426446 198.68872 
L 342.195041 198.311015 
L 342.963636 199.582929 
L 343.732231 201.335314 
L 344.500826 202.742424 
L 345.269421 203.863879 
L 346.038017 204.615155 
L 351.418182 208.542807 
L 352.955372 209.106733 
L 354.492562 208.55875 
L 355.261157 208.159769 
L 356.029752 208.087957 
L 356.798347 208.539996 
L 358.335537 210.365902 
L 359.872727 212.364228 
L 360.641322 213.077935 
L 361.409917 213.448365 
L 362.178512 213.472986 
L 362.947107 213.353074 
L 365.252893 212.378464 
L 366.021488 212.505848 
L 366.790083 212.808943 
L 367.558678 213.351766 
L 369.095868 214.687467 
L 370.633058 215.574925 
L 371.401653 215.426804 
L 372.170248 215.113339 
L 374.476033 213.633059 
L 375.244628 213.379854 
L 377.550413 213.174947 
L 379.087603 213.452795 
L 380.624793 213.589726 
L 382.161983 213.697232 
L 383.699174 213.58318 
L 384.467769 213.475741 
L 386.773554 212.882254 
L 388.310744 212.551449 
L 391.385124 212.206957 
L 392.922314 211.70619 
L 395.228099 210.881274 
L 395.996694 210.445744 
L 397.533884 209.853702 
L 399.071074 209.149772 
L 400.608264 208.694907 
L 402.145455 208.160306 
L 402.91405 207.9508 
L 405.98843 206.479011 
L 406.757025 206.212971 
L 408.294215 205.372786 
L 412.905785 203.702305 
L 416.74876 202.421388 
L 417.517355 202.00106 
L 418.28595 201.772743 
L 420.591736 200.825633 
L 422.128926 200.273488 
L 424.434711 199.719922 
L 427.509091 198.358374 
L 428.277686 197.827194 
L 429.814876 196.228912 
L 431.352066 194.286194 
L 432.120661 193.3366 
L 432.889256 192.662506 
L 433.657851 192.143208 
L 434.426446 192.155102 
L 435.195041 192.435329 
L 437.500826 193.704969 
L 438.269421 193.985804 
L 439.806612 194.0886 
L 445.955372 193.195167 
L 453.641322 191.957966 
L 454.409917 192.068717 
L 455.947107 191.988261 
L 457.484298 191.776134 
L 459.790083 191.360676 
L 462.095868 189.786599 
L 463.633058 189.385424 
L 464.401653 189.683871 
L 465.170248 190.275918 
L 466.707438 191.073246 
L 467.476033 191.198277 
L 471.319008 191.134193 
L 472.087603 191.054636 
L 473.624793 190.579751 
L 474.393388 189.965214 
L 475.161983 189.581911 
L 475.930579 189.40628 
L 476.699174 189.552393 
L 477.467769 190.063467 
L 479.004959 191.364971 
L 480.542149 191.969501 
L 481.310744 192.103324 
L 483.616529 192.035186 
L 485.922314 192.563304 
L 486.690909 192.864112 
L 488.996694 193.152266 
L 489.765289 193.23496 
L 490.533884 193.136619 
L 491.302479 193.340644 
L 492.071074 193.702107 
L 493.608264 194.089037 
L 494.37686 194.148498 
L 495.91405 194.565034 
L 496.682645 194.556136 
L 497.45124 194.766523 
L 498.219835 195.148763 
L 499.757025 195.688104 
L 502.06281 195.970169 
L 503.6 196.43367 
L 505.905785 196.867643 
L 506.67438 196.454906 
L 508.21157 194.684725 
L 508.980165 195.501466 
L 509.74876 196.844905 
L 510.517355 197.496697 
L 511.28595 197.616413 
L 512.054545 197.277201 
L 512.82314 197.396176 
L 514.360331 199.19604 
L 515.128926 199.771843 
L 518.203306 201.120143 
L 518.971901 201.314497 
L 520.509091 202.044082 
L 523.583471 202.536837 
L 524.352066 202.566387 
L 525.120661 202.225692 
L 526.657851 200.19101 
L 527.426446 200.768906 
L 528.195041 201.971549 
L 528.963636 202.56038 
L 529.732231 202.747281 
L 530.500826 202.682923 
L 531.269421 203.096869 
L 532.806612 204.993823 
L 534.343802 205.987384 
L 538.955372 208.339336 
L 540.492562 208.781256 
L 543.566942 210.195016 
L 545.104132 210.68116 
L 546.641322 211.090812 
L 548.947107 212.097705 
L 554.327273 214.135116 
L 555.095868 214.321456 
L 557.401653 213.84564 
L 558.170248 214.324808 
L 559.707438 216.16078 
L 561.244628 217.10037 
L 563.550413 218.009828 
L 566.624793 218.95825 
L 568.161983 219.769845 
L 569.699174 220.182428 
L 573.542149 221.419928 
L 575.079339 221.874054 
L 575.847934 222.138731 
L 576.616529 222.276757 
L 577.385124 222.543485 
L 579.690909 222.863461 
L 580.459504 222.688065 
L 581.228099 222.165903 
L 581.996694 221.83853 
L 582.765289 222.093317 
L 583.533884 222.587136 
L 585.071074 224.336751 
L 587.37686 225.609741 
L 588.91405 226.268063 
L 590.45124 226.61912 
L 591.98843 226.39321 
L 592.757025 226.590847 
L 593.52562 227.134942 
L 595.831405 228.073734 
L 596.6 228.452846 
L 596.6 228.452846 
" style="fill:none;stroke:#0d0dcc;stroke-linecap:round;stroke-opacity:0.7;stroke-width:1.5;"/>
   </g>
   <g id="patch_4">
    <path d="M 10.7 391.22 
L 10.7 10.7 
" style="fill:none;stroke:#cccccc;stroke-linecap:square;stroke-linejoin:miter;stroke-width:0.8;"/>
   </g>
   <g id="patch_5">
    <path d="M 624.5 391.22 
L 624.5 10.7 
" style="fill:none;stroke:#cccccc;stroke-linecap:square;stroke-linejoin:miter;stroke-width:0.8;"/>
   </g>
   <g id="patch_6">
    <path d="M 10.7 391.22 
L 624.5 391.22 
" style="fill:none;stroke:#cccccc;stroke-linecap:square;stroke-linejoin:miter;stroke-width:0.8;"/>
   </g>
   <g id="patch_7">
    <path d="M 10.7 10.7 
L 624.5 10.7 
" style="fill:none;stroke:#cccccc;stroke-linecap:square;stroke-linejoin:miter;stroke-width:0.8;"/>
   </g>
   <g id="legend_1">
    <g id="patch_8">
     <path d="M 434.3 61.375 
L 617.5 61.375 
Q 619.5 61.375 619.5 59.375 
L 619.5 17.7 
Q 619.5 15.7 617.5 15.7 
L 434.3 15.7 
Q 432.3 15.7 432.3 17.7 
L 432.3 59.375 
Q 432.3 61.375 434.3 61.375 
z
" style="fill:#ffffff;opacity:0.8;stroke:#cccccc;stroke-linejoin:miter;"/>
    </g>
    <g id="patch_9">
     <path d="M 436.3 26.857812 
L 456.3 26.857812 
L 456.3 19.857812 
L 436.3 19.857812 
z
" style="fill:#00664c;fill-opacity:0.2;stroke:#00664c;stroke-linejoin:miter;stroke-opacity:0.2;"/>
    </g>
    <g id="text_10">
     <!-- Variance about the median -->
     <defs>
      <path d="M 28.171875 0 
L 0.4375 71.578125 
L 10.6875 71.578125 
L 29.296875 19.578125 
Q 31.546875 13.328125 33.0625 7.859375 
Q 34.71875 13.71875 36.921875 19.578125 
L 56.25 71.578125 
L 65.921875 71.578125 
L 37.890625 0 
z
" id="ArialMT-86"/>
      <path d="M 40.4375 6.390625 
Q 35.546875 2.25 31.03125 0.53125 
Q 26.515625 -1.171875 21.34375 -1.171875 
Q 12.796875 -1.171875 8.203125 3 
Q 3.609375 7.171875 3.609375 13.671875 
Q 3.609375 17.484375 5.34375 20.625 
Q 7.078125 23.78125 9.890625 25.6875 
Q 12.703125 27.59375 16.21875 28.5625 
Q 18.796875 29.25 24.03125 29.890625 
Q 34.671875 31.15625 39.703125 32.90625 
Q 39.75 34.71875 39.75 35.203125 
Q 39.75 40.578125 37.25 42.78125 
Q 33.890625 45.75 27.25 45.75 
Q 21.046875 45.75 18.09375 43.578125 
Q 15.140625 41.40625 13.71875 35.890625 
L 5.125 37.0625 
Q 6.296875 42.578125 8.984375 45.96875 
Q 11.671875 49.359375 16.75 51.1875 
Q 21.828125 53.03125 28.515625 53.03125 
Q 35.15625 53.03125 39.296875 51.46875 
Q 43.453125 49.90625 45.40625 47.53125 
Q 47.359375 45.171875 48.140625 41.546875 
Q 48.578125 39.3125 48.578125 33.453125 
L 48.578125 21.734375 
Q 48.578125 9.46875 49.140625 6.21875 
Q 49.703125 2.984375 51.375 0 
L 42.1875 0 
Q 40.828125 2.734375 40.4375 6.390625 
z
M 39.703125 26.03125 
Q 34.90625 24.078125 25.34375 22.703125 
Q 19.921875 21.921875 17.671875 20.9375 
Q 15.4375 19.96875 14.203125 18.09375 
Q 12.984375 16.21875 12.984375 13.921875 
Q 12.984375 10.40625 15.640625 8.0625 
Q 18.3125 5.71875 23.4375 5.71875 
Q 28.515625 5.71875 32.46875 7.9375 
Q 36.421875 10.15625 38.28125 14.015625 
Q 39.703125 17 39.703125 22.796875 
z
" id="ArialMT-97"/>
      <path d="M 6.5 0 
L 6.5 51.859375 
L 14.40625 51.859375 
L 14.40625 44 
Q 17.4375 49.515625 20 51.265625 
Q 22.5625 53.03125 25.640625 53.03125 
Q 30.078125 53.03125 34.671875 50.203125 
L 31.640625 42.046875 
Q 28.421875 43.953125 25.203125 43.953125 
Q 22.3125 43.953125 20.015625 42.21875 
Q 17.71875 40.484375 16.75 37.40625 
Q 15.28125 32.71875 15.28125 27.15625 
L 15.28125 0 
z
" id="ArialMT-114"/>
      <path d="M 6.640625 61.46875 
L 6.640625 71.578125 
L 15.4375 71.578125 
L 15.4375 61.46875 
z
M 6.640625 0 
L 6.640625 51.859375 
L 15.4375 51.859375 
L 15.4375 0 
z
" id="ArialMT-105"/>
      <path d="M 6.59375 0 
L 6.59375 51.859375 
L 14.5 51.859375 
L 14.5 44.484375 
Q 20.21875 53.03125 31 53.03125 
Q 35.6875 53.03125 39.625 51.34375 
Q 43.5625 49.65625 45.515625 46.921875 
Q 47.46875 44.1875 48.25 40.4375 
Q 48.734375 37.984375 48.734375 31.890625 
L 48.734375 0 
L 39.9375 0 
L 39.9375 31.546875 
Q 39.9375 36.921875 38.90625 39.578125 
Q 37.890625 42.234375 35.28125 43.8125 
Q 32.671875 45.40625 29.15625 45.40625 
Q 23.53125 45.40625 19.453125 41.84375 
Q 15.375 38.28125 15.375 28.328125 
L 15.375 0 
z
" id="ArialMT-110"/>
      <path d="M 40.4375 19 
L 49.078125 17.875 
Q 47.65625 8.9375 41.8125 3.875 
Q 35.984375 -1.171875 27.484375 -1.171875 
Q 16.84375 -1.171875 10.375 5.78125 
Q 3.90625 12.75 3.90625 25.734375 
Q 3.90625 34.125 6.6875 40.421875 
Q 9.46875 46.734375 15.15625 49.875 
Q 20.84375 53.03125 27.546875 53.03125 
Q 35.984375 53.03125 41.359375 48.75 
Q 46.734375 44.484375 48.25 36.625 
L 39.703125 35.296875 
Q 38.484375 40.53125 35.375 43.15625 
Q 32.28125 45.796875 27.875 45.796875 
Q 21.234375 45.796875 17.078125 41.03125 
Q 12.9375 36.28125 12.9375 25.984375 
Q 12.9375 15.53125 16.9375 10.796875 
Q 20.953125 6.0625 27.390625 6.0625 
Q 32.5625 6.0625 36.03125 9.234375 
Q 39.5 12.40625 40.4375 19 
z
" id="ArialMT-99"/>
      <path d="M 42.09375 16.703125 
L 51.171875 15.578125 
Q 49.03125 7.625 43.21875 3.21875 
Q 37.40625 -1.171875 28.375 -1.171875 
Q 17 -1.171875 10.328125 5.828125 
Q 3.65625 12.84375 3.65625 25.484375 
Q 3.65625 38.578125 10.390625 45.796875 
Q 17.140625 53.03125 27.875 53.03125 
Q 38.28125 53.03125 44.875 45.953125 
Q 51.46875 38.875 51.46875 26.03125 
Q 51.46875 25.25 51.421875 23.6875 
L 12.75 23.6875 
Q 13.234375 15.140625 17.578125 10.59375 
Q 21.921875 6.0625 28.421875 6.0625 
Q 33.25 6.0625 36.671875 8.59375 
Q 40.09375 11.140625 42.09375 16.703125 
z
M 13.234375 30.90625 
L 42.1875 30.90625 
Q 41.609375 37.453125 38.875 40.71875 
Q 34.671875 45.796875 27.984375 45.796875 
Q 21.921875 45.796875 17.796875 41.75 
Q 13.671875 37.703125 13.234375 30.90625 
z
" id="ArialMT-101"/>
      <path id="ArialMT-32"/>
      <path d="M 14.703125 0 
L 6.546875 0 
L 6.546875 71.578125 
L 15.328125 71.578125 
L 15.328125 46.046875 
Q 20.90625 53.03125 29.546875 53.03125 
Q 34.328125 53.03125 38.59375 51.09375 
Q 42.875 49.171875 45.625 45.671875 
Q 48.390625 42.1875 49.953125 37.25 
Q 51.515625 32.328125 51.515625 26.703125 
Q 51.515625 13.375 44.921875 6.09375 
Q 38.328125 -1.171875 29.109375 -1.171875 
Q 19.921875 -1.171875 14.703125 6.5 
z
M 14.59375 26.3125 
Q 14.59375 17 17.140625 12.84375 
Q 21.296875 6.0625 28.375 6.0625 
Q 34.125 6.0625 38.328125 11.0625 
Q 42.53125 16.0625 42.53125 25.984375 
Q 42.53125 36.140625 38.5 40.96875 
Q 34.46875 45.796875 28.765625 45.796875 
Q 23 45.796875 18.796875 40.796875 
Q 14.59375 35.796875 14.59375 26.3125 
z
" id="ArialMT-98"/>
      <path d="M 3.328125 25.921875 
Q 3.328125 40.328125 11.328125 47.265625 
Q 18.015625 53.03125 27.640625 53.03125 
Q 38.328125 53.03125 45.109375 46.015625 
Q 51.90625 39.015625 51.90625 26.65625 
Q 51.90625 16.65625 48.90625 10.90625 
Q 45.90625 5.171875 40.15625 2 
Q 34.421875 -1.171875 27.640625 -1.171875 
Q 16.75 -1.171875 10.03125 5.8125 
Q 3.328125 12.796875 3.328125 25.921875 
z
M 12.359375 25.921875 
Q 12.359375 15.96875 16.703125 11.015625 
Q 21.046875 6.0625 27.640625 6.0625 
Q 34.1875 6.0625 38.53125 11.03125 
Q 42.875 16.015625 42.875 26.21875 
Q 42.875 35.84375 38.5 40.796875 
Q 34.125 45.75 27.640625 45.75 
Q 21.046875 45.75 16.703125 40.8125 
Q 12.359375 35.890625 12.359375 25.921875 
z
" id="ArialMT-111"/>
      <path d="M 40.578125 0 
L 40.578125 7.625 
Q 34.515625 -1.171875 24.125 -1.171875 
Q 19.53125 -1.171875 15.546875 0.578125 
Q 11.578125 2.34375 9.640625 5 
Q 7.71875 7.671875 6.9375 11.53125 
Q 6.390625 14.109375 6.390625 19.734375 
L 6.390625 51.859375 
L 15.1875 51.859375 
L 15.1875 23.09375 
Q 15.1875 16.21875 15.71875 13.8125 
Q 16.546875 10.359375 19.234375 8.375 
Q 21.921875 6.390625 25.875 6.390625 
Q 29.828125 6.390625 33.296875 8.421875 
Q 36.765625 10.453125 38.203125 13.9375 
Q 39.65625 17.4375 39.65625 24.078125 
L 39.65625 51.859375 
L 48.4375 51.859375 
L 48.4375 0 
z
" id="ArialMT-117"/>
      <path d="M 25.78125 7.859375 
L 27.046875 0.09375 
Q 23.34375 -0.6875 20.40625 -0.6875 
Q 15.625 -0.6875 12.984375 0.828125 
Q 10.359375 2.34375 9.28125 4.8125 
Q 8.203125 7.28125 8.203125 15.1875 
L 8.203125 45.015625 
L 1.765625 45.015625 
L 1.765625 51.859375 
L 8.203125 51.859375 
L 8.203125 64.703125 
L 16.9375 69.96875 
L 16.9375 51.859375 
L 25.78125 51.859375 
L 25.78125 45.015625 
L 16.9375 45.015625 
L 16.9375 14.703125 
Q 16.9375 10.9375 17.40625 9.859375 
Q 17.875 8.796875 18.921875 8.15625 
Q 19.96875 7.515625 21.921875 7.515625 
Q 23.390625 7.515625 25.78125 7.859375 
z
" id="ArialMT-116"/>
      <path d="M 6.59375 0 
L 6.59375 71.578125 
L 15.375 71.578125 
L 15.375 45.90625 
Q 21.53125 53.03125 30.90625 53.03125 
Q 36.671875 53.03125 40.921875 50.75 
Q 45.171875 48.484375 47 44.484375 
Q 48.828125 40.484375 48.828125 32.859375 
L 48.828125 0 
L 40.046875 0 
L 40.046875 32.859375 
Q 40.046875 39.453125 37.1875 42.453125 
Q 34.328125 45.453125 29.109375 45.453125 
Q 25.203125 45.453125 21.75 43.421875 
Q 18.3125 41.40625 16.84375 37.9375 
Q 15.375 34.46875 15.375 28.375 
L 15.375 0 
z
" id="ArialMT-104"/>
      <path d="M 6.59375 0 
L 6.59375 51.859375 
L 14.453125 51.859375 
L 14.453125 44.578125 
Q 16.890625 48.390625 20.9375 50.703125 
Q 25 53.03125 30.171875 53.03125 
Q 35.9375 53.03125 39.625 50.640625 
Q 43.3125 48.25 44.828125 43.953125 
Q 50.984375 53.03125 60.84375 53.03125 
Q 68.5625 53.03125 72.703125 48.75 
Q 76.859375 44.484375 76.859375 35.59375 
L 76.859375 0 
L 68.109375 0 
L 68.109375 32.671875 
Q 68.109375 37.9375 67.25 40.25 
Q 66.40625 42.578125 64.15625 43.984375 
Q 61.921875 45.40625 58.890625 45.40625 
Q 53.421875 45.40625 49.796875 41.765625 
Q 46.1875 38.140625 46.1875 30.125 
L 46.1875 0 
L 37.40625 0 
L 37.40625 33.6875 
Q 37.40625 39.546875 35.25 42.46875 
Q 33.109375 45.40625 28.21875 45.40625 
Q 24.515625 45.40625 21.359375 43.453125 
Q 18.21875 41.5 16.796875 37.734375 
Q 15.375 33.984375 15.375 26.90625 
L 15.375 0 
z
" id="ArialMT-109"/>
      <path d="M 40.234375 0 
L 40.234375 6.546875 
Q 35.296875 -1.171875 25.734375 -1.171875 
Q 19.53125 -1.171875 14.328125 2.25 
Q 9.125 5.671875 6.265625 11.796875 
Q 3.421875 17.921875 3.421875 25.875 
Q 3.421875 33.640625 6 39.96875 
Q 8.59375 46.296875 13.765625 49.65625 
Q 18.953125 53.03125 25.34375 53.03125 
Q 30.03125 53.03125 33.6875 51.046875 
Q 37.359375 49.078125 39.65625 45.90625 
L 39.65625 71.578125 
L 48.390625 71.578125 
L 48.390625 0 
z
M 12.453125 25.875 
Q 12.453125 15.921875 16.640625 10.984375 
Q 20.84375 6.0625 26.5625 6.0625 
Q 32.328125 6.0625 36.34375 10.765625 
Q 40.375 15.484375 40.375 25.140625 
Q 40.375 35.796875 36.265625 40.765625 
Q 32.171875 45.75 26.171875 45.75 
Q 20.3125 45.75 16.375 40.96875 
Q 12.453125 36.1875 12.453125 25.875 
z
" id="ArialMT-100"/>
     </defs>
     <g style="fill:#262626;" transform="translate(464.3 26.857812)scale(0.1 -0.1)">
      <use xlink:href="#ArialMT-86"/>
      <use x="66.589844" xlink:href="#ArialMT-97"/>
      <use x="122.205078" xlink:href="#ArialMT-114"/>
      <use x="155.505859" xlink:href="#ArialMT-105"/>
      <use x="177.722656" xlink:href="#ArialMT-97"/>
      <use x="233.337891" xlink:href="#ArialMT-110"/>
      <use x="288.953125" xlink:href="#ArialMT-99"/>
      <use x="338.953125" xlink:href="#ArialMT-101"/>
      <use x="394.568359" xlink:href="#ArialMT-32"/>
      <use x="422.351562" xlink:href="#ArialMT-97"/>
      <use x="477.966797" xlink:href="#ArialMT-98"/>
      <use x="533.582031" xlink:href="#ArialMT-111"/>
      <use x="589.197266" xlink:href="#ArialMT-117"/>
      <use x="644.8125" xlink:href="#ArialMT-116"/>
      <use x="672.595703" xlink:href="#ArialMT-32"/>
      <use x="700.378906" xlink:href="#ArialMT-116"/>
      <use x="728.162109" xlink:href="#ArialMT-104"/>
      <use x="783.777344" xlink:href="#ArialMT-101"/>
      <use x="839.392578" xlink:href="#ArialMT-32"/>
      <use x="867.175781" xlink:href="#ArialMT-109"/>
      <use x="950.476562" xlink:href="#ArialMT-101"/>
      <use x="1006.091797" xlink:href="#ArialMT-100"/>
      <use x="1061.707031" xlink:href="#ArialMT-105"/>
      <use x="1083.923828" xlink:href="#ArialMT-97"/>
      <use x="1139.539062" xlink:href="#ArialMT-110"/>
     </g>
    </g>
    <g id="patch_10">
     <path d="M 436.3 41.125 
L 456.3 41.125 
L 456.3 34.125 
L 436.3 34.125 
z
" style="fill-opacity:0.2;stroke:#000000;stroke-linejoin:miter;stroke-opacity:0.2;"/>
    </g>
    <g id="text_11">
     <!-- Solvent region to be removed -->
     <defs>
      <path d="M 4.5 23 
L 13.421875 23.78125 
Q 14.0625 18.40625 16.375 14.96875 
Q 18.703125 11.53125 23.578125 9.40625 
Q 28.46875 7.28125 34.578125 7.28125 
Q 39.984375 7.28125 44.140625 8.890625 
Q 48.296875 10.5 50.3125 13.296875 
Q 52.34375 16.109375 52.34375 19.4375 
Q 52.34375 22.796875 50.390625 25.3125 
Q 48.4375 27.828125 43.953125 29.546875 
Q 41.0625 30.671875 31.203125 33.03125 
Q 21.34375 35.40625 17.390625 37.5 
Q 12.25 40.1875 9.734375 44.15625 
Q 7.234375 48.140625 7.234375 53.078125 
Q 7.234375 58.5 10.296875 63.203125 
Q 13.375 67.921875 19.28125 70.359375 
Q 25.203125 72.796875 32.421875 72.796875 
Q 40.375 72.796875 46.453125 70.234375 
Q 52.546875 67.671875 55.8125 62.6875 
Q 59.078125 57.71875 59.328125 51.421875 
L 50.25 50.734375 
Q 49.515625 57.515625 45.28125 60.984375 
Q 41.0625 64.453125 32.8125 64.453125 
Q 24.21875 64.453125 20.28125 61.296875 
Q 16.359375 58.15625 16.359375 53.71875 
Q 16.359375 49.859375 19.140625 47.359375 
Q 21.875 44.875 33.421875 42.265625 
Q 44.96875 39.65625 49.265625 37.703125 
Q 55.515625 34.8125 58.484375 30.390625 
Q 61.46875 25.984375 61.46875 20.21875 
Q 61.46875 14.5 58.203125 9.4375 
Q 54.9375 4.390625 48.796875 1.578125 
Q 42.671875 -1.21875 35.015625 -1.21875 
Q 25.296875 -1.21875 18.71875 1.609375 
Q 12.15625 4.4375 8.421875 10.125 
Q 4.6875 15.828125 4.5 23 
z
" id="ArialMT-83"/>
      <path d="M 6.390625 0 
L 6.390625 71.578125 
L 15.1875 71.578125 
L 15.1875 0 
z
" id="ArialMT-108"/>
      <path d="M 21 0 
L 1.265625 51.859375 
L 10.546875 51.859375 
L 21.6875 20.796875 
Q 23.484375 15.765625 25 10.359375 
Q 26.171875 14.453125 28.265625 20.21875 
L 39.796875 51.859375 
L 48.828125 51.859375 
L 29.203125 0 
z
" id="ArialMT-118"/>
      <path d="M 4.984375 -4.296875 
L 13.53125 -5.5625 
Q 14.0625 -9.515625 16.5 -11.328125 
Q 19.78125 -13.765625 25.4375 -13.765625 
Q 31.546875 -13.765625 34.859375 -11.328125 
Q 38.1875 -8.890625 39.359375 -4.5 
Q 40.046875 -1.8125 39.984375 6.78125 
Q 34.234375 0 25.640625 0 
Q 14.9375 0 9.078125 7.71875 
Q 3.21875 15.4375 3.21875 26.21875 
Q 3.21875 33.640625 5.90625 39.90625 
Q 8.59375 46.1875 13.6875 49.609375 
Q 18.796875 53.03125 25.6875 53.03125 
Q 34.859375 53.03125 40.828125 45.609375 
L 40.828125 51.859375 
L 48.921875 51.859375 
L 48.921875 7.03125 
Q 48.921875 -5.078125 46.453125 -10.125 
Q 44 -15.1875 38.640625 -18.109375 
Q 33.296875 -21.046875 25.484375 -21.046875 
Q 16.21875 -21.046875 10.5 -16.875 
Q 4.78125 -12.703125 4.984375 -4.296875 
z
M 12.25 26.859375 
Q 12.25 16.65625 16.296875 11.96875 
Q 20.359375 7.28125 26.46875 7.28125 
Q 32.515625 7.28125 36.609375 11.9375 
Q 40.71875 16.609375 40.71875 26.5625 
Q 40.71875 36.078125 36.5 40.90625 
Q 32.28125 45.75 26.3125 45.75 
Q 20.453125 45.75 16.34375 40.984375 
Q 12.25 36.234375 12.25 26.859375 
z
" id="ArialMT-103"/>
     </defs>
     <g style="fill:#262626;" transform="translate(464.3 41.125)scale(0.1 -0.1)">
      <use xlink:href="#ArialMT-83"/>
      <use x="66.699219" xlink:href="#ArialMT-111"/>
      <use x="122.314453" xlink:href="#ArialMT-108"/>
      <use x="144.53125" xlink:href="#ArialMT-118"/>
      <use x="194.53125" xlink:href="#ArialMT-101"/>
      <use x="250.146484" xlink:href="#ArialMT-110"/>
      <use x="305.761719" xlink:href="#ArialMT-116"/>
      <use x="333.544922" xlink:href="#ArialMT-32"/>
      <use x="361.328125" xlink:href="#ArialMT-114"/>
      <use x="394.628906" xlink:href="#ArialMT-101"/>
      <use x="450.244141" xlink:href="#ArialMT-103"/>
      <use x="505.859375" xlink:href="#ArialMT-105"/>
      <use x="528.076172" xlink:href="#ArialMT-111"/>
      <use x="583.691406" xlink:href="#ArialMT-110"/>
      <use x="639.306641" xlink:href="#ArialMT-32"/>
      <use x="667.089844" xlink:href="#ArialMT-116"/>
      <use x="694.873047" xlink:href="#ArialMT-111"/>
      <use x="750.488281" xlink:href="#ArialMT-32"/>
      <use x="778.271484" xlink:href="#ArialMT-98"/>
      <use x="833.886719" xlink:href="#ArialMT-101"/>
      <use x="889.501953" xlink:href="#ArialMT-32"/>
      <use x="917.285156" xlink:href="#ArialMT-114"/>
      <use x="950.585938" xlink:href="#ArialMT-101"/>
      <use x="1006.201172" xlink:href="#ArialMT-109"/>
      <use x="1089.501953" xlink:href="#ArialMT-111"/>
      <use x="1145.117188" xlink:href="#ArialMT-118"/>
      <use x="1195.117188" xlink:href="#ArialMT-101"/>
      <use x="1250.732422" xlink:href="#ArialMT-100"/>
     </g>
    </g>
    <g id="line2d_13">
     <path d="M 436.3 51.8875 
L 456.3 51.8875 
" style="fill:none;stroke:#cc0d03;stroke-linecap:round;stroke-opacity:0.7;stroke-width:1.5;"/>
    </g>
    <g id="line2d_14"/>
    <g id="text_12">
     <!-- Solvent resonances failed on area -->
     <defs>
      <path d="M 3.078125 15.484375 
L 11.765625 16.84375 
Q 12.5 11.625 15.84375 8.84375 
Q 19.1875 6.0625 25.203125 6.0625 
Q 31.25 6.0625 34.171875 8.515625 
Q 37.109375 10.984375 37.109375 14.3125 
Q 37.109375 17.28125 34.515625 19 
Q 32.71875 20.171875 25.53125 21.96875 
Q 15.875 24.421875 12.140625 26.203125 
Q 8.40625 27.984375 6.46875 31.125 
Q 4.546875 34.28125 4.546875 38.09375 
Q 4.546875 41.546875 6.125 44.5 
Q 7.71875 47.46875 10.453125 49.421875 
Q 12.5 50.921875 16.03125 51.96875 
Q 19.578125 53.03125 23.640625 53.03125 
Q 29.734375 53.03125 34.34375 51.265625 
Q 38.96875 49.515625 41.15625 46.5 
Q 43.359375 43.5 44.1875 38.484375 
L 35.59375 37.3125 
Q 35.015625 41.3125 32.203125 43.546875 
Q 29.390625 45.796875 24.265625 45.796875 
Q 18.21875 45.796875 15.625 43.796875 
Q 13.03125 41.796875 13.03125 39.109375 
Q 13.03125 37.40625 14.109375 36.03125 
Q 15.1875 34.625 17.484375 33.6875 
Q 18.796875 33.203125 25.25 31.453125 
Q 34.578125 28.953125 38.25 27.359375 
Q 41.9375 25.78125 44.03125 22.75 
Q 46.140625 19.734375 46.140625 15.234375 
Q 46.140625 10.84375 43.578125 6.953125 
Q 41.015625 3.078125 36.171875 0.953125 
Q 31.34375 -1.171875 25.25 -1.171875 
Q 15.140625 -1.171875 9.84375 3.03125 
Q 4.546875 7.234375 3.078125 15.484375 
z
" id="ArialMT-115"/>
      <path d="M 8.6875 0 
L 8.6875 45.015625 
L 0.921875 45.015625 
L 0.921875 51.859375 
L 8.6875 51.859375 
L 8.6875 57.375 
Q 8.6875 62.59375 9.625 65.140625 
Q 10.890625 68.5625 14.078125 70.671875 
Q 17.28125 72.796875 23.046875 72.796875 
Q 26.765625 72.796875 31.25 71.921875 
L 29.9375 64.265625 
Q 27.203125 64.75 24.75 64.75 
Q 20.75 64.75 19.09375 63.03125 
Q 17.4375 61.328125 17.4375 56.640625 
L 17.4375 51.859375 
L 27.546875 51.859375 
L 27.546875 45.015625 
L 17.4375 45.015625 
L 17.4375 0 
z
" id="ArialMT-102"/>
     </defs>
     <g style="fill:#262626;" transform="translate(464.3 55.3875)scale(0.1 -0.1)">
      <use xlink:href="#ArialMT-83"/>
      <use x="66.699219" xlink:href="#ArialMT-111"/>
      <use x="122.314453" xlink:href="#ArialMT-108"/>
      <use x="144.53125" xlink:href="#ArialMT-118"/>
      <use x="194.53125" xlink:href="#ArialMT-101"/>
      <use x="250.146484" xlink:href="#ArialMT-110"/>
      <use x="305.761719" xlink:href="#ArialMT-116"/>
      <use x="333.544922" xlink:href="#ArialMT-32"/>
      <use x="361.328125" xlink:href="#ArialMT-114"/>
      <use x="394.628906" xlink:href="#ArialMT-101"/>
      <use x="450.244141" xlink:href="#ArialMT-115"/>
      <use x="500.244141" xlink:href="#ArialMT-111"/>
      <use x="555.859375" xlink:href="#ArialMT-110"/>
      <use x="611.474609" xlink:href="#ArialMT-97"/>
      <use x="667.089844" xlink:href="#ArialMT-110"/>
      <use x="722.705078" xlink:href="#ArialMT-99"/>
      <use x="772.705078" xlink:href="#ArialMT-101"/>
      <use x="828.320312" xlink:href="#ArialMT-115"/>
      <use x="878.320312" xlink:href="#ArialMT-32"/>
      <use x="906.103516" xlink:href="#ArialMT-102"/>
      <use x="933.886719" xlink:href="#ArialMT-97"/>
      <use x="989.501953" xlink:href="#ArialMT-105"/>
      <use x="1011.71875" xlink:href="#ArialMT-108"/>
      <use x="1033.935547" xlink:href="#ArialMT-101"/>
      <use x="1089.550781" xlink:href="#ArialMT-100"/>
      <use x="1145.166016" xlink:href="#ArialMT-32"/>
      <use x="1172.949219" xlink:href="#ArialMT-111"/>
      <use x="1228.564453" xlink:href="#ArialMT-110"/>
      <use x="1284.179688" xlink:href="#ArialMT-32"/>
      <use x="1311.962891" xlink:href="#ArialMT-97"/>
      <use x="1367.578125" xlink:href="#ArialMT-114"/>
      <use x="1400.878906" xlink:href="#ArialMT-101"/>
      <use x="1456.494141" xlink:href="#ArialMT-97"/>
     </g>
    </g>
   </g>
  </g>
 </g>
 <defs>
  <clipPath id="p635c91c981">
   <rect height="380.52" width="613.8" x="10.7" y="10.7"/>
  </clipPath>
 </defs>
</svg>
