<?xml version="1.0" encoding="utf-8" standalone="no"?>
<!DOCTYPE svg PUBLIC "-//W3C//DTD SVG 1.1//EN"
  "http://www.w3.org/Graphics/SVG/1.1/DTD/svg11.dtd">
<!-- Created with matplotlib (https://matplotlib.org/) -->
<svg height="504pt" version="1.1" viewBox="0 0 792 504" width="792pt" xmlns="http://www.w3.org/2000/svg" xmlns:xlink="http://www.w3.org/1999/xlink">
 <defs>
  <style type="text/css">
*{stroke-linecap:butt;stroke-linejoin:round;}
  </style>
 </defs>
 <g id="figure_1">
  <g id="patch_1">
   <path d="M 0 504 
L 792 504 
L 792 0 
L 0 0 
z
" style="fill:#ffffff;"/>
  </g>
  <g id="axes_1">
   <g id="patch_2">
    <path d="M 50.42 463.96 
L 780.36 463.96 
L 780.36 11.64 
L 50.42 11.64 
z
" style="fill:#ffffff;"/>
   </g>
   <g id="matplotlib.axis_1">
    <g id="xtick_1">
     <g id="text_1">
      <!-- 5 -->
      <defs>
       <path d="M 4.15625 18.75 
L 13.375 19.53125 
Q 14.40625 12.796875 18.140625 9.390625 
Q 21.875 6 27.15625 6 
Q 33.5 6 37.890625 10.78125 
Q 42.28125 15.578125 42.28125 23.484375 
Q 42.28125 31 38.0625 35.34375 
Q 33.84375 39.703125 27 39.703125 
Q 22.75 39.703125 19.328125 37.765625 
Q 15.921875 35.84375 13.96875 32.765625 
L 5.71875 33.84375 
L 12.640625 70.609375 
L 48.25 70.609375 
L 48.25 62.203125 
L 19.671875 62.203125 
L 15.828125 42.96875 
Q 22.265625 47.46875 29.34375 47.46875 
Q 38.71875 47.46875 45.15625 40.96875 
Q 51.609375 34.46875 51.609375 24.265625 
Q 51.609375 14.546875 45.953125 7.46875 
Q 39.0625 -1.21875 27.15625 -1.21875 
Q 17.390625 -1.21875 11.203125 4.25 
Q 5.03125 9.71875 4.15625 18.75 
z
" id="ArialMT-53"/>
      </defs>
      <g style="fill:#262626;" transform="translate(84.136531 478.117813)scale(0.1 -0.1)">
       <use xlink:href="#ArialMT-53"/>
      </g>
     </g>
    </g>
    <g id="xtick_2">
     <g id="text_2">
      <!-- 10 -->
      <defs>
       <path d="M 37.25 0 
L 28.46875 0 
L 28.46875 56 
Q 25.296875 52.984375 20.140625 49.953125 
Q 14.984375 46.921875 10.890625 45.40625 
L 10.890625 53.90625 
Q 18.265625 57.375 23.78125 62.296875 
Q 29.296875 67.234375 31.59375 71.875 
L 37.25 71.875 
z
" id="ArialMT-49"/>
       <path d="M 4.15625 35.296875 
Q 4.15625 48 6.765625 55.734375 
Q 9.375 63.484375 14.515625 67.671875 
Q 19.671875 71.875 27.484375 71.875 
Q 33.25 71.875 37.59375 69.546875 
Q 41.9375 67.234375 44.765625 62.859375 
Q 47.609375 58.5 49.21875 52.21875 
Q 50.828125 45.953125 50.828125 35.296875 
Q 50.828125 22.703125 48.234375 14.96875 
Q 45.65625 7.234375 40.5 3 
Q 35.359375 -1.21875 27.484375 -1.21875 
Q 17.140625 -1.21875 11.234375 6.203125 
Q 4.15625 15.140625 4.15625 35.296875 
z
M 13.1875 35.296875 
Q 13.1875 17.671875 17.3125 11.828125 
Q 21.4375 6 27.484375 6 
Q 33.546875 6 37.671875 11.859375 
Q 41.796875 17.71875 41.796875 35.296875 
Q 41.796875 52.984375 37.671875 58.78125 
Q 33.546875 64.59375 27.390625 64.59375 
Q 21.34375 64.59375 17.71875 59.46875 
Q 13.1875 52.9375 13.1875 35.296875 
z
" id="ArialMT-48"/>
      </defs>
      <g style="fill:#262626;" transform="translate(154.350063 478.117813)scale(0.1 -0.1)">
       <use xlink:href="#ArialMT-49"/>
       <use x="55.615234" xlink:href="#ArialMT-48"/>
      </g>
     </g>
    </g>
    <g id="xtick_3">
     <g id="text_3">
      <!-- 15 -->
      <g style="fill:#262626;" transform="translate(227.344063 478.117813)scale(0.1 -0.1)">
       <use xlink:href="#ArialMT-49"/>
       <use x="55.615234" xlink:href="#ArialMT-53"/>
      </g>
     </g>
    </g>
    <g id="xtick_4">
     <g id="text_4">
      <!-- 20 -->
      <defs>
       <path d="M 50.34375 8.453125 
L 50.34375 0 
L 3.03125 0 
Q 2.9375 3.171875 4.046875 6.109375 
Q 5.859375 10.9375 9.828125 15.625 
Q 13.8125 20.3125 21.34375 26.46875 
Q 33.015625 36.03125 37.109375 41.625 
Q 41.21875 47.21875 41.21875 52.203125 
Q 41.21875 57.421875 37.46875 61 
Q 33.734375 64.59375 27.734375 64.59375 
Q 21.390625 64.59375 17.578125 60.78125 
Q 13.765625 56.984375 13.71875 50.25 
L 4.6875 51.171875 
Q 5.609375 61.28125 11.65625 66.578125 
Q 17.71875 71.875 27.9375 71.875 
Q 38.234375 71.875 44.234375 66.15625 
Q 50.25 60.453125 50.25 52 
Q 50.25 47.703125 48.484375 43.546875 
Q 46.734375 39.40625 42.65625 34.8125 
Q 38.578125 30.21875 29.109375 22.21875 
Q 21.1875 15.578125 18.9375 13.203125 
Q 16.703125 10.84375 15.234375 8.453125 
z
" id="ArialMT-50"/>
      </defs>
      <g style="fill:#262626;" transform="translate(300.338063 478.117813)scale(0.1 -0.1)">
       <use xlink:href="#ArialMT-50"/>
       <use x="55.615234" xlink:href="#ArialMT-48"/>
      </g>
     </g>
    </g>
    <g id="xtick_5">
     <g id="text_5">
      <!-- 25 -->
      <g style="fill:#262626;" transform="translate(373.332063 478.117813)scale(0.1 -0.1)">
       <use xlink:href="#ArialMT-50"/>
       <use x="55.615234" xlink:href="#ArialMT-53"/>
      </g>
     </g>
    </g>
    <g id="xtick_6">
     <g id="text_6">
      <!-- 30 -->
      <defs>
       <path d="M 4.203125 18.890625 
L 12.984375 20.0625 
Q 14.5 12.59375 18.140625 9.296875 
Q 21.78125 6 27 6 
Q 33.203125 6 37.46875 10.296875 
Q 41.75 14.59375 41.75 20.953125 
Q 41.75 27 37.796875 30.921875 
Q 33.84375 34.859375 27.734375 34.859375 
Q 25.25 34.859375 21.53125 33.890625 
L 22.515625 41.609375 
Q 23.390625 41.5 23.921875 41.5 
Q 29.546875 41.5 34.03125 44.421875 
Q 38.53125 47.359375 38.53125 53.46875 
Q 38.53125 58.296875 35.25 61.46875 
Q 31.984375 64.65625 26.8125 64.65625 
Q 21.6875 64.65625 18.265625 61.421875 
Q 14.84375 58.203125 13.875 51.765625 
L 5.078125 53.328125 
Q 6.6875 62.15625 12.390625 67.015625 
Q 18.109375 71.875 26.609375 71.875 
Q 32.46875 71.875 37.390625 69.359375 
Q 42.328125 66.84375 44.9375 62.5 
Q 47.5625 58.15625 47.5625 53.265625 
Q 47.5625 48.640625 45.0625 44.828125 
Q 42.578125 41.015625 37.703125 38.765625 
Q 44.046875 37.3125 47.5625 32.6875 
Q 51.078125 28.078125 51.078125 21.140625 
Q 51.078125 11.765625 44.234375 5.25 
Q 37.40625 -1.265625 26.953125 -1.265625 
Q 17.53125 -1.265625 11.296875 4.34375 
Q 5.078125 9.96875 4.203125 18.890625 
z
" id="ArialMT-51"/>
      </defs>
      <g style="fill:#262626;" transform="translate(446.326063 478.117813)scale(0.1 -0.1)">
       <use xlink:href="#ArialMT-51"/>
       <use x="55.615234" xlink:href="#ArialMT-48"/>
      </g>
     </g>
    </g>
    <g id="xtick_7">
     <g id="text_7">
      <!-- 35 -->
      <g style="fill:#262626;" transform="translate(519.320063 478.117813)scale(0.1 -0.1)">
       <use xlink:href="#ArialMT-51"/>
       <use x="55.615234" xlink:href="#ArialMT-53"/>
      </g>
     </g>
    </g>
    <g id="xtick_8">
     <g id="text_8">
      <!-- 40 -->
      <defs>
       <path d="M 32.328125 0 
L 32.328125 17.140625 
L 1.265625 17.140625 
L 1.265625 25.203125 
L 33.9375 71.578125 
L 41.109375 71.578125 
L 41.109375 25.203125 
L 50.78125 25.203125 
L 50.78125 17.140625 
L 41.109375 17.140625 
L 41.109375 0 
z
M 32.328125 25.203125 
L 32.328125 57.46875 
L 9.90625 25.203125 
z
" id="ArialMT-52"/>
      </defs>
      <g style="fill:#262626;" transform="translate(592.314063 478.117813)scale(0.1 -0.1)">
       <use xlink:href="#ArialMT-52"/>
       <use x="55.615234" xlink:href="#ArialMT-48"/>
      </g>
     </g>
    </g>
    <g id="xtick_9">
     <g id="text_9">
      <!-- 45 -->
      <g style="fill:#262626;" transform="translate(665.308063 478.117813)scale(0.1 -0.1)">
       <use xlink:href="#ArialMT-52"/>
       <use x="55.615234" xlink:href="#ArialMT-53"/>
      </g>
     </g>
    </g>
    <g id="xtick_10">
     <g id="text_10">
      <!-- 50 -->
      <g style="fill:#262626;" transform="translate(738.302063 478.117813)scale(0.1 -0.1)">
       <use xlink:href="#ArialMT-53"/>
       <use x="55.615234" xlink:href="#ArialMT-48"/>
      </g>
     </g>
    </g>
    <g id="text_11">
     <!-- RSD -->
     <defs>
      <path d="M 7.859375 0 
L 7.859375 71.578125 
L 39.59375 71.578125 
Q 49.171875 71.578125 54.140625 69.640625 
Q 59.125 67.71875 62.109375 62.828125 
Q 65.09375 57.953125 65.09375 52.046875 
Q 65.09375 44.4375 60.15625 39.203125 
Q 55.21875 33.984375 44.921875 32.5625 
Q 48.6875 30.765625 50.640625 29 
Q 54.78125 25.203125 58.5 19.484375 
L 70.953125 0 
L 59.03125 0 
L 49.5625 14.890625 
Q 45.40625 21.34375 42.71875 24.75 
Q 40.046875 28.171875 37.921875 29.53125 
Q 35.796875 30.90625 33.59375 31.453125 
Q 31.984375 31.78125 28.328125 31.78125 
L 17.328125 31.78125 
L 17.328125 0 
z
M 17.328125 39.984375 
L 37.703125 39.984375 
Q 44.1875 39.984375 47.84375 41.328125 
Q 51.515625 42.671875 53.421875 45.625 
Q 55.328125 48.578125 55.328125 52.046875 
Q 55.328125 57.125 51.640625 60.390625 
Q 47.953125 63.671875 39.984375 63.671875 
L 17.328125 63.671875 
z
" id="ArialMT-82"/>
      <path d="M 4.5 23 
L 13.421875 23.78125 
Q 14.0625 18.40625 16.375 14.96875 
Q 18.703125 11.53125 23.578125 9.40625 
Q 28.46875 7.28125 34.578125 7.28125 
Q 39.984375 7.28125 44.140625 8.890625 
Q 48.296875 10.5 50.3125 13.296875 
Q 52.34375 16.109375 52.34375 19.4375 
Q 52.34375 22.796875 50.390625 25.3125 
Q 48.4375 27.828125 43.953125 29.546875 
Q 41.0625 30.671875 31.203125 33.03125 
Q 21.34375 35.40625 17.390625 37.5 
Q 12.25 40.1875 9.734375 44.15625 
Q 7.234375 48.140625 7.234375 53.078125 
Q 7.234375 58.5 10.296875 63.203125 
Q 13.375 67.921875 19.28125 70.359375 
Q 25.203125 72.796875 32.421875 72.796875 
Q 40.375 72.796875 46.453125 70.234375 
Q 52.546875 67.671875 55.8125 62.6875 
Q 59.078125 57.71875 59.328125 51.421875 
L 50.25 50.734375 
Q 49.515625 57.515625 45.28125 60.984375 
Q 41.0625 64.453125 32.8125 64.453125 
Q 24.21875 64.453125 20.28125 61.296875 
Q 16.359375 58.15625 16.359375 53.71875 
Q 16.359375 49.859375 19.140625 47.359375 
Q 21.875 44.875 33.421875 42.265625 
Q 44.96875 39.65625 49.265625 37.703125 
Q 55.515625 34.8125 58.484375 30.390625 
Q 61.46875 25.984375 61.46875 20.21875 
Q 61.46875 14.5 58.203125 9.4375 
Q 54.9375 4.390625 48.796875 1.578125 
Q 42.671875 -1.21875 35.015625 -1.21875 
Q 25.296875 -1.21875 18.71875 1.609375 
Q 12.15625 4.4375 8.421875 10.125 
Q 4.6875 15.828125 4.5 23 
z
" id="ArialMT-83"/>
      <path d="M 7.71875 0 
L 7.71875 71.578125 
L 32.375 71.578125 
Q 40.71875 71.578125 45.125 70.5625 
Q 51.265625 69.140625 55.609375 65.4375 
Q 61.28125 60.640625 64.078125 53.1875 
Q 66.890625 45.75 66.890625 36.1875 
Q 66.890625 28.03125 64.984375 21.734375 
Q 63.09375 15.4375 60.109375 11.296875 
Q 57.125 7.171875 53.578125 4.796875 
Q 50.046875 2.4375 45.046875 1.21875 
Q 40.046875 0 33.546875 0 
z
M 17.1875 8.453125 
L 32.46875 8.453125 
Q 39.546875 8.453125 43.578125 9.765625 
Q 47.609375 11.078125 50 13.484375 
Q 53.375 16.84375 55.25 22.53125 
Q 57.125 28.21875 57.125 36.328125 
Q 57.125 47.5625 53.4375 53.59375 
Q 49.75 59.625 44.484375 61.671875 
Q 40.671875 63.140625 32.234375 63.140625 
L 17.1875 63.140625 
z
" id="ArialMT-68"/>
     </defs>
     <g style="fill:#262626;" transform="translate(404.832969 491.263125)scale(0.1 -0.1)">
      <use xlink:href="#ArialMT-82"/>
      <use x="72.216797" xlink:href="#ArialMT-83"/>
      <use x="138.916016" xlink:href="#ArialMT-68"/>
     </g>
    </g>
   </g>
   <g id="matplotlib.axis_2">
    <g id="ytick_1">
     <g id="text_12">
      <!-- 0.50 -->
      <defs>
       <path d="M 9.078125 0 
L 9.078125 10.015625 
L 19.09375 10.015625 
L 19.09375 0 
z
" id="ArialMT-46"/>
      </defs>
      <g style="fill:#262626;" transform="translate(23.959063 35.778906)scale(0.1 -0.1)">
       <use xlink:href="#ArialMT-48"/>
       <use x="55.615234" xlink:href="#ArialMT-46"/>
       <use x="83.398438" xlink:href="#ArialMT-53"/>
       <use x="139.013672" xlink:href="#ArialMT-48"/>
      </g>
     </g>
    </g>
    <g id="ytick_2">
     <g id="text_13">
      <!-- 0.55 -->
      <g style="fill:#262626;" transform="translate(23.959063 76.898906)scale(0.1 -0.1)">
       <use xlink:href="#ArialMT-48"/>
       <use x="55.615234" xlink:href="#ArialMT-46"/>
       <use x="83.398438" xlink:href="#ArialMT-53"/>
       <use x="139.013672" xlink:href="#ArialMT-53"/>
      </g>
     </g>
    </g>
    <g id="ytick_3">
     <g id="text_14">
      <!-- 0.60 -->
      <defs>
       <path d="M 49.75 54.046875 
L 41.015625 53.375 
Q 39.84375 58.546875 37.703125 60.890625 
Q 34.125 64.65625 28.90625 64.65625 
Q 24.703125 64.65625 21.53125 62.3125 
Q 17.390625 59.28125 14.984375 53.46875 
Q 12.59375 47.65625 12.5 36.921875 
Q 15.671875 41.75 20.265625 44.09375 
Q 24.859375 46.4375 29.890625 46.4375 
Q 38.671875 46.4375 44.84375 39.96875 
Q 51.03125 33.5 51.03125 23.25 
Q 51.03125 16.5 48.125 10.71875 
Q 45.21875 4.9375 40.140625 1.859375 
Q 35.0625 -1.21875 28.609375 -1.21875 
Q 17.625 -1.21875 10.6875 6.859375 
Q 3.765625 14.9375 3.765625 33.5 
Q 3.765625 54.25 11.421875 63.671875 
Q 18.109375 71.875 29.4375 71.875 
Q 37.890625 71.875 43.28125 67.140625 
Q 48.6875 62.40625 49.75 54.046875 
z
M 13.875 23.1875 
Q 13.875 18.65625 15.796875 14.5 
Q 17.71875 10.359375 21.1875 8.171875 
Q 24.65625 6 28.46875 6 
Q 34.03125 6 38.03125 10.484375 
Q 42.046875 14.984375 42.046875 22.703125 
Q 42.046875 30.125 38.078125 34.390625 
Q 34.125 38.671875 28.125 38.671875 
Q 22.171875 38.671875 18.015625 34.390625 
Q 13.875 30.125 13.875 23.1875 
z
" id="ArialMT-54"/>
      </defs>
      <g style="fill:#262626;" transform="translate(23.959063 118.018906)scale(0.1 -0.1)">
       <use xlink:href="#ArialMT-48"/>
       <use x="55.615234" xlink:href="#ArialMT-46"/>
       <use x="83.398438" xlink:href="#ArialMT-54"/>
       <use x="139.013672" xlink:href="#ArialMT-48"/>
      </g>
     </g>
    </g>
    <g id="ytick_4">
     <g id="text_15">
      <!-- 0.65 -->
      <g style="fill:#262626;" transform="translate(23.959063 159.138906)scale(0.1 -0.1)">
       <use xlink:href="#ArialMT-48"/>
       <use x="55.615234" xlink:href="#ArialMT-46"/>
       <use x="83.398438" xlink:href="#ArialMT-54"/>
       <use x="139.013672" xlink:href="#ArialMT-53"/>
      </g>
     </g>
    </g>
    <g id="ytick_5">
     <g id="text_16">
      <!-- 0.70 -->
      <defs>
       <path d="M 4.734375 62.203125 
L 4.734375 70.65625 
L 51.078125 70.65625 
L 51.078125 63.8125 
Q 44.234375 56.546875 37.515625 44.484375 
Q 30.8125 32.421875 27.15625 19.671875 
Q 24.515625 10.6875 23.78125 0 
L 14.75 0 
Q 14.890625 8.453125 18.0625 20.40625 
Q 21.234375 32.375 27.171875 43.484375 
Q 33.109375 54.59375 39.796875 62.203125 
z
" id="ArialMT-55"/>
      </defs>
      <g style="fill:#262626;" transform="translate(23.959063 200.258906)scale(0.1 -0.1)">
       <use xlink:href="#ArialMT-48"/>
       <use x="55.615234" xlink:href="#ArialMT-46"/>
       <use x="83.398438" xlink:href="#ArialMT-55"/>
       <use x="139.013672" xlink:href="#ArialMT-48"/>
      </g>
     </g>
    </g>
    <g id="ytick_6">
     <g id="text_17">
      <!-- 0.75 -->
      <g style="fill:#262626;" transform="translate(23.959063 241.378906)scale(0.1 -0.1)">
       <use xlink:href="#ArialMT-48"/>
       <use x="55.615234" xlink:href="#ArialMT-46"/>
       <use x="83.398438" xlink:href="#ArialMT-55"/>
       <use x="139.013672" xlink:href="#ArialMT-53"/>
      </g>
     </g>
    </g>
    <g id="ytick_7">
     <g id="text_18">
      <!-- 0.80 -->
      <defs>
       <path d="M 17.671875 38.8125 
Q 12.203125 40.828125 9.5625 44.53125 
Q 6.9375 48.25 6.9375 53.421875 
Q 6.9375 61.234375 12.546875 66.546875 
Q 18.171875 71.875 27.484375 71.875 
Q 36.859375 71.875 42.578125 66.421875 
Q 48.296875 60.984375 48.296875 53.171875 
Q 48.296875 48.1875 45.671875 44.5 
Q 43.0625 40.828125 37.75 38.8125 
Q 44.34375 36.671875 47.78125 31.875 
Q 51.21875 27.09375 51.21875 20.453125 
Q 51.21875 11.28125 44.71875 5.03125 
Q 38.234375 -1.21875 27.640625 -1.21875 
Q 17.046875 -1.21875 10.546875 5.046875 
Q 4.046875 11.328125 4.046875 20.703125 
Q 4.046875 27.6875 7.59375 32.390625 
Q 11.140625 37.109375 17.671875 38.8125 
z
M 15.921875 53.71875 
Q 15.921875 48.640625 19.1875 45.40625 
Q 22.46875 42.1875 27.6875 42.1875 
Q 32.765625 42.1875 36.015625 45.375 
Q 39.265625 48.578125 39.265625 53.21875 
Q 39.265625 58.0625 35.90625 61.359375 
Q 32.5625 64.65625 27.59375 64.65625 
Q 22.5625 64.65625 19.234375 61.421875 
Q 15.921875 58.203125 15.921875 53.71875 
z
M 13.09375 20.65625 
Q 13.09375 16.890625 14.875 13.375 
Q 16.65625 9.859375 20.171875 7.921875 
Q 23.6875 6 27.734375 6 
Q 34.03125 6 38.125 10.046875 
Q 42.234375 14.109375 42.234375 20.359375 
Q 42.234375 26.703125 38.015625 30.859375 
Q 33.796875 35.015625 27.4375 35.015625 
Q 21.234375 35.015625 17.15625 30.90625 
Q 13.09375 26.8125 13.09375 20.65625 
z
" id="ArialMT-56"/>
      </defs>
      <g style="fill:#262626;" transform="translate(23.959063 282.498906)scale(0.1 -0.1)">
       <use xlink:href="#ArialMT-48"/>
       <use x="55.615234" xlink:href="#ArialMT-46"/>
       <use x="83.398438" xlink:href="#ArialMT-56"/>
       <use x="139.013672" xlink:href="#ArialMT-48"/>
      </g>
     </g>
    </g>
    <g id="ytick_8">
     <g id="text_19">
      <!-- 0.85 -->
      <g style="fill:#262626;" transform="translate(23.959063 323.618906)scale(0.1 -0.1)">
       <use xlink:href="#ArialMT-48"/>
       <use x="55.615234" xlink:href="#ArialMT-46"/>
       <use x="83.398438" xlink:href="#ArialMT-56"/>
       <use x="139.013672" xlink:href="#ArialMT-53"/>
      </g>
     </g>
    </g>
    <g id="ytick_9">
     <g id="text_20">
      <!-- 0.90 -->
      <defs>
       <path d="M 5.46875 16.546875 
L 13.921875 17.328125 
Q 14.984375 11.375 18.015625 8.6875 
Q 21.046875 6 25.78125 6 
Q 29.828125 6 32.875 7.859375 
Q 35.9375 9.71875 37.890625 12.8125 
Q 39.84375 15.921875 41.15625 21.1875 
Q 42.484375 26.46875 42.484375 31.9375 
Q 42.484375 32.515625 42.4375 33.6875 
Q 39.796875 29.5 35.234375 26.875 
Q 30.671875 24.265625 25.34375 24.265625 
Q 16.453125 24.265625 10.296875 30.703125 
Q 4.15625 37.15625 4.15625 47.703125 
Q 4.15625 58.59375 10.578125 65.234375 
Q 17 71.875 26.65625 71.875 
Q 33.640625 71.875 39.421875 68.109375 
Q 45.21875 64.359375 48.21875 57.390625 
Q 51.21875 50.4375 51.21875 37.25 
Q 51.21875 23.53125 48.234375 15.40625 
Q 45.265625 7.28125 39.375 3.03125 
Q 33.5 -1.21875 25.59375 -1.21875 
Q 17.1875 -1.21875 11.859375 3.4375 
Q 6.546875 8.109375 5.46875 16.546875 
z
M 41.453125 48.140625 
Q 41.453125 55.71875 37.421875 60.15625 
Q 33.40625 64.59375 27.734375 64.59375 
Q 21.875 64.59375 17.53125 59.8125 
Q 13.1875 55.03125 13.1875 47.40625 
Q 13.1875 40.578125 17.3125 36.296875 
Q 21.4375 32.03125 27.484375 32.03125 
Q 33.59375 32.03125 37.515625 36.296875 
Q 41.453125 40.578125 41.453125 48.140625 
z
" id="ArialMT-57"/>
      </defs>
      <g style="fill:#262626;" transform="translate(23.959063 364.738906)scale(0.1 -0.1)">
       <use xlink:href="#ArialMT-48"/>
       <use x="55.615234" xlink:href="#ArialMT-46"/>
       <use x="83.398438" xlink:href="#ArialMT-57"/>
       <use x="139.013672" xlink:href="#ArialMT-48"/>
      </g>
     </g>
    </g>
    <g id="ytick_10">
     <g id="text_21">
      <!-- 0.95 -->
      <g style="fill:#262626;" transform="translate(23.959063 405.858906)scale(0.1 -0.1)">
       <use xlink:href="#ArialMT-48"/>
       <use x="55.615234" xlink:href="#ArialMT-46"/>
       <use x="83.398438" xlink:href="#ArialMT-57"/>
       <use x="139.013672" xlink:href="#ArialMT-53"/>
      </g>
     </g>
    </g>
    <g id="ytick_11">
     <g id="text_22">
      <!-- 1.00 -->
      <g style="fill:#262626;" transform="translate(23.959063 446.978906)scale(0.1 -0.1)">
       <use xlink:href="#ArialMT-49"/>
       <use x="55.615234" xlink:href="#ArialMT-46"/>
       <use x="83.398438" xlink:href="#ArialMT-48"/>
       <use x="139.013672" xlink:href="#ArialMT-48"/>
      </g>
     </g>
    </g>
    <g id="text_23">
     <!-- Correlation to dilution -->
     <defs>
      <path d="M 58.796875 25.09375 
L 68.265625 22.703125 
Q 65.28125 11.03125 57.546875 4.90625 
Q 49.8125 -1.21875 38.625 -1.21875 
Q 27.046875 -1.21875 19.796875 3.484375 
Q 12.546875 8.203125 8.765625 17.140625 
Q 4.984375 26.078125 4.984375 36.328125 
Q 4.984375 47.515625 9.25 55.828125 
Q 13.53125 64.15625 21.40625 68.46875 
Q 29.296875 72.796875 38.765625 72.796875 
Q 49.515625 72.796875 56.828125 67.328125 
Q 64.15625 61.859375 67.046875 51.953125 
L 57.71875 49.75 
Q 55.21875 57.5625 50.484375 61.125 
Q 45.75 64.703125 38.578125 64.703125 
Q 30.328125 64.703125 24.78125 60.734375 
Q 19.234375 56.78125 16.984375 50.109375 
Q 14.75 43.453125 14.75 36.375 
Q 14.75 27.25 17.40625 20.4375 
Q 20.0625 13.625 25.671875 10.25 
Q 31.296875 6.890625 37.84375 6.890625 
Q 45.796875 6.890625 51.3125 11.46875 
Q 56.84375 16.0625 58.796875 25.09375 
z
" id="ArialMT-67"/>
      <path d="M 3.328125 25.921875 
Q 3.328125 40.328125 11.328125 47.265625 
Q 18.015625 53.03125 27.640625 53.03125 
Q 38.328125 53.03125 45.109375 46.015625 
Q 51.90625 39.015625 51.90625 26.65625 
Q 51.90625 16.65625 48.90625 10.90625 
Q 45.90625 5.171875 40.15625 2 
Q 34.421875 -1.171875 27.640625 -1.171875 
Q 16.75 -1.171875 10.03125 5.8125 
Q 3.328125 12.796875 3.328125 25.921875 
z
M 12.359375 25.921875 
Q 12.359375 15.96875 16.703125 11.015625 
Q 21.046875 6.0625 27.640625 6.0625 
Q 34.1875 6.0625 38.53125 11.03125 
Q 42.875 16.015625 42.875 26.21875 
Q 42.875 35.84375 38.5 40.796875 
Q 34.125 45.75 27.640625 45.75 
Q 21.046875 45.75 16.703125 40.8125 
Q 12.359375 35.890625 12.359375 25.921875 
z
" id="ArialMT-111"/>
      <path d="M 6.5 0 
L 6.5 51.859375 
L 14.40625 51.859375 
L 14.40625 44 
Q 17.4375 49.515625 20 51.265625 
Q 22.5625 53.03125 25.640625 53.03125 
Q 30.078125 53.03125 34.671875 50.203125 
L 31.640625 42.046875 
Q 28.421875 43.953125 25.203125 43.953125 
Q 22.3125 43.953125 20.015625 42.21875 
Q 17.71875 40.484375 16.75 37.40625 
Q 15.28125 32.71875 15.28125 27.15625 
L 15.28125 0 
z
" id="ArialMT-114"/>
      <path d="M 42.09375 16.703125 
L 51.171875 15.578125 
Q 49.03125 7.625 43.21875 3.21875 
Q 37.40625 -1.171875 28.375 -1.171875 
Q 17 -1.171875 10.328125 5.828125 
Q 3.65625 12.84375 3.65625 25.484375 
Q 3.65625 38.578125 10.390625 45.796875 
Q 17.140625 53.03125 27.875 53.03125 
Q 38.28125 53.03125 44.875 45.953125 
Q 51.46875 38.875 51.46875 26.03125 
Q 51.46875 25.25 51.421875 23.6875 
L 12.75 23.6875 
Q 13.234375 15.140625 17.578125 10.59375 
Q 21.921875 6.0625 28.421875 6.0625 
Q 33.25 6.0625 36.671875 8.59375 
Q 40.09375 11.140625 42.09375 16.703125 
z
M 13.234375 30.90625 
L 42.1875 30.90625 
Q 41.609375 37.453125 38.875 40.71875 
Q 34.671875 45.796875 27.984375 45.796875 
Q 21.921875 45.796875 17.796875 41.75 
Q 13.671875 37.703125 13.234375 30.90625 
z
" id="ArialMT-101"/>
      <path d="M 6.390625 0 
L 6.390625 71.578125 
L 15.1875 71.578125 
L 15.1875 0 
z
" id="ArialMT-108"/>
      <path d="M 40.4375 6.390625 
Q 35.546875 2.25 31.03125 0.53125 
Q 26.515625 -1.171875 21.34375 -1.171875 
Q 12.796875 -1.171875 8.203125 3 
Q 3.609375 7.171875 3.609375 13.671875 
Q 3.609375 17.484375 5.34375 20.625 
Q 7.078125 23.78125 9.890625 25.6875 
Q 12.703125 27.59375 16.21875 28.5625 
Q 18.796875 29.25 24.03125 29.890625 
Q 34.671875 31.15625 39.703125 32.90625 
Q 39.75 34.71875 39.75 35.203125 
Q 39.75 40.578125 37.25 42.78125 
Q 33.890625 45.75 27.25 45.75 
Q 21.046875 45.75 18.09375 43.578125 
Q 15.140625 41.40625 13.71875 35.890625 
L 5.125 37.0625 
Q 6.296875 42.578125 8.984375 45.96875 
Q 11.671875 49.359375 16.75 51.1875 
Q 21.828125 53.03125 28.515625 53.03125 
Q 35.15625 53.03125 39.296875 51.46875 
Q 43.453125 49.90625 45.40625 47.53125 
Q 47.359375 45.171875 48.140625 41.546875 
Q 48.578125 39.3125 48.578125 33.453125 
L 48.578125 21.734375 
Q 48.578125 9.46875 49.140625 6.21875 
Q 49.703125 2.984375 51.375 0 
L 42.1875 0 
Q 40.828125 2.734375 40.4375 6.390625 
z
M 39.703125 26.03125 
Q 34.90625 24.078125 25.34375 22.703125 
Q 19.921875 21.921875 17.671875 20.9375 
Q 15.4375 19.96875 14.203125 18.09375 
Q 12.984375 16.21875 12.984375 13.921875 
Q 12.984375 10.40625 15.640625 8.0625 
Q 18.3125 5.71875 23.4375 5.71875 
Q 28.515625 5.71875 32.46875 7.9375 
Q 36.421875 10.15625 38.28125 14.015625 
Q 39.703125 17 39.703125 22.796875 
z
" id="ArialMT-97"/>
      <path d="M 25.78125 7.859375 
L 27.046875 0.09375 
Q 23.34375 -0.6875 20.40625 -0.6875 
Q 15.625 -0.6875 12.984375 0.828125 
Q 10.359375 2.34375 9.28125 4.8125 
Q 8.203125 7.28125 8.203125 15.1875 
L 8.203125 45.015625 
L 1.765625 45.015625 
L 1.765625 51.859375 
L 8.203125 51.859375 
L 8.203125 64.703125 
L 16.9375 69.96875 
L 16.9375 51.859375 
L 25.78125 51.859375 
L 25.78125 45.015625 
L 16.9375 45.015625 
L 16.9375 14.703125 
Q 16.9375 10.9375 17.40625 9.859375 
Q 17.875 8.796875 18.921875 8.15625 
Q 19.96875 7.515625 21.921875 7.515625 
Q 23.390625 7.515625 25.78125 7.859375 
z
" id="ArialMT-116"/>
      <path d="M 6.640625 61.46875 
L 6.640625 71.578125 
L 15.4375 71.578125 
L 15.4375 61.46875 
z
M 6.640625 0 
L 6.640625 51.859375 
L 15.4375 51.859375 
L 15.4375 0 
z
" id="ArialMT-105"/>
      <path d="M 6.59375 0 
L 6.59375 51.859375 
L 14.5 51.859375 
L 14.5 44.484375 
Q 20.21875 53.03125 31 53.03125 
Q 35.6875 53.03125 39.625 51.34375 
Q 43.5625 49.65625 45.515625 46.921875 
Q 47.46875 44.1875 48.25 40.4375 
Q 48.734375 37.984375 48.734375 31.890625 
L 48.734375 0 
L 39.9375 0 
L 39.9375 31.546875 
Q 39.9375 36.921875 38.90625 39.578125 
Q 37.890625 42.234375 35.28125 43.8125 
Q 32.671875 45.40625 29.15625 45.40625 
Q 23.53125 45.40625 19.453125 41.84375 
Q 15.375 38.28125 15.375 28.328125 
L 15.375 0 
z
" id="ArialMT-110"/>
      <path id="ArialMT-32"/>
      <path d="M 40.234375 0 
L 40.234375 6.546875 
Q 35.296875 -1.171875 25.734375 -1.171875 
Q 19.53125 -1.171875 14.328125 2.25 
Q 9.125 5.671875 6.265625 11.796875 
Q 3.421875 17.921875 3.421875 25.875 
Q 3.421875 33.640625 6 39.96875 
Q 8.59375 46.296875 13.765625 49.65625 
Q 18.953125 53.03125 25.34375 53.03125 
Q 30.03125 53.03125 33.6875 51.046875 
Q 37.359375 49.078125 39.65625 45.90625 
L 39.65625 71.578125 
L 48.390625 71.578125 
L 48.390625 0 
z
M 12.453125 25.875 
Q 12.453125 15.921875 16.640625 10.984375 
Q 20.84375 6.0625 26.5625 6.0625 
Q 32.328125 6.0625 36.34375 10.765625 
Q 40.375 15.484375 40.375 25.140625 
Q 40.375 35.796875 36.265625 40.765625 
Q 32.171875 45.75 26.171875 45.75 
Q 20.3125 45.75 16.375 40.96875 
Q 12.453125 36.1875 12.453125 25.875 
z
" id="ArialMT-100"/>
      <path d="M 40.578125 0 
L 40.578125 7.625 
Q 34.515625 -1.171875 24.125 -1.171875 
Q 19.53125 -1.171875 15.546875 0.578125 
Q 11.578125 2.34375 9.640625 5 
Q 7.71875 7.671875 6.9375 11.53125 
Q 6.390625 14.109375 6.390625 19.734375 
L 6.390625 51.859375 
L 15.1875 51.859375 
L 15.1875 23.09375 
Q 15.1875 16.21875 15.71875 13.8125 
Q 16.546875 10.359375 19.234375 8.375 
Q 21.921875 6.390625 25.875 6.390625 
Q 29.828125 6.390625 33.296875 8.421875 
Q 36.765625 10.453125 38.203125 13.9375 
Q 39.65625 17.4375 39.65625 24.078125 
L 39.65625 51.859375 
L 48.4375 51.859375 
L 48.4375 0 
z
" id="ArialMT-117"/>
     </defs>
     <g style="fill:#262626;" transform="translate(17.971563 285.045313)rotate(-90)scale(0.1 -0.1)">
      <use xlink:href="#ArialMT-67"/>
      <use x="72.216797" xlink:href="#ArialMT-111"/>
      <use x="127.832031" xlink:href="#ArialMT-114"/>
      <use x="161.132812" xlink:href="#ArialMT-114"/>
      <use x="194.433594" xlink:href="#ArialMT-101"/>
      <use x="250.048828" xlink:href="#ArialMT-108"/>
      <use x="272.265625" xlink:href="#ArialMT-97"/>
      <use x="327.880859" xlink:href="#ArialMT-116"/>
      <use x="355.664062" xlink:href="#ArialMT-105"/>
      <use x="377.880859" xlink:href="#ArialMT-111"/>
      <use x="433.496094" xlink:href="#ArialMT-110"/>
      <use x="489.111328" xlink:href="#ArialMT-32"/>
      <use x="516.894531" xlink:href="#ArialMT-116"/>
      <use x="544.677734" xlink:href="#ArialMT-111"/>
      <use x="600.292969" xlink:href="#ArialMT-32"/>
      <use x="628.076172" xlink:href="#ArialMT-100"/>
      <use x="683.691406" xlink:href="#ArialMT-105"/>
      <use x="705.908203" xlink:href="#ArialMT-108"/>
      <use x="728.125" xlink:href="#ArialMT-117"/>
      <use x="783.740234" xlink:href="#ArialMT-116"/>
      <use x="811.523438" xlink:href="#ArialMT-105"/>
      <use x="833.740234" xlink:href="#ArialMT-111"/>
      <use x="889.355469" xlink:href="#ArialMT-110"/>
     </g>
    </g>
   </g>
   <g id="QuadMesh_1">
    <path clip-path="url(#p44e92bd206)" d="M 50.42 11.64 
L 123.414 11.64 
L 123.414 52.76 
L 50.42 52.76 
L 50.42 11.64 
" style="fill:#ab185a;"/>
    <path clip-path="url(#p44e92bd206)" d="M 123.414 11.64 
L 196.408 11.64 
L 196.408 52.76 
L 123.414 52.76 
L 123.414 11.64 
" style="fill:#f4835b;"/>
    <path clip-path="url(#p44e92bd206)" d="M 196.408 11.64 
L 269.402 11.64 
L 269.402 52.76 
L 196.408 52.76 
L 196.408 11.64 
" style="fill:#f6a37a;"/>
    <path clip-path="url(#p44e92bd206)" d="M 269.402 11.64 
L 342.396 11.64 
L 342.396 52.76 
L 269.402 52.76 
L 269.402 11.64 
" style="fill:#f6b691;"/>
    <path clip-path="url(#p44e92bd206)" d="M 342.396 11.64 
L 415.39 11.64 
L 415.39 52.76 
L 342.396 52.76 
L 342.396 11.64 
" style="fill:#f7c6a6;"/>
    <path clip-path="url(#p44e92bd206)" d="M 415.39 11.64 
L 488.384 11.64 
L 488.384 52.76 
L 415.39 52.76 
L 415.39 11.64 
" style="fill:#f7d0b5;"/>
    <path clip-path="url(#p44e92bd206)" d="M 488.384 11.64 
L 561.378 11.64 
L 561.378 52.76 
L 488.384 52.76 
L 488.384 11.64 
" style="fill:#f8dac5;"/>
    <path clip-path="url(#p44e92bd206)" d="M 561.378 11.64 
L 634.372 11.64 
L 634.372 52.76 
L 561.378 52.76 
L 561.378 11.64 
" style="fill:#f9e0cd;"/>
    <path clip-path="url(#p44e92bd206)" d="M 634.372 11.64 
L 707.366 11.64 
L 707.366 52.76 
L 634.372 52.76 
L 634.372 11.64 
" style="fill:#fae6d6;"/>
    <path clip-path="url(#p44e92bd206)" d="M 707.366 11.64 
L 780.36 11.64 
L 780.36 52.76 
L 707.366 52.76 
L 707.366 11.64 
" style="fill:#faebdd;"/>
    <path clip-path="url(#p44e92bd206)" d="M 50.42 52.76 
L 123.414 52.76 
L 123.414 93.88 
L 50.42 93.88 
L 50.42 52.76 
" style="fill:#aa185a;"/>
    <path clip-path="url(#p44e92bd206)" d="M 123.414 52.76 
L 196.408 52.76 
L 196.408 93.88 
L 123.414 93.88 
L 123.414 52.76 
" style="fill:#f47f58;"/>
    <path clip-path="url(#p44e92bd206)" d="M 196.408 52.76 
L 269.402 52.76 
L 269.402 93.88 
L 196.408 93.88 
L 196.408 52.76 
" style="fill:#f6a077;"/>
    <path clip-path="url(#p44e92bd206)" d="M 269.402 52.76 
L 342.396 52.76 
L 342.396 93.88 
L 269.402 93.88 
L 269.402 52.76 
" style="fill:#f6b18b;"/>
    <path clip-path="url(#p44e92bd206)" d="M 342.396 52.76 
L 415.39 52.76 
L 415.39 93.88 
L 342.396 93.88 
L 342.396 52.76 
" style="fill:#f6c19f;"/>
    <path clip-path="url(#p44e92bd206)" d="M 415.39 52.76 
L 488.384 52.76 
L 488.384 93.88 
L 415.39 93.88 
L 415.39 52.76 
" style="fill:#f7ccaf;"/>
    <path clip-path="url(#p44e92bd206)" d="M 488.384 52.76 
L 561.378 52.76 
L 561.378 93.88 
L 488.384 93.88 
L 488.384 52.76 
" style="fill:#f8d6be;"/>
    <path clip-path="url(#p44e92bd206)" d="M 561.378 52.76 
L 634.372 52.76 
L 634.372 93.88 
L 561.378 93.88 
L 561.378 52.76 
" style="fill:#f8dcc7;"/>
    <path clip-path="url(#p44e92bd206)" d="M 634.372 52.76 
L 707.366 52.76 
L 707.366 93.88 
L 634.372 93.88 
L 634.372 52.76 
" style="fill:#f9e2d0;"/>
    <path clip-path="url(#p44e92bd206)" d="M 707.366 52.76 
L 780.36 52.76 
L 780.36 93.88 
L 707.366 93.88 
L 707.366 52.76 
" style="fill:#fae6d6;"/>
    <path clip-path="url(#p44e92bd206)" d="M 50.42 93.88 
L 123.414 93.88 
L 123.414 135 
L 50.42 135 
L 50.42 93.88 
" style="fill:#aa185a;"/>
    <path clip-path="url(#p44e92bd206)" d="M 123.414 93.88 
L 196.408 93.88 
L 196.408 135 
L 123.414 135 
L 123.414 93.88 
" style="fill:#f47d57;"/>
    <path clip-path="url(#p44e92bd206)" d="M 196.408 93.88 
L 269.402 93.88 
L 269.402 135 
L 196.408 135 
L 196.408 93.88 
" style="fill:#f69c73;"/>
    <path clip-path="url(#p44e92bd206)" d="M 269.402 93.88 
L 342.396 93.88 
L 342.396 135 
L 269.402 135 
L 269.402 93.88 
" style="fill:#f6ae87;"/>
    <path clip-path="url(#p44e92bd206)" d="M 342.396 93.88 
L 415.39 93.88 
L 415.39 135 
L 342.396 135 
L 342.396 93.88 
" style="fill:#f6bc99;"/>
    <path clip-path="url(#p44e92bd206)" d="M 415.39 93.88 
L 488.384 93.88 
L 488.384 135 
L 415.39 135 
L 415.39 93.88 
" style="fill:#f7c7a8;"/>
    <path clip-path="url(#p44e92bd206)" d="M 488.384 93.88 
L 561.378 93.88 
L 561.378 135 
L 488.384 135 
L 488.384 93.88 
" style="fill:#f7d0b5;"/>
    <path clip-path="url(#p44e92bd206)" d="M 561.378 93.88 
L 634.372 93.88 
L 634.372 135 
L 561.378 135 
L 561.378 93.88 
" style="fill:#f8d7c0;"/>
    <path clip-path="url(#p44e92bd206)" d="M 634.372 93.88 
L 707.366 93.88 
L 707.366 135 
L 634.372 135 
L 634.372 93.88 
" style="fill:#f8dcc7;"/>
    <path clip-path="url(#p44e92bd206)" d="M 707.366 93.88 
L 780.36 93.88 
L 780.36 135 
L 707.366 135 
L 707.366 93.88 
" style="fill:#f9e0cd;"/>
    <path clip-path="url(#p44e92bd206)" d="M 50.42 135 
L 123.414 135 
L 123.414 176.12 
L 50.42 176.12 
L 50.42 135 
" style="fill:#a8185a;"/>
    <path clip-path="url(#p44e92bd206)" d="M 123.414 135 
L 196.408 135 
L 196.408 176.12 
L 123.414 176.12 
L 123.414 135 
" style="fill:#f47a54;"/>
    <path clip-path="url(#p44e92bd206)" d="M 196.408 135 
L 269.402 135 
L 269.402 176.12 
L 196.408 176.12 
L 196.408 135 
" style="fill:#f59970;"/>
    <path clip-path="url(#p44e92bd206)" d="M 269.402 135 
L 342.396 135 
L 342.396 176.12 
L 269.402 176.12 
L 269.402 135 
" style="fill:#f6ab83;"/>
    <path clip-path="url(#p44e92bd206)" d="M 342.396 135 
L 415.39 135 
L 415.39 176.12 
L 342.396 176.12 
L 342.396 135 
" style="fill:#f6b995;"/>
    <path clip-path="url(#p44e92bd206)" d="M 415.39 135 
L 488.384 135 
L 488.384 176.12 
L 415.39 176.12 
L 415.39 135 
" style="fill:#f7c2a2;"/>
    <path clip-path="url(#p44e92bd206)" d="M 488.384 135 
L 561.378 135 
L 561.378 176.12 
L 488.384 176.12 
L 488.384 135 
" style="fill:#f7ccaf;"/>
    <path clip-path="url(#p44e92bd206)" d="M 561.378 135 
L 634.372 135 
L 634.372 176.12 
L 561.378 176.12 
L 561.378 135 
" style="fill:#f8d1b8;"/>
    <path clip-path="url(#p44e92bd206)" d="M 634.372 135 
L 707.366 135 
L 707.366 176.12 
L 634.372 176.12 
L 634.372 135 
" style="fill:#f8d6be;"/>
    <path clip-path="url(#p44e92bd206)" d="M 707.366 135 
L 780.36 135 
L 780.36 176.12 
L 707.366 176.12 
L 707.366 135 
" style="fill:#f8dac5;"/>
    <path clip-path="url(#p44e92bd206)" d="M 50.42 176.12 
L 123.414 176.12 
L 123.414 217.24 
L 50.42 217.24 
L 50.42 176.12 
" style="fill:#a6195a;"/>
    <path clip-path="url(#p44e92bd206)" d="M 123.414 176.12 
L 196.408 176.12 
L 196.408 217.24 
L 123.414 217.24 
L 123.414 176.12 
" style="fill:#f37651;"/>
    <path clip-path="url(#p44e92bd206)" d="M 196.408 176.12 
L 269.402 176.12 
L 269.402 217.24 
L 196.408 217.24 
L 196.408 176.12 
" style="fill:#f5946b;"/>
    <path clip-path="url(#p44e92bd206)" d="M 269.402 176.12 
L 342.396 176.12 
L 342.396 217.24 
L 269.402 217.24 
L 269.402 176.12 
" style="fill:#f6a67e;"/>
    <path clip-path="url(#p44e92bd206)" d="M 342.396 176.12 
L 415.39 176.12 
L 415.39 217.24 
L 342.396 217.24 
L 342.396 176.12 
" style="fill:#f6b48f;"/>
    <path clip-path="url(#p44e92bd206)" d="M 415.39 176.12 
L 488.384 176.12 
L 488.384 217.24 
L 415.39 217.24 
L 415.39 176.12 
" style="fill:#f6bc99;"/>
    <path clip-path="url(#p44e92bd206)" d="M 488.384 176.12 
L 561.378 176.12 
L 561.378 217.24 
L 488.384 217.24 
L 488.384 176.12 
" style="fill:#f7c6a6;"/>
    <path clip-path="url(#p44e92bd206)" d="M 561.378 176.12 
L 634.372 176.12 
L 634.372 217.24 
L 561.378 217.24 
L 561.378 176.12 
" style="fill:#f7ccaf;"/>
    <path clip-path="url(#p44e92bd206)" d="M 634.372 176.12 
L 707.366 176.12 
L 707.366 217.24 
L 634.372 217.24 
L 634.372 176.12 
" style="fill:#f7d0b5;"/>
    <path clip-path="url(#p44e92bd206)" d="M 707.366 176.12 
L 780.36 176.12 
L 780.36 217.24 
L 707.366 217.24 
L 707.366 176.12 
" style="fill:#f8d3ba;"/>
    <path clip-path="url(#p44e92bd206)" d="M 50.42 217.24 
L 123.414 217.24 
L 123.414 258.36 
L 50.42 258.36 
L 50.42 217.24 
" style="fill:#a4195b;"/>
    <path clip-path="url(#p44e92bd206)" d="M 123.414 217.24 
L 196.408 217.24 
L 196.408 258.36 
L 123.414 258.36 
L 123.414 217.24 
" style="fill:#f3734e;"/>
    <path clip-path="url(#p44e92bd206)" d="M 196.408 217.24 
L 269.402 217.24 
L 269.402 258.36 
L 196.408 258.36 
L 196.408 217.24 
" style="fill:#f59067;"/>
    <path clip-path="url(#p44e92bd206)" d="M 269.402 217.24 
L 342.396 217.24 
L 342.396 258.36 
L 269.402 258.36 
L 269.402 217.24 
" style="fill:#f6a077;"/>
    <path clip-path="url(#p44e92bd206)" d="M 342.396 217.24 
L 415.39 217.24 
L 415.39 258.36 
L 342.396 258.36 
L 342.396 217.24 
" style="fill:#f6ae87;"/>
    <path clip-path="url(#p44e92bd206)" d="M 415.39 217.24 
L 488.384 217.24 
L 488.384 258.36 
L 415.39 258.36 
L 415.39 217.24 
" style="fill:#f6b893;"/>
    <path clip-path="url(#p44e92bd206)" d="M 488.384 217.24 
L 561.378 217.24 
L 561.378 258.36 
L 488.384 258.36 
L 488.384 217.24 
" style="fill:#f6bf9d;"/>
    <path clip-path="url(#p44e92bd206)" d="M 561.378 217.24 
L 634.372 217.24 
L 634.372 258.36 
L 561.378 258.36 
L 561.378 217.24 
" style="fill:#f7c4a4;"/>
    <path clip-path="url(#p44e92bd206)" d="M 634.372 217.24 
L 707.366 217.24 
L 707.366 258.36 
L 634.372 258.36 
L 634.372 217.24 
" style="fill:#f7c7a8;"/>
    <path clip-path="url(#p44e92bd206)" d="M 707.366 217.24 
L 780.36 217.24 
L 780.36 258.36 
L 707.366 258.36 
L 707.366 217.24 
" style="fill:#f7caac;"/>
    <path clip-path="url(#p44e92bd206)" d="M 50.42 258.36 
L 123.414 258.36 
L 123.414 299.48 
L 50.42 299.48 
L 50.42 258.36 
" style="fill:#a3195b;"/>
    <path clip-path="url(#p44e92bd206)" d="M 123.414 258.36 
L 196.408 258.36 
L 196.408 299.48 
L 123.414 299.48 
L 123.414 258.36 
" style="fill:#f26d4b;"/>
    <path clip-path="url(#p44e92bd206)" d="M 196.408 258.36 
L 269.402 258.36 
L 269.402 299.48 
L 196.408 299.48 
L 196.408 258.36 
" style="fill:#f58a61;"/>
    <path clip-path="url(#p44e92bd206)" d="M 269.402 258.36 
L 342.396 258.36 
L 342.396 299.48 
L 269.402 299.48 
L 269.402 258.36 
" style="fill:#f69b71;"/>
    <path clip-path="url(#p44e92bd206)" d="M 342.396 258.36 
L 415.39 258.36 
L 415.39 299.48 
L 342.396 299.48 
L 342.396 258.36 
" style="fill:#f6a880;"/>
    <path clip-path="url(#p44e92bd206)" d="M 415.39 258.36 
L 488.384 258.36 
L 488.384 299.48 
L 415.39 299.48 
L 415.39 258.36 
" style="fill:#f6b089;"/>
    <path clip-path="url(#p44e92bd206)" d="M 488.384 258.36 
L 561.378 258.36 
L 561.378 299.48 
L 488.384 299.48 
L 488.384 258.36 
" style="fill:#f6b691;"/>
    <path clip-path="url(#p44e92bd206)" d="M 561.378 258.36 
L 634.372 258.36 
L 634.372 299.48 
L 561.378 299.48 
L 561.378 258.36 
" style="fill:#f6b995;"/>
    <path clip-path="url(#p44e92bd206)" d="M 634.372 258.36 
L 707.366 258.36 
L 707.366 299.48 
L 634.372 299.48 
L 634.372 258.36 
" style="fill:#f6bb97;"/>
    <path clip-path="url(#p44e92bd206)" d="M 707.366 258.36 
L 780.36 258.36 
L 780.36 299.48 
L 707.366 299.48 
L 707.366 258.36 
" style="fill:#f6bc99;"/>
    <path clip-path="url(#p44e92bd206)" d="M 50.42 299.48 
L 123.414 299.48 
L 123.414 340.6 
L 50.42 340.6 
L 50.42 299.48 
" style="fill:#9e1a5b;"/>
    <path clip-path="url(#p44e92bd206)" d="M 123.414 299.48 
L 196.408 299.48 
L 196.408 340.6 
L 123.414 340.6 
L 123.414 299.48 
" style="fill:#f16646;"/>
    <path clip-path="url(#p44e92bd206)" d="M 196.408 299.48 
L 269.402 299.48 
L 269.402 340.6 
L 196.408 340.6 
L 196.408 299.48 
" style="fill:#f4815a;"/>
    <path clip-path="url(#p44e92bd206)" d="M 269.402 299.48 
L 342.396 299.48 
L 342.396 340.6 
L 269.402 340.6 
L 269.402 299.48 
" style="fill:#f59067;"/>
    <path clip-path="url(#p44e92bd206)" d="M 342.396 299.48 
L 415.39 299.48 
L 415.39 340.6 
L 342.396 340.6 
L 342.396 299.48 
" style="fill:#f69b71;"/>
    <path clip-path="url(#p44e92bd206)" d="M 415.39 299.48 
L 488.384 299.48 
L 488.384 340.6 
L 415.39 340.6 
L 415.39 299.48 
" style="fill:#f6a178;"/>
    <path clip-path="url(#p44e92bd206)" d="M 488.384 299.48 
L 561.378 299.48 
L 561.378 340.6 
L 488.384 340.6 
L 488.384 299.48 
" style="fill:#f6a47c;"/>
    <path clip-path="url(#p44e92bd206)" d="M 561.378 299.48 
L 634.372 299.48 
L 634.372 340.6 
L 561.378 340.6 
L 561.378 299.48 
" style="fill:#f6a67e;"/>
    <path clip-path="url(#p44e92bd206)" d="M 634.372 299.48 
L 707.366 299.48 
L 707.366 340.6 
L 634.372 340.6 
L 634.372 299.48 
" style="fill:#f6a880;"/>
    <path clip-path="url(#p44e92bd206)" d="M 707.366 299.48 
L 780.36 299.48 
L 780.36 340.6 
L 707.366 340.6 
L 707.366 299.48 
" style="fill:#f6a880;"/>
    <path clip-path="url(#p44e92bd206)" d="M 50.42 340.6 
L 123.414 340.6 
L 123.414 381.72 
L 50.42 381.72 
L 50.42 340.6 
" style="fill:#971c5b;"/>
    <path clip-path="url(#p44e92bd206)" d="M 123.414 340.6 
L 196.408 340.6 
L 196.408 381.72 
L 123.414 381.72 
L 123.414 340.6 
" style="fill:#ef5640;"/>
    <path clip-path="url(#p44e92bd206)" d="M 196.408 340.6 
L 269.402 340.6 
L 269.402 381.72 
L 196.408 381.72 
L 196.408 340.6 
" style="fill:#f26f4c;"/>
    <path clip-path="url(#p44e92bd206)" d="M 269.402 340.6 
L 342.396 340.6 
L 342.396 381.72 
L 269.402 381.72 
L 269.402 340.6 
" style="fill:#f47c55;"/>
    <path clip-path="url(#p44e92bd206)" d="M 342.396 340.6 
L 415.39 340.6 
L 415.39 381.72 
L 342.396 381.72 
L 342.396 340.6 
" style="fill:#f4845d;"/>
    <path clip-path="url(#p44e92bd206)" d="M 415.39 340.6 
L 488.384 340.6 
L 488.384 381.72 
L 415.39 381.72 
L 415.39 340.6 
" style="fill:#f4865e;"/>
    <path clip-path="url(#p44e92bd206)" d="M 488.384 340.6 
L 561.378 340.6 
L 561.378 381.72 
L 488.384 381.72 
L 488.384 340.6 
" style="fill:#f58860;"/>
    <path clip-path="url(#p44e92bd206)" d="M 561.378 340.6 
L 634.372 340.6 
L 634.372 381.72 
L 561.378 381.72 
L 561.378 340.6 
" style="fill:#f58860;"/>
    <path clip-path="url(#p44e92bd206)" d="M 634.372 340.6 
L 707.366 340.6 
L 707.366 381.72 
L 634.372 381.72 
L 634.372 340.6 
" style="fill:#f58860;"/>
    <path clip-path="url(#p44e92bd206)" d="M 707.366 340.6 
L 780.36 340.6 
L 780.36 381.72 
L 707.366 381.72 
L 707.366 340.6 
" style="fill:#f58860;"/>
    <path clip-path="url(#p44e92bd206)" d="M 50.42 381.72 
L 123.414 381.72 
L 123.414 422.84 
L 50.42 422.84 
L 50.42 381.72 
" style="fill:#861e5b;"/>
    <path clip-path="url(#p44e92bd206)" d="M 123.414 381.72 
L 196.408 381.72 
L 196.408 422.84 
L 123.414 422.84 
L 123.414 381.72 
" style="fill:#e23442;"/>
    <path clip-path="url(#p44e92bd206)" d="M 196.408 381.72 
L 269.402 381.72 
L 269.402 422.84 
L 196.408 422.84 
L 196.408 381.72 
" style="fill:#ea443e;"/>
    <path clip-path="url(#p44e92bd206)" d="M 269.402 381.72 
L 342.396 381.72 
L 342.396 422.84 
L 269.402 422.84 
L 269.402 381.72 
" style="fill:#ec4c3e;"/>
    <path clip-path="url(#p44e92bd206)" d="M 342.396 381.72 
L 415.39 381.72 
L 415.39 422.84 
L 342.396 422.84 
L 342.396 381.72 
" style="fill:#ed4e3e;"/>
    <path clip-path="url(#p44e92bd206)" d="M 415.39 381.72 
L 488.384 381.72 
L 488.384 422.84 
L 415.39 422.84 
L 415.39 381.72 
" style="fill:#ed4e3e;"/>
    <path clip-path="url(#p44e92bd206)" d="M 488.384 381.72 
L 561.378 381.72 
L 561.378 422.84 
L 488.384 422.84 
L 488.384 381.72 
" style="fill:#ed4e3e;"/>
    <path clip-path="url(#p44e92bd206)" d="M 561.378 381.72 
L 634.372 381.72 
L 634.372 422.84 
L 561.378 422.84 
L 561.378 381.72 
" style="fill:#ed4e3e;"/>
    <path clip-path="url(#p44e92bd206)" d="M 634.372 381.72 
L 707.366 381.72 
L 707.366 422.84 
L 634.372 422.84 
L 634.372 381.72 
" style="fill:#ed4e3e;"/>
    <path clip-path="url(#p44e92bd206)" d="M 707.366 381.72 
L 780.36 381.72 
L 780.36 422.84 
L 707.366 422.84 
L 707.366 381.72 
" style="fill:#ed4e3e;"/>
    <path clip-path="url(#p44e92bd206)" d="M 50.42 422.84 
L 123.414 422.84 
L 123.414 463.96 
L 50.42 463.96 
L 50.42 422.84 
" style="fill:#03051a;"/>
    <path clip-path="url(#p44e92bd206)" d="M 123.414 422.84 
L 196.408 422.84 
L 196.408 463.96 
L 123.414 463.96 
L 123.414 422.84 
" style="fill:#03051a;"/>
    <path clip-path="url(#p44e92bd206)" d="M 196.408 422.84 
L 269.402 422.84 
L 269.402 463.96 
L 196.408 463.96 
L 196.408 422.84 
" style="fill:#03051a;"/>
    <path clip-path="url(#p44e92bd206)" d="M 269.402 422.84 
L 342.396 422.84 
L 342.396 463.96 
L 269.402 463.96 
L 269.402 422.84 
" style="fill:#03051a;"/>
    <path clip-path="url(#p44e92bd206)" d="M 342.396 422.84 
L 415.39 422.84 
L 415.39 463.96 
L 342.396 463.96 
L 342.396 422.84 
" style="fill:#03051a;"/>
    <path clip-path="url(#p44e92bd206)" d="M 415.39 422.84 
L 488.384 422.84 
L 488.384 463.96 
L 415.39 463.96 
L 415.39 422.84 
" style="fill:#03051a;"/>
    <path clip-path="url(#p44e92bd206)" d="M 488.384 422.84 
L 561.378 422.84 
L 561.378 463.96 
L 488.384 463.96 
L 488.384 422.84 
" style="fill:#03051a;"/>
    <path clip-path="url(#p44e92bd206)" d="M 561.378 422.84 
L 634.372 422.84 
L 634.372 463.96 
L 561.378 463.96 
L 561.378 422.84 
" style="fill:#03051a;"/>
    <path clip-path="url(#p44e92bd206)" d="M 634.372 422.84 
L 707.366 422.84 
L 707.366 463.96 
L 634.372 463.96 
L 634.372 422.84 
" style="fill:#03051a;"/>
    <path clip-path="url(#p44e92bd206)" d="M 707.366 422.84 
L 780.36 422.84 
L 780.36 463.96 
L 707.366 463.96 
L 707.366 422.84 
" style="fill:#03051a;"/>
   </g>
   <g id="text_24">
    <!-- 4779 -->
    <g style="fill:#ffffff;" transform="translate(75.795125 34.785156)scale(0.1 -0.1)">
     <use xlink:href="#ArialMT-52"/>
     <use x="55.615234" xlink:href="#ArialMT-55"/>
     <use x="111.230469" xlink:href="#ArialMT-55"/>
     <use x="166.845703" xlink:href="#ArialMT-57"/>
    </g>
   </g>
   <g id="text_25">
    <!-- 8354 -->
    <g style="fill:#ffffff;" transform="translate(148.789125 34.785156)scale(0.1 -0.1)">
     <use xlink:href="#ArialMT-56"/>
     <use x="55.615234" xlink:href="#ArialMT-51"/>
     <use x="111.230469" xlink:href="#ArialMT-53"/>
     <use x="166.845703" xlink:href="#ArialMT-52"/>
    </g>
   </g>
   <g id="text_26">
    <!-- 9202 -->
    <g style="fill:#262626;" transform="translate(221.783125 34.785156)scale(0.1 -0.1)">
     <use xlink:href="#ArialMT-57"/>
     <use x="55.615234" xlink:href="#ArialMT-50"/>
     <use x="111.230469" xlink:href="#ArialMT-48"/>
     <use x="166.845703" xlink:href="#ArialMT-50"/>
    </g>
   </g>
   <g id="text_27">
    <!-- 9707 -->
    <g style="fill:#262626;" transform="translate(294.777125 34.785156)scale(0.1 -0.1)">
     <use xlink:href="#ArialMT-57"/>
     <use x="55.615234" xlink:href="#ArialMT-55"/>
     <use x="111.230469" xlink:href="#ArialMT-48"/>
     <use x="166.845703" xlink:href="#ArialMT-55"/>
    </g>
   </g>
   <g id="text_28">
    <!-- 10145 -->
    <g style="fill:#262626;" transform="translate(364.990656 34.785156)scale(0.1 -0.1)">
     <use xlink:href="#ArialMT-49"/>
     <use x="55.615234" xlink:href="#ArialMT-48"/>
     <use x="111.230469" xlink:href="#ArialMT-49"/>
     <use x="166.845703" xlink:href="#ArialMT-52"/>
     <use x="222.460938" xlink:href="#ArialMT-53"/>
    </g>
   </g>
   <g id="text_29">
    <!-- 10461 -->
    <g style="fill:#262626;" transform="translate(437.984656 34.785156)scale(0.1 -0.1)">
     <use xlink:href="#ArialMT-49"/>
     <use x="55.615234" xlink:href="#ArialMT-48"/>
     <use x="111.230469" xlink:href="#ArialMT-52"/>
     <use x="166.845703" xlink:href="#ArialMT-54"/>
     <use x="222.460938" xlink:href="#ArialMT-49"/>
    </g>
   </g>
   <g id="text_30">
    <!-- 10769 -->
    <g style="fill:#262626;" transform="translate(510.978656 34.785156)scale(0.1 -0.1)">
     <use xlink:href="#ArialMT-49"/>
     <use x="55.615234" xlink:href="#ArialMT-48"/>
     <use x="111.230469" xlink:href="#ArialMT-55"/>
     <use x="166.845703" xlink:href="#ArialMT-54"/>
     <use x="222.460938" xlink:href="#ArialMT-57"/>
    </g>
   </g>
   <g id="text_31">
    <!-- 10971 -->
    <g style="fill:#262626;" transform="translate(583.972656 34.785156)scale(0.1 -0.1)">
     <use xlink:href="#ArialMT-49"/>
     <use x="55.615234" xlink:href="#ArialMT-48"/>
     <use x="111.230469" xlink:href="#ArialMT-57"/>
     <use x="166.845703" xlink:href="#ArialMT-55"/>
     <use x="222.460938" xlink:href="#ArialMT-49"/>
    </g>
   </g>
   <g id="text_32">
    <!-- 11134 -->
    <g style="fill:#262626;" transform="translate(656.977594 34.785156)scale(0.1 -0.1)">
     <use xlink:href="#ArialMT-49"/>
     <use x="55.505859" xlink:href="#ArialMT-49"/>
     <use x="111.011719" xlink:href="#ArialMT-49"/>
     <use x="166.626953" xlink:href="#ArialMT-51"/>
     <use x="222.242188" xlink:href="#ArialMT-52"/>
    </g>
   </g>
   <g id="text_33">
    <!-- 11288 -->
    <g style="fill:#262626;" transform="translate(729.966125 34.785156)scale(0.1 -0.1)">
     <use xlink:href="#ArialMT-49"/>
     <use x="55.505859" xlink:href="#ArialMT-49"/>
     <use x="111.121094" xlink:href="#ArialMT-50"/>
     <use x="166.736328" xlink:href="#ArialMT-56"/>
     <use x="222.351562" xlink:href="#ArialMT-56"/>
    </g>
   </g>
   <g id="text_34">
    <!-- 4747 -->
    <g style="fill:#ffffff;" transform="translate(75.795125 75.905156)scale(0.1 -0.1)">
     <use xlink:href="#ArialMT-52"/>
     <use x="55.615234" xlink:href="#ArialMT-55"/>
     <use x="111.230469" xlink:href="#ArialMT-52"/>
     <use x="166.845703" xlink:href="#ArialMT-55"/>
    </g>
   </g>
   <g id="text_35">
    <!-- 8282 -->
    <g style="fill:#ffffff;" transform="translate(148.789125 75.905156)scale(0.1 -0.1)">
     <use xlink:href="#ArialMT-56"/>
     <use x="55.615234" xlink:href="#ArialMT-50"/>
     <use x="111.230469" xlink:href="#ArialMT-56"/>
     <use x="166.845703" xlink:href="#ArialMT-50"/>
    </g>
   </g>
   <g id="text_36">
    <!-- 9108 -->
    <g style="fill:#262626;" transform="translate(221.783125 75.905156)scale(0.1 -0.1)">
     <use xlink:href="#ArialMT-57"/>
     <use x="55.615234" xlink:href="#ArialMT-49"/>
     <use x="111.230469" xlink:href="#ArialMT-48"/>
     <use x="166.845703" xlink:href="#ArialMT-56"/>
    </g>
   </g>
   <g id="text_37">
    <!-- 9601 -->
    <g style="fill:#262626;" transform="translate(294.777125 75.905156)scale(0.1 -0.1)">
     <use xlink:href="#ArialMT-57"/>
     <use x="55.615234" xlink:href="#ArialMT-54"/>
     <use x="111.230469" xlink:href="#ArialMT-48"/>
     <use x="166.845703" xlink:href="#ArialMT-49"/>
    </g>
   </g>
   <g id="text_38">
    <!-- 10023 -->
    <g style="fill:#262626;" transform="translate(364.990656 75.905156)scale(0.1 -0.1)">
     <use xlink:href="#ArialMT-49"/>
     <use x="55.615234" xlink:href="#ArialMT-48"/>
     <use x="111.230469" xlink:href="#ArialMT-48"/>
     <use x="166.845703" xlink:href="#ArialMT-50"/>
     <use x="222.460938" xlink:href="#ArialMT-51"/>
    </g>
   </g>
   <g id="text_39">
    <!-- 10329 -->
    <g style="fill:#262626;" transform="translate(437.984656 75.905156)scale(0.1 -0.1)">
     <use xlink:href="#ArialMT-49"/>
     <use x="55.615234" xlink:href="#ArialMT-48"/>
     <use x="111.230469" xlink:href="#ArialMT-51"/>
     <use x="166.845703" xlink:href="#ArialMT-50"/>
     <use x="222.460938" xlink:href="#ArialMT-57"/>
    </g>
   </g>
   <g id="text_40">
    <!-- 10631 -->
    <g style="fill:#262626;" transform="translate(510.978656 75.905156)scale(0.1 -0.1)">
     <use xlink:href="#ArialMT-49"/>
     <use x="55.615234" xlink:href="#ArialMT-48"/>
     <use x="111.230469" xlink:href="#ArialMT-54"/>
     <use x="166.845703" xlink:href="#ArialMT-51"/>
     <use x="222.460938" xlink:href="#ArialMT-49"/>
    </g>
   </g>
   <g id="text_41">
    <!-- 10827 -->
    <g style="fill:#262626;" transform="translate(583.972656 75.905156)scale(0.1 -0.1)">
     <use xlink:href="#ArialMT-49"/>
     <use x="55.615234" xlink:href="#ArialMT-48"/>
     <use x="111.230469" xlink:href="#ArialMT-56"/>
     <use x="166.845703" xlink:href="#ArialMT-50"/>
     <use x="222.460938" xlink:href="#ArialMT-55"/>
    </g>
   </g>
   <g id="text_42">
    <!-- 10980 -->
    <g style="fill:#262626;" transform="translate(656.966656 75.905156)scale(0.1 -0.1)">
     <use xlink:href="#ArialMT-49"/>
     <use x="55.615234" xlink:href="#ArialMT-48"/>
     <use x="111.230469" xlink:href="#ArialMT-57"/>
     <use x="166.845703" xlink:href="#ArialMT-56"/>
     <use x="222.460938" xlink:href="#ArialMT-48"/>
    </g>
   </g>
   <g id="text_43">
    <!-- 11126 -->
    <g style="fill:#262626;" transform="translate(729.971594 75.905156)scale(0.1 -0.1)">
     <use xlink:href="#ArialMT-49"/>
     <use x="55.505859" xlink:href="#ArialMT-49"/>
     <use x="111.011719" xlink:href="#ArialMT-49"/>
     <use x="166.626953" xlink:href="#ArialMT-50"/>
     <use x="222.242188" xlink:href="#ArialMT-54"/>
    </g>
   </g>
   <g id="text_44">
    <!-- 4726 -->
    <g style="fill:#ffffff;" transform="translate(75.795125 117.025156)scale(0.1 -0.1)">
     <use xlink:href="#ArialMT-52"/>
     <use x="55.615234" xlink:href="#ArialMT-55"/>
     <use x="111.230469" xlink:href="#ArialMT-50"/>
     <use x="166.845703" xlink:href="#ArialMT-54"/>
    </g>
   </g>
   <g id="text_45">
    <!-- 8224 -->
    <g style="fill:#ffffff;" transform="translate(148.789125 117.025156)scale(0.1 -0.1)">
     <use xlink:href="#ArialMT-56"/>
     <use x="55.615234" xlink:href="#ArialMT-50"/>
     <use x="111.230469" xlink:href="#ArialMT-50"/>
     <use x="166.845703" xlink:href="#ArialMT-52"/>
    </g>
   </g>
   <g id="text_46">
    <!-- 9021 -->
    <g style="fill:#262626;" transform="translate(221.783125 117.025156)scale(0.1 -0.1)">
     <use xlink:href="#ArialMT-57"/>
     <use x="55.615234" xlink:href="#ArialMT-48"/>
     <use x="111.230469" xlink:href="#ArialMT-50"/>
     <use x="166.845703" xlink:href="#ArialMT-49"/>
    </g>
   </g>
   <g id="text_47">
    <!-- 9498 -->
    <g style="fill:#262626;" transform="translate(294.777125 117.025156)scale(0.1 -0.1)">
     <use xlink:href="#ArialMT-57"/>
     <use x="55.615234" xlink:href="#ArialMT-52"/>
     <use x="111.230469" xlink:href="#ArialMT-57"/>
     <use x="166.845703" xlink:href="#ArialMT-56"/>
    </g>
   </g>
   <g id="text_48">
    <!-- 9916 -->
    <g style="fill:#262626;" transform="translate(367.771125 117.025156)scale(0.1 -0.1)">
     <use xlink:href="#ArialMT-57"/>
     <use x="55.615234" xlink:href="#ArialMT-57"/>
     <use x="111.230469" xlink:href="#ArialMT-49"/>
     <use x="166.845703" xlink:href="#ArialMT-54"/>
    </g>
   </g>
   <g id="text_49">
    <!-- 10211 -->
    <g style="fill:#262626;" transform="translate(437.990125 117.025156)scale(0.1 -0.1)">
     <use xlink:href="#ArialMT-49"/>
     <use x="55.615234" xlink:href="#ArialMT-48"/>
     <use x="111.230469" xlink:href="#ArialMT-50"/>
     <use x="166.845703" xlink:href="#ArialMT-49"/>
     <use x="222.351562" xlink:href="#ArialMT-49"/>
    </g>
   </g>
   <g id="text_50">
    <!-- 10493 -->
    <g style="fill:#262626;" transform="translate(510.978656 117.025156)scale(0.1 -0.1)">
     <use xlink:href="#ArialMT-49"/>
     <use x="55.615234" xlink:href="#ArialMT-48"/>
     <use x="111.230469" xlink:href="#ArialMT-52"/>
     <use x="166.845703" xlink:href="#ArialMT-57"/>
     <use x="222.460938" xlink:href="#ArialMT-51"/>
    </g>
   </g>
   <g id="text_51">
    <!-- 10682 -->
    <g style="fill:#262626;" transform="translate(583.972656 117.025156)scale(0.1 -0.1)">
     <use xlink:href="#ArialMT-49"/>
     <use x="55.615234" xlink:href="#ArialMT-48"/>
     <use x="111.230469" xlink:href="#ArialMT-54"/>
     <use x="166.845703" xlink:href="#ArialMT-56"/>
     <use x="222.460938" xlink:href="#ArialMT-50"/>
    </g>
   </g>
   <g id="text_52">
    <!-- 10830 -->
    <g style="fill:#262626;" transform="translate(656.966656 117.025156)scale(0.1 -0.1)">
     <use xlink:href="#ArialMT-49"/>
     <use x="55.615234" xlink:href="#ArialMT-48"/>
     <use x="111.230469" xlink:href="#ArialMT-56"/>
     <use x="166.845703" xlink:href="#ArialMT-51"/>
     <use x="222.460938" xlink:href="#ArialMT-48"/>
    </g>
   </g>
   <g id="text_53">
    <!-- 10968 -->
    <g style="fill:#262626;" transform="translate(729.960656 117.025156)scale(0.1 -0.1)">
     <use xlink:href="#ArialMT-49"/>
     <use x="55.615234" xlink:href="#ArialMT-48"/>
     <use x="111.230469" xlink:href="#ArialMT-57"/>
     <use x="166.845703" xlink:href="#ArialMT-54"/>
     <use x="222.460938" xlink:href="#ArialMT-56"/>
    </g>
   </g>
   <g id="text_54">
    <!-- 4695 -->
    <g style="fill:#ffffff;" transform="translate(75.795125 158.145156)scale(0.1 -0.1)">
     <use xlink:href="#ArialMT-52"/>
     <use x="55.615234" xlink:href="#ArialMT-54"/>
     <use x="111.230469" xlink:href="#ArialMT-57"/>
     <use x="166.845703" xlink:href="#ArialMT-53"/>
    </g>
   </g>
   <g id="text_55">
    <!-- 8153 -->
    <g style="fill:#ffffff;" transform="translate(148.789125 158.145156)scale(0.1 -0.1)">
     <use xlink:href="#ArialMT-56"/>
     <use x="55.615234" xlink:href="#ArialMT-49"/>
     <use x="111.230469" xlink:href="#ArialMT-53"/>
     <use x="166.845703" xlink:href="#ArialMT-51"/>
    </g>
   </g>
   <g id="text_56">
    <!-- 8932 -->
    <g style="fill:#262626;" transform="translate(221.783125 158.145156)scale(0.1 -0.1)">
     <use xlink:href="#ArialMT-56"/>
     <use x="55.615234" xlink:href="#ArialMT-57"/>
     <use x="111.230469" xlink:href="#ArialMT-51"/>
     <use x="166.845703" xlink:href="#ArialMT-50"/>
    </g>
   </g>
   <g id="text_57">
    <!-- 9397 -->
    <g style="fill:#262626;" transform="translate(294.777125 158.145156)scale(0.1 -0.1)">
     <use xlink:href="#ArialMT-57"/>
     <use x="55.615234" xlink:href="#ArialMT-51"/>
     <use x="111.230469" xlink:href="#ArialMT-57"/>
     <use x="166.845703" xlink:href="#ArialMT-55"/>
    </g>
   </g>
   <g id="text_58">
    <!-- 9802 -->
    <g style="fill:#262626;" transform="translate(367.771125 158.145156)scale(0.1 -0.1)">
     <use xlink:href="#ArialMT-57"/>
     <use x="55.615234" xlink:href="#ArialMT-56"/>
     <use x="111.230469" xlink:href="#ArialMT-48"/>
     <use x="166.845703" xlink:href="#ArialMT-50"/>
    </g>
   </g>
   <g id="text_59">
    <!-- 10086 -->
    <g style="fill:#262626;" transform="translate(437.984656 158.145156)scale(0.1 -0.1)">
     <use xlink:href="#ArialMT-49"/>
     <use x="55.615234" xlink:href="#ArialMT-48"/>
     <use x="111.230469" xlink:href="#ArialMT-48"/>
     <use x="166.845703" xlink:href="#ArialMT-56"/>
     <use x="222.460938" xlink:href="#ArialMT-54"/>
    </g>
   </g>
   <g id="text_60">
    <!-- 10351 -->
    <g style="fill:#262626;" transform="translate(510.978656 158.145156)scale(0.1 -0.1)">
     <use xlink:href="#ArialMT-49"/>
     <use x="55.615234" xlink:href="#ArialMT-48"/>
     <use x="111.230469" xlink:href="#ArialMT-51"/>
     <use x="166.845703" xlink:href="#ArialMT-53"/>
     <use x="222.460938" xlink:href="#ArialMT-49"/>
    </g>
   </g>
   <g id="text_61">
    <!-- 10530 -->
    <g style="fill:#262626;" transform="translate(583.972656 158.145156)scale(0.1 -0.1)">
     <use xlink:href="#ArialMT-49"/>
     <use x="55.615234" xlink:href="#ArialMT-48"/>
     <use x="111.230469" xlink:href="#ArialMT-53"/>
     <use x="166.845703" xlink:href="#ArialMT-51"/>
     <use x="222.460938" xlink:href="#ArialMT-48"/>
    </g>
   </g>
   <g id="text_62">
    <!-- 10669 -->
    <g style="fill:#262626;" transform="translate(656.966656 158.145156)scale(0.1 -0.1)">
     <use xlink:href="#ArialMT-49"/>
     <use x="55.615234" xlink:href="#ArialMT-48"/>
     <use x="111.230469" xlink:href="#ArialMT-54"/>
     <use x="166.845703" xlink:href="#ArialMT-54"/>
     <use x="222.460938" xlink:href="#ArialMT-57"/>
    </g>
   </g>
   <g id="text_63">
    <!-- 10794 -->
    <g style="fill:#262626;" transform="translate(729.960656 158.145156)scale(0.1 -0.1)">
     <use xlink:href="#ArialMT-49"/>
     <use x="55.615234" xlink:href="#ArialMT-48"/>
     <use x="111.230469" xlink:href="#ArialMT-55"/>
     <use x="166.845703" xlink:href="#ArialMT-57"/>
     <use x="222.460938" xlink:href="#ArialMT-52"/>
    </g>
   </g>
   <g id="text_64">
    <!-- 4652 -->
    <g style="fill:#ffffff;" transform="translate(75.795125 199.265156)scale(0.1 -0.1)">
     <use xlink:href="#ArialMT-52"/>
     <use x="55.615234" xlink:href="#ArialMT-54"/>
     <use x="111.230469" xlink:href="#ArialMT-53"/>
     <use x="166.845703" xlink:href="#ArialMT-50"/>
    </g>
   </g>
   <g id="text_65">
    <!-- 8062 -->
    <g style="fill:#ffffff;" transform="translate(148.789125 199.265156)scale(0.1 -0.1)">
     <use xlink:href="#ArialMT-56"/>
     <use x="55.615234" xlink:href="#ArialMT-48"/>
     <use x="111.230469" xlink:href="#ArialMT-54"/>
     <use x="166.845703" xlink:href="#ArialMT-50"/>
    </g>
   </g>
   <g id="text_66">
    <!-- 8816 -->
    <g style="fill:#262626;" transform="translate(221.783125 199.265156)scale(0.1 -0.1)">
     <use xlink:href="#ArialMT-56"/>
     <use x="55.615234" xlink:href="#ArialMT-56"/>
     <use x="111.230469" xlink:href="#ArialMT-49"/>
     <use x="166.845703" xlink:href="#ArialMT-54"/>
    </g>
   </g>
   <g id="text_67">
    <!-- 9266 -->
    <g style="fill:#262626;" transform="translate(294.777125 199.265156)scale(0.1 -0.1)">
     <use xlink:href="#ArialMT-57"/>
     <use x="55.615234" xlink:href="#ArialMT-50"/>
     <use x="111.230469" xlink:href="#ArialMT-54"/>
     <use x="166.845703" xlink:href="#ArialMT-54"/>
    </g>
   </g>
   <g id="text_68">
    <!-- 9658 -->
    <g style="fill:#262626;" transform="translate(367.771125 199.265156)scale(0.1 -0.1)">
     <use xlink:href="#ArialMT-57"/>
     <use x="55.615234" xlink:href="#ArialMT-54"/>
     <use x="111.230469" xlink:href="#ArialMT-53"/>
     <use x="166.845703" xlink:href="#ArialMT-56"/>
    </g>
   </g>
   <g id="text_69">
    <!-- 9920 -->
    <g style="fill:#262626;" transform="translate(440.765125 199.265156)scale(0.1 -0.1)">
     <use xlink:href="#ArialMT-57"/>
     <use x="55.615234" xlink:href="#ArialMT-57"/>
     <use x="111.230469" xlink:href="#ArialMT-50"/>
     <use x="166.845703" xlink:href="#ArialMT-48"/>
    </g>
   </g>
   <g id="text_70">
    <!-- 10171 -->
    <g style="fill:#262626;" transform="translate(510.978656 199.265156)scale(0.1 -0.1)">
     <use xlink:href="#ArialMT-49"/>
     <use x="55.615234" xlink:href="#ArialMT-48"/>
     <use x="111.230469" xlink:href="#ArialMT-49"/>
     <use x="166.845703" xlink:href="#ArialMT-55"/>
     <use x="222.460938" xlink:href="#ArialMT-49"/>
    </g>
   </g>
   <g id="text_71">
    <!-- 10334 -->
    <g style="fill:#262626;" transform="translate(583.972656 199.265156)scale(0.1 -0.1)">
     <use xlink:href="#ArialMT-49"/>
     <use x="55.615234" xlink:href="#ArialMT-48"/>
     <use x="111.230469" xlink:href="#ArialMT-51"/>
     <use x="166.845703" xlink:href="#ArialMT-51"/>
     <use x="222.460938" xlink:href="#ArialMT-52"/>
    </g>
   </g>
   <g id="text_72">
    <!-- 10457 -->
    <g style="fill:#262626;" transform="translate(656.966656 199.265156)scale(0.1 -0.1)">
     <use xlink:href="#ArialMT-49"/>
     <use x="55.615234" xlink:href="#ArialMT-48"/>
     <use x="111.230469" xlink:href="#ArialMT-52"/>
     <use x="166.845703" xlink:href="#ArialMT-53"/>
     <use x="222.460938" xlink:href="#ArialMT-55"/>
    </g>
   </g>
   <g id="text_73">
    <!-- 10562 -->
    <g style="fill:#262626;" transform="translate(729.960656 199.265156)scale(0.1 -0.1)">
     <use xlink:href="#ArialMT-49"/>
     <use x="55.615234" xlink:href="#ArialMT-48"/>
     <use x="111.230469" xlink:href="#ArialMT-53"/>
     <use x="166.845703" xlink:href="#ArialMT-54"/>
     <use x="222.460938" xlink:href="#ArialMT-50"/>
    </g>
   </g>
   <g id="text_74">
    <!-- 4600 -->
    <g style="fill:#ffffff;" transform="translate(75.795125 240.385156)scale(0.1 -0.1)">
     <use xlink:href="#ArialMT-52"/>
     <use x="55.615234" xlink:href="#ArialMT-54"/>
     <use x="111.230469" xlink:href="#ArialMT-48"/>
     <use x="166.845703" xlink:href="#ArialMT-48"/>
    </g>
   </g>
   <g id="text_75">
    <!-- 7962 -->
    <g style="fill:#ffffff;" transform="translate(148.789125 240.385156)scale(0.1 -0.1)">
     <use xlink:href="#ArialMT-55"/>
     <use x="55.615234" xlink:href="#ArialMT-57"/>
     <use x="111.230469" xlink:href="#ArialMT-54"/>
     <use x="166.845703" xlink:href="#ArialMT-50"/>
    </g>
   </g>
   <g id="text_76">
    <!-- 8696 -->
    <g style="fill:#ffffff;" transform="translate(221.783125 240.385156)scale(0.1 -0.1)">
     <use xlink:href="#ArialMT-56"/>
     <use x="55.615234" xlink:href="#ArialMT-54"/>
     <use x="111.230469" xlink:href="#ArialMT-57"/>
     <use x="166.845703" xlink:href="#ArialMT-54"/>
    </g>
   </g>
   <g id="text_77">
    <!-- 9126 -->
    <g style="fill:#262626;" transform="translate(294.777125 240.385156)scale(0.1 -0.1)">
     <use xlink:href="#ArialMT-57"/>
     <use x="55.615234" xlink:href="#ArialMT-49"/>
     <use x="111.230469" xlink:href="#ArialMT-50"/>
     <use x="166.845703" xlink:href="#ArialMT-54"/>
    </g>
   </g>
   <g id="text_78">
    <!-- 9509 -->
    <g style="fill:#262626;" transform="translate(367.771125 240.385156)scale(0.1 -0.1)">
     <use xlink:href="#ArialMT-57"/>
     <use x="55.615234" xlink:href="#ArialMT-53"/>
     <use x="111.230469" xlink:href="#ArialMT-48"/>
     <use x="166.845703" xlink:href="#ArialMT-57"/>
    </g>
   </g>
   <g id="text_79">
    <!-- 9760 -->
    <g style="fill:#262626;" transform="translate(440.765125 240.385156)scale(0.1 -0.1)">
     <use xlink:href="#ArialMT-57"/>
     <use x="55.615234" xlink:href="#ArialMT-55"/>
     <use x="111.230469" xlink:href="#ArialMT-54"/>
     <use x="166.845703" xlink:href="#ArialMT-48"/>
    </g>
   </g>
   <g id="text_80">
    <!-- 9988 -->
    <g style="fill:#262626;" transform="translate(513.759125 240.385156)scale(0.1 -0.1)">
     <use xlink:href="#ArialMT-57"/>
     <use x="55.615234" xlink:href="#ArialMT-57"/>
     <use x="111.230469" xlink:href="#ArialMT-56"/>
     <use x="166.845703" xlink:href="#ArialMT-56"/>
    </g>
   </g>
   <g id="text_81">
    <!-- 10131 -->
    <g style="fill:#262626;" transform="translate(583.972656 240.385156)scale(0.1 -0.1)">
     <use xlink:href="#ArialMT-49"/>
     <use x="55.615234" xlink:href="#ArialMT-48"/>
     <use x="111.230469" xlink:href="#ArialMT-49"/>
     <use x="166.845703" xlink:href="#ArialMT-51"/>
     <use x="222.460938" xlink:href="#ArialMT-49"/>
    </g>
   </g>
   <g id="text_82">
    <!-- 10225 -->
    <g style="fill:#262626;" transform="translate(656.966656 240.385156)scale(0.1 -0.1)">
     <use xlink:href="#ArialMT-49"/>
     <use x="55.615234" xlink:href="#ArialMT-48"/>
     <use x="111.230469" xlink:href="#ArialMT-50"/>
     <use x="166.845703" xlink:href="#ArialMT-50"/>
     <use x="222.460938" xlink:href="#ArialMT-53"/>
    </g>
   </g>
   <g id="text_83">
    <!-- 10313 -->
    <g style="fill:#262626;" transform="translate(729.960656 240.385156)scale(0.1 -0.1)">
     <use xlink:href="#ArialMT-49"/>
     <use x="55.615234" xlink:href="#ArialMT-48"/>
     <use x="111.230469" xlink:href="#ArialMT-51"/>
     <use x="166.845703" xlink:href="#ArialMT-49"/>
     <use x="222.460938" xlink:href="#ArialMT-51"/>
    </g>
   </g>
   <g id="text_84">
    <!-- 4543 -->
    <g style="fill:#ffffff;" transform="translate(75.795125 281.505156)scale(0.1 -0.1)">
     <use xlink:href="#ArialMT-52"/>
     <use x="55.615234" xlink:href="#ArialMT-53"/>
     <use x="111.230469" xlink:href="#ArialMT-52"/>
     <use x="166.845703" xlink:href="#ArialMT-51"/>
    </g>
   </g>
   <g id="text_85">
    <!-- 7841 -->
    <g style="fill:#ffffff;" transform="translate(148.789125 281.505156)scale(0.1 -0.1)">
     <use xlink:href="#ArialMT-55"/>
     <use x="55.615234" xlink:href="#ArialMT-56"/>
     <use x="111.230469" xlink:href="#ArialMT-52"/>
     <use x="166.845703" xlink:href="#ArialMT-49"/>
    </g>
   </g>
   <g id="text_86">
    <!-- 8548 -->
    <g style="fill:#ffffff;" transform="translate(221.783125 281.505156)scale(0.1 -0.1)">
     <use xlink:href="#ArialMT-56"/>
     <use x="55.615234" xlink:href="#ArialMT-53"/>
     <use x="111.230469" xlink:href="#ArialMT-52"/>
     <use x="166.845703" xlink:href="#ArialMT-56"/>
    </g>
   </g>
   <g id="text_87">
    <!-- 8955 -->
    <g style="fill:#262626;" transform="translate(294.777125 281.505156)scale(0.1 -0.1)">
     <use xlink:href="#ArialMT-56"/>
     <use x="55.615234" xlink:href="#ArialMT-57"/>
     <use x="111.230469" xlink:href="#ArialMT-53"/>
     <use x="166.845703" xlink:href="#ArialMT-53"/>
    </g>
   </g>
   <g id="text_88">
    <!-- 9308 -->
    <g style="fill:#262626;" transform="translate(367.771125 281.505156)scale(0.1 -0.1)">
     <use xlink:href="#ArialMT-57"/>
     <use x="55.615234" xlink:href="#ArialMT-51"/>
     <use x="111.230469" xlink:href="#ArialMT-48"/>
     <use x="166.845703" xlink:href="#ArialMT-56"/>
    </g>
   </g>
   <g id="text_89">
    <!-- 9535 -->
    <g style="fill:#262626;" transform="translate(440.765125 281.505156)scale(0.1 -0.1)">
     <use xlink:href="#ArialMT-57"/>
     <use x="55.615234" xlink:href="#ArialMT-53"/>
     <use x="111.230469" xlink:href="#ArialMT-51"/>
     <use x="166.845703" xlink:href="#ArialMT-53"/>
    </g>
   </g>
   <g id="text_90">
    <!-- 9719 -->
    <g style="fill:#262626;" transform="translate(513.759125 281.505156)scale(0.1 -0.1)">
     <use xlink:href="#ArialMT-57"/>
     <use x="55.615234" xlink:href="#ArialMT-55"/>
     <use x="111.230469" xlink:href="#ArialMT-49"/>
     <use x="166.845703" xlink:href="#ArialMT-57"/>
    </g>
   </g>
   <g id="text_91">
    <!-- 9816 -->
    <g style="fill:#262626;" transform="translate(586.753125 281.505156)scale(0.1 -0.1)">
     <use xlink:href="#ArialMT-57"/>
     <use x="55.615234" xlink:href="#ArialMT-56"/>
     <use x="111.230469" xlink:href="#ArialMT-49"/>
     <use x="166.845703" xlink:href="#ArialMT-54"/>
    </g>
   </g>
   <g id="text_92">
    <!-- 9872 -->
    <g style="fill:#262626;" transform="translate(659.747125 281.505156)scale(0.1 -0.1)">
     <use xlink:href="#ArialMT-57"/>
     <use x="55.615234" xlink:href="#ArialMT-56"/>
     <use x="111.230469" xlink:href="#ArialMT-55"/>
     <use x="166.845703" xlink:href="#ArialMT-50"/>
    </g>
   </g>
   <g id="text_93">
    <!-- 9917 -->
    <g style="fill:#262626;" transform="translate(732.741125 281.505156)scale(0.1 -0.1)">
     <use xlink:href="#ArialMT-57"/>
     <use x="55.615234" xlink:href="#ArialMT-57"/>
     <use x="111.230469" xlink:href="#ArialMT-49"/>
     <use x="166.845703" xlink:href="#ArialMT-55"/>
    </g>
   </g>
   <g id="text_94">
    <!-- 4441 -->
    <g style="fill:#ffffff;" transform="translate(75.795125 322.625156)scale(0.1 -0.1)">
     <use xlink:href="#ArialMT-52"/>
     <use x="55.615234" xlink:href="#ArialMT-52"/>
     <use x="111.230469" xlink:href="#ArialMT-52"/>
     <use x="166.845703" xlink:href="#ArialMT-49"/>
    </g>
   </g>
   <g id="text_95">
    <!-- 7646 -->
    <g style="fill:#ffffff;" transform="translate(148.789125 322.625156)scale(0.1 -0.1)">
     <use xlink:href="#ArialMT-55"/>
     <use x="55.615234" xlink:href="#ArialMT-54"/>
     <use x="111.230469" xlink:href="#ArialMT-52"/>
     <use x="166.845703" xlink:href="#ArialMT-54"/>
    </g>
   </g>
   <g id="text_96">
    <!-- 8308 -->
    <g style="fill:#ffffff;" transform="translate(221.783125 322.625156)scale(0.1 -0.1)">
     <use xlink:href="#ArialMT-56"/>
     <use x="55.615234" xlink:href="#ArialMT-51"/>
     <use x="111.230469" xlink:href="#ArialMT-48"/>
     <use x="166.845703" xlink:href="#ArialMT-56"/>
    </g>
   </g>
   <g id="text_97">
    <!-- 8689 -->
    <g style="fill:#ffffff;" transform="translate(294.777125 322.625156)scale(0.1 -0.1)">
     <use xlink:href="#ArialMT-56"/>
     <use x="55.615234" xlink:href="#ArialMT-54"/>
     <use x="111.230469" xlink:href="#ArialMT-56"/>
     <use x="166.845703" xlink:href="#ArialMT-57"/>
    </g>
   </g>
   <g id="text_98">
    <!-- 8990 -->
    <g style="fill:#262626;" transform="translate(367.771125 322.625156)scale(0.1 -0.1)">
     <use xlink:href="#ArialMT-56"/>
     <use x="55.615234" xlink:href="#ArialMT-57"/>
     <use x="111.230469" xlink:href="#ArialMT-57"/>
     <use x="166.845703" xlink:href="#ArialMT-48"/>
    </g>
   </g>
   <g id="text_99">
    <!-- 9147 -->
    <g style="fill:#262626;" transform="translate(440.765125 322.625156)scale(0.1 -0.1)">
     <use xlink:href="#ArialMT-57"/>
     <use x="55.615234" xlink:href="#ArialMT-49"/>
     <use x="111.230469" xlink:href="#ArialMT-52"/>
     <use x="166.845703" xlink:href="#ArialMT-55"/>
    </g>
   </g>
   <g id="text_100">
    <!-- 9245 -->
    <g style="fill:#262626;" transform="translate(513.759125 322.625156)scale(0.1 -0.1)">
     <use xlink:href="#ArialMT-57"/>
     <use x="55.615234" xlink:href="#ArialMT-50"/>
     <use x="111.230469" xlink:href="#ArialMT-52"/>
     <use x="166.845703" xlink:href="#ArialMT-53"/>
    </g>
   </g>
   <g id="text_101">
    <!-- 9286 -->
    <g style="fill:#262626;" transform="translate(586.753125 322.625156)scale(0.1 -0.1)">
     <use xlink:href="#ArialMT-57"/>
     <use x="55.615234" xlink:href="#ArialMT-50"/>
     <use x="111.230469" xlink:href="#ArialMT-56"/>
     <use x="166.845703" xlink:href="#ArialMT-54"/>
    </g>
   </g>
   <g id="text_102">
    <!-- 9305 -->
    <g style="fill:#262626;" transform="translate(659.747125 322.625156)scale(0.1 -0.1)">
     <use xlink:href="#ArialMT-57"/>
     <use x="55.615234" xlink:href="#ArialMT-51"/>
     <use x="111.230469" xlink:href="#ArialMT-48"/>
     <use x="166.845703" xlink:href="#ArialMT-53"/>
    </g>
   </g>
   <g id="text_103">
    <!-- 9328 -->
    <g style="fill:#262626;" transform="translate(732.741125 322.625156)scale(0.1 -0.1)">
     <use xlink:href="#ArialMT-57"/>
     <use x="55.615234" xlink:href="#ArialMT-51"/>
     <use x="111.230469" xlink:href="#ArialMT-50"/>
     <use x="166.845703" xlink:href="#ArialMT-56"/>
    </g>
   </g>
   <g id="text_104">
    <!-- 4251 -->
    <g style="fill:#ffffff;" transform="translate(75.795125 363.745156)scale(0.1 -0.1)">
     <use xlink:href="#ArialMT-52"/>
     <use x="55.615234" xlink:href="#ArialMT-50"/>
     <use x="111.230469" xlink:href="#ArialMT-53"/>
     <use x="166.845703" xlink:href="#ArialMT-49"/>
    </g>
   </g>
   <g id="text_105">
    <!-- 7292 -->
    <g style="fill:#ffffff;" transform="translate(148.789125 363.745156)scale(0.1 -0.1)">
     <use xlink:href="#ArialMT-55"/>
     <use x="55.615234" xlink:href="#ArialMT-50"/>
     <use x="111.230469" xlink:href="#ArialMT-57"/>
     <use x="166.845703" xlink:href="#ArialMT-50"/>
    </g>
   </g>
   <g id="text_106">
    <!-- 7889 -->
    <g style="fill:#ffffff;" transform="translate(221.783125 363.745156)scale(0.1 -0.1)">
     <use xlink:href="#ArialMT-55"/>
     <use x="55.615234" xlink:href="#ArialMT-56"/>
     <use x="111.230469" xlink:href="#ArialMT-56"/>
     <use x="166.845703" xlink:href="#ArialMT-57"/>
    </g>
   </g>
   <g id="text_107">
    <!-- 8197 -->
    <g style="fill:#ffffff;" transform="translate(294.777125 363.745156)scale(0.1 -0.1)">
     <use xlink:href="#ArialMT-56"/>
     <use x="55.615234" xlink:href="#ArialMT-49"/>
     <use x="111.230469" xlink:href="#ArialMT-57"/>
     <use x="166.845703" xlink:href="#ArialMT-55"/>
    </g>
   </g>
   <g id="text_108">
    <!-- 8393 -->
    <g style="fill:#ffffff;" transform="translate(367.771125 363.745156)scale(0.1 -0.1)">
     <use xlink:href="#ArialMT-56"/>
     <use x="55.615234" xlink:href="#ArialMT-51"/>
     <use x="111.230469" xlink:href="#ArialMT-57"/>
     <use x="166.845703" xlink:href="#ArialMT-51"/>
    </g>
   </g>
   <g id="text_109">
    <!-- 8448 -->
    <g style="fill:#ffffff;" transform="translate(440.765125 363.745156)scale(0.1 -0.1)">
     <use xlink:href="#ArialMT-56"/>
     <use x="55.615234" xlink:href="#ArialMT-52"/>
     <use x="111.230469" xlink:href="#ArialMT-52"/>
     <use x="166.845703" xlink:href="#ArialMT-56"/>
    </g>
   </g>
   <g id="text_110">
    <!-- 8470 -->
    <g style="fill:#ffffff;" transform="translate(513.759125 363.745156)scale(0.1 -0.1)">
     <use xlink:href="#ArialMT-56"/>
     <use x="55.615234" xlink:href="#ArialMT-52"/>
     <use x="111.230469" xlink:href="#ArialMT-55"/>
     <use x="166.845703" xlink:href="#ArialMT-48"/>
    </g>
   </g>
   <g id="text_111">
    <!-- 8478 -->
    <g style="fill:#ffffff;" transform="translate(586.753125 363.745156)scale(0.1 -0.1)">
     <use xlink:href="#ArialMT-56"/>
     <use x="55.615234" xlink:href="#ArialMT-52"/>
     <use x="111.230469" xlink:href="#ArialMT-55"/>
     <use x="166.845703" xlink:href="#ArialMT-56"/>
    </g>
   </g>
   <g id="text_112">
    <!-- 8482 -->
    <g style="fill:#ffffff;" transform="translate(659.747125 363.745156)scale(0.1 -0.1)">
     <use xlink:href="#ArialMT-56"/>
     <use x="55.615234" xlink:href="#ArialMT-52"/>
     <use x="111.230469" xlink:href="#ArialMT-56"/>
     <use x="166.845703" xlink:href="#ArialMT-50"/>
    </g>
   </g>
   <g id="text_113">
    <!-- 8483 -->
    <g style="fill:#ffffff;" transform="translate(732.741125 363.745156)scale(0.1 -0.1)">
     <use xlink:href="#ArialMT-56"/>
     <use x="55.615234" xlink:href="#ArialMT-52"/>
     <use x="111.230469" xlink:href="#ArialMT-56"/>
     <use x="166.845703" xlink:href="#ArialMT-51"/>
    </g>
   </g>
   <g id="text_114">
    <!-- 3834 -->
    <g style="fill:#ffffff;" transform="translate(75.795125 404.865156)scale(0.1 -0.1)">
     <use xlink:href="#ArialMT-51"/>
     <use x="55.615234" xlink:href="#ArialMT-56"/>
     <use x="111.230469" xlink:href="#ArialMT-51"/>
     <use x="166.845703" xlink:href="#ArialMT-52"/>
    </g>
   </g>
   <g id="text_115">
    <!-- 6489 -->
    <g style="fill:#ffffff;" transform="translate(148.789125 404.865156)scale(0.1 -0.1)">
     <use xlink:href="#ArialMT-54"/>
     <use x="55.615234" xlink:href="#ArialMT-52"/>
     <use x="111.230469" xlink:href="#ArialMT-56"/>
     <use x="166.845703" xlink:href="#ArialMT-57"/>
    </g>
   </g>
   <g id="text_116">
    <!-- 6921 -->
    <g style="fill:#ffffff;" transform="translate(221.783125 404.865156)scale(0.1 -0.1)">
     <use xlink:href="#ArialMT-54"/>
     <use x="55.615234" xlink:href="#ArialMT-57"/>
     <use x="111.230469" xlink:href="#ArialMT-50"/>
     <use x="166.845703" xlink:href="#ArialMT-49"/>
    </g>
   </g>
   <g id="text_117">
    <!-- 7056 -->
    <g style="fill:#ffffff;" transform="translate(294.777125 404.865156)scale(0.1 -0.1)">
     <use xlink:href="#ArialMT-55"/>
     <use x="55.615234" xlink:href="#ArialMT-48"/>
     <use x="111.230469" xlink:href="#ArialMT-53"/>
     <use x="166.845703" xlink:href="#ArialMT-54"/>
    </g>
   </g>
   <g id="text_118">
    <!-- 7113 -->
    <g style="fill:#ffffff;" transform="translate(367.776594 404.865156)scale(0.1 -0.1)">
     <use xlink:href="#ArialMT-55"/>
     <use x="55.615234" xlink:href="#ArialMT-49"/>
     <use x="111.121094" xlink:href="#ArialMT-49"/>
     <use x="166.736328" xlink:href="#ArialMT-51"/>
    </g>
   </g>
   <g id="text_119">
    <!-- 7120 -->
    <g style="fill:#ffffff;" transform="translate(440.765125 404.865156)scale(0.1 -0.1)">
     <use xlink:href="#ArialMT-55"/>
     <use x="55.615234" xlink:href="#ArialMT-49"/>
     <use x="111.230469" xlink:href="#ArialMT-50"/>
     <use x="166.845703" xlink:href="#ArialMT-48"/>
    </g>
   </g>
   <g id="text_120">
    <!-- 7124 -->
    <g style="fill:#ffffff;" transform="translate(513.759125 404.865156)scale(0.1 -0.1)">
     <use xlink:href="#ArialMT-55"/>
     <use x="55.615234" xlink:href="#ArialMT-49"/>
     <use x="111.230469" xlink:href="#ArialMT-50"/>
     <use x="166.845703" xlink:href="#ArialMT-52"/>
    </g>
   </g>
   <g id="text_121">
    <!-- 7124 -->
    <g style="fill:#ffffff;" transform="translate(586.753125 404.865156)scale(0.1 -0.1)">
     <use xlink:href="#ArialMT-55"/>
     <use x="55.615234" xlink:href="#ArialMT-49"/>
     <use x="111.230469" xlink:href="#ArialMT-50"/>
     <use x="166.845703" xlink:href="#ArialMT-52"/>
    </g>
   </g>
   <g id="text_122">
    <!-- 7124 -->
    <g style="fill:#ffffff;" transform="translate(659.747125 404.865156)scale(0.1 -0.1)">
     <use xlink:href="#ArialMT-55"/>
     <use x="55.615234" xlink:href="#ArialMT-49"/>
     <use x="111.230469" xlink:href="#ArialMT-50"/>
     <use x="166.845703" xlink:href="#ArialMT-52"/>
    </g>
   </g>
   <g id="text_123">
    <!-- 7124 -->
    <g style="fill:#ffffff;" transform="translate(732.741125 404.865156)scale(0.1 -0.1)">
     <use xlink:href="#ArialMT-55"/>
     <use x="55.615234" xlink:href="#ArialMT-49"/>
     <use x="111.230469" xlink:href="#ArialMT-50"/>
     <use x="166.845703" xlink:href="#ArialMT-52"/>
    </g>
   </g>
   <g id="text_124">
    <!-- 0 -->
    <g style="fill:#ffffff;" transform="translate(84.136531 445.985156)scale(0.1 -0.1)">
     <use xlink:href="#ArialMT-48"/>
    </g>
   </g>
   <g id="text_125">
    <!-- 0 -->
    <g style="fill:#ffffff;" transform="translate(157.130531 445.985156)scale(0.1 -0.1)">
     <use xlink:href="#ArialMT-48"/>
    </g>
   </g>
   <g id="text_126">
    <!-- 0 -->
    <g style="fill:#ffffff;" transform="translate(230.124531 445.985156)scale(0.1 -0.1)">
     <use xlink:href="#ArialMT-48"/>
    </g>
   </g>
   <g id="text_127">
    <!-- 0 -->
    <g style="fill:#ffffff;" transform="translate(303.118531 445.985156)scale(0.1 -0.1)">
     <use xlink:href="#ArialMT-48"/>
    </g>
   </g>
   <g id="text_128">
    <!-- 0 -->
    <g style="fill:#ffffff;" transform="translate(376.112531 445.985156)scale(0.1 -0.1)">
     <use xlink:href="#ArialMT-48"/>
    </g>
   </g>
   <g id="text_129">
    <!-- 0 -->
    <g style="fill:#ffffff;" transform="translate(449.106531 445.985156)scale(0.1 -0.1)">
     <use xlink:href="#ArialMT-48"/>
    </g>
   </g>
   <g id="text_130">
    <!-- 0 -->
    <g style="fill:#ffffff;" transform="translate(522.100531 445.985156)scale(0.1 -0.1)">
     <use xlink:href="#ArialMT-48"/>
    </g>
   </g>
   <g id="text_131">
    <!-- 0 -->
    <g style="fill:#ffffff;" transform="translate(595.094531 445.985156)scale(0.1 -0.1)">
     <use xlink:href="#ArialMT-48"/>
    </g>
   </g>
   <g id="text_132">
    <!-- 0 -->
    <g style="fill:#ffffff;" transform="translate(668.088531 445.985156)scale(0.1 -0.1)">
     <use xlink:href="#ArialMT-48"/>
    </g>
   </g>
   <g id="text_133">
    <!-- 0 -->
    <g style="fill:#ffffff;" transform="translate(741.082531 445.985156)scale(0.1 -0.1)">
     <use xlink:href="#ArialMT-48"/>
    </g>
   </g>
  </g>
 </g>
 <defs>
  <clipPath id="p44e92bd206">
   <rect height="452.32" width="729.94" x="50.42" y="11.64"/>
  </clipPath>
 </defs>
</svg>
