<?xml version="1.0" encoding="utf-8" standalone="no"?>
<!DOCTYPE svg PUBLIC "-//W3C//DTD SVG 1.1//EN"
  "http://www.w3.org/Graphics/SVG/1.1/DTD/svg11.dtd">
<!-- Created with matplotlib (https://matplotlib.org/) -->
<svg height="413.865937pt" version="1.1" viewBox="0 0 684.690391 413.865937" width="684.690391pt" xmlns="http://www.w3.org/2000/svg" xmlns:xlink="http://www.w3.org/1999/xlink">
 <defs>
  <style type="text/css">
*{stroke-linecap:butt;stroke-linejoin:round;}
  </style>
 </defs>
 <g id="figure_1">
  <g id="patch_1">
   <path d="M 0 413.865937 
L 684.690391 413.865937 
L 684.690391 0 
L 0 0 
z
" style="fill:#ffffff;"/>
  </g>
  <g id="axes_1">
   <g id="patch_2">
    <path d="M 47.045313 391.22 
L 660.845313 391.22 
L 660.845313 10.7 
L 47.045313 10.7 
z
" style="fill:#ffffff;"/>
   </g>
   <g id="matplotlib.axis_1">
    <g id="xtick_1">
     <g id="text_1">
      <!-- Study Sample -->
      <defs>
       <path d="M 4.5 23 
L 13.421875 23.78125 
Q 14.0625 18.40625 16.375 14.96875 
Q 18.703125 11.53125 23.578125 9.40625 
Q 28.46875 7.28125 34.578125 7.28125 
Q 39.984375 7.28125 44.140625 8.890625 
Q 48.296875 10.5 50.3125 13.296875 
Q 52.34375 16.109375 52.34375 19.4375 
Q 52.34375 22.796875 50.390625 25.3125 
Q 48.4375 27.828125 43.953125 29.546875 
Q 41.0625 30.671875 31.203125 33.03125 
Q 21.34375 35.40625 17.390625 37.5 
Q 12.25 40.1875 9.734375 44.15625 
Q 7.234375 48.140625 7.234375 53.078125 
Q 7.234375 58.5 10.296875 63.203125 
Q 13.375 67.921875 19.28125 70.359375 
Q 25.203125 72.796875 32.421875 72.796875 
Q 40.375 72.796875 46.453125 70.234375 
Q 52.546875 67.671875 55.8125 62.6875 
Q 59.078125 57.71875 59.328125 51.421875 
L 50.25 50.734375 
Q 49.515625 57.515625 45.28125 60.984375 
Q 41.0625 64.453125 32.8125 64.453125 
Q 24.21875 64.453125 20.28125 61.296875 
Q 16.359375 58.15625 16.359375 53.71875 
Q 16.359375 49.859375 19.140625 47.359375 
Q 21.875 44.875 33.421875 42.265625 
Q 44.96875 39.65625 49.265625 37.703125 
Q 55.515625 34.8125 58.484375 30.390625 
Q 61.46875 25.984375 61.46875 20.21875 
Q 61.46875 14.5 58.203125 9.4375 
Q 54.9375 4.390625 48.796875 1.578125 
Q 42.671875 -1.21875 35.015625 -1.21875 
Q 25.296875 -1.21875 18.71875 1.609375 
Q 12.15625 4.4375 8.421875 10.125 
Q 4.6875 15.828125 4.5 23 
z
" id="ArialMT-83"/>
       <path d="M 25.78125 7.859375 
L 27.046875 0.09375 
Q 23.34375 -0.6875 20.40625 -0.6875 
Q 15.625 -0.6875 12.984375 0.828125 
Q 10.359375 2.34375 9.28125 4.8125 
Q 8.203125 7.28125 8.203125 15.1875 
L 8.203125 45.015625 
L 1.765625 45.015625 
L 1.765625 51.859375 
L 8.203125 51.859375 
L 8.203125 64.703125 
L 16.9375 69.96875 
L 16.9375 51.859375 
L 25.78125 51.859375 
L 25.78125 45.015625 
L 16.9375 45.015625 
L 16.9375 14.703125 
Q 16.9375 10.9375 17.40625 9.859375 
Q 17.875 8.796875 18.921875 8.15625 
Q 19.96875 7.515625 21.921875 7.515625 
Q 23.390625 7.515625 25.78125 7.859375 
z
" id="ArialMT-116"/>
       <path d="M 40.578125 0 
L 40.578125 7.625 
Q 34.515625 -1.171875 24.125 -1.171875 
Q 19.53125 -1.171875 15.546875 0.578125 
Q 11.578125 2.34375 9.640625 5 
Q 7.71875 7.671875 6.9375 11.53125 
Q 6.390625 14.109375 6.390625 19.734375 
L 6.390625 51.859375 
L 15.1875 51.859375 
L 15.1875 23.09375 
Q 15.1875 16.21875 15.71875 13.8125 
Q 16.546875 10.359375 19.234375 8.375 
Q 21.921875 6.390625 25.875 6.390625 
Q 29.828125 6.390625 33.296875 8.421875 
Q 36.765625 10.453125 38.203125 13.9375 
Q 39.65625 17.4375 39.65625 24.078125 
L 39.65625 51.859375 
L 48.4375 51.859375 
L 48.4375 0 
z
" id="ArialMT-117"/>
       <path d="M 40.234375 0 
L 40.234375 6.546875 
Q 35.296875 -1.171875 25.734375 -1.171875 
Q 19.53125 -1.171875 14.328125 2.25 
Q 9.125 5.671875 6.265625 11.796875 
Q 3.421875 17.921875 3.421875 25.875 
Q 3.421875 33.640625 6 39.96875 
Q 8.59375 46.296875 13.765625 49.65625 
Q 18.953125 53.03125 25.34375 53.03125 
Q 30.03125 53.03125 33.6875 51.046875 
Q 37.359375 49.078125 39.65625 45.90625 
L 39.65625 71.578125 
L 48.390625 71.578125 
L 48.390625 0 
z
M 12.453125 25.875 
Q 12.453125 15.921875 16.640625 10.984375 
Q 20.84375 6.0625 26.5625 6.0625 
Q 32.328125 6.0625 36.34375 10.765625 
Q 40.375 15.484375 40.375 25.140625 
Q 40.375 35.796875 36.265625 40.765625 
Q 32.171875 45.75 26.171875 45.75 
Q 20.3125 45.75 16.375 40.96875 
Q 12.453125 36.1875 12.453125 25.875 
z
" id="ArialMT-100"/>
       <path d="M 6.203125 -19.96875 
L 5.21875 -11.71875 
Q 8.109375 -12.5 10.25 -12.5 
Q 13.1875 -12.5 14.9375 -11.515625 
Q 16.703125 -10.546875 17.828125 -8.796875 
Q 18.65625 -7.46875 20.515625 -2.25 
Q 20.75 -1.515625 21.296875 -0.09375 
L 1.609375 51.859375 
L 11.078125 51.859375 
L 21.875 21.828125 
Q 23.96875 16.109375 25.640625 9.8125 
Q 27.15625 15.875 29.25 21.625 
L 40.328125 51.859375 
L 49.125 51.859375 
L 29.390625 -0.875 
Q 26.21875 -9.421875 24.46875 -12.640625 
Q 22.125 -17 19.09375 -19.015625 
Q 16.0625 -21.046875 11.859375 -21.046875 
Q 9.328125 -21.046875 6.203125 -19.96875 
z
" id="ArialMT-121"/>
       <path id="ArialMT-32"/>
       <path d="M 40.4375 6.390625 
Q 35.546875 2.25 31.03125 0.53125 
Q 26.515625 -1.171875 21.34375 -1.171875 
Q 12.796875 -1.171875 8.203125 3 
Q 3.609375 7.171875 3.609375 13.671875 
Q 3.609375 17.484375 5.34375 20.625 
Q 7.078125 23.78125 9.890625 25.6875 
Q 12.703125 27.59375 16.21875 28.5625 
Q 18.796875 29.25 24.03125 29.890625 
Q 34.671875 31.15625 39.703125 32.90625 
Q 39.75 34.71875 39.75 35.203125 
Q 39.75 40.578125 37.25 42.78125 
Q 33.890625 45.75 27.25 45.75 
Q 21.046875 45.75 18.09375 43.578125 
Q 15.140625 41.40625 13.71875 35.890625 
L 5.125 37.0625 
Q 6.296875 42.578125 8.984375 45.96875 
Q 11.671875 49.359375 16.75 51.1875 
Q 21.828125 53.03125 28.515625 53.03125 
Q 35.15625 53.03125 39.296875 51.46875 
Q 43.453125 49.90625 45.40625 47.53125 
Q 47.359375 45.171875 48.140625 41.546875 
Q 48.578125 39.3125 48.578125 33.453125 
L 48.578125 21.734375 
Q 48.578125 9.46875 49.140625 6.21875 
Q 49.703125 2.984375 51.375 0 
L 42.1875 0 
Q 40.828125 2.734375 40.4375 6.390625 
z
M 39.703125 26.03125 
Q 34.90625 24.078125 25.34375 22.703125 
Q 19.921875 21.921875 17.671875 20.9375 
Q 15.4375 19.96875 14.203125 18.09375 
Q 12.984375 16.21875 12.984375 13.921875 
Q 12.984375 10.40625 15.640625 8.0625 
Q 18.3125 5.71875 23.4375 5.71875 
Q 28.515625 5.71875 32.46875 7.9375 
Q 36.421875 10.15625 38.28125 14.015625 
Q 39.703125 17 39.703125 22.796875 
z
" id="ArialMT-97"/>
       <path d="M 6.59375 0 
L 6.59375 51.859375 
L 14.453125 51.859375 
L 14.453125 44.578125 
Q 16.890625 48.390625 20.9375 50.703125 
Q 25 53.03125 30.171875 53.03125 
Q 35.9375 53.03125 39.625 50.640625 
Q 43.3125 48.25 44.828125 43.953125 
Q 50.984375 53.03125 60.84375 53.03125 
Q 68.5625 53.03125 72.703125 48.75 
Q 76.859375 44.484375 76.859375 35.59375 
L 76.859375 0 
L 68.109375 0 
L 68.109375 32.671875 
Q 68.109375 37.9375 67.25 40.25 
Q 66.40625 42.578125 64.15625 43.984375 
Q 61.921875 45.40625 58.890625 45.40625 
Q 53.421875 45.40625 49.796875 41.765625 
Q 46.1875 38.140625 46.1875 30.125 
L 46.1875 0 
L 37.40625 0 
L 37.40625 33.6875 
Q 37.40625 39.546875 35.25 42.46875 
Q 33.109375 45.40625 28.21875 45.40625 
Q 24.515625 45.40625 21.359375 43.453125 
Q 18.21875 41.5 16.796875 37.734375 
Q 15.375 33.984375 15.375 26.90625 
L 15.375 0 
z
" id="ArialMT-109"/>
       <path d="M 6.59375 -19.875 
L 6.59375 51.859375 
L 14.59375 51.859375 
L 14.59375 45.125 
Q 17.4375 49.078125 21 51.046875 
Q 24.5625 53.03125 29.640625 53.03125 
Q 36.28125 53.03125 41.359375 49.609375 
Q 46.4375 46.1875 49.015625 39.953125 
Q 51.609375 33.734375 51.609375 26.3125 
Q 51.609375 18.359375 48.75 11.984375 
Q 45.90625 5.609375 40.453125 2.21875 
Q 35.015625 -1.171875 29 -1.171875 
Q 24.609375 -1.171875 21.109375 0.6875 
Q 17.625 2.546875 15.375 5.375 
L 15.375 -19.875 
z
M 14.546875 25.640625 
Q 14.546875 15.625 18.59375 10.84375 
Q 22.65625 6.0625 28.421875 6.0625 
Q 34.28125 6.0625 38.453125 11.015625 
Q 42.625 15.96875 42.625 26.375 
Q 42.625 36.28125 38.546875 41.203125 
Q 34.46875 46.140625 28.8125 46.140625 
Q 23.1875 46.140625 18.859375 40.890625 
Q 14.546875 35.640625 14.546875 25.640625 
z
" id="ArialMT-112"/>
       <path d="M 6.390625 0 
L 6.390625 71.578125 
L 15.1875 71.578125 
L 15.1875 0 
z
" id="ArialMT-108"/>
       <path d="M 42.09375 16.703125 
L 51.171875 15.578125 
Q 49.03125 7.625 43.21875 3.21875 
Q 37.40625 -1.171875 28.375 -1.171875 
Q 17 -1.171875 10.328125 5.828125 
Q 3.65625 12.84375 3.65625 25.484375 
Q 3.65625 38.578125 10.390625 45.796875 
Q 17.140625 53.03125 27.875 53.03125 
Q 38.28125 53.03125 44.875 45.953125 
Q 51.46875 38.875 51.46875 26.03125 
Q 51.46875 25.25 51.421875 23.6875 
L 12.75 23.6875 
Q 13.234375 15.140625 17.578125 10.59375 
Q 21.921875 6.0625 28.421875 6.0625 
Q 33.25 6.0625 36.671875 8.59375 
Q 40.09375 11.140625 42.09375 16.703125 
z
M 13.234375 30.90625 
L 42.1875 30.90625 
Q 41.609375 37.453125 38.875 40.71875 
Q 34.671875 45.796875 27.984375 45.796875 
Q 21.921875 45.796875 17.796875 41.75 
Q 13.671875 37.703125 13.234375 30.90625 
z
" id="ArialMT-101"/>
      </defs>
      <g style="fill:#262626;" transform="translate(80.411406 404.771719)scale(0.09 -0.09)">
       <use xlink:href="#ArialMT-83"/>
       <use x="66.699219" xlink:href="#ArialMT-116"/>
       <use x="94.482422" xlink:href="#ArialMT-117"/>
       <use x="150.097656" xlink:href="#ArialMT-100"/>
       <use x="205.712891" xlink:href="#ArialMT-121"/>
       <use x="255.712891" xlink:href="#ArialMT-32"/>
       <use x="283.496094" xlink:href="#ArialMT-83"/>
       <use x="350.195312" xlink:href="#ArialMT-97"/>
       <use x="405.810547" xlink:href="#ArialMT-109"/>
       <use x="489.111328" xlink:href="#ArialMT-112"/>
       <use x="544.726562" xlink:href="#ArialMT-108"/>
       <use x="566.943359" xlink:href="#ArialMT-101"/>
      </g>
     </g>
    </g>
    <g id="xtick_2">
     <g id="text_2">
      <!-- Study Reference -->
      <defs>
       <path d="M 7.859375 0 
L 7.859375 71.578125 
L 39.59375 71.578125 
Q 49.171875 71.578125 54.140625 69.640625 
Q 59.125 67.71875 62.109375 62.828125 
Q 65.09375 57.953125 65.09375 52.046875 
Q 65.09375 44.4375 60.15625 39.203125 
Q 55.21875 33.984375 44.921875 32.5625 
Q 48.6875 30.765625 50.640625 29 
Q 54.78125 25.203125 58.5 19.484375 
L 70.953125 0 
L 59.03125 0 
L 49.5625 14.890625 
Q 45.40625 21.34375 42.71875 24.75 
Q 40.046875 28.171875 37.921875 29.53125 
Q 35.796875 30.90625 33.59375 31.453125 
Q 31.984375 31.78125 28.328125 31.78125 
L 17.328125 31.78125 
L 17.328125 0 
z
M 17.328125 39.984375 
L 37.703125 39.984375 
Q 44.1875 39.984375 47.84375 41.328125 
Q 51.515625 42.671875 53.421875 45.625 
Q 55.328125 48.578125 55.328125 52.046875 
Q 55.328125 57.125 51.640625 60.390625 
Q 47.953125 63.671875 39.984375 63.671875 
L 17.328125 63.671875 
z
" id="ArialMT-82"/>
       <path d="M 8.6875 0 
L 8.6875 45.015625 
L 0.921875 45.015625 
L 0.921875 51.859375 
L 8.6875 51.859375 
L 8.6875 57.375 
Q 8.6875 62.59375 9.625 65.140625 
Q 10.890625 68.5625 14.078125 70.671875 
Q 17.28125 72.796875 23.046875 72.796875 
Q 26.765625 72.796875 31.25 71.921875 
L 29.9375 64.265625 
Q 27.203125 64.75 24.75 64.75 
Q 20.75 64.75 19.09375 63.03125 
Q 17.4375 61.328125 17.4375 56.640625 
L 17.4375 51.859375 
L 27.546875 51.859375 
L 27.546875 45.015625 
L 17.4375 45.015625 
L 17.4375 0 
z
" id="ArialMT-102"/>
       <path d="M 6.5 0 
L 6.5 51.859375 
L 14.40625 51.859375 
L 14.40625 44 
Q 17.4375 49.515625 20 51.265625 
Q 22.5625 53.03125 25.640625 53.03125 
Q 30.078125 53.03125 34.671875 50.203125 
L 31.640625 42.046875 
Q 28.421875 43.953125 25.203125 43.953125 
Q 22.3125 43.953125 20.015625 42.21875 
Q 17.71875 40.484375 16.75 37.40625 
Q 15.28125 32.71875 15.28125 27.15625 
L 15.28125 0 
z
" id="ArialMT-114"/>
       <path d="M 6.59375 0 
L 6.59375 51.859375 
L 14.5 51.859375 
L 14.5 44.484375 
Q 20.21875 53.03125 31 53.03125 
Q 35.6875 53.03125 39.625 51.34375 
Q 43.5625 49.65625 45.515625 46.921875 
Q 47.46875 44.1875 48.25 40.4375 
Q 48.734375 37.984375 48.734375 31.890625 
L 48.734375 0 
L 39.9375 0 
L 39.9375 31.546875 
Q 39.9375 36.921875 38.90625 39.578125 
Q 37.890625 42.234375 35.28125 43.8125 
Q 32.671875 45.40625 29.15625 45.40625 
Q 23.53125 45.40625 19.453125 41.84375 
Q 15.375 38.28125 15.375 28.328125 
L 15.375 0 
z
" id="ArialMT-110"/>
       <path d="M 40.4375 19 
L 49.078125 17.875 
Q 47.65625 8.9375 41.8125 3.875 
Q 35.984375 -1.171875 27.484375 -1.171875 
Q 16.84375 -1.171875 10.375 5.78125 
Q 3.90625 12.75 3.90625 25.734375 
Q 3.90625 34.125 6.6875 40.421875 
Q 9.46875 46.734375 15.15625 49.875 
Q 20.84375 53.03125 27.546875 53.03125 
Q 35.984375 53.03125 41.359375 48.75 
Q 46.734375 44.484375 48.25 36.625 
L 39.703125 35.296875 
Q 38.484375 40.53125 35.375 43.15625 
Q 32.28125 45.796875 27.875 45.796875 
Q 21.234375 45.796875 17.078125 41.03125 
Q 12.9375 36.28125 12.9375 25.984375 
Q 12.9375 15.53125 16.9375 10.796875 
Q 20.953125 6.0625 27.390625 6.0625 
Q 32.5625 6.0625 36.03125 9.234375 
Q 39.5 12.40625 40.4375 19 
z
" id="ArialMT-99"/>
      </defs>
      <g style="fill:#262626;" transform="translate(197.668047 404.771719)scale(0.09 -0.09)">
       <use xlink:href="#ArialMT-83"/>
       <use x="66.699219" xlink:href="#ArialMT-116"/>
       <use x="94.482422" xlink:href="#ArialMT-117"/>
       <use x="150.097656" xlink:href="#ArialMT-100"/>
       <use x="205.712891" xlink:href="#ArialMT-121"/>
       <use x="255.712891" xlink:href="#ArialMT-32"/>
       <use x="283.496094" xlink:href="#ArialMT-82"/>
       <use x="355.712891" xlink:href="#ArialMT-101"/>
       <use x="411.328125" xlink:href="#ArialMT-102"/>
       <use x="439.111328" xlink:href="#ArialMT-101"/>
       <use x="494.726562" xlink:href="#ArialMT-114"/>
       <use x="528.027344" xlink:href="#ArialMT-101"/>
       <use x="583.642578" xlink:href="#ArialMT-110"/>
       <use x="639.257812" xlink:href="#ArialMT-99"/>
       <use x="689.257812" xlink:href="#ArialMT-101"/>
      </g>
     </g>
    </g>
    <g id="xtick_3">
     <g id="text_3">
      <!-- Long-Term Reference -->
      <defs>
       <path d="M 7.328125 0 
L 7.328125 71.578125 
L 16.796875 71.578125 
L 16.796875 8.453125 
L 52.046875 8.453125 
L 52.046875 0 
z
" id="ArialMT-76"/>
       <path d="M 3.328125 25.921875 
Q 3.328125 40.328125 11.328125 47.265625 
Q 18.015625 53.03125 27.640625 53.03125 
Q 38.328125 53.03125 45.109375 46.015625 
Q 51.90625 39.015625 51.90625 26.65625 
Q 51.90625 16.65625 48.90625 10.90625 
Q 45.90625 5.171875 40.15625 2 
Q 34.421875 -1.171875 27.640625 -1.171875 
Q 16.75 -1.171875 10.03125 5.8125 
Q 3.328125 12.796875 3.328125 25.921875 
z
M 12.359375 25.921875 
Q 12.359375 15.96875 16.703125 11.015625 
Q 21.046875 6.0625 27.640625 6.0625 
Q 34.1875 6.0625 38.53125 11.03125 
Q 42.875 16.015625 42.875 26.21875 
Q 42.875 35.84375 38.5 40.796875 
Q 34.125 45.75 27.640625 45.75 
Q 21.046875 45.75 16.703125 40.8125 
Q 12.359375 35.890625 12.359375 25.921875 
z
" id="ArialMT-111"/>
       <path d="M 4.984375 -4.296875 
L 13.53125 -5.5625 
Q 14.0625 -9.515625 16.5 -11.328125 
Q 19.78125 -13.765625 25.4375 -13.765625 
Q 31.546875 -13.765625 34.859375 -11.328125 
Q 38.1875 -8.890625 39.359375 -4.5 
Q 40.046875 -1.8125 39.984375 6.78125 
Q 34.234375 0 25.640625 0 
Q 14.9375 0 9.078125 7.71875 
Q 3.21875 15.4375 3.21875 26.21875 
Q 3.21875 33.640625 5.90625 39.90625 
Q 8.59375 46.1875 13.6875 49.609375 
Q 18.796875 53.03125 25.6875 53.03125 
Q 34.859375 53.03125 40.828125 45.609375 
L 40.828125 51.859375 
L 48.921875 51.859375 
L 48.921875 7.03125 
Q 48.921875 -5.078125 46.453125 -10.125 
Q 44 -15.1875 38.640625 -18.109375 
Q 33.296875 -21.046875 25.484375 -21.046875 
Q 16.21875 -21.046875 10.5 -16.875 
Q 4.78125 -12.703125 4.984375 -4.296875 
z
M 12.25 26.859375 
Q 12.25 16.65625 16.296875 11.96875 
Q 20.359375 7.28125 26.46875 7.28125 
Q 32.515625 7.28125 36.609375 11.9375 
Q 40.71875 16.609375 40.71875 26.5625 
Q 40.71875 36.078125 36.5 40.90625 
Q 32.28125 45.75 26.3125 45.75 
Q 20.453125 45.75 16.34375 40.984375 
Q 12.25 36.234375 12.25 26.859375 
z
" id="ArialMT-103"/>
       <path d="M 3.171875 21.484375 
L 3.171875 30.328125 
L 30.171875 30.328125 
L 30.171875 21.484375 
z
" id="ArialMT-45"/>
       <path d="M 25.921875 0 
L 25.921875 63.140625 
L 2.34375 63.140625 
L 2.34375 71.578125 
L 59.078125 71.578125 
L 59.078125 63.140625 
L 35.40625 63.140625 
L 35.40625 0 
z
" id="ArialMT-84"/>
      </defs>
      <g style="fill:#262626;" transform="translate(309.936719 404.771719)scale(0.09 -0.09)">
       <use xlink:href="#ArialMT-76"/>
       <use x="55.615234" xlink:href="#ArialMT-111"/>
       <use x="111.230469" xlink:href="#ArialMT-110"/>
       <use x="166.845703" xlink:href="#ArialMT-103"/>
       <use x="222.460938" xlink:href="#ArialMT-45"/>
       <use x="255.761719" xlink:href="#ArialMT-84"/>
       <use x="316.673828" xlink:href="#ArialMT-101"/>
       <use x="372.289062" xlink:href="#ArialMT-114"/>
       <use x="405.589844" xlink:href="#ArialMT-109"/>
       <use x="488.890625" xlink:href="#ArialMT-32"/>
       <use x="516.673828" xlink:href="#ArialMT-82"/>
       <use x="588.890625" xlink:href="#ArialMT-101"/>
       <use x="644.505859" xlink:href="#ArialMT-102"/>
       <use x="672.289062" xlink:href="#ArialMT-101"/>
       <use x="727.904297" xlink:href="#ArialMT-114"/>
       <use x="761.205078" xlink:href="#ArialMT-101"/>
       <use x="816.820312" xlink:href="#ArialMT-110"/>
       <use x="872.435547" xlink:href="#ArialMT-99"/>
       <use x="922.435547" xlink:href="#ArialMT-101"/>
      </g>
     </g>
    </g>
    <g id="xtick_4">
     <g id="text_4">
      <!-- Blank -->
      <defs>
       <path d="M 7.328125 0 
L 7.328125 71.578125 
L 34.1875 71.578125 
Q 42.390625 71.578125 47.34375 69.40625 
Q 52.296875 67.234375 55.09375 62.71875 
Q 57.90625 58.203125 57.90625 53.265625 
Q 57.90625 48.6875 55.421875 44.625 
Q 52.9375 40.578125 47.90625 38.09375 
Q 54.390625 36.1875 57.875 31.59375 
Q 61.375 27 61.375 20.75 
Q 61.375 15.71875 59.25 11.390625 
Q 57.125 7.078125 54 4.734375 
Q 50.875 2.390625 46.15625 1.1875 
Q 41.453125 0 34.625 0 
z
M 16.796875 41.5 
L 32.28125 41.5 
Q 38.578125 41.5 41.3125 42.328125 
Q 44.921875 43.40625 46.75 45.890625 
Q 48.578125 48.390625 48.578125 52.15625 
Q 48.578125 55.71875 46.875 58.421875 
Q 45.171875 61.140625 41.984375 62.140625 
Q 38.8125 63.140625 31.109375 63.140625 
L 16.796875 63.140625 
z
M 16.796875 8.453125 
L 34.625 8.453125 
Q 39.203125 8.453125 41.0625 8.796875 
Q 44.34375 9.375 46.53125 10.734375 
Q 48.734375 12.109375 50.140625 14.71875 
Q 51.5625 17.328125 51.5625 20.75 
Q 51.5625 24.75 49.515625 27.703125 
Q 47.46875 30.671875 43.828125 31.859375 
Q 40.1875 33.0625 33.34375 33.0625 
L 16.796875 33.0625 
z
" id="ArialMT-66"/>
       <path d="M 6.640625 0 
L 6.640625 71.578125 
L 15.4375 71.578125 
L 15.4375 30.765625 
L 36.234375 51.859375 
L 47.609375 51.859375 
L 27.78125 32.625 
L 49.609375 0 
L 38.765625 0 
L 21.625 26.515625 
L 15.4375 20.5625 
L 15.4375 0 
z
" id="ArialMT-107"/>
      </defs>
      <g style="fill:#262626;" transform="translate(465.448984 404.662031)scale(0.09 -0.09)">
       <use xlink:href="#ArialMT-66"/>
       <use x="66.699219" xlink:href="#ArialMT-108"/>
       <use x="88.916016" xlink:href="#ArialMT-97"/>
       <use x="144.53125" xlink:href="#ArialMT-110"/>
       <use x="200.146484" xlink:href="#ArialMT-107"/>
      </g>
     </g>
    </g>
    <g id="xtick_5">
     <g id="text_5">
      <!-- Unspecified SampleType or AssayRole -->
      <defs>
       <path d="M 54.6875 71.578125 
L 64.15625 71.578125 
L 64.15625 30.21875 
Q 64.15625 19.4375 61.71875 13.078125 
Q 59.28125 6.734375 52.90625 2.75 
Q 46.53125 -1.21875 36.1875 -1.21875 
Q 26.125 -1.21875 19.71875 2.25 
Q 13.328125 5.71875 10.59375 12.28125 
Q 7.859375 18.84375 7.859375 30.21875 
L 7.859375 71.578125 
L 17.328125 71.578125 
L 17.328125 30.28125 
Q 17.328125 20.953125 19.0625 16.53125 
Q 20.796875 12.109375 25.015625 9.71875 
Q 29.25 7.328125 35.359375 7.328125 
Q 45.796875 7.328125 50.234375 12.0625 
Q 54.6875 16.796875 54.6875 30.28125 
z
" id="ArialMT-85"/>
       <path d="M 3.078125 15.484375 
L 11.765625 16.84375 
Q 12.5 11.625 15.84375 8.84375 
Q 19.1875 6.0625 25.203125 6.0625 
Q 31.25 6.0625 34.171875 8.515625 
Q 37.109375 10.984375 37.109375 14.3125 
Q 37.109375 17.28125 34.515625 19 
Q 32.71875 20.171875 25.53125 21.96875 
Q 15.875 24.421875 12.140625 26.203125 
Q 8.40625 27.984375 6.46875 31.125 
Q 4.546875 34.28125 4.546875 38.09375 
Q 4.546875 41.546875 6.125 44.5 
Q 7.71875 47.46875 10.453125 49.421875 
Q 12.5 50.921875 16.03125 51.96875 
Q 19.578125 53.03125 23.640625 53.03125 
Q 29.734375 53.03125 34.34375 51.265625 
Q 38.96875 49.515625 41.15625 46.5 
Q 43.359375 43.5 44.1875 38.484375 
L 35.59375 37.3125 
Q 35.015625 41.3125 32.203125 43.546875 
Q 29.390625 45.796875 24.265625 45.796875 
Q 18.21875 45.796875 15.625 43.796875 
Q 13.03125 41.796875 13.03125 39.109375 
Q 13.03125 37.40625 14.109375 36.03125 
Q 15.1875 34.625 17.484375 33.6875 
Q 18.796875 33.203125 25.25 31.453125 
Q 34.578125 28.953125 38.25 27.359375 
Q 41.9375 25.78125 44.03125 22.75 
Q 46.140625 19.734375 46.140625 15.234375 
Q 46.140625 10.84375 43.578125 6.953125 
Q 41.015625 3.078125 36.171875 0.953125 
Q 31.34375 -1.171875 25.25 -1.171875 
Q 15.140625 -1.171875 9.84375 3.03125 
Q 4.546875 7.234375 3.078125 15.484375 
z
" id="ArialMT-115"/>
       <path d="M 6.640625 61.46875 
L 6.640625 71.578125 
L 15.4375 71.578125 
L 15.4375 61.46875 
z
M 6.640625 0 
L 6.640625 51.859375 
L 15.4375 51.859375 
L 15.4375 0 
z
" id="ArialMT-105"/>
       <path d="M -0.140625 0 
L 27.34375 71.578125 
L 37.546875 71.578125 
L 66.84375 0 
L 56.0625 0 
L 47.703125 21.6875 
L 17.78125 21.6875 
L 9.90625 0 
z
M 20.515625 29.390625 
L 44.78125 29.390625 
L 37.3125 49.21875 
Q 33.890625 58.25 32.234375 64.0625 
Q 30.859375 57.171875 28.375 50.390625 
z
" id="ArialMT-65"/>
      </defs>
      <g style="fill:#262626;" transform="translate(521.440234 404.771719)scale(0.09 -0.09)">
       <use xlink:href="#ArialMT-85"/>
       <use x="72.216797" xlink:href="#ArialMT-110"/>
       <use x="127.832031" xlink:href="#ArialMT-115"/>
       <use x="177.832031" xlink:href="#ArialMT-112"/>
       <use x="233.447266" xlink:href="#ArialMT-101"/>
       <use x="289.0625" xlink:href="#ArialMT-99"/>
       <use x="339.0625" xlink:href="#ArialMT-105"/>
       <use x="361.279297" xlink:href="#ArialMT-102"/>
       <use x="389.0625" xlink:href="#ArialMT-105"/>
       <use x="411.279297" xlink:href="#ArialMT-101"/>
       <use x="466.894531" xlink:href="#ArialMT-100"/>
       <use x="522.509766" xlink:href="#ArialMT-32"/>
       <use x="550.292969" xlink:href="#ArialMT-83"/>
       <use x="616.992188" xlink:href="#ArialMT-97"/>
       <use x="672.607422" xlink:href="#ArialMT-109"/>
       <use x="755.908203" xlink:href="#ArialMT-112"/>
       <use x="811.523438" xlink:href="#ArialMT-108"/>
       <use x="833.740234" xlink:href="#ArialMT-101"/>
       <use x="889.355469" xlink:href="#ArialMT-84"/>
       <use x="950.361328" xlink:href="#ArialMT-121"/>
       <use x="1000.361328" xlink:href="#ArialMT-112"/>
       <use x="1055.976562" xlink:href="#ArialMT-101"/>
       <use x="1111.591797" xlink:href="#ArialMT-32"/>
       <use x="1139.375" xlink:href="#ArialMT-111"/>
       <use x="1194.990234" xlink:href="#ArialMT-114"/>
       <use x="1228.291016" xlink:href="#ArialMT-32"/>
       <use x="1255.996094" xlink:href="#ArialMT-65"/>
       <use x="1322.695312" xlink:href="#ArialMT-115"/>
       <use x="1372.695312" xlink:href="#ArialMT-115"/>
       <use x="1422.695312" xlink:href="#ArialMT-97"/>
       <use x="1478.310547" xlink:href="#ArialMT-121"/>
       <use x="1528.310547" xlink:href="#ArialMT-82"/>
       <use x="1600.527344" xlink:href="#ArialMT-111"/>
       <use x="1656.142578" xlink:href="#ArialMT-108"/>
       <use x="1678.359375" xlink:href="#ArialMT-101"/>
      </g>
     </g>
    </g>
   </g>
   <g id="matplotlib.axis_2">
    <g id="ytick_1">
     <g id="line2d_1">
      <path clip-path="url(#pf4c44dc0d0)" d="M 47.045313 354.974732 
L 660.845313 354.974732 
" style="fill:none;stroke:#cccccc;stroke-linecap:round;stroke-width:0.8;"/>
     </g>
     <g id="text_6">
      <!-- 0.65 -->
      <defs>
       <path d="M 4.15625 35.296875 
Q 4.15625 48 6.765625 55.734375 
Q 9.375 63.484375 14.515625 67.671875 
Q 19.671875 71.875 27.484375 71.875 
Q 33.25 71.875 37.59375 69.546875 
Q 41.9375 67.234375 44.765625 62.859375 
Q 47.609375 58.5 49.21875 52.21875 
Q 50.828125 45.953125 50.828125 35.296875 
Q 50.828125 22.703125 48.234375 14.96875 
Q 45.65625 7.234375 40.5 3 
Q 35.359375 -1.21875 27.484375 -1.21875 
Q 17.140625 -1.21875 11.234375 6.203125 
Q 4.15625 15.140625 4.15625 35.296875 
z
M 13.1875 35.296875 
Q 13.1875 17.671875 17.3125 11.828125 
Q 21.4375 6 27.484375 6 
Q 33.546875 6 37.671875 11.859375 
Q 41.796875 17.71875 41.796875 35.296875 
Q 41.796875 52.984375 37.671875 58.78125 
Q 33.546875 64.59375 27.390625 64.59375 
Q 21.34375 64.59375 17.71875 59.46875 
Q 13.1875 52.9375 13.1875 35.296875 
z
" id="ArialMT-48"/>
       <path d="M 9.078125 0 
L 9.078125 10.015625 
L 19.09375 10.015625 
L 19.09375 0 
z
" id="ArialMT-46"/>
       <path d="M 49.75 54.046875 
L 41.015625 53.375 
Q 39.84375 58.546875 37.703125 60.890625 
Q 34.125 64.65625 28.90625 64.65625 
Q 24.703125 64.65625 21.53125 62.3125 
Q 17.390625 59.28125 14.984375 53.46875 
Q 12.59375 47.65625 12.5 36.921875 
Q 15.671875 41.75 20.265625 44.09375 
Q 24.859375 46.4375 29.890625 46.4375 
Q 38.671875 46.4375 44.84375 39.96875 
Q 51.03125 33.5 51.03125 23.25 
Q 51.03125 16.5 48.125 10.71875 
Q 45.21875 4.9375 40.140625 1.859375 
Q 35.0625 -1.21875 28.609375 -1.21875 
Q 17.625 -1.21875 10.6875 6.859375 
Q 3.765625 14.9375 3.765625 33.5 
Q 3.765625 54.25 11.421875 63.671875 
Q 18.109375 71.875 29.4375 71.875 
Q 37.890625 71.875 43.28125 67.140625 
Q 48.6875 62.40625 49.75 54.046875 
z
M 13.875 23.1875 
Q 13.875 18.65625 15.796875 14.5 
Q 17.71875 10.359375 21.1875 8.171875 
Q 24.65625 6 28.46875 6 
Q 34.03125 6 38.03125 10.484375 
Q 42.046875 14.984375 42.046875 22.703125 
Q 42.046875 30.125 38.078125 34.390625 
Q 34.125 38.671875 28.125 38.671875 
Q 22.171875 38.671875 18.015625 34.390625 
Q 13.875 30.125 13.875 23.1875 
z
" id="ArialMT-54"/>
       <path d="M 4.15625 18.75 
L 13.375 19.53125 
Q 14.40625 12.796875 18.140625 9.390625 
Q 21.875 6 27.15625 6 
Q 33.5 6 37.890625 10.78125 
Q 42.28125 15.578125 42.28125 23.484375 
Q 42.28125 31 38.0625 35.34375 
Q 33.84375 39.703125 27 39.703125 
Q 22.75 39.703125 19.328125 37.765625 
Q 15.921875 35.84375 13.96875 32.765625 
L 5.71875 33.84375 
L 12.640625 70.609375 
L 48.25 70.609375 
L 48.25 62.203125 
L 19.671875 62.203125 
L 15.828125 42.96875 
Q 22.265625 47.46875 29.34375 47.46875 
Q 38.71875 47.46875 45.15625 40.96875 
Q 51.609375 34.46875 51.609375 24.265625 
Q 51.609375 14.546875 45.953125 7.46875 
Q 39.0625 -1.21875 27.15625 -1.21875 
Q 17.390625 -1.21875 11.203125 4.25 
Q 5.03125 9.71875 4.15625 18.75 
z
" id="ArialMT-53"/>
      </defs>
      <g style="fill:#262626;" transform="translate(20.584375 358.553638)scale(0.1 -0.1)">
       <use xlink:href="#ArialMT-48"/>
       <use x="55.615234" xlink:href="#ArialMT-46"/>
       <use x="83.398438" xlink:href="#ArialMT-54"/>
       <use x="139.013672" xlink:href="#ArialMT-53"/>
      </g>
     </g>
    </g>
    <g id="ytick_2">
     <g id="line2d_2">
      <path clip-path="url(#pf4c44dc0d0)" d="M 47.045313 295.162051 
L 660.845313 295.162051 
" style="fill:none;stroke:#cccccc;stroke-linecap:round;stroke-width:0.8;"/>
     </g>
     <g id="text_7">
      <!-- 0.70 -->
      <defs>
       <path d="M 4.734375 62.203125 
L 4.734375 70.65625 
L 51.078125 70.65625 
L 51.078125 63.8125 
Q 44.234375 56.546875 37.515625 44.484375 
Q 30.8125 32.421875 27.15625 19.671875 
Q 24.515625 10.6875 23.78125 0 
L 14.75 0 
Q 14.890625 8.453125 18.0625 20.40625 
Q 21.234375 32.375 27.171875 43.484375 
Q 33.109375 54.59375 39.796875 62.203125 
z
" id="ArialMT-55"/>
      </defs>
      <g style="fill:#262626;" transform="translate(20.584375 298.740957)scale(0.1 -0.1)">
       <use xlink:href="#ArialMT-48"/>
       <use x="55.615234" xlink:href="#ArialMT-46"/>
       <use x="83.398438" xlink:href="#ArialMT-55"/>
       <use x="139.013672" xlink:href="#ArialMT-48"/>
      </g>
     </g>
    </g>
    <g id="ytick_3">
     <g id="line2d_3">
      <path clip-path="url(#pf4c44dc0d0)" d="M 47.045313 235.34937 
L 660.845313 235.34937 
" style="fill:none;stroke:#cccccc;stroke-linecap:round;stroke-width:0.8;"/>
     </g>
     <g id="text_8">
      <!-- 0.75 -->
      <g style="fill:#262626;" transform="translate(20.584375 238.928276)scale(0.1 -0.1)">
       <use xlink:href="#ArialMT-48"/>
       <use x="55.615234" xlink:href="#ArialMT-46"/>
       <use x="83.398438" xlink:href="#ArialMT-55"/>
       <use x="139.013672" xlink:href="#ArialMT-53"/>
      </g>
     </g>
    </g>
    <g id="ytick_4">
     <g id="line2d_4">
      <path clip-path="url(#pf4c44dc0d0)" d="M 47.045313 175.536689 
L 660.845313 175.536689 
" style="fill:none;stroke:#cccccc;stroke-linecap:round;stroke-width:0.8;"/>
     </g>
     <g id="text_9">
      <!-- 0.80 -->
      <defs>
       <path d="M 17.671875 38.8125 
Q 12.203125 40.828125 9.5625 44.53125 
Q 6.9375 48.25 6.9375 53.421875 
Q 6.9375 61.234375 12.546875 66.546875 
Q 18.171875 71.875 27.484375 71.875 
Q 36.859375 71.875 42.578125 66.421875 
Q 48.296875 60.984375 48.296875 53.171875 
Q 48.296875 48.1875 45.671875 44.5 
Q 43.0625 40.828125 37.75 38.8125 
Q 44.34375 36.671875 47.78125 31.875 
Q 51.21875 27.09375 51.21875 20.453125 
Q 51.21875 11.28125 44.71875 5.03125 
Q 38.234375 -1.21875 27.640625 -1.21875 
Q 17.046875 -1.21875 10.546875 5.046875 
Q 4.046875 11.328125 4.046875 20.703125 
Q 4.046875 27.6875 7.59375 32.390625 
Q 11.140625 37.109375 17.671875 38.8125 
z
M 15.921875 53.71875 
Q 15.921875 48.640625 19.1875 45.40625 
Q 22.46875 42.1875 27.6875 42.1875 
Q 32.765625 42.1875 36.015625 45.375 
Q 39.265625 48.578125 39.265625 53.21875 
Q 39.265625 58.0625 35.90625 61.359375 
Q 32.5625 64.65625 27.59375 64.65625 
Q 22.5625 64.65625 19.234375 61.421875 
Q 15.921875 58.203125 15.921875 53.71875 
z
M 13.09375 20.65625 
Q 13.09375 16.890625 14.875 13.375 
Q 16.65625 9.859375 20.171875 7.921875 
Q 23.6875 6 27.734375 6 
Q 34.03125 6 38.125 10.046875 
Q 42.234375 14.109375 42.234375 20.359375 
Q 42.234375 26.703125 38.015625 30.859375 
Q 33.796875 35.015625 27.4375 35.015625 
Q 21.234375 35.015625 17.15625 30.90625 
Q 13.09375 26.8125 13.09375 20.65625 
z
" id="ArialMT-56"/>
      </defs>
      <g style="fill:#262626;" transform="translate(20.584375 179.115595)scale(0.1 -0.1)">
       <use xlink:href="#ArialMT-48"/>
       <use x="55.615234" xlink:href="#ArialMT-46"/>
       <use x="83.398438" xlink:href="#ArialMT-56"/>
       <use x="139.013672" xlink:href="#ArialMT-48"/>
      </g>
     </g>
    </g>
    <g id="ytick_5">
     <g id="line2d_5">
      <path clip-path="url(#pf4c44dc0d0)" d="M 47.045313 115.724008 
L 660.845313 115.724008 
" style="fill:none;stroke:#cccccc;stroke-linecap:round;stroke-width:0.8;"/>
     </g>
     <g id="text_10">
      <!-- 0.85 -->
      <g style="fill:#262626;" transform="translate(20.584375 119.302914)scale(0.1 -0.1)">
       <use xlink:href="#ArialMT-48"/>
       <use x="55.615234" xlink:href="#ArialMT-46"/>
       <use x="83.398438" xlink:href="#ArialMT-56"/>
       <use x="139.013672" xlink:href="#ArialMT-53"/>
      </g>
     </g>
    </g>
    <g id="ytick_6">
     <g id="line2d_6">
      <path clip-path="url(#pf4c44dc0d0)" d="M 47.045313 55.911327 
L 660.845313 55.911327 
" style="fill:none;stroke:#cccccc;stroke-linecap:round;stroke-width:0.8;"/>
     </g>
     <g id="text_11">
      <!-- 0.90 -->
      <defs>
       <path d="M 5.46875 16.546875 
L 13.921875 17.328125 
Q 14.984375 11.375 18.015625 8.6875 
Q 21.046875 6 25.78125 6 
Q 29.828125 6 32.875 7.859375 
Q 35.9375 9.71875 37.890625 12.8125 
Q 39.84375 15.921875 41.15625 21.1875 
Q 42.484375 26.46875 42.484375 31.9375 
Q 42.484375 32.515625 42.4375 33.6875 
Q 39.796875 29.5 35.234375 26.875 
Q 30.671875 24.265625 25.34375 24.265625 
Q 16.453125 24.265625 10.296875 30.703125 
Q 4.15625 37.15625 4.15625 47.703125 
Q 4.15625 58.59375 10.578125 65.234375 
Q 17 71.875 26.65625 71.875 
Q 33.640625 71.875 39.421875 68.109375 
Q 45.21875 64.359375 48.21875 57.390625 
Q 51.21875 50.4375 51.21875 37.25 
Q 51.21875 23.53125 48.234375 15.40625 
Q 45.265625 7.28125 39.375 3.03125 
Q 33.5 -1.21875 25.59375 -1.21875 
Q 17.1875 -1.21875 11.859375 3.4375 
Q 6.546875 8.109375 5.46875 16.546875 
z
M 41.453125 48.140625 
Q 41.453125 55.71875 37.421875 60.15625 
Q 33.40625 64.59375 27.734375 64.59375 
Q 21.875 64.59375 17.53125 59.8125 
Q 13.1875 55.03125 13.1875 47.40625 
Q 13.1875 40.578125 17.3125 36.296875 
Q 21.4375 32.03125 27.484375 32.03125 
Q 33.59375 32.03125 37.515625 36.296875 
Q 41.453125 40.578125 41.453125 48.140625 
z
" id="ArialMT-57"/>
      </defs>
      <g style="fill:#262626;" transform="translate(20.584375 59.490233)scale(0.1 -0.1)">
       <use xlink:href="#ArialMT-48"/>
       <use x="55.615234" xlink:href="#ArialMT-46"/>
       <use x="83.398438" xlink:href="#ArialMT-57"/>
       <use x="139.013672" xlink:href="#ArialMT-48"/>
      </g>
     </g>
    </g>
    <g id="text_12">
     <!-- Line width (Hz) -->
     <defs>
      <path d="M 16.15625 0 
L 0.296875 51.859375 
L 9.375 51.859375 
L 17.625 21.921875 
L 20.703125 10.796875 
Q 20.90625 11.625 23.390625 21.484375 
L 31.640625 51.859375 
L 40.671875 51.859375 
L 48.4375 21.78125 
L 51.03125 11.859375 
L 54 21.875 
L 62.890625 51.859375 
L 71.4375 51.859375 
L 55.21875 0 
L 46.09375 0 
L 37.84375 31.0625 
L 35.84375 39.890625 
L 25.34375 0 
z
" id="ArialMT-119"/>
      <path d="M 6.59375 0 
L 6.59375 71.578125 
L 15.375 71.578125 
L 15.375 45.90625 
Q 21.53125 53.03125 30.90625 53.03125 
Q 36.671875 53.03125 40.921875 50.75 
Q 45.171875 48.484375 47 44.484375 
Q 48.828125 40.484375 48.828125 32.859375 
L 48.828125 0 
L 40.046875 0 
L 40.046875 32.859375 
Q 40.046875 39.453125 37.1875 42.453125 
Q 34.328125 45.453125 29.109375 45.453125 
Q 25.203125 45.453125 21.75 43.421875 
Q 18.3125 41.40625 16.84375 37.9375 
Q 15.375 34.46875 15.375 28.375 
L 15.375 0 
z
" id="ArialMT-104"/>
      <path d="M 23.390625 -21.046875 
Q 16.109375 -11.859375 11.078125 0.4375 
Q 6.0625 12.75 6.0625 25.921875 
Q 6.0625 37.546875 9.8125 48.1875 
Q 14.203125 60.546875 23.390625 72.796875 
L 29.6875 72.796875 
Q 23.78125 62.640625 21.875 58.296875 
Q 18.890625 51.5625 17.1875 44.234375 
Q 15.09375 35.109375 15.09375 25.875 
Q 15.09375 2.390625 29.6875 -21.046875 
z
" id="ArialMT-40"/>
      <path d="M 8.015625 0 
L 8.015625 71.578125 
L 17.484375 71.578125 
L 17.484375 42.1875 
L 54.6875 42.1875 
L 54.6875 71.578125 
L 64.15625 71.578125 
L 64.15625 0 
L 54.6875 0 
L 54.6875 33.734375 
L 17.484375 33.734375 
L 17.484375 0 
z
" id="ArialMT-72"/>
      <path d="M 1.953125 0 
L 1.953125 7.125 
L 34.96875 45.015625 
Q 29.34375 44.734375 25.046875 44.734375 
L 3.90625 44.734375 
L 3.90625 51.859375 
L 46.296875 51.859375 
L 46.296875 46.046875 
L 18.21875 13.140625 
L 12.796875 7.125 
Q 18.703125 7.5625 23.875 7.5625 
L 47.859375 7.5625 
L 47.859375 0 
z
" id="ArialMT-122"/>
      <path d="M 12.359375 -21.046875 
L 6.0625 -21.046875 
Q 20.65625 2.390625 20.65625 25.875 
Q 20.65625 35.0625 18.5625 44.09375 
Q 16.890625 51.421875 13.921875 58.15625 
Q 12.015625 62.546875 6.0625 72.796875 
L 12.359375 72.796875 
Q 21.53125 60.546875 25.921875 48.1875 
Q 29.6875 37.546875 29.6875 25.921875 
Q 29.6875 12.75 24.625 0.4375 
Q 19.578125 -11.859375 12.359375 -21.046875 
z
" id="ArialMT-41"/>
     </defs>
     <g style="fill:#262626;" transform="translate(14.479688 234.302969)rotate(-90)scale(0.1 -0.1)">
      <use xlink:href="#ArialMT-76"/>
      <use x="55.615234" xlink:href="#ArialMT-105"/>
      <use x="77.832031" xlink:href="#ArialMT-110"/>
      <use x="133.447266" xlink:href="#ArialMT-101"/>
      <use x="189.0625" xlink:href="#ArialMT-32"/>
      <use x="216.845703" xlink:href="#ArialMT-119"/>
      <use x="289.0625" xlink:href="#ArialMT-105"/>
      <use x="311.279297" xlink:href="#ArialMT-100"/>
      <use x="366.894531" xlink:href="#ArialMT-116"/>
      <use x="394.677734" xlink:href="#ArialMT-104"/>
      <use x="450.292969" xlink:href="#ArialMT-32"/>
      <use x="478.076172" xlink:href="#ArialMT-40"/>
      <use x="511.376953" xlink:href="#ArialMT-72"/>
      <use x="583.59375" xlink:href="#ArialMT-122"/>
      <use x="633.59375" xlink:href="#ArialMT-41"/>
     </g>
    </g>
   </g>
   <g id="PolyCollection_1">
    <defs>
     <path d="M 113.6878 -39.942301 
L 103.162825 -39.942301 
L 102.082908 -43.434839 
L 100.836884 -46.927378 
L 99.415742 -50.419916 
L 97.81548 -53.912454 
L 96.038583 -57.404992 
L 94.095293 -60.89753 
L 92.004509 -64.390069 
L 89.794154 -67.882607 
L 87.500854 -71.375145 
L 85.168892 -74.867683 
L 82.848401 -78.360222 
L 80.592916 -81.85276 
L 78.456447 -85.345298 
L 76.490328 -88.837836 
L 74.740128 -92.330374 
L 73.242929 -95.822913 
L 72.025219 -99.315451 
L 71.101605 -102.807989 
L 70.474445 -106.300527 
L 70.134398 -109.793065 
L 70.061812 -113.285604 
L 70.228774 -116.778142 
L 70.601643 -120.27068 
L 71.143806 -123.763218 
L 71.818462 -127.255757 
L 72.591204 -130.748295 
L 73.432219 -134.240833 
L 74.317947 -137.733371 
L 75.232075 -141.225909 
L 76.165792 -144.718448 
L 77.11728 -148.210986 
L 78.090504 -151.703524 
L 79.093408 -155.196062 
L 80.135741 -158.688601 
L 81.226751 -162.181139 
L 82.373048 -165.673677 
L 83.576902 -169.166215 
L 84.835197 -172.658753 
L 86.139166 -176.151292 
L 87.474933 -179.64383 
L 88.82474 -183.136368 
L 90.16867 -186.628906 
L 91.486594 -190.121445 
L 92.760047 -193.613983 
L 93.973782 -197.106521 
L 95.116796 -200.599059 
L 96.182745 -204.091597 
L 97.169722 -207.584136 
L 98.079527 -211.076674 
L 98.916559 -214.569212 
L 99.686561 -218.06175 
L 100.395411 -221.554288 
L 101.048146 -225.046827 
L 101.648332 -228.539365 
L 102.197862 -232.031903 
L 102.697146 -235.524441 
L 103.145632 -239.01698 
L 103.542533 -242.509518 
L 103.887605 -246.002056 
L 104.181844 -249.494594 
L 104.427964 -252.987132 
L 104.630603 -256.479671 
L 104.796212 -259.972209 
L 104.932669 -263.464747 
L 105.048691 -266.957285 
L 105.153142 -270.449824 
L 105.25434 -273.942362 
L 105.359467 -277.4349 
L 105.474131 -280.927438 
L 105.602129 -284.419976 
L 105.74539 -287.912515 
L 105.904094 -291.405053 
L 106.076897 -294.897591 
L 106.261226 -298.390129 
L 106.453605 -301.882667 
L 106.649967 -305.375206 
L 106.845942 -308.867744 
L 107.037105 -312.360282 
L 107.219182 -315.85282 
L 107.388214 -319.345359 
L 107.540696 -322.837897 
L 107.67367 -326.330435 
L 107.784792 -329.822973 
L 107.872388 -333.315511 
L 107.93548 -336.80805 
L 107.973809 -340.300588 
L 107.987865 -343.793126 
L 107.978901 -347.285664 
L 107.948959 -350.778203 
L 107.900876 -354.270741 
L 107.838257 -357.763279 
L 107.765407 -361.255817 
L 107.687192 -364.748355 
L 107.608836 -368.240894 
L 107.535637 -371.733432 
L 107.472642 -375.22597 
L 107.424291 -378.718508 
L 107.394084 -382.211046 
L 107.384313 -385.703585 
L 109.466312 -385.703585 
L 109.466312 -385.703585 
L 109.456541 -382.211046 
L 109.426334 -378.718508 
L 109.377983 -375.22597 
L 109.314988 -371.733432 
L 109.241789 -368.240894 
L 109.163433 -364.748355 
L 109.085218 -361.255817 
L 109.012368 -357.763279 
L 108.949749 -354.270741 
L 108.901666 -350.778203 
L 108.871724 -347.285664 
L 108.86276 -343.793126 
L 108.876816 -340.300588 
L 108.915145 -336.80805 
L 108.978237 -333.315511 
L 109.065833 -329.822973 
L 109.176955 -326.330435 
L 109.309929 -322.837897 
L 109.462411 -319.345359 
L 109.631443 -315.85282 
L 109.81352 -312.360282 
L 110.004683 -308.867744 
L 110.200658 -305.375206 
L 110.39702 -301.882667 
L 110.589399 -298.390129 
L 110.773728 -294.897591 
L 110.946531 -291.405053 
L 111.105235 -287.912515 
L 111.248496 -284.419976 
L 111.376494 -280.927438 
L 111.491158 -277.4349 
L 111.596285 -273.942362 
L 111.697483 -270.449824 
L 111.801934 -266.957285 
L 111.917956 -263.464747 
L 112.054413 -259.972209 
L 112.220022 -256.479671 
L 112.422661 -252.987132 
L 112.668781 -249.494594 
L 112.96302 -246.002056 
L 113.308092 -242.509518 
L 113.704993 -239.01698 
L 114.153479 -235.524441 
L 114.652763 -232.031903 
L 115.202293 -228.539365 
L 115.802479 -225.046827 
L 116.455214 -221.554288 
L 117.164064 -218.06175 
L 117.934066 -214.569212 
L 118.771098 -211.076674 
L 119.680903 -207.584136 
L 120.66788 -204.091597 
L 121.733829 -200.599059 
L 122.876843 -197.106521 
L 124.090578 -193.613983 
L 125.364031 -190.121445 
L 126.681955 -186.628906 
L 128.025885 -183.136368 
L 129.375692 -179.64383 
L 130.711459 -176.151292 
L 132.015428 -172.658753 
L 133.273723 -169.166215 
L 134.477577 -165.673677 
L 135.623874 -162.181139 
L 136.714884 -158.688601 
L 137.757217 -155.196062 
L 138.760121 -151.703524 
L 139.733345 -148.210986 
L 140.684833 -144.718448 
L 141.61855 -141.225909 
L 142.532678 -137.733371 
L 143.418406 -134.240833 
L 144.259421 -130.748295 
L 145.032163 -127.255757 
L 145.706819 -123.763218 
L 146.248982 -120.27068 
L 146.621851 -116.778142 
L 146.788813 -113.285604 
L 146.716227 -109.793065 
L 146.37618 -106.300527 
L 145.74902 -102.807989 
L 144.825406 -99.315451 
L 143.607696 -95.822913 
L 142.110497 -92.330374 
L 140.360297 -88.837836 
L 138.394178 -85.345298 
L 136.257709 -81.85276 
L 134.002224 -78.360222 
L 131.681733 -74.867683 
L 129.349771 -71.375145 
L 127.056471 -67.882607 
L 124.846116 -64.390069 
L 122.755332 -60.89753 
L 120.812042 -57.404992 
L 119.035145 -53.912454 
L 117.434883 -50.419916 
L 116.013741 -46.927378 
L 114.767717 -43.434839 
L 113.6878 -39.942301 
z
" id="m75355f633e" style="stroke:#4c4c4c;stroke-width:1.5;"/>
    </defs>
    <g clip-path="url(#pf4c44dc0d0)">
     <use style="fill:#5875a4;stroke:#4c4c4c;stroke-width:1.5;" x="0" xlink:href="#m75355f633e" y="413.865937"/>
    </g>
   </g>
   <g id="PolyCollection_2">
    <defs>
     <path d="M 255.89079 -49.737955 
L 206.479835 -49.737955 
L 205.673029 -50.849013 
L 204.864296 -51.960071 
L 204.054412 -53.071129 
L 203.244145 -54.182186 
L 202.434256 -55.293244 
L 201.62551 -56.404302 
L 200.81867 -57.51536 
L 200.01451 -58.626417 
L 199.213814 -59.737475 
L 198.417386 -60.848533 
L 197.626049 -61.959591 
L 196.840656 -63.070648 
L 196.062094 -64.181706 
L 195.291285 -65.292764 
L 194.529197 -66.403822 
L 193.776842 -67.514879 
L 193.035284 -68.625937 
L 192.305641 -69.736995 
L 191.589088 -70.848053 
L 190.886856 -71.95911 
L 190.200237 -73.070168 
L 189.530578 -74.181226 
L 188.879286 -75.292284 
L 188.247822 -76.403342 
L 187.637695 -77.514399 
L 187.050464 -78.625457 
L 186.487725 -79.736515 
L 185.951107 -80.847573 
L 185.442266 -81.95863 
L 184.962869 -83.069688 
L 184.514591 -84.180746 
L 184.099098 -85.291804 
L 183.718035 -86.402861 
L 183.373015 -87.513919 
L 183.065603 -88.624977 
L 182.797303 -89.736035 
L 182.569539 -90.847092 
L 182.383645 -91.95815 
L 182.240845 -93.069208 
L 182.14224 -94.180266 
L 182.088793 -95.291323 
L 182.081313 -96.402381 
L 182.12044 -97.513439 
L 182.206639 -98.624497 
L 182.340178 -99.735555 
L 182.521127 -100.846612 
L 182.749344 -101.95767 
L 183.024469 -103.068728 
L 183.345918 -104.179786 
L 183.712884 -105.290843 
L 184.124329 -106.401901 
L 184.578994 -107.512959 
L 185.075394 -108.624017 
L 185.611832 -109.735074 
L 186.186402 -110.846132 
L 186.797002 -111.95719 
L 187.441348 -113.068248 
L 188.116988 -114.179305 
L 188.82132 -115.290363 
L 189.551614 -116.401421 
L 190.305029 -117.512479 
L 191.078638 -118.623537 
L 191.869453 -119.734594 
L 192.674447 -120.845652 
L 193.490582 -121.95671 
L 194.314835 -123.067768 
L 195.144223 -124.178825 
L 195.975828 -125.289883 
L 196.806823 -126.400941 
L 197.634496 -127.511999 
L 198.45627 -128.623056 
L 199.269729 -129.734114 
L 200.072633 -130.845172 
L 200.862935 -131.95623 
L 201.638797 -133.067287 
L 202.398601 -134.178345 
L 203.140961 -135.289403 
L 203.864722 -136.400461 
L 204.568972 -137.511518 
L 205.253037 -138.622576 
L 205.91648 -139.733634 
L 206.559095 -140.844692 
L 207.180901 -141.95575 
L 207.782128 -143.066807 
L 208.363208 -144.177865 
L 208.924753 -145.288923 
L 209.467547 -146.399981 
L 209.992517 -147.511038 
L 210.500722 -148.622096 
L 210.993326 -149.733154 
L 211.471575 -150.844212 
L 211.936779 -151.955269 
L 212.390289 -153.066327 
L 212.833471 -154.177385 
L 213.267687 -155.288443 
L 213.694277 -156.3995 
L 214.114533 -157.510558 
L 214.52969 -158.621616 
L 214.940899 -159.732674 
L 247.429726 -159.732674 
L 247.429726 -159.732674 
L 247.840935 -158.621616 
L 248.256092 -157.510558 
L 248.676348 -156.3995 
L 249.102938 -155.288443 
L 249.537154 -154.177385 
L 249.980336 -153.066327 
L 250.433846 -151.955269 
L 250.89905 -150.844212 
L 251.377299 -149.733154 
L 251.869903 -148.622096 
L 252.378108 -147.511038 
L 252.903078 -146.399981 
L 253.445872 -145.288923 
L 254.007417 -144.177865 
L 254.588497 -143.066807 
L 255.189724 -141.95575 
L 255.81153 -140.844692 
L 256.454145 -139.733634 
L 257.117588 -138.622576 
L 257.801653 -137.511518 
L 258.505903 -136.400461 
L 259.229664 -135.289403 
L 259.972024 -134.178345 
L 260.731828 -133.067287 
L 261.50769 -131.95623 
L 262.297992 -130.845172 
L 263.100896 -129.734114 
L 263.914355 -128.623056 
L 264.736129 -127.511999 
L 265.563802 -126.400941 
L 266.394797 -125.289883 
L 267.226402 -124.178825 
L 268.05579 -123.067768 
L 268.880043 -121.95671 
L 269.696178 -120.845652 
L 270.501172 -119.734594 
L 271.291987 -118.623537 
L 272.065596 -117.512479 
L 272.819011 -116.401421 
L 273.549305 -115.290363 
L 274.253637 -114.179305 
L 274.929277 -113.068248 
L 275.573623 -111.95719 
L 276.184223 -110.846132 
L 276.758793 -109.735074 
L 277.295231 -108.624017 
L 277.791631 -107.512959 
L 278.246296 -106.401901 
L 278.657741 -105.290843 
L 279.024707 -104.179786 
L 279.346156 -103.068728 
L 279.621281 -101.95767 
L 279.849498 -100.846612 
L 280.030447 -99.735555 
L 280.163986 -98.624497 
L 280.250185 -97.513439 
L 280.289313 -96.402381 
L 280.281832 -95.291323 
L 280.228385 -94.180266 
L 280.12978 -93.069208 
L 279.98698 -91.95815 
L 279.801086 -90.847092 
L 279.573322 -89.736035 
L 279.305022 -88.624977 
L 278.99761 -87.513919 
L 278.65259 -86.402861 
L 278.271527 -85.291804 
L 277.856034 -84.180746 
L 277.407756 -83.069688 
L 276.928359 -81.95863 
L 276.419518 -80.847573 
L 275.8829 -79.736515 
L 275.320161 -78.625457 
L 274.73293 -77.514399 
L 274.122803 -76.403342 
L 273.491339 -75.292284 
L 272.840047 -74.181226 
L 272.170388 -73.070168 
L 271.483769 -71.95911 
L 270.781537 -70.848053 
L 270.064984 -69.736995 
L 269.335341 -68.625937 
L 268.593783 -67.514879 
L 267.841428 -66.403822 
L 267.07934 -65.292764 
L 266.308531 -64.181706 
L 265.529969 -63.070648 
L 264.744576 -61.959591 
L 263.953239 -60.848533 
L 263.156811 -59.737475 
L 262.356115 -58.626417 
L 261.551955 -57.51536 
L 260.745115 -56.404302 
L 259.936369 -55.293244 
L 259.12648 -54.182186 
L 258.316213 -53.071129 
L 257.506329 -51.960071 
L 256.697596 -50.849013 
L 255.89079 -49.737955 
z
" id="mffb37af2ed" style="stroke:#4c4c4c;stroke-width:1.5;"/>
    </defs>
    <g clip-path="url(#pf4c44dc0d0)">
     <use style="fill:#5f9e6e;stroke:#4c4c4c;stroke-width:1.5;" x="0" xlink:href="#mffb37af2ed" y="413.865937"/>
    </g>
   </g>
   <g id="PolyCollection_3">
    <defs>
     <path d="M 386.430654 -89.971068 
L 321.459971 -89.971068 
L 321.110056 -90.984112 
L 320.786458 -91.997156 
L 320.489545 -93.0102 
L 320.219579 -94.023244 
L 319.976715 -95.036288 
L 319.760997 -96.049333 
L 319.57236 -97.062377 
L 319.410629 -98.075421 
L 319.27552 -99.088465 
L 319.166644 -100.101509 
L 319.083506 -101.114553 
L 319.025507 -102.127597 
L 318.991952 -103.140641 
L 318.982051 -104.153685 
L 318.994921 -105.166729 
L 319.029595 -106.179773 
L 319.085028 -107.192817 
L 319.160097 -108.205861 
L 319.253613 -109.218905 
L 319.364324 -110.231949 
L 319.490927 -111.244993 
L 319.632068 -112.258038 
L 319.786354 -113.271082 
L 319.95236 -114.284126 
L 320.128636 -115.29717 
L 320.313716 -116.310214 
L 320.506125 -117.323258 
L 320.704387 -118.336302 
L 320.907031 -119.349346 
L 321.112604 -120.36239 
L 321.319674 -121.375434 
L 321.526836 -122.388478 
L 321.732728 -123.401522 
L 321.936028 -124.414566 
L 322.135466 -125.42761 
L 322.329831 -126.440654 
L 322.517975 -127.453698 
L 322.69882 -128.466742 
L 322.871363 -129.479787 
L 323.034681 -130.492831 
L 323.187936 -131.505875 
L 323.33038 -132.518919 
L 323.461356 -133.531963 
L 323.580304 -134.545007 
L 323.686762 -135.558051 
L 323.780369 -136.571095 
L 323.860865 -137.584139 
L 323.928094 -138.597183 
L 323.982003 -139.610227 
L 324.022643 -140.623271 
L 324.050169 -141.636315 
L 324.064835 -142.649359 
L 324.066998 -143.662403 
L 324.057111 -144.675447 
L 324.035722 -145.688492 
L 324.003471 -146.701536 
L 323.961086 -147.71458 
L 323.909378 -148.727624 
L 323.849237 -149.740668 
L 323.781626 -150.753712 
L 323.707576 -151.766756 
L 323.628181 -152.7798 
L 323.544588 -153.792844 
L 323.457995 -154.805888 
L 323.369641 -155.818932 
L 323.280799 -156.831976 
L 323.192769 -157.84502 
L 323.106873 -158.858064 
L 323.024443 -159.871108 
L 322.946814 -160.884152 
L 322.875319 -161.897196 
L 322.811281 -162.910241 
L 322.756001 -163.923285 
L 322.710756 -164.936329 
L 322.676787 -165.949373 
L 322.655296 -166.962417 
L 322.647435 -167.975461 
L 322.654303 -168.988505 
L 322.676939 -170.001549 
L 322.716312 -171.014593 
L 322.773323 -172.027637 
L 322.848793 -173.040681 
L 322.943464 -174.053725 
L 323.057989 -175.066769 
L 323.192937 -176.079813 
L 323.348781 -177.092857 
L 323.525903 -178.105901 
L 323.724587 -179.118946 
L 323.945022 -180.13199 
L 324.187298 -181.145034 
L 324.451409 -182.158078 
L 324.737253 -183.171122 
L 325.044631 -184.184166 
L 325.373252 -185.19721 
L 325.722733 -186.210254 
L 326.092604 -187.223298 
L 326.482307 -188.236342 
L 326.891207 -189.249386 
L 327.318589 -190.26243 
L 380.572036 -190.26243 
L 380.572036 -190.26243 
L 380.999418 -189.249386 
L 381.408318 -188.236342 
L 381.798021 -187.223298 
L 382.167892 -186.210254 
L 382.517373 -185.19721 
L 382.845994 -184.184166 
L 383.153372 -183.171122 
L 383.439216 -182.158078 
L 383.703327 -181.145034 
L 383.945603 -180.13199 
L 384.166038 -179.118946 
L 384.364722 -178.105901 
L 384.541844 -177.092857 
L 384.697688 -176.079813 
L 384.832636 -175.066769 
L 384.947161 -174.053725 
L 385.041832 -173.040681 
L 385.117302 -172.027637 
L 385.174313 -171.014593 
L 385.213686 -170.001549 
L 385.236322 -168.988505 
L 385.24319 -167.975461 
L 385.235329 -166.962417 
L 385.213838 -165.949373 
L 385.179869 -164.936329 
L 385.134624 -163.923285 
L 385.079344 -162.910241 
L 385.015306 -161.897196 
L 384.943811 -160.884152 
L 384.866182 -159.871108 
L 384.783752 -158.858064 
L 384.697856 -157.84502 
L 384.609826 -156.831976 
L 384.520984 -155.818932 
L 384.43263 -154.805888 
L 384.346037 -153.792844 
L 384.262444 -152.7798 
L 384.183049 -151.766756 
L 384.108999 -150.753712 
L 384.041388 -149.740668 
L 383.981247 -148.727624 
L 383.929539 -147.71458 
L 383.887154 -146.701536 
L 383.854903 -145.688492 
L 383.833514 -144.675447 
L 383.823627 -143.662403 
L 383.82579 -142.649359 
L 383.840456 -141.636315 
L 383.867982 -140.623271 
L 383.908622 -139.610227 
L 383.962531 -138.597183 
L 384.02976 -137.584139 
L 384.110256 -136.571095 
L 384.203863 -135.558051 
L 384.310321 -134.545007 
L 384.429269 -133.531963 
L 384.560245 -132.518919 
L 384.702689 -131.505875 
L 384.855944 -130.492831 
L 385.019262 -129.479787 
L 385.191805 -128.466742 
L 385.37265 -127.453698 
L 385.560794 -126.440654 
L 385.755159 -125.42761 
L 385.954597 -124.414566 
L 386.157897 -123.401522 
L 386.363789 -122.388478 
L 386.570951 -121.375434 
L 386.778021 -120.36239 
L 386.983594 -119.349346 
L 387.186238 -118.336302 
L 387.3845 -117.323258 
L 387.576909 -116.310214 
L 387.761989 -115.29717 
L 387.938265 -114.284126 
L 388.104271 -113.271082 
L 388.258557 -112.258038 
L 388.399698 -111.244993 
L 388.526301 -110.231949 
L 388.637012 -109.218905 
L 388.730528 -108.205861 
L 388.805597 -107.192817 
L 388.86103 -106.179773 
L 388.895704 -105.166729 
L 388.908574 -104.153685 
L 388.898673 -103.140641 
L 388.865118 -102.127597 
L 388.807119 -101.114553 
L 388.723981 -100.101509 
L 388.615105 -99.088465 
L 388.479996 -98.075421 
L 388.318265 -97.062377 
L 388.129628 -96.049333 
L 387.91391 -95.036288 
L 387.671046 -94.023244 
L 387.40108 -93.0102 
L 387.104167 -91.997156 
L 386.780569 -90.984112 
L 386.430654 -89.971068 
z
" id="m1850c41039" style="stroke:#4c4c4c;stroke-width:1.5;"/>
    </defs>
    <g clip-path="url(#pf4c44dc0d0)">
     <use style="fill:#b55d60;stroke:#4c4c4c;stroke-width:1.5;" x="0" xlink:href="#m1850c41039" y="413.865937"/>
    </g>
   </g>
   <g id="line2d_7">
    <path clip-path="url(#pf4c44dc0d0)" d="M 47.045313 175.536689 
L 685.690391 175.536689 
" style="fill:none;stroke:#c44e52;stroke-linecap:round;stroke-width:1.5;"/>
   </g>
   <g id="line2d_8">
    <path clip-path="url(#pf4c44dc0d0)" d="M 108.425313 373.923636 
L 108.425313 146.149691 
" style="fill:none;stroke:#4c4c4c;stroke-linecap:round;stroke-width:1.5;"/>
   </g>
   <g id="line2d_9">
    <path clip-path="url(#pf4c44dc0d0)" d="M 108.425313 315.680727 
L 108.425313 246.075579 
" style="fill:none;stroke:#4c4c4c;stroke-linecap:round;stroke-width:4.5;"/>
   </g>
   <g id="line2d_10">
    <path clip-path="url(#pf4c44dc0d0)" d="M 231.185313 364.127982 
L 231.185313 254.133264 
" style="fill:none;stroke:#4c4c4c;stroke-linecap:round;stroke-width:1.5;"/>
   </g>
   <g id="line2d_11">
    <path clip-path="url(#pf4c44dc0d0)" d="M 231.185313 334.719913 
L 231.185313 301.281317 
" style="fill:none;stroke:#4c4c4c;stroke-linecap:round;stroke-width:4.5;"/>
   </g>
   <g id="line2d_12">
    <path clip-path="url(#pf4c44dc0d0)" d="M 353.945313 323.894869 
L 353.945313 223.603507 
" style="fill:none;stroke:#4c4c4c;stroke-linecap:round;stroke-width:1.5;"/>
   </g>
   <g id="line2d_13">
    <path clip-path="url(#pf4c44dc0d0)" d="M 353.945313 317.426572 
L 353.945313 241.715037 
" style="fill:none;stroke:#4c4c4c;stroke-linecap:round;stroke-width:4.5;"/>
   </g>
   <g id="line2d_14">
    <path clip-path="url(#pf4c44dc0d0)" d="M 427.601313 230.995322 
L 525.809313 230.995322 
" style="fill:none;stroke:#4c4c4c;stroke-linecap:round;stroke-width:1.5;"/>
   </g>
   <g id="line2d_15">
    <path clip-path="url(#pf4c44dc0d0)" d="M 550.361313 287.819313 
L 648.569313 287.819313 
" style="fill:none;stroke:#4c4c4c;stroke-linecap:round;stroke-width:1.5;"/>
   </g>
   <g id="patch_3">
    <path d="M 47.045313 391.22 
L 47.045313 10.7 
" style="fill:none;stroke:#cccccc;stroke-linecap:square;stroke-linejoin:miter;stroke-width:0.8;"/>
   </g>
   <g id="patch_4">
    <path d="M 660.845313 391.22 
L 660.845313 10.7 
" style="fill:none;stroke:#cccccc;stroke-linecap:square;stroke-linejoin:miter;stroke-width:0.8;"/>
   </g>
   <g id="patch_5">
    <path d="M 47.045313 391.22 
L 660.845313 391.22 
" style="fill:none;stroke:#cccccc;stroke-linecap:square;stroke-linejoin:miter;stroke-width:0.8;"/>
   </g>
   <g id="patch_6">
    <path d="M 47.045313 10.7 
L 660.845313 10.7 
" style="fill:none;stroke:#cccccc;stroke-linecap:square;stroke-linejoin:miter;stroke-width:0.8;"/>
   </g>
   <g id="PathCollection_1">
    <defs>
     <path d="M 0 2.5 
C 0.663008 2.5 1.29895 2.236584 1.767767 1.767767 
C 2.236584 1.29895 2.5 0.663008 2.5 0 
C 2.5 -0.663008 2.236584 -1.29895 1.767767 -1.767767 
C 1.29895 -2.236584 0.663008 -2.5 0 -2.5 
C -0.663008 -2.5 -1.29895 -2.236584 -1.767767 -1.767767 
C -2.236584 -1.29895 -2.5 -0.663008 -2.5 0 
C -2.5 0.663008 -2.236584 1.29895 -1.767767 1.767767 
C -1.29895 2.236584 -0.663008 2.5 0 2.5 
z
" id="C0_0_9d79508107"/>
    </defs>
    <g clip-path="url(#pf4c44dc0d0)">
     <use style="fill:#ff0000;" x="96.304595" xlink:href="#C0_0_9d79508107" y="114.675697"/>
    </g>
    <g clip-path="url(#pf4c44dc0d0)">
     <use style="fill:#ff0000;" x="116.714747" xlink:href="#C0_0_9d79508107" y="146.149691"/>
    </g>
    <g clip-path="url(#pf4c44dc0d0)">
     <use style="fill:#ff0000;" x="120.539753" xlink:href="#C0_0_9d79508107" y="139.920372"/>
    </g>
    <g clip-path="url(#pf4c44dc0d0)">
     <use style="fill:#ff0000;" x="98.249694" xlink:href="#C0_0_9d79508107" y="28.162353"/>
    </g>
   </g>
   <g id="PathCollection_2">
    <defs>
     <path d="M 0 1.5 
C 0.397805 1.5 0.77937 1.341951 1.06066 1.06066 
C 1.341951 0.77937 1.5 0.397805 1.5 0 
C 1.5 -0.397805 1.341951 -0.77937 1.06066 -1.06066 
C 0.77937 -1.341951 0.397805 -1.5 0 -1.5 
C -0.397805 -1.5 -0.77937 -1.341951 -1.06066 -1.06066 
C -1.341951 -0.77937 -1.5 -0.397805 -1.5 0 
C -1.5 0.397805 -1.341951 0.77937 -1.06066 1.06066 
C -0.77937 1.341951 -0.397805 1.5 0 1.5 
z
" id="mf8a5f4a849" style="stroke:#4c4c4c;"/>
    </defs>
    <g clip-path="url(#pf4c44dc0d0)">
     <use style="fill:#ffffff;stroke:#4c4c4c;" x="108.425313" xlink:href="#mf8a5f4a849" y="287.166805"/>
    </g>
   </g>
   <g id="PathCollection_3">
    <g clip-path="url(#pf4c44dc0d0)">
     <use style="fill:#ffffff;stroke:#4c4c4c;" x="231.185313" xlink:href="#mf8a5f4a849" y="310.999199"/>
    </g>
   </g>
   <g id="PathCollection_4">
    <g clip-path="url(#pf4c44dc0d0)">
     <use style="fill:#ffffff;stroke:#4c4c4c;" x="353.945313" xlink:href="#mf8a5f4a849" y="284.806034"/>
    </g>
   </g>
   <g id="legend_1">
    <g id="patch_7">
     <path d="M 547.382813 32.845312 
L 653.845313 32.845312 
Q 655.845313 32.845312 655.845313 30.845312 
L 655.845313 17.7 
Q 655.845313 15.7 653.845313 15.7 
L 547.382813 15.7 
Q 545.382813 15.7 545.382813 17.7 
L 545.382813 30.845312 
Q 545.382813 32.845312 547.382813 32.845312 
z
" style="fill:#ffffff;opacity:0.8;stroke:#cccccc;stroke-linejoin:miter;"/>
    </g>
    <g id="line2d_16">
     <path d="M 549.382813 23.357812 
L 569.382813 23.357812 
" style="fill:none;stroke:#c44e52;stroke-linecap:round;stroke-width:1.5;"/>
    </g>
    <g id="line2d_17"/>
    <g id="text_13">
     <!-- LW fail threshold -->
     <defs>
      <path d="M 20.21875 0 
L 1.21875 71.578125 
L 10.9375 71.578125 
L 21.828125 24.65625 
Q 23.578125 17.28125 24.859375 10.015625 
Q 27.59375 21.484375 28.078125 23.25 
L 41.703125 71.578125 
L 53.125 71.578125 
L 63.375 35.359375 
Q 67.234375 21.875 68.953125 10.015625 
Q 70.3125 16.796875 72.515625 25.59375 
L 83.734375 71.578125 
L 93.265625 71.578125 
L 73.640625 0 
L 64.5 0 
L 49.421875 54.546875 
Q 47.515625 61.375 47.171875 62.9375 
Q 46.046875 58.015625 45.0625 54.546875 
L 29.890625 0 
z
" id="ArialMT-87"/>
     </defs>
     <g style="fill:#262626;" transform="translate(577.382813 26.857812)scale(0.1 -0.1)">
      <use xlink:href="#ArialMT-76"/>
      <use x="55.505859" xlink:href="#ArialMT-87"/>
      <use x="149.890625" xlink:href="#ArialMT-32"/>
      <use x="177.673828" xlink:href="#ArialMT-102"/>
      <use x="205.457031" xlink:href="#ArialMT-97"/>
      <use x="261.072266" xlink:href="#ArialMT-105"/>
      <use x="283.289062" xlink:href="#ArialMT-108"/>
      <use x="305.505859" xlink:href="#ArialMT-32"/>
      <use x="333.289062" xlink:href="#ArialMT-116"/>
      <use x="361.072266" xlink:href="#ArialMT-104"/>
      <use x="416.6875" xlink:href="#ArialMT-114"/>
      <use x="449.988281" xlink:href="#ArialMT-101"/>
      <use x="505.603516" xlink:href="#ArialMT-115"/>
      <use x="555.603516" xlink:href="#ArialMT-104"/>
      <use x="611.21875" xlink:href="#ArialMT-111"/>
      <use x="666.833984" xlink:href="#ArialMT-108"/>
      <use x="689.050781" xlink:href="#ArialMT-100"/>
     </g>
    </g>
   </g>
  </g>
 </g>
 <defs>
  <clipPath id="pf4c44dc0d0">
   <rect height="380.52" width="613.8" x="47.045313" y="10.7"/>
  </clipPath>
 </defs>
</svg>
