<?xml version="1.0" encoding="utf-8" standalone="no"?>
<!DOCTYPE svg PUBLIC "-//W3C//DTD SVG 1.1//EN"
  "http://www.w3.org/Graphics/SVG/1.1/DTD/svg11.dtd">
<!-- Created with matplotlib (https://matplotlib.org/) -->
<svg height="459.211759pt" version="1.1" viewBox="0 0 665.745312 459.211759" width="665.745312pt" xmlns="http://www.w3.org/2000/svg" xmlns:xlink="http://www.w3.org/1999/xlink">
 <defs>
  <style type="text/css">
*{stroke-linecap:butt;stroke-linejoin:round;}
  </style>
 </defs>
 <g id="figure_1">
  <g id="patch_1">
   <path d="M 0 459.211759 
L 665.745312 459.211759 
L 665.745312 0 
L 0 0 
z
" style="fill:#ffffff;"/>
  </g>
  <g id="axes_1">
   <g id="patch_2">
    <path d="M 41.245313 397.877812 
L 528.052209 397.877812 
L 528.052209 17.357812 
L 41.245313 17.357812 
z
" style="fill:#ffffff;"/>
   </g>
   <g id="matplotlib.axis_1">
    <g id="xtick_1">
     <g id="line2d_1">
      <path clip-path="url(#pf0fca15bd7)" d="M 240.680596 397.877812 
L 240.680596 17.357812 
" style="fill:none;stroke:#cccccc;stroke-linecap:round;stroke-width:0.8;"/>
     </g>
     <g id="text_1">
      <!-- 19/01/18 -->
      <defs>
       <path d="M 37.25 0 
L 28.46875 0 
L 28.46875 56 
Q 25.296875 52.984375 20.140625 49.953125 
Q 14.984375 46.921875 10.890625 45.40625 
L 10.890625 53.90625 
Q 18.265625 57.375 23.78125 62.296875 
Q 29.296875 67.234375 31.59375 71.875 
L 37.25 71.875 
z
" id="ArialMT-49"/>
       <path d="M 5.46875 16.546875 
L 13.921875 17.328125 
Q 14.984375 11.375 18.015625 8.6875 
Q 21.046875 6 25.78125 6 
Q 29.828125 6 32.875 7.859375 
Q 35.9375 9.71875 37.890625 12.8125 
Q 39.84375 15.921875 41.15625 21.1875 
Q 42.484375 26.46875 42.484375 31.9375 
Q 42.484375 32.515625 42.4375 33.6875 
Q 39.796875 29.5 35.234375 26.875 
Q 30.671875 24.265625 25.34375 24.265625 
Q 16.453125 24.265625 10.296875 30.703125 
Q 4.15625 37.15625 4.15625 47.703125 
Q 4.15625 58.59375 10.578125 65.234375 
Q 17 71.875 26.65625 71.875 
Q 33.640625 71.875 39.421875 68.109375 
Q 45.21875 64.359375 48.21875 57.390625 
Q 51.21875 50.4375 51.21875 37.25 
Q 51.21875 23.53125 48.234375 15.40625 
Q 45.265625 7.28125 39.375 3.03125 
Q 33.5 -1.21875 25.59375 -1.21875 
Q 17.1875 -1.21875 11.859375 3.4375 
Q 6.546875 8.109375 5.46875 16.546875 
z
M 41.453125 48.140625 
Q 41.453125 55.71875 37.421875 60.15625 
Q 33.40625 64.59375 27.734375 64.59375 
Q 21.875 64.59375 17.53125 59.8125 
Q 13.1875 55.03125 13.1875 47.40625 
Q 13.1875 40.578125 17.3125 36.296875 
Q 21.4375 32.03125 27.484375 32.03125 
Q 33.59375 32.03125 37.515625 36.296875 
Q 41.453125 40.578125 41.453125 48.140625 
z
" id="ArialMT-57"/>
       <path d="M 0 -1.21875 
L 20.75 72.796875 
L 27.78125 72.796875 
L 7.078125 -1.21875 
z
" id="ArialMT-47"/>
       <path d="M 4.15625 35.296875 
Q 4.15625 48 6.765625 55.734375 
Q 9.375 63.484375 14.515625 67.671875 
Q 19.671875 71.875 27.484375 71.875 
Q 33.25 71.875 37.59375 69.546875 
Q 41.9375 67.234375 44.765625 62.859375 
Q 47.609375 58.5 49.21875 52.21875 
Q 50.828125 45.953125 50.828125 35.296875 
Q 50.828125 22.703125 48.234375 14.96875 
Q 45.65625 7.234375 40.5 3 
Q 35.359375 -1.21875 27.484375 -1.21875 
Q 17.140625 -1.21875 11.234375 6.203125 
Q 4.15625 15.140625 4.15625 35.296875 
z
M 13.1875 35.296875 
Q 13.1875 17.671875 17.3125 11.828125 
Q 21.4375 6 27.484375 6 
Q 33.546875 6 37.671875 11.859375 
Q 41.796875 17.71875 41.796875 35.296875 
Q 41.796875 52.984375 37.671875 58.78125 
Q 33.546875 64.59375 27.390625 64.59375 
Q 21.34375 64.59375 17.71875 59.46875 
Q 13.1875 52.9375 13.1875 35.296875 
z
" id="ArialMT-48"/>
       <path d="M 17.671875 38.8125 
Q 12.203125 40.828125 9.5625 44.53125 
Q 6.9375 48.25 6.9375 53.421875 
Q 6.9375 61.234375 12.546875 66.546875 
Q 18.171875 71.875 27.484375 71.875 
Q 36.859375 71.875 42.578125 66.421875 
Q 48.296875 60.984375 48.296875 53.171875 
Q 48.296875 48.1875 45.671875 44.5 
Q 43.0625 40.828125 37.75 38.8125 
Q 44.34375 36.671875 47.78125 31.875 
Q 51.21875 27.09375 51.21875 20.453125 
Q 51.21875 11.28125 44.71875 5.03125 
Q 38.234375 -1.21875 27.640625 -1.21875 
Q 17.046875 -1.21875 10.546875 5.046875 
Q 4.046875 11.328125 4.046875 20.703125 
Q 4.046875 27.6875 7.59375 32.390625 
Q 11.140625 37.109375 17.671875 38.8125 
z
M 15.921875 53.71875 
Q 15.921875 48.640625 19.1875 45.40625 
Q 22.46875 42.1875 27.6875 42.1875 
Q 32.765625 42.1875 36.015625 45.375 
Q 39.265625 48.578125 39.265625 53.21875 
Q 39.265625 58.0625 35.90625 61.359375 
Q 32.5625 64.65625 27.59375 64.65625 
Q 22.5625 64.65625 19.234375 61.421875 
Q 15.921875 58.203125 15.921875 53.71875 
z
M 13.09375 20.65625 
Q 13.09375 16.890625 14.875 13.375 
Q 16.65625 9.859375 20.171875 7.921875 
Q 23.6875 6 27.734375 6 
Q 34.03125 6 38.125 10.046875 
Q 42.234375 14.109375 42.234375 20.359375 
Q 42.234375 26.703125 38.015625 30.859375 
Q 33.796875 35.015625 27.4375 35.015625 
Q 21.234375 35.015625 17.15625 30.90625 
Q 13.09375 26.8125 13.09375 20.65625 
z
" id="ArialMT-56"/>
      </defs>
      <g style="fill:#262626;" transform="translate(228.747617 437.461072)rotate(-45)scale(0.1 -0.1)">
       <use xlink:href="#ArialMT-49"/>
       <use x="55.615234" xlink:href="#ArialMT-57"/>
       <use x="111.230469" xlink:href="#ArialMT-47"/>
       <use x="139.013672" xlink:href="#ArialMT-48"/>
       <use x="194.628906" xlink:href="#ArialMT-49"/>
       <use x="250.244141" xlink:href="#ArialMT-47"/>
       <use x="278.027344" xlink:href="#ArialMT-49"/>
       <use x="333.642578" xlink:href="#ArialMT-56"/>
      </g>
     </g>
    </g>
    <g id="xtick_2">
     <g id="line2d_2">
      <path clip-path="url(#pf0fca15bd7)" d="M 462.446471 397.877812 
L 462.446471 17.357812 
" style="fill:none;stroke:#cccccc;stroke-linecap:round;stroke-width:0.8;"/>
     </g>
     <g id="text_2">
      <!-- 20/01/18 -->
      <defs>
       <path d="M 50.34375 8.453125 
L 50.34375 0 
L 3.03125 0 
Q 2.9375 3.171875 4.046875 6.109375 
Q 5.859375 10.9375 9.828125 15.625 
Q 13.8125 20.3125 21.34375 26.46875 
Q 33.015625 36.03125 37.109375 41.625 
Q 41.21875 47.21875 41.21875 52.203125 
Q 41.21875 57.421875 37.46875 61 
Q 33.734375 64.59375 27.734375 64.59375 
Q 21.390625 64.59375 17.578125 60.78125 
Q 13.765625 56.984375 13.71875 50.25 
L 4.6875 51.171875 
Q 5.609375 61.28125 11.65625 66.578125 
Q 17.71875 71.875 27.9375 71.875 
Q 38.234375 71.875 44.234375 66.15625 
Q 50.25 60.453125 50.25 52 
Q 50.25 47.703125 48.484375 43.546875 
Q 46.734375 39.40625 42.65625 34.8125 
Q 38.578125 30.21875 29.109375 22.21875 
Q 21.1875 15.578125 18.9375 13.203125 
Q 16.703125 10.84375 15.234375 8.453125 
z
" id="ArialMT-50"/>
      </defs>
      <g style="fill:#262626;" transform="translate(450.513492 437.461072)rotate(-45)scale(0.1 -0.1)">
       <use xlink:href="#ArialMT-50"/>
       <use x="55.615234" xlink:href="#ArialMT-48"/>
       <use x="111.230469" xlink:href="#ArialMT-47"/>
       <use x="139.013672" xlink:href="#ArialMT-48"/>
       <use x="194.628906" xlink:href="#ArialMT-49"/>
       <use x="250.244141" xlink:href="#ArialMT-47"/>
       <use x="278.027344" xlink:href="#ArialMT-49"/>
       <use x="333.642578" xlink:href="#ArialMT-56"/>
      </g>
     </g>
    </g>
    <g id="text_3">
     <!-- Acquisition Date -->
     <defs>
      <path d="M -0.140625 0 
L 27.34375 71.578125 
L 37.546875 71.578125 
L 66.84375 0 
L 56.0625 0 
L 47.703125 21.6875 
L 17.78125 21.6875 
L 9.90625 0 
z
M 20.515625 29.390625 
L 44.78125 29.390625 
L 37.3125 49.21875 
Q 33.890625 58.25 32.234375 64.0625 
Q 30.859375 57.171875 28.375 50.390625 
z
" id="ArialMT-65"/>
      <path d="M 40.4375 19 
L 49.078125 17.875 
Q 47.65625 8.9375 41.8125 3.875 
Q 35.984375 -1.171875 27.484375 -1.171875 
Q 16.84375 -1.171875 10.375 5.78125 
Q 3.90625 12.75 3.90625 25.734375 
Q 3.90625 34.125 6.6875 40.421875 
Q 9.46875 46.734375 15.15625 49.875 
Q 20.84375 53.03125 27.546875 53.03125 
Q 35.984375 53.03125 41.359375 48.75 
Q 46.734375 44.484375 48.25 36.625 
L 39.703125 35.296875 
Q 38.484375 40.53125 35.375 43.15625 
Q 32.28125 45.796875 27.875 45.796875 
Q 21.234375 45.796875 17.078125 41.03125 
Q 12.9375 36.28125 12.9375 25.984375 
Q 12.9375 15.53125 16.9375 10.796875 
Q 20.953125 6.0625 27.390625 6.0625 
Q 32.5625 6.0625 36.03125 9.234375 
Q 39.5 12.40625 40.4375 19 
z
" id="ArialMT-99"/>
      <path d="M 39.65625 -19.875 
L 39.65625 5.515625 
Q 37.59375 2.640625 33.90625 0.734375 
Q 30.21875 -1.171875 26.078125 -1.171875 
Q 16.84375 -1.171875 10.171875 6.203125 
Q 3.515625 13.578125 3.515625 26.421875 
Q 3.515625 34.234375 6.21875 40.421875 
Q 8.9375 46.625 14.078125 49.828125 
Q 19.234375 53.03125 25.390625 53.03125 
Q 35.015625 53.03125 40.53125 44.921875 
L 40.53125 51.859375 
L 48.4375 51.859375 
L 48.4375 -19.875 
z
M 12.546875 26.078125 
Q 12.546875 16.0625 16.75 11.0625 
Q 20.953125 6.0625 26.8125 6.0625 
Q 32.421875 6.0625 36.46875 10.8125 
Q 40.53125 15.578125 40.53125 25.296875 
Q 40.53125 35.640625 36.25 40.859375 
Q 31.984375 46.09375 26.21875 46.09375 
Q 20.515625 46.09375 16.53125 41.234375 
Q 12.546875 36.375 12.546875 26.078125 
z
" id="ArialMT-113"/>
      <path d="M 40.578125 0 
L 40.578125 7.625 
Q 34.515625 -1.171875 24.125 -1.171875 
Q 19.53125 -1.171875 15.546875 0.578125 
Q 11.578125 2.34375 9.640625 5 
Q 7.71875 7.671875 6.9375 11.53125 
Q 6.390625 14.109375 6.390625 19.734375 
L 6.390625 51.859375 
L 15.1875 51.859375 
L 15.1875 23.09375 
Q 15.1875 16.21875 15.71875 13.8125 
Q 16.546875 10.359375 19.234375 8.375 
Q 21.921875 6.390625 25.875 6.390625 
Q 29.828125 6.390625 33.296875 8.421875 
Q 36.765625 10.453125 38.203125 13.9375 
Q 39.65625 17.4375 39.65625 24.078125 
L 39.65625 51.859375 
L 48.4375 51.859375 
L 48.4375 0 
z
" id="ArialMT-117"/>
      <path d="M 6.640625 61.46875 
L 6.640625 71.578125 
L 15.4375 71.578125 
L 15.4375 61.46875 
z
M 6.640625 0 
L 6.640625 51.859375 
L 15.4375 51.859375 
L 15.4375 0 
z
" id="ArialMT-105"/>
      <path d="M 3.078125 15.484375 
L 11.765625 16.84375 
Q 12.5 11.625 15.84375 8.84375 
Q 19.1875 6.0625 25.203125 6.0625 
Q 31.25 6.0625 34.171875 8.515625 
Q 37.109375 10.984375 37.109375 14.3125 
Q 37.109375 17.28125 34.515625 19 
Q 32.71875 20.171875 25.53125 21.96875 
Q 15.875 24.421875 12.140625 26.203125 
Q 8.40625 27.984375 6.46875 31.125 
Q 4.546875 34.28125 4.546875 38.09375 
Q 4.546875 41.546875 6.125 44.5 
Q 7.71875 47.46875 10.453125 49.421875 
Q 12.5 50.921875 16.03125 51.96875 
Q 19.578125 53.03125 23.640625 53.03125 
Q 29.734375 53.03125 34.34375 51.265625 
Q 38.96875 49.515625 41.15625 46.5 
Q 43.359375 43.5 44.1875 38.484375 
L 35.59375 37.3125 
Q 35.015625 41.3125 32.203125 43.546875 
Q 29.390625 45.796875 24.265625 45.796875 
Q 18.21875 45.796875 15.625 43.796875 
Q 13.03125 41.796875 13.03125 39.109375 
Q 13.03125 37.40625 14.109375 36.03125 
Q 15.1875 34.625 17.484375 33.6875 
Q 18.796875 33.203125 25.25 31.453125 
Q 34.578125 28.953125 38.25 27.359375 
Q 41.9375 25.78125 44.03125 22.75 
Q 46.140625 19.734375 46.140625 15.234375 
Q 46.140625 10.84375 43.578125 6.953125 
Q 41.015625 3.078125 36.171875 0.953125 
Q 31.34375 -1.171875 25.25 -1.171875 
Q 15.140625 -1.171875 9.84375 3.03125 
Q 4.546875 7.234375 3.078125 15.484375 
z
" id="ArialMT-115"/>
      <path d="M 25.78125 7.859375 
L 27.046875 0.09375 
Q 23.34375 -0.6875 20.40625 -0.6875 
Q 15.625 -0.6875 12.984375 0.828125 
Q 10.359375 2.34375 9.28125 4.8125 
Q 8.203125 7.28125 8.203125 15.1875 
L 8.203125 45.015625 
L 1.765625 45.015625 
L 1.765625 51.859375 
L 8.203125 51.859375 
L 8.203125 64.703125 
L 16.9375 69.96875 
L 16.9375 51.859375 
L 25.78125 51.859375 
L 25.78125 45.015625 
L 16.9375 45.015625 
L 16.9375 14.703125 
Q 16.9375 10.9375 17.40625 9.859375 
Q 17.875 8.796875 18.921875 8.15625 
Q 19.96875 7.515625 21.921875 7.515625 
Q 23.390625 7.515625 25.78125 7.859375 
z
" id="ArialMT-116"/>
      <path d="M 3.328125 25.921875 
Q 3.328125 40.328125 11.328125 47.265625 
Q 18.015625 53.03125 27.640625 53.03125 
Q 38.328125 53.03125 45.109375 46.015625 
Q 51.90625 39.015625 51.90625 26.65625 
Q 51.90625 16.65625 48.90625 10.90625 
Q 45.90625 5.171875 40.15625 2 
Q 34.421875 -1.171875 27.640625 -1.171875 
Q 16.75 -1.171875 10.03125 5.8125 
Q 3.328125 12.796875 3.328125 25.921875 
z
M 12.359375 25.921875 
Q 12.359375 15.96875 16.703125 11.015625 
Q 21.046875 6.0625 27.640625 6.0625 
Q 34.1875 6.0625 38.53125 11.03125 
Q 42.875 16.015625 42.875 26.21875 
Q 42.875 35.84375 38.5 40.796875 
Q 34.125 45.75 27.640625 45.75 
Q 21.046875 45.75 16.703125 40.8125 
Q 12.359375 35.890625 12.359375 25.921875 
z
" id="ArialMT-111"/>
      <path d="M 6.59375 0 
L 6.59375 51.859375 
L 14.5 51.859375 
L 14.5 44.484375 
Q 20.21875 53.03125 31 53.03125 
Q 35.6875 53.03125 39.625 51.34375 
Q 43.5625 49.65625 45.515625 46.921875 
Q 47.46875 44.1875 48.25 40.4375 
Q 48.734375 37.984375 48.734375 31.890625 
L 48.734375 0 
L 39.9375 0 
L 39.9375 31.546875 
Q 39.9375 36.921875 38.90625 39.578125 
Q 37.890625 42.234375 35.28125 43.8125 
Q 32.671875 45.40625 29.15625 45.40625 
Q 23.53125 45.40625 19.453125 41.84375 
Q 15.375 38.28125 15.375 28.328125 
L 15.375 0 
z
" id="ArialMT-110"/>
      <path id="ArialMT-32"/>
      <path d="M 7.71875 0 
L 7.71875 71.578125 
L 32.375 71.578125 
Q 40.71875 71.578125 45.125 70.5625 
Q 51.265625 69.140625 55.609375 65.4375 
Q 61.28125 60.640625 64.078125 53.1875 
Q 66.890625 45.75 66.890625 36.1875 
Q 66.890625 28.03125 64.984375 21.734375 
Q 63.09375 15.4375 60.109375 11.296875 
Q 57.125 7.171875 53.578125 4.796875 
Q 50.046875 2.4375 45.046875 1.21875 
Q 40.046875 0 33.546875 0 
z
M 17.1875 8.453125 
L 32.46875 8.453125 
Q 39.546875 8.453125 43.578125 9.765625 
Q 47.609375 11.078125 50 13.484375 
Q 53.375 16.84375 55.25 22.53125 
Q 57.125 28.21875 57.125 36.328125 
Q 57.125 47.5625 53.4375 53.59375 
Q 49.75 59.625 44.484375 61.671875 
Q 40.671875 63.140625 32.234375 63.140625 
L 17.1875 63.140625 
z
" id="ArialMT-68"/>
      <path d="M 40.4375 6.390625 
Q 35.546875 2.25 31.03125 0.53125 
Q 26.515625 -1.171875 21.34375 -1.171875 
Q 12.796875 -1.171875 8.203125 3 
Q 3.609375 7.171875 3.609375 13.671875 
Q 3.609375 17.484375 5.34375 20.625 
Q 7.078125 23.78125 9.890625 25.6875 
Q 12.703125 27.59375 16.21875 28.5625 
Q 18.796875 29.25 24.03125 29.890625 
Q 34.671875 31.15625 39.703125 32.90625 
Q 39.75 34.71875 39.75 35.203125 
Q 39.75 40.578125 37.25 42.78125 
Q 33.890625 45.75 27.25 45.75 
Q 21.046875 45.75 18.09375 43.578125 
Q 15.140625 41.40625 13.71875 35.890625 
L 5.125 37.0625 
Q 6.296875 42.578125 8.984375 45.96875 
Q 11.671875 49.359375 16.75 51.1875 
Q 21.828125 53.03125 28.515625 53.03125 
Q 35.15625 53.03125 39.296875 51.46875 
Q 43.453125 49.90625 45.40625 47.53125 
Q 47.359375 45.171875 48.140625 41.546875 
Q 48.578125 39.3125 48.578125 33.453125 
L 48.578125 21.734375 
Q 48.578125 9.46875 49.140625 6.21875 
Q 49.703125 2.984375 51.375 0 
L 42.1875 0 
Q 40.828125 2.734375 40.4375 6.390625 
z
M 39.703125 26.03125 
Q 34.90625 24.078125 25.34375 22.703125 
Q 19.921875 21.921875 17.671875 20.9375 
Q 15.4375 19.96875 14.203125 18.09375 
Q 12.984375 16.21875 12.984375 13.921875 
Q 12.984375 10.40625 15.640625 8.0625 
Q 18.3125 5.71875 23.4375 5.71875 
Q 28.515625 5.71875 32.46875 7.9375 
Q 36.421875 10.15625 38.28125 14.015625 
Q 39.703125 17 39.703125 22.796875 
z
" id="ArialMT-97"/>
      <path d="M 42.09375 16.703125 
L 51.171875 15.578125 
Q 49.03125 7.625 43.21875 3.21875 
Q 37.40625 -1.171875 28.375 -1.171875 
Q 17 -1.171875 10.328125 5.828125 
Q 3.65625 12.84375 3.65625 25.484375 
Q 3.65625 38.578125 10.390625 45.796875 
Q 17.140625 53.03125 27.875 53.03125 
Q 38.28125 53.03125 44.875 45.953125 
Q 51.46875 38.875 51.46875 26.03125 
Q 51.46875 25.25 51.421875 23.6875 
L 12.75 23.6875 
Q 13.234375 15.140625 17.578125 10.59375 
Q 21.921875 6.0625 28.421875 6.0625 
Q 33.25 6.0625 36.671875 8.59375 
Q 40.09375 11.140625 42.09375 16.703125 
z
M 13.234375 30.90625 
L 42.1875 30.90625 
Q 41.609375 37.453125 38.875 40.71875 
Q 34.671875 45.796875 27.984375 45.796875 
Q 21.921875 45.796875 17.796875 41.75 
Q 13.671875 37.703125 13.234375 30.90625 
z
" id="ArialMT-101"/>
     </defs>
     <g style="fill:#262626;" transform="translate(248.519855 450.024259)scale(0.1 -0.1)">
      <use xlink:href="#ArialMT-65"/>
      <use x="66.699219" xlink:href="#ArialMT-99"/>
      <use x="116.699219" xlink:href="#ArialMT-113"/>
      <use x="172.314453" xlink:href="#ArialMT-117"/>
      <use x="227.929688" xlink:href="#ArialMT-105"/>
      <use x="250.146484" xlink:href="#ArialMT-115"/>
      <use x="300.146484" xlink:href="#ArialMT-105"/>
      <use x="322.363281" xlink:href="#ArialMT-116"/>
      <use x="350.146484" xlink:href="#ArialMT-105"/>
      <use x="372.363281" xlink:href="#ArialMT-111"/>
      <use x="427.978516" xlink:href="#ArialMT-110"/>
      <use x="483.59375" xlink:href="#ArialMT-32"/>
      <use x="511.376953" xlink:href="#ArialMT-68"/>
      <use x="583.59375" xlink:href="#ArialMT-97"/>
      <use x="639.208984" xlink:href="#ArialMT-116"/>
      <use x="666.992188" xlink:href="#ArialMT-101"/>
     </g>
    </g>
   </g>
   <g id="matplotlib.axis_2">
    <g id="ytick_1">
     <g id="line2d_3">
      <path clip-path="url(#pf0fca15bd7)" d="M 41.245313 362.588939 
L 528.052209 362.588939 
" style="fill:none;stroke:#cccccc;stroke-linecap:round;stroke-width:0.8;"/>
     </g>
     <g id="text_4">
      <!-- 0.6 -->
      <defs>
       <path d="M 9.078125 0 
L 9.078125 10.015625 
L 19.09375 10.015625 
L 19.09375 0 
z
" id="ArialMT-46"/>
       <path d="M 49.75 54.046875 
L 41.015625 53.375 
Q 39.84375 58.546875 37.703125 60.890625 
Q 34.125 64.65625 28.90625 64.65625 
Q 24.703125 64.65625 21.53125 62.3125 
Q 17.390625 59.28125 14.984375 53.46875 
Q 12.59375 47.65625 12.5 36.921875 
Q 15.671875 41.75 20.265625 44.09375 
Q 24.859375 46.4375 29.890625 46.4375 
Q 38.671875 46.4375 44.84375 39.96875 
Q 51.03125 33.5 51.03125 23.25 
Q 51.03125 16.5 48.125 10.71875 
Q 45.21875 4.9375 40.140625 1.859375 
Q 35.0625 -1.21875 28.609375 -1.21875 
Q 17.625 -1.21875 10.6875 6.859375 
Q 3.765625 14.9375 3.765625 33.5 
Q 3.765625 54.25 11.421875 63.671875 
Q 18.109375 71.875 29.4375 71.875 
Q 37.890625 71.875 43.28125 67.140625 
Q 48.6875 62.40625 49.75 54.046875 
z
M 13.875 23.1875 
Q 13.875 18.65625 15.796875 14.5 
Q 17.71875 10.359375 21.1875 8.171875 
Q 24.65625 6 28.46875 6 
Q 34.03125 6 38.03125 10.484375 
Q 42.046875 14.984375 42.046875 22.703125 
Q 42.046875 30.125 38.078125 34.390625 
Q 34.125 38.671875 28.125 38.671875 
Q 22.171875 38.671875 18.015625 34.390625 
Q 13.875 30.125 13.875 23.1875 
z
" id="ArialMT-54"/>
      </defs>
      <g style="fill:#262626;" transform="translate(20.345313 366.167845)scale(0.1 -0.1)">
       <use xlink:href="#ArialMT-48"/>
       <use x="55.615234" xlink:href="#ArialMT-46"/>
       <use x="83.398438" xlink:href="#ArialMT-54"/>
      </g>
     </g>
    </g>
    <g id="ytick_2">
     <g id="line2d_4">
      <path clip-path="url(#pf0fca15bd7)" d="M 41.245313 291.137354 
L 528.052209 291.137354 
" style="fill:none;stroke:#cccccc;stroke-linecap:round;stroke-width:0.8;"/>
     </g>
     <g id="text_5">
      <!-- 0.8 -->
      <g style="fill:#262626;" transform="translate(20.345313 294.71626)scale(0.1 -0.1)">
       <use xlink:href="#ArialMT-48"/>
       <use x="55.615234" xlink:href="#ArialMT-46"/>
       <use x="83.398438" xlink:href="#ArialMT-56"/>
      </g>
     </g>
    </g>
    <g id="ytick_3">
     <g id="line2d_5">
      <path clip-path="url(#pf0fca15bd7)" d="M 41.245313 219.685769 
L 528.052209 219.685769 
" style="fill:none;stroke:#cccccc;stroke-linecap:round;stroke-width:0.8;"/>
     </g>
     <g id="text_6">
      <!-- 1.0 -->
      <g style="fill:#262626;" transform="translate(20.345313 223.264676)scale(0.1 -0.1)">
       <use xlink:href="#ArialMT-49"/>
       <use x="55.615234" xlink:href="#ArialMT-46"/>
       <use x="83.398438" xlink:href="#ArialMT-48"/>
      </g>
     </g>
    </g>
    <g id="ytick_4">
     <g id="line2d_6">
      <path clip-path="url(#pf0fca15bd7)" d="M 41.245313 148.234185 
L 528.052209 148.234185 
" style="fill:none;stroke:#cccccc;stroke-linecap:round;stroke-width:0.8;"/>
     </g>
     <g id="text_7">
      <!-- 1.2 -->
      <g style="fill:#262626;" transform="translate(20.345313 151.813091)scale(0.1 -0.1)">
       <use xlink:href="#ArialMT-49"/>
       <use x="55.615234" xlink:href="#ArialMT-46"/>
       <use x="83.398438" xlink:href="#ArialMT-50"/>
      </g>
     </g>
    </g>
    <g id="ytick_5">
     <g id="line2d_7">
      <path clip-path="url(#pf0fca15bd7)" d="M 41.245313 76.7826 
L 528.052209 76.7826 
" style="fill:none;stroke:#cccccc;stroke-linecap:round;stroke-width:0.8;"/>
     </g>
     <g id="text_8">
      <!-- 1.4 -->
      <defs>
       <path d="M 32.328125 0 
L 32.328125 17.140625 
L 1.265625 17.140625 
L 1.265625 25.203125 
L 33.9375 71.578125 
L 41.109375 71.578125 
L 41.109375 25.203125 
L 50.78125 25.203125 
L 50.78125 17.140625 
L 41.109375 17.140625 
L 41.109375 0 
z
M 32.328125 25.203125 
L 32.328125 57.46875 
L 9.90625 25.203125 
z
" id="ArialMT-52"/>
      </defs>
      <g style="fill:#262626;" transform="translate(20.345313 80.361506)scale(0.1 -0.1)">
       <use xlink:href="#ArialMT-49"/>
       <use x="55.615234" xlink:href="#ArialMT-46"/>
       <use x="83.398438" xlink:href="#ArialMT-52"/>
      </g>
     </g>
    </g>
    <g id="text_9">
     <!-- TIC -->
     <defs>
      <path d="M 25.921875 0 
L 25.921875 63.140625 
L 2.34375 63.140625 
L 2.34375 71.578125 
L 59.078125 71.578125 
L 59.078125 63.140625 
L 35.40625 63.140625 
L 35.40625 0 
z
" id="ArialMT-84"/>
      <path d="M 9.328125 0 
L 9.328125 71.578125 
L 18.796875 71.578125 
L 18.796875 0 
z
" id="ArialMT-73"/>
      <path d="M 58.796875 25.09375 
L 68.265625 22.703125 
Q 65.28125 11.03125 57.546875 4.90625 
Q 49.8125 -1.21875 38.625 -1.21875 
Q 27.046875 -1.21875 19.796875 3.484375 
Q 12.546875 8.203125 8.765625 17.140625 
Q 4.984375 26.078125 4.984375 36.328125 
Q 4.984375 47.515625 9.25 55.828125 
Q 13.53125 64.15625 21.40625 68.46875 
Q 29.296875 72.796875 38.765625 72.796875 
Q 49.515625 72.796875 56.828125 67.328125 
Q 64.15625 61.859375 67.046875 51.953125 
L 57.71875 49.75 
Q 55.21875 57.5625 50.484375 61.125 
Q 45.75 64.703125 38.578125 64.703125 
Q 30.328125 64.703125 24.78125 60.734375 
Q 19.234375 56.78125 16.984375 50.109375 
Q 14.75 43.453125 14.75 36.375 
Q 14.75 27.25 17.40625 20.4375 
Q 20.0625 13.625 25.671875 10.25 
Q 31.296875 6.890625 37.84375 6.890625 
Q 45.796875 6.890625 51.3125 11.46875 
Q 56.84375 16.0625 58.796875 25.09375 
z
" id="ArialMT-67"/>
     </defs>
     <g style="fill:#262626;" transform="translate(14.357813 215.671719)rotate(-90)scale(0.1 -0.1)">
      <use xlink:href="#ArialMT-84"/>
      <use x="61.083984" xlink:href="#ArialMT-73"/>
      <use x="88.867188" xlink:href="#ArialMT-67"/>
     </g>
    </g>
    <g id="text_10">
     <!-- 1e9 -->
     <g style="fill:#262626;" transform="translate(41.245313 14.357812)scale(0.1 -0.1)">
      <use xlink:href="#ArialMT-49"/>
      <use x="55.615234" xlink:href="#ArialMT-101"/>
      <use x="111.230469" xlink:href="#ArialMT-57"/>
     </g>
    </g>
   </g>
   <g id="line2d_8">
    <defs>
     <path d="M 0 3 
C 0.795609 3 1.55874 2.683901 2.12132 2.12132 
C 2.683901 1.55874 3 0.795609 3 0 
C 3 -0.795609 2.683901 -1.55874 2.12132 -2.12132 
C 1.55874 -2.683901 0.795609 -3 0 -3 
C -0.795609 -3 -1.55874 -2.683901 -2.12132 -2.12132 
C -2.683901 -1.55874 -3 -0.795609 -3 0 
C -3 0.795609 -2.683901 1.55874 -2.12132 2.12132 
C -1.55874 2.683901 -0.795609 3 0 3 
z
" id="m543dd65d30" style="stroke:#4c72b0;"/>
    </defs>
    <g clip-path="url(#pf0fca15bd7)">
     <use style="fill:#4c72b0;stroke:#4c72b0;" x="407.159006" xlink:href="#m543dd65d30" y="181.669409"/>
     <use style="fill:#4c72b0;stroke:#4c72b0;" x="213.113866" xlink:href="#m543dd65d30" y="165.970621"/>
     <use style="fill:#4c72b0;stroke:#4c72b0;" x="210.803804" xlink:href="#m543dd65d30" y="178.429976"/>
     <use style="fill:#4c72b0;stroke:#4c72b0;" x="201.56356" xlink:href="#m543dd65d30" y="155.340591"/>
     <use style="fill:#4c72b0;stroke:#4c72b0;" x="238.678543" xlink:href="#m543dd65d30" y="163.530111"/>
     <use style="fill:#4c72b0;stroke:#4c72b0;" x="400.228823" xlink:href="#m543dd65d30" y="201.925736"/>
     <use style="fill:#4c72b0;stroke:#4c72b0;" x="229.438298" xlink:href="#m543dd65d30" y="147.327077"/>
     <use style="fill:#4c72b0;stroke:#4c72b0;" x="259.623098" xlink:href="#m543dd65d30" y="165.247317"/>
     <use style="fill:#4c72b0;stroke:#4c72b0;" x="289.807897" xlink:href="#m543dd65d30" y="185.863454"/>
     <use style="fill:#4c72b0;stroke:#4c72b0;" x="231.748359" xlink:href="#m543dd65d30" y="154.76258"/>
     <use style="fill:#4c72b0;stroke:#4c72b0;" x="365.423901" xlink:href="#m543dd65d30" y="174.346287"/>
     <use style="fill:#4c72b0;stroke:#4c72b0;" x="245.608727" xlink:href="#m543dd65d30" y="175.839839"/>
     <use style="fill:#4c72b0;stroke:#4c72b0;" x="324.61282" xlink:href="#m543dd65d30" y="155.896277"/>
     <use style="fill:#4c72b0;stroke:#4c72b0;" x="273.483465" xlink:href="#m543dd65d30" y="173.289574"/>
     <use style="fill:#4c72b0;stroke:#4c72b0;" x="372.354084" xlink:href="#m543dd65d30" y="206.304131"/>
     <use style="fill:#4c72b0;stroke:#4c72b0;" x="390.988578" xlink:href="#m543dd65d30" y="187.027407"/>
     <use style="fill:#4c72b0;stroke:#4c72b0;" x="171.37876" xlink:href="#m543dd65d30" y="149.542959"/>
     <use style="fill:#4c72b0;stroke:#4c72b0;" x="220.044049" xlink:href="#m543dd65d30" y="169.668451"/>
     <use style="fill:#4c72b0;stroke:#4c72b0;" x="196.943437" xlink:href="#m543dd65d30" y="149.01182"/>
     <use style="fill:#4c72b0;stroke:#4c72b0;" x="257.313037" xlink:href="#m543dd65d30" y="169.599268"/>
     <use style="fill:#4c72b0;stroke:#4c72b0;" x="376.974207" xlink:href="#m543dd65d30" y="213.440987"/>
     <use style="fill:#4c72b0;stroke:#4c72b0;" x="409.469068" xlink:href="#m543dd65d30" y="182.079415"/>
     <use style="fill:#4c72b0;stroke:#4c72b0;" x="310.752452" xlink:href="#m543dd65d30" y="171.720921"/>
     <use style="fill:#4c72b0;stroke:#4c72b0;" x="266.553281" xlink:href="#m543dd65d30" y="181.639133"/>
     <use style="fill:#4c72b0;stroke:#4c72b0;" x="381.594329" xlink:href="#m543dd65d30" y="178.386958"/>
     <use style="fill:#4c72b0;stroke:#4c72b0;" x="299.048142" xlink:href="#m543dd65d30" y="171.825747"/>
     <use style="fill:#4c72b0;stroke:#4c72b0;" x="275.793526" xlink:href="#m543dd65d30" y="196.357561"/>
     <use style="fill:#4c72b0;stroke:#4c72b0;" x="234.058421" xlink:href="#m543dd65d30" y="149.955848"/>
     <use style="fill:#4c72b0;stroke:#4c72b0;" x="182.929066" xlink:href="#m543dd65d30" y="161.447244"/>
     <use style="fill:#4c72b0;stroke:#4c72b0;" x="317.682636" xlink:href="#m543dd65d30" y="180.43561"/>
     <use style="fill:#4c72b0;stroke:#4c72b0;" x="294.42802" xlink:href="#m543dd65d30" y="157.325275"/>
     <use style="fill:#4c72b0;stroke:#4c72b0;" x="287.497836" xlink:href="#m543dd65d30" y="171.556043"/>
     <use style="fill:#4c72b0;stroke:#4c72b0;" x="240.988604" xlink:href="#m543dd65d30" y="190.627191"/>
     <use style="fill:#4c72b0;stroke:#4c72b0;" x="243.298665" xlink:href="#m543dd65d30" y="158.009125"/>
     <use style="fill:#4c72b0;stroke:#4c72b0;" x="227.128237" xlink:href="#m543dd65d30" y="161.45928"/>
     <use style="fill:#4c72b0;stroke:#4c72b0;" x="282.877714" xlink:href="#m543dd65d30" y="180.948006"/>
     <use style="fill:#4c72b0;stroke:#4c72b0;" x="386.368456" xlink:href="#m543dd65d30" y="167.621264"/>
     <use style="fill:#4c72b0;stroke:#4c72b0;" x="331.543003" xlink:href="#m543dd65d30" y="172.302657"/>
     <use style="fill:#4c72b0;stroke:#4c72b0;" x="296.738081" xlink:href="#m543dd65d30" y="191.71875"/>
     <use style="fill:#4c72b0;stroke:#4c72b0;" x="178.308944" xlink:href="#m543dd65d30" y="148.948221"/>
     <use style="fill:#4c72b0;stroke:#4c72b0;" x="271.173404" xlink:href="#m543dd65d30" y="176.789224"/>
     <use style="fill:#4c72b0;stroke:#4c72b0;" x="199.253498" xlink:href="#m543dd65d30" y="169.07152"/>
     <use style="fill:#4c72b0;stroke:#4c72b0;" x="393.298639" xlink:href="#m543dd65d30" y="180.070552"/>
     <use style="fill:#4c72b0;stroke:#4c72b0;" x="255.002975" xlink:href="#m543dd65d30" y="179.625481"/>
     <use style="fill:#4c72b0;stroke:#4c72b0;" x="379.284268" xlink:href="#m543dd65d30" y="209.150534"/>
     <use style="fill:#4c72b0;stroke:#4c72b0;" x="261.933159" xlink:href="#m543dd65d30" y="155.486818"/>
     <use style="fill:#4c72b0;stroke:#4c72b0;" x="308.442391" xlink:href="#m543dd65d30" y="169.944479"/>
     <use style="fill:#4c72b0;stroke:#4c72b0;" x="363.113839" xlink:href="#m543dd65d30" y="193.706958"/>
     <use style="fill:#4c72b0;stroke:#4c72b0;" x="189.85925" xlink:href="#m543dd65d30" y="142.04231"/>
     <use style="fill:#4c72b0;stroke:#4c72b0;" x="285.187775" xlink:href="#m543dd65d30" y="179.548605"/>
     <use style="fill:#4c72b0;stroke:#4c72b0;" x="280.567653" xlink:href="#m543dd65d30" y="195.949576"/>
     <use style="fill:#4c72b0;stroke:#4c72b0;" x="313.062514" xlink:href="#m543dd65d30" y="161.411792"/>
     <use style="fill:#4c72b0;stroke:#4c72b0;" x="367.733962" xlink:href="#m543dd65d30" y="188.955275"/>
     <use style="fill:#4c72b0;stroke:#4c72b0;" x="175.998882" xlink:href="#m543dd65d30" y="165.519608"/>
     <use style="fill:#4c72b0;stroke:#4c72b0;" x="370.044023" xlink:href="#m543dd65d30" y="174.879112"/>
     <use style="fill:#4c72b0;stroke:#4c72b0;" x="185.239127" xlink:href="#m543dd65d30" y="158.443905"/>
     <use style="fill:#4c72b0;stroke:#4c72b0;" x="303.668265" xlink:href="#m543dd65d30" y="190.394005"/>
     <use style="fill:#4c72b0;stroke:#4c72b0;" x="322.302758" xlink:href="#m543dd65d30" y="161.852924"/>
     <use style="fill:#4c72b0;stroke:#4c72b0;" x="173.688821" xlink:href="#m543dd65d30" y="160.791585"/>
     <use style="fill:#4c72b0;stroke:#4c72b0;" x="252.692914" xlink:href="#m543dd65d30" y="177.922024"/>
     <use style="fill:#4c72b0;stroke:#4c72b0;" x="395.6087" xlink:href="#m543dd65d30" y="178.260059"/>
     <use style="fill:#4c72b0;stroke:#4c72b0;" x="397.918762" xlink:href="#m543dd65d30" y="197.315113"/>
     <use style="fill:#4c72b0;stroke:#4c72b0;" x="329.232942" xlink:href="#m543dd65d30" y="195.549279"/>
     <use style="fill:#4c72b0;stroke:#4c72b0;" x="217.733988" xlink:href="#m543dd65d30" y="152.320028"/>
     <use style="fill:#4c72b0;stroke:#4c72b0;" x="206.183682" xlink:href="#m543dd65d30" y="160.043911"/>
     <use style="fill:#4c72b0;stroke:#4c72b0;" x="315.372575" xlink:href="#m543dd65d30" y="178.333698"/>
     <use style="fill:#4c72b0;stroke:#4c72b0;" x="383.90439" xlink:href="#m543dd65d30" y="171.058387"/>
     <use style="fill:#4c72b0;stroke:#4c72b0;" x="247.918788" xlink:href="#m543dd65d30" y="174.13138"/>
     <use style="fill:#4c72b0;stroke:#4c72b0;" x="404.848945" xlink:href="#m543dd65d30" y="218.614897"/>
     <use style="fill:#4c72b0;stroke:#4c72b0;" x="301.358203" xlink:href="#m543dd65d30" y="159.110621"/>
     <use style="fill:#4c72b0;stroke:#4c72b0;" x="192.169311" xlink:href="#m543dd65d30" y="164.260989"/>
     <use style="fill:#4c72b0;stroke:#4c72b0;" x="268.863343" xlink:href="#m543dd65d30" y="177.94231"/>
     <use style="fill:#4c72b0;stroke:#4c72b0;" x="326.922881" xlink:href="#m543dd65d30" y="155.949282"/>
     <use style="fill:#4c72b0;stroke:#4c72b0;" x="203.873621" xlink:href="#m543dd65d30" y="161.937183"/>
     <use style="fill:#4c72b0;stroke:#4c72b0;" x="215.423927" xlink:href="#m543dd65d30" y="181.226945"/>
     <use style="fill:#4c72b0;stroke:#4c72b0;" x="224.818176" xlink:href="#m543dd65d30" y="154.803467"/>
     <use style="fill:#4c72b0;stroke:#4c72b0;" x="187.549188" xlink:href="#m543dd65d30" y="154.388519"/>
     <use style="fill:#4c72b0;stroke:#4c72b0;" x="169.068699" xlink:href="#m543dd65d30" y="165.479972"/>
    </g>
   </g>
   <g id="line2d_9">
    <defs>
     <path d="M -0 4 
L 4 -4 
L -4 -4 
z
" id="m295e5c7e92" style="stroke:#55a868;stroke-linejoin:miter;"/>
    </defs>
    <g clip-path="url(#pf0fca15bd7)">
     <use style="fill:#55a868;stroke:#55a868;stroke-linejoin:miter;" x="155.054328" xlink:href="#m295e5c7e92" y="138.530107"/>
     <use style="fill:#55a868;stroke:#55a868;stroke-linejoin:miter;" x="360.803778" xlink:href="#m295e5c7e92" y="168.561036"/>
     <use style="fill:#55a868;stroke:#55a868;stroke-linejoin:miter;" x="157.364389" xlink:href="#m295e5c7e92" y="144.890607"/>
     <use style="fill:#55a868;stroke:#55a868;stroke-linejoin:miter;" x="159.67445" xlink:href="#m295e5c7e92" y="145.969787"/>
     <use style="fill:#55a868;stroke:#55a868;stroke-linejoin:miter;" x="161.984511" xlink:href="#m295e5c7e92" y="139.304382"/>
     <use style="fill:#55a868;stroke:#55a868;stroke-linejoin:miter;" x="164.294572" xlink:href="#m295e5c7e92" y="139.600778"/>
     <use style="fill:#55a868;stroke:#55a868;stroke-linejoin:miter;" x="351.101521" xlink:href="#m295e5c7e92" y="168.954116"/>
     <use style="fill:#55a868;stroke:#55a868;stroke-linejoin:miter;" x="353.719591" xlink:href="#m295e5c7e92" y="169.455863"/>
     <use style="fill:#55a868;stroke:#55a868;stroke-linejoin:miter;" x="356.029652" xlink:href="#m295e5c7e92" y="172.560934"/>
     <use style="fill:#55a868;stroke:#55a868;stroke-linejoin:miter;" x="358.493717" xlink:href="#m295e5c7e92" y="170.952614"/>
     <use style="fill:#55a868;stroke:#55a868;stroke-linejoin:miter;" x="180.619005" xlink:href="#m295e5c7e92" y="144.177213"/>
     <use style="fill:#55a868;stroke:#55a868;stroke-linejoin:miter;" x="208.493743" xlink:href="#m295e5c7e92" y="156.921323"/>
     <use style="fill:#55a868;stroke:#55a868;stroke-linejoin:miter;" x="236.368482" xlink:href="#m295e5c7e92" y="152.672097"/>
     <use style="fill:#55a868;stroke:#55a868;stroke-linejoin:miter;" x="264.24322" xlink:href="#m295e5c7e92" y="160.797887"/>
     <use style="fill:#55a868;stroke:#55a868;stroke-linejoin:miter;" x="292.117959" xlink:href="#m295e5c7e92" y="154.563263"/>
     <use style="fill:#55a868;stroke:#55a868;stroke-linejoin:miter;" x="319.992697" xlink:href="#m295e5c7e92" y="154.085395"/>
     <use style="fill:#55a868;stroke:#55a868;stroke-linejoin:miter;" x="374.664145" xlink:href="#m295e5c7e92" y="168.314897"/>
     <use style="fill:#55a868;stroke:#55a868;stroke-linejoin:miter;" x="402.538884" xlink:href="#m295e5c7e92" y="179.092283"/>
    </g>
   </g>
   <g id="line2d_10">
    <defs>
     <path d="M 0 -4 
L -4 4 
L 4 4 
z
" id="mfc4f51444b" style="stroke:#c44e52;stroke-linejoin:miter;"/>
    </defs>
    <g clip-path="url(#pf0fca15bd7)">
     <use style="fill:#c44e52;stroke:#c44e52;stroke-linejoin:miter;" x="166.604634" xlink:href="#mfc4f51444b" y="139.252155"/>
     <use style="fill:#c44e52;stroke:#c44e52;stroke-linejoin:miter;" x="194.633376" xlink:href="#mfc4f51444b" y="144.184036"/>
     <use style="fill:#c44e52;stroke:#c44e52;stroke-linejoin:miter;" x="222.508115" xlink:href="#mfc4f51444b" y="145.103104"/>
     <use style="fill:#c44e52;stroke:#c44e52;stroke-linejoin:miter;" x="250.382853" xlink:href="#mfc4f51444b" y="144.718967"/>
     <use style="fill:#c44e52;stroke:#c44e52;stroke-linejoin:miter;" x="278.257591" xlink:href="#mfc4f51444b" y="155.846467"/>
     <use style="fill:#c44e52;stroke:#c44e52;stroke-linejoin:miter;" x="306.13233" xlink:href="#mfc4f51444b" y="153.584637"/>
     <use style="fill:#c44e52;stroke:#c44e52;stroke-linejoin:miter;" x="334.007068" xlink:href="#mfc4f51444b" y="153.911457"/>
     <use style="fill:#c44e52;stroke:#c44e52;stroke-linejoin:miter;" x="388.678517" xlink:href="#mfc4f51444b" y="174.059868"/>
    </g>
   </g>
   <g id="line2d_11">
    <defs>
     <path d="M -3 3 
L 3 3 
L 3 -3 
L -3 -3 
z
" id="m57e18bd9aa" style="stroke:#8172b3;stroke-linejoin:miter;"/>
    </defs>
    <g clip-path="url(#pf0fca15bd7)">
     <use style="fill:#8172b3;stroke:#8172b3;stroke-linejoin:miter;" x="41.245312" xlink:href="#m57e18bd9aa" y="342.918091"/>
     <use style="fill:#8172b3;stroke:#8172b3;stroke-linejoin:miter;" x="43.555374" xlink:href="#m57e18bd9aa" y="339.684395"/>
     <use style="fill:#8172b3;stroke:#8172b3;stroke-linejoin:miter;" x="45.865435" xlink:href="#m57e18bd9aa" y="341.988169"/>
     <use style="fill:#8172b3;stroke:#8172b3;stroke-linejoin:miter;" x="48.175496" xlink:href="#m57e18bd9aa" y="345.608631"/>
     <use style="fill:#8172b3;stroke:#8172b3;stroke-linejoin:miter;" x="50.485557" xlink:href="#m57e18bd9aa" y="338.975574"/>
     <use style="fill:#8172b3;stroke:#8172b3;stroke-linejoin:miter;" x="52.795618" xlink:href="#m57e18bd9aa" y="342.230794"/>
     <use style="fill:#8172b3;stroke:#8172b3;stroke-linejoin:miter;" x="55.259684" xlink:href="#m57e18bd9aa" y="337.127949"/>
     <use style="fill:#8172b3;stroke:#8172b3;stroke-linejoin:miter;" x="57.569745" xlink:href="#m57e18bd9aa" y="339.789903"/>
     <use style="fill:#8172b3;stroke:#8172b3;stroke-linejoin:miter;" x="59.879806" xlink:href="#m57e18bd9aa" y="339.721498"/>
     <use style="fill:#8172b3;stroke:#8172b3;stroke-linejoin:miter;" x="62.189867" xlink:href="#m57e18bd9aa" y="342.984597"/>
     <use style="fill:#8172b3;stroke:#8172b3;stroke-linejoin:miter;" x="64.499929" xlink:href="#m57e18bd9aa" y="283.426234"/>
     <use style="fill:#8172b3;stroke:#8172b3;stroke-linejoin:miter;" x="66.80999" xlink:href="#m57e18bd9aa" y="283.76722"/>
     <use style="fill:#8172b3;stroke:#8172b3;stroke-linejoin:miter;" x="69.120051" xlink:href="#m57e18bd9aa" y="282.285935"/>
     <use style="fill:#8172b3;stroke:#8172b3;stroke-linejoin:miter;" x="71.430112" xlink:href="#m57e18bd9aa" y="279.222319"/>
     <use style="fill:#8172b3;stroke:#8172b3;stroke-linejoin:miter;" x="73.740173" xlink:href="#m57e18bd9aa" y="285.687564"/>
     <use style="fill:#8172b3;stroke:#8172b3;stroke-linejoin:miter;" x="76.050235" xlink:href="#m57e18bd9aa" y="283.183691"/>
     <use style="fill:#8172b3;stroke:#8172b3;stroke-linejoin:miter;" x="78.360296" xlink:href="#m57e18bd9aa" y="281.141007"/>
     <use style="fill:#8172b3;stroke:#8172b3;stroke-linejoin:miter;" x="80.670357" xlink:href="#m57e18bd9aa" y="280.731647"/>
     <use style="fill:#8172b3;stroke:#8172b3;stroke-linejoin:miter;" x="83.134422" xlink:href="#m57e18bd9aa" y="284.412086"/>
     <use style="fill:#8172b3;stroke:#8172b3;stroke-linejoin:miter;" x="85.444483" xlink:href="#m57e18bd9aa" y="279.838424"/>
     <use style="fill:#8172b3;stroke:#8172b3;stroke-linejoin:miter;" x="87.754545" xlink:href="#m57e18bd9aa" y="241.346536"/>
     <use style="fill:#8172b3;stroke:#8172b3;stroke-linejoin:miter;" x="90.064606" xlink:href="#m57e18bd9aa" y="238.004163"/>
     <use style="fill:#8172b3;stroke:#8172b3;stroke-linejoin:miter;" x="92.374667" xlink:href="#m57e18bd9aa" y="239.973581"/>
     <use style="fill:#8172b3;stroke:#8172b3;stroke-linejoin:miter;" x="94.684728" xlink:href="#m57e18bd9aa" y="228.883006"/>
     <use style="fill:#8172b3;stroke:#8172b3;stroke-linejoin:miter;" x="96.994789" xlink:href="#m57e18bd9aa" y="231.490791"/>
     <use style="fill:#8172b3;stroke:#8172b3;stroke-linejoin:miter;" x="99.304851" xlink:href="#m57e18bd9aa" y="149.07822"/>
     <use style="fill:#8172b3;stroke:#8172b3;stroke-linejoin:miter;" x="101.614912" xlink:href="#m57e18bd9aa" y="163.306656"/>
     <use style="fill:#8172b3;stroke:#8172b3;stroke-linejoin:miter;" x="103.924973" xlink:href="#m57e18bd9aa" y="163.495917"/>
     <use style="fill:#8172b3;stroke:#8172b3;stroke-linejoin:miter;" x="106.235034" xlink:href="#m57e18bd9aa" y="137.29788"/>
     <use style="fill:#8172b3;stroke:#8172b3;stroke-linejoin:miter;" x="108.545095" xlink:href="#m57e18bd9aa" y="116.986131"/>
     <use style="fill:#8172b3;stroke:#8172b3;stroke-linejoin:miter;" x="110.855157" xlink:href="#m57e18bd9aa" y="118.010081"/>
     <use style="fill:#8172b3;stroke:#8172b3;stroke-linejoin:miter;" x="113.319222" xlink:href="#m57e18bd9aa" y="76.524156"/>
     <use style="fill:#8172b3;stroke:#8172b3;stroke-linejoin:miter;" x="115.629283" xlink:href="#m57e18bd9aa" y="75.625341"/>
     <use style="fill:#8172b3;stroke:#8172b3;stroke-linejoin:miter;" x="117.939344" xlink:href="#m57e18bd9aa" y="83.852854"/>
     <use style="fill:#8172b3;stroke:#8172b3;stroke-linejoin:miter;" x="120.249405" xlink:href="#m57e18bd9aa" y="81.471512"/>
     <use style="fill:#8172b3;stroke:#8172b3;stroke-linejoin:miter;" x="122.559467" xlink:href="#m57e18bd9aa" y="82.10455"/>
     <use style="fill:#8172b3;stroke:#8172b3;stroke-linejoin:miter;" x="124.869528" xlink:href="#m57e18bd9aa" y="41.887243"/>
     <use style="fill:#8172b3;stroke:#8172b3;stroke-linejoin:miter;" x="127.179589" xlink:href="#m57e18bd9aa" y="45.988266"/>
     <use style="fill:#8172b3;stroke:#8172b3;stroke-linejoin:miter;" x="129.48965" xlink:href="#m57e18bd9aa" y="68.970572"/>
     <use style="fill:#8172b3;stroke:#8172b3;stroke-linejoin:miter;" x="131.799711" xlink:href="#m57e18bd9aa" y="43.403339"/>
     <use style="fill:#8172b3;stroke:#8172b3;stroke-linejoin:miter;" x="134.109773" xlink:href="#m57e18bd9aa" y="86.126322"/>
     <use style="fill:#8172b3;stroke:#8172b3;stroke-linejoin:miter;" x="136.419834" xlink:href="#m57e18bd9aa" y="51.798215"/>
     <use style="fill:#8172b3;stroke:#8172b3;stroke-linejoin:miter;" x="138.729895" xlink:href="#m57e18bd9aa" y="49.079759"/>
     <use style="fill:#8172b3;stroke:#8172b3;stroke-linejoin:miter;" x="141.19396" xlink:href="#m57e18bd9aa" y="48.122091"/>
     <use style="fill:#8172b3;stroke:#8172b3;stroke-linejoin:miter;" x="143.504022" xlink:href="#m57e18bd9aa" y="34.654176"/>
     <use style="fill:#8172b3;stroke:#8172b3;stroke-linejoin:miter;" x="145.814083" xlink:href="#m57e18bd9aa" y="50.462351"/>
     <use style="fill:#8172b3;stroke:#8172b3;stroke-linejoin:miter;" x="528.052209" xlink:href="#m57e18bd9aa" y="378.770644"/>
     <use style="fill:#8172b3;stroke:#8172b3;stroke-linejoin:miter;" x="525.742148" xlink:href="#m57e18bd9aa" y="378.207142"/>
     <use style="fill:#8172b3;stroke:#8172b3;stroke-linejoin:miter;" x="523.278083" xlink:href="#m57e18bd9aa" y="380.581449"/>
     <use style="fill:#8172b3;stroke:#8172b3;stroke-linejoin:miter;" x="520.968021" xlink:href="#m57e18bd9aa" y="379.450547"/>
     <use style="fill:#8172b3;stroke:#8172b3;stroke-linejoin:miter;" x="518.65796" xlink:href="#m57e18bd9aa" y="378.642222"/>
     <use style="fill:#8172b3;stroke:#8172b3;stroke-linejoin:miter;" x="516.347899" xlink:href="#m57e18bd9aa" y="377.704152"/>
     <use style="fill:#8172b3;stroke:#8172b3;stroke-linejoin:miter;" x="514.037838" xlink:href="#m57e18bd9aa" y="376.370633"/>
     <use style="fill:#8172b3;stroke:#8172b3;stroke-linejoin:miter;" x="511.727777" xlink:href="#m57e18bd9aa" y="374.345556"/>
     <use style="fill:#8172b3;stroke:#8172b3;stroke-linejoin:miter;" x="509.417715" xlink:href="#m57e18bd9aa" y="375.611532"/>
     <use style="fill:#8172b3;stroke:#8172b3;stroke-linejoin:miter;" x="507.107654" xlink:href="#m57e18bd9aa" y="374.617121"/>
     <use style="fill:#8172b3;stroke:#8172b3;stroke-linejoin:miter;" x="504.797593" xlink:href="#m57e18bd9aa" y="325.826803"/>
     <use style="fill:#8172b3;stroke:#8172b3;stroke-linejoin:miter;" x="502.487532" xlink:href="#m57e18bd9aa" y="325.064309"/>
     <use style="fill:#8172b3;stroke:#8172b3;stroke-linejoin:miter;" x="500.177471" xlink:href="#m57e18bd9aa" y="321.156079"/>
     <use style="fill:#8172b3;stroke:#8172b3;stroke-linejoin:miter;" x="497.867409" xlink:href="#m57e18bd9aa" y="324.016459"/>
     <use style="fill:#8172b3;stroke:#8172b3;stroke-linejoin:miter;" x="495.403344" xlink:href="#m57e18bd9aa" y="322.667087"/>
     <use style="fill:#8172b3;stroke:#8172b3;stroke-linejoin:miter;" x="493.093283" xlink:href="#m57e18bd9aa" y="325.585102"/>
     <use style="fill:#8172b3;stroke:#8172b3;stroke-linejoin:miter;" x="490.783222" xlink:href="#m57e18bd9aa" y="321.960242"/>
     <use style="fill:#8172b3;stroke:#8172b3;stroke-linejoin:miter;" x="488.473161" xlink:href="#m57e18bd9aa" y="325.049238"/>
     <use style="fill:#8172b3;stroke:#8172b3;stroke-linejoin:miter;" x="486.163099" xlink:href="#m57e18bd9aa" y="322.510661"/>
     <use style="fill:#8172b3;stroke:#8172b3;stroke-linejoin:miter;" x="483.853038" xlink:href="#m57e18bd9aa" y="324.24399"/>
     <use style="fill:#8172b3;stroke:#8172b3;stroke-linejoin:miter;" x="481.542977" xlink:href="#m57e18bd9aa" y="277.48932"/>
     <use style="fill:#8172b3;stroke:#8172b3;stroke-linejoin:miter;" x="479.232916" xlink:href="#m57e18bd9aa" y="278.427464"/>
     <use style="fill:#8172b3;stroke:#8172b3;stroke-linejoin:miter;" x="476.922855" xlink:href="#m57e18bd9aa" y="280.044734"/>
     <use style="fill:#8172b3;stroke:#8172b3;stroke-linejoin:miter;" x="474.612793" xlink:href="#m57e18bd9aa" y="276.684592"/>
     <use style="fill:#8172b3;stroke:#8172b3;stroke-linejoin:miter;" x="472.302732" xlink:href="#m57e18bd9aa" y="281.335852"/>
     <use style="fill:#8172b3;stroke:#8172b3;stroke-linejoin:miter;" x="469.992671" xlink:href="#m57e18bd9aa" y="210.794021"/>
     <use style="fill:#8172b3;stroke:#8172b3;stroke-linejoin:miter;" x="467.528606" xlink:href="#m57e18bd9aa" y="211.961088"/>
     <use style="fill:#8172b3;stroke:#8172b3;stroke-linejoin:miter;" x="465.218544" xlink:href="#m57e18bd9aa" y="216.008313"/>
     <use style="fill:#8172b3;stroke:#8172b3;stroke-linejoin:miter;" x="462.908483" xlink:href="#m57e18bd9aa" y="164.390749"/>
     <use style="fill:#8172b3;stroke:#8172b3;stroke-linejoin:miter;" x="460.598422" xlink:href="#m57e18bd9aa" y="165.903885"/>
     <use style="fill:#8172b3;stroke:#8172b3;stroke-linejoin:miter;" x="458.288361" xlink:href="#m57e18bd9aa" y="164.698847"/>
     <use style="fill:#8172b3;stroke:#8172b3;stroke-linejoin:miter;" x="455.9783" xlink:href="#m57e18bd9aa" y="129.434366"/>
     <use style="fill:#8172b3;stroke:#8172b3;stroke-linejoin:miter;" x="453.668238" xlink:href="#m57e18bd9aa" y="120.130577"/>
     <use style="fill:#8172b3;stroke:#8172b3;stroke-linejoin:miter;" x="451.358177" xlink:href="#m57e18bd9aa" y="119.446252"/>
     <use style="fill:#8172b3;stroke:#8172b3;stroke-linejoin:miter;" x="449.048116" xlink:href="#m57e18bd9aa" y="115.754051"/>
     <use style="fill:#8172b3;stroke:#8172b3;stroke-linejoin:miter;" x="446.738055" xlink:href="#m57e18bd9aa" y="120.103207"/>
     <use style="fill:#8172b3;stroke:#8172b3;stroke-linejoin:miter;" x="444.427994" xlink:href="#m57e18bd9aa" y="81.626956"/>
     <use style="fill:#8172b3;stroke:#8172b3;stroke-linejoin:miter;" x="442.117932" xlink:href="#m57e18bd9aa" y="83.231036"/>
     <use style="fill:#8172b3;stroke:#8172b3;stroke-linejoin:miter;" x="439.653867" xlink:href="#m57e18bd9aa" y="79.762163"/>
     <use style="fill:#8172b3;stroke:#8172b3;stroke-linejoin:miter;" x="437.343806" xlink:href="#m57e18bd9aa" y="86.752516"/>
     <use style="fill:#8172b3;stroke:#8172b3;stroke-linejoin:miter;" x="435.033745" xlink:href="#m57e18bd9aa" y="91.400248"/>
     <use style="fill:#8172b3;stroke:#8172b3;stroke-linejoin:miter;" x="432.723684" xlink:href="#m57e18bd9aa" y="86.371877"/>
     <use style="fill:#8172b3;stroke:#8172b3;stroke-linejoin:miter;" x="430.413622" xlink:href="#m57e18bd9aa" y="85.128194"/>
     <use style="fill:#8172b3;stroke:#8172b3;stroke-linejoin:miter;" x="428.103561" xlink:href="#m57e18bd9aa" y="81.245298"/>
     <use style="fill:#8172b3;stroke:#8172b3;stroke-linejoin:miter;" x="425.7935" xlink:href="#m57e18bd9aa" y="76.536906"/>
     <use style="fill:#8172b3;stroke:#8172b3;stroke-linejoin:miter;" x="423.483439" xlink:href="#m57e18bd9aa" y="76.196135"/>
    </g>
   </g>
   <g id="patch_3">
    <path d="M 41.245313 397.877812 
L 41.245313 17.357812 
" style="fill:none;stroke:#cccccc;stroke-linecap:square;stroke-linejoin:miter;stroke-width:0.8;"/>
   </g>
   <g id="patch_4">
    <path d="M 528.052209 397.877812 
L 528.052209 17.357812 
" style="fill:none;stroke:#cccccc;stroke-linecap:square;stroke-linejoin:miter;stroke-width:0.8;"/>
   </g>
   <g id="patch_5">
    <path d="M 41.245312 397.877812 
L 528.052209 397.877812 
" style="fill:none;stroke:#cccccc;stroke-linecap:square;stroke-linejoin:miter;stroke-width:0.8;"/>
   </g>
   <g id="patch_6">
    <path d="M 41.245312 17.357812 
L 528.052209 17.357812 
" style="fill:none;stroke:#cccccc;stroke-linecap:square;stroke-linejoin:miter;stroke-width:0.8;"/>
   </g>
  </g>
  <g id="axes_2">
   <g id="patch_7">
    <path d="M 549.217726 397.877812 
L 655.045313 397.877812 
L 655.045313 17.357812 
L 549.217726 17.357812 
z
" style="fill:#ffffff;"/>
   </g>
   <g id="matplotlib.axis_3">
    <g id="xtick_3">
     <g id="text_11">
      <!-- SS -->
      <defs>
       <path d="M 4.5 23 
L 13.421875 23.78125 
Q 14.0625 18.40625 16.375 14.96875 
Q 18.703125 11.53125 23.578125 9.40625 
Q 28.46875 7.28125 34.578125 7.28125 
Q 39.984375 7.28125 44.140625 8.890625 
Q 48.296875 10.5 50.3125 13.296875 
Q 52.34375 16.109375 52.34375 19.4375 
Q 52.34375 22.796875 50.390625 25.3125 
Q 48.4375 27.828125 43.953125 29.546875 
Q 41.0625 30.671875 31.203125 33.03125 
Q 21.34375 35.40625 17.390625 37.5 
Q 12.25 40.1875 9.734375 44.15625 
Q 7.234375 48.140625 7.234375 53.078125 
Q 7.234375 58.5 10.296875 63.203125 
Q 13.375 67.921875 19.28125 70.359375 
Q 25.203125 72.796875 32.421875 72.796875 
Q 40.375 72.796875 46.453125 70.234375 
Q 52.546875 67.671875 55.8125 62.6875 
Q 59.078125 57.71875 59.328125 51.421875 
L 50.25 50.734375 
Q 49.515625 57.515625 45.28125 60.984375 
Q 41.0625 64.453125 32.8125 64.453125 
Q 24.21875 64.453125 20.28125 61.296875 
Q 16.359375 58.15625 16.359375 53.71875 
Q 16.359375 49.859375 19.140625 47.359375 
Q 21.875 44.875 33.421875 42.265625 
Q 44.96875 39.65625 49.265625 37.703125 
Q 55.515625 34.8125 58.484375 30.390625 
Q 61.46875 25.984375 61.46875 20.21875 
Q 61.46875 14.5 58.203125 9.4375 
Q 54.9375 4.390625 48.796875 1.578125 
Q 42.671875 -1.21875 35.015625 -1.21875 
Q 25.296875 -1.21875 18.71875 1.609375 
Q 12.15625 4.4375 8.421875 10.125 
Q 4.6875 15.828125 4.5 23 
z
" id="ArialMT-83"/>
      </defs>
      <g style="fill:#262626;" transform="translate(555.775862 412.035625)scale(0.1 -0.1)">
       <use xlink:href="#ArialMT-83"/>
       <use x="66.699219" xlink:href="#ArialMT-83"/>
      </g>
     </g>
    </g>
    <g id="xtick_4">
     <g id="text_12">
      <!-- SR -->
      <defs>
       <path d="M 7.859375 0 
L 7.859375 71.578125 
L 39.59375 71.578125 
Q 49.171875 71.578125 54.140625 69.640625 
Q 59.125 67.71875 62.109375 62.828125 
Q 65.09375 57.953125 65.09375 52.046875 
Q 65.09375 44.4375 60.15625 39.203125 
Q 55.21875 33.984375 44.921875 32.5625 
Q 48.6875 30.765625 50.640625 29 
Q 54.78125 25.203125 58.5 19.484375 
L 70.953125 0 
L 59.03125 0 
L 49.5625 14.890625 
Q 45.40625 21.34375 42.71875 24.75 
Q 40.046875 28.171875 37.921875 29.53125 
Q 35.796875 30.90625 33.59375 31.453125 
Q 31.984375 31.78125 28.328125 31.78125 
L 17.328125 31.78125 
L 17.328125 0 
z
M 17.328125 39.984375 
L 37.703125 39.984375 
Q 44.1875 39.984375 47.84375 41.328125 
Q 51.515625 42.671875 53.421875 45.625 
Q 55.328125 48.578125 55.328125 52.046875 
Q 55.328125 57.125 51.640625 60.390625 
Q 47.953125 63.671875 39.984375 63.671875 
L 17.328125 63.671875 
z
" id="ArialMT-82"/>
      </defs>
      <g style="fill:#262626;" transform="translate(581.956977 412.035625)scale(0.1 -0.1)">
       <use xlink:href="#ArialMT-83"/>
       <use x="66.699219" xlink:href="#ArialMT-82"/>
      </g>
     </g>
    </g>
    <g id="xtick_5">
     <g id="text_13">
      <!-- LTR -->
      <defs>
       <path d="M 7.328125 0 
L 7.328125 71.578125 
L 16.796875 71.578125 
L 16.796875 8.453125 
L 52.046875 8.453125 
L 52.046875 0 
z
" id="ArialMT-76"/>
      </defs>
      <g style="fill:#262626;" transform="translate(605.920124 412.035625)scale(0.1 -0.1)">
       <use xlink:href="#ArialMT-76"/>
       <use x="55.505859" xlink:href="#ArialMT-84"/>
       <use x="116.589844" xlink:href="#ArialMT-82"/>
      </g>
     </g>
    </g>
    <g id="xtick_6">
     <g id="text_14">
      <!-- SRD -->
      <g style="fill:#262626;" transform="translate(631.259833 412.035625)scale(0.1 -0.1)">
       <use xlink:href="#ArialMT-83"/>
       <use x="66.699219" xlink:href="#ArialMT-82"/>
       <use x="138.916016" xlink:href="#ArialMT-68"/>
      </g>
     </g>
    </g>
    <g id="text_15">
     <!-- Sample Type -->
     <defs>
      <path d="M 6.59375 0 
L 6.59375 51.859375 
L 14.453125 51.859375 
L 14.453125 44.578125 
Q 16.890625 48.390625 20.9375 50.703125 
Q 25 53.03125 30.171875 53.03125 
Q 35.9375 53.03125 39.625 50.640625 
Q 43.3125 48.25 44.828125 43.953125 
Q 50.984375 53.03125 60.84375 53.03125 
Q 68.5625 53.03125 72.703125 48.75 
Q 76.859375 44.484375 76.859375 35.59375 
L 76.859375 0 
L 68.109375 0 
L 68.109375 32.671875 
Q 68.109375 37.9375 67.25 40.25 
Q 66.40625 42.578125 64.15625 43.984375 
Q 61.921875 45.40625 58.890625 45.40625 
Q 53.421875 45.40625 49.796875 41.765625 
Q 46.1875 38.140625 46.1875 30.125 
L 46.1875 0 
L 37.40625 0 
L 37.40625 33.6875 
Q 37.40625 39.546875 35.25 42.46875 
Q 33.109375 45.40625 28.21875 45.40625 
Q 24.515625 45.40625 21.359375 43.453125 
Q 18.21875 41.5 16.796875 37.734375 
Q 15.375 33.984375 15.375 26.90625 
L 15.375 0 
z
" id="ArialMT-109"/>
      <path d="M 6.59375 -19.875 
L 6.59375 51.859375 
L 14.59375 51.859375 
L 14.59375 45.125 
Q 17.4375 49.078125 21 51.046875 
Q 24.5625 53.03125 29.640625 53.03125 
Q 36.28125 53.03125 41.359375 49.609375 
Q 46.4375 46.1875 49.015625 39.953125 
Q 51.609375 33.734375 51.609375 26.3125 
Q 51.609375 18.359375 48.75 11.984375 
Q 45.90625 5.609375 40.453125 2.21875 
Q 35.015625 -1.171875 29 -1.171875 
Q 24.609375 -1.171875 21.109375 0.6875 
Q 17.625 2.546875 15.375 5.375 
L 15.375 -19.875 
z
M 14.546875 25.640625 
Q 14.546875 15.625 18.59375 10.84375 
Q 22.65625 6.0625 28.421875 6.0625 
Q 34.28125 6.0625 38.453125 11.015625 
Q 42.625 15.96875 42.625 26.375 
Q 42.625 36.28125 38.546875 41.203125 
Q 34.46875 46.140625 28.8125 46.140625 
Q 23.1875 46.140625 18.859375 40.890625 
Q 14.546875 35.640625 14.546875 25.640625 
z
" id="ArialMT-112"/>
      <path d="M 6.390625 0 
L 6.390625 71.578125 
L 15.1875 71.578125 
L 15.1875 0 
z
" id="ArialMT-108"/>
      <path d="M 6.203125 -19.96875 
L 5.21875 -11.71875 
Q 8.109375 -12.5 10.25 -12.5 
Q 13.1875 -12.5 14.9375 -11.515625 
Q 16.703125 -10.546875 17.828125 -8.796875 
Q 18.65625 -7.46875 20.515625 -2.25 
Q 20.75 -1.515625 21.296875 -0.09375 
L 1.609375 51.859375 
L 11.078125 51.859375 
L 21.875 21.828125 
Q 23.96875 16.109375 25.640625 9.8125 
Q 27.15625 15.875 29.25 21.625 
L 40.328125 51.859375 
L 49.125 51.859375 
L 29.390625 -0.875 
Q 26.21875 -9.421875 24.46875 -12.640625 
Q 22.125 -17 19.09375 -19.015625 
Q 16.0625 -21.046875 11.859375 -21.046875 
Q 9.328125 -21.046875 6.203125 -19.96875 
z
" id="ArialMT-121"/>
     </defs>
     <g style="fill:#262626;" transform="translate(572.679957 425.302812)scale(0.1 -0.1)">
      <use xlink:href="#ArialMT-83"/>
      <use x="66.699219" xlink:href="#ArialMT-97"/>
      <use x="122.314453" xlink:href="#ArialMT-109"/>
      <use x="205.615234" xlink:href="#ArialMT-112"/>
      <use x="261.230469" xlink:href="#ArialMT-108"/>
      <use x="283.447266" xlink:href="#ArialMT-101"/>
      <use x="339.0625" xlink:href="#ArialMT-32"/>
      <use x="366.830078" xlink:href="#ArialMT-84"/>
      <use x="427.835938" xlink:href="#ArialMT-121"/>
      <use x="477.835938" xlink:href="#ArialMT-112"/>
      <use x="533.451172" xlink:href="#ArialMT-101"/>
     </g>
    </g>
   </g>
   <g id="matplotlib.axis_4">
    <g id="ytick_6">
     <g id="line2d_12">
      <path clip-path="url(#pe766417fa3)" d="M 549.217726 362.588939 
L 655.045313 362.588939 
" style="fill:none;stroke:#cccccc;stroke-linecap:round;stroke-width:0.8;"/>
     </g>
     <g id="text_16">
      <!-- 0.6 -->
      <g style="fill:#262626;" transform="translate(528.317726 366.167845)scale(0.1 -0.1)">
       <use xlink:href="#ArialMT-48"/>
       <use x="55.615234" xlink:href="#ArialMT-46"/>
       <use x="83.398438" xlink:href="#ArialMT-54"/>
      </g>
     </g>
    </g>
    <g id="ytick_7">
     <g id="line2d_13">
      <path clip-path="url(#pe766417fa3)" d="M 549.217726 291.137354 
L 655.045313 291.137354 
" style="fill:none;stroke:#cccccc;stroke-linecap:round;stroke-width:0.8;"/>
     </g>
     <g id="text_17">
      <!-- 0.8 -->
      <g style="fill:#262626;" transform="translate(528.317726 294.71626)scale(0.1 -0.1)">
       <use xlink:href="#ArialMT-48"/>
       <use x="55.615234" xlink:href="#ArialMT-46"/>
       <use x="83.398438" xlink:href="#ArialMT-56"/>
      </g>
     </g>
    </g>
    <g id="ytick_8">
     <g id="line2d_14">
      <path clip-path="url(#pe766417fa3)" d="M 549.217726 219.685769 
L 655.045313 219.685769 
" style="fill:none;stroke:#cccccc;stroke-linecap:round;stroke-width:0.8;"/>
     </g>
     <g id="text_18">
      <!-- 1.0 -->
      <g style="fill:#262626;" transform="translate(528.317726 223.264676)scale(0.1 -0.1)">
       <use xlink:href="#ArialMT-49"/>
       <use x="55.615234" xlink:href="#ArialMT-46"/>
       <use x="83.398438" xlink:href="#ArialMT-48"/>
      </g>
     </g>
    </g>
    <g id="ytick_9">
     <g id="line2d_15">
      <path clip-path="url(#pe766417fa3)" d="M 549.217726 148.234185 
L 655.045313 148.234185 
" style="fill:none;stroke:#cccccc;stroke-linecap:round;stroke-width:0.8;"/>
     </g>
     <g id="text_19">
      <!-- 1.2 -->
      <g style="fill:#262626;" transform="translate(528.317726 151.813091)scale(0.1 -0.1)">
       <use xlink:href="#ArialMT-49"/>
       <use x="55.615234" xlink:href="#ArialMT-46"/>
       <use x="83.398438" xlink:href="#ArialMT-50"/>
      </g>
     </g>
    </g>
    <g id="ytick_10">
     <g id="line2d_16">
      <path clip-path="url(#pe766417fa3)" d="M 549.217726 76.7826 
L 655.045313 76.7826 
" style="fill:none;stroke:#cccccc;stroke-linecap:round;stroke-width:0.8;"/>
     </g>
     <g id="text_20">
      <!-- 1.4 -->
      <g style="fill:#262626;" transform="translate(528.317726 80.361506)scale(0.1 -0.1)">
       <use xlink:href="#ArialMT-49"/>
       <use x="55.615234" xlink:href="#ArialMT-46"/>
       <use x="83.398438" xlink:href="#ArialMT-52"/>
      </g>
     </g>
    </g>
    <g id="text_21">
     <!-- 1e9 -->
     <g style="fill:#262626;" transform="translate(549.217726 14.357812)scale(0.1 -0.1)">
      <use xlink:href="#ArialMT-49"/>
      <use x="55.615234" xlink:href="#ArialMT-101"/>
      <use x="111.230469" xlink:href="#ArialMT-57"/>
     </g>
    </g>
   </g>
   <g id="PolyCollection_1">
    <defs>
     <path d="M 563.259209 -240.596862 
L 561.633141 -240.596862 
L 561.566786 -241.370323 
L 561.513751 -242.143783 
L 561.469929 -242.917244 
L 561.430496 -243.690704 
L 561.391296 -244.464165 
L 561.349627 -245.237625 
L 561.304368 -246.011086 
L 561.255761 -246.784546 
L 561.205193 -247.558006 
L 561.15515 -248.331467 
L 561.109155 -249.104927 
L 561.071402 -249.878388 
L 561.045885 -250.651848 
L 561.03514 -251.425309 
L 561.039003 -252.198769 
L 561.053816 -252.97223 
L 561.072351 -253.74569 
L 561.084386 -254.519151 
L 561.077681 -255.292611 
L 561.039134 -256.066072 
L 560.956141 -256.839532 
L 560.818376 -257.612993 
L 560.620097 -258.386453 
L 560.362673 -259.159914 
L 560.056433 -259.933374 
L 559.720702 -260.706835 
L 559.38125 -261.480295 
L 559.06541 -262.253756 
L 558.796299 -263.027216 
L 558.588189 -263.800677 
L 558.444788 -264.574137 
L 558.360926 -265.347597 
L 558.326572 -266.121058 
L 558.331137 -266.894518 
L 558.36595 -267.667979 
L 558.423833 -268.441439 
L 558.496058 -269.2149 
L 558.568188 -269.98836 
L 558.616753 -270.761821 
L 558.608495 -271.535281 
L 558.50323 -272.308742 
L 558.260382 -273.082202 
L 557.848228 -273.855663 
L 557.253892 -274.629123 
L 556.491379 -275.402584 
L 555.604804 -276.176044 
L 554.664817 -276.949505 
L 553.75796 -277.722965 
L 552.970876 -278.496426 
L 552.373189 -279.269886 
L 552.003646 -280.043347 
L 551.863416 -280.816807 
L 551.918478 -281.590268 
L 552.11033 -282.363728 
L 552.371847 -283.137188 
L 552.643644 -283.910649 
L 552.88638 -284.684109 
L 553.085831 -285.45757 
L 553.250004 -286.23103 
L 553.399987 -287.004491 
L 553.558083 -287.777951 
L 553.737285 -288.551412 
L 553.935378 -289.324872 
L 554.135088 -290.098333 
L 554.309588 -290.871793 
L 554.430941 -291.645254 
L 554.478457 -292.418714 
L 554.44442 -293.192175 
L 554.335875 -293.965635 
L 554.17257 -294.739096 
L 553.982121 -295.512556 
L 553.793932 -296.286017 
L 553.633463 -297.059477 
L 553.518284 -297.832938 
L 553.45695 -298.606398 
L 553.45099 -299.379858 
L 553.499145 -300.153319 
L 553.601922 -300.926779 
L 553.764086 -301.70024 
L 553.993498 -302.4737 
L 554.296478 -303.247161 
L 554.671918 -304.020621 
L 555.107392 -304.794082 
L 555.579905 -305.567542 
L 556.061687 -306.341003 
L 556.528826 -307.114463 
L 556.968888 -307.887924 
L 557.383927 -308.661384 
L 557.787423 -309.434845 
L 558.196531 -310.208305 
L 558.623172 -310.981766 
L 559.067835 -311.755226 
L 559.518562 -312.528687 
L 559.955094 -313.302147 
L 560.356 -314.075608 
L 560.705594 -314.849068 
L 560.997999 -315.622529 
L 561.237237 -316.395989 
L 561.434017 -317.169449 
L 563.458333 -317.169449 
L 563.458333 -317.169449 
L 563.655112 -316.395989 
L 563.89435 -315.622529 
L 564.186755 -314.849068 
L 564.536349 -314.075608 
L 564.937255 -313.302147 
L 565.373788 -312.528687 
L 565.824514 -311.755226 
L 566.269177 -310.981766 
L 566.695818 -310.208305 
L 567.104926 -309.434845 
L 567.508422 -308.661384 
L 567.923461 -307.887924 
L 568.363523 -307.114463 
L 568.830662 -306.341003 
L 569.312444 -305.567542 
L 569.784957 -304.794082 
L 570.220432 -304.020621 
L 570.595871 -303.247161 
L 570.898852 -302.4737 
L 571.128263 -301.70024 
L 571.290427 -300.926779 
L 571.393204 -300.153319 
L 571.441359 -299.379858 
L 571.435399 -298.606398 
L 571.374065 -297.832938 
L 571.258886 -297.059477 
L 571.098417 -296.286017 
L 570.910228 -295.512556 
L 570.719779 -294.739096 
L 570.556474 -293.965635 
L 570.447929 -293.192175 
L 570.413892 -292.418714 
L 570.461408 -291.645254 
L 570.582761 -290.871793 
L 570.757261 -290.098333 
L 570.956971 -289.324872 
L 571.155064 -288.551412 
L 571.334266 -287.777951 
L 571.492362 -287.004491 
L 571.642345 -286.23103 
L 571.806518 -285.45757 
L 572.005969 -284.684109 
L 572.248705 -283.910649 
L 572.520503 -283.137188 
L 572.782019 -282.363728 
L 572.973871 -281.590268 
L 573.028933 -280.816807 
L 572.888703 -280.043347 
L 572.51916 -279.269886 
L 571.921473 -278.496426 
L 571.134389 -277.722965 
L 570.227532 -276.949505 
L 569.287546 -276.176044 
L 568.40097 -275.402584 
L 567.638457 -274.629123 
L 567.044122 -273.855663 
L 566.631967 -273.082202 
L 566.389119 -272.308742 
L 566.283855 -271.535281 
L 566.275597 -270.761821 
L 566.324161 -269.98836 
L 566.396291 -269.2149 
L 566.468516 -268.441439 
L 566.526399 -267.667979 
L 566.561212 -266.894518 
L 566.565777 -266.121058 
L 566.531423 -265.347597 
L 566.447561 -264.574137 
L 566.304161 -263.800677 
L 566.09605 -263.027216 
L 565.826939 -262.253756 
L 565.5111 -261.480295 
L 565.171647 -260.706835 
L 564.835916 -259.933374 
L 564.529676 -259.159914 
L 564.272252 -258.386453 
L 564.073973 -257.612993 
L 563.936208 -256.839532 
L 563.853216 -256.066072 
L 563.814668 -255.292611 
L 563.807963 -254.519151 
L 563.819998 -253.74569 
L 563.838533 -252.97223 
L 563.853346 -252.198769 
L 563.857209 -251.425309 
L 563.846464 -250.651848 
L 563.820947 -249.878388 
L 563.783194 -249.104927 
L 563.737199 -248.331467 
L 563.687156 -247.558006 
L 563.636589 -246.784546 
L 563.587981 -246.011086 
L 563.542723 -245.237625 
L 563.501053 -244.464165 
L 563.461853 -243.690704 
L 563.42242 -242.917244 
L 563.378598 -242.143783 
L 563.325563 -241.370323 
L 563.259209 -240.596862 
z
" id="m68ed390cbb" style="stroke:#4c4c4c;stroke-width:1.5;"/>
    </defs>
    <g clip-path="url(#pe766417fa3)">
     <use style="fill:#5875a4;stroke:#4c4c4c;stroke-width:1.5;" x="0" xlink:href="#m68ed390cbb" y="459.211759"/>
    </g>
   </g>
   <g id="PolyCollection_2">
    <defs>
     <path d="M 591.056415 -280.119477 
L 586.749727 -280.119477 
L 586.718898 -280.529195 
L 586.713734 -280.938914 
L 586.722825 -281.348633 
L 586.731226 -281.758352 
L 586.721606 -282.168071 
L 586.675666 -282.57779 
L 586.57566 -282.987509 
L 586.405849 -283.397228 
L 586.153763 -283.806947 
L 585.811182 -284.216666 
L 585.374801 -284.626385 
L 584.846606 -285.036104 
L 584.234009 -285.445823 
L 583.549799 -285.855542 
L 582.811939 -286.265261 
L 582.043223 -286.67498 
L 581.270727 -287.084699 
L 580.52498 -287.494418 
L 579.838762 -287.904137 
L 579.245462 -288.313856 
L 578.776995 -288.723574 
L 578.461399 -289.133293 
L 578.320312 -289.543012 
L 578.366648 -289.952731 
L 578.602802 -290.36245 
L 579.019725 -290.772169 
L 579.597079 -291.181888 
L 580.30455 -291.591607 
L 581.104215 -292.001326 
L 581.953689 -292.411045 
L 582.80967 -292.820764 
L 583.631432 -293.230483 
L 584.383864 -293.640202 
L 585.039735 -294.049921 
L 585.580997 -294.45964 
L 585.999082 -294.869359 
L 586.294276 -295.279078 
L 586.474344 -295.688797 
L 586.552637 -296.098516 
L 586.545923 -296.508235 
L 586.472189 -296.917953 
L 586.348621 -297.327672 
L 586.189958 -297.737391 
L 586.007334 -298.14711 
L 585.807725 -298.556829 
L 585.593997 -298.966548 
L 585.365547 -299.376267 
L 585.119409 -299.785986 
L 584.851686 -300.195705 
L 584.559116 -300.605424 
L 584.240551 -301.015143 
L 583.898174 -301.424862 
L 583.538293 -301.834581 
L 583.171586 -302.2443 
L 582.812785 -302.654019 
L 582.479774 -303.063738 
L 582.192213 -303.473457 
L 581.969781 -303.883176 
L 581.830248 -304.292895 
L 581.787541 -304.702614 
L 581.850053 -305.112332 
L 582.019361 -305.522051 
L 582.289545 -305.93177 
L 582.64718 -306.341489 
L 583.072035 -306.751208 
L 583.538412 -307.160927 
L 584.016991 -307.570646 
L 584.47701 -307.980365 
L 584.888567 -308.390084 
L 585.224854 -308.799803 
L 585.464158 -309.209522 
L 585.591481 -309.619241 
L 585.599684 -310.02896 
L 585.490065 -310.438679 
L 585.27233 -310.848398 
L 584.963892 -311.258117 
L 584.58852 -311.667836 
L 584.17435 -312.077555 
L 583.751391 -312.487274 
L 583.348705 -312.896993 
L 582.99155 -313.306712 
L 582.698812 -313.71643 
L 582.481101 -314.126149 
L 582.339822 -314.535868 
L 582.267418 -314.945587 
L 582.248869 -315.355306 
L 582.264262 -315.765025 
L 582.292133 -316.174744 
L 582.31307 -316.584463 
L 582.313035 -316.994182 
L 582.285839 -317.403901 
L 582.234384 -317.81362 
L 582.170417 -318.223339 
L 582.112845 -318.633058 
L 582.084883 -319.042777 
L 582.1105 -319.452496 
L 582.210768 -319.862215 
L 582.400685 -320.271934 
L 582.68698 -320.681653 
L 595.119162 -320.681653 
L 595.119162 -320.681653 
L 595.405457 -320.271934 
L 595.595374 -319.862215 
L 595.695642 -319.452496 
L 595.72126 -319.042777 
L 595.693297 -318.633058 
L 595.635726 -318.223339 
L 595.571758 -317.81362 
L 595.520303 -317.403901 
L 595.493108 -316.994182 
L 595.493072 -316.584463 
L 595.51401 -316.174744 
L 595.54188 -315.765025 
L 595.557273 -315.355306 
L 595.538724 -314.945587 
L 595.466321 -314.535868 
L 595.325041 -314.126149 
L 595.107331 -313.71643 
L 594.814592 -313.306712 
L 594.457437 -312.896993 
L 594.054751 -312.487274 
L 593.631792 -312.077555 
L 593.217622 -311.667836 
L 592.84225 -311.258117 
L 592.533813 -310.848398 
L 592.316077 -310.438679 
L 592.206458 -310.02896 
L 592.214661 -309.619241 
L 592.341985 -309.209522 
L 592.581289 -308.799803 
L 592.917576 -308.390084 
L 593.329132 -307.980365 
L 593.789151 -307.570646 
L 594.267731 -307.160927 
L 594.734107 -306.751208 
L 595.158962 -306.341489 
L 595.516597 -305.93177 
L 595.786781 -305.522051 
L 595.956089 -305.112332 
L 596.018601 -304.702614 
L 595.975895 -304.292895 
L 595.836361 -303.883176 
L 595.61393 -303.473457 
L 595.326368 -303.063738 
L 594.993357 -302.654019 
L 594.634556 -302.2443 
L 594.26785 -301.834581 
L 593.907968 -301.424862 
L 593.565592 -301.015143 
L 593.247026 -300.605424 
L 592.954456 -300.195705 
L 592.686733 -299.785986 
L 592.440595 -299.376267 
L 592.212145 -298.966548 
L 591.998418 -298.556829 
L 591.798808 -298.14711 
L 591.616184 -297.737391 
L 591.457521 -297.327672 
L 591.333953 -296.917953 
L 591.260219 -296.508235 
L 591.253506 -296.098516 
L 591.331799 -295.688797 
L 591.511867 -295.279078 
L 591.80706 -294.869359 
L 592.225145 -294.45964 
L 592.766407 -294.049921 
L 593.422279 -293.640202 
L 594.17471 -293.230483 
L 594.996472 -292.820764 
L 595.852453 -292.411045 
L 596.701927 -292.001326 
L 597.501592 -291.591607 
L 598.209063 -291.181888 
L 598.786418 -290.772169 
L 599.203341 -290.36245 
L 599.439494 -289.952731 
L 599.48583 -289.543012 
L 599.344743 -289.133293 
L 599.029147 -288.723574 
L 598.56068 -288.313856 
L 597.96738 -287.904137 
L 597.281163 -287.494418 
L 596.535415 -287.084699 
L 595.762919 -286.67498 
L 594.994203 -286.265261 
L 594.256344 -285.855542 
L 593.572133 -285.445823 
L 592.959537 -285.036104 
L 592.431341 -284.626385 
L 591.99496 -284.216666 
L 591.652379 -283.806947 
L 591.400294 -283.397228 
L 591.230482 -282.987509 
L 591.130476 -282.57779 
L 591.084536 -282.168071 
L 591.074916 -281.758352 
L 591.083317 -281.348633 
L 591.092408 -280.938914 
L 591.087244 -280.529195 
L 591.056415 -280.119477 
z
" id="m09686c1814" style="stroke:#4c4c4c;stroke-width:1.5;"/>
    </defs>
    <g clip-path="url(#pe766417fa3)">
     <use style="fill:#5f9e6e;stroke:#4c4c4c;stroke-width:1.5;" x="0" xlink:href="#m09686c1814" y="459.211759"/>
    </g>
   </g>
   <g id="PolyCollection_3">
    <defs>
     <path d="M 618.884696 -285.151891 
L 611.83524 -285.151891 
L 611.880974 -285.503484 
L 612.014646 -285.855078 
L 612.226118 -286.206671 
L 612.499911 -286.558264 
L 612.81708 -286.909857 
L 613.157367 -287.26145 
L 613.501305 -287.613043 
L 613.831974 -287.964636 
L 614.136201 -288.316229 
L 614.405125 -288.667822 
L 614.634161 -289.019415 
L 614.822483 -289.371008 
L 614.972203 -289.722601 
L 615.087431 -290.074194 
L 615.173356 -290.425787 
L 615.235485 -290.77738 
L 615.27907 -291.128973 
L 615.308749 -291.480567 
L 615.328374 -291.83216 
L 615.340979 -292.183753 
L 615.348841 -292.535346 
L 615.353598 -292.886939 
L 615.356376 -293.238532 
L 615.357914 -293.590125 
L 615.35866 -293.941718 
L 615.358847 -294.293311 
L 615.358534 -294.644904 
L 615.357615 -294.996497 
L 615.355795 -295.34809 
L 615.352531 -295.699683 
L 615.34694 -296.051276 
L 615.337666 -296.402869 
L 615.322707 -296.754462 
L 615.299225 -297.106055 
L 615.263337 -297.457649 
L 615.209929 -297.809242 
L 615.132529 -298.160835 
L 615.023291 -298.512428 
L 614.873135 -298.864021 
L 614.672105 -299.215614 
L 614.409963 -299.567207 
L 614.077038 -299.9188 
L 613.665282 -300.270393 
L 613.169486 -300.621986 
L 612.588527 -300.973579 
L 611.926525 -301.325172 
L 611.193752 -301.676765 
L 610.407144 -302.028358 
L 609.590287 -302.379951 
L 608.772769 -302.731544 
L 607.988859 -303.083138 
L 607.275519 -303.434731 
L 606.669855 -303.786324 
L 606.206179 -304.137917 
L 605.912964 -304.48951 
L 605.810016 -304.841103 
L 605.906227 -305.192696 
L 606.198251 -305.544289 
L 606.670331 -305.895882 
L 607.295361 -306.247475 
L 608.037079 -306.599068 
L 608.853093 -306.950661 
L 609.698319 -307.302254 
L 610.528319 -307.653847 
L 611.302115 -308.00544 
L 611.984138 -308.357033 
L 612.545214 -308.708627 
L 612.962668 -309.06022 
L 613.219837 -309.411813 
L 613.30538 -309.763406 
L 613.212792 -310.114999 
L 612.940445 -310.466592 
L 612.492279 -310.818185 
L 611.879068 -311.169778 
L 611.119938 -311.521371 
L 610.24366 -311.872964 
L 609.289156 -312.224557 
L 608.304716 -312.57615 
L 607.345635 -312.927743 
L 606.470246 -313.279336 
L 605.734708 -313.630929 
L 605.187199 -313.982522 
L 604.862401 -314.334115 
L 604.777209 -314.685709 
L 604.928457 -315.037302 
L 605.29315 -315.388895 
L 605.831273 -315.740488 
L 606.490793 -316.092081 
L 607.214117 -316.443674 
L 607.945005 -316.795267 
L 608.634915 -317.14686 
L 609.247887 -317.498453 
L 609.763349 -317.850046 
L 610.176592 -318.201639 
L 610.497072 -318.553232 
L 610.744974 -318.904825 
L 610.946736 -319.256418 
L 611.130293 -319.608011 
L 611.320776 -319.959604 
L 619.39916 -319.959604 
L 619.39916 -319.959604 
L 619.589642 -319.608011 
L 619.773199 -319.256418 
L 619.974961 -318.904825 
L 620.222863 -318.553232 
L 620.543343 -318.201639 
L 620.956586 -317.850046 
L 621.472048 -317.498453 
L 622.085021 -317.14686 
L 622.774931 -316.795267 
L 623.505818 -316.443674 
L 624.229142 -316.092081 
L 624.888662 -315.740488 
L 625.426785 -315.388895 
L 625.791478 -315.037302 
L 625.942726 -314.685709 
L 625.857535 -314.334115 
L 625.532737 -313.982522 
L 624.985228 -313.630929 
L 624.249689 -313.279336 
L 623.3743 -312.927743 
L 622.415219 -312.57615 
L 621.430779 -312.224557 
L 620.476275 -311.872964 
L 619.599998 -311.521371 
L 618.840868 -311.169778 
L 618.227656 -310.818185 
L 617.77949 -310.466592 
L 617.507144 -310.114999 
L 617.414556 -309.763406 
L 617.500098 -309.411813 
L 617.757267 -309.06022 
L 618.174722 -308.708627 
L 618.735798 -308.357033 
L 619.417821 -308.00544 
L 620.191616 -307.653847 
L 621.021617 -307.302254 
L 621.866842 -306.950661 
L 622.682857 -306.599068 
L 623.424574 -306.247475 
L 624.049604 -305.895882 
L 624.521684 -305.544289 
L 624.813708 -305.192696 
L 624.909919 -304.841103 
L 624.806971 -304.48951 
L 624.513757 -304.137917 
L 624.050081 -303.786324 
L 623.444416 -303.434731 
L 622.731076 -303.083138 
L 621.947166 -302.731544 
L 621.129648 -302.379951 
L 620.312791 -302.028358 
L 619.526183 -301.676765 
L 618.79341 -301.325172 
L 618.131408 -300.973579 
L 617.55045 -300.621986 
L 617.054654 -300.270393 
L 616.642898 -299.9188 
L 616.309972 -299.567207 
L 616.04783 -299.215614 
L 615.8468 -298.864021 
L 615.696644 -298.512428 
L 615.587406 -298.160835 
L 615.510007 -297.809242 
L 615.456598 -297.457649 
L 615.42071 -297.106055 
L 615.397228 -296.754462 
L 615.382269 -296.402869 
L 615.372995 -296.051276 
L 615.367405 -295.699683 
L 615.364141 -295.34809 
L 615.36232 -294.996497 
L 615.361401 -294.644904 
L 615.361088 -294.293311 
L 615.361276 -293.941718 
L 615.362022 -293.590125 
L 615.363559 -293.238532 
L 615.366338 -292.886939 
L 615.371095 -292.535346 
L 615.378957 -292.183753 
L 615.391561 -291.83216 
L 615.411186 -291.480567 
L 615.440866 -291.128973 
L 615.484451 -290.77738 
L 615.54658 -290.425787 
L 615.632505 -290.074194 
L 615.747732 -289.722601 
L 615.897453 -289.371008 
L 616.085774 -289.019415 
L 616.31481 -288.667822 
L 616.583734 -288.316229 
L 616.887961 -287.964636 
L 617.21863 -287.613043 
L 617.562569 -287.26145 
L 617.902855 -286.909857 
L 618.220024 -286.558264 
L 618.493817 -286.206671 
L 618.705289 -285.855078 
L 618.838962 -285.503484 
L 618.884696 -285.151891 
z
" id="mc4a476265d" style="stroke:#4c4c4c;stroke-width:1.5;"/>
    </defs>
    <g clip-path="url(#pe766417fa3)">
     <use style="fill:#b55d60;stroke:#4c4c4c;stroke-width:1.5;" x="0" xlink:href="#mc4a476265d" y="459.211759"/>
    </g>
   </g>
   <g id="PolyCollection_4">
    <defs>
     <path d="M 648.103281 -78.63031 
L 635.530448 -78.63031 
L 635.057769 -82.124525 
L 634.614174 -85.61874 
L 634.196004 -89.112955 
L 633.797954 -92.60717 
L 633.414862 -96.101385 
L 633.043543 -99.5956 
L 632.684271 -103.089815 
L 632.341597 -106.584029 
L 632.024266 -110.078244 
L 631.744209 -113.572459 
L 631.514723 -117.066674 
L 631.348144 -120.560889 
L 631.253429 -124.055104 
L 631.234106 -127.549319 
L 631.286991 -131.043534 
L 631.401984 -134.537748 
L 631.563023 -138.031963 
L 631.750133 -141.526178 
L 631.942233 -145.020393 
L 632.120292 -148.514608 
L 632.270258 -152.008823 
L 632.385294 -155.503038 
L 632.466875 -158.997253 
L 632.524548 -162.491467 
L 632.574377 -165.985682 
L 632.636296 -169.479897 
L 632.730842 -172.974112 
L 632.875808 -176.468327 
L 633.083382 -179.962542 
L 633.358243 -183.456757 
L 633.696899 -186.950972 
L 634.088323 -190.445186 
L 634.515725 -193.939401 
L 634.959085 -197.433616 
L 635.398005 -200.927831 
L 635.814378 -204.422046 
L 636.194487 -207.916261 
L 636.530256 -211.410476 
L 636.819545 -214.904691 
L 637.065572 -218.398905 
L 637.27564 -221.89312 
L 637.459448 -225.387335 
L 637.627268 -228.88155 
L 637.788283 -232.375765 
L 637.949248 -235.86998 
L 638.113645 -239.364195 
L 638.281347 -242.85841 
L 638.4488 -246.352624 
L 638.609635 -249.846839 
L 638.755611 -253.341054 
L 638.877757 -256.835269 
L 638.96758 -260.329484 
L 639.018177 -263.823699 
L 639.025138 -267.317914 
L 638.987118 -270.812129 
L 638.906005 -274.306343 
L 638.786671 -277.800558 
L 638.636324 -281.294773 
L 638.463578 -284.788988 
L 638.277349 -288.283203 
L 638.085778 -291.777418 
L 637.895313 -295.271633 
L 637.71009 -298.765848 
L 637.531699 -302.260062 
L 637.359301 -305.754277 
L 637.190063 -309.248492 
L 637.019768 -312.742707 
L 636.843466 -316.236922 
L 636.656038 -319.731137 
L 636.4526 -323.225352 
L 636.228725 -326.719567 
L 635.980544 -330.213781 
L 635.704825 -333.707996 
L 635.399147 -337.202211 
L 635.062258 -340.696426 
L 634.694627 -344.190641 
L 634.299148 -347.684856 
L 633.881823 -351.179071 
L 633.45226 -354.673286 
L 633.023755 -358.1675 
L 632.612841 -361.661715 
L 632.238242 -365.15593 
L 631.919329 -368.650145 
L 631.674279 -372.14436 
L 631.518233 -375.638575 
L 631.461763 -379.13279 
L 631.509909 -382.627005 
L 631.661951 -386.121219 
L 631.911913 -389.615434 
L 632.249671 -393.109649 
L 632.662426 -396.603864 
L 633.136239 -400.098079 
L 633.657365 -403.592294 
L 634.213177 -407.086509 
L 634.792606 -410.580724 
L 635.386128 -414.074938 
L 635.985422 -417.569153 
L 636.582889 -421.063368 
L 637.171205 -424.557583 
L 646.462523 -424.557583 
L 646.462523 -424.557583 
L 647.050839 -421.063368 
L 647.648306 -417.569153 
L 648.2476 -414.074938 
L 648.841122 -410.580724 
L 649.420552 -407.086509 
L 649.976363 -403.592294 
L 650.497489 -400.098079 
L 650.971302 -396.603864 
L 651.384057 -393.109649 
L 651.721815 -389.615434 
L 651.971777 -386.121219 
L 652.12382 -382.627005 
L 652.171966 -379.13279 
L 652.115495 -375.638575 
L 651.959449 -372.14436 
L 651.714399 -368.650145 
L 651.395486 -365.15593 
L 651.020887 -361.661715 
L 650.609973 -358.1675 
L 650.181468 -354.673286 
L 649.751905 -351.179071 
L 649.334581 -347.684856 
L 648.939101 -344.190641 
L 648.571471 -340.696426 
L 648.234581 -337.202211 
L 647.928904 -333.707996 
L 647.653184 -330.213781 
L 647.405003 -326.719567 
L 647.181128 -323.225352 
L 646.977691 -319.731137 
L 646.790263 -316.236922 
L 646.613961 -312.742707 
L 646.443666 -309.248492 
L 646.274428 -305.754277 
L 646.102029 -302.260062 
L 645.923638 -298.765848 
L 645.738416 -295.271633 
L 645.54795 -291.777418 
L 645.356379 -288.283203 
L 645.170151 -284.788988 
L 644.997404 -281.294773 
L 644.847058 -277.800558 
L 644.727723 -274.306343 
L 644.646611 -270.812129 
L 644.60859 -267.317914 
L 644.615551 -263.823699 
L 644.666148 -260.329484 
L 644.755971 -256.835269 
L 644.878118 -253.341054 
L 645.024093 -249.846839 
L 645.184928 -246.352624 
L 645.352382 -242.85841 
L 645.520084 -239.364195 
L 645.68448 -235.86998 
L 645.845445 -232.375765 
L 646.00646 -228.88155 
L 646.174281 -225.387335 
L 646.358088 -221.89312 
L 646.568157 -218.398905 
L 646.814184 -214.904691 
L 647.103472 -211.410476 
L 647.439241 -207.916261 
L 647.819351 -204.422046 
L 648.235724 -200.927831 
L 648.674644 -197.433616 
L 649.118004 -193.939401 
L 649.545405 -190.445186 
L 649.93683 -186.950972 
L 650.275485 -183.456757 
L 650.550346 -179.962542 
L 650.757921 -176.468327 
L 650.902887 -172.974112 
L 650.997433 -169.479897 
L 651.059351 -165.985682 
L 651.10918 -162.491467 
L 651.166854 -158.997253 
L 651.248434 -155.503038 
L 651.363471 -152.008823 
L 651.513437 -148.514608 
L 651.691495 -145.020393 
L 651.883596 -141.526178 
L 652.070705 -138.031963 
L 652.231745 -134.537748 
L 652.346737 -131.043534 
L 652.399623 -127.549319 
L 652.380299 -124.055104 
L 652.285584 -120.560889 
L 652.119005 -117.066674 
L 651.88952 -113.572459 
L 651.609463 -110.078244 
L 651.292132 -106.584029 
L 650.949457 -103.089815 
L 650.590186 -99.5956 
L 650.218867 -96.101385 
L 649.835775 -92.60717 
L 649.437724 -89.112955 
L 649.019555 -85.61874 
L 648.575959 -82.124525 
L 648.103281 -78.63031 
z
" id="mce00aba4d2" style="stroke:#4c4c4c;stroke-width:1.5;"/>
    </defs>
    <g clip-path="url(#pe766417fa3)">
     <use style="fill:#857aab;stroke:#4c4c4c;stroke-width:1.5;" x="0" xlink:href="#mce00aba4d2" y="459.211759"/>
    </g>
   </g>
   <g id="line2d_17">
    <path clip-path="url(#pe766417fa3)" d="M 562.446175 209.150534 
L 562.446175 142.04231 
" style="fill:none;stroke:#4c4c4c;stroke-linecap:round;stroke-width:1.5;"/>
   </g>
   <g id="line2d_18">
    <path clip-path="url(#pe766417fa3)" d="M 562.446175 181.15721 
L 562.446175 160.946637 
" style="fill:none;stroke:#4c4c4c;stroke-linecap:round;stroke-width:4.5;"/>
   </g>
   <g id="line2d_19">
    <path clip-path="url(#pe766417fa3)" d="M 588.903071 179.092283 
L 588.903071 138.530107 
" style="fill:none;stroke:#4c4c4c;stroke-linecap:round;stroke-width:1.5;"/>
   </g>
   <g id="line2d_20">
    <path clip-path="url(#pe766417fa3)" d="M 588.903071 168.855846 
L 588.903071 145.160402 
" style="fill:none;stroke:#4c4c4c;stroke-linecap:round;stroke-width:4.5;"/>
   </g>
   <g id="line2d_21">
    <path clip-path="url(#pe766417fa3)" d="M 615.359968 155.846467 
L 615.359968 139.252155 
" style="fill:none;stroke:#4c4c4c;stroke-linecap:round;stroke-width:1.5;"/>
   </g>
   <g id="line2d_22">
    <path clip-path="url(#pe766417fa3)" d="M 615.359968 154.395209 
L 615.359968 144.585234 
" style="fill:none;stroke:#4c4c4c;stroke-linecap:round;stroke-width:4.5;"/>
   </g>
   <g id="line2d_23">
    <path clip-path="url(#pe766417fa3)" d="M 641.816864 380.581449 
L 641.816864 34.654176 
" style="fill:none;stroke:#4c4c4c;stroke-linecap:round;stroke-width:1.5;"/>
   </g>
   <g id="line2d_24">
    <path clip-path="url(#pe766417fa3)" d="M 641.816864 325.053006 
L 641.816864 86.657356 
" style="fill:none;stroke:#4c4c4c;stroke-linecap:round;stroke-width:4.5;"/>
   </g>
   <g id="patch_8">
    <path d="M 549.217726 362.588939 
L 549.217726 76.7826 
" style="fill:none;stroke:#cccccc;stroke-linecap:square;stroke-linejoin:miter;stroke-width:0.8;"/>
   </g>
   <g id="patch_9">
    <path d="M 562.446175 397.877812 
L 641.816864 397.877812 
" style="fill:none;stroke:#cccccc;stroke-linecap:square;stroke-linejoin:miter;stroke-width:0.8;"/>
   </g>
   <g id="PathCollection_1">
    <defs>
     <path d="M 0 1.5 
C 0.397805 1.5 0.77937 1.341951 1.06066 1.06066 
C 1.341951 0.77937 1.5 0.397805 1.5 0 
C 1.5 -0.397805 1.341951 -0.77937 1.06066 -1.06066 
C 0.77937 -1.341951 0.397805 -1.5 0 -1.5 
C -0.397805 -1.5 -0.77937 -1.341951 -1.06066 -1.06066 
C -1.341951 -0.77937 -1.5 -0.397805 -1.5 0 
C -1.5 0.397805 -1.341951 0.77937 -1.06066 1.06066 
C -0.77937 1.341951 -0.397805 1.5 0 1.5 
z
" id="m6277206152" style="stroke:#4c4c4c;"/>
    </defs>
    <g clip-path="url(#pe766417fa3)">
     <use style="fill:#ffffff;stroke:#4c4c4c;" x="562.446175" xlink:href="#m6277206152" y="171.773334"/>
    </g>
   </g>
   <g id="PathCollection_2">
    <g clip-path="url(#pe766417fa3)">
     <use style="fill:#ffffff;stroke:#4c4c4c;" x="588.903071" xlink:href="#m6277206152" y="155.742293"/>
    </g>
   </g>
   <g id="PathCollection_3">
    <g clip-path="url(#pe766417fa3)">
     <use style="fill:#ffffff;stroke:#4c4c4c;" x="615.359968" xlink:href="#m6277206152" y="149.343871"/>
    </g>
   </g>
   <g id="PathCollection_4">
    <g clip-path="url(#pe766417fa3)">
     <use style="fill:#ffffff;stroke:#4c4c4c;" x="641.816864" xlink:href="#m6277206152" y="240.660058"/>
    </g>
   </g>
  </g>
 </g>
 <defs>
  <clipPath id="pf0fca15bd7">
   <rect height="380.52" width="486.806897" x="41.245313" y="17.357812"/>
  </clipPath>
  <clipPath id="pe766417fa3">
   <rect height="380.52" width="105.827586" x="549.217726" y="17.357812"/>
  </clipPath>
 </defs>
</svg>
