<?xml version="1.0" encoding="utf-8" standalone="no"?>
<!DOCTYPE svg PUBLIC "-//W3C//DTD SVG 1.1//EN"
  "http://www.w3.org/Graphics/SVG/1.1/DTD/svg11.dtd">
<!-- Created with matplotlib (https://matplotlib.org/) -->
<svg height="427.949687pt" version="1.1" viewBox="0 0 668.767187 427.949687" width="668.767187pt" xmlns="http://www.w3.org/2000/svg" xmlns:xlink="http://www.w3.org/1999/xlink">
 <defs>
  <style type="text/css">
*{stroke-linecap:butt;stroke-linejoin:round;}
  </style>
 </defs>
 <g id="figure_1">
  <g id="patch_1">
   <path d="M 0 427.949687 
L 668.767187 427.949687 
L 668.767187 0 
L 0 0 
z
" style="fill:#ffffff;"/>
  </g>
  <g id="axes_1">
   <g id="patch_2">
    <path d="M 44.267188 391.22 
L 404.080981 391.22 
L 404.080981 10.7 
L 44.267188 10.7 
z
" style="fill:#ffffff;"/>
   </g>
   <g id="matplotlib.axis_1">
    <g id="xtick_1">
     <g id="line2d_1">
      <defs>
       <path d="M 0 0 
L 0 3.5 
" id="m62539d542c" style="stroke:#262626;stroke-width:0.8;"/>
      </defs>
      <g>
       <use style="fill:#262626;stroke:#262626;stroke-width:0.8;" x="67.637291" xlink:href="#m62539d542c" y="391.22"/>
      </g>
     </g>
     <g id="text_1">
      <!-- 60 -->
      <defs>
       <path d="M 49.75 54.046875 
L 41.015625 53.375 
Q 39.84375 58.546875 37.703125 60.890625 
Q 34.125 64.65625 28.90625 64.65625 
Q 24.703125 64.65625 21.53125 62.3125 
Q 17.390625 59.28125 14.984375 53.46875 
Q 12.59375 47.65625 12.5 36.921875 
Q 15.671875 41.75 20.265625 44.09375 
Q 24.859375 46.4375 29.890625 46.4375 
Q 38.671875 46.4375 44.84375 39.96875 
Q 51.03125 33.5 51.03125 23.25 
Q 51.03125 16.5 48.125 10.71875 
Q 45.21875 4.9375 40.140625 1.859375 
Q 35.0625 -1.21875 28.609375 -1.21875 
Q 17.625 -1.21875 10.6875 6.859375 
Q 3.765625 14.9375 3.765625 33.5 
Q 3.765625 54.25 11.421875 63.671875 
Q 18.109375 71.875 29.4375 71.875 
Q 37.890625 71.875 43.28125 67.140625 
Q 48.6875 62.40625 49.75 54.046875 
z
M 13.875 23.1875 
Q 13.875 18.65625 15.796875 14.5 
Q 17.71875 10.359375 21.1875 8.171875 
Q 24.65625 6 28.46875 6 
Q 34.03125 6 38.03125 10.484375 
Q 42.046875 14.984375 42.046875 22.703125 
Q 42.046875 30.125 38.078125 34.390625 
Q 34.125 38.671875 28.125 38.671875 
Q 22.171875 38.671875 18.015625 34.390625 
Q 13.875 30.125 13.875 23.1875 
z
" id="ArialMT-54"/>
       <path d="M 4.15625 35.296875 
Q 4.15625 48 6.765625 55.734375 
Q 9.375 63.484375 14.515625 67.671875 
Q 19.671875 71.875 27.484375 71.875 
Q 33.25 71.875 37.59375 69.546875 
Q 41.9375 67.234375 44.765625 62.859375 
Q 47.609375 58.5 49.21875 52.21875 
Q 50.828125 45.953125 50.828125 35.296875 
Q 50.828125 22.703125 48.234375 14.96875 
Q 45.65625 7.234375 40.5 3 
Q 35.359375 -1.21875 27.484375 -1.21875 
Q 17.140625 -1.21875 11.234375 6.203125 
Q 4.15625 15.140625 4.15625 35.296875 
z
M 13.1875 35.296875 
Q 13.1875 17.671875 17.3125 11.828125 
Q 21.4375 6 27.484375 6 
Q 33.546875 6 37.671875 11.859375 
Q 41.796875 17.71875 41.796875 35.296875 
Q 41.796875 52.984375 37.671875 58.78125 
Q 33.546875 64.59375 27.390625 64.59375 
Q 21.34375 64.59375 17.71875 59.46875 
Q 13.1875 52.9375 13.1875 35.296875 
z
" id="ArialMT-48"/>
      </defs>
      <g style="fill:#262626;" transform="translate(62.076354 405.377813)scale(0.1 -0.1)">
       <use xlink:href="#ArialMT-54"/>
       <use x="55.615234" xlink:href="#ArialMT-48"/>
      </g>
     </g>
    </g>
    <g id="xtick_2">
     <g id="line2d_2">
      <g>
       <use style="fill:#262626;stroke:#262626;stroke-width:0.8;" x="131.0199" xlink:href="#m62539d542c" y="391.22"/>
      </g>
     </g>
     <g id="text_2">
      <!-- 80 -->
      <defs>
       <path d="M 17.671875 38.8125 
Q 12.203125 40.828125 9.5625 44.53125 
Q 6.9375 48.25 6.9375 53.421875 
Q 6.9375 61.234375 12.546875 66.546875 
Q 18.171875 71.875 27.484375 71.875 
Q 36.859375 71.875 42.578125 66.421875 
Q 48.296875 60.984375 48.296875 53.171875 
Q 48.296875 48.1875 45.671875 44.5 
Q 43.0625 40.828125 37.75 38.8125 
Q 44.34375 36.671875 47.78125 31.875 
Q 51.21875 27.09375 51.21875 20.453125 
Q 51.21875 11.28125 44.71875 5.03125 
Q 38.234375 -1.21875 27.640625 -1.21875 
Q 17.046875 -1.21875 10.546875 5.046875 
Q 4.046875 11.328125 4.046875 20.703125 
Q 4.046875 27.6875 7.59375 32.390625 
Q 11.140625 37.109375 17.671875 38.8125 
z
M 15.921875 53.71875 
Q 15.921875 48.640625 19.1875 45.40625 
Q 22.46875 42.1875 27.6875 42.1875 
Q 32.765625 42.1875 36.015625 45.375 
Q 39.265625 48.578125 39.265625 53.21875 
Q 39.265625 58.0625 35.90625 61.359375 
Q 32.5625 64.65625 27.59375 64.65625 
Q 22.5625 64.65625 19.234375 61.421875 
Q 15.921875 58.203125 15.921875 53.71875 
z
M 13.09375 20.65625 
Q 13.09375 16.890625 14.875 13.375 
Q 16.65625 9.859375 20.171875 7.921875 
Q 23.6875 6 27.734375 6 
Q 34.03125 6 38.125 10.046875 
Q 42.234375 14.109375 42.234375 20.359375 
Q 42.234375 26.703125 38.015625 30.859375 
Q 33.796875 35.015625 27.4375 35.015625 
Q 21.234375 35.015625 17.15625 30.90625 
Q 13.09375 26.8125 13.09375 20.65625 
z
" id="ArialMT-56"/>
      </defs>
      <g style="fill:#262626;" transform="translate(125.458963 405.377813)scale(0.1 -0.1)">
       <use xlink:href="#ArialMT-56"/>
       <use x="55.615234" xlink:href="#ArialMT-48"/>
      </g>
     </g>
    </g>
    <g id="xtick_3">
     <g id="line2d_3">
      <g>
       <use style="fill:#262626;stroke:#262626;stroke-width:0.8;" x="194.402509" xlink:href="#m62539d542c" y="391.22"/>
      </g>
     </g>
     <g id="text_3">
      <!-- 100 -->
      <defs>
       <path d="M 37.25 0 
L 28.46875 0 
L 28.46875 56 
Q 25.296875 52.984375 20.140625 49.953125 
Q 14.984375 46.921875 10.890625 45.40625 
L 10.890625 53.90625 
Q 18.265625 57.375 23.78125 62.296875 
Q 29.296875 67.234375 31.59375 71.875 
L 37.25 71.875 
z
" id="ArialMT-49"/>
      </defs>
      <g style="fill:#262626;" transform="translate(186.061103 405.377813)scale(0.1 -0.1)">
       <use xlink:href="#ArialMT-49"/>
       <use x="55.615234" xlink:href="#ArialMT-48"/>
       <use x="111.230469" xlink:href="#ArialMT-48"/>
      </g>
     </g>
    </g>
    <g id="xtick_4">
     <g id="line2d_4">
      <g>
       <use style="fill:#262626;stroke:#262626;stroke-width:0.8;" x="257.785118" xlink:href="#m62539d542c" y="391.22"/>
      </g>
     </g>
     <g id="text_4">
      <!-- 120 -->
      <defs>
       <path d="M 50.34375 8.453125 
L 50.34375 0 
L 3.03125 0 
Q 2.9375 3.171875 4.046875 6.109375 
Q 5.859375 10.9375 9.828125 15.625 
Q 13.8125 20.3125 21.34375 26.46875 
Q 33.015625 36.03125 37.109375 41.625 
Q 41.21875 47.21875 41.21875 52.203125 
Q 41.21875 57.421875 37.46875 61 
Q 33.734375 64.59375 27.734375 64.59375 
Q 21.390625 64.59375 17.578125 60.78125 
Q 13.765625 56.984375 13.71875 50.25 
L 4.6875 51.171875 
Q 5.609375 61.28125 11.65625 66.578125 
Q 17.71875 71.875 27.9375 71.875 
Q 38.234375 71.875 44.234375 66.15625 
Q 50.25 60.453125 50.25 52 
Q 50.25 47.703125 48.484375 43.546875 
Q 46.734375 39.40625 42.65625 34.8125 
Q 38.578125 30.21875 29.109375 22.21875 
Q 21.1875 15.578125 18.9375 13.203125 
Q 16.703125 10.84375 15.234375 8.453125 
z
" id="ArialMT-50"/>
      </defs>
      <g style="fill:#262626;" transform="translate(249.443712 405.377813)scale(0.1 -0.1)">
       <use xlink:href="#ArialMT-49"/>
       <use x="55.615234" xlink:href="#ArialMT-50"/>
       <use x="111.230469" xlink:href="#ArialMT-48"/>
      </g>
     </g>
    </g>
    <g id="xtick_5">
     <g id="line2d_5">
      <g>
       <use style="fill:#262626;stroke:#262626;stroke-width:0.8;" x="321.167727" xlink:href="#m62539d542c" y="391.22"/>
      </g>
     </g>
     <g id="text_5">
      <!-- 140 -->
      <defs>
       <path d="M 32.328125 0 
L 32.328125 17.140625 
L 1.265625 17.140625 
L 1.265625 25.203125 
L 33.9375 71.578125 
L 41.109375 71.578125 
L 41.109375 25.203125 
L 50.78125 25.203125 
L 50.78125 17.140625 
L 41.109375 17.140625 
L 41.109375 0 
z
M 32.328125 25.203125 
L 32.328125 57.46875 
L 9.90625 25.203125 
z
" id="ArialMT-52"/>
      </defs>
      <g style="fill:#262626;" transform="translate(312.826321 405.377813)scale(0.1 -0.1)">
       <use xlink:href="#ArialMT-49"/>
       <use x="55.615234" xlink:href="#ArialMT-52"/>
       <use x="111.230469" xlink:href="#ArialMT-48"/>
      </g>
     </g>
    </g>
    <g id="xtick_6">
     <g id="line2d_6">
      <g>
       <use style="fill:#262626;stroke:#262626;stroke-width:0.8;" x="384.550336" xlink:href="#m62539d542c" y="391.22"/>
      </g>
     </g>
     <g id="text_6">
      <!-- 160 -->
      <g style="fill:#262626;" transform="translate(376.20893 405.377813)scale(0.1 -0.1)">
       <use xlink:href="#ArialMT-49"/>
       <use x="55.615234" xlink:href="#ArialMT-54"/>
       <use x="111.230469" xlink:href="#ArialMT-48"/>
      </g>
     </g>
    </g>
    <g id="text_7">
     <!-- Run Order -->
     <defs>
      <path d="M 7.859375 0 
L 7.859375 71.578125 
L 39.59375 71.578125 
Q 49.171875 71.578125 54.140625 69.640625 
Q 59.125 67.71875 62.109375 62.828125 
Q 65.09375 57.953125 65.09375 52.046875 
Q 65.09375 44.4375 60.15625 39.203125 
Q 55.21875 33.984375 44.921875 32.5625 
Q 48.6875 30.765625 50.640625 29 
Q 54.78125 25.203125 58.5 19.484375 
L 70.953125 0 
L 59.03125 0 
L 49.5625 14.890625 
Q 45.40625 21.34375 42.71875 24.75 
Q 40.046875 28.171875 37.921875 29.53125 
Q 35.796875 30.90625 33.59375 31.453125 
Q 31.984375 31.78125 28.328125 31.78125 
L 17.328125 31.78125 
L 17.328125 0 
z
M 17.328125 39.984375 
L 37.703125 39.984375 
Q 44.1875 39.984375 47.84375 41.328125 
Q 51.515625 42.671875 53.421875 45.625 
Q 55.328125 48.578125 55.328125 52.046875 
Q 55.328125 57.125 51.640625 60.390625 
Q 47.953125 63.671875 39.984375 63.671875 
L 17.328125 63.671875 
z
" id="ArialMT-82"/>
      <path d="M 40.578125 0 
L 40.578125 7.625 
Q 34.515625 -1.171875 24.125 -1.171875 
Q 19.53125 -1.171875 15.546875 0.578125 
Q 11.578125 2.34375 9.640625 5 
Q 7.71875 7.671875 6.9375 11.53125 
Q 6.390625 14.109375 6.390625 19.734375 
L 6.390625 51.859375 
L 15.1875 51.859375 
L 15.1875 23.09375 
Q 15.1875 16.21875 15.71875 13.8125 
Q 16.546875 10.359375 19.234375 8.375 
Q 21.921875 6.390625 25.875 6.390625 
Q 29.828125 6.390625 33.296875 8.421875 
Q 36.765625 10.453125 38.203125 13.9375 
Q 39.65625 17.4375 39.65625 24.078125 
L 39.65625 51.859375 
L 48.4375 51.859375 
L 48.4375 0 
z
" id="ArialMT-117"/>
      <path d="M 6.59375 0 
L 6.59375 51.859375 
L 14.5 51.859375 
L 14.5 44.484375 
Q 20.21875 53.03125 31 53.03125 
Q 35.6875 53.03125 39.625 51.34375 
Q 43.5625 49.65625 45.515625 46.921875 
Q 47.46875 44.1875 48.25 40.4375 
Q 48.734375 37.984375 48.734375 31.890625 
L 48.734375 0 
L 39.9375 0 
L 39.9375 31.546875 
Q 39.9375 36.921875 38.90625 39.578125 
Q 37.890625 42.234375 35.28125 43.8125 
Q 32.671875 45.40625 29.15625 45.40625 
Q 23.53125 45.40625 19.453125 41.84375 
Q 15.375 38.28125 15.375 28.328125 
L 15.375 0 
z
" id="ArialMT-110"/>
      <path id="ArialMT-32"/>
      <path d="M 4.828125 34.859375 
Q 4.828125 52.6875 14.390625 62.765625 
Q 23.96875 72.859375 39.109375 72.859375 
Q 49.03125 72.859375 56.984375 68.109375 
Q 64.9375 63.375 69.109375 54.90625 
Q 73.296875 46.4375 73.296875 35.6875 
Q 73.296875 24.8125 68.890625 16.21875 
Q 64.5 7.625 56.4375 3.203125 
Q 48.390625 -1.21875 39.0625 -1.21875 
Q 28.953125 -1.21875 20.984375 3.65625 
Q 13.03125 8.546875 8.921875 16.984375 
Q 4.828125 25.4375 4.828125 34.859375 
z
M 14.59375 34.71875 
Q 14.59375 21.78125 21.546875 14.328125 
Q 28.515625 6.890625 39.015625 6.890625 
Q 49.703125 6.890625 56.609375 14.40625 
Q 63.53125 21.921875 63.53125 35.75 
Q 63.53125 44.484375 60.578125 51 
Q 57.625 57.515625 51.921875 61.109375 
Q 46.234375 64.703125 39.15625 64.703125 
Q 29.109375 64.703125 21.84375 57.78125 
Q 14.59375 50.875 14.59375 34.71875 
z
" id="ArialMT-79"/>
      <path d="M 6.5 0 
L 6.5 51.859375 
L 14.40625 51.859375 
L 14.40625 44 
Q 17.4375 49.515625 20 51.265625 
Q 22.5625 53.03125 25.640625 53.03125 
Q 30.078125 53.03125 34.671875 50.203125 
L 31.640625 42.046875 
Q 28.421875 43.953125 25.203125 43.953125 
Q 22.3125 43.953125 20.015625 42.21875 
Q 17.71875 40.484375 16.75 37.40625 
Q 15.28125 32.71875 15.28125 27.15625 
L 15.28125 0 
z
" id="ArialMT-114"/>
      <path d="M 40.234375 0 
L 40.234375 6.546875 
Q 35.296875 -1.171875 25.734375 -1.171875 
Q 19.53125 -1.171875 14.328125 2.25 
Q 9.125 5.671875 6.265625 11.796875 
Q 3.421875 17.921875 3.421875 25.875 
Q 3.421875 33.640625 6 39.96875 
Q 8.59375 46.296875 13.765625 49.65625 
Q 18.953125 53.03125 25.34375 53.03125 
Q 30.03125 53.03125 33.6875 51.046875 
Q 37.359375 49.078125 39.65625 45.90625 
L 39.65625 71.578125 
L 48.390625 71.578125 
L 48.390625 0 
z
M 12.453125 25.875 
Q 12.453125 15.921875 16.640625 10.984375 
Q 20.84375 6.0625 26.5625 6.0625 
Q 32.328125 6.0625 36.34375 10.765625 
Q 40.375 15.484375 40.375 25.140625 
Q 40.375 35.796875 36.265625 40.765625 
Q 32.171875 45.75 26.171875 45.75 
Q 20.3125 45.75 16.375 40.96875 
Q 12.453125 36.1875 12.453125 25.875 
z
" id="ArialMT-100"/>
      <path d="M 42.09375 16.703125 
L 51.171875 15.578125 
Q 49.03125 7.625 43.21875 3.21875 
Q 37.40625 -1.171875 28.375 -1.171875 
Q 17 -1.171875 10.328125 5.828125 
Q 3.65625 12.84375 3.65625 25.484375 
Q 3.65625 38.578125 10.390625 45.796875 
Q 17.140625 53.03125 27.875 53.03125 
Q 38.28125 53.03125 44.875 45.953125 
Q 51.46875 38.875 51.46875 26.03125 
Q 51.46875 25.25 51.421875 23.6875 
L 12.75 23.6875 
Q 13.234375 15.140625 17.578125 10.59375 
Q 21.921875 6.0625 28.421875 6.0625 
Q 33.25 6.0625 36.671875 8.59375 
Q 40.09375 11.140625 42.09375 16.703125 
z
M 13.234375 30.90625 
L 42.1875 30.90625 
Q 41.609375 37.453125 38.875 40.71875 
Q 34.671875 45.796875 27.984375 45.796875 
Q 21.921875 45.796875 17.796875 41.75 
Q 13.671875 37.703125 13.234375 30.90625 
z
" id="ArialMT-101"/>
     </defs>
     <g style="fill:#262626;" transform="translate(200.833459 418.523125)scale(0.1 -0.1)">
      <use xlink:href="#ArialMT-82"/>
      <use x="72.216797" xlink:href="#ArialMT-117"/>
      <use x="127.832031" xlink:href="#ArialMT-110"/>
      <use x="183.447266" xlink:href="#ArialMT-32"/>
      <use x="211.230469" xlink:href="#ArialMT-79"/>
      <use x="289.013672" xlink:href="#ArialMT-114"/>
      <use x="322.314453" xlink:href="#ArialMT-100"/>
      <use x="377.929688" xlink:href="#ArialMT-101"/>
      <use x="433.544922" xlink:href="#ArialMT-114"/>
     </g>
    </g>
   </g>
   <g id="matplotlib.axis_2">
    <g id="ytick_1">
     <g id="line2d_7">
      <defs>
       <path d="M 0 0 
L -3.5 0 
" id="mbb0aff3f59" style="stroke:#262626;stroke-width:0.8;"/>
      </defs>
      <g>
       <use style="fill:#262626;stroke:#262626;stroke-width:0.8;" x="44.267188" xlink:href="#mbb0aff3f59" y="380.44195"/>
      </g>
     </g>
     <g id="text_8">
      <!-- 0 -->
      <g style="fill:#262626;" transform="translate(31.70625 384.020856)scale(0.1 -0.1)">
       <use xlink:href="#ArialMT-48"/>
      </g>
     </g>
    </g>
    <g id="ytick_2">
     <g id="line2d_8">
      <g>
       <use style="fill:#262626;stroke:#262626;stroke-width:0.8;" x="44.267188" xlink:href="#mbb0aff3f59" y="301.815309"/>
      </g>
     </g>
     <g id="text_9">
      <!-- 50 -->
      <defs>
       <path d="M 4.15625 18.75 
L 13.375 19.53125 
Q 14.40625 12.796875 18.140625 9.390625 
Q 21.875 6 27.15625 6 
Q 33.5 6 37.890625 10.78125 
Q 42.28125 15.578125 42.28125 23.484375 
Q 42.28125 31 38.0625 35.34375 
Q 33.84375 39.703125 27 39.703125 
Q 22.75 39.703125 19.328125 37.765625 
Q 15.921875 35.84375 13.96875 32.765625 
L 5.71875 33.84375 
L 12.640625 70.609375 
L 48.25 70.609375 
L 48.25 62.203125 
L 19.671875 62.203125 
L 15.828125 42.96875 
Q 22.265625 47.46875 29.34375 47.46875 
Q 38.71875 47.46875 45.15625 40.96875 
Q 51.609375 34.46875 51.609375 24.265625 
Q 51.609375 14.546875 45.953125 7.46875 
Q 39.0625 -1.21875 27.15625 -1.21875 
Q 17.390625 -1.21875 11.203125 4.25 
Q 5.03125 9.71875 4.15625 18.75 
z
" id="ArialMT-53"/>
      </defs>
      <g style="fill:#262626;" transform="translate(26.145313 305.394215)scale(0.1 -0.1)">
       <use xlink:href="#ArialMT-53"/>
       <use x="55.615234" xlink:href="#ArialMT-48"/>
      </g>
     </g>
    </g>
    <g id="ytick_3">
     <g id="line2d_9">
      <g>
       <use style="fill:#262626;stroke:#262626;stroke-width:0.8;" x="44.267188" xlink:href="#mbb0aff3f59" y="223.188668"/>
      </g>
     </g>
     <g id="text_10">
      <!-- 100 -->
      <g style="fill:#262626;" transform="translate(20.584375 226.767574)scale(0.1 -0.1)">
       <use xlink:href="#ArialMT-49"/>
       <use x="55.615234" xlink:href="#ArialMT-48"/>
       <use x="111.230469" xlink:href="#ArialMT-48"/>
      </g>
     </g>
    </g>
    <g id="ytick_4">
     <g id="line2d_10">
      <g>
       <use style="fill:#262626;stroke:#262626;stroke-width:0.8;" x="44.267188" xlink:href="#mbb0aff3f59" y="144.562027"/>
      </g>
     </g>
     <g id="text_11">
      <!-- 150 -->
      <g style="fill:#262626;" transform="translate(20.584375 148.140933)scale(0.1 -0.1)">
       <use xlink:href="#ArialMT-49"/>
       <use x="55.615234" xlink:href="#ArialMT-53"/>
       <use x="111.230469" xlink:href="#ArialMT-48"/>
      </g>
     </g>
    </g>
    <g id="ytick_5">
     <g id="line2d_11">
      <g>
       <use style="fill:#262626;stroke:#262626;stroke-width:0.8;" x="44.267188" xlink:href="#mbb0aff3f59" y="65.935386"/>
      </g>
     </g>
     <g id="text_12">
      <!-- 200 -->
      <g style="fill:#262626;" transform="translate(20.584375 69.514292)scale(0.1 -0.1)">
       <use xlink:href="#ArialMT-50"/>
       <use x="55.615234" xlink:href="#ArialMT-48"/>
       <use x="111.230469" xlink:href="#ArialMT-48"/>
      </g>
     </g>
    </g>
    <g id="text_13">
     <!-- Summed distance from origin (all PCs) -->
     <defs>
      <path d="M 4.5 23 
L 13.421875 23.78125 
Q 14.0625 18.40625 16.375 14.96875 
Q 18.703125 11.53125 23.578125 9.40625 
Q 28.46875 7.28125 34.578125 7.28125 
Q 39.984375 7.28125 44.140625 8.890625 
Q 48.296875 10.5 50.3125 13.296875 
Q 52.34375 16.109375 52.34375 19.4375 
Q 52.34375 22.796875 50.390625 25.3125 
Q 48.4375 27.828125 43.953125 29.546875 
Q 41.0625 30.671875 31.203125 33.03125 
Q 21.34375 35.40625 17.390625 37.5 
Q 12.25 40.1875 9.734375 44.15625 
Q 7.234375 48.140625 7.234375 53.078125 
Q 7.234375 58.5 10.296875 63.203125 
Q 13.375 67.921875 19.28125 70.359375 
Q 25.203125 72.796875 32.421875 72.796875 
Q 40.375 72.796875 46.453125 70.234375 
Q 52.546875 67.671875 55.8125 62.6875 
Q 59.078125 57.71875 59.328125 51.421875 
L 50.25 50.734375 
Q 49.515625 57.515625 45.28125 60.984375 
Q 41.0625 64.453125 32.8125 64.453125 
Q 24.21875 64.453125 20.28125 61.296875 
Q 16.359375 58.15625 16.359375 53.71875 
Q 16.359375 49.859375 19.140625 47.359375 
Q 21.875 44.875 33.421875 42.265625 
Q 44.96875 39.65625 49.265625 37.703125 
Q 55.515625 34.8125 58.484375 30.390625 
Q 61.46875 25.984375 61.46875 20.21875 
Q 61.46875 14.5 58.203125 9.4375 
Q 54.9375 4.390625 48.796875 1.578125 
Q 42.671875 -1.21875 35.015625 -1.21875 
Q 25.296875 -1.21875 18.71875 1.609375 
Q 12.15625 4.4375 8.421875 10.125 
Q 4.6875 15.828125 4.5 23 
z
" id="ArialMT-83"/>
      <path d="M 6.59375 0 
L 6.59375 51.859375 
L 14.453125 51.859375 
L 14.453125 44.578125 
Q 16.890625 48.390625 20.9375 50.703125 
Q 25 53.03125 30.171875 53.03125 
Q 35.9375 53.03125 39.625 50.640625 
Q 43.3125 48.25 44.828125 43.953125 
Q 50.984375 53.03125 60.84375 53.03125 
Q 68.5625 53.03125 72.703125 48.75 
Q 76.859375 44.484375 76.859375 35.59375 
L 76.859375 0 
L 68.109375 0 
L 68.109375 32.671875 
Q 68.109375 37.9375 67.25 40.25 
Q 66.40625 42.578125 64.15625 43.984375 
Q 61.921875 45.40625 58.890625 45.40625 
Q 53.421875 45.40625 49.796875 41.765625 
Q 46.1875 38.140625 46.1875 30.125 
L 46.1875 0 
L 37.40625 0 
L 37.40625 33.6875 
Q 37.40625 39.546875 35.25 42.46875 
Q 33.109375 45.40625 28.21875 45.40625 
Q 24.515625 45.40625 21.359375 43.453125 
Q 18.21875 41.5 16.796875 37.734375 
Q 15.375 33.984375 15.375 26.90625 
L 15.375 0 
z
" id="ArialMT-109"/>
      <path d="M 6.640625 61.46875 
L 6.640625 71.578125 
L 15.4375 71.578125 
L 15.4375 61.46875 
z
M 6.640625 0 
L 6.640625 51.859375 
L 15.4375 51.859375 
L 15.4375 0 
z
" id="ArialMT-105"/>
      <path d="M 3.078125 15.484375 
L 11.765625 16.84375 
Q 12.5 11.625 15.84375 8.84375 
Q 19.1875 6.0625 25.203125 6.0625 
Q 31.25 6.0625 34.171875 8.515625 
Q 37.109375 10.984375 37.109375 14.3125 
Q 37.109375 17.28125 34.515625 19 
Q 32.71875 20.171875 25.53125 21.96875 
Q 15.875 24.421875 12.140625 26.203125 
Q 8.40625 27.984375 6.46875 31.125 
Q 4.546875 34.28125 4.546875 38.09375 
Q 4.546875 41.546875 6.125 44.5 
Q 7.71875 47.46875 10.453125 49.421875 
Q 12.5 50.921875 16.03125 51.96875 
Q 19.578125 53.03125 23.640625 53.03125 
Q 29.734375 53.03125 34.34375 51.265625 
Q 38.96875 49.515625 41.15625 46.5 
Q 43.359375 43.5 44.1875 38.484375 
L 35.59375 37.3125 
Q 35.015625 41.3125 32.203125 43.546875 
Q 29.390625 45.796875 24.265625 45.796875 
Q 18.21875 45.796875 15.625 43.796875 
Q 13.03125 41.796875 13.03125 39.109375 
Q 13.03125 37.40625 14.109375 36.03125 
Q 15.1875 34.625 17.484375 33.6875 
Q 18.796875 33.203125 25.25 31.453125 
Q 34.578125 28.953125 38.25 27.359375 
Q 41.9375 25.78125 44.03125 22.75 
Q 46.140625 19.734375 46.140625 15.234375 
Q 46.140625 10.84375 43.578125 6.953125 
Q 41.015625 3.078125 36.171875 0.953125 
Q 31.34375 -1.171875 25.25 -1.171875 
Q 15.140625 -1.171875 9.84375 3.03125 
Q 4.546875 7.234375 3.078125 15.484375 
z
" id="ArialMT-115"/>
      <path d="M 25.78125 7.859375 
L 27.046875 0.09375 
Q 23.34375 -0.6875 20.40625 -0.6875 
Q 15.625 -0.6875 12.984375 0.828125 
Q 10.359375 2.34375 9.28125 4.8125 
Q 8.203125 7.28125 8.203125 15.1875 
L 8.203125 45.015625 
L 1.765625 45.015625 
L 1.765625 51.859375 
L 8.203125 51.859375 
L 8.203125 64.703125 
L 16.9375 69.96875 
L 16.9375 51.859375 
L 25.78125 51.859375 
L 25.78125 45.015625 
L 16.9375 45.015625 
L 16.9375 14.703125 
Q 16.9375 10.9375 17.40625 9.859375 
Q 17.875 8.796875 18.921875 8.15625 
Q 19.96875 7.515625 21.921875 7.515625 
Q 23.390625 7.515625 25.78125 7.859375 
z
" id="ArialMT-116"/>
      <path d="M 40.4375 6.390625 
Q 35.546875 2.25 31.03125 0.53125 
Q 26.515625 -1.171875 21.34375 -1.171875 
Q 12.796875 -1.171875 8.203125 3 
Q 3.609375 7.171875 3.609375 13.671875 
Q 3.609375 17.484375 5.34375 20.625 
Q 7.078125 23.78125 9.890625 25.6875 
Q 12.703125 27.59375 16.21875 28.5625 
Q 18.796875 29.25 24.03125 29.890625 
Q 34.671875 31.15625 39.703125 32.90625 
Q 39.75 34.71875 39.75 35.203125 
Q 39.75 40.578125 37.25 42.78125 
Q 33.890625 45.75 27.25 45.75 
Q 21.046875 45.75 18.09375 43.578125 
Q 15.140625 41.40625 13.71875 35.890625 
L 5.125 37.0625 
Q 6.296875 42.578125 8.984375 45.96875 
Q 11.671875 49.359375 16.75 51.1875 
Q 21.828125 53.03125 28.515625 53.03125 
Q 35.15625 53.03125 39.296875 51.46875 
Q 43.453125 49.90625 45.40625 47.53125 
Q 47.359375 45.171875 48.140625 41.546875 
Q 48.578125 39.3125 48.578125 33.453125 
L 48.578125 21.734375 
Q 48.578125 9.46875 49.140625 6.21875 
Q 49.703125 2.984375 51.375 0 
L 42.1875 0 
Q 40.828125 2.734375 40.4375 6.390625 
z
M 39.703125 26.03125 
Q 34.90625 24.078125 25.34375 22.703125 
Q 19.921875 21.921875 17.671875 20.9375 
Q 15.4375 19.96875 14.203125 18.09375 
Q 12.984375 16.21875 12.984375 13.921875 
Q 12.984375 10.40625 15.640625 8.0625 
Q 18.3125 5.71875 23.4375 5.71875 
Q 28.515625 5.71875 32.46875 7.9375 
Q 36.421875 10.15625 38.28125 14.015625 
Q 39.703125 17 39.703125 22.796875 
z
" id="ArialMT-97"/>
      <path d="M 40.4375 19 
L 49.078125 17.875 
Q 47.65625 8.9375 41.8125 3.875 
Q 35.984375 -1.171875 27.484375 -1.171875 
Q 16.84375 -1.171875 10.375 5.78125 
Q 3.90625 12.75 3.90625 25.734375 
Q 3.90625 34.125 6.6875 40.421875 
Q 9.46875 46.734375 15.15625 49.875 
Q 20.84375 53.03125 27.546875 53.03125 
Q 35.984375 53.03125 41.359375 48.75 
Q 46.734375 44.484375 48.25 36.625 
L 39.703125 35.296875 
Q 38.484375 40.53125 35.375 43.15625 
Q 32.28125 45.796875 27.875 45.796875 
Q 21.234375 45.796875 17.078125 41.03125 
Q 12.9375 36.28125 12.9375 25.984375 
Q 12.9375 15.53125 16.9375 10.796875 
Q 20.953125 6.0625 27.390625 6.0625 
Q 32.5625 6.0625 36.03125 9.234375 
Q 39.5 12.40625 40.4375 19 
z
" id="ArialMT-99"/>
      <path d="M 8.6875 0 
L 8.6875 45.015625 
L 0.921875 45.015625 
L 0.921875 51.859375 
L 8.6875 51.859375 
L 8.6875 57.375 
Q 8.6875 62.59375 9.625 65.140625 
Q 10.890625 68.5625 14.078125 70.671875 
Q 17.28125 72.796875 23.046875 72.796875 
Q 26.765625 72.796875 31.25 71.921875 
L 29.9375 64.265625 
Q 27.203125 64.75 24.75 64.75 
Q 20.75 64.75 19.09375 63.03125 
Q 17.4375 61.328125 17.4375 56.640625 
L 17.4375 51.859375 
L 27.546875 51.859375 
L 27.546875 45.015625 
L 17.4375 45.015625 
L 17.4375 0 
z
" id="ArialMT-102"/>
      <path d="M 3.328125 25.921875 
Q 3.328125 40.328125 11.328125 47.265625 
Q 18.015625 53.03125 27.640625 53.03125 
Q 38.328125 53.03125 45.109375 46.015625 
Q 51.90625 39.015625 51.90625 26.65625 
Q 51.90625 16.65625 48.90625 10.90625 
Q 45.90625 5.171875 40.15625 2 
Q 34.421875 -1.171875 27.640625 -1.171875 
Q 16.75 -1.171875 10.03125 5.8125 
Q 3.328125 12.796875 3.328125 25.921875 
z
M 12.359375 25.921875 
Q 12.359375 15.96875 16.703125 11.015625 
Q 21.046875 6.0625 27.640625 6.0625 
Q 34.1875 6.0625 38.53125 11.03125 
Q 42.875 16.015625 42.875 26.21875 
Q 42.875 35.84375 38.5 40.796875 
Q 34.125 45.75 27.640625 45.75 
Q 21.046875 45.75 16.703125 40.8125 
Q 12.359375 35.890625 12.359375 25.921875 
z
" id="ArialMT-111"/>
      <path d="M 4.984375 -4.296875 
L 13.53125 -5.5625 
Q 14.0625 -9.515625 16.5 -11.328125 
Q 19.78125 -13.765625 25.4375 -13.765625 
Q 31.546875 -13.765625 34.859375 -11.328125 
Q 38.1875 -8.890625 39.359375 -4.5 
Q 40.046875 -1.8125 39.984375 6.78125 
Q 34.234375 0 25.640625 0 
Q 14.9375 0 9.078125 7.71875 
Q 3.21875 15.4375 3.21875 26.21875 
Q 3.21875 33.640625 5.90625 39.90625 
Q 8.59375 46.1875 13.6875 49.609375 
Q 18.796875 53.03125 25.6875 53.03125 
Q 34.859375 53.03125 40.828125 45.609375 
L 40.828125 51.859375 
L 48.921875 51.859375 
L 48.921875 7.03125 
Q 48.921875 -5.078125 46.453125 -10.125 
Q 44 -15.1875 38.640625 -18.109375 
Q 33.296875 -21.046875 25.484375 -21.046875 
Q 16.21875 -21.046875 10.5 -16.875 
Q 4.78125 -12.703125 4.984375 -4.296875 
z
M 12.25 26.859375 
Q 12.25 16.65625 16.296875 11.96875 
Q 20.359375 7.28125 26.46875 7.28125 
Q 32.515625 7.28125 36.609375 11.9375 
Q 40.71875 16.609375 40.71875 26.5625 
Q 40.71875 36.078125 36.5 40.90625 
Q 32.28125 45.75 26.3125 45.75 
Q 20.453125 45.75 16.34375 40.984375 
Q 12.25 36.234375 12.25 26.859375 
z
" id="ArialMT-103"/>
      <path d="M 23.390625 -21.046875 
Q 16.109375 -11.859375 11.078125 0.4375 
Q 6.0625 12.75 6.0625 25.921875 
Q 6.0625 37.546875 9.8125 48.1875 
Q 14.203125 60.546875 23.390625 72.796875 
L 29.6875 72.796875 
Q 23.78125 62.640625 21.875 58.296875 
Q 18.890625 51.5625 17.1875 44.234375 
Q 15.09375 35.109375 15.09375 25.875 
Q 15.09375 2.390625 29.6875 -21.046875 
z
" id="ArialMT-40"/>
      <path d="M 6.390625 0 
L 6.390625 71.578125 
L 15.1875 71.578125 
L 15.1875 0 
z
" id="ArialMT-108"/>
      <path d="M 7.71875 0 
L 7.71875 71.578125 
L 34.71875 71.578125 
Q 41.84375 71.578125 45.609375 70.90625 
Q 50.875 70.015625 54.4375 67.546875 
Q 58.015625 65.09375 60.1875 60.640625 
Q 62.359375 56.203125 62.359375 50.875 
Q 62.359375 41.75 56.546875 35.421875 
Q 50.734375 29.109375 35.546875 29.109375 
L 17.1875 29.109375 
L 17.1875 0 
z
M 17.1875 37.546875 
L 35.6875 37.546875 
Q 44.875 37.546875 48.734375 40.96875 
Q 52.59375 44.390625 52.59375 50.59375 
Q 52.59375 55.078125 50.3125 58.265625 
Q 48.046875 61.46875 44.34375 62.5 
Q 41.9375 63.140625 35.5 63.140625 
L 17.1875 63.140625 
z
" id="ArialMT-80"/>
      <path d="M 58.796875 25.09375 
L 68.265625 22.703125 
Q 65.28125 11.03125 57.546875 4.90625 
Q 49.8125 -1.21875 38.625 -1.21875 
Q 27.046875 -1.21875 19.796875 3.484375 
Q 12.546875 8.203125 8.765625 17.140625 
Q 4.984375 26.078125 4.984375 36.328125 
Q 4.984375 47.515625 9.25 55.828125 
Q 13.53125 64.15625 21.40625 68.46875 
Q 29.296875 72.796875 38.765625 72.796875 
Q 49.515625 72.796875 56.828125 67.328125 
Q 64.15625 61.859375 67.046875 51.953125 
L 57.71875 49.75 
Q 55.21875 57.5625 50.484375 61.125 
Q 45.75 64.703125 38.578125 64.703125 
Q 30.328125 64.703125 24.78125 60.734375 
Q 19.234375 56.78125 16.984375 50.109375 
Q 14.75 43.453125 14.75 36.375 
Q 14.75 27.25 17.40625 20.4375 
Q 20.0625 13.625 25.671875 10.25 
Q 31.296875 6.890625 37.84375 6.890625 
Q 45.796875 6.890625 51.3125 11.46875 
Q 56.84375 16.0625 58.796875 25.09375 
z
" id="ArialMT-67"/>
      <path d="M 12.359375 -21.046875 
L 6.0625 -21.046875 
Q 20.65625 2.390625 20.65625 25.875 
Q 20.65625 35.0625 18.5625 44.09375 
Q 16.890625 51.421875 13.921875 58.15625 
Q 12.015625 62.546875 6.0625 72.796875 
L 12.359375 72.796875 
Q 21.53125 60.546875 25.921875 48.1875 
Q 29.6875 37.546875 29.6875 25.921875 
Q 29.6875 12.75 24.625 0.4375 
Q 19.578125 -11.859375 12.359375 -21.046875 
z
" id="ArialMT-41"/>
     </defs>
     <g style="fill:#262626;" transform="translate(14.479687 286.538906)rotate(-90)scale(0.1 -0.1)">
      <use xlink:href="#ArialMT-83"/>
      <use x="66.699219" xlink:href="#ArialMT-117"/>
      <use x="122.314453" xlink:href="#ArialMT-109"/>
      <use x="205.615234" xlink:href="#ArialMT-109"/>
      <use x="288.916016" xlink:href="#ArialMT-101"/>
      <use x="344.53125" xlink:href="#ArialMT-100"/>
      <use x="400.146484" xlink:href="#ArialMT-32"/>
      <use x="427.929688" xlink:href="#ArialMT-100"/>
      <use x="483.544922" xlink:href="#ArialMT-105"/>
      <use x="505.761719" xlink:href="#ArialMT-115"/>
      <use x="555.761719" xlink:href="#ArialMT-116"/>
      <use x="583.544922" xlink:href="#ArialMT-97"/>
      <use x="639.160156" xlink:href="#ArialMT-110"/>
      <use x="694.775391" xlink:href="#ArialMT-99"/>
      <use x="744.775391" xlink:href="#ArialMT-101"/>
      <use x="800.390625" xlink:href="#ArialMT-32"/>
      <use x="828.173828" xlink:href="#ArialMT-102"/>
      <use x="855.957031" xlink:href="#ArialMT-114"/>
      <use x="889.257812" xlink:href="#ArialMT-111"/>
      <use x="944.873047" xlink:href="#ArialMT-109"/>
      <use x="1028.173828" xlink:href="#ArialMT-32"/>
      <use x="1055.957031" xlink:href="#ArialMT-111"/>
      <use x="1111.572266" xlink:href="#ArialMT-114"/>
      <use x="1144.873047" xlink:href="#ArialMT-105"/>
      <use x="1167.089844" xlink:href="#ArialMT-103"/>
      <use x="1222.705078" xlink:href="#ArialMT-105"/>
      <use x="1244.921875" xlink:href="#ArialMT-110"/>
      <use x="1300.537109" xlink:href="#ArialMT-32"/>
      <use x="1328.320312" xlink:href="#ArialMT-40"/>
      <use x="1361.621094" xlink:href="#ArialMT-97"/>
      <use x="1417.236328" xlink:href="#ArialMT-108"/>
      <use x="1439.453125" xlink:href="#ArialMT-108"/>
      <use x="1461.669922" xlink:href="#ArialMT-32"/>
      <use x="1489.453125" xlink:href="#ArialMT-80"/>
      <use x="1556.152344" xlink:href="#ArialMT-67"/>
      <use x="1628.369141" xlink:href="#ArialMT-115"/>
      <use x="1678.369141" xlink:href="#ArialMT-41"/>
     </g>
    </g>
   </g>
   <g id="PathCollection_1">
    <defs>
     <path d="M 0 3 
C 0.795609 3 1.55874 2.683901 2.12132 2.12132 
C 2.683901 1.55874 3 0.795609 3 0 
C 3 -0.795609 2.683901 -1.55874 2.12132 -2.12132 
C 1.55874 -2.683901 0.795609 -3 0 -3 
C -0.795609 -3 -1.55874 -2.683901 -2.12132 -2.12132 
C -2.683901 -1.55874 -3 -0.795609 -3 0 
C -3 0.795609 -2.683901 1.55874 -2.12132 2.12132 
C -1.55874 2.683901 -0.795609 3 0 3 
z
" id="md68a272440" style="stroke:#4c72b0;"/>
    </defs>
    <g clip-path="url(#pf493294f1b)">
     <use style="fill:#4c72b0;stroke:#4c72b0;" x="384.550336" xlink:href="#md68a272440" y="106.622174"/>
     <use style="fill:#4c72b0;stroke:#4c72b0;" x="140.527292" xlink:href="#md68a272440" y="59.929354"/>
     <use style="fill:#4c72b0;stroke:#4c72b0;" x="137.358161" xlink:href="#md68a272440" y="139.976493"/>
     <use style="fill:#4c72b0;stroke:#4c72b0;" x="124.681639" xlink:href="#md68a272440" y="240.039131"/>
     <use style="fill:#4c72b0;stroke:#4c72b0;" x="175.387726" xlink:href="#md68a272440" y="224.118187"/>
     <use style="fill:#4c72b0;stroke:#4c72b0;" x="375.042945" xlink:href="#md68a272440" y="183.267953"/>
     <use style="fill:#4c72b0;stroke:#4c72b0;" x="162.711205" xlink:href="#md68a272440" y="58.521654"/>
     <use style="fill:#4c72b0;stroke:#4c72b0;" x="203.909901" xlink:href="#md68a272440" y="100.56883"/>
     <use style="fill:#4c72b0;stroke:#4c72b0;" x="245.108596" xlink:href="#md68a272440" y="160.357291"/>
     <use style="fill:#4c72b0;stroke:#4c72b0;" x="165.880335" xlink:href="#md68a272440" y="243.893268"/>
     <use style="fill:#4c72b0;stroke:#4c72b0;" x="327.505988" xlink:href="#md68a272440" y="231.084516"/>
     <use style="fill:#4c72b0;stroke:#4c72b0;" x="184.895118" xlink:href="#md68a272440" y="247.196631"/>
     <use style="fill:#4c72b0;stroke:#4c72b0;" x="292.645553" xlink:href="#md68a272440" y="126.052595"/>
     <use style="fill:#4c72b0;stroke:#4c72b0;" x="222.924683" xlink:href="#md68a272440" y="111.894628"/>
     <use style="fill:#4c72b0;stroke:#4c72b0;" x="337.013379" xlink:href="#md68a272440" y="152.295803"/>
     <use style="fill:#4c72b0;stroke:#4c72b0;" x="362.366423" xlink:href="#md68a272440" y="246.86774"/>
     <use style="fill:#4c72b0;stroke:#4c72b0;" x="83.482943" xlink:href="#md68a272440" y="165.279061"/>
     <use style="fill:#4c72b0;stroke:#4c72b0;" x="150.034683" xlink:href="#md68a272440" y="227.134871"/>
     <use style="fill:#4c72b0;stroke:#4c72b0;" x="118.343378" xlink:href="#md68a272440" y="91.925538"/>
     <use style="fill:#4c72b0;stroke:#4c72b0;" x="200.74077" xlink:href="#md68a272440" y="98.905757"/>
     <use style="fill:#4c72b0;stroke:#4c72b0;" x="343.35164" xlink:href="#md68a272440" y="106.839893"/>
     <use style="fill:#4c72b0;stroke:#4c72b0;" x="387.719467" xlink:href="#md68a272440" y="246.287203"/>
     <use style="fill:#4c72b0;stroke:#4c72b0;" x="273.63077" xlink:href="#md68a272440" y="240.10088"/>
     <use style="fill:#4c72b0;stroke:#4c72b0;" x="213.417292" xlink:href="#md68a272440" y="227.65548"/>
     <use style="fill:#4c72b0;stroke:#4c72b0;" x="349.689901" xlink:href="#md68a272440" y="135.17306"/>
     <use style="fill:#4c72b0;stroke:#4c72b0;" x="257.785118" xlink:href="#md68a272440" y="114.091082"/>
     <use style="fill:#4c72b0;stroke:#4c72b0;" x="226.093814" xlink:href="#md68a272440" y="162.433772"/>
     <use style="fill:#4c72b0;stroke:#4c72b0;" x="169.049466" xlink:href="#md68a272440" y="216.845857"/>
     <use style="fill:#4c72b0;stroke:#4c72b0;" x="99.328596" xlink:href="#md68a272440" y="219.482641"/>
     <use style="fill:#4c72b0;stroke:#4c72b0;" x="283.138162" xlink:href="#md68a272440" y="251.313695"/>
     <use style="fill:#4c72b0;stroke:#4c72b0;" x="251.446857" xlink:href="#md68a272440" y="117.634201"/>
     <use style="fill:#4c72b0;stroke:#4c72b0;" x="241.939466" xlink:href="#md68a272440" y="116.729825"/>
     <use style="fill:#4c72b0;stroke:#4c72b0;" x="178.556857" xlink:href="#md68a272440" y="156.580327"/>
     <use style="fill:#4c72b0;stroke:#4c72b0;" x="181.725987" xlink:href="#md68a272440" y="275.978227"/>
     <use style="fill:#4c72b0;stroke:#4c72b0;" x="159.542074" xlink:href="#md68a272440" y="204.90485"/>
     <use style="fill:#4c72b0;stroke:#4c72b0;" x="235.601205" xlink:href="#md68a272440" y="240.026253"/>
     <use style="fill:#4c72b0;stroke:#4c72b0;" x="356.028162" xlink:href="#md68a272440" y="107.84648"/>
     <use style="fill:#4c72b0;stroke:#4c72b0;" x="302.152944" xlink:href="#md68a272440" y="111.862444"/>
     <use style="fill:#4c72b0;stroke:#4c72b0;" x="254.615988" xlink:href="#md68a272440" y="161.301999"/>
     <use style="fill:#4c72b0;stroke:#4c72b0;" x="92.990335" xlink:href="#md68a272440" y="222.242085"/>
     <use style="fill:#4c72b0;stroke:#4c72b0;" x="219.755553" xlink:href="#md68a272440" y="243.708464"/>
     <use style="fill:#4c72b0;stroke:#4c72b0;" x="121.512509" xlink:href="#md68a272440" y="226.18297"/>
     <use style="fill:#4c72b0;stroke:#4c72b0;" x="365.535553" xlink:href="#md68a272440" y="104.747953"/>
     <use style="fill:#4c72b0;stroke:#4c72b0;" x="197.57164" xlink:href="#md68a272440" y="111.563481"/>
     <use style="fill:#4c72b0;stroke:#4c72b0;" x="346.520771" xlink:href="#md68a272440" y="128.423979"/>
     <use style="fill:#4c72b0;stroke:#4c72b0;" x="207.079031" xlink:href="#md68a272440" y="250.480748"/>
     <use style="fill:#4c72b0;stroke:#4c72b0;" x="270.46164" xlink:href="#md68a272440" y="245.784331"/>
     <use style="fill:#4c72b0;stroke:#4c72b0;" x="324.336858" xlink:href="#md68a272440" y="213.094"/>
     <use style="fill:#4c72b0;stroke:#4c72b0;" x="108.835987" xlink:href="#md68a272440" y="27.999339"/>
     <use style="fill:#4c72b0;stroke:#4c72b0;" x="238.770335" xlink:href="#md68a272440" y="114.296015"/>
     <use style="fill:#4c72b0;stroke:#4c72b0;" x="232.432075" xlink:href="#md68a272440" y="163.227722"/>
     <use style="fill:#4c72b0;stroke:#4c72b0;" x="276.799901" xlink:href="#md68a272440" y="271.531762"/>
     <use style="fill:#4c72b0;stroke:#4c72b0;" x="330.675119" xlink:href="#md68a272440" y="219.026246"/>
     <use style="fill:#4c72b0;stroke:#4c72b0;" x="89.821204" xlink:href="#md68a272440" y="222.356414"/>
     <use style="fill:#4c72b0;stroke:#4c72b0;" x="333.844249" xlink:href="#md68a272440" y="129.623853"/>
     <use style="fill:#4c72b0;stroke:#4c72b0;" x="102.497726" xlink:href="#md68a272440" y="60.633213"/>
     <use style="fill:#4c72b0;stroke:#4c72b0;" x="264.123379" xlink:href="#md68a272440" y="153.190597"/>
     <use style="fill:#4c72b0;stroke:#4c72b0;" x="289.476423" xlink:href="#md68a272440" y="270.610664"/>
     <use style="fill:#4c72b0;stroke:#4c72b0;" x="86.652074" xlink:href="#md68a272440" y="209.755193"/>
     <use style="fill:#4c72b0;stroke:#4c72b0;" x="194.402509" xlink:href="#md68a272440" y="244.447399"/>
     <use style="fill:#4c72b0;stroke:#4c72b0;" x="368.704684" xlink:href="#md68a272440" y="108.77437"/>
     <use style="fill:#4c72b0;stroke:#4c72b0;" x="371.873814" xlink:href="#md68a272440" y="83.286738"/>
     <use style="fill:#4c72b0;stroke:#4c72b0;" x="298.983814" xlink:href="#md68a272440" y="165.518395"/>
     <use style="fill:#4c72b0;stroke:#4c72b0;" x="146.865552" xlink:href="#md68a272440" y="255.661647"/>
     <use style="fill:#4c72b0;stroke:#4c72b0;" x="131.0199" xlink:href="#md68a272440" y="194.668147"/>
     <use style="fill:#4c72b0;stroke:#4c72b0;" x="279.969031" xlink:href="#md68a272440" y="245.117764"/>
     <use style="fill:#4c72b0;stroke:#4c72b0;" x="352.859032" xlink:href="#md68a272440" y="131.61515"/>
     <use style="fill:#4c72b0;stroke:#4c72b0;" x="188.064248" xlink:href="#md68a272440" y="109.905056"/>
     <use style="fill:#4c72b0;stroke:#4c72b0;" x="381.381206" xlink:href="#md68a272440" y="122.352751"/>
     <use style="fill:#4c72b0;stroke:#4c72b0;" x="260.954249" xlink:href="#md68a272440" y="273.484959"/>
     <use style="fill:#4c72b0;stroke:#4c72b0;" x="112.005117" xlink:href="#md68a272440" y="215.969709"/>
     <use style="fill:#4c72b0;stroke:#4c72b0;" x="216.586422" xlink:href="#md68a272440" y="253.007561"/>
     <use style="fill:#4c72b0;stroke:#4c72b0;" x="295.814684" xlink:href="#md68a272440" y="117.962295"/>
     <use style="fill:#4c72b0;stroke:#4c72b0;" x="127.85077" xlink:href="#md68a272440" y="72.6285"/>
     <use style="fill:#4c72b0;stroke:#4c72b0;" x="143.696422" xlink:href="#md68a272440" y="135.021202"/>
     <use style="fill:#4c72b0;stroke:#4c72b0;" x="156.372944" xlink:href="#md68a272440" y="246.468725"/>
     <use style="fill:#4c72b0;stroke:#4c72b0;" x="105.666857" xlink:href="#md68a272440" y="200.208005"/>
     <use style="fill:#4c72b0;stroke:#4c72b0;" x="80.313813" xlink:href="#md68a272440" y="234.529764"/>
    </g>
   </g>
   <g id="PathCollection_2">
    <defs>
     <path d="M 0 3 
C 0.795609 3 1.55874 2.683901 2.12132 2.12132 
C 2.683901 1.55874 3 0.795609 3 0 
C 3 -0.795609 2.683901 -1.55874 2.12132 -2.12132 
C 1.55874 -2.683901 0.795609 -3 0 -3 
C -0.795609 -3 -1.55874 -2.683901 -2.12132 -2.12132 
C -2.683901 -1.55874 -3 -0.795609 -3 0 
C -3 0.795609 -2.683901 1.55874 -2.12132 2.12132 
C -1.55874 2.683901 -0.795609 3 0 3 
z
" id="m5f6ed0c6f4" style="stroke:#55a868;"/>
    </defs>
    <g clip-path="url(#pf493294f1b)">
     <use style="fill:#55a868;stroke:#55a868;" x="61.29903" xlink:href="#m5f6ed0c6f4" y="351.507026"/>
     <use style="fill:#55a868;stroke:#55a868;" x="321.167727" xlink:href="#m5f6ed0c6f4" y="334.571332"/>
     <use style="fill:#55a868;stroke:#55a868;" x="64.468161" xlink:href="#m5f6ed0c6f4" y="355.914561"/>
     <use style="fill:#55a868;stroke:#55a868;" x="67.637291" xlink:href="#m5f6ed0c6f4" y="358.330494"/>
     <use style="fill:#55a868;stroke:#55a868;" x="70.806422" xlink:href="#m5f6ed0c6f4" y="356.956576"/>
     <use style="fill:#55a868;stroke:#55a868;" x="73.975552" xlink:href="#m5f6ed0c6f4" y="349.728532"/>
     <use style="fill:#55a868;stroke:#55a868;" x="308.491205" xlink:href="#m5f6ed0c6f4" y="303.823267"/>
     <use style="fill:#55a868;stroke:#55a868;" x="311.660336" xlink:href="#m5f6ed0c6f4" y="283.421734"/>
     <use style="fill:#55a868;stroke:#55a868;" x="314.829466" xlink:href="#m5f6ed0c6f4" y="305.921932"/>
     <use style="fill:#55a868;stroke:#55a868;" x="317.998597" xlink:href="#m5f6ed0c6f4" y="294.154996"/>
     <use style="fill:#55a868;stroke:#55a868;" x="96.159465" xlink:href="#m5f6ed0c6f4" y="351.521274"/>
     <use style="fill:#55a868;stroke:#55a868;" x="134.189031" xlink:href="#m5f6ed0c6f4" y="365.640267"/>
     <use style="fill:#55a868;stroke:#55a868;" x="172.218596" xlink:href="#m5f6ed0c6f4" y="355.147225"/>
     <use style="fill:#55a868;stroke:#55a868;" x="210.248161" xlink:href="#m5f6ed0c6f4" y="331.092583"/>
     <use style="fill:#55a868;stroke:#55a868;" x="248.277727" xlink:href="#m5f6ed0c6f4" y="373.40749"/>
     <use style="fill:#55a868;stroke:#55a868;" x="286.307292" xlink:href="#m5f6ed0c6f4" y="344.56646"/>
     <use style="fill:#55a868;stroke:#55a868;" x="340.18251" xlink:href="#m5f6ed0c6f4" y="307.135338"/>
     <use style="fill:#55a868;stroke:#55a868;" x="378.212075" xlink:href="#m5f6ed0c6f4" y="260.76795"/>
    </g>
   </g>
   <g id="line2d_12">
    <path clip-path="url(#pf493294f1b)" d="M 44.267188 251.737162 
L 404.080981 251.737162 
" style="fill:none;stroke:#1a1a1a;stroke-dasharray:5.55,2.4;stroke-dashoffset:0;stroke-width:1.5;"/>
   </g>
   <g id="line2d_13">
    <path clip-path="url(#pf493294f1b)" d="M 44.267188 217.936051 
L 404.080981 217.936051 
" style="fill:none;stroke:#1a1a1a;stroke-dasharray:5.55,2.4;stroke-dashoffset:0;stroke-width:1.5;"/>
   </g>
   <g id="line2d_14">
    <path clip-path="url(#pf493294f1b)" d="M 44.267188 125.127634 
L 404.080981 125.127634 
" style="fill:none;stroke:#1a1a1a;stroke-dasharray:5.55,2.4;stroke-dashoffset:0;stroke-width:1.5;"/>
   </g>
   <g id="line2d_15">
    <path clip-path="url(#pf493294f1b)" d="M 44.267188 80.622178 
L 404.080981 80.622178 
" style="fill:none;stroke:#1a1a1a;stroke-dasharray:5.55,2.4;stroke-dashoffset:0;stroke-width:1.5;"/>
   </g>
   <g id="line2d_16">
    <path clip-path="url(#pf493294f1b)" d="M 44.267188 56.995538 
L 404.080981 56.995538 
" style="fill:none;stroke:#1a1a1a;stroke-dasharray:5.55,2.4;stroke-dashoffset:0;stroke-width:1.5;"/>
   </g>
   <g id="patch_3">
    <path d="M 44.267188 391.22 
L 44.267188 10.7 
" style="fill:none;stroke:#262626;stroke-linecap:square;stroke-linejoin:miter;stroke-width:0.8;"/>
   </g>
   <g id="patch_4">
    <path d="M 404.080981 391.22 
L 404.080981 10.7 
" style="fill:none;stroke:#262626;stroke-linecap:square;stroke-linejoin:miter;stroke-width:0.8;"/>
   </g>
   <g id="patch_5">
    <path d="M 44.267188 391.22 
L 404.080981 391.22 
" style="fill:none;stroke:#262626;stroke-linecap:square;stroke-linejoin:miter;stroke-width:0.8;"/>
   </g>
   <g id="patch_6">
    <path d="M 44.267188 10.7 
L 404.080981 10.7 
" style="fill:none;stroke:#262626;stroke-linecap:square;stroke-linejoin:miter;stroke-width:0.8;"/>
   </g>
   <g id="legend_1">
    <g id="patch_7">
     <path d="M 411.080981 118.195312 
L 517.563793 118.195312 
Q 519.563793 118.195312 519.563793 116.195312 
L 519.563793 17.7 
Q 519.563793 15.7 517.563793 15.7 
L 411.080981 15.7 
Q 409.080981 15.7 409.080981 17.7 
L 409.080981 116.195312 
Q 409.080981 118.195312 411.080981 118.195312 
z
" style="fill:#ffffff;opacity:0.8;stroke:#cccccc;stroke-linejoin:miter;"/>
    </g>
    <g id="line2d_17">
     <path d="M 413.080981 23.357813 
L 433.080981 23.357813 
" style="fill:none;stroke:#1a1a1a;stroke-dasharray:5.55,2.4;stroke-dashoffset:0;stroke-width:1.5;"/>
    </g>
    <g id="line2d_18"/>
    <g id="text_14">
     <!-- Q25 -->
     <defs>
      <path d="M 61.96875 7.671875 
Q 68.5625 3.125 74.125 1.03125 
L 71.34375 -5.5625 
Q 63.625 -2.78125 55.953125 3.21875 
Q 48 -1.21875 38.375 -1.21875 
Q 28.65625 -1.21875 20.75 3.46875 
Q 12.84375 8.15625 8.5625 16.640625 
Q 4.296875 25.140625 4.296875 35.796875 
Q 4.296875 46.390625 8.59375 55.078125 
Q 12.890625 63.765625 20.828125 68.3125 
Q 28.765625 72.859375 38.578125 72.859375 
Q 48.484375 72.859375 56.4375 68.140625 
Q 64.40625 63.421875 68.578125 54.953125 
Q 72.75 46.484375 72.75 35.84375 
Q 72.75 27 70.0625 19.9375 
Q 67.390625 12.890625 61.96875 7.671875 
z
M 41.109375 19.78125 
Q 49.3125 17.484375 54.640625 12.9375 
Q 62.984375 20.5625 62.984375 35.84375 
Q 62.984375 44.53125 60.03125 51.015625 
Q 57.078125 57.515625 51.390625 61.109375 
Q 45.703125 64.703125 38.625 64.703125 
Q 28.03125 64.703125 21.046875 57.453125 
Q 14.0625 50.203125 14.0625 35.796875 
Q 14.0625 21.828125 20.96875 14.359375 
Q 27.875 6.890625 38.625 6.890625 
Q 43.703125 6.890625 48.1875 8.796875 
Q 43.75 11.671875 38.8125 12.890625 
z
" id="ArialMT-81"/>
     </defs>
     <g style="fill:#262626;" transform="translate(441.080981 26.857813)scale(0.1 -0.1)">
      <use xlink:href="#ArialMT-81"/>
      <use x="77.783203" xlink:href="#ArialMT-50"/>
      <use x="133.398438" xlink:href="#ArialMT-53"/>
     </g>
    </g>
    <g id="line2d_19">
     <path d="M 413.080981 37.503125 
L 433.080981 37.503125 
" style="fill:none;stroke:#1a1a1a;stroke-dasharray:5.55,2.4;stroke-dashoffset:0;stroke-width:1.5;"/>
    </g>
    <g id="line2d_20"/>
    <g id="text_15">
     <!-- Q50 -->
     <g style="fill:#262626;" transform="translate(441.080981 41.003125)scale(0.1 -0.1)">
      <use xlink:href="#ArialMT-81"/>
      <use x="77.783203" xlink:href="#ArialMT-53"/>
      <use x="133.398438" xlink:href="#ArialMT-48"/>
     </g>
    </g>
    <g id="line2d_21">
     <path d="M 413.080981 51.648438 
L 433.080981 51.648438 
" style="fill:none;stroke:#1a1a1a;stroke-dasharray:5.55,2.4;stroke-dashoffset:0;stroke-width:1.5;"/>
    </g>
    <g id="line2d_22"/>
    <g id="text_16">
     <!-- Q75 -->
     <defs>
      <path d="M 4.734375 62.203125 
L 4.734375 70.65625 
L 51.078125 70.65625 
L 51.078125 63.8125 
Q 44.234375 56.546875 37.515625 44.484375 
Q 30.8125 32.421875 27.15625 19.671875 
Q 24.515625 10.6875 23.78125 0 
L 14.75 0 
Q 14.890625 8.453125 18.0625 20.40625 
Q 21.234375 32.375 27.171875 43.484375 
Q 33.109375 54.59375 39.796875 62.203125 
z
" id="ArialMT-55"/>
     </defs>
     <g style="fill:#262626;" transform="translate(441.080981 55.148438)scale(0.1 -0.1)">
      <use xlink:href="#ArialMT-81"/>
      <use x="77.783203" xlink:href="#ArialMT-55"/>
      <use x="133.398438" xlink:href="#ArialMT-53"/>
     </g>
    </g>
    <g id="line2d_23">
     <path d="M 413.080981 65.79375 
L 433.080981 65.79375 
" style="fill:none;stroke:#1a1a1a;stroke-dasharray:5.55,2.4;stroke-dashoffset:0;stroke-width:1.5;"/>
    </g>
    <g id="line2d_24"/>
    <g id="text_17">
     <!-- Q95 -->
     <defs>
      <path d="M 5.46875 16.546875 
L 13.921875 17.328125 
Q 14.984375 11.375 18.015625 8.6875 
Q 21.046875 6 25.78125 6 
Q 29.828125 6 32.875 7.859375 
Q 35.9375 9.71875 37.890625 12.8125 
Q 39.84375 15.921875 41.15625 21.1875 
Q 42.484375 26.46875 42.484375 31.9375 
Q 42.484375 32.515625 42.4375 33.6875 
Q 39.796875 29.5 35.234375 26.875 
Q 30.671875 24.265625 25.34375 24.265625 
Q 16.453125 24.265625 10.296875 30.703125 
Q 4.15625 37.15625 4.15625 47.703125 
Q 4.15625 58.59375 10.578125 65.234375 
Q 17 71.875 26.65625 71.875 
Q 33.640625 71.875 39.421875 68.109375 
Q 45.21875 64.359375 48.21875 57.390625 
Q 51.21875 50.4375 51.21875 37.25 
Q 51.21875 23.53125 48.234375 15.40625 
Q 45.265625 7.28125 39.375 3.03125 
Q 33.5 -1.21875 25.59375 -1.21875 
Q 17.1875 -1.21875 11.859375 3.4375 
Q 6.546875 8.109375 5.46875 16.546875 
z
M 41.453125 48.140625 
Q 41.453125 55.71875 37.421875 60.15625 
Q 33.40625 64.59375 27.734375 64.59375 
Q 21.875 64.59375 17.53125 59.8125 
Q 13.1875 55.03125 13.1875 47.40625 
Q 13.1875 40.578125 17.3125 36.296875 
Q 21.4375 32.03125 27.484375 32.03125 
Q 33.59375 32.03125 37.515625 36.296875 
Q 41.453125 40.578125 41.453125 48.140625 
z
" id="ArialMT-57"/>
     </defs>
     <g style="fill:#262626;" transform="translate(441.080981 69.29375)scale(0.1 -0.1)">
      <use xlink:href="#ArialMT-81"/>
      <use x="77.783203" xlink:href="#ArialMT-57"/>
      <use x="133.398438" xlink:href="#ArialMT-53"/>
     </g>
    </g>
    <g id="line2d_25">
     <path d="M 413.080981 79.939063 
L 433.080981 79.939063 
" style="fill:none;stroke:#1a1a1a;stroke-dasharray:5.55,2.4;stroke-dashoffset:0;stroke-width:1.5;"/>
    </g>
    <g id="line2d_26"/>
    <g id="text_18">
     <!-- Q99 -->
     <g style="fill:#262626;" transform="translate(441.080981 83.439063)scale(0.1 -0.1)">
      <use xlink:href="#ArialMT-81"/>
      <use x="77.783203" xlink:href="#ArialMT-57"/>
      <use x="133.398438" xlink:href="#ArialMT-57"/>
     </g>
    </g>
    <g id="PathCollection_3">
     <g>
      <use style="fill:#4c72b0;stroke:#4c72b0;" x="423.080981" xlink:href="#md68a272440" y="95.08125"/>
     </g>
    </g>
    <g id="text_19">
     <!-- Study Sample -->
     <defs>
      <path d="M 6.203125 -19.96875 
L 5.21875 -11.71875 
Q 8.109375 -12.5 10.25 -12.5 
Q 13.1875 -12.5 14.9375 -11.515625 
Q 16.703125 -10.546875 17.828125 -8.796875 
Q 18.65625 -7.46875 20.515625 -2.25 
Q 20.75 -1.515625 21.296875 -0.09375 
L 1.609375 51.859375 
L 11.078125 51.859375 
L 21.875 21.828125 
Q 23.96875 16.109375 25.640625 9.8125 
Q 27.15625 15.875 29.25 21.625 
L 40.328125 51.859375 
L 49.125 51.859375 
L 29.390625 -0.875 
Q 26.21875 -9.421875 24.46875 -12.640625 
Q 22.125 -17 19.09375 -19.015625 
Q 16.0625 -21.046875 11.859375 -21.046875 
Q 9.328125 -21.046875 6.203125 -19.96875 
z
" id="ArialMT-121"/>
      <path d="M 6.59375 -19.875 
L 6.59375 51.859375 
L 14.59375 51.859375 
L 14.59375 45.125 
Q 17.4375 49.078125 21 51.046875 
Q 24.5625 53.03125 29.640625 53.03125 
Q 36.28125 53.03125 41.359375 49.609375 
Q 46.4375 46.1875 49.015625 39.953125 
Q 51.609375 33.734375 51.609375 26.3125 
Q 51.609375 18.359375 48.75 11.984375 
Q 45.90625 5.609375 40.453125 2.21875 
Q 35.015625 -1.171875 29 -1.171875 
Q 24.609375 -1.171875 21.109375 0.6875 
Q 17.625 2.546875 15.375 5.375 
L 15.375 -19.875 
z
M 14.546875 25.640625 
Q 14.546875 15.625 18.59375 10.84375 
Q 22.65625 6.0625 28.421875 6.0625 
Q 34.28125 6.0625 38.453125 11.015625 
Q 42.625 15.96875 42.625 26.375 
Q 42.625 36.28125 38.546875 41.203125 
Q 34.46875 46.140625 28.8125 46.140625 
Q 23.1875 46.140625 18.859375 40.890625 
Q 14.546875 35.640625 14.546875 25.640625 
z
" id="ArialMT-112"/>
     </defs>
     <g style="fill:#262626;" transform="translate(441.080981 97.70625)scale(0.1 -0.1)">
      <use xlink:href="#ArialMT-83"/>
      <use x="66.699219" xlink:href="#ArialMT-116"/>
      <use x="94.482422" xlink:href="#ArialMT-117"/>
      <use x="150.097656" xlink:href="#ArialMT-100"/>
      <use x="205.712891" xlink:href="#ArialMT-121"/>
      <use x="255.712891" xlink:href="#ArialMT-32"/>
      <use x="283.496094" xlink:href="#ArialMT-83"/>
      <use x="350.195312" xlink:href="#ArialMT-97"/>
      <use x="405.810547" xlink:href="#ArialMT-109"/>
      <use x="489.111328" xlink:href="#ArialMT-112"/>
      <use x="544.726562" xlink:href="#ArialMT-108"/>
      <use x="566.943359" xlink:href="#ArialMT-101"/>
     </g>
    </g>
    <g id="PathCollection_4">
     <g>
      <use style="fill:#55a868;stroke:#55a868;" x="423.080981" xlink:href="#m5f6ed0c6f4" y="109.465625"/>
     </g>
    </g>
    <g id="text_20">
     <!-- Study Reference -->
     <g style="fill:#262626;" transform="translate(441.080981 112.090625)scale(0.1 -0.1)">
      <use xlink:href="#ArialMT-83"/>
      <use x="66.699219" xlink:href="#ArialMT-116"/>
      <use x="94.482422" xlink:href="#ArialMT-117"/>
      <use x="150.097656" xlink:href="#ArialMT-100"/>
      <use x="205.712891" xlink:href="#ArialMT-121"/>
      <use x="255.712891" xlink:href="#ArialMT-32"/>
      <use x="283.496094" xlink:href="#ArialMT-82"/>
      <use x="355.712891" xlink:href="#ArialMT-101"/>
      <use x="411.328125" xlink:href="#ArialMT-102"/>
      <use x="439.111328" xlink:href="#ArialMT-101"/>
      <use x="494.726562" xlink:href="#ArialMT-114"/>
      <use x="528.027344" xlink:href="#ArialMT-101"/>
      <use x="583.642578" xlink:href="#ArialMT-110"/>
      <use x="639.257812" xlink:href="#ArialMT-99"/>
      <use x="689.257812" xlink:href="#ArialMT-101"/>
     </g>
    </g>
   </g>
  </g>
  <g id="axes_2">
   <g id="patch_8">
    <path d="M 552.239601 391.22 
L 658.067188 391.22 
L 658.067188 10.7 
L 552.239601 10.7 
z
" style="fill:#ffffff;"/>
   </g>
   <g id="matplotlib.axis_3">
    <g id="xtick_7">
     <g id="line2d_27">
      <g>
       <use style="fill:#262626;stroke:#262626;stroke-width:0.8;" x="578.696498" xlink:href="#m62539d542c" y="391.22"/>
      </g>
     </g>
     <g id="text_21">
      <!-- SS -->
      <g style="fill:#262626;" transform="translate(572.026185 405.377813)scale(0.1 -0.1)">
       <use xlink:href="#ArialMT-83"/>
       <use x="66.699219" xlink:href="#ArialMT-83"/>
      </g>
     </g>
    </g>
    <g id="xtick_8">
     <g id="line2d_28">
      <g>
       <use style="fill:#262626;stroke:#262626;stroke-width:0.8;" x="631.610291" xlink:href="#m62539d542c" y="391.22"/>
      </g>
     </g>
     <g id="text_22">
      <!-- SR -->
      <g style="fill:#262626;" transform="translate(624.664197 405.377813)scale(0.1 -0.1)">
       <use xlink:href="#ArialMT-83"/>
       <use x="66.699219" xlink:href="#ArialMT-82"/>
      </g>
     </g>
    </g>
    <g id="text_23">
     <!-- Sample Type -->
     <defs>
      <path d="M 25.921875 0 
L 25.921875 63.140625 
L 2.34375 63.140625 
L 2.34375 71.578125 
L 59.078125 71.578125 
L 59.078125 63.140625 
L 35.40625 63.140625 
L 35.40625 0 
z
" id="ArialMT-84"/>
     </defs>
     <g style="fill:#262626;" transform="translate(575.701832 418.645)scale(0.1 -0.1)">
      <use xlink:href="#ArialMT-83"/>
      <use x="66.699219" xlink:href="#ArialMT-97"/>
      <use x="122.314453" xlink:href="#ArialMT-109"/>
      <use x="205.615234" xlink:href="#ArialMT-112"/>
      <use x="261.230469" xlink:href="#ArialMT-108"/>
      <use x="283.447266" xlink:href="#ArialMT-101"/>
      <use x="339.0625" xlink:href="#ArialMT-32"/>
      <use x="366.830078" xlink:href="#ArialMT-84"/>
      <use x="427.835938" xlink:href="#ArialMT-121"/>
      <use x="477.835938" xlink:href="#ArialMT-112"/>
      <use x="533.451172" xlink:href="#ArialMT-101"/>
     </g>
    </g>
   </g>
   <g id="matplotlib.axis_4">
    <g id="ytick_6">
     <g id="line2d_29">
      <g>
       <use style="fill:#262626;stroke:#262626;stroke-width:0.8;" x="552.239601" xlink:href="#mbb0aff3f59" y="380.44195"/>
      </g>
     </g>
    </g>
    <g id="ytick_7">
     <g id="line2d_30">
      <g>
       <use style="fill:#262626;stroke:#262626;stroke-width:0.8;" x="552.239601" xlink:href="#mbb0aff3f59" y="301.815309"/>
      </g>
     </g>
    </g>
    <g id="ytick_8">
     <g id="line2d_31">
      <g>
       <use style="fill:#262626;stroke:#262626;stroke-width:0.8;" x="552.239601" xlink:href="#mbb0aff3f59" y="223.188668"/>
      </g>
     </g>
    </g>
    <g id="ytick_9">
     <g id="line2d_32">
      <g>
       <use style="fill:#262626;stroke:#262626;stroke-width:0.8;" x="552.239601" xlink:href="#mbb0aff3f59" y="144.562027"/>
      </g>
     </g>
    </g>
    <g id="ytick_10">
     <g id="line2d_33">
      <g>
       <use style="fill:#262626;stroke:#262626;stroke-width:0.8;" x="552.239601" xlink:href="#mbb0aff3f59" y="65.935386"/>
      </g>
     </g>
    </g>
   </g>
   <g id="PolyCollection_1">
    <defs>
     <path d="M 584.399462 -151.971461 
L 572.993534 -151.971461 
L 572.154654 -154.476298 
L 571.239944 -156.981135 
L 570.223377 -159.485972 
L 569.081313 -161.99081 
L 567.80178 -164.495647 
L 566.393079 -167.000484 
L 564.889059 -169.505321 
L 563.349016 -172.010159 
L 561.851439 -174.514996 
L 560.482581 -177.019833 
L 559.322353 -179.52467 
L 558.431011 -182.029508 
L 557.839987 -184.534345 
L 557.549152 -187.039182 
L 557.530981 -189.544019 
L 557.740173 -192.048857 
L 558.125844 -194.553694 
L 558.642877 -197.058531 
L 559.259562 -199.563368 
L 559.960009 -202.068206 
L 560.741465 -204.573043 
L 561.608128 -207.07788 
L 562.563801 -209.582717 
L 563.605684 -212.087555 
L 564.72091 -214.592392 
L 565.88629 -217.097229 
L 567.070775 -219.602066 
L 568.239403 -222.106904 
L 569.357358 -224.611741 
L 570.393032 -227.116578 
L 571.319521 -229.621415 
L 572.114623 -232.126253 
L 572.759886 -234.63109 
L 573.239537 -237.135927 
L 573.540066 -239.640764 
L 573.65107 -242.145602 
L 573.567442 -244.650439 
L 573.292584 -247.155276 
L 572.841775 -249.660113 
L 572.244585 -252.164951 
L 571.545156 -254.669788 
L 570.79954 -257.174625 
L 570.069911 -259.679462 
L 569.416334 -262.1843 
L 568.887534 -264.689137 
L 568.512633 -267.193974 
L 568.295773 -269.698811 
L 568.215 -272.203649 
L 568.225811 -274.708486 
L 568.268633 -277.213323 
L 568.278601 -279.71816 
L 568.195519 -282.222998 
L 567.972057 -284.727835 
L 567.578879 -287.232672 
L 567.006382 -289.737509 
L 566.263664 -292.242347 
L 565.375899 -294.747184 
L 564.381424 -297.252021 
L 563.329345 -299.756858 
L 562.277804 -302.261696 
L 561.29228 -304.766533 
L 560.442952 -307.27137 
L 559.800267 -309.776207 
L 559.428503 -312.281045 
L 559.377976 -314.785882 
L 559.677354 -317.290719 
L 560.327913 -319.795556 
L 561.301337 -322.300394 
L 562.541923 -324.805231 
L 563.972974 -327.310068 
L 565.50617 -329.814905 
L 567.052043 -332.319743 
L 568.529607 -334.82458 
L 569.873591 -337.329417 
L 571.038504 -339.834254 
L 571.999557 -342.339092 
L 572.751125 -344.843929 
L 573.303732 -347.348766 
L 573.680478 -349.853603 
L 573.913539 -352.358441 
L 574.040931 -354.863278 
L 574.103448 -357.368115 
L 574.141529 -359.872952 
L 574.191939 -362.37779 
L 574.284396 -364.882627 
L 574.438581 -367.387464 
L 574.66216 -369.892301 
L 574.950384 -372.397139 
L 575.287589 -374.901976 
L 575.650488 -377.406813 
L 576.012661 -379.91165 
L 576.349397 -382.416488 
L 576.64187 -384.921325 
L 576.879865 -387.426162 
L 577.062588 -389.930999 
L 577.197583 -392.435837 
L 577.298163 -394.940674 
L 577.380071 -397.445511 
L 577.458148 -399.950348 
L 579.934848 -399.950348 
L 579.934848 -399.950348 
L 580.012925 -397.445511 
L 580.094832 -394.940674 
L 580.195413 -392.435837 
L 580.330408 -389.930999 
L 580.513131 -387.426162 
L 580.751126 -384.921325 
L 581.043599 -382.416488 
L 581.380335 -379.91165 
L 581.742508 -377.406813 
L 582.105406 -374.901976 
L 582.442612 -372.397139 
L 582.730835 -369.892301 
L 582.954414 -367.387464 
L 583.1086 -364.882627 
L 583.201056 -362.37779 
L 583.251467 -359.872952 
L 583.289548 -357.368115 
L 583.352064 -354.863278 
L 583.479456 -352.358441 
L 583.712518 -349.853603 
L 584.089264 -347.348766 
L 584.641871 -344.843929 
L 585.393439 -342.339092 
L 586.354492 -339.834254 
L 587.519405 -337.329417 
L 588.863389 -334.82458 
L 590.340952 -332.319743 
L 591.886826 -329.814905 
L 593.420022 -327.310068 
L 594.851073 -324.805231 
L 596.091659 -322.300394 
L 597.065083 -319.795556 
L 597.715642 -317.290719 
L 598.01502 -314.785882 
L 597.964492 -312.281045 
L 597.592728 -309.776207 
L 596.950044 -307.27137 
L 596.100715 -304.766533 
L 595.115192 -302.261696 
L 594.063651 -299.756858 
L 593.011572 -297.252021 
L 592.017096 -294.747184 
L 591.129332 -292.242347 
L 590.386613 -289.737509 
L 589.814117 -287.232672 
L 589.420938 -284.727835 
L 589.197477 -282.222998 
L 589.114395 -279.71816 
L 589.124363 -277.213323 
L 589.167185 -274.708486 
L 589.177996 -272.203649 
L 589.097223 -269.698811 
L 588.880363 -267.193974 
L 588.505462 -264.689137 
L 587.976662 -262.1843 
L 587.323084 -259.679462 
L 586.593456 -257.174625 
L 585.847839 -254.669788 
L 585.148411 -252.164951 
L 584.551221 -249.660113 
L 584.100412 -247.155276 
L 583.825554 -244.650439 
L 583.741926 -242.145602 
L 583.852929 -239.640764 
L 584.153459 -237.135927 
L 584.633109 -234.63109 
L 585.278373 -232.126253 
L 586.073474 -229.621415 
L 586.999963 -227.116578 
L 588.035637 -224.611741 
L 589.153593 -222.106904 
L 590.32222 -219.602066 
L 591.506705 -217.097229 
L 592.672086 -214.592392 
L 593.787311 -212.087555 
L 594.829195 -209.582717 
L 595.784867 -207.07788 
L 596.651531 -204.573043 
L 597.432987 -202.068206 
L 598.133433 -199.563368 
L 598.750119 -197.058531 
L 599.267152 -194.553694 
L 599.652823 -192.048857 
L 599.862015 -189.544019 
L 599.843844 -187.039182 
L 599.553009 -184.534345 
L 598.961985 -182.029508 
L 598.070643 -179.52467 
L 596.910415 -177.019833 
L 595.541557 -174.514996 
L 594.04398 -172.010159 
L 592.503936 -169.505321 
L 590.999917 -167.000484 
L 589.591215 -164.495647 
L 588.311682 -161.99081 
L 587.169618 -159.485972 
L 586.153052 -156.981135 
L 585.238341 -154.476298 
L 584.399462 -151.971461 
z
" id="m47478b9f93" style="stroke:#4c4c4c;stroke-width:1.5;"/>
    </defs>
    <g clip-path="url(#p8235c05872)">
     <use style="fill:#5875a4;stroke:#4c4c4c;stroke-width:1.5;" x="0" xlink:href="#m47478b9f93" y="427.949687"/>
    </g>
   </g>
   <g id="PolyCollection_2">
    <defs>
     <path d="M 636.646261 -54.542197 
L 626.574321 -54.542197 
L 626.039412 -55.679971 
L 625.482373 -56.817744 
L 624.881473 -57.955517 
L 624.209748 -59.09329 
L 623.438556 -60.231063 
L 622.542208 -61.368836 
L 621.503148 -62.506609 
L 620.31702 -63.644382 
L 618.9968 -64.782156 
L 617.575176 -65.919929 
L 616.104496 -67.057702 
L 614.653891 -68.195475 
L 613.30365 -69.333248 
L 612.137431 -70.471021 
L 611.233325 -71.608794 
L 610.655076 -72.746568 
L 610.444774 -73.884341 
L 610.61807 -75.022114 
L 611.162547 -76.159887 
L 612.039293 -77.29766 
L 613.187287 -78.435433 
L 614.529802 -79.573206 
L 615.981899 -80.710979 
L 617.458127 -81.848753 
L 618.879652 -82.986526 
L 620.180303 -84.124299 
L 621.311173 -85.262072 
L 622.243539 -86.399845 
L 622.969972 -87.537618 
L 623.503532 -88.675391 
L 623.875053 -89.813164 
L 624.128663 -90.950938 
L 624.315947 -92.088711 
L 624.489351 -93.226484 
L 624.695684 -94.364257 
L 624.970597 -95.50203 
L 625.334821 -96.639803 
L 625.792654 -97.777576 
L 626.332776 -98.91535 
L 626.931027 -100.053123 
L 627.554471 -101.190896 
L 628.165867 -102.328669 
L 628.72774 -103.466442 
L 629.205469 -104.604215 
L 629.569159 -105.741988 
L 629.794446 -106.879761 
L 629.862648 -108.017535 
L 629.760833 -109.155308 
L 629.48229 -110.293081 
L 629.027669 -111.430854 
L 628.406695 -112.568627 
L 627.640026 -113.7064 
L 626.760535 -114.844173 
L 625.813232 -115.981946 
L 624.853221 -117.11972 
L 623.94146 -118.257493 
L 623.138689 -119.395266 
L 622.498376 -120.533039 
L 622.059997 -121.670812 
L 621.843983 -122.808585 
L 621.849458 -123.946358 
L 622.055272 -125.084132 
L 622.424123 -126.221905 
L 622.908843 -127.359678 
L 623.459506 -128.497451 
L 624.029904 -129.635224 
L 624.582281 -130.772997 
L 625.089745 -131.91077 
L 625.536458 -133.048543 
L 625.916213 -134.186317 
L 626.230246 -135.32409 
L 626.485087 -136.461863 
L 626.69093 -137.599636 
L 626.860608 -138.737409 
L 627.008919 -139.875182 
L 627.151884 -141.012955 
L 627.305611 -142.150728 
L 627.484648 -143.288502 
L 627.700016 -144.426275 
L 627.957335 -145.564048 
L 628.25552 -146.701821 
L 628.586413 -147.839594 
L 628.9355 -148.977367 
L 629.283583 -150.11514 
L 629.609075 -151.252914 
L 629.890506 -152.390687 
L 630.108845 -153.52846 
L 630.249407 -154.666233 
L 630.30323 -155.804006 
L 630.26796 -156.941779 
L 630.148267 -158.079552 
L 629.955837 -159.217325 
L 629.708861 -160.355099 
L 629.430939 -161.492872 
L 629.149305 -162.630645 
L 628.892403 -163.768418 
L 628.687009 -164.906191 
L 628.555248 -166.043964 
L 628.511998 -167.181737 
L 634.708584 -167.181737 
L 634.708584 -167.181737 
L 634.665334 -166.043964 
L 634.533572 -164.906191 
L 634.328179 -163.768418 
L 634.071277 -162.630645 
L 633.789643 -161.492872 
L 633.51172 -160.355099 
L 633.264745 -159.217325 
L 633.072315 -158.079552 
L 632.952622 -156.941779 
L 632.917352 -155.804006 
L 632.971175 -154.666233 
L 633.111736 -153.52846 
L 633.330076 -152.390687 
L 633.611507 -151.252914 
L 633.936999 -150.11514 
L 634.285082 -148.977367 
L 634.634169 -147.839594 
L 634.965062 -146.701821 
L 635.263247 -145.564048 
L 635.520566 -144.426275 
L 635.735934 -143.288502 
L 635.91497 -142.150728 
L 636.068698 -141.012955 
L 636.211663 -139.875182 
L 636.359974 -138.737409 
L 636.529652 -137.599636 
L 636.735495 -136.461863 
L 636.990336 -135.32409 
L 637.304369 -134.186317 
L 637.684124 -133.048543 
L 638.130837 -131.91077 
L 638.638301 -130.772997 
L 639.190678 -129.635224 
L 639.761076 -128.497451 
L 640.311739 -127.359678 
L 640.796459 -126.221905 
L 641.165309 -125.084132 
L 641.371124 -123.946358 
L 641.376599 -122.808585 
L 641.160585 -121.670812 
L 640.722206 -120.533039 
L 640.081893 -119.395266 
L 639.279122 -118.257493 
L 638.367361 -117.11972 
L 637.40735 -115.981946 
L 636.460047 -114.844173 
L 635.580556 -113.7064 
L 634.813887 -112.568627 
L 634.192913 -111.430854 
L 633.738291 -110.293081 
L 633.459749 -109.155308 
L 633.357934 -108.017535 
L 633.426136 -106.879761 
L 633.651423 -105.741988 
L 634.015113 -104.604215 
L 634.492842 -103.466442 
L 635.054715 -102.328669 
L 635.666111 -101.190896 
L 636.289555 -100.053123 
L 636.887806 -98.91535 
L 637.427927 -97.777576 
L 637.885761 -96.639803 
L 638.249985 -95.50203 
L 638.524898 -94.364257 
L 638.731231 -93.226484 
L 638.904635 -92.088711 
L 639.091919 -90.950938 
L 639.345529 -89.813164 
L 639.71705 -88.675391 
L 640.25061 -87.537618 
L 640.977043 -86.399845 
L 641.909409 -85.262072 
L 643.040279 -84.124299 
L 644.34093 -82.986526 
L 645.762455 -81.848753 
L 647.238682 -80.710979 
L 648.69078 -79.573206 
L 650.033295 -78.435433 
L 651.181289 -77.29766 
L 652.058035 -76.159887 
L 652.602512 -75.022114 
L 652.775808 -73.884341 
L 652.565506 -72.746568 
L 651.987257 -71.608794 
L 651.083151 -70.471021 
L 649.916932 -69.333248 
L 648.566691 -68.195475 
L 647.116086 -67.057702 
L 645.645406 -65.919929 
L 644.223782 -64.782156 
L 642.903562 -63.644382 
L 641.717434 -62.506609 
L 640.678374 -61.368836 
L 639.782026 -60.231063 
L 639.010834 -59.09329 
L 638.339108 -57.955517 
L 637.738209 -56.817744 
L 637.181169 -55.679971 
L 636.646261 -54.542197 
z
" id="mde0ae0d20d" style="stroke:#4c4c4c;stroke-width:1.5;"/>
    </defs>
    <g clip-path="url(#p8235c05872)">
     <use style="fill:#5f9e6e;stroke:#4c4c4c;stroke-width:1.5;" x="0" xlink:href="#mde0ae0d20d" y="427.949687"/>
    </g>
   </g>
   <g id="line2d_34">
    <path clip-path="url(#p8235c05872)" d="M 578.696498 275.978227 
L 578.696498 27.999339 
" style="fill:none;stroke:#4c4c4c;stroke-linecap:round;stroke-width:1.5;"/>
   </g>
   <g id="line2d_35">
    <path clip-path="url(#p8235c05872)" d="M 578.696498 238.652131 
L 578.696498 114.904467 
" style="fill:none;stroke:#4c4c4c;stroke-linecap:round;stroke-width:4.5;"/>
   </g>
   <g id="line2d_36">
    <path clip-path="url(#p8235c05872)" d="M 631.610291 373.40749 
L 631.610291 260.76795 
" style="fill:none;stroke:#4c4c4c;stroke-linecap:round;stroke-width:1.5;"/>
   </g>
   <g id="line2d_37">
    <path clip-path="url(#p8235c05872)" d="M 631.610291 355.722727 
L 631.610291 306.225284 
" style="fill:none;stroke:#4c4c4c;stroke-linecap:round;stroke-width:4.5;"/>
   </g>
   <g id="patch_9">
    <path d="M 552.239601 380.44195 
L 552.239601 65.935386 
" style="fill:none;stroke:#262626;stroke-linecap:square;stroke-linejoin:miter;stroke-width:0.8;"/>
   </g>
   <g id="patch_10">
    <path d="M 578.696498 391.22 
L 631.610291 391.22 
" style="fill:none;stroke:#262626;stroke-linecap:square;stroke-linejoin:miter;stroke-width:0.8;"/>
   </g>
   <g id="PathCollection_5">
    <defs>
     <path d="M 0 1.5 
C 0.397805 1.5 0.77937 1.341951 1.06066 1.06066 
C 1.341951 0.77937 1.5 0.397805 1.5 0 
C 1.5 -0.397805 1.341951 -0.77937 1.06066 -1.06066 
C 0.77937 -1.341951 0.397805 -1.5 0 -1.5 
C -0.397805 -1.5 -0.77937 -1.341951 -1.06066 -1.06066 
C -1.341951 -0.77937 -1.5 -0.397805 -1.5 0 
C -1.5 0.397805 -1.341951 0.77937 -1.06066 1.06066 
C -0.77937 1.341951 -0.397805 1.5 0 1.5 
z
" id="m9799018fba" style="stroke:#4c4c4c;"/>
    </defs>
    <g clip-path="url(#p8235c05872)">
     <use style="fill:#ffffff;stroke:#4c4c4c;" x="578.696498" xlink:href="#m9799018fba" y="165.398728"/>
    </g>
   </g>
   <g id="PathCollection_6">
    <g clip-path="url(#p8235c05872)">
     <use style="fill:#ffffff;stroke:#4c4c4c;" x="631.610291" xlink:href="#m9799018fba" y="347.147496"/>
    </g>
   </g>
  </g>
 </g>
 <defs>
  <clipPath id="pf493294f1b">
   <rect height="380.52" width="359.813793" x="44.267188" y="10.7"/>
  </clipPath>
  <clipPath id="p8235c05872">
   <rect height="380.52" width="105.827586" x="552.239601" y="10.7"/>
  </clipPath>
 </defs>
</svg>
