<?xml version="1.0" encoding="utf-8" standalone="no"?>
<!DOCTYPE svg PUBLIC "-//W3C//DTD SVG 1.1//EN"
  "http://www.w3.org/Graphics/SVG/1.1/DTD/svg11.dtd">
<!-- Created with matplotlib (https://matplotlib.org/) -->
<svg height="474.849687pt" version="1.1" viewBox="0 0 786.590625 474.849687" width="786.590625pt" xmlns="http://www.w3.org/2000/svg" xmlns:xlink="http://www.w3.org/1999/xlink">
 <defs>
  <style type="text/css">
*{stroke-linecap:butt;stroke-linejoin:round;}
  </style>
 </defs>
 <g id="figure_1">
  <g id="patch_1">
   <path d="M 0 474.849687 
L 786.590625 474.849687 
L 786.590625 0 
L 0 0 
z
" style="fill:#ffffff;"/>
  </g>
  <g id="axes_1">
   <g id="patch_2">
    <path d="M 50.107813 438.12 
L 663.907813 438.12 
L 663.907813 57.6 
L 50.107813 57.6 
z
" style="fill:#ffffff;"/>
   </g>
   <g id="matplotlib.axis_1">
    <g id="xtick_1">
     <g id="line2d_1">
      <defs>
       <path d="M 0 0 
L 0 3.5 
" id="m11c2848c3c" style="stroke:#262626;stroke-width:0.8;"/>
      </defs>
      <g>
       <use style="fill:#262626;stroke:#262626;stroke-width:0.8;" x="117.863449" xlink:href="#m11c2848c3c" y="438.12"/>
      </g>
     </g>
     <g id="text_1">
      <!-- −150 -->
      <defs>
       <path d="M 52.828125 31.203125 
L 5.5625 31.203125 
L 5.5625 39.40625 
L 52.828125 39.40625 
z
" id="ArialMT-8722"/>
       <path d="M 37.25 0 
L 28.46875 0 
L 28.46875 56 
Q 25.296875 52.984375 20.140625 49.953125 
Q 14.984375 46.921875 10.890625 45.40625 
L 10.890625 53.90625 
Q 18.265625 57.375 23.78125 62.296875 
Q 29.296875 67.234375 31.59375 71.875 
L 37.25 71.875 
z
" id="ArialMT-49"/>
       <path d="M 4.15625 18.75 
L 13.375 19.53125 
Q 14.40625 12.796875 18.140625 9.390625 
Q 21.875 6 27.15625 6 
Q 33.5 6 37.890625 10.78125 
Q 42.28125 15.578125 42.28125 23.484375 
Q 42.28125 31 38.0625 35.34375 
Q 33.84375 39.703125 27 39.703125 
Q 22.75 39.703125 19.328125 37.765625 
Q 15.921875 35.84375 13.96875 32.765625 
L 5.71875 33.84375 
L 12.640625 70.609375 
L 48.25 70.609375 
L 48.25 62.203125 
L 19.671875 62.203125 
L 15.828125 42.96875 
Q 22.265625 47.46875 29.34375 47.46875 
Q 38.71875 47.46875 45.15625 40.96875 
Q 51.609375 34.46875 51.609375 24.265625 
Q 51.609375 14.546875 45.953125 7.46875 
Q 39.0625 -1.21875 27.15625 -1.21875 
Q 17.390625 -1.21875 11.203125 4.25 
Q 5.03125 9.71875 4.15625 18.75 
z
" id="ArialMT-53"/>
       <path d="M 4.15625 35.296875 
Q 4.15625 48 6.765625 55.734375 
Q 9.375 63.484375 14.515625 67.671875 
Q 19.671875 71.875 27.484375 71.875 
Q 33.25 71.875 37.59375 69.546875 
Q 41.9375 67.234375 44.765625 62.859375 
Q 47.609375 58.5 49.21875 52.21875 
Q 50.828125 45.953125 50.828125 35.296875 
Q 50.828125 22.703125 48.234375 14.96875 
Q 45.65625 7.234375 40.5 3 
Q 35.359375 -1.21875 27.484375 -1.21875 
Q 17.140625 -1.21875 11.234375 6.203125 
Q 4.15625 15.140625 4.15625 35.296875 
z
M 13.1875 35.296875 
Q 13.1875 17.671875 17.3125 11.828125 
Q 21.4375 6 27.484375 6 
Q 33.546875 6 37.671875 11.859375 
Q 41.796875 17.71875 41.796875 35.296875 
Q 41.796875 52.984375 37.671875 58.78125 
Q 33.546875 64.59375 27.390625 64.59375 
Q 21.34375 64.59375 17.71875 59.46875 
Q 13.1875 52.9375 13.1875 35.296875 
z
" id="ArialMT-48"/>
      </defs>
      <g style="fill:#262626;" transform="translate(106.60173 452.277812)scale(0.1 -0.1)">
       <use xlink:href="#ArialMT-8722"/>
       <use x="58.398438" xlink:href="#ArialMT-49"/>
       <use x="114.013672" xlink:href="#ArialMT-53"/>
       <use x="169.628906" xlink:href="#ArialMT-48"/>
      </g>
     </g>
    </g>
    <g id="xtick_2">
     <g id="line2d_2">
      <g>
       <use style="fill:#262626;stroke:#262626;stroke-width:0.8;" x="197.578237" xlink:href="#m11c2848c3c" y="438.12"/>
      </g>
     </g>
     <g id="text_2">
      <!-- −100 -->
      <g style="fill:#262626;" transform="translate(186.316518 452.277812)scale(0.1 -0.1)">
       <use xlink:href="#ArialMT-8722"/>
       <use x="58.398438" xlink:href="#ArialMT-49"/>
       <use x="114.013672" xlink:href="#ArialMT-48"/>
       <use x="169.628906" xlink:href="#ArialMT-48"/>
      </g>
     </g>
    </g>
    <g id="xtick_3">
     <g id="line2d_3">
      <g>
       <use style="fill:#262626;stroke:#262626;stroke-width:0.8;" x="277.293025" xlink:href="#m11c2848c3c" y="438.12"/>
      </g>
     </g>
     <g id="text_3">
      <!-- −50 -->
      <g style="fill:#262626;" transform="translate(268.811775 452.277812)scale(0.1 -0.1)">
       <use xlink:href="#ArialMT-8722"/>
       <use x="58.398438" xlink:href="#ArialMT-53"/>
       <use x="114.013672" xlink:href="#ArialMT-48"/>
      </g>
     </g>
    </g>
    <g id="xtick_4">
     <g id="line2d_4">
      <g>
       <use style="fill:#262626;stroke:#262626;stroke-width:0.8;" x="357.007813" xlink:href="#m11c2848c3c" y="438.12"/>
      </g>
     </g>
     <g id="text_4">
      <!-- 0 -->
      <g style="fill:#262626;" transform="translate(354.227344 452.277812)scale(0.1 -0.1)">
       <use xlink:href="#ArialMT-48"/>
      </g>
     </g>
    </g>
    <g id="xtick_5">
     <g id="line2d_5">
      <g>
       <use style="fill:#262626;stroke:#262626;stroke-width:0.8;" x="436.7226" xlink:href="#m11c2848c3c" y="438.12"/>
      </g>
     </g>
     <g id="text_5">
      <!-- 50 -->
      <g style="fill:#262626;" transform="translate(431.161663 452.277812)scale(0.1 -0.1)">
       <use xlink:href="#ArialMT-53"/>
       <use x="55.615234" xlink:href="#ArialMT-48"/>
      </g>
     </g>
    </g>
    <g id="xtick_6">
     <g id="line2d_6">
      <g>
       <use style="fill:#262626;stroke:#262626;stroke-width:0.8;" x="516.437388" xlink:href="#m11c2848c3c" y="438.12"/>
      </g>
     </g>
     <g id="text_6">
      <!-- 100 -->
      <g style="fill:#262626;" transform="translate(508.095982 452.277812)scale(0.1 -0.1)">
       <use xlink:href="#ArialMT-49"/>
       <use x="55.615234" xlink:href="#ArialMT-48"/>
       <use x="111.230469" xlink:href="#ArialMT-48"/>
      </g>
     </g>
    </g>
    <g id="xtick_7">
     <g id="line2d_7">
      <g>
       <use style="fill:#262626;stroke:#262626;stroke-width:0.8;" x="596.152176" xlink:href="#m11c2848c3c" y="438.12"/>
      </g>
     </g>
     <g id="text_7">
      <!-- 150 -->
      <g style="fill:#262626;" transform="translate(587.81077 452.277812)scale(0.1 -0.1)">
       <use xlink:href="#ArialMT-49"/>
       <use x="55.615234" xlink:href="#ArialMT-53"/>
       <use x="111.230469" xlink:href="#ArialMT-48"/>
      </g>
     </g>
    </g>
    <g id="text_8">
     <!-- PC1 (42.51%) -->
     <defs>
      <path d="M 7.71875 0 
L 7.71875 71.578125 
L 34.71875 71.578125 
Q 41.84375 71.578125 45.609375 70.90625 
Q 50.875 70.015625 54.4375 67.546875 
Q 58.015625 65.09375 60.1875 60.640625 
Q 62.359375 56.203125 62.359375 50.875 
Q 62.359375 41.75 56.546875 35.421875 
Q 50.734375 29.109375 35.546875 29.109375 
L 17.1875 29.109375 
L 17.1875 0 
z
M 17.1875 37.546875 
L 35.6875 37.546875 
Q 44.875 37.546875 48.734375 40.96875 
Q 52.59375 44.390625 52.59375 50.59375 
Q 52.59375 55.078125 50.3125 58.265625 
Q 48.046875 61.46875 44.34375 62.5 
Q 41.9375 63.140625 35.5 63.140625 
L 17.1875 63.140625 
z
" id="ArialMT-80"/>
      <path d="M 58.796875 25.09375 
L 68.265625 22.703125 
Q 65.28125 11.03125 57.546875 4.90625 
Q 49.8125 -1.21875 38.625 -1.21875 
Q 27.046875 -1.21875 19.796875 3.484375 
Q 12.546875 8.203125 8.765625 17.140625 
Q 4.984375 26.078125 4.984375 36.328125 
Q 4.984375 47.515625 9.25 55.828125 
Q 13.53125 64.15625 21.40625 68.46875 
Q 29.296875 72.796875 38.765625 72.796875 
Q 49.515625 72.796875 56.828125 67.328125 
Q 64.15625 61.859375 67.046875 51.953125 
L 57.71875 49.75 
Q 55.21875 57.5625 50.484375 61.125 
Q 45.75 64.703125 38.578125 64.703125 
Q 30.328125 64.703125 24.78125 60.734375 
Q 19.234375 56.78125 16.984375 50.109375 
Q 14.75 43.453125 14.75 36.375 
Q 14.75 27.25 17.40625 20.4375 
Q 20.0625 13.625 25.671875 10.25 
Q 31.296875 6.890625 37.84375 6.890625 
Q 45.796875 6.890625 51.3125 11.46875 
Q 56.84375 16.0625 58.796875 25.09375 
z
" id="ArialMT-67"/>
      <path id="ArialMT-32"/>
      <path d="M 23.390625 -21.046875 
Q 16.109375 -11.859375 11.078125 0.4375 
Q 6.0625 12.75 6.0625 25.921875 
Q 6.0625 37.546875 9.8125 48.1875 
Q 14.203125 60.546875 23.390625 72.796875 
L 29.6875 72.796875 
Q 23.78125 62.640625 21.875 58.296875 
Q 18.890625 51.5625 17.1875 44.234375 
Q 15.09375 35.109375 15.09375 25.875 
Q 15.09375 2.390625 29.6875 -21.046875 
z
" id="ArialMT-40"/>
      <path d="M 32.328125 0 
L 32.328125 17.140625 
L 1.265625 17.140625 
L 1.265625 25.203125 
L 33.9375 71.578125 
L 41.109375 71.578125 
L 41.109375 25.203125 
L 50.78125 25.203125 
L 50.78125 17.140625 
L 41.109375 17.140625 
L 41.109375 0 
z
M 32.328125 25.203125 
L 32.328125 57.46875 
L 9.90625 25.203125 
z
" id="ArialMT-52"/>
      <path d="M 50.34375 8.453125 
L 50.34375 0 
L 3.03125 0 
Q 2.9375 3.171875 4.046875 6.109375 
Q 5.859375 10.9375 9.828125 15.625 
Q 13.8125 20.3125 21.34375 26.46875 
Q 33.015625 36.03125 37.109375 41.625 
Q 41.21875 47.21875 41.21875 52.203125 
Q 41.21875 57.421875 37.46875 61 
Q 33.734375 64.59375 27.734375 64.59375 
Q 21.390625 64.59375 17.578125 60.78125 
Q 13.765625 56.984375 13.71875 50.25 
L 4.6875 51.171875 
Q 5.609375 61.28125 11.65625 66.578125 
Q 17.71875 71.875 27.9375 71.875 
Q 38.234375 71.875 44.234375 66.15625 
Q 50.25 60.453125 50.25 52 
Q 50.25 47.703125 48.484375 43.546875 
Q 46.734375 39.40625 42.65625 34.8125 
Q 38.578125 30.21875 29.109375 22.21875 
Q 21.1875 15.578125 18.9375 13.203125 
Q 16.703125 10.84375 15.234375 8.453125 
z
" id="ArialMT-50"/>
      <path d="M 9.078125 0 
L 9.078125 10.015625 
L 19.09375 10.015625 
L 19.09375 0 
z
" id="ArialMT-46"/>
      <path d="M 5.8125 54.390625 
Q 5.8125 62.0625 9.671875 67.421875 
Q 13.53125 72.796875 20.84375 72.796875 
Q 27.59375 72.796875 32 67.984375 
Q 36.421875 63.1875 36.421875 53.859375 
Q 36.421875 44.78125 31.953125 39.875 
Q 27.484375 34.96875 20.953125 34.96875 
Q 14.453125 34.96875 10.125 39.796875 
Q 5.8125 44.625 5.8125 54.390625 
z
M 21.09375 66.75 
Q 17.828125 66.75 15.65625 63.90625 
Q 13.484375 61.078125 13.484375 53.515625 
Q 13.484375 46.625 15.671875 43.8125 
Q 17.875 41.015625 21.09375 41.015625 
Q 24.421875 41.015625 26.59375 43.84375 
Q 28.765625 46.6875 28.765625 54.203125 
Q 28.765625 61.140625 26.5625 63.9375 
Q 24.359375 66.75 21.09375 66.75 
z
M 21.140625 -2.640625 
L 60.296875 72.796875 
L 67.4375 72.796875 
L 28.421875 -2.640625 
z
M 52.09375 16.796875 
Q 52.09375 24.515625 55.953125 29.859375 
Q 59.8125 35.203125 67.1875 35.203125 
Q 73.921875 35.203125 78.34375 30.390625 
Q 82.765625 25.59375 82.765625 16.265625 
Q 82.765625 7.171875 78.296875 2.265625 
Q 73.828125 -2.640625 67.234375 -2.640625 
Q 60.75 -2.640625 56.421875 2.21875 
Q 52.09375 7.078125 52.09375 16.796875 
z
M 67.4375 29.15625 
Q 64.109375 29.15625 61.9375 26.3125 
Q 59.765625 23.484375 59.765625 15.921875 
Q 59.765625 9.078125 61.953125 6.25 
Q 64.15625 3.421875 67.390625 3.421875 
Q 70.75 3.421875 72.921875 6.25 
Q 75.09375 9.078125 75.09375 16.609375 
Q 75.09375 23.53125 72.890625 26.34375 
Q 70.703125 29.15625 67.4375 29.15625 
z
" id="ArialMT-37"/>
      <path d="M 12.359375 -21.046875 
L 6.0625 -21.046875 
Q 20.65625 2.390625 20.65625 25.875 
Q 20.65625 35.0625 18.5625 44.09375 
Q 16.890625 51.421875 13.921875 58.15625 
Q 12.015625 62.546875 6.0625 72.796875 
L 12.359375 72.796875 
Q 21.53125 60.546875 25.921875 48.1875 
Q 29.6875 37.546875 29.6875 25.921875 
Q 29.6875 12.75 24.625 0.4375 
Q 19.578125 -11.859375 12.359375 -21.046875 
z
" id="ArialMT-41"/>
     </defs>
     <g style="fill:#262626;" transform="translate(325.605469 465.545)scale(0.1 -0.1)">
      <use xlink:href="#ArialMT-80"/>
      <use x="66.699219" xlink:href="#ArialMT-67"/>
      <use x="138.916016" xlink:href="#ArialMT-49"/>
      <use x="194.53125" xlink:href="#ArialMT-32"/>
      <use x="222.314453" xlink:href="#ArialMT-40"/>
      <use x="255.615234" xlink:href="#ArialMT-52"/>
      <use x="311.230469" xlink:href="#ArialMT-50"/>
      <use x="366.845703" xlink:href="#ArialMT-46"/>
      <use x="394.628906" xlink:href="#ArialMT-53"/>
      <use x="450.244141" xlink:href="#ArialMT-49"/>
      <use x="505.859375" xlink:href="#ArialMT-37"/>
      <use x="594.775391" xlink:href="#ArialMT-41"/>
     </g>
    </g>
   </g>
   <g id="matplotlib.axis_2">
    <g id="ytick_1">
     <g id="line2d_8">
      <defs>
       <path d="M 0 0 
L -3.5 0 
" id="md334459fa9" style="stroke:#262626;stroke-width:0.8;"/>
      </defs>
      <g>
       <use style="fill:#262626;stroke:#262626;stroke-width:0.8;" x="50.107813" xlink:href="#md334459fa9" y="412.498276"/>
      </g>
     </g>
     <g id="text_9">
      <!-- −150 -->
      <g style="fill:#262626;" transform="translate(20.584375 416.077182)scale(0.1 -0.1)">
       <use xlink:href="#ArialMT-8722"/>
       <use x="58.398438" xlink:href="#ArialMT-49"/>
       <use x="114.013672" xlink:href="#ArialMT-53"/>
       <use x="169.628906" xlink:href="#ArialMT-48"/>
      </g>
     </g>
    </g>
    <g id="ytick_2">
     <g id="line2d_9">
      <g>
       <use style="fill:#262626;stroke:#262626;stroke-width:0.8;" x="50.107813" xlink:href="#md334459fa9" y="357.618851"/>
      </g>
     </g>
     <g id="text_10">
      <!-- −100 -->
      <g style="fill:#262626;" transform="translate(20.584375 361.197757)scale(0.1 -0.1)">
       <use xlink:href="#ArialMT-8722"/>
       <use x="58.398438" xlink:href="#ArialMT-49"/>
       <use x="114.013672" xlink:href="#ArialMT-48"/>
       <use x="169.628906" xlink:href="#ArialMT-48"/>
      </g>
     </g>
    </g>
    <g id="ytick_3">
     <g id="line2d_10">
      <g>
       <use style="fill:#262626;stroke:#262626;stroke-width:0.8;" x="50.107813" xlink:href="#md334459fa9" y="302.739425"/>
      </g>
     </g>
     <g id="text_11">
      <!-- −50 -->
      <g style="fill:#262626;" transform="translate(26.145312 306.318332)scale(0.1 -0.1)">
       <use xlink:href="#ArialMT-8722"/>
       <use x="58.398438" xlink:href="#ArialMT-53"/>
       <use x="114.013672" xlink:href="#ArialMT-48"/>
      </g>
     </g>
    </g>
    <g id="ytick_4">
     <g id="line2d_11">
      <g>
       <use style="fill:#262626;stroke:#262626;stroke-width:0.8;" x="50.107813" xlink:href="#md334459fa9" y="247.86"/>
      </g>
     </g>
     <g id="text_12">
      <!-- 0 -->
      <g style="fill:#262626;" transform="translate(37.546875 251.438906)scale(0.1 -0.1)">
       <use xlink:href="#ArialMT-48"/>
      </g>
     </g>
    </g>
    <g id="ytick_5">
     <g id="line2d_12">
      <g>
       <use style="fill:#262626;stroke:#262626;stroke-width:0.8;" x="50.107813" xlink:href="#md334459fa9" y="192.980575"/>
      </g>
     </g>
     <g id="text_13">
      <!-- 50 -->
      <g style="fill:#262626;" transform="translate(31.985937 196.559481)scale(0.1 -0.1)">
       <use xlink:href="#ArialMT-53"/>
       <use x="55.615234" xlink:href="#ArialMT-48"/>
      </g>
     </g>
    </g>
    <g id="ytick_6">
     <g id="line2d_13">
      <g>
       <use style="fill:#262626;stroke:#262626;stroke-width:0.8;" x="50.107813" xlink:href="#md334459fa9" y="138.101149"/>
      </g>
     </g>
     <g id="text_14">
      <!-- 100 -->
      <g style="fill:#262626;" transform="translate(26.425 141.680056)scale(0.1 -0.1)">
       <use xlink:href="#ArialMT-49"/>
       <use x="55.615234" xlink:href="#ArialMT-48"/>
       <use x="111.230469" xlink:href="#ArialMT-48"/>
      </g>
     </g>
    </g>
    <g id="ytick_7">
     <g id="line2d_14">
      <g>
       <use style="fill:#262626;stroke:#262626;stroke-width:0.8;" x="50.107813" xlink:href="#md334459fa9" y="83.221724"/>
      </g>
     </g>
     <g id="text_15">
      <!-- 150 -->
      <g style="fill:#262626;" transform="translate(26.425 86.80063)scale(0.1 -0.1)">
       <use xlink:href="#ArialMT-49"/>
       <use x="55.615234" xlink:href="#ArialMT-53"/>
       <use x="111.230469" xlink:href="#ArialMT-48"/>
      </g>
     </g>
    </g>
    <g id="text_16">
     <!-- PC2 (34.47%) -->
     <defs>
      <path d="M 4.203125 18.890625 
L 12.984375 20.0625 
Q 14.5 12.59375 18.140625 9.296875 
Q 21.78125 6 27 6 
Q 33.203125 6 37.46875 10.296875 
Q 41.75 14.59375 41.75 20.953125 
Q 41.75 27 37.796875 30.921875 
Q 33.84375 34.859375 27.734375 34.859375 
Q 25.25 34.859375 21.53125 33.890625 
L 22.515625 41.609375 
Q 23.390625 41.5 23.921875 41.5 
Q 29.546875 41.5 34.03125 44.421875 
Q 38.53125 47.359375 38.53125 53.46875 
Q 38.53125 58.296875 35.25 61.46875 
Q 31.984375 64.65625 26.8125 64.65625 
Q 21.6875 64.65625 18.265625 61.421875 
Q 14.84375 58.203125 13.875 51.765625 
L 5.078125 53.328125 
Q 6.6875 62.15625 12.390625 67.015625 
Q 18.109375 71.875 26.609375 71.875 
Q 32.46875 71.875 37.390625 69.359375 
Q 42.328125 66.84375 44.9375 62.5 
Q 47.5625 58.15625 47.5625 53.265625 
Q 47.5625 48.640625 45.0625 44.828125 
Q 42.578125 41.015625 37.703125 38.765625 
Q 44.046875 37.3125 47.5625 32.6875 
Q 51.078125 28.078125 51.078125 21.140625 
Q 51.078125 11.765625 44.234375 5.25 
Q 37.40625 -1.265625 26.953125 -1.265625 
Q 17.53125 -1.265625 11.296875 4.34375 
Q 5.078125 9.96875 4.203125 18.890625 
z
" id="ArialMT-51"/>
      <path d="M 4.734375 62.203125 
L 4.734375 70.65625 
L 51.078125 70.65625 
L 51.078125 63.8125 
Q 44.234375 56.546875 37.515625 44.484375 
Q 30.8125 32.421875 27.15625 19.671875 
Q 24.515625 10.6875 23.78125 0 
L 14.75 0 
Q 14.890625 8.453125 18.0625 20.40625 
Q 21.234375 32.375 27.171875 43.484375 
Q 33.109375 54.59375 39.796875 62.203125 
z
" id="ArialMT-55"/>
     </defs>
     <g style="fill:#262626;" transform="translate(14.479687 279.262344)rotate(-90)scale(0.1 -0.1)">
      <use xlink:href="#ArialMT-80"/>
      <use x="66.699219" xlink:href="#ArialMT-67"/>
      <use x="138.916016" xlink:href="#ArialMT-50"/>
      <use x="194.53125" xlink:href="#ArialMT-32"/>
      <use x="222.314453" xlink:href="#ArialMT-40"/>
      <use x="255.615234" xlink:href="#ArialMT-51"/>
      <use x="311.230469" xlink:href="#ArialMT-52"/>
      <use x="366.845703" xlink:href="#ArialMT-46"/>
      <use x="394.628906" xlink:href="#ArialMT-52"/>
      <use x="450.244141" xlink:href="#ArialMT-55"/>
      <use x="505.859375" xlink:href="#ArialMT-37"/>
      <use x="594.775391" xlink:href="#ArialMT-41"/>
     </g>
    </g>
   </g>
   <g id="PathCollection_1">
    <defs>
     <path d="M 0 3 
C 0.795609 3 1.55874 2.683901 2.12132 2.12132 
C 2.683901 1.55874 3 0.795609 3 0 
C 3 -0.795609 2.683901 -1.55874 2.12132 -2.12132 
C 1.55874 -2.683901 0.795609 -3 0 -3 
C -0.795609 -3 -1.55874 -2.683901 -2.12132 -2.12132 
C -2.683901 -1.55874 -3 -0.795609 -3 0 
C -3 0.795609 -2.683901 1.55874 -2.12132 2.12132 
C -1.55874 2.683901 -0.795609 3 0 3 
z
" id="m343aa3d85c" style="stroke:#4c72b0;"/>
    </defs>
    <g clip-path="url(#paee4beef47)">
     <use style="fill:#4c72b0;stroke:#4c72b0;" x="526.099331" xlink:href="#m343aa3d85c" y="278.555238"/>
     <use style="fill:#4c72b0;stroke:#4c72b0;" x="195.837948" xlink:href="#m343aa3d85c" y="335.916799"/>
     <use style="fill:#4c72b0;stroke:#4c72b0;" x="334.414003" xlink:href="#m343aa3d85c" y="126.497109"/>
     <use style="fill:#4c72b0;stroke:#4c72b0;" x="370.226881" xlink:href="#m343aa3d85c" y="318.753197"/>
     <use style="fill:#4c72b0;stroke:#4c72b0;" x="445.829381" xlink:href="#m343aa3d85c" y="217.305882"/>
     <use style="fill:#4c72b0;stroke:#4c72b0;" x="260.744065" xlink:href="#m343aa3d85c" y="212.98974"/>
     <use style="fill:#4c72b0;stroke:#4c72b0;" x="559.825272" xlink:href="#m343aa3d85c" y="306.893518"/>
     <use style="fill:#4c72b0;stroke:#4c72b0;" x="196.930577" xlink:href="#m343aa3d85c" y="326.287811"/>
     <use style="fill:#4c72b0;stroke:#4c72b0;" x="330.338151" xlink:href="#m343aa3d85c" y="121.369981"/>
     <use style="fill:#4c72b0;stroke:#4c72b0;" x="373.857925" xlink:href="#m343aa3d85c" y="317.191908"/>
     <use style="fill:#4c72b0;stroke:#4c72b0;" x="444.565455" xlink:href="#m343aa3d85c" y="214.843178"/>
     <use style="fill:#4c72b0;stroke:#4c72b0;" x="261.332274" xlink:href="#m343aa3d85c" y="224.769568"/>
     <use style="fill:#4c72b0;stroke:#4c72b0;" x="546.622615" xlink:href="#m343aa3d85c" y="294.478187"/>
     <use style="fill:#4c72b0;stroke:#4c72b0;" x="197.383669" xlink:href="#m343aa3d85c" y="323.285229"/>
     <use style="fill:#4c72b0;stroke:#4c72b0;" x="326.839753" xlink:href="#m343aa3d85c" y="118.913583"/>
     <use style="fill:#4c72b0;stroke:#4c72b0;" x="362.816626" xlink:href="#m343aa3d85c" y="289.394503"/>
     <use style="fill:#4c72b0;stroke:#4c72b0;" x="464.918588" xlink:href="#m343aa3d85c" y="233.315915"/>
     <use style="fill:#4c72b0;stroke:#4c72b0;" x="265.033455" xlink:href="#m343aa3d85c" y="235.643457"/>
     <use style="fill:#4c72b0;stroke:#4c72b0;" x="549.74546" xlink:href="#m343aa3d85c" y="300.625344"/>
     <use style="fill:#4c72b0;stroke:#4c72b0;" x="197.475984" xlink:href="#m343aa3d85c" y="327.140604"/>
     <use style="fill:#4c72b0;stroke:#4c72b0;" x="320.295217" xlink:href="#m343aa3d85c" y="115.291043"/>
     <use style="fill:#4c72b0;stroke:#4c72b0;" x="362.571514" xlink:href="#m343aa3d85c" y="289.273275"/>
     <use style="fill:#4c72b0;stroke:#4c72b0;" x="439.954266" xlink:href="#m343aa3d85c" y="212.143961"/>
     <use style="fill:#4c72b0;stroke:#4c72b0;" x="260.105074" xlink:href="#m343aa3d85c" y="218.835128"/>
     <use style="fill:#4c72b0;stroke:#4c72b0;" x="517.332263" xlink:href="#m343aa3d85c" y="275.693799"/>
     <use style="fill:#4c72b0;stroke:#4c72b0;" x="197.503741" xlink:href="#m343aa3d85c" y="318.051831"/>
     <use style="fill:#4c72b0;stroke:#4c72b0;" x="328.631362" xlink:href="#m343aa3d85c" y="120.860828"/>
     <use style="fill:#4c72b0;stroke:#4c72b0;" x="379.650189" xlink:href="#m343aa3d85c" y="324.068679"/>
     <use style="fill:#4c72b0;stroke:#4c72b0;" x="446.138943" xlink:href="#m343aa3d85c" y="218.345102"/>
     <use style="fill:#4c72b0;stroke:#4c72b0;" x="262.18275" xlink:href="#m343aa3d85c" y="224.146696"/>
     <use style="fill:#4c72b0;stroke:#4c72b0;" x="547.603353" xlink:href="#m343aa3d85c" y="295.892301"/>
     <use style="fill:#4c72b0;stroke:#4c72b0;" x="197.858639" xlink:href="#m343aa3d85c" y="319.66519"/>
     <use style="fill:#4c72b0;stroke:#4c72b0;" x="331.832673" xlink:href="#m343aa3d85c" y="122.653854"/>
     <use style="fill:#4c72b0;stroke:#4c72b0;" x="371.347877" xlink:href="#m343aa3d85c" y="310.735647"/>
     <use style="fill:#4c72b0;stroke:#4c72b0;" x="451.604753" xlink:href="#m343aa3d85c" y="222.181436"/>
     <use style="fill:#4c72b0;stroke:#4c72b0;" x="260.606746" xlink:href="#m343aa3d85c" y="221.961447"/>
     <use style="fill:#4c72b0;stroke:#4c72b0;" x="541.119621" xlink:href="#m343aa3d85c" y="292.051345"/>
     <use style="fill:#4c72b0;stroke:#4c72b0;" x="198.961672" xlink:href="#m343aa3d85c" y="324.718229"/>
     <use style="fill:#4c72b0;stroke:#4c72b0;" x="330.13274" xlink:href="#m343aa3d85c" y="121.976645"/>
     <use style="fill:#4c72b0;stroke:#4c72b0;" x="377.469554" xlink:href="#m343aa3d85c" y="322.382993"/>
     <use style="fill:#4c72b0;stroke:#4c72b0;" x="436.639248" xlink:href="#m343aa3d85c" y="209.408712"/>
     <use style="fill:#4c72b0;stroke:#4c72b0;" x="264.813627" xlink:href="#m343aa3d85c" y="237.063959"/>
     <use style="fill:#4c72b0;stroke:#4c72b0;" x="525.268325" xlink:href="#m343aa3d85c" y="278.362744"/>
     <use style="fill:#4c72b0;stroke:#4c72b0;" x="196.583593" xlink:href="#m343aa3d85c" y="320.393526"/>
     <use style="fill:#4c72b0;stroke:#4c72b0;" x="323.975665" xlink:href="#m343aa3d85c" y="115.557893"/>
     <use style="fill:#4c72b0;stroke:#4c72b0;" x="371.837536" xlink:href="#m343aa3d85c" y="317.612337"/>
     <use style="fill:#4c72b0;stroke:#4c72b0;" x="437.063013" xlink:href="#m343aa3d85c" y="209.924521"/>
     <use style="fill:#4c72b0;stroke:#4c72b0;" x="260.257466" xlink:href="#m343aa3d85c" y="216.522139"/>
     <use style="fill:#4c72b0;stroke:#4c72b0;" x="564.088021" xlink:href="#m343aa3d85c" y="312.872403"/>
     <use style="fill:#4c72b0;stroke:#4c72b0;" x="198.153878" xlink:href="#m343aa3d85c" y="317.360344"/>
     <use style="fill:#4c72b0;stroke:#4c72b0;" x="328.287151" xlink:href="#m343aa3d85c" y="120.364036"/>
     <use style="fill:#4c72b0;stroke:#4c72b0;" x="372.862507" xlink:href="#m343aa3d85c" y="309.609811"/>
     <use style="fill:#4c72b0;stroke:#4c72b0;" x="429.331774" xlink:href="#m343aa3d85c" y="204.379174"/>
     <use style="fill:#4c72b0;stroke:#4c72b0;" x="266.218752" xlink:href="#m343aa3d85c" y="238.453872"/>
     <use style="fill:#4c72b0;stroke:#4c72b0;" x="531.176127" xlink:href="#m343aa3d85c" y="285.168257"/>
     <use style="fill:#4c72b0;stroke:#4c72b0;" x="195.895952" xlink:href="#m343aa3d85c" y="335.575827"/>
     <use style="fill:#4c72b0;stroke:#4c72b0;" x="333.003026" xlink:href="#m343aa3d85c" y="123.878859"/>
     <use style="fill:#4c72b0;stroke:#4c72b0;" x="371.564886" xlink:href="#m343aa3d85c" y="308.47871"/>
     <use style="fill:#4c72b0;stroke:#4c72b0;" x="448.297617" xlink:href="#m343aa3d85c" y="222.662515"/>
     <use style="fill:#4c72b0;stroke:#4c72b0;" x="259.235401" xlink:href="#m343aa3d85c" y="222.989991"/>
     <use style="fill:#4c72b0;stroke:#4c72b0;" x="530.578868" xlink:href="#m343aa3d85c" y="284.191932"/>
     <use style="fill:#4c72b0;stroke:#4c72b0;" x="199.787171" xlink:href="#m343aa3d85c" y="304.758574"/>
     <use style="fill:#4c72b0;stroke:#4c72b0;" x="330.740125" xlink:href="#m343aa3d85c" y="121.730933"/>
     <use style="fill:#4c72b0;stroke:#4c72b0;" x="373.608301" xlink:href="#m343aa3d85c" y="314.872156"/>
     <use style="fill:#4c72b0;stroke:#4c72b0;" x="455.811958" xlink:href="#m343aa3d85c" y="225.842038"/>
     <use style="fill:#4c72b0;stroke:#4c72b0;" x="263.488841" xlink:href="#m343aa3d85c" y="227.504309"/>
     <use style="fill:#4c72b0;stroke:#4c72b0;" x="531.480092" xlink:href="#m343aa3d85c" y="282.990173"/>
     <use style="fill:#4c72b0;stroke:#4c72b0;" x="196.941977" xlink:href="#m343aa3d85c" y="322.438859"/>
     <use style="fill:#4c72b0;stroke:#4c72b0;" x="325.538214" xlink:href="#m343aa3d85c" y="116.584906"/>
     <use style="fill:#4c72b0;stroke:#4c72b0;" x="370.699371" xlink:href="#m343aa3d85c" y="308.211907"/>
     <use style="fill:#4c72b0;stroke:#4c72b0;" x="447.676876" xlink:href="#m343aa3d85c" y="218.252313"/>
     <use style="fill:#4c72b0;stroke:#4c72b0;" x="262.514077" xlink:href="#m343aa3d85c" y="224.278067"/>
     <use style="fill:#4c72b0;stroke:#4c72b0;" x="548.747111" xlink:href="#m343aa3d85c" y="296.705582"/>
     <use style="fill:#4c72b0;stroke:#4c72b0;" x="195.160792" xlink:href="#m343aa3d85c" y="333.406151"/>
     <use style="fill:#4c72b0;stroke:#4c72b0;" x="335.872721" xlink:href="#m343aa3d85c" y="127.51163"/>
     <use style="fill:#4c72b0;stroke:#4c72b0;" x="374.528941" xlink:href="#m343aa3d85c" y="316.503899"/>
     <use style="fill:#4c72b0;stroke:#4c72b0;" x="452.553983" xlink:href="#m343aa3d85c" y="224.151759"/>
     <use style="fill:#4c72b0;stroke:#4c72b0;" x="263.824215" xlink:href="#m343aa3d85c" y="234.044932"/>
    </g>
   </g>
   <g id="PathCollection_2">
    <defs>
     <path d="M 0 3 
C 0.795609 3 1.55874 2.683901 2.12132 2.12132 
C 2.683901 1.55874 3 0.795609 3 0 
C 3 -0.795609 2.683901 -1.55874 2.12132 -2.12132 
C 1.55874 -2.683901 0.795609 -3 0 -3 
C -0.795609 -3 -1.55874 -2.683901 -2.12132 -2.12132 
C -2.683901 -1.55874 -3 -0.795609 -3 0 
C -3 0.795609 -2.683901 1.55874 -2.12132 2.12132 
C -1.55874 2.683901 -0.795609 3 0 3 
z
" id="m8d4744262c" style="stroke:#55a868;"/>
    </defs>
    <g clip-path="url(#paee4beef47)">
     <use style="fill:#55a868;stroke:#55a868;" x="360.74126" xlink:href="#m8d4744262c" y="255.383952"/>
     <use style="fill:#55a868;stroke:#55a868;" x="353.699833" xlink:href="#m8d4744262c" y="240.226235"/>
     <use style="fill:#55a868;stroke:#55a868;" x="359.501928" xlink:href="#m8d4744262c" y="255.803344"/>
     <use style="fill:#55a868;stroke:#55a868;" x="359.08475" xlink:href="#m8d4744262c" y="254.342303"/>
     <use style="fill:#55a868;stroke:#55a868;" x="358.575787" xlink:href="#m8d4744262c" y="255.320312"/>
     <use style="fill:#55a868;stroke:#55a868;" x="359.87895" xlink:href="#m8d4744262c" y="256.684247"/>
     <use style="fill:#55a868;stroke:#55a868;" x="348.383797" xlink:href="#m8d4744262c" y="234.393562"/>
     <use style="fill:#55a868;stroke:#55a868;" x="346.488742" xlink:href="#m8d4744262c" y="230.972735"/>
     <use style="fill:#55a868;stroke:#55a868;" x="348.249758" xlink:href="#m8d4744262c" y="235.084564"/>
     <use style="fill:#55a868;stroke:#55a868;" x="348.634532" xlink:href="#m8d4744262c" y="232.401783"/>
     <use style="fill:#55a868;stroke:#55a868;" x="360.534652" xlink:href="#m8d4744262c" y="256.959696"/>
     <use style="fill:#55a868;stroke:#55a868;" x="351.679687" xlink:href="#m8d4744262c" y="253.382754"/>
     <use style="fill:#55a868;stroke:#55a868;" x="353.562608" xlink:href="#m8d4744262c" y="245.570785"/>
     <use style="fill:#55a868;stroke:#55a868;" x="351.327548" xlink:href="#m8d4744262c" y="240.051939"/>
     <use style="fill:#55a868;stroke:#55a868;" x="357.953258" xlink:href="#m8d4744262c" y="251.660575"/>
     <use style="fill:#55a868;stroke:#55a868;" x="353.361378" xlink:href="#m8d4744262c" y="243.372522"/>
     <use style="fill:#55a868;stroke:#55a868;" x="347.266977" xlink:href="#m8d4744262c" y="236.986933"/>
     <use style="fill:#55a868;stroke:#55a868;" x="345.976995" xlink:href="#m8d4744262c" y="230.241827"/>
    </g>
   </g>
   <g id="patch_3">
    <path clip-path="url(#paee4beef47)" d="M 357.007813 406.41 
C 424.833505 406.41 489.890364 389.704172 537.850372 359.97178 
C 585.810379 330.239389 612.757813 289.907952 612.757813 247.86 
C 612.757813 205.812048 585.810379 165.480611 537.850372 135.74822 
C 489.890364 106.015828 424.833505 89.31 357.007813 89.31 
C 289.18212 89.31 224.125261 106.015828 176.165253 135.74822 
C 128.205246 165.480611 101.257812 205.812048 101.257812 247.86 
C 101.257812 289.907952 128.205246 330.239389 176.165253 359.97178 
C 224.125261 389.704172 289.18212 406.41 357.007813 406.41 
z
" style="fill:none;stroke:#1a1a1a;stroke-linejoin:miter;stroke-width:2;"/>
   </g>
   <g id="patch_4">
    <path d="M 50.107813 438.12 
L 50.107813 57.6 
" style="fill:none;stroke:#262626;stroke-linecap:square;stroke-linejoin:miter;stroke-width:0.8;"/>
   </g>
   <g id="patch_5">
    <path d="M 663.907813 438.12 
L 663.907813 57.6 
" style="fill:none;stroke:#262626;stroke-linecap:square;stroke-linejoin:miter;stroke-width:0.8;"/>
   </g>
   <g id="patch_6">
    <path d="M 50.107813 438.12 
L 663.907813 438.12 
" style="fill:none;stroke:#262626;stroke-linecap:square;stroke-linejoin:miter;stroke-width:0.8;"/>
   </g>
   <g id="patch_7">
    <path d="M 50.107813 57.6 
L 663.907813 57.6 
" style="fill:none;stroke:#262626;stroke-linecap:square;stroke-linejoin:miter;stroke-width:0.8;"/>
   </g>
   <g id="legend_1">
    <g id="patch_8">
     <path d="M 670.907813 94.36875 
L 777.390625 94.36875 
Q 779.390625 94.36875 779.390625 92.36875 
L 779.390625 64.6 
Q 779.390625 62.6 777.390625 62.6 
L 670.907813 62.6 
Q 668.907813 62.6 668.907813 64.6 
L 668.907813 92.36875 
Q 668.907813 94.36875 670.907813 94.36875 
z
" style="fill:#ffffff;opacity:0.8;stroke:#cccccc;stroke-linejoin:miter;"/>
    </g>
    <g id="PathCollection_3">
     <g>
      <use style="fill:#4c72b0;stroke:#4c72b0;" x="682.907813" xlink:href="#m343aa3d85c" y="71.254687"/>
     </g>
    </g>
    <g id="text_17">
     <!-- Study Sample -->
     <defs>
      <path d="M 4.5 23 
L 13.421875 23.78125 
Q 14.0625 18.40625 16.375 14.96875 
Q 18.703125 11.53125 23.578125 9.40625 
Q 28.46875 7.28125 34.578125 7.28125 
Q 39.984375 7.28125 44.140625 8.890625 
Q 48.296875 10.5 50.3125 13.296875 
Q 52.34375 16.109375 52.34375 19.4375 
Q 52.34375 22.796875 50.390625 25.3125 
Q 48.4375 27.828125 43.953125 29.546875 
Q 41.0625 30.671875 31.203125 33.03125 
Q 21.34375 35.40625 17.390625 37.5 
Q 12.25 40.1875 9.734375 44.15625 
Q 7.234375 48.140625 7.234375 53.078125 
Q 7.234375 58.5 10.296875 63.203125 
Q 13.375 67.921875 19.28125 70.359375 
Q 25.203125 72.796875 32.421875 72.796875 
Q 40.375 72.796875 46.453125 70.234375 
Q 52.546875 67.671875 55.8125 62.6875 
Q 59.078125 57.71875 59.328125 51.421875 
L 50.25 50.734375 
Q 49.515625 57.515625 45.28125 60.984375 
Q 41.0625 64.453125 32.8125 64.453125 
Q 24.21875 64.453125 20.28125 61.296875 
Q 16.359375 58.15625 16.359375 53.71875 
Q 16.359375 49.859375 19.140625 47.359375 
Q 21.875 44.875 33.421875 42.265625 
Q 44.96875 39.65625 49.265625 37.703125 
Q 55.515625 34.8125 58.484375 30.390625 
Q 61.46875 25.984375 61.46875 20.21875 
Q 61.46875 14.5 58.203125 9.4375 
Q 54.9375 4.390625 48.796875 1.578125 
Q 42.671875 -1.21875 35.015625 -1.21875 
Q 25.296875 -1.21875 18.71875 1.609375 
Q 12.15625 4.4375 8.421875 10.125 
Q 4.6875 15.828125 4.5 23 
z
" id="ArialMT-83"/>
      <path d="M 25.78125 7.859375 
L 27.046875 0.09375 
Q 23.34375 -0.6875 20.40625 -0.6875 
Q 15.625 -0.6875 12.984375 0.828125 
Q 10.359375 2.34375 9.28125 4.8125 
Q 8.203125 7.28125 8.203125 15.1875 
L 8.203125 45.015625 
L 1.765625 45.015625 
L 1.765625 51.859375 
L 8.203125 51.859375 
L 8.203125 64.703125 
L 16.9375 69.96875 
L 16.9375 51.859375 
L 25.78125 51.859375 
L 25.78125 45.015625 
L 16.9375 45.015625 
L 16.9375 14.703125 
Q 16.9375 10.9375 17.40625 9.859375 
Q 17.875 8.796875 18.921875 8.15625 
Q 19.96875 7.515625 21.921875 7.515625 
Q 23.390625 7.515625 25.78125 7.859375 
z
" id="ArialMT-116"/>
      <path d="M 40.578125 0 
L 40.578125 7.625 
Q 34.515625 -1.171875 24.125 -1.171875 
Q 19.53125 -1.171875 15.546875 0.578125 
Q 11.578125 2.34375 9.640625 5 
Q 7.71875 7.671875 6.9375 11.53125 
Q 6.390625 14.109375 6.390625 19.734375 
L 6.390625 51.859375 
L 15.1875 51.859375 
L 15.1875 23.09375 
Q 15.1875 16.21875 15.71875 13.8125 
Q 16.546875 10.359375 19.234375 8.375 
Q 21.921875 6.390625 25.875 6.390625 
Q 29.828125 6.390625 33.296875 8.421875 
Q 36.765625 10.453125 38.203125 13.9375 
Q 39.65625 17.4375 39.65625 24.078125 
L 39.65625 51.859375 
L 48.4375 51.859375 
L 48.4375 0 
z
" id="ArialMT-117"/>
      <path d="M 40.234375 0 
L 40.234375 6.546875 
Q 35.296875 -1.171875 25.734375 -1.171875 
Q 19.53125 -1.171875 14.328125 2.25 
Q 9.125 5.671875 6.265625 11.796875 
Q 3.421875 17.921875 3.421875 25.875 
Q 3.421875 33.640625 6 39.96875 
Q 8.59375 46.296875 13.765625 49.65625 
Q 18.953125 53.03125 25.34375 53.03125 
Q 30.03125 53.03125 33.6875 51.046875 
Q 37.359375 49.078125 39.65625 45.90625 
L 39.65625 71.578125 
L 48.390625 71.578125 
L 48.390625 0 
z
M 12.453125 25.875 
Q 12.453125 15.921875 16.640625 10.984375 
Q 20.84375 6.0625 26.5625 6.0625 
Q 32.328125 6.0625 36.34375 10.765625 
Q 40.375 15.484375 40.375 25.140625 
Q 40.375 35.796875 36.265625 40.765625 
Q 32.171875 45.75 26.171875 45.75 
Q 20.3125 45.75 16.375 40.96875 
Q 12.453125 36.1875 12.453125 25.875 
z
" id="ArialMT-100"/>
      <path d="M 6.203125 -19.96875 
L 5.21875 -11.71875 
Q 8.109375 -12.5 10.25 -12.5 
Q 13.1875 -12.5 14.9375 -11.515625 
Q 16.703125 -10.546875 17.828125 -8.796875 
Q 18.65625 -7.46875 20.515625 -2.25 
Q 20.75 -1.515625 21.296875 -0.09375 
L 1.609375 51.859375 
L 11.078125 51.859375 
L 21.875 21.828125 
Q 23.96875 16.109375 25.640625 9.8125 
Q 27.15625 15.875 29.25 21.625 
L 40.328125 51.859375 
L 49.125 51.859375 
L 29.390625 -0.875 
Q 26.21875 -9.421875 24.46875 -12.640625 
Q 22.125 -17 19.09375 -19.015625 
Q 16.0625 -21.046875 11.859375 -21.046875 
Q 9.328125 -21.046875 6.203125 -19.96875 
z
" id="ArialMT-121"/>
      <path d="M 40.4375 6.390625 
Q 35.546875 2.25 31.03125 0.53125 
Q 26.515625 -1.171875 21.34375 -1.171875 
Q 12.796875 -1.171875 8.203125 3 
Q 3.609375 7.171875 3.609375 13.671875 
Q 3.609375 17.484375 5.34375 20.625 
Q 7.078125 23.78125 9.890625 25.6875 
Q 12.703125 27.59375 16.21875 28.5625 
Q 18.796875 29.25 24.03125 29.890625 
Q 34.671875 31.15625 39.703125 32.90625 
Q 39.75 34.71875 39.75 35.203125 
Q 39.75 40.578125 37.25 42.78125 
Q 33.890625 45.75 27.25 45.75 
Q 21.046875 45.75 18.09375 43.578125 
Q 15.140625 41.40625 13.71875 35.890625 
L 5.125 37.0625 
Q 6.296875 42.578125 8.984375 45.96875 
Q 11.671875 49.359375 16.75 51.1875 
Q 21.828125 53.03125 28.515625 53.03125 
Q 35.15625 53.03125 39.296875 51.46875 
Q 43.453125 49.90625 45.40625 47.53125 
Q 47.359375 45.171875 48.140625 41.546875 
Q 48.578125 39.3125 48.578125 33.453125 
L 48.578125 21.734375 
Q 48.578125 9.46875 49.140625 6.21875 
Q 49.703125 2.984375 51.375 0 
L 42.1875 0 
Q 40.828125 2.734375 40.4375 6.390625 
z
M 39.703125 26.03125 
Q 34.90625 24.078125 25.34375 22.703125 
Q 19.921875 21.921875 17.671875 20.9375 
Q 15.4375 19.96875 14.203125 18.09375 
Q 12.984375 16.21875 12.984375 13.921875 
Q 12.984375 10.40625 15.640625 8.0625 
Q 18.3125 5.71875 23.4375 5.71875 
Q 28.515625 5.71875 32.46875 7.9375 
Q 36.421875 10.15625 38.28125 14.015625 
Q 39.703125 17 39.703125 22.796875 
z
" id="ArialMT-97"/>
      <path d="M 6.59375 0 
L 6.59375 51.859375 
L 14.453125 51.859375 
L 14.453125 44.578125 
Q 16.890625 48.390625 20.9375 50.703125 
Q 25 53.03125 30.171875 53.03125 
Q 35.9375 53.03125 39.625 50.640625 
Q 43.3125 48.25 44.828125 43.953125 
Q 50.984375 53.03125 60.84375 53.03125 
Q 68.5625 53.03125 72.703125 48.75 
Q 76.859375 44.484375 76.859375 35.59375 
L 76.859375 0 
L 68.109375 0 
L 68.109375 32.671875 
Q 68.109375 37.9375 67.25 40.25 
Q 66.40625 42.578125 64.15625 43.984375 
Q 61.921875 45.40625 58.890625 45.40625 
Q 53.421875 45.40625 49.796875 41.765625 
Q 46.1875 38.140625 46.1875 30.125 
L 46.1875 0 
L 37.40625 0 
L 37.40625 33.6875 
Q 37.40625 39.546875 35.25 42.46875 
Q 33.109375 45.40625 28.21875 45.40625 
Q 24.515625 45.40625 21.359375 43.453125 
Q 18.21875 41.5 16.796875 37.734375 
Q 15.375 33.984375 15.375 26.90625 
L 15.375 0 
z
" id="ArialMT-109"/>
      <path d="M 6.59375 -19.875 
L 6.59375 51.859375 
L 14.59375 51.859375 
L 14.59375 45.125 
Q 17.4375 49.078125 21 51.046875 
Q 24.5625 53.03125 29.640625 53.03125 
Q 36.28125 53.03125 41.359375 49.609375 
Q 46.4375 46.1875 49.015625 39.953125 
Q 51.609375 33.734375 51.609375 26.3125 
Q 51.609375 18.359375 48.75 11.984375 
Q 45.90625 5.609375 40.453125 2.21875 
Q 35.015625 -1.171875 29 -1.171875 
Q 24.609375 -1.171875 21.109375 0.6875 
Q 17.625 2.546875 15.375 5.375 
L 15.375 -19.875 
z
M 14.546875 25.640625 
Q 14.546875 15.625 18.59375 10.84375 
Q 22.65625 6.0625 28.421875 6.0625 
Q 34.28125 6.0625 38.453125 11.015625 
Q 42.625 15.96875 42.625 26.375 
Q 42.625 36.28125 38.546875 41.203125 
Q 34.46875 46.140625 28.8125 46.140625 
Q 23.1875 46.140625 18.859375 40.890625 
Q 14.546875 35.640625 14.546875 25.640625 
z
" id="ArialMT-112"/>
      <path d="M 6.390625 0 
L 6.390625 71.578125 
L 15.1875 71.578125 
L 15.1875 0 
z
" id="ArialMT-108"/>
      <path d="M 42.09375 16.703125 
L 51.171875 15.578125 
Q 49.03125 7.625 43.21875 3.21875 
Q 37.40625 -1.171875 28.375 -1.171875 
Q 17 -1.171875 10.328125 5.828125 
Q 3.65625 12.84375 3.65625 25.484375 
Q 3.65625 38.578125 10.390625 45.796875 
Q 17.140625 53.03125 27.875 53.03125 
Q 38.28125 53.03125 44.875 45.953125 
Q 51.46875 38.875 51.46875 26.03125 
Q 51.46875 25.25 51.421875 23.6875 
L 12.75 23.6875 
Q 13.234375 15.140625 17.578125 10.59375 
Q 21.921875 6.0625 28.421875 6.0625 
Q 33.25 6.0625 36.671875 8.59375 
Q 40.09375 11.140625 42.09375 16.703125 
z
M 13.234375 30.90625 
L 42.1875 30.90625 
Q 41.609375 37.453125 38.875 40.71875 
Q 34.671875 45.796875 27.984375 45.796875 
Q 21.921875 45.796875 17.796875 41.75 
Q 13.671875 37.703125 13.234375 30.90625 
z
" id="ArialMT-101"/>
     </defs>
     <g style="fill:#262626;" transform="translate(700.907813 73.879687)scale(0.1 -0.1)">
      <use xlink:href="#ArialMT-83"/>
      <use x="66.699219" xlink:href="#ArialMT-116"/>
      <use x="94.482422" xlink:href="#ArialMT-117"/>
      <use x="150.097656" xlink:href="#ArialMT-100"/>
      <use x="205.712891" xlink:href="#ArialMT-121"/>
      <use x="255.712891" xlink:href="#ArialMT-32"/>
      <use x="283.496094" xlink:href="#ArialMT-83"/>
      <use x="350.195312" xlink:href="#ArialMT-97"/>
      <use x="405.810547" xlink:href="#ArialMT-109"/>
      <use x="489.111328" xlink:href="#ArialMT-112"/>
      <use x="544.726562" xlink:href="#ArialMT-108"/>
      <use x="566.943359" xlink:href="#ArialMT-101"/>
     </g>
    </g>
    <g id="PathCollection_4">
     <g>
      <use style="fill:#55a868;stroke:#55a868;" x="682.907813" xlink:href="#m8d4744262c" y="85.639062"/>
     </g>
    </g>
    <g id="text_18">
     <!-- Study Reference -->
     <defs>
      <path d="M 7.859375 0 
L 7.859375 71.578125 
L 39.59375 71.578125 
Q 49.171875 71.578125 54.140625 69.640625 
Q 59.125 67.71875 62.109375 62.828125 
Q 65.09375 57.953125 65.09375 52.046875 
Q 65.09375 44.4375 60.15625 39.203125 
Q 55.21875 33.984375 44.921875 32.5625 
Q 48.6875 30.765625 50.640625 29 
Q 54.78125 25.203125 58.5 19.484375 
L 70.953125 0 
L 59.03125 0 
L 49.5625 14.890625 
Q 45.40625 21.34375 42.71875 24.75 
Q 40.046875 28.171875 37.921875 29.53125 
Q 35.796875 30.90625 33.59375 31.453125 
Q 31.984375 31.78125 28.328125 31.78125 
L 17.328125 31.78125 
L 17.328125 0 
z
M 17.328125 39.984375 
L 37.703125 39.984375 
Q 44.1875 39.984375 47.84375 41.328125 
Q 51.515625 42.671875 53.421875 45.625 
Q 55.328125 48.578125 55.328125 52.046875 
Q 55.328125 57.125 51.640625 60.390625 
Q 47.953125 63.671875 39.984375 63.671875 
L 17.328125 63.671875 
z
" id="ArialMT-82"/>
      <path d="M 8.6875 0 
L 8.6875 45.015625 
L 0.921875 45.015625 
L 0.921875 51.859375 
L 8.6875 51.859375 
L 8.6875 57.375 
Q 8.6875 62.59375 9.625 65.140625 
Q 10.890625 68.5625 14.078125 70.671875 
Q 17.28125 72.796875 23.046875 72.796875 
Q 26.765625 72.796875 31.25 71.921875 
L 29.9375 64.265625 
Q 27.203125 64.75 24.75 64.75 
Q 20.75 64.75 19.09375 63.03125 
Q 17.4375 61.328125 17.4375 56.640625 
L 17.4375 51.859375 
L 27.546875 51.859375 
L 27.546875 45.015625 
L 17.4375 45.015625 
L 17.4375 0 
z
" id="ArialMT-102"/>
      <path d="M 6.5 0 
L 6.5 51.859375 
L 14.40625 51.859375 
L 14.40625 44 
Q 17.4375 49.515625 20 51.265625 
Q 22.5625 53.03125 25.640625 53.03125 
Q 30.078125 53.03125 34.671875 50.203125 
L 31.640625 42.046875 
Q 28.421875 43.953125 25.203125 43.953125 
Q 22.3125 43.953125 20.015625 42.21875 
Q 17.71875 40.484375 16.75 37.40625 
Q 15.28125 32.71875 15.28125 27.15625 
L 15.28125 0 
z
" id="ArialMT-114"/>
      <path d="M 6.59375 0 
L 6.59375 51.859375 
L 14.5 51.859375 
L 14.5 44.484375 
Q 20.21875 53.03125 31 53.03125 
Q 35.6875 53.03125 39.625 51.34375 
Q 43.5625 49.65625 45.515625 46.921875 
Q 47.46875 44.1875 48.25 40.4375 
Q 48.734375 37.984375 48.734375 31.890625 
L 48.734375 0 
L 39.9375 0 
L 39.9375 31.546875 
Q 39.9375 36.921875 38.90625 39.578125 
Q 37.890625 42.234375 35.28125 43.8125 
Q 32.671875 45.40625 29.15625 45.40625 
Q 23.53125 45.40625 19.453125 41.84375 
Q 15.375 38.28125 15.375 28.328125 
L 15.375 0 
z
" id="ArialMT-110"/>
      <path d="M 40.4375 19 
L 49.078125 17.875 
Q 47.65625 8.9375 41.8125 3.875 
Q 35.984375 -1.171875 27.484375 -1.171875 
Q 16.84375 -1.171875 10.375 5.78125 
Q 3.90625 12.75 3.90625 25.734375 
Q 3.90625 34.125 6.6875 40.421875 
Q 9.46875 46.734375 15.15625 49.875 
Q 20.84375 53.03125 27.546875 53.03125 
Q 35.984375 53.03125 41.359375 48.75 
Q 46.734375 44.484375 48.25 36.625 
L 39.703125 35.296875 
Q 38.484375 40.53125 35.375 43.15625 
Q 32.28125 45.796875 27.875 45.796875 
Q 21.234375 45.796875 17.078125 41.03125 
Q 12.9375 36.28125 12.9375 25.984375 
Q 12.9375 15.53125 16.9375 10.796875 
Q 20.953125 6.0625 27.390625 6.0625 
Q 32.5625 6.0625 36.03125 9.234375 
Q 39.5 12.40625 40.4375 19 
z
" id="ArialMT-99"/>
     </defs>
     <g style="fill:#262626;" transform="translate(700.907813 88.264062)scale(0.1 -0.1)">
      <use xlink:href="#ArialMT-83"/>
      <use x="66.699219" xlink:href="#ArialMT-116"/>
      <use x="94.482422" xlink:href="#ArialMT-117"/>
      <use x="150.097656" xlink:href="#ArialMT-100"/>
      <use x="205.712891" xlink:href="#ArialMT-121"/>
      <use x="255.712891" xlink:href="#ArialMT-32"/>
      <use x="283.496094" xlink:href="#ArialMT-82"/>
      <use x="355.712891" xlink:href="#ArialMT-101"/>
      <use x="411.328125" xlink:href="#ArialMT-102"/>
      <use x="439.111328" xlink:href="#ArialMT-101"/>
      <use x="494.726562" xlink:href="#ArialMT-114"/>
      <use x="528.027344" xlink:href="#ArialMT-101"/>
      <use x="583.642578" xlink:href="#ArialMT-110"/>
      <use x="639.257812" xlink:href="#ArialMT-99"/>
      <use x="689.257812" xlink:href="#ArialMT-101"/>
     </g>
    </g>
   </g>
  </g>
  <g id="text_19">
   <!-- Sample Type PC1 vs PC2 -->
   <defs>
    <path d="M 25.921875 0 
L 25.921875 63.140625 
L 2.34375 63.140625 
L 2.34375 71.578125 
L 59.078125 71.578125 
L 59.078125 63.140625 
L 35.40625 63.140625 
L 35.40625 0 
z
" id="ArialMT-84"/>
    <path d="M 21 0 
L 1.265625 51.859375 
L 10.546875 51.859375 
L 21.6875 20.796875 
Q 23.484375 15.765625 25 10.359375 
Q 26.171875 14.453125 28.265625 20.21875 
L 39.796875 51.859375 
L 48.828125 51.859375 
L 29.203125 0 
z
" id="ArialMT-118"/>
    <path d="M 3.078125 15.484375 
L 11.765625 16.84375 
Q 12.5 11.625 15.84375 8.84375 
Q 19.1875 6.0625 25.203125 6.0625 
Q 31.25 6.0625 34.171875 8.515625 
Q 37.109375 10.984375 37.109375 14.3125 
Q 37.109375 17.28125 34.515625 19 
Q 32.71875 20.171875 25.53125 21.96875 
Q 15.875 24.421875 12.140625 26.203125 
Q 8.40625 27.984375 6.46875 31.125 
Q 4.546875 34.28125 4.546875 38.09375 
Q 4.546875 41.546875 6.125 44.5 
Q 7.71875 47.46875 10.453125 49.421875 
Q 12.5 50.921875 16.03125 51.96875 
Q 19.578125 53.03125 23.640625 53.03125 
Q 29.734375 53.03125 34.34375 51.265625 
Q 38.96875 49.515625 41.15625 46.5 
Q 43.359375 43.5 44.1875 38.484375 
L 35.59375 37.3125 
Q 35.015625 41.3125 32.203125 43.546875 
Q 29.390625 45.796875 24.265625 45.796875 
Q 18.21875 45.796875 15.625 43.796875 
Q 13.03125 41.796875 13.03125 39.109375 
Q 13.03125 37.40625 14.109375 36.03125 
Q 15.1875 34.625 17.484375 33.6875 
Q 18.796875 33.203125 25.25 31.453125 
Q 34.578125 28.953125 38.25 27.359375 
Q 41.9375 25.78125 44.03125 22.75 
Q 46.140625 19.734375 46.140625 15.234375 
Q 46.140625 10.84375 43.578125 6.953125 
Q 41.015625 3.078125 36.171875 0.953125 
Q 31.34375 -1.171875 25.25 -1.171875 
Q 15.140625 -1.171875 9.84375 3.03125 
Q 4.546875 7.234375 3.078125 15.484375 
z
" id="ArialMT-115"/>
   </defs>
   <g style="fill:#262626;" transform="translate(277.421563 15.935625)scale(0.12 -0.12)">
    <use xlink:href="#ArialMT-83"/>
    <use x="66.699219" xlink:href="#ArialMT-97"/>
    <use x="122.314453" xlink:href="#ArialMT-109"/>
    <use x="205.615234" xlink:href="#ArialMT-112"/>
    <use x="261.230469" xlink:href="#ArialMT-108"/>
    <use x="283.447266" xlink:href="#ArialMT-101"/>
    <use x="339.0625" xlink:href="#ArialMT-32"/>
    <use x="366.830078" xlink:href="#ArialMT-84"/>
    <use x="427.835938" xlink:href="#ArialMT-121"/>
    <use x="477.835938" xlink:href="#ArialMT-112"/>
    <use x="533.451172" xlink:href="#ArialMT-101"/>
    <use x="589.066406" xlink:href="#ArialMT-32"/>
    <use x="616.849609" xlink:href="#ArialMT-80"/>
    <use x="683.548828" xlink:href="#ArialMT-67"/>
    <use x="755.765625" xlink:href="#ArialMT-49"/>
    <use x="811.380859" xlink:href="#ArialMT-32"/>
    <use x="839.164062" xlink:href="#ArialMT-118"/>
    <use x="889.164062" xlink:href="#ArialMT-115"/>
    <use x="939.164062" xlink:href="#ArialMT-32"/>
    <use x="966.947266" xlink:href="#ArialMT-80"/>
    <use x="1033.646484" xlink:href="#ArialMT-67"/>
    <use x="1105.863281" xlink:href="#ArialMT-50"/>
   </g>
  </g>
 </g>
 <defs>
  <clipPath id="paee4beef47">
   <rect height="380.52" width="613.8" x="50.107813" y="57.6"/>
  </clipPath>
 </defs>
</svg>
