<?xml version="1.0" encoding="utf-8" standalone="no"?>
<!DOCTYPE svg PUBLIC "-//W3C//DTD SVG 1.1//EN"
  "http://www.w3.org/Graphics/SVG/1.1/DTD/svg11.dtd">
<!-- Created with matplotlib (https://matplotlib.org/) -->
<svg height="427.949687pt" version="1.1" viewBox="0 0 665.745312 427.949687" width="665.745312pt" xmlns="http://www.w3.org/2000/svg" xmlns:xlink="http://www.w3.org/1999/xlink">
 <defs>
  <style type="text/css">
*{stroke-linecap:butt;stroke-linejoin:round;}
  </style>
 </defs>
 <g id="figure_1">
  <g id="patch_1">
   <path d="M 0 427.949687 
L 665.745312 427.949687 
L 665.745312 0 
L 0 0 
z
" style="fill:#ffffff;"/>
  </g>
  <g id="axes_1">
   <g id="patch_2">
    <path d="M 41.245313 391.22 
L 401.059106 391.22 
L 401.059106 10.7 
L 41.245313 10.7 
z
" style="fill:#ffffff;"/>
   </g>
   <g id="matplotlib.axis_1">
    <g id="xtick_1">
     <g id="line2d_1">
      <defs>
       <path d="M 0 0 
L 0 3.5 
" id="m3faaf89f8a" style="stroke:#262626;stroke-width:0.8;"/>
      </defs>
      <g>
       <use style="fill:#262626;stroke:#262626;stroke-width:0.8;" x="64.615416" xlink:href="#m3faaf89f8a" y="391.22"/>
      </g>
     </g>
     <g id="text_1">
      <!-- 60 -->
      <defs>
       <path d="M 49.75 54.046875 
L 41.015625 53.375 
Q 39.84375 58.546875 37.703125 60.890625 
Q 34.125 64.65625 28.90625 64.65625 
Q 24.703125 64.65625 21.53125 62.3125 
Q 17.390625 59.28125 14.984375 53.46875 
Q 12.59375 47.65625 12.5 36.921875 
Q 15.671875 41.75 20.265625 44.09375 
Q 24.859375 46.4375 29.890625 46.4375 
Q 38.671875 46.4375 44.84375 39.96875 
Q 51.03125 33.5 51.03125 23.25 
Q 51.03125 16.5 48.125 10.71875 
Q 45.21875 4.9375 40.140625 1.859375 
Q 35.0625 -1.21875 28.609375 -1.21875 
Q 17.625 -1.21875 10.6875 6.859375 
Q 3.765625 14.9375 3.765625 33.5 
Q 3.765625 54.25 11.421875 63.671875 
Q 18.109375 71.875 29.4375 71.875 
Q 37.890625 71.875 43.28125 67.140625 
Q 48.6875 62.40625 49.75 54.046875 
z
M 13.875 23.1875 
Q 13.875 18.65625 15.796875 14.5 
Q 17.71875 10.359375 21.1875 8.171875 
Q 24.65625 6 28.46875 6 
Q 34.03125 6 38.03125 10.484375 
Q 42.046875 14.984375 42.046875 22.703125 
Q 42.046875 30.125 38.078125 34.390625 
Q 34.125 38.671875 28.125 38.671875 
Q 22.171875 38.671875 18.015625 34.390625 
Q 13.875 30.125 13.875 23.1875 
z
" id="ArialMT-54"/>
       <path d="M 4.15625 35.296875 
Q 4.15625 48 6.765625 55.734375 
Q 9.375 63.484375 14.515625 67.671875 
Q 19.671875 71.875 27.484375 71.875 
Q 33.25 71.875 37.59375 69.546875 
Q 41.9375 67.234375 44.765625 62.859375 
Q 47.609375 58.5 49.21875 52.21875 
Q 50.828125 45.953125 50.828125 35.296875 
Q 50.828125 22.703125 48.234375 14.96875 
Q 45.65625 7.234375 40.5 3 
Q 35.359375 -1.21875 27.484375 -1.21875 
Q 17.140625 -1.21875 11.234375 6.203125 
Q 4.15625 15.140625 4.15625 35.296875 
z
M 13.1875 35.296875 
Q 13.1875 17.671875 17.3125 11.828125 
Q 21.4375 6 27.484375 6 
Q 33.546875 6 37.671875 11.859375 
Q 41.796875 17.71875 41.796875 35.296875 
Q 41.796875 52.984375 37.671875 58.78125 
Q 33.546875 64.59375 27.390625 64.59375 
Q 21.34375 64.59375 17.71875 59.46875 
Q 13.1875 52.9375 13.1875 35.296875 
z
" id="ArialMT-48"/>
      </defs>
      <g style="fill:#262626;" transform="translate(59.054479 405.377813)scale(0.1 -0.1)">
       <use xlink:href="#ArialMT-54"/>
       <use x="55.615234" xlink:href="#ArialMT-48"/>
      </g>
     </g>
    </g>
    <g id="xtick_2">
     <g id="line2d_2">
      <g>
       <use style="fill:#262626;stroke:#262626;stroke-width:0.8;" x="127.998025" xlink:href="#m3faaf89f8a" y="391.22"/>
      </g>
     </g>
     <g id="text_2">
      <!-- 80 -->
      <defs>
       <path d="M 17.671875 38.8125 
Q 12.203125 40.828125 9.5625 44.53125 
Q 6.9375 48.25 6.9375 53.421875 
Q 6.9375 61.234375 12.546875 66.546875 
Q 18.171875 71.875 27.484375 71.875 
Q 36.859375 71.875 42.578125 66.421875 
Q 48.296875 60.984375 48.296875 53.171875 
Q 48.296875 48.1875 45.671875 44.5 
Q 43.0625 40.828125 37.75 38.8125 
Q 44.34375 36.671875 47.78125 31.875 
Q 51.21875 27.09375 51.21875 20.453125 
Q 51.21875 11.28125 44.71875 5.03125 
Q 38.234375 -1.21875 27.640625 -1.21875 
Q 17.046875 -1.21875 10.546875 5.046875 
Q 4.046875 11.328125 4.046875 20.703125 
Q 4.046875 27.6875 7.59375 32.390625 
Q 11.140625 37.109375 17.671875 38.8125 
z
M 15.921875 53.71875 
Q 15.921875 48.640625 19.1875 45.40625 
Q 22.46875 42.1875 27.6875 42.1875 
Q 32.765625 42.1875 36.015625 45.375 
Q 39.265625 48.578125 39.265625 53.21875 
Q 39.265625 58.0625 35.90625 61.359375 
Q 32.5625 64.65625 27.59375 64.65625 
Q 22.5625 64.65625 19.234375 61.421875 
Q 15.921875 58.203125 15.921875 53.71875 
z
M 13.09375 20.65625 
Q 13.09375 16.890625 14.875 13.375 
Q 16.65625 9.859375 20.171875 7.921875 
Q 23.6875 6 27.734375 6 
Q 34.03125 6 38.125 10.046875 
Q 42.234375 14.109375 42.234375 20.359375 
Q 42.234375 26.703125 38.015625 30.859375 
Q 33.796875 35.015625 27.4375 35.015625 
Q 21.234375 35.015625 17.15625 30.90625 
Q 13.09375 26.8125 13.09375 20.65625 
z
" id="ArialMT-56"/>
      </defs>
      <g style="fill:#262626;" transform="translate(122.437088 405.377813)scale(0.1 -0.1)">
       <use xlink:href="#ArialMT-56"/>
       <use x="55.615234" xlink:href="#ArialMT-48"/>
      </g>
     </g>
    </g>
    <g id="xtick_3">
     <g id="line2d_3">
      <g>
       <use style="fill:#262626;stroke:#262626;stroke-width:0.8;" x="191.380634" xlink:href="#m3faaf89f8a" y="391.22"/>
      </g>
     </g>
     <g id="text_3">
      <!-- 100 -->
      <defs>
       <path d="M 37.25 0 
L 28.46875 0 
L 28.46875 56 
Q 25.296875 52.984375 20.140625 49.953125 
Q 14.984375 46.921875 10.890625 45.40625 
L 10.890625 53.90625 
Q 18.265625 57.375 23.78125 62.296875 
Q 29.296875 67.234375 31.59375 71.875 
L 37.25 71.875 
z
" id="ArialMT-49"/>
      </defs>
      <g style="fill:#262626;" transform="translate(183.039228 405.377813)scale(0.1 -0.1)">
       <use xlink:href="#ArialMT-49"/>
       <use x="55.615234" xlink:href="#ArialMT-48"/>
       <use x="111.230469" xlink:href="#ArialMT-48"/>
      </g>
     </g>
    </g>
    <g id="xtick_4">
     <g id="line2d_4">
      <g>
       <use style="fill:#262626;stroke:#262626;stroke-width:0.8;" x="254.763243" xlink:href="#m3faaf89f8a" y="391.22"/>
      </g>
     </g>
     <g id="text_4">
      <!-- 120 -->
      <defs>
       <path d="M 50.34375 8.453125 
L 50.34375 0 
L 3.03125 0 
Q 2.9375 3.171875 4.046875 6.109375 
Q 5.859375 10.9375 9.828125 15.625 
Q 13.8125 20.3125 21.34375 26.46875 
Q 33.015625 36.03125 37.109375 41.625 
Q 41.21875 47.21875 41.21875 52.203125 
Q 41.21875 57.421875 37.46875 61 
Q 33.734375 64.59375 27.734375 64.59375 
Q 21.390625 64.59375 17.578125 60.78125 
Q 13.765625 56.984375 13.71875 50.25 
L 4.6875 51.171875 
Q 5.609375 61.28125 11.65625 66.578125 
Q 17.71875 71.875 27.9375 71.875 
Q 38.234375 71.875 44.234375 66.15625 
Q 50.25 60.453125 50.25 52 
Q 50.25 47.703125 48.484375 43.546875 
Q 46.734375 39.40625 42.65625 34.8125 
Q 38.578125 30.21875 29.109375 22.21875 
Q 21.1875 15.578125 18.9375 13.203125 
Q 16.703125 10.84375 15.234375 8.453125 
z
" id="ArialMT-50"/>
      </defs>
      <g style="fill:#262626;" transform="translate(246.421837 405.377813)scale(0.1 -0.1)">
       <use xlink:href="#ArialMT-49"/>
       <use x="55.615234" xlink:href="#ArialMT-50"/>
       <use x="111.230469" xlink:href="#ArialMT-48"/>
      </g>
     </g>
    </g>
    <g id="xtick_5">
     <g id="line2d_5">
      <g>
       <use style="fill:#262626;stroke:#262626;stroke-width:0.8;" x="318.145852" xlink:href="#m3faaf89f8a" y="391.22"/>
      </g>
     </g>
     <g id="text_5">
      <!-- 140 -->
      <defs>
       <path d="M 32.328125 0 
L 32.328125 17.140625 
L 1.265625 17.140625 
L 1.265625 25.203125 
L 33.9375 71.578125 
L 41.109375 71.578125 
L 41.109375 25.203125 
L 50.78125 25.203125 
L 50.78125 17.140625 
L 41.109375 17.140625 
L 41.109375 0 
z
M 32.328125 25.203125 
L 32.328125 57.46875 
L 9.90625 25.203125 
z
" id="ArialMT-52"/>
      </defs>
      <g style="fill:#262626;" transform="translate(309.804446 405.377813)scale(0.1 -0.1)">
       <use xlink:href="#ArialMT-49"/>
       <use x="55.615234" xlink:href="#ArialMT-52"/>
       <use x="111.230469" xlink:href="#ArialMT-48"/>
      </g>
     </g>
    </g>
    <g id="xtick_6">
     <g id="line2d_6">
      <g>
       <use style="fill:#262626;stroke:#262626;stroke-width:0.8;" x="381.528461" xlink:href="#m3faaf89f8a" y="391.22"/>
      </g>
     </g>
     <g id="text_6">
      <!-- 160 -->
      <g style="fill:#262626;" transform="translate(373.187055 405.377813)scale(0.1 -0.1)">
       <use xlink:href="#ArialMT-49"/>
       <use x="55.615234" xlink:href="#ArialMT-54"/>
       <use x="111.230469" xlink:href="#ArialMT-48"/>
      </g>
     </g>
    </g>
    <g id="text_7">
     <!-- Run Order -->
     <defs>
      <path d="M 7.859375 0 
L 7.859375 71.578125 
L 39.59375 71.578125 
Q 49.171875 71.578125 54.140625 69.640625 
Q 59.125 67.71875 62.109375 62.828125 
Q 65.09375 57.953125 65.09375 52.046875 
Q 65.09375 44.4375 60.15625 39.203125 
Q 55.21875 33.984375 44.921875 32.5625 
Q 48.6875 30.765625 50.640625 29 
Q 54.78125 25.203125 58.5 19.484375 
L 70.953125 0 
L 59.03125 0 
L 49.5625 14.890625 
Q 45.40625 21.34375 42.71875 24.75 
Q 40.046875 28.171875 37.921875 29.53125 
Q 35.796875 30.90625 33.59375 31.453125 
Q 31.984375 31.78125 28.328125 31.78125 
L 17.328125 31.78125 
L 17.328125 0 
z
M 17.328125 39.984375 
L 37.703125 39.984375 
Q 44.1875 39.984375 47.84375 41.328125 
Q 51.515625 42.671875 53.421875 45.625 
Q 55.328125 48.578125 55.328125 52.046875 
Q 55.328125 57.125 51.640625 60.390625 
Q 47.953125 63.671875 39.984375 63.671875 
L 17.328125 63.671875 
z
" id="ArialMT-82"/>
      <path d="M 40.578125 0 
L 40.578125 7.625 
Q 34.515625 -1.171875 24.125 -1.171875 
Q 19.53125 -1.171875 15.546875 0.578125 
Q 11.578125 2.34375 9.640625 5 
Q 7.71875 7.671875 6.9375 11.53125 
Q 6.390625 14.109375 6.390625 19.734375 
L 6.390625 51.859375 
L 15.1875 51.859375 
L 15.1875 23.09375 
Q 15.1875 16.21875 15.71875 13.8125 
Q 16.546875 10.359375 19.234375 8.375 
Q 21.921875 6.390625 25.875 6.390625 
Q 29.828125 6.390625 33.296875 8.421875 
Q 36.765625 10.453125 38.203125 13.9375 
Q 39.65625 17.4375 39.65625 24.078125 
L 39.65625 51.859375 
L 48.4375 51.859375 
L 48.4375 0 
z
" id="ArialMT-117"/>
      <path d="M 6.59375 0 
L 6.59375 51.859375 
L 14.5 51.859375 
L 14.5 44.484375 
Q 20.21875 53.03125 31 53.03125 
Q 35.6875 53.03125 39.625 51.34375 
Q 43.5625 49.65625 45.515625 46.921875 
Q 47.46875 44.1875 48.25 40.4375 
Q 48.734375 37.984375 48.734375 31.890625 
L 48.734375 0 
L 39.9375 0 
L 39.9375 31.546875 
Q 39.9375 36.921875 38.90625 39.578125 
Q 37.890625 42.234375 35.28125 43.8125 
Q 32.671875 45.40625 29.15625 45.40625 
Q 23.53125 45.40625 19.453125 41.84375 
Q 15.375 38.28125 15.375 28.328125 
L 15.375 0 
z
" id="ArialMT-110"/>
      <path id="ArialMT-32"/>
      <path d="M 4.828125 34.859375 
Q 4.828125 52.6875 14.390625 62.765625 
Q 23.96875 72.859375 39.109375 72.859375 
Q 49.03125 72.859375 56.984375 68.109375 
Q 64.9375 63.375 69.109375 54.90625 
Q 73.296875 46.4375 73.296875 35.6875 
Q 73.296875 24.8125 68.890625 16.21875 
Q 64.5 7.625 56.4375 3.203125 
Q 48.390625 -1.21875 39.0625 -1.21875 
Q 28.953125 -1.21875 20.984375 3.65625 
Q 13.03125 8.546875 8.921875 16.984375 
Q 4.828125 25.4375 4.828125 34.859375 
z
M 14.59375 34.71875 
Q 14.59375 21.78125 21.546875 14.328125 
Q 28.515625 6.890625 39.015625 6.890625 
Q 49.703125 6.890625 56.609375 14.40625 
Q 63.53125 21.921875 63.53125 35.75 
Q 63.53125 44.484375 60.578125 51 
Q 57.625 57.515625 51.921875 61.109375 
Q 46.234375 64.703125 39.15625 64.703125 
Q 29.109375 64.703125 21.84375 57.78125 
Q 14.59375 50.875 14.59375 34.71875 
z
" id="ArialMT-79"/>
      <path d="M 6.5 0 
L 6.5 51.859375 
L 14.40625 51.859375 
L 14.40625 44 
Q 17.4375 49.515625 20 51.265625 
Q 22.5625 53.03125 25.640625 53.03125 
Q 30.078125 53.03125 34.671875 50.203125 
L 31.640625 42.046875 
Q 28.421875 43.953125 25.203125 43.953125 
Q 22.3125 43.953125 20.015625 42.21875 
Q 17.71875 40.484375 16.75 37.40625 
Q 15.28125 32.71875 15.28125 27.15625 
L 15.28125 0 
z
" id="ArialMT-114"/>
      <path d="M 40.234375 0 
L 40.234375 6.546875 
Q 35.296875 -1.171875 25.734375 -1.171875 
Q 19.53125 -1.171875 14.328125 2.25 
Q 9.125 5.671875 6.265625 11.796875 
Q 3.421875 17.921875 3.421875 25.875 
Q 3.421875 33.640625 6 39.96875 
Q 8.59375 46.296875 13.765625 49.65625 
Q 18.953125 53.03125 25.34375 53.03125 
Q 30.03125 53.03125 33.6875 51.046875 
Q 37.359375 49.078125 39.65625 45.90625 
L 39.65625 71.578125 
L 48.390625 71.578125 
L 48.390625 0 
z
M 12.453125 25.875 
Q 12.453125 15.921875 16.640625 10.984375 
Q 20.84375 6.0625 26.5625 6.0625 
Q 32.328125 6.0625 36.34375 10.765625 
Q 40.375 15.484375 40.375 25.140625 
Q 40.375 35.796875 36.265625 40.765625 
Q 32.171875 45.75 26.171875 45.75 
Q 20.3125 45.75 16.375 40.96875 
Q 12.453125 36.1875 12.453125 25.875 
z
" id="ArialMT-100"/>
      <path d="M 42.09375 16.703125 
L 51.171875 15.578125 
Q 49.03125 7.625 43.21875 3.21875 
Q 37.40625 -1.171875 28.375 -1.171875 
Q 17 -1.171875 10.328125 5.828125 
Q 3.65625 12.84375 3.65625 25.484375 
Q 3.65625 38.578125 10.390625 45.796875 
Q 17.140625 53.03125 27.875 53.03125 
Q 38.28125 53.03125 44.875 45.953125 
Q 51.46875 38.875 51.46875 26.03125 
Q 51.46875 25.25 51.421875 23.6875 
L 12.75 23.6875 
Q 13.234375 15.140625 17.578125 10.59375 
Q 21.921875 6.0625 28.421875 6.0625 
Q 33.25 6.0625 36.671875 8.59375 
Q 40.09375 11.140625 42.09375 16.703125 
z
M 13.234375 30.90625 
L 42.1875 30.90625 
Q 41.609375 37.453125 38.875 40.71875 
Q 34.671875 45.796875 27.984375 45.796875 
Q 21.921875 45.796875 17.796875 41.75 
Q 13.671875 37.703125 13.234375 30.90625 
z
" id="ArialMT-101"/>
     </defs>
     <g style="fill:#262626;" transform="translate(197.811584 418.523125)scale(0.1 -0.1)">
      <use xlink:href="#ArialMT-82"/>
      <use x="72.216797" xlink:href="#ArialMT-117"/>
      <use x="127.832031" xlink:href="#ArialMT-110"/>
      <use x="183.447266" xlink:href="#ArialMT-32"/>
      <use x="211.230469" xlink:href="#ArialMT-79"/>
      <use x="289.013672" xlink:href="#ArialMT-114"/>
      <use x="322.314453" xlink:href="#ArialMT-100"/>
      <use x="377.929688" xlink:href="#ArialMT-101"/>
      <use x="433.544922" xlink:href="#ArialMT-114"/>
     </g>
    </g>
   </g>
   <g id="matplotlib.axis_2">
    <g id="ytick_1">
     <g id="line2d_7">
      <defs>
       <path d="M 0 0 
L -3.5 0 
" id="ma4216e0c3b" style="stroke:#262626;stroke-width:0.8;"/>
      </defs>
      <g>
       <use style="fill:#262626;stroke:#262626;stroke-width:0.8;" x="41.245313" xlink:href="#ma4216e0c3b" y="340.508081"/>
      </g>
     </g>
     <g id="text_8">
      <!-- 0.8 -->
      <defs>
       <path d="M 9.078125 0 
L 9.078125 10.015625 
L 19.09375 10.015625 
L 19.09375 0 
z
" id="ArialMT-46"/>
      </defs>
      <g style="fill:#262626;" transform="translate(20.345313 344.086987)scale(0.1 -0.1)">
       <use xlink:href="#ArialMT-48"/>
       <use x="55.615234" xlink:href="#ArialMT-46"/>
       <use x="83.398438" xlink:href="#ArialMT-56"/>
      </g>
     </g>
    </g>
    <g id="ytick_2">
     <g id="line2d_8">
      <g>
       <use style="fill:#262626;stroke:#262626;stroke-width:0.8;" x="41.245313" xlink:href="#ma4216e0c3b" y="263.81331"/>
      </g>
     </g>
     <g id="text_9">
      <!-- 1.0 -->
      <g style="fill:#262626;" transform="translate(20.345313 267.392216)scale(0.1 -0.1)">
       <use xlink:href="#ArialMT-49"/>
       <use x="55.615234" xlink:href="#ArialMT-46"/>
       <use x="83.398438" xlink:href="#ArialMT-48"/>
      </g>
     </g>
    </g>
    <g id="ytick_3">
     <g id="line2d_9">
      <g>
       <use style="fill:#262626;stroke:#262626;stroke-width:0.8;" x="41.245313" xlink:href="#ma4216e0c3b" y="187.118539"/>
      </g>
     </g>
     <g id="text_10">
      <!-- 1.2 -->
      <g style="fill:#262626;" transform="translate(20.345313 190.697445)scale(0.1 -0.1)">
       <use xlink:href="#ArialMT-49"/>
       <use x="55.615234" xlink:href="#ArialMT-46"/>
       <use x="83.398438" xlink:href="#ArialMT-50"/>
      </g>
     </g>
    </g>
    <g id="ytick_4">
     <g id="line2d_10">
      <g>
       <use style="fill:#262626;stroke:#262626;stroke-width:0.8;" x="41.245313" xlink:href="#ma4216e0c3b" y="110.423768"/>
      </g>
     </g>
     <g id="text_11">
      <!-- 1.4 -->
      <g style="fill:#262626;" transform="translate(20.345313 114.002674)scale(0.1 -0.1)">
       <use xlink:href="#ArialMT-49"/>
       <use x="55.615234" xlink:href="#ArialMT-46"/>
       <use x="83.398438" xlink:href="#ArialMT-52"/>
      </g>
     </g>
    </g>
    <g id="ytick_5">
     <g id="line2d_11">
      <g>
       <use style="fill:#262626;stroke:#262626;stroke-width:0.8;" x="41.245313" xlink:href="#ma4216e0c3b" y="33.728997"/>
      </g>
     </g>
     <g id="text_12">
      <!-- 1.6 -->
      <g style="fill:#262626;" transform="translate(20.345313 37.307903)scale(0.1 -0.1)">
       <use xlink:href="#ArialMT-49"/>
       <use x="55.615234" xlink:href="#ArialMT-46"/>
       <use x="83.398438" xlink:href="#ArialMT-54"/>
      </g>
     </g>
    </g>
    <g id="text_13">
     <!-- DmodX -->
     <defs>
      <path d="M 7.71875 0 
L 7.71875 71.578125 
L 32.375 71.578125 
Q 40.71875 71.578125 45.125 70.5625 
Q 51.265625 69.140625 55.609375 65.4375 
Q 61.28125 60.640625 64.078125 53.1875 
Q 66.890625 45.75 66.890625 36.1875 
Q 66.890625 28.03125 64.984375 21.734375 
Q 63.09375 15.4375 60.109375 11.296875 
Q 57.125 7.171875 53.578125 4.796875 
Q 50.046875 2.4375 45.046875 1.21875 
Q 40.046875 0 33.546875 0 
z
M 17.1875 8.453125 
L 32.46875 8.453125 
Q 39.546875 8.453125 43.578125 9.765625 
Q 47.609375 11.078125 50 13.484375 
Q 53.375 16.84375 55.25 22.53125 
Q 57.125 28.21875 57.125 36.328125 
Q 57.125 47.5625 53.4375 53.59375 
Q 49.75 59.625 44.484375 61.671875 
Q 40.671875 63.140625 32.234375 63.140625 
L 17.1875 63.140625 
z
" id="ArialMT-68"/>
      <path d="M 6.59375 0 
L 6.59375 51.859375 
L 14.453125 51.859375 
L 14.453125 44.578125 
Q 16.890625 48.390625 20.9375 50.703125 
Q 25 53.03125 30.171875 53.03125 
Q 35.9375 53.03125 39.625 50.640625 
Q 43.3125 48.25 44.828125 43.953125 
Q 50.984375 53.03125 60.84375 53.03125 
Q 68.5625 53.03125 72.703125 48.75 
Q 76.859375 44.484375 76.859375 35.59375 
L 76.859375 0 
L 68.109375 0 
L 68.109375 32.671875 
Q 68.109375 37.9375 67.25 40.25 
Q 66.40625 42.578125 64.15625 43.984375 
Q 61.921875 45.40625 58.890625 45.40625 
Q 53.421875 45.40625 49.796875 41.765625 
Q 46.1875 38.140625 46.1875 30.125 
L 46.1875 0 
L 37.40625 0 
L 37.40625 33.6875 
Q 37.40625 39.546875 35.25 42.46875 
Q 33.109375 45.40625 28.21875 45.40625 
Q 24.515625 45.40625 21.359375 43.453125 
Q 18.21875 41.5 16.796875 37.734375 
Q 15.375 33.984375 15.375 26.90625 
L 15.375 0 
z
" id="ArialMT-109"/>
      <path d="M 3.328125 25.921875 
Q 3.328125 40.328125 11.328125 47.265625 
Q 18.015625 53.03125 27.640625 53.03125 
Q 38.328125 53.03125 45.109375 46.015625 
Q 51.90625 39.015625 51.90625 26.65625 
Q 51.90625 16.65625 48.90625 10.90625 
Q 45.90625 5.171875 40.15625 2 
Q 34.421875 -1.171875 27.640625 -1.171875 
Q 16.75 -1.171875 10.03125 5.8125 
Q 3.328125 12.796875 3.328125 25.921875 
z
M 12.359375 25.921875 
Q 12.359375 15.96875 16.703125 11.015625 
Q 21.046875 6.0625 27.640625 6.0625 
Q 34.1875 6.0625 38.53125 11.03125 
Q 42.875 16.015625 42.875 26.21875 
Q 42.875 35.84375 38.5 40.796875 
Q 34.125 45.75 27.640625 45.75 
Q 21.046875 45.75 16.703125 40.8125 
Q 12.359375 35.890625 12.359375 25.921875 
z
" id="ArialMT-111"/>
      <path d="M 0.4375 0 
L 28.125 37.3125 
L 3.71875 71.578125 
L 14.984375 71.578125 
L 27.984375 53.21875 
Q 32.03125 47.515625 33.734375 44.4375 
Q 36.140625 48.34375 39.40625 52.59375 
L 53.8125 71.578125 
L 64.109375 71.578125 
L 38.96875 37.84375 
L 66.0625 0 
L 54.34375 0 
L 36.328125 25.53125 
Q 34.8125 27.734375 33.203125 30.328125 
Q 30.8125 26.421875 29.78125 24.953125 
L 11.8125 0 
z
" id="ArialMT-88"/>
     </defs>
     <g style="fill:#262626;" transform="translate(14.357813 217.631875)rotate(-90)scale(0.1 -0.1)">
      <use xlink:href="#ArialMT-68"/>
      <use x="72.216797" xlink:href="#ArialMT-109"/>
      <use x="155.517578" xlink:href="#ArialMT-111"/>
      <use x="211.132812" xlink:href="#ArialMT-100"/>
      <use x="266.748047" xlink:href="#ArialMT-88"/>
     </g>
    </g>
   </g>
   <g id="PathCollection_1">
    <defs>
     <path d="M 0 3 
C 0.795609 3 1.55874 2.683901 2.12132 2.12132 
C 2.683901 1.55874 3 0.795609 3 0 
C 3 -0.795609 2.683901 -1.55874 2.12132 -2.12132 
C 1.55874 -2.683901 0.795609 -3 0 -3 
C -0.795609 -3 -1.55874 -2.683901 -2.12132 -2.12132 
C -2.683901 -1.55874 -3 -0.795609 -3 0 
C -3 0.795609 -2.683901 1.55874 -2.12132 2.12132 
C -1.55874 2.683901 -0.795609 3 0 3 
z
" id="m817b816897" style="stroke:#4c72b0;"/>
    </defs>
    <g clip-path="url(#p53a979d97c)">
     <use style="fill:#4c72b0;stroke:#4c72b0;" x="381.528461" xlink:href="#m817b816897" y="224.181076"/>
     <use style="fill:#4c72b0;stroke:#4c72b0;" x="137.505417" xlink:href="#m817b816897" y="265.792194"/>
     <use style="fill:#4c72b0;stroke:#4c72b0;" x="134.336286" xlink:href="#m817b816897" y="337.423116"/>
     <use style="fill:#4c72b0;stroke:#4c72b0;" x="121.659764" xlink:href="#m817b816897" y="45.974701"/>
     <use style="fill:#4c72b0;stroke:#4c72b0;" x="172.365851" xlink:href="#m817b816897" y="341.697338"/>
     <use style="fill:#4c72b0;stroke:#4c72b0;" x="372.02107" xlink:href="#m817b816897" y="271.679356"/>
     <use style="fill:#4c72b0;stroke:#4c72b0;" x="159.68933" xlink:href="#m817b816897" y="284.690168"/>
     <use style="fill:#4c72b0;stroke:#4c72b0;" x="200.888026" xlink:href="#m817b816897" y="329.663177"/>
     <use style="fill:#4c72b0;stroke:#4c72b0;" x="242.086721" xlink:href="#m817b816897" y="350.878169"/>
     <use style="fill:#4c72b0;stroke:#4c72b0;" x="162.85846" xlink:href="#m817b816897" y="291.273255"/>
     <use style="fill:#4c72b0;stroke:#4c72b0;" x="324.484113" xlink:href="#m817b816897" y="308.021708"/>
     <use style="fill:#4c72b0;stroke:#4c72b0;" x="181.873243" xlink:href="#m817b816897" y="329.862571"/>
     <use style="fill:#4c72b0;stroke:#4c72b0;" x="289.623678" xlink:href="#m817b816897" y="307.038179"/>
     <use style="fill:#4c72b0;stroke:#4c72b0;" x="219.902808" xlink:href="#m817b816897" y="320.616477"/>
     <use style="fill:#4c72b0;stroke:#4c72b0;" x="333.991504" xlink:href="#m817b816897" y="299.184471"/>
     <use style="fill:#4c72b0;stroke:#4c72b0;" x="359.344548" xlink:href="#m817b816897" y="298.355462"/>
     <use style="fill:#4c72b0;stroke:#4c72b0;" x="80.461068" xlink:href="#m817b816897" y="332.980206"/>
     <use style="fill:#4c72b0;stroke:#4c72b0;" x="147.012808" xlink:href="#m817b816897" y="299.065308"/>
     <use style="fill:#4c72b0;stroke:#4c72b0;" x="115.321503" xlink:href="#m817b816897" y="317.415045"/>
     <use style="fill:#4c72b0;stroke:#4c72b0;" x="197.718895" xlink:href="#m817b816897" y="330.558882"/>
     <use style="fill:#4c72b0;stroke:#4c72b0;" x="340.329765" xlink:href="#m817b816897" y="95.795815"/>
     <use style="fill:#4c72b0;stroke:#4c72b0;" x="384.697592" xlink:href="#m817b816897" y="260.341774"/>
     <use style="fill:#4c72b0;stroke:#4c72b0;" x="270.608895" xlink:href="#m817b816897" y="355.758237"/>
     <use style="fill:#4c72b0;stroke:#4c72b0;" x="210.395417" xlink:href="#m817b816897" y="317.749969"/>
     <use style="fill:#4c72b0;stroke:#4c72b0;" x="346.668026" xlink:href="#m817b816897" y="194.767566"/>
     <use style="fill:#4c72b0;stroke:#4c72b0;" x="254.763243" xlink:href="#m817b816897" y="322.126405"/>
     <use style="fill:#4c72b0;stroke:#4c72b0;" x="223.071939" xlink:href="#m817b816897" y="357.588565"/>
     <use style="fill:#4c72b0;stroke:#4c72b0;" x="166.027591" xlink:href="#m817b816897" y="333.992791"/>
     <use style="fill:#4c72b0;stroke:#4c72b0;" x="96.306721" xlink:href="#m817b816897" y="338.206944"/>
     <use style="fill:#4c72b0;stroke:#4c72b0;" x="280.116287" xlink:href="#m817b816897" y="349.682114"/>
     <use style="fill:#4c72b0;stroke:#4c72b0;" x="248.424982" xlink:href="#m817b816897" y="284.02639"/>
     <use style="fill:#4c72b0;stroke:#4c72b0;" x="238.917591" xlink:href="#m817b816897" y="314.973036"/>
     <use style="fill:#4c72b0;stroke:#4c72b0;" x="175.534982" xlink:href="#m817b816897" y="317.611421"/>
     <use style="fill:#4c72b0;stroke:#4c72b0;" x="178.704112" xlink:href="#m817b816897" y="345.415408"/>
     <use style="fill:#4c72b0;stroke:#4c72b0;" x="156.520199" xlink:href="#m817b816897" y="335.097399"/>
     <use style="fill:#4c72b0;stroke:#4c72b0;" x="232.57933" xlink:href="#m817b816897" y="311.536171"/>
     <use style="fill:#4c72b0;stroke:#4c72b0;" x="353.006287" xlink:href="#m817b816897" y="183.943236"/>
     <use style="fill:#4c72b0;stroke:#4c72b0;" x="299.131069" xlink:href="#m817b816897" y="322.105715"/>
     <use style="fill:#4c72b0;stroke:#4c72b0;" x="251.594113" xlink:href="#m817b816897" y="373.198047"/>
     <use style="fill:#4c72b0;stroke:#4c72b0;" x="89.96846" xlink:href="#m817b816897" y="294.18445"/>
     <use style="fill:#4c72b0;stroke:#4c72b0;" x="216.733678" xlink:href="#m817b816897" y="365.49932"/>
     <use style="fill:#4c72b0;stroke:#4c72b0;" x="118.490634" xlink:href="#m817b816897" y="348.906709"/>
     <use style="fill:#4c72b0;stroke:#4c72b0;" x="362.513678" xlink:href="#m817b816897" y="249.563613"/>
     <use style="fill:#4c72b0;stroke:#4c72b0;" x="194.549765" xlink:href="#m817b816897" y="69.479305"/>
     <use style="fill:#4c72b0;stroke:#4c72b0;" x="343.498896" xlink:href="#m817b816897" y="336.046745"/>
     <use style="fill:#4c72b0;stroke:#4c72b0;" x="204.057156" xlink:href="#m817b816897" y="221.771899"/>
     <use style="fill:#4c72b0;stroke:#4c72b0;" x="267.439765" xlink:href="#m817b816897" y="330.694883"/>
     <use style="fill:#4c72b0;stroke:#4c72b0;" x="321.314983" xlink:href="#m817b816897" y="289.168498"/>
     <use style="fill:#4c72b0;stroke:#4c72b0;" x="105.814112" xlink:href="#m817b816897" y="296.481304"/>
     <use style="fill:#4c72b0;stroke:#4c72b0;" x="235.74846" xlink:href="#m817b816897" y="329.410813"/>
     <use style="fill:#4c72b0;stroke:#4c72b0;" x="229.4102" xlink:href="#m817b816897" y="361.255976"/>
     <use style="fill:#4c72b0;stroke:#4c72b0;" x="273.778026" xlink:href="#m817b816897" y="319.239816"/>
     <use style="fill:#4c72b0;stroke:#4c72b0;" x="327.653244" xlink:href="#m817b816897" y="249.480031"/>
     <use style="fill:#4c72b0;stroke:#4c72b0;" x="86.799329" xlink:href="#m817b816897" y="321.223183"/>
     <use style="fill:#4c72b0;stroke:#4c72b0;" x="330.822374" xlink:href="#m817b816897" y="154.039348"/>
     <use style="fill:#4c72b0;stroke:#4c72b0;" x="99.475851" xlink:href="#m817b816897" y="294.682799"/>
     <use style="fill:#4c72b0;stroke:#4c72b0;" x="261.101504" xlink:href="#m817b816897" y="318.714544"/>
     <use style="fill:#4c72b0;stroke:#4c72b0;" x="286.454548" xlink:href="#m817b816897" y="336.075258"/>
     <use style="fill:#4c72b0;stroke:#4c72b0;" x="83.630199" xlink:href="#m817b816897" y="257.784312"/>
     <use style="fill:#4c72b0;stroke:#4c72b0;" x="191.380634" xlink:href="#m817b816897" y="226.23707"/>
     <use style="fill:#4c72b0;stroke:#4c72b0;" x="365.682809" xlink:href="#m817b816897" y="247.063694"/>
     <use style="fill:#4c72b0;stroke:#4c72b0;" x="368.851939" xlink:href="#m817b816897" y="255.767949"/>
     <use style="fill:#4c72b0;stroke:#4c72b0;" x="295.961939" xlink:href="#m817b816897" y="345.192353"/>
     <use style="fill:#4c72b0;stroke:#4c72b0;" x="143.843677" xlink:href="#m817b816897" y="312.564485"/>
     <use style="fill:#4c72b0;stroke:#4c72b0;" x="127.998025" xlink:href="#m817b816897" y="344.857059"/>
     <use style="fill:#4c72b0;stroke:#4c72b0;" x="276.947156" xlink:href="#m817b816897" y="335.930335"/>
     <use style="fill:#4c72b0;stroke:#4c72b0;" x="349.837157" xlink:href="#m817b816897" y="305.872745"/>
     <use style="fill:#4c72b0;stroke:#4c72b0;" x="185.042373" xlink:href="#m817b816897" y="65.783934"/>
     <use style="fill:#4c72b0;stroke:#4c72b0;" x="378.359331" xlink:href="#m817b816897" y="237.743528"/>
     <use style="fill:#4c72b0;stroke:#4c72b0;" x="257.932374" xlink:href="#m817b816897" y="326.688959"/>
     <use style="fill:#4c72b0;stroke:#4c72b0;" x="108.983242" xlink:href="#m817b816897" y="353.358635"/>
     <use style="fill:#4c72b0;stroke:#4c72b0;" x="213.564547" xlink:href="#m817b816897" y="333.686714"/>
     <use style="fill:#4c72b0;stroke:#4c72b0;" x="292.792809" xlink:href="#m817b816897" y="217.139347"/>
     <use style="fill:#4c72b0;stroke:#4c72b0;" x="124.828895" xlink:href="#m817b816897" y="258.641573"/>
     <use style="fill:#4c72b0;stroke:#4c72b0;" x="140.674547" xlink:href="#m817b816897" y="310.713453"/>
     <use style="fill:#4c72b0;stroke:#4c72b0;" x="153.351069" xlink:href="#m817b816897" y="317.097483"/>
     <use style="fill:#4c72b0;stroke:#4c72b0;" x="102.644982" xlink:href="#m817b816897" y="347.149962"/>
     <use style="fill:#4c72b0;stroke:#4c72b0;" x="77.291938" xlink:href="#m817b816897" y="298.323113"/>
    </g>
   </g>
   <g id="PathCollection_2">
    <defs>
     <path d="M 0 3 
C 0.795609 3 1.55874 2.683901 2.12132 2.12132 
C 2.683901 1.55874 3 0.795609 3 0 
C 3 -0.795609 2.683901 -1.55874 2.12132 -2.12132 
C 1.55874 -2.683901 0.795609 -3 0 -3 
C -0.795609 -3 -1.55874 -2.683901 -2.12132 -2.12132 
C -2.683901 -1.55874 -3 -0.795609 -3 0 
C -3 0.795609 -2.683901 1.55874 -2.12132 2.12132 
C -1.55874 2.683901 -0.795609 3 0 3 
z
" id="me4a9acadab" style="stroke:#55a868;"/>
    </defs>
    <g clip-path="url(#p53a979d97c)">
     <use style="fill:#55a868;stroke:#55a868;" x="58.277155" xlink:href="#me4a9acadab" y="196.752235"/>
     <use style="fill:#55a868;stroke:#55a868;" x="318.145852" xlink:href="#me4a9acadab" y="233.775149"/>
     <use style="fill:#55a868;stroke:#55a868;" x="61.446286" xlink:href="#me4a9acadab" y="176.520614"/>
     <use style="fill:#55a868;stroke:#55a868;" x="64.615416" xlink:href="#me4a9acadab" y="200.410703"/>
     <use style="fill:#55a868;stroke:#55a868;" x="67.784547" xlink:href="#me4a9acadab" y="197.838409"/>
     <use style="fill:#55a868;stroke:#55a868;" x="70.953677" xlink:href="#me4a9acadab" y="172.241381"/>
     <use style="fill:#55a868;stroke:#55a868;" x="305.46933" xlink:href="#me4a9acadab" y="289.609866"/>
     <use style="fill:#55a868;stroke:#55a868;" x="308.638461" xlink:href="#me4a9acadab" y="248.668348"/>
     <use style="fill:#55a868;stroke:#55a868;" x="311.807591" xlink:href="#me4a9acadab" y="280.499832"/>
     <use style="fill:#55a868;stroke:#55a868;" x="314.976722" xlink:href="#me4a9acadab" y="294.119578"/>
     <use style="fill:#55a868;stroke:#55a868;" x="93.13759" xlink:href="#me4a9acadab" y="187.341417"/>
     <use style="fill:#55a868;stroke:#55a868;" x="131.167156" xlink:href="#me4a9acadab" y="28.680454"/>
     <use style="fill:#55a868;stroke:#55a868;" x="169.196721" xlink:href="#me4a9acadab" y="254.208839"/>
     <use style="fill:#55a868;stroke:#55a868;" x="207.226286" xlink:href="#me4a9acadab" y="280.794218"/>
     <use style="fill:#55a868;stroke:#55a868;" x="245.255852" xlink:href="#me4a9acadab" y="208.703212"/>
     <use style="fill:#55a868;stroke:#55a868;" x="283.285417" xlink:href="#me4a9acadab" y="267.545999"/>
     <use style="fill:#55a868;stroke:#55a868;" x="337.160635" xlink:href="#me4a9acadab" y="196.566737"/>
     <use style="fill:#55a868;stroke:#55a868;" x="375.1902" xlink:href="#me4a9acadab" y="280.705185"/>
    </g>
   </g>
   <g id="line2d_12">
    <path clip-path="url(#p53a979d97c)" d="M 41.245313 330.592882 
L 401.059106 330.592882 
" style="fill:none;stroke:#1a1a1a;stroke-dasharray:5.55,2.4;stroke-dashoffset:0;stroke-width:1.5;"/>
   </g>
   <g id="line2d_13">
    <path clip-path="url(#p53a979d97c)" d="M 41.245313 298.710385 
L 401.059106 298.710385 
" style="fill:none;stroke:#1a1a1a;stroke-dasharray:5.55,2.4;stroke-dashoffset:0;stroke-width:1.5;"/>
   </g>
   <g id="line2d_14">
    <path clip-path="url(#p53a979d97c)" d="M 41.245313 249.27711 
L 401.059106 249.27711 
" style="fill:none;stroke:#1a1a1a;stroke-dasharray:5.55,2.4;stroke-dashoffset:0;stroke-width:1.5;"/>
   </g>
   <g id="line2d_15">
    <path clip-path="url(#p53a979d97c)" d="M 41.245313 139.478464 
L 401.059106 139.478464 
" style="fill:none;stroke:#1a1a1a;stroke-dasharray:5.55,2.4;stroke-dashoffset:0;stroke-width:1.5;"/>
   </g>
   <g id="line2d_16">
    <path clip-path="url(#p53a979d97c)" d="M 41.245313 45.109989 
L 401.059106 45.109989 
" style="fill:none;stroke:#1a1a1a;stroke-dasharray:5.55,2.4;stroke-dashoffset:0;stroke-width:1.5;"/>
   </g>
   <g id="line2d_17">
    <path clip-path="url(#p53a979d97c)" d="M 41.245313 254.650028 
L 401.059106 254.650028 
" style="fill:none;stroke:#64b5cd;stroke-dasharray:5.55,2.4;stroke-dashoffset:0;stroke-width:1.5;"/>
   </g>
   <g id="patch_3">
    <path d="M 41.245313 391.22 
L 41.245313 10.7 
" style="fill:none;stroke:#262626;stroke-linecap:square;stroke-linejoin:miter;stroke-width:0.8;"/>
   </g>
   <g id="patch_4">
    <path d="M 401.059106 391.22 
L 401.059106 10.7 
" style="fill:none;stroke:#262626;stroke-linecap:square;stroke-linejoin:miter;stroke-width:0.8;"/>
   </g>
   <g id="patch_5">
    <path d="M 41.245313 391.22 
L 401.059106 391.22 
" style="fill:none;stroke:#262626;stroke-linecap:square;stroke-linejoin:miter;stroke-width:0.8;"/>
   </g>
   <g id="patch_6">
    <path d="M 41.245313 10.7 
L 401.059106 10.7 
" style="fill:none;stroke:#262626;stroke-linecap:square;stroke-linejoin:miter;stroke-width:0.8;"/>
   </g>
   <g id="legend_1">
    <g id="patch_7">
     <path d="M 408.059106 132.579687 
L 514.541918 132.579687 
Q 516.541918 132.579687 516.541918 130.579687 
L 516.541918 17.7 
Q 516.541918 15.7 514.541918 15.7 
L 408.059106 15.7 
Q 406.059106 15.7 406.059106 17.7 
L 406.059106 130.579687 
Q 406.059106 132.579687 408.059106 132.579687 
z
" style="fill:#ffffff;opacity:0.8;stroke:#cccccc;stroke-linejoin:miter;"/>
    </g>
    <g id="line2d_18">
     <path d="M 410.059106 23.357812 
L 430.059106 23.357812 
" style="fill:none;stroke:#1a1a1a;stroke-dasharray:5.55,2.4;stroke-dashoffset:0;stroke-width:1.5;"/>
    </g>
    <g id="line2d_19"/>
    <g id="text_14">
     <!-- Q25 -->
     <defs>
      <path d="M 61.96875 7.671875 
Q 68.5625 3.125 74.125 1.03125 
L 71.34375 -5.5625 
Q 63.625 -2.78125 55.953125 3.21875 
Q 48 -1.21875 38.375 -1.21875 
Q 28.65625 -1.21875 20.75 3.46875 
Q 12.84375 8.15625 8.5625 16.640625 
Q 4.296875 25.140625 4.296875 35.796875 
Q 4.296875 46.390625 8.59375 55.078125 
Q 12.890625 63.765625 20.828125 68.3125 
Q 28.765625 72.859375 38.578125 72.859375 
Q 48.484375 72.859375 56.4375 68.140625 
Q 64.40625 63.421875 68.578125 54.953125 
Q 72.75 46.484375 72.75 35.84375 
Q 72.75 27 70.0625 19.9375 
Q 67.390625 12.890625 61.96875 7.671875 
z
M 41.109375 19.78125 
Q 49.3125 17.484375 54.640625 12.9375 
Q 62.984375 20.5625 62.984375 35.84375 
Q 62.984375 44.53125 60.03125 51.015625 
Q 57.078125 57.515625 51.390625 61.109375 
Q 45.703125 64.703125 38.625 64.703125 
Q 28.03125 64.703125 21.046875 57.453125 
Q 14.0625 50.203125 14.0625 35.796875 
Q 14.0625 21.828125 20.96875 14.359375 
Q 27.875 6.890625 38.625 6.890625 
Q 43.703125 6.890625 48.1875 8.796875 
Q 43.75 11.671875 38.8125 12.890625 
z
" id="ArialMT-81"/>
      <path d="M 4.15625 18.75 
L 13.375 19.53125 
Q 14.40625 12.796875 18.140625 9.390625 
Q 21.875 6 27.15625 6 
Q 33.5 6 37.890625 10.78125 
Q 42.28125 15.578125 42.28125 23.484375 
Q 42.28125 31 38.0625 35.34375 
Q 33.84375 39.703125 27 39.703125 
Q 22.75 39.703125 19.328125 37.765625 
Q 15.921875 35.84375 13.96875 32.765625 
L 5.71875 33.84375 
L 12.640625 70.609375 
L 48.25 70.609375 
L 48.25 62.203125 
L 19.671875 62.203125 
L 15.828125 42.96875 
Q 22.265625 47.46875 29.34375 47.46875 
Q 38.71875 47.46875 45.15625 40.96875 
Q 51.609375 34.46875 51.609375 24.265625 
Q 51.609375 14.546875 45.953125 7.46875 
Q 39.0625 -1.21875 27.15625 -1.21875 
Q 17.390625 -1.21875 11.203125 4.25 
Q 5.03125 9.71875 4.15625 18.75 
z
" id="ArialMT-53"/>
     </defs>
     <g style="fill:#262626;" transform="translate(438.059106 26.857812)scale(0.1 -0.1)">
      <use xlink:href="#ArialMT-81"/>
      <use x="77.783203" xlink:href="#ArialMT-50"/>
      <use x="133.398438" xlink:href="#ArialMT-53"/>
     </g>
    </g>
    <g id="line2d_20">
     <path d="M 410.059106 37.503125 
L 430.059106 37.503125 
" style="fill:none;stroke:#1a1a1a;stroke-dasharray:5.55,2.4;stroke-dashoffset:0;stroke-width:1.5;"/>
    </g>
    <g id="line2d_21"/>
    <g id="text_15">
     <!-- Q50 -->
     <g style="fill:#262626;" transform="translate(438.059106 41.003125)scale(0.1 -0.1)">
      <use xlink:href="#ArialMT-81"/>
      <use x="77.783203" xlink:href="#ArialMT-53"/>
      <use x="133.398438" xlink:href="#ArialMT-48"/>
     </g>
    </g>
    <g id="line2d_22">
     <path d="M 410.059106 51.648438 
L 430.059106 51.648438 
" style="fill:none;stroke:#1a1a1a;stroke-dasharray:5.55,2.4;stroke-dashoffset:0;stroke-width:1.5;"/>
    </g>
    <g id="line2d_23"/>
    <g id="text_16">
     <!-- Q75 -->
     <defs>
      <path d="M 4.734375 62.203125 
L 4.734375 70.65625 
L 51.078125 70.65625 
L 51.078125 63.8125 
Q 44.234375 56.546875 37.515625 44.484375 
Q 30.8125 32.421875 27.15625 19.671875 
Q 24.515625 10.6875 23.78125 0 
L 14.75 0 
Q 14.890625 8.453125 18.0625 20.40625 
Q 21.234375 32.375 27.171875 43.484375 
Q 33.109375 54.59375 39.796875 62.203125 
z
" id="ArialMT-55"/>
     </defs>
     <g style="fill:#262626;" transform="translate(438.059106 55.148438)scale(0.1 -0.1)">
      <use xlink:href="#ArialMT-81"/>
      <use x="77.783203" xlink:href="#ArialMT-55"/>
      <use x="133.398438" xlink:href="#ArialMT-53"/>
     </g>
    </g>
    <g id="line2d_24">
     <path d="M 410.059106 65.79375 
L 430.059106 65.79375 
" style="fill:none;stroke:#1a1a1a;stroke-dasharray:5.55,2.4;stroke-dashoffset:0;stroke-width:1.5;"/>
    </g>
    <g id="line2d_25"/>
    <g id="text_17">
     <!-- Q95 -->
     <defs>
      <path d="M 5.46875 16.546875 
L 13.921875 17.328125 
Q 14.984375 11.375 18.015625 8.6875 
Q 21.046875 6 25.78125 6 
Q 29.828125 6 32.875 7.859375 
Q 35.9375 9.71875 37.890625 12.8125 
Q 39.84375 15.921875 41.15625 21.1875 
Q 42.484375 26.46875 42.484375 31.9375 
Q 42.484375 32.515625 42.4375 33.6875 
Q 39.796875 29.5 35.234375 26.875 
Q 30.671875 24.265625 25.34375 24.265625 
Q 16.453125 24.265625 10.296875 30.703125 
Q 4.15625 37.15625 4.15625 47.703125 
Q 4.15625 58.59375 10.578125 65.234375 
Q 17 71.875 26.65625 71.875 
Q 33.640625 71.875 39.421875 68.109375 
Q 45.21875 64.359375 48.21875 57.390625 
Q 51.21875 50.4375 51.21875 37.25 
Q 51.21875 23.53125 48.234375 15.40625 
Q 45.265625 7.28125 39.375 3.03125 
Q 33.5 -1.21875 25.59375 -1.21875 
Q 17.1875 -1.21875 11.859375 3.4375 
Q 6.546875 8.109375 5.46875 16.546875 
z
M 41.453125 48.140625 
Q 41.453125 55.71875 37.421875 60.15625 
Q 33.40625 64.59375 27.734375 64.59375 
Q 21.875 64.59375 17.53125 59.8125 
Q 13.1875 55.03125 13.1875 47.40625 
Q 13.1875 40.578125 17.3125 36.296875 
Q 21.4375 32.03125 27.484375 32.03125 
Q 33.59375 32.03125 37.515625 36.296875 
Q 41.453125 40.578125 41.453125 48.140625 
z
" id="ArialMT-57"/>
     </defs>
     <g style="fill:#262626;" transform="translate(438.059106 69.29375)scale(0.1 -0.1)">
      <use xlink:href="#ArialMT-81"/>
      <use x="77.783203" xlink:href="#ArialMT-57"/>
      <use x="133.398438" xlink:href="#ArialMT-53"/>
     </g>
    </g>
    <g id="line2d_26">
     <path d="M 410.059106 79.939062 
L 430.059106 79.939062 
" style="fill:none;stroke:#1a1a1a;stroke-dasharray:5.55,2.4;stroke-dashoffset:0;stroke-width:1.5;"/>
    </g>
    <g id="line2d_27"/>
    <g id="text_18">
     <!-- Q99 -->
     <g style="fill:#262626;" transform="translate(438.059106 83.439062)scale(0.1 -0.1)">
      <use xlink:href="#ArialMT-81"/>
      <use x="77.783203" xlink:href="#ArialMT-57"/>
      <use x="133.398438" xlink:href="#ArialMT-57"/>
     </g>
    </g>
    <g id="line2d_28">
     <path d="M 410.059106 94.20625 
L 430.059106 94.20625 
" style="fill:none;stroke:#64b5cd;stroke-dasharray:5.55,2.4;stroke-dashoffset:0;stroke-width:1.5;"/>
    </g>
    <g id="line2d_29"/>
    <g id="text_19">
     <!-- Fcrit (0.05) -->
     <defs>
      <path d="M 8.203125 0 
L 8.203125 71.578125 
L 56.5 71.578125 
L 56.5 63.140625 
L 17.671875 63.140625 
L 17.671875 40.96875 
L 51.265625 40.96875 
L 51.265625 32.515625 
L 17.671875 32.515625 
L 17.671875 0 
z
" id="ArialMT-70"/>
      <path d="M 40.4375 19 
L 49.078125 17.875 
Q 47.65625 8.9375 41.8125 3.875 
Q 35.984375 -1.171875 27.484375 -1.171875 
Q 16.84375 -1.171875 10.375 5.78125 
Q 3.90625 12.75 3.90625 25.734375 
Q 3.90625 34.125 6.6875 40.421875 
Q 9.46875 46.734375 15.15625 49.875 
Q 20.84375 53.03125 27.546875 53.03125 
Q 35.984375 53.03125 41.359375 48.75 
Q 46.734375 44.484375 48.25 36.625 
L 39.703125 35.296875 
Q 38.484375 40.53125 35.375 43.15625 
Q 32.28125 45.796875 27.875 45.796875 
Q 21.234375 45.796875 17.078125 41.03125 
Q 12.9375 36.28125 12.9375 25.984375 
Q 12.9375 15.53125 16.9375 10.796875 
Q 20.953125 6.0625 27.390625 6.0625 
Q 32.5625 6.0625 36.03125 9.234375 
Q 39.5 12.40625 40.4375 19 
z
" id="ArialMT-99"/>
      <path d="M 6.640625 61.46875 
L 6.640625 71.578125 
L 15.4375 71.578125 
L 15.4375 61.46875 
z
M 6.640625 0 
L 6.640625 51.859375 
L 15.4375 51.859375 
L 15.4375 0 
z
" id="ArialMT-105"/>
      <path d="M 25.78125 7.859375 
L 27.046875 0.09375 
Q 23.34375 -0.6875 20.40625 -0.6875 
Q 15.625 -0.6875 12.984375 0.828125 
Q 10.359375 2.34375 9.28125 4.8125 
Q 8.203125 7.28125 8.203125 15.1875 
L 8.203125 45.015625 
L 1.765625 45.015625 
L 1.765625 51.859375 
L 8.203125 51.859375 
L 8.203125 64.703125 
L 16.9375 69.96875 
L 16.9375 51.859375 
L 25.78125 51.859375 
L 25.78125 45.015625 
L 16.9375 45.015625 
L 16.9375 14.703125 
Q 16.9375 10.9375 17.40625 9.859375 
Q 17.875 8.796875 18.921875 8.15625 
Q 19.96875 7.515625 21.921875 7.515625 
Q 23.390625 7.515625 25.78125 7.859375 
z
" id="ArialMT-116"/>
      <path d="M 23.390625 -21.046875 
Q 16.109375 -11.859375 11.078125 0.4375 
Q 6.0625 12.75 6.0625 25.921875 
Q 6.0625 37.546875 9.8125 48.1875 
Q 14.203125 60.546875 23.390625 72.796875 
L 29.6875 72.796875 
Q 23.78125 62.640625 21.875 58.296875 
Q 18.890625 51.5625 17.1875 44.234375 
Q 15.09375 35.109375 15.09375 25.875 
Q 15.09375 2.390625 29.6875 -21.046875 
z
" id="ArialMT-40"/>
      <path d="M 12.359375 -21.046875 
L 6.0625 -21.046875 
Q 20.65625 2.390625 20.65625 25.875 
Q 20.65625 35.0625 18.5625 44.09375 
Q 16.890625 51.421875 13.921875 58.15625 
Q 12.015625 62.546875 6.0625 72.796875 
L 12.359375 72.796875 
Q 21.53125 60.546875 25.921875 48.1875 
Q 29.6875 37.546875 29.6875 25.921875 
Q 29.6875 12.75 24.625 0.4375 
Q 19.578125 -11.859375 12.359375 -21.046875 
z
" id="ArialMT-41"/>
     </defs>
     <g style="fill:#262626;" transform="translate(438.059106 97.70625)scale(0.1 -0.1)">
      <use xlink:href="#ArialMT-70"/>
      <use x="61.083984" xlink:href="#ArialMT-99"/>
      <use x="111.083984" xlink:href="#ArialMT-114"/>
      <use x="144.384766" xlink:href="#ArialMT-105"/>
      <use x="166.601562" xlink:href="#ArialMT-116"/>
      <use x="194.384766" xlink:href="#ArialMT-32"/>
      <use x="222.167969" xlink:href="#ArialMT-40"/>
      <use x="255.46875" xlink:href="#ArialMT-48"/>
      <use x="311.083984" xlink:href="#ArialMT-46"/>
      <use x="338.867188" xlink:href="#ArialMT-48"/>
      <use x="394.482422" xlink:href="#ArialMT-53"/>
      <use x="450.097656" xlink:href="#ArialMT-41"/>
     </g>
    </g>
    <g id="PathCollection_3">
     <g>
      <use style="fill:#4c72b0;stroke:#4c72b0;" x="420.059106" xlink:href="#m817b816897" y="109.465625"/>
     </g>
    </g>
    <g id="text_20">
     <!-- Study Sample -->
     <defs>
      <path d="M 4.5 23 
L 13.421875 23.78125 
Q 14.0625 18.40625 16.375 14.96875 
Q 18.703125 11.53125 23.578125 9.40625 
Q 28.46875 7.28125 34.578125 7.28125 
Q 39.984375 7.28125 44.140625 8.890625 
Q 48.296875 10.5 50.3125 13.296875 
Q 52.34375 16.109375 52.34375 19.4375 
Q 52.34375 22.796875 50.390625 25.3125 
Q 48.4375 27.828125 43.953125 29.546875 
Q 41.0625 30.671875 31.203125 33.03125 
Q 21.34375 35.40625 17.390625 37.5 
Q 12.25 40.1875 9.734375 44.15625 
Q 7.234375 48.140625 7.234375 53.078125 
Q 7.234375 58.5 10.296875 63.203125 
Q 13.375 67.921875 19.28125 70.359375 
Q 25.203125 72.796875 32.421875 72.796875 
Q 40.375 72.796875 46.453125 70.234375 
Q 52.546875 67.671875 55.8125 62.6875 
Q 59.078125 57.71875 59.328125 51.421875 
L 50.25 50.734375 
Q 49.515625 57.515625 45.28125 60.984375 
Q 41.0625 64.453125 32.8125 64.453125 
Q 24.21875 64.453125 20.28125 61.296875 
Q 16.359375 58.15625 16.359375 53.71875 
Q 16.359375 49.859375 19.140625 47.359375 
Q 21.875 44.875 33.421875 42.265625 
Q 44.96875 39.65625 49.265625 37.703125 
Q 55.515625 34.8125 58.484375 30.390625 
Q 61.46875 25.984375 61.46875 20.21875 
Q 61.46875 14.5 58.203125 9.4375 
Q 54.9375 4.390625 48.796875 1.578125 
Q 42.671875 -1.21875 35.015625 -1.21875 
Q 25.296875 -1.21875 18.71875 1.609375 
Q 12.15625 4.4375 8.421875 10.125 
Q 4.6875 15.828125 4.5 23 
z
" id="ArialMT-83"/>
      <path d="M 6.203125 -19.96875 
L 5.21875 -11.71875 
Q 8.109375 -12.5 10.25 -12.5 
Q 13.1875 -12.5 14.9375 -11.515625 
Q 16.703125 -10.546875 17.828125 -8.796875 
Q 18.65625 -7.46875 20.515625 -2.25 
Q 20.75 -1.515625 21.296875 -0.09375 
L 1.609375 51.859375 
L 11.078125 51.859375 
L 21.875 21.828125 
Q 23.96875 16.109375 25.640625 9.8125 
Q 27.15625 15.875 29.25 21.625 
L 40.328125 51.859375 
L 49.125 51.859375 
L 29.390625 -0.875 
Q 26.21875 -9.421875 24.46875 -12.640625 
Q 22.125 -17 19.09375 -19.015625 
Q 16.0625 -21.046875 11.859375 -21.046875 
Q 9.328125 -21.046875 6.203125 -19.96875 
z
" id="ArialMT-121"/>
      <path d="M 40.4375 6.390625 
Q 35.546875 2.25 31.03125 0.53125 
Q 26.515625 -1.171875 21.34375 -1.171875 
Q 12.796875 -1.171875 8.203125 3 
Q 3.609375 7.171875 3.609375 13.671875 
Q 3.609375 17.484375 5.34375 20.625 
Q 7.078125 23.78125 9.890625 25.6875 
Q 12.703125 27.59375 16.21875 28.5625 
Q 18.796875 29.25 24.03125 29.890625 
Q 34.671875 31.15625 39.703125 32.90625 
Q 39.75 34.71875 39.75 35.203125 
Q 39.75 40.578125 37.25 42.78125 
Q 33.890625 45.75 27.25 45.75 
Q 21.046875 45.75 18.09375 43.578125 
Q 15.140625 41.40625 13.71875 35.890625 
L 5.125 37.0625 
Q 6.296875 42.578125 8.984375 45.96875 
Q 11.671875 49.359375 16.75 51.1875 
Q 21.828125 53.03125 28.515625 53.03125 
Q 35.15625 53.03125 39.296875 51.46875 
Q 43.453125 49.90625 45.40625 47.53125 
Q 47.359375 45.171875 48.140625 41.546875 
Q 48.578125 39.3125 48.578125 33.453125 
L 48.578125 21.734375 
Q 48.578125 9.46875 49.140625 6.21875 
Q 49.703125 2.984375 51.375 0 
L 42.1875 0 
Q 40.828125 2.734375 40.4375 6.390625 
z
M 39.703125 26.03125 
Q 34.90625 24.078125 25.34375 22.703125 
Q 19.921875 21.921875 17.671875 20.9375 
Q 15.4375 19.96875 14.203125 18.09375 
Q 12.984375 16.21875 12.984375 13.921875 
Q 12.984375 10.40625 15.640625 8.0625 
Q 18.3125 5.71875 23.4375 5.71875 
Q 28.515625 5.71875 32.46875 7.9375 
Q 36.421875 10.15625 38.28125 14.015625 
Q 39.703125 17 39.703125 22.796875 
z
" id="ArialMT-97"/>
      <path d="M 6.59375 -19.875 
L 6.59375 51.859375 
L 14.59375 51.859375 
L 14.59375 45.125 
Q 17.4375 49.078125 21 51.046875 
Q 24.5625 53.03125 29.640625 53.03125 
Q 36.28125 53.03125 41.359375 49.609375 
Q 46.4375 46.1875 49.015625 39.953125 
Q 51.609375 33.734375 51.609375 26.3125 
Q 51.609375 18.359375 48.75 11.984375 
Q 45.90625 5.609375 40.453125 2.21875 
Q 35.015625 -1.171875 29 -1.171875 
Q 24.609375 -1.171875 21.109375 0.6875 
Q 17.625 2.546875 15.375 5.375 
L 15.375 -19.875 
z
M 14.546875 25.640625 
Q 14.546875 15.625 18.59375 10.84375 
Q 22.65625 6.0625 28.421875 6.0625 
Q 34.28125 6.0625 38.453125 11.015625 
Q 42.625 15.96875 42.625 26.375 
Q 42.625 36.28125 38.546875 41.203125 
Q 34.46875 46.140625 28.8125 46.140625 
Q 23.1875 46.140625 18.859375 40.890625 
Q 14.546875 35.640625 14.546875 25.640625 
z
" id="ArialMT-112"/>
      <path d="M 6.390625 0 
L 6.390625 71.578125 
L 15.1875 71.578125 
L 15.1875 0 
z
" id="ArialMT-108"/>
     </defs>
     <g style="fill:#262626;" transform="translate(438.059106 112.090625)scale(0.1 -0.1)">
      <use xlink:href="#ArialMT-83"/>
      <use x="66.699219" xlink:href="#ArialMT-116"/>
      <use x="94.482422" xlink:href="#ArialMT-117"/>
      <use x="150.097656" xlink:href="#ArialMT-100"/>
      <use x="205.712891" xlink:href="#ArialMT-121"/>
      <use x="255.712891" xlink:href="#ArialMT-32"/>
      <use x="283.496094" xlink:href="#ArialMT-83"/>
      <use x="350.195312" xlink:href="#ArialMT-97"/>
      <use x="405.810547" xlink:href="#ArialMT-109"/>
      <use x="489.111328" xlink:href="#ArialMT-112"/>
      <use x="544.726562" xlink:href="#ArialMT-108"/>
      <use x="566.943359" xlink:href="#ArialMT-101"/>
     </g>
    </g>
    <g id="PathCollection_4">
     <g>
      <use style="fill:#55a868;stroke:#55a868;" x="420.059106" xlink:href="#me4a9acadab" y="123.85"/>
     </g>
    </g>
    <g id="text_21">
     <!-- Study Reference -->
     <defs>
      <path d="M 8.6875 0 
L 8.6875 45.015625 
L 0.921875 45.015625 
L 0.921875 51.859375 
L 8.6875 51.859375 
L 8.6875 57.375 
Q 8.6875 62.59375 9.625 65.140625 
Q 10.890625 68.5625 14.078125 70.671875 
Q 17.28125 72.796875 23.046875 72.796875 
Q 26.765625 72.796875 31.25 71.921875 
L 29.9375 64.265625 
Q 27.203125 64.75 24.75 64.75 
Q 20.75 64.75 19.09375 63.03125 
Q 17.4375 61.328125 17.4375 56.640625 
L 17.4375 51.859375 
L 27.546875 51.859375 
L 27.546875 45.015625 
L 17.4375 45.015625 
L 17.4375 0 
z
" id="ArialMT-102"/>
     </defs>
     <g style="fill:#262626;" transform="translate(438.059106 126.475)scale(0.1 -0.1)">
      <use xlink:href="#ArialMT-83"/>
      <use x="66.699219" xlink:href="#ArialMT-116"/>
      <use x="94.482422" xlink:href="#ArialMT-117"/>
      <use x="150.097656" xlink:href="#ArialMT-100"/>
      <use x="205.712891" xlink:href="#ArialMT-121"/>
      <use x="255.712891" xlink:href="#ArialMT-32"/>
      <use x="283.496094" xlink:href="#ArialMT-82"/>
      <use x="355.712891" xlink:href="#ArialMT-101"/>
      <use x="411.328125" xlink:href="#ArialMT-102"/>
      <use x="439.111328" xlink:href="#ArialMT-101"/>
      <use x="494.726562" xlink:href="#ArialMT-114"/>
      <use x="528.027344" xlink:href="#ArialMT-101"/>
      <use x="583.642578" xlink:href="#ArialMT-110"/>
      <use x="639.257812" xlink:href="#ArialMT-99"/>
      <use x="689.257812" xlink:href="#ArialMT-101"/>
     </g>
    </g>
   </g>
  </g>
  <g id="axes_2">
   <g id="patch_8">
    <path d="M 549.217726 391.22 
L 655.045313 391.22 
L 655.045313 10.7 
L 549.217726 10.7 
z
" style="fill:#ffffff;"/>
   </g>
   <g id="matplotlib.axis_3">
    <g id="xtick_7">
     <g id="line2d_30">
      <g>
       <use style="fill:#262626;stroke:#262626;stroke-width:0.8;" x="575.674623" xlink:href="#m3faaf89f8a" y="391.22"/>
      </g>
     </g>
     <g id="text_22">
      <!-- SS -->
      <g style="fill:#262626;" transform="translate(569.00431 405.377813)scale(0.1 -0.1)">
       <use xlink:href="#ArialMT-83"/>
       <use x="66.699219" xlink:href="#ArialMT-83"/>
      </g>
     </g>
    </g>
    <g id="xtick_8">
     <g id="line2d_31">
      <g>
       <use style="fill:#262626;stroke:#262626;stroke-width:0.8;" x="628.588416" xlink:href="#m3faaf89f8a" y="391.22"/>
      </g>
     </g>
     <g id="text_23">
      <!-- SR -->
      <g style="fill:#262626;" transform="translate(621.642322 405.377813)scale(0.1 -0.1)">
       <use xlink:href="#ArialMT-83"/>
       <use x="66.699219" xlink:href="#ArialMT-82"/>
      </g>
     </g>
    </g>
    <g id="text_24">
     <!-- Sample Type -->
     <defs>
      <path d="M 25.921875 0 
L 25.921875 63.140625 
L 2.34375 63.140625 
L 2.34375 71.578125 
L 59.078125 71.578125 
L 59.078125 63.140625 
L 35.40625 63.140625 
L 35.40625 0 
z
" id="ArialMT-84"/>
     </defs>
     <g style="fill:#262626;" transform="translate(572.679957 418.645)scale(0.1 -0.1)">
      <use xlink:href="#ArialMT-83"/>
      <use x="66.699219" xlink:href="#ArialMT-97"/>
      <use x="122.314453" xlink:href="#ArialMT-109"/>
      <use x="205.615234" xlink:href="#ArialMT-112"/>
      <use x="261.230469" xlink:href="#ArialMT-108"/>
      <use x="283.447266" xlink:href="#ArialMT-101"/>
      <use x="339.0625" xlink:href="#ArialMT-32"/>
      <use x="366.830078" xlink:href="#ArialMT-84"/>
      <use x="427.835938" xlink:href="#ArialMT-121"/>
      <use x="477.835938" xlink:href="#ArialMT-112"/>
      <use x="533.451172" xlink:href="#ArialMT-101"/>
     </g>
    </g>
   </g>
   <g id="matplotlib.axis_4">
    <g id="ytick_6">
     <g id="line2d_32">
      <g>
       <use style="fill:#262626;stroke:#262626;stroke-width:0.8;" x="549.217726" xlink:href="#ma4216e0c3b" y="340.508081"/>
      </g>
     </g>
    </g>
    <g id="ytick_7">
     <g id="line2d_33">
      <g>
       <use style="fill:#262626;stroke:#262626;stroke-width:0.8;" x="549.217726" xlink:href="#ma4216e0c3b" y="263.81331"/>
      </g>
     </g>
    </g>
    <g id="ytick_8">
     <g id="line2d_34">
      <g>
       <use style="fill:#262626;stroke:#262626;stroke-width:0.8;" x="549.217726" xlink:href="#ma4216e0c3b" y="187.118539"/>
      </g>
     </g>
    </g>
    <g id="ytick_9">
     <g id="line2d_35">
      <g>
       <use style="fill:#262626;stroke:#262626;stroke-width:0.8;" x="549.217726" xlink:href="#ma4216e0c3b" y="110.423768"/>
      </g>
     </g>
    </g>
    <g id="ytick_10">
     <g id="line2d_36">
      <g>
       <use style="fill:#262626;stroke:#262626;stroke-width:0.8;" x="549.217726" xlink:href="#ma4216e0c3b" y="33.728997"/>
      </g>
     </g>
    </g>
   </g>
   <g id="PolyCollection_1">
    <defs>
     <path d="M 579.613815 -54.75164 
L 571.735431 -54.75164 
L 570.616967 -58.056927 
L 569.329736 -61.362213 
L 567.887256 -64.667499 
L 566.314445 -67.972786 
L 564.647926 -71.278072 
L 562.935205 -74.583358 
L 561.232764 -77.888645 
L 559.603127 -81.193931 
L 558.110966 -84.499217 
L 556.818339 -87.804503 
L 555.779413 -91.10979 
L 555.035362 -94.415076 
L 554.610316 -97.720362 
L 554.509106 -101.025649 
L 554.717145 -104.330935 
L 555.202494 -107.636221 
L 555.920045 -110.941508 
L 556.817673 -114.246794 
L 557.84375 -117.55208 
L 558.954456 -120.857367 
L 560.118552 -124.162653 
L 561.317347 -127.467939 
L 562.539167 -130.773226 
L 563.770084 -134.078512 
L 564.984836 -137.383798 
L 566.142337 -140.689085 
L 567.18862 -143.994371 
L 568.067061 -147.299657 
L 568.732683 -150.604944 
L 569.165676 -153.91023 
L 569.379406 -157.215516 
L 569.420047 -160.520803 
L 569.357656 -163.826089 
L 569.271094 -167.131375 
L 569.230928 -170.436662 
L 569.28497 -173.741948 
L 569.450274 -177.047234 
L 569.713588 -180.352521 
L 570.039788 -183.657807 
L 570.385535 -186.963093 
L 570.713803 -190.268379 
L 571.004715 -193.573666 
L 571.259412 -196.878952 
L 571.496058 -200.184238 
L 571.739947 -203.489525 
L 572.011707 -206.794811 
L 572.318185 -210.100097 
L 572.64933 -213.405384 
L 572.981856 -216.71067 
L 573.28779 -220.015956 
L 573.544266 -223.321243 
L 573.740808 -226.626529 
L 573.881705 -229.931815 
L 573.983159 -233.237102 
L 574.066814 -236.542388 
L 574.152292 -239.847674 
L 574.251305 -243.152961 
L 574.365071 -246.458247 
L 574.485462 -249.763533 
L 574.599137 -253.06882 
L 574.693052 -256.374106 
L 574.759458 -259.679392 
L 574.798789 -262.984679 
L 574.81958 -266.289965 
L 574.835618 -269.595251 
L 574.861456 -272.900538 
L 574.907914 -276.205824 
L 574.979108 -279.51111 
L 575.071829 -282.816397 
L 575.177136 -286.121683 
L 575.28327 -289.426969 
L 575.378639 -292.732255 
L 575.453898 -296.037542 
L 575.50275 -299.342828 
L 575.521718 -302.648114 
L 575.509517 -305.953401 
L 575.466665 -309.258687 
L 575.3956 -312.563973 
L 575.30113 -315.86926 
L 575.190637 -319.174546 
L 575.073409 -322.479832 
L 574.95884 -325.785119 
L 574.853845 -329.090405 
L 574.760498 -332.395691 
L 574.675129 -335.700978 
L 574.589709 -339.006264 
L 574.495422 -342.31155 
L 574.387164 -345.616837 
L 574.267067 -348.922123 
L 574.145345 -352.227409 
L 574.037866 -355.532696 
L 573.961362 -358.837982 
L 573.928317 -362.143268 
L 573.943665 -365.448555 
L 574.004509 -368.753841 
L 574.102549 -372.059127 
L 574.227682 -375.364414 
L 574.370957 -378.6697 
L 574.525727 -381.974986 
L 576.823518 -381.974986 
L 576.823518 -381.974986 
L 576.978289 -378.6697 
L 577.121564 -375.364414 
L 577.246697 -372.059127 
L 577.344736 -368.753841 
L 577.405581 -365.448555 
L 577.420929 -362.143268 
L 577.387884 -358.837982 
L 577.31138 -355.532696 
L 577.2039 -352.227409 
L 577.082179 -348.922123 
L 576.962082 -345.616837 
L 576.853824 -342.31155 
L 576.759536 -339.006264 
L 576.674117 -335.700978 
L 576.588748 -332.395691 
L 576.495401 -329.090405 
L 576.390406 -325.785119 
L 576.275836 -322.479832 
L 576.158609 -319.174546 
L 576.048116 -315.86926 
L 575.953646 -312.563973 
L 575.882581 -309.258687 
L 575.839728 -305.953401 
L 575.827528 -302.648114 
L 575.846496 -299.342828 
L 575.895348 -296.037542 
L 575.970607 -292.732255 
L 576.065975 -289.426969 
L 576.17211 -286.121683 
L 576.277417 -282.816397 
L 576.370137 -279.51111 
L 576.441332 -276.205824 
L 576.48779 -272.900538 
L 576.513627 -269.595251 
L 576.529666 -266.289965 
L 576.550456 -262.984679 
L 576.589787 -259.679392 
L 576.656194 -256.374106 
L 576.750108 -253.06882 
L 576.863784 -249.763533 
L 576.984175 -246.458247 
L 577.09794 -243.152961 
L 577.196953 -239.847674 
L 577.282431 -236.542388 
L 577.366087 -233.237102 
L 577.467541 -229.931815 
L 577.608438 -226.626529 
L 577.80498 -223.321243 
L 578.061455 -220.015956 
L 578.367389 -216.71067 
L 578.699916 -213.405384 
L 579.031061 -210.100097 
L 579.337539 -206.794811 
L 579.609298 -203.489525 
L 579.853187 -200.184238 
L 580.089834 -196.878952 
L 580.34453 -193.573666 
L 580.635443 -190.268379 
L 580.96371 -186.963093 
L 581.309458 -183.657807 
L 581.635658 -180.352521 
L 581.898972 -177.047234 
L 582.064276 -173.741948 
L 582.118318 -170.436662 
L 582.078152 -167.131375 
L 581.99159 -163.826089 
L 581.929199 -160.520803 
L 581.96984 -157.215516 
L 582.18357 -153.91023 
L 582.616563 -150.604944 
L 583.282185 -147.299657 
L 584.160625 -143.994371 
L 585.206909 -140.689085 
L 586.36441 -137.383798 
L 587.579162 -134.078512 
L 588.810079 -130.773226 
L 590.031898 -127.467939 
L 591.230694 -124.162653 
L 592.39479 -120.857367 
L 593.505496 -117.55208 
L 594.531573 -114.246794 
L 595.429201 -110.941508 
L 596.146751 -107.636221 
L 596.632101 -104.330935 
L 596.84014 -101.025649 
L 596.73893 -97.720362 
L 596.313884 -94.415076 
L 595.569833 -91.10979 
L 594.530907 -87.804503 
L 593.238279 -84.499217 
L 591.746118 -81.193931 
L 590.116482 -77.888645 
L 588.414041 -74.583358 
L 586.70132 -71.278072 
L 585.0348 -67.972786 
L 583.46199 -64.667499 
L 582.01951 -61.362213 
L 580.732279 -58.056927 
L 579.613815 -54.75164 
z
" id="mdcbfe19aeb" style="stroke:#4c4c4c;stroke-width:1.5;"/>
    </defs>
    <g clip-path="url(#p565075f766)">
     <use style="fill:#5875a4;stroke:#4c4c4c;stroke-width:1.5;" x="0" xlink:href="#mdcbfe19aeb" y="427.949687"/>
    </g>
   </g>
   <g id="PolyCollection_2">
    <defs>
     <path d="M 642.330038 -133.83011 
L 614.846794 -133.83011 
L 613.126851 -136.511313 
L 611.712609 -139.192516 
L 610.700102 -141.873719 
L 610.145947 -144.554923 
L 610.057729 -147.236126 
L 610.392459 -149.917329 
L 611.063991 -152.598532 
L 611.958257 -155.279736 
L 612.953245 -157.960939 
L 613.939403 -160.642142 
L 614.836036 -163.323346 
L 615.600364 -166.004549 
L 616.22786 -168.685752 
L 616.744751 -171.366955 
L 617.195412 -174.048159 
L 617.628318 -176.729362 
L 618.083947 -179.410565 
L 618.586786 -182.091768 
L 619.141912 -184.772972 
L 619.735127 -187.454175 
L 620.334949 -190.135378 
L 620.895026 -192.816581 
L 621.356543 -195.497785 
L 621.651279 -198.178988 
L 621.706614 -200.860191 
L 621.453561 -203.541395 
L 620.837894 -206.222598 
L 619.833005 -208.903801 
L 618.451846 -211.585004 
L 616.754619 -214.266208 
L 614.849163 -216.947411 
L 612.882211 -219.628614 
L 611.021789 -222.309817 
L 609.4334 -224.991021 
L 608.25477 -227.672224 
L 607.574935 -230.353427 
L 607.422899 -233.034631 
L 607.768731 -235.715834 
L 608.536611 -238.397037 
L 609.625802 -241.07824 
L 610.933368 -243.759444 
L 612.372293 -246.440647 
L 613.880673 -249.12185 
L 615.421034 -251.803053 
L 616.972156 -254.484257 
L 618.517956 -257.16546 
L 620.038151 -259.846663 
L 621.503943 -262.527866 
L 622.879503 -265.20907 
L 624.127743 -267.890273 
L 625.217605 -270.571476 
L 626.130053 -273.25268 
L 626.860944 -275.933883 
L 627.420365 -278.615086 
L 627.829212 -281.296289 
L 628.114435 -283.977493 
L 628.304359 -286.658696 
L 628.425077 -289.339899 
L 628.498331 -292.021102 
L 628.540776 -294.702306 
L 628.564264 -297.383509 
L 628.57668 -300.064712 
L 628.582951 -302.745915 
L 628.585978 -305.427119 
L 628.587374 -308.108322 
L 628.587989 -310.789525 
L 628.588248 -313.470729 
L 628.588353 -316.151932 
L 628.588393 -318.833135 
L 628.588408 -321.514338 
L 628.588413 -324.195542 
L 628.588415 -326.876745 
L 628.588414 -329.557948 
L 628.588412 -332.239151 
L 628.588404 -334.920355 
L 628.588383 -337.601558 
L 628.588327 -340.282761 
L 628.588187 -342.963964 
L 628.587852 -345.645168 
L 628.587091 -348.326371 
L 628.585434 -351.007574 
L 628.581993 -353.688778 
L 628.575176 -356.369981 
L 628.562294 -359.051184 
L 628.539089 -361.732387 
L 628.499264 -364.413591 
L 628.434199 -367.094794 
L 628.33309 -369.775997 
L 628.183823 -372.4572 
L 627.974794 -375.138404 
L 627.697691 -377.819607 
L 627.350914 -380.50081 
L 626.942879 -383.182013 
L 626.494163 -385.863217 
L 626.037416 -388.54442 
L 625.614344 -391.225623 
L 625.269837 -393.906827 
L 625.044262 -396.58803 
L 624.965713 -399.269233 
L 632.211119 -399.269233 
L 632.211119 -399.269233 
L 632.13257 -396.58803 
L 631.906995 -393.906827 
L 631.562488 -391.225623 
L 631.139416 -388.54442 
L 630.682669 -385.863217 
L 630.233953 -383.182013 
L 629.825918 -380.50081 
L 629.479141 -377.819607 
L 629.202038 -375.138404 
L 628.993009 -372.4572 
L 628.843742 -369.775997 
L 628.742633 -367.094794 
L 628.677567 -364.413591 
L 628.637743 -361.732387 
L 628.614538 -359.051184 
L 628.601656 -356.369981 
L 628.594839 -353.688778 
L 628.591398 -351.007574 
L 628.589741 -348.326371 
L 628.58898 -345.645168 
L 628.588645 -342.963964 
L 628.588505 -340.282761 
L 628.588449 -337.601558 
L 628.588428 -334.920355 
L 628.58842 -332.239151 
L 628.588418 -329.557948 
L 628.588417 -326.876745 
L 628.588419 -324.195542 
L 628.588424 -321.514338 
L 628.588439 -318.833135 
L 628.588479 -316.151932 
L 628.588583 -313.470729 
L 628.588843 -310.789525 
L 628.589458 -308.108322 
L 628.590854 -305.427119 
L 628.593881 -302.745915 
L 628.600152 -300.064712 
L 628.612568 -297.383509 
L 628.636056 -294.702306 
L 628.678501 -292.021102 
L 628.751755 -289.339899 
L 628.872473 -286.658696 
L 629.062397 -283.977493 
L 629.34762 -281.296289 
L 629.756467 -278.615086 
L 630.315888 -275.933883 
L 631.046779 -273.25268 
L 631.959227 -270.571476 
L 633.049089 -267.890273 
L 634.297328 -265.20907 
L 635.672888 -262.527866 
L 637.138681 -259.846663 
L 638.658876 -257.16546 
L 640.204676 -254.484257 
L 641.755798 -251.803053 
L 643.296159 -249.12185 
L 644.804539 -246.440647 
L 646.243464 -243.759444 
L 647.55103 -241.07824 
L 648.640221 -238.397037 
L 649.408101 -235.715834 
L 649.753933 -233.034631 
L 649.601897 -230.353427 
L 648.922062 -227.672224 
L 647.743431 -224.991021 
L 646.155043 -222.309817 
L 644.294621 -219.628614 
L 642.327669 -216.947411 
L 640.422213 -214.266208 
L 638.724986 -211.585004 
L 637.343827 -208.903801 
L 636.338938 -206.222598 
L 635.72327 -203.541395 
L 635.470218 -200.860191 
L 635.525553 -198.178988 
L 635.820289 -195.497785 
L 636.281806 -192.816581 
L 636.841883 -190.135378 
L 637.441705 -187.454175 
L 638.03492 -184.772972 
L 638.590046 -182.091768 
L 639.092885 -179.410565 
L 639.548514 -176.729362 
L 639.98142 -174.048159 
L 640.432081 -171.366955 
L 640.948971 -168.685752 
L 641.576468 -166.004549 
L 642.340796 -163.323346 
L 643.237429 -160.642142 
L 644.223586 -157.960939 
L 645.218575 -155.279736 
L 646.112841 -152.598532 
L 646.784373 -149.917329 
L 647.119103 -147.236126 
L 647.030885 -144.554923 
L 646.47673 -141.873719 
L 645.464223 -139.192516 
L 644.049981 -136.511313 
L 642.330038 -133.83011 
z
" id="m035af98d7b" style="stroke:#4c4c4c;stroke-width:1.5;"/>
    </defs>
    <g clip-path="url(#p565075f766)">
     <use style="fill:#5f9e6e;stroke:#4c4c4c;stroke-width:1.5;" x="0" xlink:href="#m035af98d7b" y="427.949687"/>
    </g>
   </g>
   <g id="line2d_37">
    <path clip-path="url(#p565075f766)" d="M 575.674623 373.198047 
L 575.674623 183.943236 
" style="fill:none;stroke:#4c4c4c;stroke-linecap:round;stroke-width:1.5;"/>
   </g>
   <g id="line2d_38">
    <path clip-path="url(#p565075f766)" d="M 575.674623 334.821247 
L 575.674623 267.263985 
" style="fill:none;stroke:#4c4c4c;stroke-linecap:round;stroke-width:4.5;"/>
   </g>
   <g id="line2d_39">
    <path clip-path="url(#p565075f766)" d="M 628.588416 294.119578 
L 628.588416 172.241381 
" style="fill:none;stroke:#4c4c4c;stroke-linecap:round;stroke-width:1.5;"/>
   </g>
   <g id="line2d_40">
    <path clip-path="url(#p565075f766)" d="M 628.588416 277.261374 
L 628.588416 196.613111 
" style="fill:none;stroke:#4c4c4c;stroke-linecap:round;stroke-width:4.5;"/>
   </g>
   <g id="patch_9">
    <path d="M 549.217726 340.508081 
L 549.217726 33.728997 
" style="fill:none;stroke:#262626;stroke-linecap:square;stroke-linejoin:miter;stroke-width:0.8;"/>
   </g>
   <g id="patch_10">
    <path d="M 575.674623 391.22 
L 628.588416 391.22 
" style="fill:none;stroke:#262626;stroke-linecap:square;stroke-linejoin:miter;stroke-width:0.8;"/>
   </g>
   <g id="PathCollection_5">
    <defs>
     <path d="M 0 1.5 
C 0.397805 1.5 0.77937 1.341951 1.06066 1.06066 
C 1.341951 0.77937 1.5 0.397805 1.5 0 
C 1.5 -0.397805 1.341951 -0.77937 1.06066 -1.06066 
C 0.77937 -1.341951 0.397805 -1.5 0 -1.5 
C -0.397805 -1.5 -0.77937 -1.341951 -1.06066 -1.06066 
C -1.341951 -0.77937 -1.5 -0.397805 -1.5 0 
C -1.5 0.397805 -1.341951 0.77937 -1.06066 1.06066 
C -0.77937 1.341951 -0.397805 1.5 0 1.5 
z
" id="m66633c6c67" style="stroke:#4c4c4c;"/>
    </defs>
    <g clip-path="url(#p565075f766)">
     <use style="fill:#ffffff;stroke:#4c4c4c;" x="575.674623" xlink:href="#m66633c6c67" y="316.035259"/>
    </g>
   </g>
   <g id="PathCollection_6">
    <g clip-path="url(#p565075f766)">
     <use style="fill:#ffffff;stroke:#4c4c4c;" x="628.588416" xlink:href="#m66633c6c67" y="221.23918"/>
    </g>
   </g>
  </g>
 </g>
 <defs>
  <clipPath id="p53a979d97c">
   <rect height="380.52" width="359.813793" x="41.245313" y="10.7"/>
  </clipPath>
  <clipPath id="p565075f766">
   <rect height="380.52" width="105.827586" x="549.217726" y="10.7"/>
  </clipPath>
 </defs>
</svg>
