<?xml version="1.0" encoding="utf-8" standalone="no"?>
<!DOCTYPE svg PUBLIC "-//W3C//DTD SVG 1.1//EN"
  "http://www.w3.org/Graphics/SVG/1.1/DTD/svg11.dtd">
<!-- Created with matplotlib (http://matplotlib.org/) -->
<svg height="476pt" version="1.1" viewBox="0 0 770 476" width="770pt" xmlns="http://www.w3.org/2000/svg" xmlns:xlink="http://www.w3.org/1999/xlink">
 <defs>
  <style type="text/css">
*{stroke-linecap:butt;stroke-linejoin:round;stroke-miterlimit:100000;}
  </style>
 </defs>
 <g id="figure_1">
  <g id="patch_1">
   <path d="M 0 476.788125 
L 770.738438 476.788125 
L 770.738438 0 
L 0 0 
z
" style="fill:#ffffff;"/>
  </g>
  <g id="axes_1">
   <g id="patch_2">
    <path d="M 46.485313 438.12 
L 660.285313 438.12 
L 660.285313 47.52 
L 46.485313 47.52 
z
" style="fill:#eaeaf2;"/>
   </g>
   <g id="matplotlib.axis_1">
    <g id="xtick_1">
     <g id="line2d_1">
      <path clip-path="url(#pbcf3a1a8d3)" d="M 46.485313 438.12 
L 46.485313 47.52 
" style="fill:none;stroke:#ffffff;stroke-linecap:round;"/>
     </g>
     <g id="line2d_2">
      <defs>
       <path d="M 0 0 
L 0 0 
" id="m1aa73c1bac" style="stroke:#262626;"/>
      </defs>
      <g>
       <use style="fill:#262626;stroke:#262626;" x="46.4853125" xlink:href="#m1aa73c1bac" y="438.12"/>
      </g>
     </g>
     <g id="line2d_3">
      <g>
       <use style="fill:#262626;stroke:#262626;" x="46.4853125" xlink:href="#m1aa73c1bac" y="47.52"/>
      </g>
     </g>
     <g id="text_1">
      <!-- −100 -->
      <defs>
       <path d="M 52.828125 31.203125 
L 5.5625 31.203125 
L 5.5625 39.40625 
L 52.828125 39.40625 
z
" id="ArialMT-2212"/>
       <path d="M 4.15625 35.296875 
Q 4.15625 48 6.765625 55.734375 
Q 9.375 63.484375 14.515625 67.671875 
Q 19.671875 71.875 27.484375 71.875 
Q 33.25 71.875 37.59375 69.546875 
Q 41.9375 67.234375 44.765625 62.859375 
Q 47.609375 58.5 49.21875 52.21875 
Q 50.828125 45.953125 50.828125 35.296875 
Q 50.828125 22.703125 48.234375 14.96875 
Q 45.65625 7.234375 40.5 3 
Q 35.359375 -1.21875 27.484375 -1.21875 
Q 17.140625 -1.21875 11.234375 6.203125 
Q 4.15625 15.140625 4.15625 35.296875 
M 13.1875 35.296875 
Q 13.1875 17.671875 17.3125 11.828125 
Q 21.4375 6 27.484375 6 
Q 33.546875 6 37.671875 11.859375 
Q 41.796875 17.71875 41.796875 35.296875 
Q 41.796875 52.984375 37.671875 58.78125 
Q 33.546875 64.59375 27.390625 64.59375 
Q 21.34375 64.59375 17.71875 59.46875 
Q 13.1875 52.9375 13.1875 35.296875 
" id="ArialMT-30"/>
       <path d="M 37.25 0 
L 28.46875 0 
L 28.46875 56 
Q 25.296875 52.984375 20.140625 49.953125 
Q 14.984375 46.921875 10.890625 45.40625 
L 10.890625 53.90625 
Q 18.265625 57.375 23.78125 62.296875 
Q 29.296875 67.234375 31.59375 71.875 
L 37.25 71.875 
z
" id="ArialMT-31"/>
      </defs>
      <g style="fill:#262626;" transform="translate(35.22359375 452.2778125)scale(0.1 -0.1)">
       <use xlink:href="#ArialMT-2212"/>
       <use x="58.3984375" xlink:href="#ArialMT-31"/>
       <use x="114.013671875" xlink:href="#ArialMT-30"/>
       <use x="169.62890625" xlink:href="#ArialMT-30"/>
      </g>
     </g>
    </g>
    <g id="xtick_2">
     <g id="line2d_4">
      <path clip-path="url(#pbcf3a1a8d3)" d="M 169.245313 438.12 
L 169.245313 47.52 
" style="fill:none;stroke:#ffffff;stroke-linecap:round;"/>
     </g>
     <g id="line2d_5">
      <g>
       <use style="fill:#262626;stroke:#262626;" x="169.2453125" xlink:href="#m1aa73c1bac" y="438.12"/>
      </g>
     </g>
     <g id="line2d_6">
      <g>
       <use style="fill:#262626;stroke:#262626;" x="169.2453125" xlink:href="#m1aa73c1bac" y="47.52"/>
      </g>
     </g>
     <g id="text_2">
      <!-- −50 -->
      <defs>
       <path d="M 4.15625 18.75 
L 13.375 19.53125 
Q 14.40625 12.796875 18.140625 9.390625 
Q 21.875 6 27.15625 6 
Q 33.5 6 37.890625 10.78125 
Q 42.28125 15.578125 42.28125 23.484375 
Q 42.28125 31 38.0625 35.34375 
Q 33.84375 39.703125 27 39.703125 
Q 22.75 39.703125 19.328125 37.765625 
Q 15.921875 35.84375 13.96875 32.765625 
L 5.71875 33.84375 
L 12.640625 70.609375 
L 48.25 70.609375 
L 48.25 62.203125 
L 19.671875 62.203125 
L 15.828125 42.96875 
Q 22.265625 47.46875 29.34375 47.46875 
Q 38.71875 47.46875 45.15625 40.96875 
Q 51.609375 34.46875 51.609375 24.265625 
Q 51.609375 14.546875 45.953125 7.46875 
Q 39.0625 -1.21875 27.15625 -1.21875 
Q 17.390625 -1.21875 11.203125 4.25 
Q 5.03125 9.71875 4.15625 18.75 
" id="ArialMT-35"/>
      </defs>
      <g style="fill:#262626;" transform="translate(160.7640625 452.2778125)scale(0.1 -0.1)">
       <use xlink:href="#ArialMT-2212"/>
       <use x="58.3984375" xlink:href="#ArialMT-35"/>
       <use x="114.013671875" xlink:href="#ArialMT-30"/>
      </g>
     </g>
    </g>
    <g id="xtick_3">
     <g id="line2d_7">
      <path clip-path="url(#pbcf3a1a8d3)" d="M 292.005313 438.12 
L 292.005313 47.52 
" style="fill:none;stroke:#ffffff;stroke-linecap:round;"/>
     </g>
     <g id="line2d_8">
      <g>
       <use style="fill:#262626;stroke:#262626;" x="292.0053125" xlink:href="#m1aa73c1bac" y="438.12"/>
      </g>
     </g>
     <g id="line2d_9">
      <g>
       <use style="fill:#262626;stroke:#262626;" x="292.0053125" xlink:href="#m1aa73c1bac" y="47.52"/>
      </g>
     </g>
     <g id="text_3">
      <!-- 0 -->
      <g style="fill:#262626;" transform="translate(289.22484375 452.2778125)scale(0.1 -0.1)">
       <use xlink:href="#ArialMT-30"/>
      </g>
     </g>
    </g>
    <g id="xtick_4">
     <g id="line2d_10">
      <path clip-path="url(#pbcf3a1a8d3)" d="M 414.765313 438.12 
L 414.765313 47.52 
" style="fill:none;stroke:#ffffff;stroke-linecap:round;"/>
     </g>
     <g id="line2d_11">
      <g>
       <use style="fill:#262626;stroke:#262626;" x="414.7653125" xlink:href="#m1aa73c1bac" y="438.12"/>
      </g>
     </g>
     <g id="line2d_12">
      <g>
       <use style="fill:#262626;stroke:#262626;" x="414.7653125" xlink:href="#m1aa73c1bac" y="47.52"/>
      </g>
     </g>
     <g id="text_4">
      <!-- 50 -->
      <g style="fill:#262626;" transform="translate(409.204375 452.2778125)scale(0.1 -0.1)">
       <use xlink:href="#ArialMT-35"/>
       <use x="55.615234375" xlink:href="#ArialMT-30"/>
      </g>
     </g>
    </g>
    <g id="xtick_5">
     <g id="line2d_13">
      <path clip-path="url(#pbcf3a1a8d3)" d="M 537.525313 438.12 
L 537.525313 47.52 
" style="fill:none;stroke:#ffffff;stroke-linecap:round;"/>
     </g>
     <g id="line2d_14">
      <g>
       <use style="fill:#262626;stroke:#262626;" x="537.5253125" xlink:href="#m1aa73c1bac" y="438.12"/>
      </g>
     </g>
     <g id="line2d_15">
      <g>
       <use style="fill:#262626;stroke:#262626;" x="537.5253125" xlink:href="#m1aa73c1bac" y="47.52"/>
      </g>
     </g>
     <g id="text_5">
      <!-- 100 -->
      <g style="fill:#262626;" transform="translate(529.18390625 452.2778125)scale(0.1 -0.1)">
       <use xlink:href="#ArialMT-31"/>
       <use x="55.615234375" xlink:href="#ArialMT-30"/>
       <use x="111.23046875" xlink:href="#ArialMT-30"/>
      </g>
     </g>
    </g>
    <g id="xtick_6">
     <g id="line2d_16">
      <path clip-path="url(#pbcf3a1a8d3)" d="M 660.285313 438.12 
L 660.285313 47.52 
" style="fill:none;stroke:#ffffff;stroke-linecap:round;"/>
     </g>
     <g id="line2d_17">
      <g>
       <use style="fill:#262626;stroke:#262626;" x="660.2853125" xlink:href="#m1aa73c1bac" y="438.12"/>
      </g>
     </g>
     <g id="line2d_18">
      <g>
       <use style="fill:#262626;stroke:#262626;" x="660.2853125" xlink:href="#m1aa73c1bac" y="47.52"/>
      </g>
     </g>
     <g id="text_6">
      <!-- 150 -->
      <g style="fill:#262626;" transform="translate(651.94390625 452.2778125)scale(0.1 -0.1)">
       <use xlink:href="#ArialMT-31"/>
       <use x="55.615234375" xlink:href="#ArialMT-35"/>
       <use x="111.23046875" xlink:href="#ArialMT-30"/>
      </g>
     </g>
    </g>
    <g id="text_7">
     <!-- PC3 (2.90%) -->
     <defs>
      <path d="M 23.390625 -21.046875 
Q 16.109375 -11.859375 11.078125 0.4375 
Q 6.0625 12.75 6.0625 25.921875 
Q 6.0625 37.546875 9.8125 48.1875 
Q 14.203125 60.546875 23.390625 72.796875 
L 29.6875 72.796875 
Q 23.78125 62.640625 21.875 58.296875 
Q 18.890625 51.5625 17.1875 44.234375 
Q 15.09375 35.109375 15.09375 25.875 
Q 15.09375 2.390625 29.6875 -21.046875 
z
" id="ArialMT-28"/>
      <path d="M 58.796875 25.09375 
L 68.265625 22.703125 
Q 65.28125 11.03125 57.546875 4.90625 
Q 49.8125 -1.21875 38.625 -1.21875 
Q 27.046875 -1.21875 19.796875 3.484375 
Q 12.546875 8.203125 8.765625 17.140625 
Q 4.984375 26.078125 4.984375 36.328125 
Q 4.984375 47.515625 9.25 55.828125 
Q 13.53125 64.15625 21.40625 68.46875 
Q 29.296875 72.796875 38.765625 72.796875 
Q 49.515625 72.796875 56.828125 67.328125 
Q 64.15625 61.859375 67.046875 51.953125 
L 57.71875 49.75 
Q 55.21875 57.5625 50.484375 61.125 
Q 45.75 64.703125 38.578125 64.703125 
Q 30.328125 64.703125 24.78125 60.734375 
Q 19.234375 56.78125 16.984375 50.109375 
Q 14.75 43.453125 14.75 36.375 
Q 14.75 27.25 17.40625 20.4375 
Q 20.0625 13.625 25.671875 10.25 
Q 31.296875 6.890625 37.84375 6.890625 
Q 45.796875 6.890625 51.3125 11.46875 
Q 56.84375 16.0625 58.796875 25.09375 
" id="ArialMT-43"/>
      <path d="M 50.34375 8.453125 
L 50.34375 0 
L 3.03125 0 
Q 2.9375 3.171875 4.046875 6.109375 
Q 5.859375 10.9375 9.828125 15.625 
Q 13.8125 20.3125 21.34375 26.46875 
Q 33.015625 36.03125 37.109375 41.625 
Q 41.21875 47.21875 41.21875 52.203125 
Q 41.21875 57.421875 37.46875 61 
Q 33.734375 64.59375 27.734375 64.59375 
Q 21.390625 64.59375 17.578125 60.78125 
Q 13.765625 56.984375 13.71875 50.25 
L 4.6875 51.171875 
Q 5.609375 61.28125 11.65625 66.578125 
Q 17.71875 71.875 27.9375 71.875 
Q 38.234375 71.875 44.234375 66.15625 
Q 50.25 60.453125 50.25 52 
Q 50.25 47.703125 48.484375 43.546875 
Q 46.734375 39.40625 42.65625 34.8125 
Q 38.578125 30.21875 29.109375 22.21875 
Q 21.1875 15.578125 18.9375 13.203125 
Q 16.703125 10.84375 15.234375 8.453125 
z
" id="ArialMT-32"/>
      <path d="M 4.203125 18.890625 
L 12.984375 20.0625 
Q 14.5 12.59375 18.140625 9.296875 
Q 21.78125 6 27 6 
Q 33.203125 6 37.46875 10.296875 
Q 41.75 14.59375 41.75 20.953125 
Q 41.75 27 37.796875 30.921875 
Q 33.84375 34.859375 27.734375 34.859375 
Q 25.25 34.859375 21.53125 33.890625 
L 22.515625 41.609375 
Q 23.390625 41.5 23.921875 41.5 
Q 29.546875 41.5 34.03125 44.421875 
Q 38.53125 47.359375 38.53125 53.46875 
Q 38.53125 58.296875 35.25 61.46875 
Q 31.984375 64.65625 26.8125 64.65625 
Q 21.6875 64.65625 18.265625 61.421875 
Q 14.84375 58.203125 13.875 51.765625 
L 5.078125 53.328125 
Q 6.6875 62.15625 12.390625 67.015625 
Q 18.109375 71.875 26.609375 71.875 
Q 32.46875 71.875 37.390625 69.359375 
Q 42.328125 66.84375 44.9375 62.5 
Q 47.5625 58.15625 47.5625 53.265625 
Q 47.5625 48.640625 45.0625 44.828125 
Q 42.578125 41.015625 37.703125 38.765625 
Q 44.046875 37.3125 47.5625 32.6875 
Q 51.078125 28.078125 51.078125 21.140625 
Q 51.078125 11.765625 44.234375 5.25 
Q 37.40625 -1.265625 26.953125 -1.265625 
Q 17.53125 -1.265625 11.296875 4.34375 
Q 5.078125 9.96875 4.203125 18.890625 
" id="ArialMT-33"/>
      <path d="M 9.078125 0 
L 9.078125 10.015625 
L 19.09375 10.015625 
L 19.09375 0 
z
" id="ArialMT-2e"/>
      <path d="M 7.71875 0 
L 7.71875 71.578125 
L 34.71875 71.578125 
Q 41.84375 71.578125 45.609375 70.90625 
Q 50.875 70.015625 54.4375 67.546875 
Q 58.015625 65.09375 60.1875 60.640625 
Q 62.359375 56.203125 62.359375 50.875 
Q 62.359375 41.75 56.546875 35.421875 
Q 50.734375 29.109375 35.546875 29.109375 
L 17.1875 29.109375 
L 17.1875 0 
z
M 17.1875 37.546875 
L 35.6875 37.546875 
Q 44.875 37.546875 48.734375 40.96875 
Q 52.59375 44.390625 52.59375 50.59375 
Q 52.59375 55.078125 50.3125 58.265625 
Q 48.046875 61.46875 44.34375 62.5 
Q 41.9375 63.140625 35.5 63.140625 
L 17.1875 63.140625 
z
" id="ArialMT-50"/>
      <path d="M 5.46875 16.546875 
L 13.921875 17.328125 
Q 14.984375 11.375 18.015625 8.6875 
Q 21.046875 6 25.78125 6 
Q 29.828125 6 32.875 7.859375 
Q 35.9375 9.71875 37.890625 12.8125 
Q 39.84375 15.921875 41.15625 21.1875 
Q 42.484375 26.46875 42.484375 31.9375 
Q 42.484375 32.515625 42.4375 33.6875 
Q 39.796875 29.5 35.234375 26.875 
Q 30.671875 24.265625 25.34375 24.265625 
Q 16.453125 24.265625 10.296875 30.703125 
Q 4.15625 37.15625 4.15625 47.703125 
Q 4.15625 58.59375 10.578125 65.234375 
Q 17 71.875 26.65625 71.875 
Q 33.640625 71.875 39.421875 68.109375 
Q 45.21875 64.359375 48.21875 57.390625 
Q 51.21875 50.4375 51.21875 37.25 
Q 51.21875 23.53125 48.234375 15.40625 
Q 45.265625 7.28125 39.375 3.03125 
Q 33.5 -1.21875 25.59375 -1.21875 
Q 17.1875 -1.21875 11.859375 3.4375 
Q 6.546875 8.109375 5.46875 16.546875 
M 41.453125 48.140625 
Q 41.453125 55.71875 37.421875 60.15625 
Q 33.40625 64.59375 27.734375 64.59375 
Q 21.875 64.59375 17.53125 59.8125 
Q 13.1875 55.03125 13.1875 47.40625 
Q 13.1875 40.578125 17.3125 36.296875 
Q 21.4375 32.03125 27.484375 32.03125 
Q 33.59375 32.03125 37.515625 36.296875 
Q 41.453125 40.578125 41.453125 48.140625 
" id="ArialMT-39"/>
      <path d="M 12.359375 -21.046875 
L 6.0625 -21.046875 
Q 20.65625 2.390625 20.65625 25.875 
Q 20.65625 35.0625 18.5625 44.09375 
Q 16.890625 51.421875 13.921875 58.15625 
Q 12.015625 62.546875 6.0625 72.796875 
L 12.359375 72.796875 
Q 21.53125 60.546875 25.921875 48.1875 
Q 29.6875 37.546875 29.6875 25.921875 
Q 29.6875 12.75 24.625 0.4375 
Q 19.578125 -11.859375 12.359375 -21.046875 
" id="ArialMT-29"/>
      <path d="M 5.8125 54.390625 
Q 5.8125 62.0625 9.671875 67.421875 
Q 13.53125 72.796875 20.84375 72.796875 
Q 27.59375 72.796875 32 67.984375 
Q 36.421875 63.1875 36.421875 53.859375 
Q 36.421875 44.78125 31.953125 39.875 
Q 27.484375 34.96875 20.953125 34.96875 
Q 14.453125 34.96875 10.125 39.796875 
Q 5.8125 44.625 5.8125 54.390625 
M 21.09375 66.75 
Q 17.828125 66.75 15.65625 63.90625 
Q 13.484375 61.078125 13.484375 53.515625 
Q 13.484375 46.625 15.671875 43.8125 
Q 17.875 41.015625 21.09375 41.015625 
Q 24.421875 41.015625 26.59375 43.84375 
Q 28.765625 46.6875 28.765625 54.203125 
Q 28.765625 61.140625 26.5625 63.9375 
Q 24.359375 66.75 21.09375 66.75 
M 21.140625 -2.640625 
L 60.296875 72.796875 
L 67.4375 72.796875 
L 28.421875 -2.640625 
z
M 52.09375 16.796875 
Q 52.09375 24.515625 55.953125 29.859375 
Q 59.8125 35.203125 67.1875 35.203125 
Q 73.921875 35.203125 78.34375 30.390625 
Q 82.765625 25.59375 82.765625 16.265625 
Q 82.765625 7.171875 78.296875 2.265625 
Q 73.828125 -2.640625 67.234375 -2.640625 
Q 60.75 -2.640625 56.421875 2.21875 
Q 52.09375 7.078125 52.09375 16.796875 
M 67.4375 29.15625 
Q 64.109375 29.15625 61.9375 26.3125 
Q 59.765625 23.484375 59.765625 15.921875 
Q 59.765625 9.078125 61.953125 6.25 
Q 64.15625 3.421875 67.390625 3.421875 
Q 70.75 3.421875 72.921875 6.25 
Q 75.09375 9.078125 75.09375 16.609375 
Q 75.09375 23.53125 72.890625 26.34375 
Q 70.703125 29.15625 67.4375 29.15625 
" id="ArialMT-25"/>
      <path id="ArialMT-20"/>
     </defs>
     <g style="fill:#262626;" transform="translate(321.90125 467.27296875)scale(0.11 -0.11)">
      <use xlink:href="#ArialMT-50"/>
      <use x="66.69921875" xlink:href="#ArialMT-43"/>
      <use x="138.916015625" xlink:href="#ArialMT-33"/>
      <use x="194.53125" xlink:href="#ArialMT-20"/>
      <use x="222.314453125" xlink:href="#ArialMT-28"/>
      <use x="255.615234375" xlink:href="#ArialMT-32"/>
      <use x="311.23046875" xlink:href="#ArialMT-2e"/>
      <use x="339.013671875" xlink:href="#ArialMT-39"/>
      <use x="394.62890625" xlink:href="#ArialMT-30"/>
      <use x="450.244140625" xlink:href="#ArialMT-25"/>
      <use x="539.16015625" xlink:href="#ArialMT-29"/>
     </g>
    </g>
   </g>
   <g id="matplotlib.axis_2">
    <g id="ytick_1">
     <g id="line2d_19">
      <path clip-path="url(#pbcf3a1a8d3)" d="M 46.485313 438.12 
L 660.285313 438.12 
" style="fill:none;stroke:#ffffff;stroke-linecap:round;"/>
     </g>
     <g id="line2d_20">
      <g>
       <use style="fill:#262626;stroke:#262626;" x="46.4853125" xlink:href="#m1aa73c1bac" y="438.12"/>
      </g>
     </g>
     <g id="line2d_21">
      <g>
       <use style="fill:#262626;stroke:#262626;" x="660.2853125" xlink:href="#m1aa73c1bac" y="438.12"/>
      </g>
     </g>
     <g id="text_8">
      <!-- −80 -->
      <defs>
       <path d="M 17.671875 38.8125 
Q 12.203125 40.828125 9.5625 44.53125 
Q 6.9375 48.25 6.9375 53.421875 
Q 6.9375 61.234375 12.546875 66.546875 
Q 18.171875 71.875 27.484375 71.875 
Q 36.859375 71.875 42.578125 66.421875 
Q 48.296875 60.984375 48.296875 53.171875 
Q 48.296875 48.1875 45.671875 44.5 
Q 43.0625 40.828125 37.75 38.8125 
Q 44.34375 36.671875 47.78125 31.875 
Q 51.21875 27.09375 51.21875 20.453125 
Q 51.21875 11.28125 44.71875 5.03125 
Q 38.234375 -1.21875 27.640625 -1.21875 
Q 17.046875 -1.21875 10.546875 5.046875 
Q 4.046875 11.328125 4.046875 20.703125 
Q 4.046875 27.6875 7.59375 32.390625 
Q 11.140625 37.109375 17.671875 38.8125 
M 15.921875 53.71875 
Q 15.921875 48.640625 19.1875 45.40625 
Q 22.46875 42.1875 27.6875 42.1875 
Q 32.765625 42.1875 36.015625 45.375 
Q 39.265625 48.578125 39.265625 53.21875 
Q 39.265625 58.0625 35.90625 61.359375 
Q 32.5625 64.65625 27.59375 64.65625 
Q 22.5625 64.65625 19.234375 61.421875 
Q 15.921875 58.203125 15.921875 53.71875 
M 13.09375 20.65625 
Q 13.09375 16.890625 14.875 13.375 
Q 16.65625 9.859375 20.171875 7.921875 
Q 23.6875 6 27.734375 6 
Q 34.03125 6 38.125 10.046875 
Q 42.234375 14.109375 42.234375 20.359375 
Q 42.234375 26.703125 38.015625 30.859375 
Q 33.796875 35.015625 27.4375 35.015625 
Q 21.234375 35.015625 17.15625 30.90625 
Q 13.09375 26.8125 13.09375 20.65625 
" id="ArialMT-38"/>
      </defs>
      <g style="fill:#262626;" transform="translate(22.5228125 440.70515625)scale(0.1 -0.1)">
       <use xlink:href="#ArialMT-2212"/>
       <use x="58.3984375" xlink:href="#ArialMT-38"/>
       <use x="114.013671875" xlink:href="#ArialMT-30"/>
      </g>
     </g>
    </g>
    <g id="ytick_2">
     <g id="line2d_22">
      <path clip-path="url(#pbcf3a1a8d3)" d="M 46.485313 394.72 
L 660.285313 394.72 
" style="fill:none;stroke:#ffffff;stroke-linecap:round;"/>
     </g>
     <g id="line2d_23">
      <g>
       <use style="fill:#262626;stroke:#262626;" x="46.4853125" xlink:href="#m1aa73c1bac" y="394.72"/>
      </g>
     </g>
     <g id="line2d_24">
      <g>
       <use style="fill:#262626;stroke:#262626;" x="660.2853125" xlink:href="#m1aa73c1bac" y="394.72"/>
      </g>
     </g>
     <g id="text_9">
      <!-- −60 -->
      <defs>
       <path d="M 49.75 54.046875 
L 41.015625 53.375 
Q 39.84375 58.546875 37.703125 60.890625 
Q 34.125 64.65625 28.90625 64.65625 
Q 24.703125 64.65625 21.53125 62.3125 
Q 17.390625 59.28125 14.984375 53.46875 
Q 12.59375 47.65625 12.5 36.921875 
Q 15.671875 41.75 20.265625 44.09375 
Q 24.859375 46.4375 29.890625 46.4375 
Q 38.671875 46.4375 44.84375 39.96875 
Q 51.03125 33.5 51.03125 23.25 
Q 51.03125 16.5 48.125 10.71875 
Q 45.21875 4.9375 40.140625 1.859375 
Q 35.0625 -1.21875 28.609375 -1.21875 
Q 17.625 -1.21875 10.6875 6.859375 
Q 3.765625 14.9375 3.765625 33.5 
Q 3.765625 54.25 11.421875 63.671875 
Q 18.109375 71.875 29.4375 71.875 
Q 37.890625 71.875 43.28125 67.140625 
Q 48.6875 62.40625 49.75 54.046875 
M 13.875 23.1875 
Q 13.875 18.65625 15.796875 14.5 
Q 17.71875 10.359375 21.1875 8.171875 
Q 24.65625 6 28.46875 6 
Q 34.03125 6 38.03125 10.484375 
Q 42.046875 14.984375 42.046875 22.703125 
Q 42.046875 30.125 38.078125 34.390625 
Q 34.125 38.671875 28.125 38.671875 
Q 22.171875 38.671875 18.015625 34.390625 
Q 13.875 30.125 13.875 23.1875 
" id="ArialMT-36"/>
      </defs>
      <g style="fill:#262626;" transform="translate(22.5228125 397.30515625)scale(0.1 -0.1)">
       <use xlink:href="#ArialMT-2212"/>
       <use x="58.3984375" xlink:href="#ArialMT-36"/>
       <use x="114.013671875" xlink:href="#ArialMT-30"/>
      </g>
     </g>
    </g>
    <g id="ytick_3">
     <g id="line2d_25">
      <path clip-path="url(#pbcf3a1a8d3)" d="M 46.485313 351.32 
L 660.285313 351.32 
" style="fill:none;stroke:#ffffff;stroke-linecap:round;"/>
     </g>
     <g id="line2d_26">
      <g>
       <use style="fill:#262626;stroke:#262626;" x="46.4853125" xlink:href="#m1aa73c1bac" y="351.32"/>
      </g>
     </g>
     <g id="line2d_27">
      <g>
       <use style="fill:#262626;stroke:#262626;" x="660.2853125" xlink:href="#m1aa73c1bac" y="351.32"/>
      </g>
     </g>
     <g id="text_10">
      <!-- −40 -->
      <defs>
       <path d="M 32.328125 0 
L 32.328125 17.140625 
L 1.265625 17.140625 
L 1.265625 25.203125 
L 33.9375 71.578125 
L 41.109375 71.578125 
L 41.109375 25.203125 
L 50.78125 25.203125 
L 50.78125 17.140625 
L 41.109375 17.140625 
L 41.109375 0 
z
M 32.328125 25.203125 
L 32.328125 57.46875 
L 9.90625 25.203125 
z
" id="ArialMT-34"/>
      </defs>
      <g style="fill:#262626;" transform="translate(22.5228125 353.90515625)scale(0.1 -0.1)">
       <use xlink:href="#ArialMT-2212"/>
       <use x="58.3984375" xlink:href="#ArialMT-34"/>
       <use x="114.013671875" xlink:href="#ArialMT-30"/>
      </g>
     </g>
    </g>
    <g id="ytick_4">
     <g id="line2d_28">
      <path clip-path="url(#pbcf3a1a8d3)" d="M 46.485313 307.92 
L 660.285313 307.92 
" style="fill:none;stroke:#ffffff;stroke-linecap:round;"/>
     </g>
     <g id="line2d_29">
      <g>
       <use style="fill:#262626;stroke:#262626;" x="46.4853125" xlink:href="#m1aa73c1bac" y="307.92"/>
      </g>
     </g>
     <g id="line2d_30">
      <g>
       <use style="fill:#262626;stroke:#262626;" x="660.2853125" xlink:href="#m1aa73c1bac" y="307.92"/>
      </g>
     </g>
     <g id="text_11">
      <!-- −20 -->
      <g style="fill:#262626;" transform="translate(22.5228125 310.50515625)scale(0.1 -0.1)">
       <use xlink:href="#ArialMT-2212"/>
       <use x="58.3984375" xlink:href="#ArialMT-32"/>
       <use x="114.013671875" xlink:href="#ArialMT-30"/>
      </g>
     </g>
    </g>
    <g id="ytick_5">
     <g id="line2d_31">
      <path clip-path="url(#pbcf3a1a8d3)" d="M 46.485313 264.52 
L 660.285313 264.52 
" style="fill:none;stroke:#ffffff;stroke-linecap:round;"/>
     </g>
     <g id="line2d_32">
      <g>
       <use style="fill:#262626;stroke:#262626;" x="46.4853125" xlink:href="#m1aa73c1bac" y="264.52"/>
      </g>
     </g>
     <g id="line2d_33">
      <g>
       <use style="fill:#262626;stroke:#262626;" x="660.2853125" xlink:href="#m1aa73c1bac" y="264.52"/>
      </g>
     </g>
     <g id="text_12">
      <!-- 0 -->
      <g style="fill:#262626;" transform="translate(33.924375 267.10515625)scale(0.1 -0.1)">
       <use xlink:href="#ArialMT-30"/>
      </g>
     </g>
    </g>
    <g id="ytick_6">
     <g id="line2d_34">
      <path clip-path="url(#pbcf3a1a8d3)" d="M 46.485313 221.12 
L 660.285313 221.12 
" style="fill:none;stroke:#ffffff;stroke-linecap:round;"/>
     </g>
     <g id="line2d_35">
      <g>
       <use style="fill:#262626;stroke:#262626;" x="46.4853125" xlink:href="#m1aa73c1bac" y="221.12"/>
      </g>
     </g>
     <g id="line2d_36">
      <g>
       <use style="fill:#262626;stroke:#262626;" x="660.2853125" xlink:href="#m1aa73c1bac" y="221.12"/>
      </g>
     </g>
     <g id="text_13">
      <!-- 20 -->
      <g style="fill:#262626;" transform="translate(28.3634375 223.70515625)scale(0.1 -0.1)">
       <use xlink:href="#ArialMT-32"/>
       <use x="55.615234375" xlink:href="#ArialMT-30"/>
      </g>
     </g>
    </g>
    <g id="ytick_7">
     <g id="line2d_37">
      <path clip-path="url(#pbcf3a1a8d3)" d="M 46.485313 177.72 
L 660.285313 177.72 
" style="fill:none;stroke:#ffffff;stroke-linecap:round;"/>
     </g>
     <g id="line2d_38">
      <g>
       <use style="fill:#262626;stroke:#262626;" x="46.4853125" xlink:href="#m1aa73c1bac" y="177.72"/>
      </g>
     </g>
     <g id="line2d_39">
      <g>
       <use style="fill:#262626;stroke:#262626;" x="660.2853125" xlink:href="#m1aa73c1bac" y="177.72"/>
      </g>
     </g>
     <g id="text_14">
      <!-- 40 -->
      <g style="fill:#262626;" transform="translate(28.3634375 180.30515625)scale(0.1 -0.1)">
       <use xlink:href="#ArialMT-34"/>
       <use x="55.615234375" xlink:href="#ArialMT-30"/>
      </g>
     </g>
    </g>
    <g id="ytick_8">
     <g id="line2d_40">
      <path clip-path="url(#pbcf3a1a8d3)" d="M 46.485313 134.32 
L 660.285313 134.32 
" style="fill:none;stroke:#ffffff;stroke-linecap:round;"/>
     </g>
     <g id="line2d_41">
      <g>
       <use style="fill:#262626;stroke:#262626;" x="46.4853125" xlink:href="#m1aa73c1bac" y="134.32"/>
      </g>
     </g>
     <g id="line2d_42">
      <g>
       <use style="fill:#262626;stroke:#262626;" x="660.2853125" xlink:href="#m1aa73c1bac" y="134.32"/>
      </g>
     </g>
     <g id="text_15">
      <!-- 60 -->
      <g style="fill:#262626;" transform="translate(28.3634375 136.90515625)scale(0.1 -0.1)">
       <use xlink:href="#ArialMT-36"/>
       <use x="55.615234375" xlink:href="#ArialMT-30"/>
      </g>
     </g>
    </g>
    <g id="ytick_9">
     <g id="line2d_43">
      <path clip-path="url(#pbcf3a1a8d3)" d="M 46.485313 90.92 
L 660.285313 90.92 
" style="fill:none;stroke:#ffffff;stroke-linecap:round;"/>
     </g>
     <g id="line2d_44">
      <g>
       <use style="fill:#262626;stroke:#262626;" x="46.4853125" xlink:href="#m1aa73c1bac" y="90.92"/>
      </g>
     </g>
     <g id="line2d_45">
      <g>
       <use style="fill:#262626;stroke:#262626;" x="660.2853125" xlink:href="#m1aa73c1bac" y="90.92"/>
      </g>
     </g>
     <g id="text_16">
      <!-- 80 -->
      <g style="fill:#262626;" transform="translate(28.3634375 93.50515625)scale(0.1 -0.1)">
       <use xlink:href="#ArialMT-38"/>
       <use x="55.615234375" xlink:href="#ArialMT-30"/>
      </g>
     </g>
    </g>
    <g id="ytick_10">
     <g id="line2d_46">
      <path clip-path="url(#pbcf3a1a8d3)" d="M 46.485313 47.52 
L 660.285313 47.52 
" style="fill:none;stroke:#ffffff;stroke-linecap:round;"/>
     </g>
     <g id="line2d_47">
      <g>
       <use style="fill:#262626;stroke:#262626;" x="46.4853125" xlink:href="#m1aa73c1bac" y="47.52"/>
      </g>
     </g>
     <g id="line2d_48">
      <g>
       <use style="fill:#262626;stroke:#262626;" x="660.2853125" xlink:href="#m1aa73c1bac" y="47.52"/>
      </g>
     </g>
     <g id="text_17">
      <!-- 100 -->
      <g style="fill:#262626;" transform="translate(22.8025 50.10515625)scale(0.1 -0.1)">
       <use xlink:href="#ArialMT-31"/>
       <use x="55.615234375" xlink:href="#ArialMT-30"/>
       <use x="111.23046875" xlink:href="#ArialMT-30"/>
      </g>
     </g>
    </g>
    <g id="text_18">
     <!-- PC4 (2.30%) -->
     <g style="fill:#262626;" transform="translate(15.20765625 274.3040625)rotate(-90.0)scale(0.11 -0.11)">
      <use xlink:href="#ArialMT-50"/>
      <use x="66.69921875" xlink:href="#ArialMT-43"/>
      <use x="138.916015625" xlink:href="#ArialMT-34"/>
      <use x="194.53125" xlink:href="#ArialMT-20"/>
      <use x="222.314453125" xlink:href="#ArialMT-28"/>
      <use x="255.615234375" xlink:href="#ArialMT-32"/>
      <use x="311.23046875" xlink:href="#ArialMT-2e"/>
      <use x="339.013671875" xlink:href="#ArialMT-33"/>
      <use x="394.62890625" xlink:href="#ArialMT-30"/>
      <use x="450.244140625" xlink:href="#ArialMT-25"/>
      <use x="539.16015625" xlink:href="#ArialMT-29"/>
     </g>
    </g>
   </g>
   <g id="PathCollection_1">
    <defs>
     <path d="M 0 2.236068 
C 0.593012 2.236068 1.161816 2.000462 1.581139 1.581139 
C 2.000462 1.161816 2.236068 0.593012 2.236068 0 
C 2.236068 -0.593012 2.000462 -1.161816 1.581139 -1.581139 
C 1.161816 -2.000462 0.593012 -2.236068 0 -2.236068 
C -0.593012 -2.236068 -1.161816 -2.000462 -1.581139 -1.581139 
C -2.000462 -1.161816 -2.236068 -0.593012 -2.236068 0 
C -2.236068 0.593012 -2.000462 1.161816 -1.581139 1.581139 
C -1.161816 2.000462 -0.593012 2.236068 0 2.236068 
z
" id="mb0622a9a4b" style="stroke:#1a1a1a;stroke-width:0.3;"/>
    </defs>
    <g clip-path="url(#pbcf3a1a8d3)">
     <use style="fill:#4c72b0;stroke:#1a1a1a;stroke-width:0.3;" x="228.962152742" xlink:href="#mb0622a9a4b" y="284.115898903"/>
     <use style="fill:#4c72b0;stroke:#1a1a1a;stroke-width:0.3;" x="316.78235604" xlink:href="#mb0622a9a4b" y="418.526000084"/>
     <use style="fill:#4c72b0;stroke:#1a1a1a;stroke-width:0.3;" x="211.909393521" xlink:href="#mb0622a9a4b" y="241.775959467"/>
     <use style="fill:#4c72b0;stroke:#1a1a1a;stroke-width:0.3;" x="325.611626599" xlink:href="#mb0622a9a4b" y="258.031492327"/>
     <use style="fill:#4c72b0;stroke:#1a1a1a;stroke-width:0.3;" x="125.93505671" xlink:href="#mb0622a9a4b" y="309.498680778"/>
     <use style="fill:#4c72b0;stroke:#1a1a1a;stroke-width:0.3;" x="292.550471591" xlink:href="#mb0622a9a4b" y="277.790334903"/>
     <use style="fill:#4c72b0;stroke:#1a1a1a;stroke-width:0.3;" x="224.770580538" xlink:href="#mb0622a9a4b" y="235.529980672"/>
     <use style="fill:#4c72b0;stroke:#1a1a1a;stroke-width:0.3;" x="259.509813849" xlink:href="#mb0622a9a4b" y="267.526757369"/>
     <use style="fill:#4c72b0;stroke:#1a1a1a;stroke-width:0.3;" x="290.559077546" xlink:href="#mb0622a9a4b" y="303.387663858"/>
     <use style="fill:#4c72b0;stroke:#1a1a1a;stroke-width:0.3;" x="229.451507229" xlink:href="#mb0622a9a4b" y="238.962305863"/>
     <use style="fill:#4c72b0;stroke:#1a1a1a;stroke-width:0.3;" x="216.964116584" xlink:href="#mb0622a9a4b" y="243.128703952"/>
     <use style="fill:#4c72b0;stroke:#1a1a1a;stroke-width:0.3;" x="253.877285674" xlink:href="#mb0622a9a4b" y="246.299345124"/>
     <use style="fill:#4c72b0;stroke:#1a1a1a;stroke-width:0.3;" x="422.145664406" xlink:href="#mb0622a9a4b" y="277.576325492"/>
     <use style="fill:#4c72b0;stroke:#1a1a1a;stroke-width:0.3;" x="483.444480378" xlink:href="#mb0622a9a4b" y="374.617514659"/>
     <use style="fill:#4c72b0;stroke:#1a1a1a;stroke-width:0.3;" x="261.156311976" xlink:href="#mb0622a9a4b" y="252.006540078"/>
     <use style="fill:#4c72b0;stroke:#1a1a1a;stroke-width:0.3;" x="302.737545258" xlink:href="#mb0622a9a4b" y="248.18508674"/>
     <use style="fill:#4c72b0;stroke:#1a1a1a;stroke-width:0.3;" x="229.01955345" xlink:href="#mb0622a9a4b" y="298.474540324"/>
     <use style="fill:#4c72b0;stroke:#1a1a1a;stroke-width:0.3;" x="282.245175591" xlink:href="#mb0622a9a4b" y="220.357413272"/>
     <use style="fill:#4c72b0;stroke:#1a1a1a;stroke-width:0.3;" x="365.933858969" xlink:href="#mb0622a9a4b" y="260.378546833"/>
     <use style="fill:#4c72b0;stroke:#1a1a1a;stroke-width:0.3;" x="365.255521007" xlink:href="#mb0622a9a4b" y="348.154222853"/>
     <use style="fill:#4c72b0;stroke:#1a1a1a;stroke-width:0.3;" x="290.961431688" xlink:href="#mb0622a9a4b" y="239.413067768"/>
     <use style="fill:#4c72b0;stroke:#1a1a1a;stroke-width:0.3;" x="336.603534703" xlink:href="#mb0622a9a4b" y="245.350085405"/>
     <use style="fill:#4c72b0;stroke:#1a1a1a;stroke-width:0.3;" x="277.51564437" xlink:href="#mb0622a9a4b" y="287.667273693"/>
     <use style="fill:#4c72b0;stroke:#1a1a1a;stroke-width:0.3;" x="312.499774558" xlink:href="#mb0622a9a4b" y="222.999961233"/>
     <use style="fill:#4c72b0;stroke:#1a1a1a;stroke-width:0.3;" x="235.658866453" xlink:href="#mb0622a9a4b" y="212.88018334"/>
     <use style="fill:#4c72b0;stroke:#1a1a1a;stroke-width:0.3;" x="386.078547833" xlink:href="#mb0622a9a4b" y="265.768797751"/>
     <use style="fill:#4c72b0;stroke:#1a1a1a;stroke-width:0.3;" x="192.001620562" xlink:href="#mb0622a9a4b" y="224.184571995"/>
     <use style="fill:#4c72b0;stroke:#1a1a1a;stroke-width:0.3;" x="219.899903829" xlink:href="#mb0622a9a4b" y="79.2535496254"/>
     <use style="fill:#4c72b0;stroke:#1a1a1a;stroke-width:0.3;" x="120.669568667" xlink:href="#mb0622a9a4b" y="349.866547949"/>
     <use style="fill:#4c72b0;stroke:#1a1a1a;stroke-width:0.3;" x="359.306966213" xlink:href="#mb0622a9a4b" y="160.684700878"/>
     <use style="fill:#4c72b0;stroke:#1a1a1a;stroke-width:0.3;" x="332.92372407" xlink:href="#mb0622a9a4b" y="271.235195874"/>
     <use style="fill:#4c72b0;stroke:#1a1a1a;stroke-width:0.3;" x="275.46448454" xlink:href="#mb0622a9a4b" y="326.419498027"/>
     <use style="fill:#4c72b0;stroke:#1a1a1a;stroke-width:0.3;" x="314.473703018" xlink:href="#mb0622a9a4b" y="308.398375811"/>
     <use style="fill:#4c72b0;stroke:#1a1a1a;stroke-width:0.3;" x="253.149584445" xlink:href="#mb0622a9a4b" y="209.439890194"/>
     <use style="fill:#4c72b0;stroke:#1a1a1a;stroke-width:0.3;" x="284.327086575" xlink:href="#mb0622a9a4b" y="310.381445305"/>
     <use style="fill:#4c72b0;stroke:#1a1a1a;stroke-width:0.3;" x="230.602217857" xlink:href="#mb0622a9a4b" y="220.010963669"/>
     <use style="fill:#4c72b0;stroke:#1a1a1a;stroke-width:0.3;" x="180.493683887" xlink:href="#mb0622a9a4b" y="286.84654632"/>
     <use style="fill:#4c72b0;stroke:#1a1a1a;stroke-width:0.3;" x="289.516619408" xlink:href="#mb0622a9a4b" y="268.766016448"/>
     <use style="fill:#4c72b0;stroke:#1a1a1a;stroke-width:0.3;" x="283.423376545" xlink:href="#mb0622a9a4b" y="272.557179969"/>
     <use style="fill:#4c72b0;stroke:#1a1a1a;stroke-width:0.3;" x="255.492187192" xlink:href="#mb0622a9a4b" y="301.197800256"/>
     <use style="fill:#4c72b0;stroke:#1a1a1a;stroke-width:0.3;" x="218.07638278" xlink:href="#mb0622a9a4b" y="270.139535187"/>
     <use style="fill:#4c72b0;stroke:#1a1a1a;stroke-width:0.3;" x="307.034018119" xlink:href="#mb0622a9a4b" y="241.867422851"/>
     <use style="fill:#4c72b0;stroke:#1a1a1a;stroke-width:0.3;" x="311.278772428" xlink:href="#mb0622a9a4b" y="243.249760563"/>
     <use style="fill:#4c72b0;stroke:#1a1a1a;stroke-width:0.3;" x="171.694149341" xlink:href="#mb0622a9a4b" y="278.650118403"/>
     <use style="fill:#4c72b0;stroke:#1a1a1a;stroke-width:0.3;" x="287.207454864" xlink:href="#mb0622a9a4b" y="287.643551184"/>
     <use style="fill:#4c72b0;stroke:#1a1a1a;stroke-width:0.3;" x="394.000080539" xlink:href="#mb0622a9a4b" y="265.51323041"/>
     <use style="fill:#4c72b0;stroke:#1a1a1a;stroke-width:0.3;" x="212.335095324" xlink:href="#mb0622a9a4b" y="280.560744146"/>
     <use style="fill:#4c72b0;stroke:#1a1a1a;stroke-width:0.3;" x="318.965686979" xlink:href="#mb0622a9a4b" y="256.255462791"/>
     <use style="fill:#4c72b0;stroke:#1a1a1a;stroke-width:0.3;" x="309.943423976" xlink:href="#mb0622a9a4b" y="212.942032514"/>
     <use style="fill:#4c72b0;stroke:#1a1a1a;stroke-width:0.3;" x="252.603583613" xlink:href="#mb0622a9a4b" y="225.30057862"/>
     <use style="fill:#4c72b0;stroke:#1a1a1a;stroke-width:0.3;" x="250.314911905" xlink:href="#mb0622a9a4b" y="167.061012431"/>
     <use style="fill:#4c72b0;stroke:#1a1a1a;stroke-width:0.3;" x="301.524146922" xlink:href="#mb0622a9a4b" y="218.825066656"/>
     <use style="fill:#4c72b0;stroke:#1a1a1a;stroke-width:0.3;" x="266.237145989" xlink:href="#mb0622a9a4b" y="277.227455791"/>
     <use style="fill:#4c72b0;stroke:#1a1a1a;stroke-width:0.3;" x="326.67311775" xlink:href="#mb0622a9a4b" y="168.673260894"/>
     <use style="fill:#4c72b0;stroke:#1a1a1a;stroke-width:0.3;" x="270.693118414" xlink:href="#mb0622a9a4b" y="164.671896748"/>
     <use style="fill:#4c72b0;stroke:#1a1a1a;stroke-width:0.3;" x="301.984552226" xlink:href="#mb0622a9a4b" y="269.285450797"/>
     <use style="fill:#4c72b0;stroke:#1a1a1a;stroke-width:0.3;" x="271.759321016" xlink:href="#mb0622a9a4b" y="232.479466764"/>
     <use style="fill:#4c72b0;stroke:#1a1a1a;stroke-width:0.3;" x="287.59837781" xlink:href="#mb0622a9a4b" y="256.966124089"/>
     <use style="fill:#4c72b0;stroke:#1a1a1a;stroke-width:0.3;" x="198.571714283" xlink:href="#mb0622a9a4b" y="322.900213336"/>
     <use style="fill:#4c72b0;stroke:#1a1a1a;stroke-width:0.3;" x="260.838456609" xlink:href="#mb0622a9a4b" y="300.301104284"/>
     <use style="fill:#4c72b0;stroke:#1a1a1a;stroke-width:0.3;" x="238.317047558" xlink:href="#mb0622a9a4b" y="230.019154231"/>
     <use style="fill:#4c72b0;stroke:#1a1a1a;stroke-width:0.3;" x="337.674212338" xlink:href="#mb0622a9a4b" y="225.620244063"/>
     <use style="fill:#4c72b0;stroke:#1a1a1a;stroke-width:0.3;" x="251.153515082" xlink:href="#mb0622a9a4b" y="202.378395914"/>
     <use style="fill:#4c72b0;stroke:#1a1a1a;stroke-width:0.3;" x="217.911352563" xlink:href="#mb0622a9a4b" y="299.46492303"/>
     <use style="fill:#4c72b0;stroke:#1a1a1a;stroke-width:0.3;" x="298.582907446" xlink:href="#mb0622a9a4b" y="194.081108017"/>
     <use style="fill:#4c72b0;stroke:#1a1a1a;stroke-width:0.3;" x="277.949178886" xlink:href="#mb0622a9a4b" y="244.382926123"/>
     <use style="fill:#4c72b0;stroke:#1a1a1a;stroke-width:0.3;" x="250.870231104" xlink:href="#mb0622a9a4b" y="267.939538035"/>
     <use style="fill:#4c72b0;stroke:#1a1a1a;stroke-width:0.3;" x="285.364033296" xlink:href="#mb0622a9a4b" y="284.810373705"/>
     <use style="fill:#4c72b0;stroke:#1a1a1a;stroke-width:0.3;" x="322.241654598" xlink:href="#mb0622a9a4b" y="243.204797032"/>
     <use style="fill:#4c72b0;stroke:#1a1a1a;stroke-width:0.3;" x="179.181046259" xlink:href="#mb0622a9a4b" y="325.622680154"/>
     <use style="fill:#4c72b0;stroke:#1a1a1a;stroke-width:0.3;" x="355.09925502" xlink:href="#mb0622a9a4b" y="212.130724545"/>
     <use style="fill:#4c72b0;stroke:#1a1a1a;stroke-width:0.3;" x="280.233001522" xlink:href="#mb0622a9a4b" y="251.977086069"/>
     <use style="fill:#4c72b0;stroke:#1a1a1a;stroke-width:0.3;" x="289.796105454" xlink:href="#mb0622a9a4b" y="235.458027832"/>
     <use style="fill:#4c72b0;stroke:#1a1a1a;stroke-width:0.3;" x="214.329693377" xlink:href="#mb0622a9a4b" y="245.701092727"/>
     <use style="fill:#4c72b0;stroke:#1a1a1a;stroke-width:0.3;" x="232.265376184" xlink:href="#mb0622a9a4b" y="281.884931057"/>
     <use style="fill:#4c72b0;stroke:#1a1a1a;stroke-width:0.3;" x="304.295972594" xlink:href="#mb0622a9a4b" y="248.25487531"/>
     <use style="fill:#4c72b0;stroke:#1a1a1a;stroke-width:0.3;" x="260.10230682" xlink:href="#mb0622a9a4b" y="316.730178356"/>
     <use style="fill:#4c72b0;stroke:#1a1a1a;stroke-width:0.3;" x="326.53382396" xlink:href="#mb0622a9a4b" y="239.740255914"/>
     <use style="fill:#4c72b0;stroke:#1a1a1a;stroke-width:0.3;" x="316.913142878" xlink:href="#mb0622a9a4b" y="257.069394044"/>
     <use style="fill:#4c72b0;stroke:#1a1a1a;stroke-width:0.3;" x="262.962503307" xlink:href="#mb0622a9a4b" y="251.425105656"/>
     <use style="fill:#4c72b0;stroke:#1a1a1a;stroke-width:0.3;" x="336.173876249" xlink:href="#mb0622a9a4b" y="304.386753507"/>
     <use style="fill:#4c72b0;stroke:#1a1a1a;stroke-width:0.3;" x="274.32308086" xlink:href="#mb0622a9a4b" y="234.314710901"/>
     <use style="fill:#4c72b0;stroke:#1a1a1a;stroke-width:0.3;" x="282.12344375" xlink:href="#mb0622a9a4b" y="261.542731455"/>
     <use style="fill:#4c72b0;stroke:#1a1a1a;stroke-width:0.3;" x="368.612599809" xlink:href="#mb0622a9a4b" y="293.182226297"/>
     <use style="fill:#4c72b0;stroke:#1a1a1a;stroke-width:0.3;" x="321.841963787" xlink:href="#mb0622a9a4b" y="238.047292234"/>
     <use style="fill:#4c72b0;stroke:#1a1a1a;stroke-width:0.3;" x="247.134129377" xlink:href="#mb0622a9a4b" y="244.834800781"/>
     <use style="fill:#4c72b0;stroke:#1a1a1a;stroke-width:0.3;" x="274.853626416" xlink:href="#mb0622a9a4b" y="263.323639095"/>
     <use style="fill:#4c72b0;stroke:#1a1a1a;stroke-width:0.3;" x="283.882381201" xlink:href="#mb0622a9a4b" y="259.331282679"/>
     <use style="fill:#4c72b0;stroke:#1a1a1a;stroke-width:0.3;" x="366.45232032" xlink:href="#mb0622a9a4b" y="292.682278807"/>
     <use style="fill:#4c72b0;stroke:#1a1a1a;stroke-width:0.3;" x="327.346350565" xlink:href="#mb0622a9a4b" y="269.657097495"/>
     <use style="fill:#4c72b0;stroke:#1a1a1a;stroke-width:0.3;" x="288.008188232" xlink:href="#mb0622a9a4b" y="229.159311914"/>
     <use style="fill:#4c72b0;stroke:#1a1a1a;stroke-width:0.3;" x="301.012218546" xlink:href="#mb0622a9a4b" y="290.151296773"/>
     <use style="fill:#4c72b0;stroke:#1a1a1a;stroke-width:0.3;" x="241.734664383" xlink:href="#mb0622a9a4b" y="292.611298781"/>
     <use style="fill:#4c72b0;stroke:#1a1a1a;stroke-width:0.3;" x="249.108747219" xlink:href="#mb0622a9a4b" y="299.387691815"/>
     <use style="fill:#4c72b0;stroke:#1a1a1a;stroke-width:0.3;" x="275.822863976" xlink:href="#mb0622a9a4b" y="302.011919628"/>
     <use style="fill:#4c72b0;stroke:#1a1a1a;stroke-width:0.3;" x="314.589385181" xlink:href="#mb0622a9a4b" y="241.444388363"/>
     <use style="fill:#4c72b0;stroke:#1a1a1a;stroke-width:0.3;" x="319.263773539" xlink:href="#mb0622a9a4b" y="336.271216251"/>
     <use style="fill:#4c72b0;stroke:#1a1a1a;stroke-width:0.3;" x="192.420149043" xlink:href="#mb0622a9a4b" y="328.578060658"/>
     <use style="fill:#4c72b0;stroke:#1a1a1a;stroke-width:0.3;" x="241.400127834" xlink:href="#mb0622a9a4b" y="222.349815192"/>
     <use style="fill:#4c72b0;stroke:#1a1a1a;stroke-width:0.3;" x="290.429793796" xlink:href="#mb0622a9a4b" y="375.058537169"/>
     <use style="fill:#4c72b0;stroke:#1a1a1a;stroke-width:0.3;" x="312.710188173" xlink:href="#mb0622a9a4b" y="309.116968189"/>
     <use style="fill:#4c72b0;stroke:#1a1a1a;stroke-width:0.3;" x="172.289397304" xlink:href="#mb0622a9a4b" y="299.139626475"/>
     <use style="fill:#4c72b0;stroke:#1a1a1a;stroke-width:0.3;" x="248.95080599" xlink:href="#mb0622a9a4b" y="272.501222105"/>
     <use style="fill:#4c72b0;stroke:#1a1a1a;stroke-width:0.3;" x="300.653356847" xlink:href="#mb0622a9a4b" y="333.557291001"/>
     <use style="fill:#4c72b0;stroke:#1a1a1a;stroke-width:0.3;" x="317.72824312" xlink:href="#mb0622a9a4b" y="284.36778178"/>
     <use style="fill:#4c72b0;stroke:#1a1a1a;stroke-width:0.3;" x="307.60290924" xlink:href="#mb0622a9a4b" y="285.227619513"/>
     <use style="fill:#4c72b0;stroke:#1a1a1a;stroke-width:0.3;" x="276.535860879" xlink:href="#mb0622a9a4b" y="293.088806964"/>
     <use style="fill:#4c72b0;stroke:#1a1a1a;stroke-width:0.3;" x="333.169307687" xlink:href="#mb0622a9a4b" y="229.142525462"/>
     <use style="fill:#4c72b0;stroke:#1a1a1a;stroke-width:0.3;" x="340.71832806" xlink:href="#mb0622a9a4b" y="235.298421433"/>
     <use style="fill:#4c72b0;stroke:#1a1a1a;stroke-width:0.3;" x="299.207139075" xlink:href="#mb0622a9a4b" y="299.658805167"/>
     <use style="fill:#4c72b0;stroke:#1a1a1a;stroke-width:0.3;" x="283.331273224" xlink:href="#mb0622a9a4b" y="276.634557697"/>
     <use style="fill:#4c72b0;stroke:#1a1a1a;stroke-width:0.3;" x="332.307865401" xlink:href="#mb0622a9a4b" y="271.796844365"/>
     <use style="fill:#4c72b0;stroke:#1a1a1a;stroke-width:0.3;" x="286.483728796" xlink:href="#mb0622a9a4b" y="277.727569131"/>
     <use style="fill:#4c72b0;stroke:#1a1a1a;stroke-width:0.3;" x="330.2266648" xlink:href="#mb0622a9a4b" y="246.491069258"/>
     <use style="fill:#4c72b0;stroke:#1a1a1a;stroke-width:0.3;" x="259.228623113" xlink:href="#mb0622a9a4b" y="296.718429425"/>
     <use style="fill:#4c72b0;stroke:#1a1a1a;stroke-width:0.3;" x="232.264363073" xlink:href="#mb0622a9a4b" y="283.799568166"/>
     <use style="fill:#4c72b0;stroke:#1a1a1a;stroke-width:0.3;" x="339.874342023" xlink:href="#mb0622a9a4b" y="320.935208187"/>
     <use style="fill:#4c72b0;stroke:#1a1a1a;stroke-width:0.3;" x="284.952657501" xlink:href="#mb0622a9a4b" y="332.528953717"/>
     <use style="fill:#4c72b0;stroke:#1a1a1a;stroke-width:0.3;" x="261.227776812" xlink:href="#mb0622a9a4b" y="274.449279758"/>
     <use style="fill:#4c72b0;stroke:#1a1a1a;stroke-width:0.3;" x="293.891824777" xlink:href="#mb0622a9a4b" y="255.26690405"/>
     <use style="fill:#4c72b0;stroke:#1a1a1a;stroke-width:0.3;" x="393.735556034" xlink:href="#mb0622a9a4b" y="330.609279045"/>
     <use style="fill:#4c72b0;stroke:#1a1a1a;stroke-width:0.3;" x="272.289800089" xlink:href="#mb0622a9a4b" y="288.433470884"/>
     <use style="fill:#4c72b0;stroke:#1a1a1a;stroke-width:0.3;" x="228.242179312" xlink:href="#mb0622a9a4b" y="282.619194277"/>
     <use style="fill:#4c72b0;stroke:#1a1a1a;stroke-width:0.3;" x="288.582641881" xlink:href="#mb0622a9a4b" y="280.140890411"/>
     <use style="fill:#4c72b0;stroke:#1a1a1a;stroke-width:0.3;" x="293.496953353" xlink:href="#mb0622a9a4b" y="225.737404804"/>
     <use style="fill:#4c72b0;stroke:#1a1a1a;stroke-width:0.3;" x="340.683031684" xlink:href="#mb0622a9a4b" y="290.173537651"/>
     <use style="fill:#4c72b0;stroke:#1a1a1a;stroke-width:0.3;" x="313.255875035" xlink:href="#mb0622a9a4b" y="287.004649254"/>
     <use style="fill:#4c72b0;stroke:#1a1a1a;stroke-width:0.3;" x="293.92025057" xlink:href="#mb0622a9a4b" y="288.997103626"/>
     <use style="fill:#4c72b0;stroke:#1a1a1a;stroke-width:0.3;" x="336.31739819" xlink:href="#mb0622a9a4b" y="226.142946534"/>
     <use style="fill:#4c72b0;stroke:#1a1a1a;stroke-width:0.3;" x="303.786426894" xlink:href="#mb0622a9a4b" y="272.630245688"/>
     <use style="fill:#4c72b0;stroke:#1a1a1a;stroke-width:0.3;" x="297.502129436" xlink:href="#mb0622a9a4b" y="279.478174205"/>
     <use style="fill:#4c72b0;stroke:#1a1a1a;stroke-width:0.3;" x="305.535946726" xlink:href="#mb0622a9a4b" y="308.000653399"/>
     <use style="fill:#4c72b0;stroke:#1a1a1a;stroke-width:0.3;" x="278.08012354" xlink:href="#mb0622a9a4b" y="123.354538405"/>
     <use style="fill:#4c72b0;stroke:#1a1a1a;stroke-width:0.3;" x="334.154925548" xlink:href="#mb0622a9a4b" y="246.457392286"/>
     <use style="fill:#4c72b0;stroke:#1a1a1a;stroke-width:0.3;" x="312.970415672" xlink:href="#mb0622a9a4b" y="205.72590677"/>
     <use style="fill:#4c72b0;stroke:#1a1a1a;stroke-width:0.3;" x="250.178226194" xlink:href="#mb0622a9a4b" y="284.539174762"/>
     <use style="fill:#4c72b0;stroke:#1a1a1a;stroke-width:0.3;" x="333.99251806" xlink:href="#mb0622a9a4b" y="287.289496297"/>
     <use style="fill:#4c72b0;stroke:#1a1a1a;stroke-width:0.3;" x="396.543053811" xlink:href="#mb0622a9a4b" y="243.495480988"/>
     <use style="fill:#4c72b0;stroke:#1a1a1a;stroke-width:0.3;" x="310.563386567" xlink:href="#mb0622a9a4b" y="278.993307313"/>
     <use style="fill:#4c72b0;stroke:#1a1a1a;stroke-width:0.3;" x="364.374892696" xlink:href="#mb0622a9a4b" y="238.008425506"/>
     <use style="fill:#4c72b0;stroke:#1a1a1a;stroke-width:0.3;" x="367.584894756" xlink:href="#mb0622a9a4b" y="196.768639935"/>
     <use style="fill:#4c72b0;stroke:#1a1a1a;stroke-width:0.3;" x="280.199798826" xlink:href="#mb0622a9a4b" y="292.181453447"/>
     <use style="fill:#4c72b0;stroke:#1a1a1a;stroke-width:0.3;" x="271.493255659" xlink:href="#mb0622a9a4b" y="261.073469963"/>
     <use style="fill:#4c72b0;stroke:#1a1a1a;stroke-width:0.3;" x="307.755150648" xlink:href="#mb0622a9a4b" y="155.650910866"/>
     <use style="fill:#4c72b0;stroke:#1a1a1a;stroke-width:0.3;" x="283.741641966" xlink:href="#mb0622a9a4b" y="274.792131417"/>
     <use style="fill:#4c72b0;stroke:#1a1a1a;stroke-width:0.3;" x="326.053062753" xlink:href="#mb0622a9a4b" y="249.455453101"/>
     <use style="fill:#4c72b0;stroke:#1a1a1a;stroke-width:0.3;" x="317.726835368" xlink:href="#mb0622a9a4b" y="295.244041666"/>
     <use style="fill:#4c72b0;stroke:#1a1a1a;stroke-width:0.3;" x="363.219719874" xlink:href="#mb0622a9a4b" y="196.715191941"/>
     <use style="fill:#4c72b0;stroke:#1a1a1a;stroke-width:0.3;" x="327.030028693" xlink:href="#mb0622a9a4b" y="262.790417566"/>
     <use style="fill:#4c72b0;stroke:#1a1a1a;stroke-width:0.3;" x="336.607225816" xlink:href="#mb0622a9a4b" y="347.414679742"/>
     <use style="fill:#4c72b0;stroke:#1a1a1a;stroke-width:0.3;" x="252.785398009" xlink:href="#mb0622a9a4b" y="252.356582494"/>
     <use style="fill:#4c72b0;stroke:#1a1a1a;stroke-width:0.3;" x="354.899183066" xlink:href="#mb0622a9a4b" y="277.254036595"/>
     <use style="fill:#4c72b0;stroke:#1a1a1a;stroke-width:0.3;" x="303.98971914" xlink:href="#mb0622a9a4b" y="262.820784511"/>
     <use style="fill:#4c72b0;stroke:#1a1a1a;stroke-width:0.3;" x="306.056747421" xlink:href="#mb0622a9a4b" y="287.550675999"/>
     <use style="fill:#4c72b0;stroke:#1a1a1a;stroke-width:0.3;" x="339.563635056" xlink:href="#mb0622a9a4b" y="279.833204157"/>
     <use style="fill:#4c72b0;stroke:#1a1a1a;stroke-width:0.3;" x="265.279229696" xlink:href="#mb0622a9a4b" y="266.720627219"/>
     <use style="fill:#4c72b0;stroke:#1a1a1a;stroke-width:0.3;" x="244.619439882" xlink:href="#mb0622a9a4b" y="293.132684485"/>
     <use style="fill:#4c72b0;stroke:#1a1a1a;stroke-width:0.3;" x="353.548749217" xlink:href="#mb0622a9a4b" y="306.988314511"/>
     <use style="fill:#4c72b0;stroke:#1a1a1a;stroke-width:0.3;" x="285.530517124" xlink:href="#mb0622a9a4b" y="291.374078554"/>
     <use style="fill:#4c72b0;stroke:#1a1a1a;stroke-width:0.3;" x="334.196031318" xlink:href="#mb0622a9a4b" y="251.93327284"/>
     <use style="fill:#4c72b0;stroke:#1a1a1a;stroke-width:0.3;" x="144.875546433" xlink:href="#mb0622a9a4b" y="324.999192806"/>
     <use style="fill:#4c72b0;stroke:#1a1a1a;stroke-width:0.3;" x="268.961572089" xlink:href="#mb0622a9a4b" y="246.892607402"/>
     <use style="fill:#4c72b0;stroke:#1a1a1a;stroke-width:0.3;" x="212.354868699" xlink:href="#mb0622a9a4b" y="295.615221175"/>
     <use style="fill:#4c72b0;stroke:#1a1a1a;stroke-width:0.3;" x="396.070880663" xlink:href="#mb0622a9a4b" y="177.87581957"/>
     <use style="fill:#4c72b0;stroke:#1a1a1a;stroke-width:0.3;" x="399.193354113" xlink:href="#mb0622a9a4b" y="253.723258613"/>
     <use style="fill:#4c72b0;stroke:#1a1a1a;stroke-width:0.3;" x="344.221226556" xlink:href="#mb0622a9a4b" y="217.553163561"/>
     <use style="fill:#4c72b0;stroke:#1a1a1a;stroke-width:0.3;" x="337.920889741" xlink:href="#mb0622a9a4b" y="279.441720837"/>
     <use style="fill:#4c72b0;stroke:#1a1a1a;stroke-width:0.3;" x="324.496108537" xlink:href="#mb0622a9a4b" y="261.941718526"/>
     <use style="fill:#4c72b0;stroke:#1a1a1a;stroke-width:0.3;" x="385.703446279" xlink:href="#mb0622a9a4b" y="274.541261621"/>
     <use style="fill:#4c72b0;stroke:#1a1a1a;stroke-width:0.3;" x="296.013579308" xlink:href="#mb0622a9a4b" y="207.159946509"/>
     <use style="fill:#4c72b0;stroke:#1a1a1a;stroke-width:0.3;" x="297.52445306" xlink:href="#mb0622a9a4b" y="277.357570804"/>
     <use style="fill:#4c72b0;stroke:#1a1a1a;stroke-width:0.3;" x="300.467967547" xlink:href="#mb0622a9a4b" y="276.904889371"/>
     <use style="fill:#4c72b0;stroke:#1a1a1a;stroke-width:0.3;" x="375.18283826" xlink:href="#mb0622a9a4b" y="260.309020952"/>
     <use style="fill:#4c72b0;stroke:#1a1a1a;stroke-width:0.3;" x="300.501527695" xlink:href="#mb0622a9a4b" y="347.855147101"/>
     <use style="fill:#4c72b0;stroke:#1a1a1a;stroke-width:0.3;" x="288.947287672" xlink:href="#mb0622a9a4b" y="291.587884401"/>
     <use style="fill:#4c72b0;stroke:#1a1a1a;stroke-width:0.3;" x="338.686412898" xlink:href="#mb0622a9a4b" y="271.751043979"/>
     <use style="fill:#4c72b0;stroke:#1a1a1a;stroke-width:0.3;" x="220.910801882" xlink:href="#mb0622a9a4b" y="245.116316241"/>
     <use style="fill:#4c72b0;stroke:#1a1a1a;stroke-width:0.3;" x="240.63250099" xlink:href="#mb0622a9a4b" y="273.956721402"/>
     <use style="fill:#4c72b0;stroke:#1a1a1a;stroke-width:0.3;" x="264.771006621" xlink:href="#mb0622a9a4b" y="245.96352822"/>
     <use style="fill:#4c72b0;stroke:#1a1a1a;stroke-width:0.3;" x="347.852736011" xlink:href="#mb0622a9a4b" y="308.990201671"/>
     <use style="fill:#4c72b0;stroke:#1a1a1a;stroke-width:0.3;" x="278.756200685" xlink:href="#mb0622a9a4b" y="257.638554167"/>
     <use style="fill:#4c72b0;stroke:#1a1a1a;stroke-width:0.3;" x="318.780634518" xlink:href="#mb0622a9a4b" y="237.954916174"/>
     <use style="fill:#4c72b0;stroke:#1a1a1a;stroke-width:0.3;" x="271.452119406" xlink:href="#mb0622a9a4b" y="274.702753849"/>
     <use style="fill:#4c72b0;stroke:#1a1a1a;stroke-width:0.3;" x="310.501799899" xlink:href="#mb0622a9a4b" y="274.207438542"/>
     <use style="fill:#4c72b0;stroke:#1a1a1a;stroke-width:0.3;" x="194.312738361" xlink:href="#mb0622a9a4b" y="259.148398579"/>
     <use style="fill:#4c72b0;stroke:#1a1a1a;stroke-width:0.3;" x="293.296606536" xlink:href="#mb0622a9a4b" y="285.802738954"/>
     <use style="fill:#4c72b0;stroke:#1a1a1a;stroke-width:0.3;" x="285.395251269" xlink:href="#mb0622a9a4b" y="245.545815859"/>
     <use style="fill:#4c72b0;stroke:#1a1a1a;stroke-width:0.3;" x="324.523880148" xlink:href="#mb0622a9a4b" y="310.979139215"/>
     <use style="fill:#4c72b0;stroke:#1a1a1a;stroke-width:0.3;" x="357.992376948" xlink:href="#mb0622a9a4b" y="395.91456218"/>
     <use style="fill:#4c72b0;stroke:#1a1a1a;stroke-width:0.3;" x="279.822411531" xlink:href="#mb0622a9a4b" y="265.969803108"/>
     <use style="fill:#4c72b0;stroke:#1a1a1a;stroke-width:0.3;" x="229.318396998" xlink:href="#mb0622a9a4b" y="276.775375993"/>
     <use style="fill:#4c72b0;stroke:#1a1a1a;stroke-width:0.3;" x="294.063840009" xlink:href="#mb0622a9a4b" y="285.63299678"/>
     <use style="fill:#4c72b0;stroke:#1a1a1a;stroke-width:0.3;" x="230.659500695" xlink:href="#mb0622a9a4b" y="262.021006573"/>
     <use style="fill:#4c72b0;stroke:#1a1a1a;stroke-width:0.3;" x="304.33910894" xlink:href="#mb0622a9a4b" y="251.355429425"/>
     <use style="fill:#4c72b0;stroke:#1a1a1a;stroke-width:0.3;" x="244.051936327" xlink:href="#mb0622a9a4b" y="253.451457336"/>
     <use style="fill:#4c72b0;stroke:#1a1a1a;stroke-width:0.3;" x="263.440583664" xlink:href="#mb0622a9a4b" y="284.794745142"/>
     <use style="fill:#4c72b0;stroke:#1a1a1a;stroke-width:0.3;" x="281.342532162" xlink:href="#mb0622a9a4b" y="301.415053045"/>
     <use style="fill:#4c72b0;stroke:#1a1a1a;stroke-width:0.3;" x="319.675018074" xlink:href="#mb0622a9a4b" y="259.608127621"/>
     <use style="fill:#4c72b0;stroke:#1a1a1a;stroke-width:0.3;" x="347.570714129" xlink:href="#mb0622a9a4b" y="298.90637989"/>
     <use style="fill:#4c72b0;stroke:#1a1a1a;stroke-width:0.3;" x="274.984829379" xlink:href="#mb0622a9a4b" y="270.492274293"/>
     <use style="fill:#4c72b0;stroke:#1a1a1a;stroke-width:0.3;" x="317.099880093" xlink:href="#mb0622a9a4b" y="298.259870227"/>
     <use style="fill:#4c72b0;stroke:#1a1a1a;stroke-width:0.3;" x="278.884033187" xlink:href="#mb0622a9a4b" y="286.148937735"/>
     <use style="fill:#4c72b0;stroke:#1a1a1a;stroke-width:0.3;" x="280.062494167" xlink:href="#mb0622a9a4b" y="297.835924786"/>
     <use style="fill:#4c72b0;stroke:#1a1a1a;stroke-width:0.3;" x="215.132384853" xlink:href="#mb0622a9a4b" y="368.682130206"/>
     <use style="fill:#4c72b0;stroke:#1a1a1a;stroke-width:0.3;" x="247.764750836" xlink:href="#mb0622a9a4b" y="265.749015815"/>
     <use style="fill:#4c72b0;stroke:#1a1a1a;stroke-width:0.3;" x="270.633276988" xlink:href="#mb0622a9a4b" y="260.878064276"/>
     <use style="fill:#4c72b0;stroke:#1a1a1a;stroke-width:0.3;" x="238.184750387" xlink:href="#mb0622a9a4b" y="228.834586473"/>
     <use style="fill:#4c72b0;stroke:#1a1a1a;stroke-width:0.3;" x="330.511072601" xlink:href="#mb0622a9a4b" y="317.332953271"/>
     <use style="fill:#4c72b0;stroke:#1a1a1a;stroke-width:0.3;" x="280.31645103" xlink:href="#mb0622a9a4b" y="289.113968166"/>
     <use style="fill:#4c72b0;stroke:#1a1a1a;stroke-width:0.3;" x="346.563494884" xlink:href="#mb0622a9a4b" y="270.272997142"/>
     <use style="fill:#4c72b0;stroke:#1a1a1a;stroke-width:0.3;" x="276.367362439" xlink:href="#mb0622a9a4b" y="256.387438197"/>
     <use style="fill:#4c72b0;stroke:#1a1a1a;stroke-width:0.3;" x="177.706265033" xlink:href="#mb0622a9a4b" y="365.729217985"/>
     <use style="fill:#4c72b0;stroke:#1a1a1a;stroke-width:0.3;" x="329.790129332" xlink:href="#mb0622a9a4b" y="266.17365804"/>
     <use style="fill:#4c72b0;stroke:#1a1a1a;stroke-width:0.3;" x="257.100991763" xlink:href="#mb0622a9a4b" y="314.198449641"/>
     <use style="fill:#4c72b0;stroke:#1a1a1a;stroke-width:0.3;" x="289.65977229" xlink:href="#mb0622a9a4b" y="320.137116931"/>
     <use style="fill:#4c72b0;stroke:#1a1a1a;stroke-width:0.3;" x="299.577152237" xlink:href="#mb0622a9a4b" y="246.950083005"/>
     <use style="fill:#4c72b0;stroke:#1a1a1a;stroke-width:0.3;" x="298.460394399" xlink:href="#mb0622a9a4b" y="150.704974036"/>
     <use style="fill:#4c72b0;stroke:#1a1a1a;stroke-width:0.3;" x="184.772863313" xlink:href="#mb0622a9a4b" y="214.153823287"/>
     <use style="fill:#4c72b0;stroke:#1a1a1a;stroke-width:0.3;" x="208.783012897" xlink:href="#mb0622a9a4b" y="282.191950938"/>
     <use style="fill:#4c72b0;stroke:#1a1a1a;stroke-width:0.3;" x="361.216164314" xlink:href="#mb0622a9a4b" y="215.035960461"/>
     <use style="fill:#4c72b0;stroke:#1a1a1a;stroke-width:0.3;" x="364.363489127" xlink:href="#mb0622a9a4b" y="197.399260382"/>
     <use style="fill:#4c72b0;stroke:#1a1a1a;stroke-width:0.3;" x="328.847864862" xlink:href="#mb0622a9a4b" y="279.20929519"/>
     <use style="fill:#4c72b0;stroke:#1a1a1a;stroke-width:0.3;" x="271.880470094" xlink:href="#mb0622a9a4b" y="256.729702496"/>
     <use style="fill:#4c72b0;stroke:#1a1a1a;stroke-width:0.3;" x="316.373559846" xlink:href="#mb0622a9a4b" y="221.922521685"/>
     <use style="fill:#4c72b0;stroke:#1a1a1a;stroke-width:0.3;" x="282.838176134" xlink:href="#mb0622a9a4b" y="291.310431123"/>
     <use style="fill:#4c72b0;stroke:#1a1a1a;stroke-width:0.3;" x="196.912236218" xlink:href="#mb0622a9a4b" y="195.760654841"/>
     <use style="fill:#4c72b0;stroke:#1a1a1a;stroke-width:0.3;" x="273.120309346" xlink:href="#mb0622a9a4b" y="244.848684913"/>
     <use style="fill:#4c72b0;stroke:#1a1a1a;stroke-width:0.3;" x="339.975747572" xlink:href="#mb0622a9a4b" y="266.585926817"/>
     <use style="fill:#4c72b0;stroke:#1a1a1a;stroke-width:0.3;" x="309.743214413" xlink:href="#mb0622a9a4b" y="271.771044947"/>
     <use style="fill:#4c72b0;stroke:#1a1a1a;stroke-width:0.3;" x="258.859550875" xlink:href="#mb0622a9a4b" y="268.81747953"/>
     <use style="fill:#4c72b0;stroke:#1a1a1a;stroke-width:0.3;" x="367.525897126" xlink:href="#mb0622a9a4b" y="268.779495913"/>
     <use style="fill:#4c72b0;stroke:#1a1a1a;stroke-width:0.3;" x="229.98588322" xlink:href="#mb0622a9a4b" y="256.685025489"/>
     <use style="fill:#4c72b0;stroke:#1a1a1a;stroke-width:0.3;" x="386.812001225" xlink:href="#mb0622a9a4b" y="266.088227621"/>
     <use style="fill:#4c72b0;stroke:#1a1a1a;stroke-width:0.3;" x="240.119301502" xlink:href="#mb0622a9a4b" y="263.599221395"/>
     <use style="fill:#4c72b0;stroke:#1a1a1a;stroke-width:0.3;" x="280.990716212" xlink:href="#mb0622a9a4b" y="275.255836575"/>
     <use style="fill:#4c72b0;stroke:#1a1a1a;stroke-width:0.3;" x="368.200506853" xlink:href="#mb0622a9a4b" y="348.840819048"/>
     <use style="fill:#4c72b0;stroke:#1a1a1a;stroke-width:0.3;" x="258.724046717" xlink:href="#mb0622a9a4b" y="224.767776894"/>
     <use style="fill:#4c72b0;stroke:#1a1a1a;stroke-width:0.3;" x="104.365659388" xlink:href="#mb0622a9a4b" y="189.989276408"/>
     <use style="fill:#4c72b0;stroke:#1a1a1a;stroke-width:0.3;" x="356.292413939" xlink:href="#mb0622a9a4b" y="306.62419168"/>
     <use style="fill:#4c72b0;stroke:#1a1a1a;stroke-width:0.3;" x="307.279922632" xlink:href="#mb0622a9a4b" y="240.062963201"/>
     <use style="fill:#4c72b0;stroke:#1a1a1a;stroke-width:0.3;" x="275.253863998" xlink:href="#mb0622a9a4b" y="304.393572578"/>
     <use style="fill:#4c72b0;stroke:#1a1a1a;stroke-width:0.3;" x="541.765486991" xlink:href="#mb0622a9a4b" y="297.694639846"/>
     <use style="fill:#4c72b0;stroke:#1a1a1a;stroke-width:0.3;" x="359.79439695" xlink:href="#mb0622a9a4b" y="324.177675161"/>
     <use style="fill:#4c72b0;stroke:#1a1a1a;stroke-width:0.3;" x="242.889048597" xlink:href="#mb0622a9a4b" y="158.250794521"/>
     <use style="fill:#4c72b0;stroke:#1a1a1a;stroke-width:0.3;" x="190.331078099" xlink:href="#mb0622a9a4b" y="337.320367237"/>
     <use style="fill:#4c72b0;stroke:#1a1a1a;stroke-width:0.3;" x="332.056936413" xlink:href="#mb0622a9a4b" y="248.326367385"/>
     <use style="fill:#4c72b0;stroke:#1a1a1a;stroke-width:0.3;" x="302.421940688" xlink:href="#mb0622a9a4b" y="255.887328213"/>
     <use style="fill:#4c72b0;stroke:#1a1a1a;stroke-width:0.3;" x="226.994121348" xlink:href="#mb0622a9a4b" y="321.528534832"/>
     <use style="fill:#4c72b0;stroke:#1a1a1a;stroke-width:0.3;" x="249.029497365" xlink:href="#mb0622a9a4b" y="138.792959379"/>
     <use style="fill:#4c72b0;stroke:#1a1a1a;stroke-width:0.3;" x="225.511570268" xlink:href="#mb0622a9a4b" y="347.907615523"/>
     <use style="fill:#4c72b0;stroke:#1a1a1a;stroke-width:0.3;" x="267.093836791" xlink:href="#mb0622a9a4b" y="242.43822419"/>
     <use style="fill:#4c72b0;stroke:#1a1a1a;stroke-width:0.3;" x="275.603275668" xlink:href="#mb0622a9a4b" y="285.84742955"/>
     <use style="fill:#4c72b0;stroke:#1a1a1a;stroke-width:0.3;" x="223.477032117" xlink:href="#mb0622a9a4b" y="244.539863471"/>
     <use style="fill:#4c72b0;stroke:#1a1a1a;stroke-width:0.3;" x="293.411404538" xlink:href="#mb0622a9a4b" y="247.777060105"/>
     <use style="fill:#4c72b0;stroke:#1a1a1a;stroke-width:0.3;" x="250.7503814" xlink:href="#mb0622a9a4b" y="216.653481116"/>
     <use style="fill:#4c72b0;stroke:#1a1a1a;stroke-width:0.3;" x="242.954708149" xlink:href="#mb0622a9a4b" y="203.747107574"/>
     <use style="fill:#4c72b0;stroke:#1a1a1a;stroke-width:0.3;" x="453.844796764" xlink:href="#mb0622a9a4b" y="360.826147497"/>
     <use style="fill:#4c72b0;stroke:#1a1a1a;stroke-width:0.3;" x="290.130104298" xlink:href="#mb0622a9a4b" y="287.151800978"/>
     <use style="fill:#4c72b0;stroke:#1a1a1a;stroke-width:0.3;" x="257.546185719" xlink:href="#mb0622a9a4b" y="174.256330823"/>
     <use style="fill:#4c72b0;stroke:#1a1a1a;stroke-width:0.3;" x="266.318965226" xlink:href="#mb0622a9a4b" y="316.937610267"/>
     <use style="fill:#4c72b0;stroke:#1a1a1a;stroke-width:0.3;" x="311.78421913" xlink:href="#mb0622a9a4b" y="225.28153608"/>
     <use style="fill:#4c72b0;stroke:#1a1a1a;stroke-width:0.3;" x="346.913962616" xlink:href="#mb0622a9a4b" y="221.191196585"/>
     <use style="fill:#4c72b0;stroke:#1a1a1a;stroke-width:0.3;" x="249.024558401" xlink:href="#mb0622a9a4b" y="318.915957428"/>
     <use style="fill:#4c72b0;stroke:#1a1a1a;stroke-width:0.3;" x="256.946902712" xlink:href="#mb0622a9a4b" y="272.97607404"/>
     <use style="fill:#4c72b0;stroke:#1a1a1a;stroke-width:0.3;" x="348.721782021" xlink:href="#mb0622a9a4b" y="229.623122501"/>
     <use style="fill:#4c72b0;stroke:#1a1a1a;stroke-width:0.3;" x="308.308006991" xlink:href="#mb0622a9a4b" y="311.206492002"/>
     <use style="fill:#4c72b0;stroke:#1a1a1a;stroke-width:0.3;" x="356.022469392" xlink:href="#mb0622a9a4b" y="280.449620426"/>
     <use style="fill:#4c72b0;stroke:#1a1a1a;stroke-width:0.3;" x="118.482594797" xlink:href="#mb0622a9a4b" y="313.012289004"/>
    </g>
   </g>
   <g id="PathCollection_2">
    <defs>
     <path d="M 0 2.236068 
C 0.593012 2.236068 1.161816 2.000462 1.581139 1.581139 
C 2.000462 1.161816 2.236068 0.593012 2.236068 0 
C 2.236068 -0.593012 2.000462 -1.161816 1.581139 -1.581139 
C 1.161816 -2.000462 0.593012 -2.236068 0 -2.236068 
C -0.593012 -2.236068 -1.161816 -2.000462 -1.581139 -1.581139 
C -2.000462 -1.161816 -2.236068 -0.593012 -2.236068 0 
C -2.236068 0.593012 -2.000462 1.161816 -1.581139 1.581139 
C -1.161816 2.000462 -0.593012 2.236068 0 2.236068 
z
" id="mcf699d2026" style="stroke:#1a1a1a;stroke-width:0.3;"/>
    </defs>
    <g clip-path="url(#pbcf3a1a8d3)">
     <use style="fill:#55a868;stroke:#1a1a1a;stroke-width:0.3;" x="315.789533138" xlink:href="#mcf699d2026" y="249.257771826"/>
     <use style="fill:#55a868;stroke:#1a1a1a;stroke-width:0.3;" x="315.248523323" xlink:href="#mcf699d2026" y="246.887526164"/>
     <use style="fill:#55a868;stroke:#1a1a1a;stroke-width:0.3;" x="317.261097096" xlink:href="#mcf699d2026" y="250.198713029"/>
     <use style="fill:#55a868;stroke:#1a1a1a;stroke-width:0.3;" x="314.81521661" xlink:href="#mcf699d2026" y="245.11370145"/>
     <use style="fill:#55a868;stroke:#1a1a1a;stroke-width:0.3;" x="315.277400235" xlink:href="#mcf699d2026" y="248.643248338"/>
     <use style="fill:#55a868;stroke:#1a1a1a;stroke-width:0.3;" x="315.709337128" xlink:href="#mcf699d2026" y="248.45084901"/>
     <use style="fill:#55a868;stroke:#1a1a1a;stroke-width:0.3;" x="315.178802816" xlink:href="#mcf699d2026" y="248.980485383"/>
     <use style="fill:#55a868;stroke:#1a1a1a;stroke-width:0.3;" x="314.972224996" xlink:href="#mcf699d2026" y="247.505882008"/>
     <use style="fill:#55a868;stroke:#1a1a1a;stroke-width:0.3;" x="314.908732683" xlink:href="#mcf699d2026" y="247.692416176"/>
     <use style="fill:#55a868;stroke:#1a1a1a;stroke-width:0.3;" x="314.977800207" xlink:href="#mcf699d2026" y="247.745297692"/>
     <use style="fill:#55a868;stroke:#1a1a1a;stroke-width:0.3;" x="314.715164665" xlink:href="#mcf699d2026" y="247.586685171"/>
     <use style="fill:#55a868;stroke:#1a1a1a;stroke-width:0.3;" x="315.480913289" xlink:href="#mcf699d2026" y="246.679978813"/>
     <use style="fill:#55a868;stroke:#1a1a1a;stroke-width:0.3;" x="315.143042839" xlink:href="#mcf699d2026" y="248.054334057"/>
     <use style="fill:#55a868;stroke:#1a1a1a;stroke-width:0.3;" x="314.111697838" xlink:href="#mcf699d2026" y="245.330616489"/>
     <use style="fill:#55a868;stroke:#1a1a1a;stroke-width:0.3;" x="315.3130971" xlink:href="#mcf699d2026" y="246.360738721"/>
     <use style="fill:#55a868;stroke:#1a1a1a;stroke-width:0.3;" x="316.099914876" xlink:href="#mcf699d2026" y="249.942491775"/>
     <use style="fill:#55a868;stroke:#1a1a1a;stroke-width:0.3;" x="314.561020749" xlink:href="#mcf699d2026" y="248.052540907"/>
     <use style="fill:#55a868;stroke:#1a1a1a;stroke-width:0.3;" x="315.344804815" xlink:href="#mcf699d2026" y="248.573325915"/>
     <use style="fill:#55a868;stroke:#1a1a1a;stroke-width:0.3;" x="313.242425733" xlink:href="#mcf699d2026" y="243.263441624"/>
     <use style="fill:#55a868;stroke:#1a1a1a;stroke-width:0.3;" x="313.611624755" xlink:href="#mcf699d2026" y="245.204391229"/>
     <use style="fill:#55a868;stroke:#1a1a1a;stroke-width:0.3;" x="315.200781867" xlink:href="#mcf699d2026" y="247.345847819"/>
     <use style="fill:#55a868;stroke:#1a1a1a;stroke-width:0.3;" x="315.046763825" xlink:href="#mcf699d2026" y="245.97196793"/>
     <use style="fill:#55a868;stroke:#1a1a1a;stroke-width:0.3;" x="315.103963801" xlink:href="#mcf699d2026" y="247.125023197"/>
     <use style="fill:#55a868;stroke:#1a1a1a;stroke-width:0.3;" x="314.648838233" xlink:href="#mcf699d2026" y="248.017624177"/>
     <use style="fill:#55a868;stroke:#1a1a1a;stroke-width:0.3;" x="314.229974849" xlink:href="#mcf699d2026" y="249.470249536"/>
     <use style="fill:#55a868;stroke:#1a1a1a;stroke-width:0.3;" x="313.024690522" xlink:href="#mcf699d2026" y="248.926345021"/>
     <use style="fill:#55a868;stroke:#1a1a1a;stroke-width:0.3;" x="312.359390977" xlink:href="#mcf699d2026" y="249.637273542"/>
     <use style="fill:#55a868;stroke:#1a1a1a;stroke-width:0.3;" x="318.866361308" xlink:href="#mcf699d2026" y="246.69238901"/>
     <use style="fill:#55a868;stroke:#1a1a1a;stroke-width:0.3;" x="317.077807117" xlink:href="#mcf699d2026" y="246.630659835"/>
     <use style="fill:#55a868;stroke:#1a1a1a;stroke-width:0.3;" x="316.459465369" xlink:href="#mcf699d2026" y="247.894481249"/>
     <use style="fill:#55a868;stroke:#1a1a1a;stroke-width:0.3;" x="315.516606641" xlink:href="#mcf699d2026" y="247.668529157"/>
     <use style="fill:#55a868;stroke:#1a1a1a;stroke-width:0.3;" x="316.584528539" xlink:href="#mcf699d2026" y="250.39022496"/>
     <use style="fill:#55a868;stroke:#1a1a1a;stroke-width:0.3;" x="314.391705262" xlink:href="#mcf699d2026" y="246.444778219"/>
     <use style="fill:#55a868;stroke:#1a1a1a;stroke-width:0.3;" x="314.640761131" xlink:href="#mcf699d2026" y="248.033105579"/>
     <use style="fill:#55a868;stroke:#1a1a1a;stroke-width:0.3;" x="314.718101656" xlink:href="#mcf699d2026" y="246.70631076"/>
     <use style="fill:#55a868;stroke:#1a1a1a;stroke-width:0.3;" x="313.052190893" xlink:href="#mcf699d2026" y="246.259578065"/>
     <use style="fill:#55a868;stroke:#1a1a1a;stroke-width:0.3;" x="313.21744634" xlink:href="#mcf699d2026" y="245.367829513"/>
    </g>
   </g>
   <g id="patch_3">
    <path clip-path="url(#pbcf3a1a8d3)" d="M 292.005313 370.548889 
C 327.761199 370.548889 362.057431 359.377016 387.340661 339.493746 
C 412.623891 319.610477 426.829856 292.63919 426.829856 264.52 
C 426.829856 236.40081 412.623891 209.429523 387.340661 189.546254 
C 362.057431 169.662984 327.761199 158.491111 292.005313 158.491111 
C 256.249426 158.491111 221.953194 169.662984 196.669964 189.546254 
C 171.386734 209.429523 157.180769 236.40081 157.180769 264.52 
C 157.180769 292.63919 171.386734 319.610477 196.669964 339.493746 
C 221.953194 359.377016 256.249426 370.548889 292.005313 370.548889 
L 292.005313 370.548889 
z
" style="fill:none;stroke:#1a1a1a;stroke-linejoin:miter;stroke-width:2.0;"/>
   </g>
   <g id="patch_4">
    <path d="M 46.485313 47.52 
L 660.285313 47.52 
" style="fill:none;"/>
   </g>
   <g id="patch_5">
    <path d="M 660.285313 438.12 
L 660.285313 47.52 
" style="fill:none;"/>
   </g>
   <g id="patch_6">
    <path d="M 46.485313 438.12 
L 660.285313 438.12 
" style="fill:none;"/>
   </g>
   <g id="patch_7">
    <path d="M 46.485313 438.12 
L 46.485313 47.52 
" style="fill:none;"/>
   </g>
   <g id="legend_1">
    <g id="PathCollection_3">
     <path d="M 679.285313 63.410755 
C 679.878325 63.410755 680.447128 63.175149 680.866451 62.755826 
C 681.285774 62.336503 681.52138 61.7677 681.52138 61.174687 
C 681.52138 60.581675 681.285774 60.012872 680.866451 59.593549 
C 680.447128 59.174226 679.878325 58.93862 679.285313 58.93862 
C 678.6923 58.93862 678.123497 59.174226 677.704174 59.593549 
C 677.284851 60.012872 677.049245 60.581675 677.049245 61.174687 
C 677.049245 61.7677 677.284851 62.336503 677.704174 62.755826 
C 678.123497 63.175149 678.6923 63.410755 679.285313 63.410755 
z
" style="fill:#4c72b0;stroke:#1a1a1a;stroke-width:0.3;"/>
     <path d="M 679.285313 63.410755 
C 679.878325 63.410755 680.447128 63.175149 680.866451 62.755826 
C 681.285774 62.336503 681.52138 61.7677 681.52138 61.174687 
C 681.52138 60.581675 681.285774 60.012872 680.866451 59.593549 
C 680.447128 59.174226 679.878325 58.93862 679.285313 58.93862 
C 678.6923 58.93862 678.123497 59.174226 677.704174 59.593549 
C 677.284851 60.012872 677.049245 60.581675 677.049245 61.174687 
C 677.049245 61.7677 677.284851 62.336503 677.704174 62.755826 
C 678.123497 63.175149 678.6923 63.410755 679.285313 63.410755 
z
" style="fill:#4c72b0;stroke:#1a1a1a;stroke-width:0.3;"/>
     <path d="M 679.285313 63.410755 
C 679.878325 63.410755 680.447128 63.175149 680.866451 62.755826 
C 681.285774 62.336503 681.52138 61.7677 681.52138 61.174687 
C 681.52138 60.581675 681.285774 60.012872 680.866451 59.593549 
C 680.447128 59.174226 679.878325 58.93862 679.285313 58.93862 
C 678.6923 58.93862 678.123497 59.174226 677.704174 59.593549 
C 677.284851 60.012872 677.049245 60.581675 677.049245 61.174687 
C 677.049245 61.7677 677.284851 62.336503 677.704174 62.755826 
C 678.123497 63.175149 678.6923 63.410755 679.285313 63.410755 
z
" style="fill:#4c72b0;stroke:#1a1a1a;stroke-width:0.3;"/>
    </g>
    <g id="text_19">
     <!-- Study Sample -->
     <defs>
      <path d="M 25.78125 7.859375 
L 27.046875 0.09375 
Q 23.34375 -0.6875 20.40625 -0.6875 
Q 15.625 -0.6875 12.984375 0.828125 
Q 10.359375 2.34375 9.28125 4.8125 
Q 8.203125 7.28125 8.203125 15.1875 
L 8.203125 45.015625 
L 1.765625 45.015625 
L 1.765625 51.859375 
L 8.203125 51.859375 
L 8.203125 64.703125 
L 16.9375 69.96875 
L 16.9375 51.859375 
L 25.78125 51.859375 
L 25.78125 45.015625 
L 16.9375 45.015625 
L 16.9375 14.703125 
Q 16.9375 10.9375 17.40625 9.859375 
Q 17.875 8.796875 18.921875 8.15625 
Q 19.96875 7.515625 21.921875 7.515625 
Q 23.390625 7.515625 25.78125 7.859375 
" id="ArialMT-74"/>
      <path d="M 40.4375 6.390625 
Q 35.546875 2.25 31.03125 0.53125 
Q 26.515625 -1.171875 21.34375 -1.171875 
Q 12.796875 -1.171875 8.203125 3 
Q 3.609375 7.171875 3.609375 13.671875 
Q 3.609375 17.484375 5.34375 20.625 
Q 7.078125 23.78125 9.890625 25.6875 
Q 12.703125 27.59375 16.21875 28.5625 
Q 18.796875 29.25 24.03125 29.890625 
Q 34.671875 31.15625 39.703125 32.90625 
Q 39.75 34.71875 39.75 35.203125 
Q 39.75 40.578125 37.25 42.78125 
Q 33.890625 45.75 27.25 45.75 
Q 21.046875 45.75 18.09375 43.578125 
Q 15.140625 41.40625 13.71875 35.890625 
L 5.125 37.0625 
Q 6.296875 42.578125 8.984375 45.96875 
Q 11.671875 49.359375 16.75 51.1875 
Q 21.828125 53.03125 28.515625 53.03125 
Q 35.15625 53.03125 39.296875 51.46875 
Q 43.453125 49.90625 45.40625 47.53125 
Q 47.359375 45.171875 48.140625 41.546875 
Q 48.578125 39.3125 48.578125 33.453125 
L 48.578125 21.734375 
Q 48.578125 9.46875 49.140625 6.21875 
Q 49.703125 2.984375 51.375 0 
L 42.1875 0 
Q 40.828125 2.734375 40.4375 6.390625 
M 39.703125 26.03125 
Q 34.90625 24.078125 25.34375 22.703125 
Q 19.921875 21.921875 17.671875 20.9375 
Q 15.4375 19.96875 14.203125 18.09375 
Q 12.984375 16.21875 12.984375 13.921875 
Q 12.984375 10.40625 15.640625 8.0625 
Q 18.3125 5.71875 23.4375 5.71875 
Q 28.515625 5.71875 32.46875 7.9375 
Q 36.421875 10.15625 38.28125 14.015625 
Q 39.703125 17 39.703125 22.796875 
z
" id="ArialMT-61"/>
      <path d="M 4.5 23 
L 13.421875 23.78125 
Q 14.0625 18.40625 16.375 14.96875 
Q 18.703125 11.53125 23.578125 9.40625 
Q 28.46875 7.28125 34.578125 7.28125 
Q 39.984375 7.28125 44.140625 8.890625 
Q 48.296875 10.5 50.3125 13.296875 
Q 52.34375 16.109375 52.34375 19.4375 
Q 52.34375 22.796875 50.390625 25.3125 
Q 48.4375 27.828125 43.953125 29.546875 
Q 41.0625 30.671875 31.203125 33.03125 
Q 21.34375 35.40625 17.390625 37.5 
Q 12.25 40.1875 9.734375 44.15625 
Q 7.234375 48.140625 7.234375 53.078125 
Q 7.234375 58.5 10.296875 63.203125 
Q 13.375 67.921875 19.28125 70.359375 
Q 25.203125 72.796875 32.421875 72.796875 
Q 40.375 72.796875 46.453125 70.234375 
Q 52.546875 67.671875 55.8125 62.6875 
Q 59.078125 57.71875 59.328125 51.421875 
L 50.25 50.734375 
Q 49.515625 57.515625 45.28125 60.984375 
Q 41.0625 64.453125 32.8125 64.453125 
Q 24.21875 64.453125 20.28125 61.296875 
Q 16.359375 58.15625 16.359375 53.71875 
Q 16.359375 49.859375 19.140625 47.359375 
Q 21.875 44.875 33.421875 42.265625 
Q 44.96875 39.65625 49.265625 37.703125 
Q 55.515625 34.8125 58.484375 30.390625 
Q 61.46875 25.984375 61.46875 20.21875 
Q 61.46875 14.5 58.203125 9.4375 
Q 54.9375 4.390625 48.796875 1.578125 
Q 42.671875 -1.21875 35.015625 -1.21875 
Q 25.296875 -1.21875 18.71875 1.609375 
Q 12.15625 4.4375 8.421875 10.125 
Q 4.6875 15.828125 4.5 23 
" id="ArialMT-53"/>
      <path d="M 6.390625 0 
L 6.390625 71.578125 
L 15.1875 71.578125 
L 15.1875 0 
z
" id="ArialMT-6c"/>
      <path d="M 42.09375 16.703125 
L 51.171875 15.578125 
Q 49.03125 7.625 43.21875 3.21875 
Q 37.40625 -1.171875 28.375 -1.171875 
Q 17 -1.171875 10.328125 5.828125 
Q 3.65625 12.84375 3.65625 25.484375 
Q 3.65625 38.578125 10.390625 45.796875 
Q 17.140625 53.03125 27.875 53.03125 
Q 38.28125 53.03125 44.875 45.953125 
Q 51.46875 38.875 51.46875 26.03125 
Q 51.46875 25.25 51.421875 23.6875 
L 12.75 23.6875 
Q 13.234375 15.140625 17.578125 10.59375 
Q 21.921875 6.0625 28.421875 6.0625 
Q 33.25 6.0625 36.671875 8.59375 
Q 40.09375 11.140625 42.09375 16.703125 
M 13.234375 30.90625 
L 42.1875 30.90625 
Q 41.609375 37.453125 38.875 40.71875 
Q 34.671875 45.796875 27.984375 45.796875 
Q 21.921875 45.796875 17.796875 41.75 
Q 13.671875 37.703125 13.234375 30.90625 
" id="ArialMT-65"/>
      <path d="M 40.578125 0 
L 40.578125 7.625 
Q 34.515625 -1.171875 24.125 -1.171875 
Q 19.53125 -1.171875 15.546875 0.578125 
Q 11.578125 2.34375 9.640625 5 
Q 7.71875 7.671875 6.9375 11.53125 
Q 6.390625 14.109375 6.390625 19.734375 
L 6.390625 51.859375 
L 15.1875 51.859375 
L 15.1875 23.09375 
Q 15.1875 16.21875 15.71875 13.8125 
Q 16.546875 10.359375 19.234375 8.375 
Q 21.921875 6.390625 25.875 6.390625 
Q 29.828125 6.390625 33.296875 8.421875 
Q 36.765625 10.453125 38.203125 13.9375 
Q 39.65625 17.4375 39.65625 24.078125 
L 39.65625 51.859375 
L 48.4375 51.859375 
L 48.4375 0 
z
" id="ArialMT-75"/>
      <path d="M 6.59375 -19.875 
L 6.59375 51.859375 
L 14.59375 51.859375 
L 14.59375 45.125 
Q 17.4375 49.078125 21 51.046875 
Q 24.5625 53.03125 29.640625 53.03125 
Q 36.28125 53.03125 41.359375 49.609375 
Q 46.4375 46.1875 49.015625 39.953125 
Q 51.609375 33.734375 51.609375 26.3125 
Q 51.609375 18.359375 48.75 11.984375 
Q 45.90625 5.609375 40.453125 2.21875 
Q 35.015625 -1.171875 29 -1.171875 
Q 24.609375 -1.171875 21.109375 0.6875 
Q 17.625 2.546875 15.375 5.375 
L 15.375 -19.875 
z
M 14.546875 25.640625 
Q 14.546875 15.625 18.59375 10.84375 
Q 22.65625 6.0625 28.421875 6.0625 
Q 34.28125 6.0625 38.453125 11.015625 
Q 42.625 15.96875 42.625 26.375 
Q 42.625 36.28125 38.546875 41.203125 
Q 34.46875 46.140625 28.8125 46.140625 
Q 23.1875 46.140625 18.859375 40.890625 
Q 14.546875 35.640625 14.546875 25.640625 
" id="ArialMT-70"/>
      <path d="M 6.59375 0 
L 6.59375 51.859375 
L 14.453125 51.859375 
L 14.453125 44.578125 
Q 16.890625 48.390625 20.9375 50.703125 
Q 25 53.03125 30.171875 53.03125 
Q 35.9375 53.03125 39.625 50.640625 
Q 43.3125 48.25 44.828125 43.953125 
Q 50.984375 53.03125 60.84375 53.03125 
Q 68.5625 53.03125 72.703125 48.75 
Q 76.859375 44.484375 76.859375 35.59375 
L 76.859375 0 
L 68.109375 0 
L 68.109375 32.671875 
Q 68.109375 37.9375 67.25 40.25 
Q 66.40625 42.578125 64.15625 43.984375 
Q 61.921875 45.40625 58.890625 45.40625 
Q 53.421875 45.40625 49.796875 41.765625 
Q 46.1875 38.140625 46.1875 30.125 
L 46.1875 0 
L 37.40625 0 
L 37.40625 33.6875 
Q 37.40625 39.546875 35.25 42.46875 
Q 33.109375 45.40625 28.21875 45.40625 
Q 24.515625 45.40625 21.359375 43.453125 
Q 18.21875 41.5 16.796875 37.734375 
Q 15.375 33.984375 15.375 26.90625 
L 15.375 0 
z
" id="ArialMT-6d"/>
      <path d="M 6.203125 -19.96875 
L 5.21875 -11.71875 
Q 8.109375 -12.5 10.25 -12.5 
Q 13.1875 -12.5 14.9375 -11.515625 
Q 16.703125 -10.546875 17.828125 -8.796875 
Q 18.65625 -7.46875 20.515625 -2.25 
Q 20.75 -1.515625 21.296875 -0.09375 
L 1.609375 51.859375 
L 11.078125 51.859375 
L 21.875 21.828125 
Q 23.96875 16.109375 25.640625 9.8125 
Q 27.15625 15.875 29.25 21.625 
L 40.328125 51.859375 
L 49.125 51.859375 
L 29.390625 -0.875 
Q 26.21875 -9.421875 24.46875 -12.640625 
Q 22.125 -17 19.09375 -19.015625 
Q 16.0625 -21.046875 11.859375 -21.046875 
Q 9.328125 -21.046875 6.203125 -19.96875 
" id="ArialMT-79"/>
      <path d="M 40.234375 0 
L 40.234375 6.546875 
Q 35.296875 -1.171875 25.734375 -1.171875 
Q 19.53125 -1.171875 14.328125 2.25 
Q 9.125 5.671875 6.265625 11.796875 
Q 3.421875 17.921875 3.421875 25.875 
Q 3.421875 33.640625 6 39.96875 
Q 8.59375 46.296875 13.765625 49.65625 
Q 18.953125 53.03125 25.34375 53.03125 
Q 30.03125 53.03125 33.6875 51.046875 
Q 37.359375 49.078125 39.65625 45.90625 
L 39.65625 71.578125 
L 48.390625 71.578125 
L 48.390625 0 
z
M 12.453125 25.875 
Q 12.453125 15.921875 16.640625 10.984375 
Q 20.84375 6.0625 26.5625 6.0625 
Q 32.328125 6.0625 36.34375 10.765625 
Q 40.375 15.484375 40.375 25.140625 
Q 40.375 35.796875 36.265625 40.765625 
Q 32.171875 45.75 26.171875 45.75 
Q 20.3125 45.75 16.375 40.96875 
Q 12.453125 36.1875 12.453125 25.875 
" id="ArialMT-64"/>
     </defs>
     <g style="fill:#262626;" transform="translate(697.2853125 63.7996875)scale(0.1 -0.1)">
      <use xlink:href="#ArialMT-53"/>
      <use x="66.69921875" xlink:href="#ArialMT-74"/>
      <use x="94.482421875" xlink:href="#ArialMT-75"/>
      <use x="150.09765625" xlink:href="#ArialMT-64"/>
      <use x="205.712890625" xlink:href="#ArialMT-79"/>
      <use x="255.712890625" xlink:href="#ArialMT-20"/>
      <use x="283.49609375" xlink:href="#ArialMT-53"/>
      <use x="350.1953125" xlink:href="#ArialMT-61"/>
      <use x="405.810546875" xlink:href="#ArialMT-6d"/>
      <use x="489.111328125" xlink:href="#ArialMT-70"/>
      <use x="544.7265625" xlink:href="#ArialMT-6c"/>
      <use x="566.943359375" xlink:href="#ArialMT-65"/>
     </g>
    </g>
    <g id="PathCollection_4">
     <path d="M 679.285313 77.79513 
C 679.878325 77.79513 680.447128 77.559524 680.866451 77.140201 
C 681.285774 76.720878 681.52138 76.152075 681.52138 75.559062 
C 681.52138 74.96605 681.285774 74.397247 680.866451 73.977924 
C 680.447128 73.558601 679.878325 73.322995 679.285313 73.322995 
C 678.6923 73.322995 678.123497 73.558601 677.704174 73.977924 
C 677.284851 74.397247 677.049245 74.96605 677.049245 75.559062 
C 677.049245 76.152075 677.284851 76.720878 677.704174 77.140201 
C 678.123497 77.559524 678.6923 77.79513 679.285313 77.79513 
z
" style="fill:#55a868;stroke:#1a1a1a;stroke-width:0.3;"/>
     <path d="M 679.285313 77.79513 
C 679.878325 77.79513 680.447128 77.559524 680.866451 77.140201 
C 681.285774 76.720878 681.52138 76.152075 681.52138 75.559062 
C 681.52138 74.96605 681.285774 74.397247 680.866451 73.977924 
C 680.447128 73.558601 679.878325 73.322995 679.285313 73.322995 
C 678.6923 73.322995 678.123497 73.558601 677.704174 73.977924 
C 677.284851 74.397247 677.049245 74.96605 677.049245 75.559062 
C 677.049245 76.152075 677.284851 76.720878 677.704174 77.140201 
C 678.123497 77.559524 678.6923 77.79513 679.285313 77.79513 
z
" style="fill:#55a868;stroke:#1a1a1a;stroke-width:0.3;"/>
     <path d="M 679.285313 77.79513 
C 679.878325 77.79513 680.447128 77.559524 680.866451 77.140201 
C 681.285774 76.720878 681.52138 76.152075 681.52138 75.559062 
C 681.52138 74.96605 681.285774 74.397247 680.866451 73.977924 
C 680.447128 73.558601 679.878325 73.322995 679.285313 73.322995 
C 678.6923 73.322995 678.123497 73.558601 677.704174 73.977924 
C 677.284851 74.397247 677.049245 74.96605 677.049245 75.559062 
C 677.049245 76.152075 677.284851 76.720878 677.704174 77.140201 
C 678.123497 77.559524 678.6923 77.79513 679.285313 77.79513 
z
" style="fill:#55a868;stroke:#1a1a1a;stroke-width:0.3;"/>
    </g>
    <g id="text_20">
     <!-- Study Pool -->
     <defs>
      <path d="M 3.328125 25.921875 
Q 3.328125 40.328125 11.328125 47.265625 
Q 18.015625 53.03125 27.640625 53.03125 
Q 38.328125 53.03125 45.109375 46.015625 
Q 51.90625 39.015625 51.90625 26.65625 
Q 51.90625 16.65625 48.90625 10.90625 
Q 45.90625 5.171875 40.15625 2 
Q 34.421875 -1.171875 27.640625 -1.171875 
Q 16.75 -1.171875 10.03125 5.8125 
Q 3.328125 12.796875 3.328125 25.921875 
M 12.359375 25.921875 
Q 12.359375 15.96875 16.703125 11.015625 
Q 21.046875 6.0625 27.640625 6.0625 
Q 34.1875 6.0625 38.53125 11.03125 
Q 42.875 16.015625 42.875 26.21875 
Q 42.875 35.84375 38.5 40.796875 
Q 34.125 45.75 27.640625 45.75 
Q 21.046875 45.75 16.703125 40.8125 
Q 12.359375 35.890625 12.359375 25.921875 
" id="ArialMT-6f"/>
     </defs>
     <g style="fill:#262626;" transform="translate(697.2853125 78.1840625)scale(0.1 -0.1)">
      <use xlink:href="#ArialMT-53"/>
      <use x="66.69921875" xlink:href="#ArialMT-74"/>
      <use x="94.482421875" xlink:href="#ArialMT-75"/>
      <use x="150.09765625" xlink:href="#ArialMT-64"/>
      <use x="205.712890625" xlink:href="#ArialMT-79"/>
      <use x="255.712890625" xlink:href="#ArialMT-20"/>
      <use x="283.49609375" xlink:href="#ArialMT-50"/>
      <use x="350.1953125" xlink:href="#ArialMT-6f"/>
      <use x="405.810546875" xlink:href="#ArialMT-6f"/>
      <use x="461.42578125" xlink:href="#ArialMT-6c"/>
     </g>
    </g>
   </g>
  </g>
  <g id="text_21">
   <!-- Sample Type PC3 vs PC4 -->
   <defs>
    <path d="M 25.921875 0 
L 25.921875 63.140625 
L 2.34375 63.140625 
L 2.34375 71.578125 
L 59.078125 71.578125 
L 59.078125 63.140625 
L 35.40625 63.140625 
L 35.40625 0 
z
" id="ArialMT-54"/>
    <path d="M 3.078125 15.484375 
L 11.765625 16.84375 
Q 12.5 11.625 15.84375 8.84375 
Q 19.1875 6.0625 25.203125 6.0625 
Q 31.25 6.0625 34.171875 8.515625 
Q 37.109375 10.984375 37.109375 14.3125 
Q 37.109375 17.28125 34.515625 19 
Q 32.71875 20.171875 25.53125 21.96875 
Q 15.875 24.421875 12.140625 26.203125 
Q 8.40625 27.984375 6.46875 31.125 
Q 4.546875 34.28125 4.546875 38.09375 
Q 4.546875 41.546875 6.125 44.5 
Q 7.71875 47.46875 10.453125 49.421875 
Q 12.5 50.921875 16.03125 51.96875 
Q 19.578125 53.03125 23.640625 53.03125 
Q 29.734375 53.03125 34.34375 51.265625 
Q 38.96875 49.515625 41.15625 46.5 
Q 43.359375 43.5 44.1875 38.484375 
L 35.59375 37.3125 
Q 35.015625 41.3125 32.203125 43.546875 
Q 29.390625 45.796875 24.265625 45.796875 
Q 18.21875 45.796875 15.625 43.796875 
Q 13.03125 41.796875 13.03125 39.109375 
Q 13.03125 37.40625 14.109375 36.03125 
Q 15.1875 34.625 17.484375 33.6875 
Q 18.796875 33.203125 25.25 31.453125 
Q 34.578125 28.953125 38.25 27.359375 
Q 41.9375 25.78125 44.03125 22.75 
Q 46.140625 19.734375 46.140625 15.234375 
Q 46.140625 10.84375 43.578125 6.953125 
Q 41.015625 3.078125 36.171875 0.953125 
Q 31.34375 -1.171875 25.25 -1.171875 
Q 15.140625 -1.171875 9.84375 3.03125 
Q 4.546875 7.234375 3.078125 15.484375 
" id="ArialMT-73"/>
    <path d="M 21 0 
L 1.265625 51.859375 
L 10.546875 51.859375 
L 21.6875 20.796875 
Q 23.484375 15.765625 25 10.359375 
Q 26.171875 14.453125 28.265625 20.21875 
L 39.796875 51.859375 
L 48.828125 51.859375 
L 29.203125 0 
z
" id="ArialMT-76"/>
   </defs>
   <g style="fill:#262626;" transform="translate(285.4134375 14.4796875)scale(0.1 -0.1)">
    <use xlink:href="#ArialMT-53"/>
    <use x="66.69921875" xlink:href="#ArialMT-61"/>
    <use x="122.314453125" xlink:href="#ArialMT-6d"/>
    <use x="205.615234375" xlink:href="#ArialMT-70"/>
    <use x="261.23046875" xlink:href="#ArialMT-6c"/>
    <use x="283.447265625" xlink:href="#ArialMT-65"/>
    <use x="339.0625" xlink:href="#ArialMT-20"/>
    <use x="366.830078125" xlink:href="#ArialMT-54"/>
    <use x="427.8359375" xlink:href="#ArialMT-79"/>
    <use x="477.8359375" xlink:href="#ArialMT-70"/>
    <use x="533.451171875" xlink:href="#ArialMT-65"/>
    <use x="589.06640625" xlink:href="#ArialMT-20"/>
    <use x="616.849609375" xlink:href="#ArialMT-50"/>
    <use x="683.548828125" xlink:href="#ArialMT-43"/>
    <use x="755.765625" xlink:href="#ArialMT-33"/>
    <use x="811.380859375" xlink:href="#ArialMT-20"/>
    <use x="839.1640625" xlink:href="#ArialMT-76"/>
    <use x="889.1640625" xlink:href="#ArialMT-73"/>
    <use x="939.1640625" xlink:href="#ArialMT-20"/>
    <use x="966.947265625" xlink:href="#ArialMT-50"/>
    <use x="1033.646484375" xlink:href="#ArialMT-43"/>
    <use x="1105.86328125" xlink:href="#ArialMT-34"/>
   </g>
  </g>
 </g>
 <defs>
  <clipPath id="pbcf3a1a8d3">
   <rect height="390.6" width="613.8" x="46.4853125" y="47.52"/>
  </clipPath>
 </defs>
</svg>
