<?xml version="1.0" encoding="utf-8" standalone="no"?>
<!DOCTYPE svg PUBLIC "-//W3C//DTD SVG 1.1//EN"
  "http://www.w3.org/Graphics/SVG/1.1/DTD/svg11.dtd">
<!-- Created with matplotlib (http://matplotlib.org/) -->
<svg height="446pt" version="1.1" viewBox="0 0 678 446" width="678pt" xmlns="http://www.w3.org/2000/svg" xmlns:xlink="http://www.w3.org/1999/xlink">
 <defs>
  <style type="text/css">
*{stroke-linecap:butt;stroke-linejoin:round;stroke-miterlimit:100000;}
  </style>
 </defs>
 <g id="figure_1">
  <g id="patch_1">
   <path d="M 0 446.362969 
L 678.341875 446.362969 
L 678.341875 0 
L 0 0 
z
" style="fill:#ffffff;"/>
  </g>
  <g id="axes_1">
   <g id="patch_2">
    <path d="M 49.000469 407.957812 
L 662.800469 407.957812 
L 662.800469 17.357812 
L 49.000469 17.357812 
z
" style="fill:#ffffff;"/>
   </g>
   <g id="matplotlib.axis_1">
    <g id="xtick_1">
     <g id="line2d_1">
      <path clip-path="url(#pfb3fb04f75)" d="M 49.000469 407.957812 
L 49.000469 17.357812 
" style="fill:none;stroke:#cccccc;stroke-linecap:round;"/>
     </g>
     <g id="line2d_2">
      <defs>
       <path d="M 0 0 
L 0 0 
" id="ma8fe7864f8" style="stroke:#262626;"/>
      </defs>
      <g>
       <use style="fill:#262626;stroke:#262626;" x="49.00046875" xlink:href="#ma8fe7864f8" y="407.9578125"/>
      </g>
     </g>
     <g id="line2d_3">
      <g>
       <use style="fill:#262626;stroke:#262626;" x="49.00046875" xlink:href="#ma8fe7864f8" y="17.3578125"/>
      </g>
     </g>
     <g id="text_1">
      <!-- −20 -->
      <defs>
       <path d="M 50.34375 8.453125 
L 50.34375 0 
L 3.03125 0 
Q 2.9375 3.171875 4.046875 6.109375 
Q 5.859375 10.9375 9.828125 15.625 
Q 13.8125 20.3125 21.34375 26.46875 
Q 33.015625 36.03125 37.109375 41.625 
Q 41.21875 47.21875 41.21875 52.203125 
Q 41.21875 57.421875 37.46875 61 
Q 33.734375 64.59375 27.734375 64.59375 
Q 21.390625 64.59375 17.578125 60.78125 
Q 13.765625 56.984375 13.71875 50.25 
L 4.6875 51.171875 
Q 5.609375 61.28125 11.65625 66.578125 
Q 17.71875 71.875 27.9375 71.875 
Q 38.234375 71.875 44.234375 66.15625 
Q 50.25 60.453125 50.25 52 
Q 50.25 47.703125 48.484375 43.546875 
Q 46.734375 39.40625 42.65625 34.8125 
Q 38.578125 30.21875 29.109375 22.21875 
Q 21.1875 15.578125 18.9375 13.203125 
Q 16.703125 10.84375 15.234375 8.453125 
z
" id="ArialMT-32"/>
       <path d="M 52.828125 31.203125 
L 5.5625 31.203125 
L 5.5625 39.40625 
L 52.828125 39.40625 
z
" id="ArialMT-2212"/>
       <path d="M 4.15625 35.296875 
Q 4.15625 48 6.765625 55.734375 
Q 9.375 63.484375 14.515625 67.671875 
Q 19.671875 71.875 27.484375 71.875 
Q 33.25 71.875 37.59375 69.546875 
Q 41.9375 67.234375 44.765625 62.859375 
Q 47.609375 58.5 49.21875 52.21875 
Q 50.828125 45.953125 50.828125 35.296875 
Q 50.828125 22.703125 48.234375 14.96875 
Q 45.65625 7.234375 40.5 3 
Q 35.359375 -1.21875 27.484375 -1.21875 
Q 17.140625 -1.21875 11.234375 6.203125 
Q 4.15625 15.140625 4.15625 35.296875 
M 13.1875 35.296875 
Q 13.1875 17.671875 17.3125 11.828125 
Q 21.4375 6 27.484375 6 
Q 33.546875 6 37.671875 11.859375 
Q 41.796875 17.71875 41.796875 35.296875 
Q 41.796875 52.984375 37.671875 58.78125 
Q 33.546875 64.59375 27.390625 64.59375 
Q 21.34375 64.59375 17.71875 59.46875 
Q 13.1875 52.9375 13.1875 35.296875 
" id="ArialMT-30"/>
      </defs>
      <g style="fill:#262626;" transform="translate(40.51921875 422.115625)scale(0.1 -0.1)">
       <use xlink:href="#ArialMT-2212"/>
       <use x="58.3984375" xlink:href="#ArialMT-32"/>
       <use x="114.013671875" xlink:href="#ArialMT-30"/>
      </g>
     </g>
    </g>
    <g id="xtick_2">
     <g id="line2d_4">
      <path clip-path="url(#pfb3fb04f75)" d="M 151.300469 407.957812 
L 151.300469 17.357812 
" style="fill:none;stroke:#cccccc;stroke-linecap:round;"/>
     </g>
     <g id="line2d_5">
      <g>
       <use style="fill:#262626;stroke:#262626;" x="151.30046875" xlink:href="#ma8fe7864f8" y="407.9578125"/>
      </g>
     </g>
     <g id="line2d_6">
      <g>
       <use style="fill:#262626;stroke:#262626;" x="151.30046875" xlink:href="#ma8fe7864f8" y="17.3578125"/>
      </g>
     </g>
     <g id="text_2">
      <!-- 0 -->
      <g style="fill:#262626;" transform="translate(148.52 422.115625)scale(0.1 -0.1)">
       <use xlink:href="#ArialMT-30"/>
      </g>
     </g>
    </g>
    <g id="xtick_3">
     <g id="line2d_7">
      <path clip-path="url(#pfb3fb04f75)" d="M 253.600469 407.957812 
L 253.600469 17.357812 
" style="fill:none;stroke:#cccccc;stroke-linecap:round;"/>
     </g>
     <g id="line2d_8">
      <g>
       <use style="fill:#262626;stroke:#262626;" x="253.60046875" xlink:href="#ma8fe7864f8" y="407.9578125"/>
      </g>
     </g>
     <g id="line2d_9">
      <g>
       <use style="fill:#262626;stroke:#262626;" x="253.60046875" xlink:href="#ma8fe7864f8" y="17.3578125"/>
      </g>
     </g>
     <g id="text_3">
      <!-- 20 -->
      <g style="fill:#262626;" transform="translate(248.03953125 422.115625)scale(0.1 -0.1)">
       <use xlink:href="#ArialMT-32"/>
       <use x="55.615234375" xlink:href="#ArialMT-30"/>
      </g>
     </g>
    </g>
    <g id="xtick_4">
     <g id="line2d_10">
      <path clip-path="url(#pfb3fb04f75)" d="M 355.900469 407.957812 
L 355.900469 17.357812 
" style="fill:none;stroke:#cccccc;stroke-linecap:round;"/>
     </g>
     <g id="line2d_11">
      <g>
       <use style="fill:#262626;stroke:#262626;" x="355.90046875" xlink:href="#ma8fe7864f8" y="407.9578125"/>
      </g>
     </g>
     <g id="line2d_12">
      <g>
       <use style="fill:#262626;stroke:#262626;" x="355.90046875" xlink:href="#ma8fe7864f8" y="17.3578125"/>
      </g>
     </g>
     <g id="text_4">
      <!-- 40 -->
      <defs>
       <path d="M 32.328125 0 
L 32.328125 17.140625 
L 1.265625 17.140625 
L 1.265625 25.203125 
L 33.9375 71.578125 
L 41.109375 71.578125 
L 41.109375 25.203125 
L 50.78125 25.203125 
L 50.78125 17.140625 
L 41.109375 17.140625 
L 41.109375 0 
z
M 32.328125 25.203125 
L 32.328125 57.46875 
L 9.90625 25.203125 
z
" id="ArialMT-34"/>
      </defs>
      <g style="fill:#262626;" transform="translate(350.33953125 422.115625)scale(0.1 -0.1)">
       <use xlink:href="#ArialMT-34"/>
       <use x="55.615234375" xlink:href="#ArialMT-30"/>
      </g>
     </g>
    </g>
    <g id="xtick_5">
     <g id="line2d_13">
      <path clip-path="url(#pfb3fb04f75)" d="M 458.200469 407.957812 
L 458.200469 17.357812 
" style="fill:none;stroke:#cccccc;stroke-linecap:round;"/>
     </g>
     <g id="line2d_14">
      <g>
       <use style="fill:#262626;stroke:#262626;" x="458.20046875" xlink:href="#ma8fe7864f8" y="407.9578125"/>
      </g>
     </g>
     <g id="line2d_15">
      <g>
       <use style="fill:#262626;stroke:#262626;" x="458.20046875" xlink:href="#ma8fe7864f8" y="17.3578125"/>
      </g>
     </g>
     <g id="text_5">
      <!-- 60 -->
      <defs>
       <path d="M 49.75 54.046875 
L 41.015625 53.375 
Q 39.84375 58.546875 37.703125 60.890625 
Q 34.125 64.65625 28.90625 64.65625 
Q 24.703125 64.65625 21.53125 62.3125 
Q 17.390625 59.28125 14.984375 53.46875 
Q 12.59375 47.65625 12.5 36.921875 
Q 15.671875 41.75 20.265625 44.09375 
Q 24.859375 46.4375 29.890625 46.4375 
Q 38.671875 46.4375 44.84375 39.96875 
Q 51.03125 33.5 51.03125 23.25 
Q 51.03125 16.5 48.125 10.71875 
Q 45.21875 4.9375 40.140625 1.859375 
Q 35.0625 -1.21875 28.609375 -1.21875 
Q 17.625 -1.21875 10.6875 6.859375 
Q 3.765625 14.9375 3.765625 33.5 
Q 3.765625 54.25 11.421875 63.671875 
Q 18.109375 71.875 29.4375 71.875 
Q 37.890625 71.875 43.28125 67.140625 
Q 48.6875 62.40625 49.75 54.046875 
M 13.875 23.1875 
Q 13.875 18.65625 15.796875 14.5 
Q 17.71875 10.359375 21.1875 8.171875 
Q 24.65625 6 28.46875 6 
Q 34.03125 6 38.03125 10.484375 
Q 42.046875 14.984375 42.046875 22.703125 
Q 42.046875 30.125 38.078125 34.390625 
Q 34.125 38.671875 28.125 38.671875 
Q 22.171875 38.671875 18.015625 34.390625 
Q 13.875 30.125 13.875 23.1875 
" id="ArialMT-36"/>
      </defs>
      <g style="fill:#262626;" transform="translate(452.63953125 422.115625)scale(0.1 -0.1)">
       <use xlink:href="#ArialMT-36"/>
       <use x="55.615234375" xlink:href="#ArialMT-30"/>
      </g>
     </g>
    </g>
    <g id="xtick_6">
     <g id="line2d_16">
      <path clip-path="url(#pfb3fb04f75)" d="M 560.500469 407.957812 
L 560.500469 17.357812 
" style="fill:none;stroke:#cccccc;stroke-linecap:round;"/>
     </g>
     <g id="line2d_17">
      <g>
       <use style="fill:#262626;stroke:#262626;" x="560.50046875" xlink:href="#ma8fe7864f8" y="407.9578125"/>
      </g>
     </g>
     <g id="line2d_18">
      <g>
       <use style="fill:#262626;stroke:#262626;" x="560.50046875" xlink:href="#ma8fe7864f8" y="17.3578125"/>
      </g>
     </g>
     <g id="text_6">
      <!-- 80 -->
      <defs>
       <path d="M 17.671875 38.8125 
Q 12.203125 40.828125 9.5625 44.53125 
Q 6.9375 48.25 6.9375 53.421875 
Q 6.9375 61.234375 12.546875 66.546875 
Q 18.171875 71.875 27.484375 71.875 
Q 36.859375 71.875 42.578125 66.421875 
Q 48.296875 60.984375 48.296875 53.171875 
Q 48.296875 48.1875 45.671875 44.5 
Q 43.0625 40.828125 37.75 38.8125 
Q 44.34375 36.671875 47.78125 31.875 
Q 51.21875 27.09375 51.21875 20.453125 
Q 51.21875 11.28125 44.71875 5.03125 
Q 38.234375 -1.21875 27.640625 -1.21875 
Q 17.046875 -1.21875 10.546875 5.046875 
Q 4.046875 11.328125 4.046875 20.703125 
Q 4.046875 27.6875 7.59375 32.390625 
Q 11.140625 37.109375 17.671875 38.8125 
M 15.921875 53.71875 
Q 15.921875 48.640625 19.1875 45.40625 
Q 22.46875 42.1875 27.6875 42.1875 
Q 32.765625 42.1875 36.015625 45.375 
Q 39.265625 48.578125 39.265625 53.21875 
Q 39.265625 58.0625 35.90625 61.359375 
Q 32.5625 64.65625 27.59375 64.65625 
Q 22.5625 64.65625 19.234375 61.421875 
Q 15.921875 58.203125 15.921875 53.71875 
M 13.09375 20.65625 
Q 13.09375 16.890625 14.875 13.375 
Q 16.65625 9.859375 20.171875 7.921875 
Q 23.6875 6 27.734375 6 
Q 34.03125 6 38.125 10.046875 
Q 42.234375 14.109375 42.234375 20.359375 
Q 42.234375 26.703125 38.015625 30.859375 
Q 33.796875 35.015625 27.4375 35.015625 
Q 21.234375 35.015625 17.15625 30.90625 
Q 13.09375 26.8125 13.09375 20.65625 
" id="ArialMT-38"/>
      </defs>
      <g style="fill:#262626;" transform="translate(554.93953125 422.115625)scale(0.1 -0.1)">
       <use xlink:href="#ArialMT-38"/>
       <use x="55.615234375" xlink:href="#ArialMT-30"/>
      </g>
     </g>
    </g>
    <g id="xtick_7">
     <g id="line2d_19">
      <path clip-path="url(#pfb3fb04f75)" d="M 662.800469 407.957812 
L 662.800469 17.357812 
" style="fill:none;stroke:#cccccc;stroke-linecap:round;"/>
     </g>
     <g id="line2d_20">
      <g>
       <use style="fill:#262626;stroke:#262626;" x="662.80046875" xlink:href="#ma8fe7864f8" y="407.9578125"/>
      </g>
     </g>
     <g id="line2d_21">
      <g>
       <use style="fill:#262626;stroke:#262626;" x="662.80046875" xlink:href="#ma8fe7864f8" y="17.3578125"/>
      </g>
     </g>
     <g id="text_7">
      <!-- 100 -->
      <defs>
       <path d="M 37.25 0 
L 28.46875 0 
L 28.46875 56 
Q 25.296875 52.984375 20.140625 49.953125 
Q 14.984375 46.921875 10.890625 45.40625 
L 10.890625 53.90625 
Q 18.265625 57.375 23.78125 62.296875 
Q 29.296875 67.234375 31.59375 71.875 
L 37.25 71.875 
z
" id="ArialMT-31"/>
      </defs>
      <g style="fill:#262626;" transform="translate(654.4590625 422.115625)scale(0.1 -0.1)">
       <use xlink:href="#ArialMT-31"/>
       <use x="55.615234375" xlink:href="#ArialMT-30"/>
       <use x="111.23046875" xlink:href="#ArialMT-30"/>
      </g>
     </g>
    </g>
    <g id="text_8">
     <!-- Run Order -->
     <defs>
      <path id="ArialMT-20"/>
      <path d="M 42.09375 16.703125 
L 51.171875 15.578125 
Q 49.03125 7.625 43.21875 3.21875 
Q 37.40625 -1.171875 28.375 -1.171875 
Q 17 -1.171875 10.328125 5.828125 
Q 3.65625 12.84375 3.65625 25.484375 
Q 3.65625 38.578125 10.390625 45.796875 
Q 17.140625 53.03125 27.875 53.03125 
Q 38.28125 53.03125 44.875 45.953125 
Q 51.46875 38.875 51.46875 26.03125 
Q 51.46875 25.25 51.421875 23.6875 
L 12.75 23.6875 
Q 13.234375 15.140625 17.578125 10.59375 
Q 21.921875 6.0625 28.421875 6.0625 
Q 33.25 6.0625 36.671875 8.59375 
Q 40.09375 11.140625 42.09375 16.703125 
M 13.234375 30.90625 
L 42.1875 30.90625 
Q 41.609375 37.453125 38.875 40.71875 
Q 34.671875 45.796875 27.984375 45.796875 
Q 21.921875 45.796875 17.796875 41.75 
Q 13.671875 37.703125 13.234375 30.90625 
" id="ArialMT-65"/>
      <path d="M 40.234375 0 
L 40.234375 6.546875 
Q 35.296875 -1.171875 25.734375 -1.171875 
Q 19.53125 -1.171875 14.328125 2.25 
Q 9.125 5.671875 6.265625 11.796875 
Q 3.421875 17.921875 3.421875 25.875 
Q 3.421875 33.640625 6 39.96875 
Q 8.59375 46.296875 13.765625 49.65625 
Q 18.953125 53.03125 25.34375 53.03125 
Q 30.03125 53.03125 33.6875 51.046875 
Q 37.359375 49.078125 39.65625 45.90625 
L 39.65625 71.578125 
L 48.390625 71.578125 
L 48.390625 0 
z
M 12.453125 25.875 
Q 12.453125 15.921875 16.640625 10.984375 
Q 20.84375 6.0625 26.5625 6.0625 
Q 32.328125 6.0625 36.34375 10.765625 
Q 40.375 15.484375 40.375 25.140625 
Q 40.375 35.796875 36.265625 40.765625 
Q 32.171875 45.75 26.171875 45.75 
Q 20.3125 45.75 16.375 40.96875 
Q 12.453125 36.1875 12.453125 25.875 
" id="ArialMT-64"/>
      <path d="M 7.859375 0 
L 7.859375 71.578125 
L 39.59375 71.578125 
Q 49.171875 71.578125 54.140625 69.640625 
Q 59.125 67.71875 62.109375 62.828125 
Q 65.09375 57.953125 65.09375 52.046875 
Q 65.09375 44.4375 60.15625 39.203125 
Q 55.21875 33.984375 44.921875 32.5625 
Q 48.6875 30.765625 50.640625 29 
Q 54.78125 25.203125 58.5 19.484375 
L 70.953125 0 
L 59.03125 0 
L 49.5625 14.890625 
Q 45.40625 21.34375 42.71875 24.75 
Q 40.046875 28.171875 37.921875 29.53125 
Q 35.796875 30.90625 33.59375 31.453125 
Q 31.984375 31.78125 28.328125 31.78125 
L 17.328125 31.78125 
L 17.328125 0 
z
M 17.328125 39.984375 
L 37.703125 39.984375 
Q 44.1875 39.984375 47.84375 41.328125 
Q 51.515625 42.671875 53.421875 45.625 
Q 55.328125 48.578125 55.328125 52.046875 
Q 55.328125 57.125 51.640625 60.390625 
Q 47.953125 63.671875 39.984375 63.671875 
L 17.328125 63.671875 
z
" id="ArialMT-52"/>
      <path d="M 40.578125 0 
L 40.578125 7.625 
Q 34.515625 -1.171875 24.125 -1.171875 
Q 19.53125 -1.171875 15.546875 0.578125 
Q 11.578125 2.34375 9.640625 5 
Q 7.71875 7.671875 6.9375 11.53125 
Q 6.390625 14.109375 6.390625 19.734375 
L 6.390625 51.859375 
L 15.1875 51.859375 
L 15.1875 23.09375 
Q 15.1875 16.21875 15.71875 13.8125 
Q 16.546875 10.359375 19.234375 8.375 
Q 21.921875 6.390625 25.875 6.390625 
Q 29.828125 6.390625 33.296875 8.421875 
Q 36.765625 10.453125 38.203125 13.9375 
Q 39.65625 17.4375 39.65625 24.078125 
L 39.65625 51.859375 
L 48.4375 51.859375 
L 48.4375 0 
z
" id="ArialMT-75"/>
      <path d="M 6.59375 0 
L 6.59375 51.859375 
L 14.5 51.859375 
L 14.5 44.484375 
Q 20.21875 53.03125 31 53.03125 
Q 35.6875 53.03125 39.625 51.34375 
Q 43.5625 49.65625 45.515625 46.921875 
Q 47.46875 44.1875 48.25 40.4375 
Q 48.734375 37.984375 48.734375 31.890625 
L 48.734375 0 
L 39.9375 0 
L 39.9375 31.546875 
Q 39.9375 36.921875 38.90625 39.578125 
Q 37.890625 42.234375 35.28125 43.8125 
Q 32.671875 45.40625 29.15625 45.40625 
Q 23.53125 45.40625 19.453125 41.84375 
Q 15.375 38.28125 15.375 28.328125 
L 15.375 0 
z
" id="ArialMT-6e"/>
      <path d="M 6.5 0 
L 6.5 51.859375 
L 14.40625 51.859375 
L 14.40625 44 
Q 17.4375 49.515625 20 51.265625 
Q 22.5625 53.03125 25.640625 53.03125 
Q 30.078125 53.03125 34.671875 50.203125 
L 31.640625 42.046875 
Q 28.421875 43.953125 25.203125 43.953125 
Q 22.3125 43.953125 20.015625 42.21875 
Q 17.71875 40.484375 16.75 37.40625 
Q 15.28125 32.71875 15.28125 27.15625 
L 15.28125 0 
z
" id="ArialMT-72"/>
      <path d="M 4.828125 34.859375 
Q 4.828125 52.6875 14.390625 62.765625 
Q 23.96875 72.859375 39.109375 72.859375 
Q 49.03125 72.859375 56.984375 68.109375 
Q 64.9375 63.375 69.109375 54.90625 
Q 73.296875 46.4375 73.296875 35.6875 
Q 73.296875 24.8125 68.890625 16.21875 
Q 64.5 7.625 56.4375 3.203125 
Q 48.390625 -1.21875 39.0625 -1.21875 
Q 28.953125 -1.21875 20.984375 3.65625 
Q 13.03125 8.546875 8.921875 16.984375 
Q 4.828125 25.4375 4.828125 34.859375 
M 14.59375 34.71875 
Q 14.59375 21.78125 21.546875 14.328125 
Q 28.515625 6.890625 39.015625 6.890625 
Q 49.703125 6.890625 56.609375 14.40625 
Q 63.53125 21.921875 63.53125 35.75 
Q 63.53125 44.484375 60.578125 51 
Q 57.625 57.515625 51.921875 61.109375 
Q 46.234375 64.703125 39.15625 64.703125 
Q 29.109375 64.703125 21.84375 57.78125 
Q 14.59375 50.875 14.59375 34.71875 
" id="ArialMT-4f"/>
     </defs>
     <g style="fill:#262626;" transform="translate(330.22578125 436.97671875)scale(0.11 -0.11)">
      <use xlink:href="#ArialMT-52"/>
      <use x="72.216796875" xlink:href="#ArialMT-75"/>
      <use x="127.83203125" xlink:href="#ArialMT-6e"/>
      <use x="183.447265625" xlink:href="#ArialMT-20"/>
      <use x="211.23046875" xlink:href="#ArialMT-4f"/>
      <use x="289.013671875" xlink:href="#ArialMT-72"/>
      <use x="322.314453125" xlink:href="#ArialMT-64"/>
      <use x="377.9296875" xlink:href="#ArialMT-65"/>
      <use x="433.544921875" xlink:href="#ArialMT-72"/>
     </g>
    </g>
   </g>
   <g id="matplotlib.axis_2">
    <g id="ytick_1">
     <g id="line2d_22">
      <path clip-path="url(#pfb3fb04f75)" d="M 49.000469 407.957812 
L 662.800469 407.957812 
" style="fill:none;stroke:#cccccc;stroke-linecap:round;"/>
     </g>
     <g id="line2d_23">
      <g>
       <use style="fill:#262626;stroke:#262626;" x="49.00046875" xlink:href="#ma8fe7864f8" y="407.9578125"/>
      </g>
     </g>
     <g id="line2d_24">
      <g>
       <use style="fill:#262626;stroke:#262626;" x="662.80046875" xlink:href="#ma8fe7864f8" y="407.9578125"/>
      </g>
     </g>
     <g id="text_9">
      <!-- −0.5 -->
      <defs>
       <path d="M 9.078125 0 
L 9.078125 10.015625 
L 19.09375 10.015625 
L 19.09375 0 
z
" id="ArialMT-2e"/>
       <path d="M 4.15625 18.75 
L 13.375 19.53125 
Q 14.40625 12.796875 18.140625 9.390625 
Q 21.875 6 27.15625 6 
Q 33.5 6 37.890625 10.78125 
Q 42.28125 15.578125 42.28125 23.484375 
Q 42.28125 31 38.0625 35.34375 
Q 33.84375 39.703125 27 39.703125 
Q 22.75 39.703125 19.328125 37.765625 
Q 15.921875 35.84375 13.96875 32.765625 
L 5.71875 33.84375 
L 12.640625 70.609375 
L 48.25 70.609375 
L 48.25 62.203125 
L 19.671875 62.203125 
L 15.828125 42.96875 
Q 22.265625 47.46875 29.34375 47.46875 
Q 38.71875 47.46875 45.15625 40.96875 
Q 51.609375 34.46875 51.609375 24.265625 
Q 51.609375 14.546875 45.953125 7.46875 
Q 39.0625 -1.21875 27.15625 -1.21875 
Q 17.390625 -1.21875 11.203125 4.25 
Q 5.03125 9.71875 4.15625 18.75 
" id="ArialMT-35"/>
      </defs>
      <g style="fill:#262626;" transform="translate(22.25984375 410.54296875)scale(0.1 -0.1)">
       <use xlink:href="#ArialMT-2212"/>
       <use x="58.3984375" xlink:href="#ArialMT-30"/>
       <use x="114.013671875" xlink:href="#ArialMT-2e"/>
       <use x="141.796875" xlink:href="#ArialMT-35"/>
      </g>
     </g>
    </g>
    <g id="ytick_2">
     <g id="line2d_25">
      <path clip-path="url(#pfb3fb04f75)" d="M 49.000469 342.857812 
L 662.800469 342.857812 
" style="fill:none;stroke:#cccccc;stroke-linecap:round;"/>
     </g>
     <g id="line2d_26">
      <g>
       <use style="fill:#262626;stroke:#262626;" x="49.00046875" xlink:href="#ma8fe7864f8" y="342.8578125"/>
      </g>
     </g>
     <g id="line2d_27">
      <g>
       <use style="fill:#262626;stroke:#262626;" x="662.80046875" xlink:href="#ma8fe7864f8" y="342.8578125"/>
      </g>
     </g>
     <g id="text_10">
      <!-- 0.0 -->
      <g style="fill:#262626;" transform="translate(28.10046875 345.44296875)scale(0.1 -0.1)">
       <use xlink:href="#ArialMT-30"/>
       <use x="55.615234375" xlink:href="#ArialMT-2e"/>
       <use x="83.3984375" xlink:href="#ArialMT-30"/>
      </g>
     </g>
    </g>
    <g id="ytick_3">
     <g id="line2d_28">
      <path clip-path="url(#pfb3fb04f75)" d="M 49.000469 277.757812 
L 662.800469 277.757812 
" style="fill:none;stroke:#cccccc;stroke-linecap:round;"/>
     </g>
     <g id="line2d_29">
      <g>
       <use style="fill:#262626;stroke:#262626;" x="49.00046875" xlink:href="#ma8fe7864f8" y="277.7578125"/>
      </g>
     </g>
     <g id="line2d_30">
      <g>
       <use style="fill:#262626;stroke:#262626;" x="662.80046875" xlink:href="#ma8fe7864f8" y="277.7578125"/>
      </g>
     </g>
     <g id="text_11">
      <!-- 0.5 -->
      <g style="fill:#262626;" transform="translate(28.10046875 280.34296875)scale(0.1 -0.1)">
       <use xlink:href="#ArialMT-30"/>
       <use x="55.615234375" xlink:href="#ArialMT-2e"/>
       <use x="83.3984375" xlink:href="#ArialMT-35"/>
      </g>
     </g>
    </g>
    <g id="ytick_4">
     <g id="line2d_31">
      <path clip-path="url(#pfb3fb04f75)" d="M 49.000469 212.657812 
L 662.800469 212.657812 
" style="fill:none;stroke:#cccccc;stroke-linecap:round;"/>
     </g>
     <g id="line2d_32">
      <g>
       <use style="fill:#262626;stroke:#262626;" x="49.00046875" xlink:href="#ma8fe7864f8" y="212.6578125"/>
      </g>
     </g>
     <g id="line2d_33">
      <g>
       <use style="fill:#262626;stroke:#262626;" x="662.80046875" xlink:href="#ma8fe7864f8" y="212.6578125"/>
      </g>
     </g>
     <g id="text_12">
      <!-- 1.0 -->
      <g style="fill:#262626;" transform="translate(28.10046875 215.24296875)scale(0.1 -0.1)">
       <use xlink:href="#ArialMT-31"/>
       <use x="55.615234375" xlink:href="#ArialMT-2e"/>
       <use x="83.3984375" xlink:href="#ArialMT-30"/>
      </g>
     </g>
    </g>
    <g id="ytick_5">
     <g id="line2d_34">
      <path clip-path="url(#pfb3fb04f75)" d="M 49.000469 147.557812 
L 662.800469 147.557812 
" style="fill:none;stroke:#cccccc;stroke-linecap:round;"/>
     </g>
     <g id="line2d_35">
      <g>
       <use style="fill:#262626;stroke:#262626;" x="49.00046875" xlink:href="#ma8fe7864f8" y="147.5578125"/>
      </g>
     </g>
     <g id="line2d_36">
      <g>
       <use style="fill:#262626;stroke:#262626;" x="662.80046875" xlink:href="#ma8fe7864f8" y="147.5578125"/>
      </g>
     </g>
     <g id="text_13">
      <!-- 1.5 -->
      <g style="fill:#262626;" transform="translate(28.10046875 150.14296875)scale(0.1 -0.1)">
       <use xlink:href="#ArialMT-31"/>
       <use x="55.615234375" xlink:href="#ArialMT-2e"/>
       <use x="83.3984375" xlink:href="#ArialMT-35"/>
      </g>
     </g>
    </g>
    <g id="ytick_6">
     <g id="line2d_37">
      <path clip-path="url(#pfb3fb04f75)" d="M 49.000469 82.457812 
L 662.800469 82.457812 
" style="fill:none;stroke:#cccccc;stroke-linecap:round;"/>
     </g>
     <g id="line2d_38">
      <g>
       <use style="fill:#262626;stroke:#262626;" x="49.00046875" xlink:href="#ma8fe7864f8" y="82.4578125"/>
      </g>
     </g>
     <g id="line2d_39">
      <g>
       <use style="fill:#262626;stroke:#262626;" x="662.80046875" xlink:href="#ma8fe7864f8" y="82.4578125"/>
      </g>
     </g>
     <g id="text_14">
      <!-- 2.0 -->
      <g style="fill:#262626;" transform="translate(28.10046875 85.04296875)scale(0.1 -0.1)">
       <use xlink:href="#ArialMT-32"/>
       <use x="55.615234375" xlink:href="#ArialMT-2e"/>
       <use x="83.3984375" xlink:href="#ArialMT-30"/>
      </g>
     </g>
    </g>
    <g id="ytick_7">
     <g id="line2d_40">
      <path clip-path="url(#pfb3fb04f75)" d="M 49.000469 17.357812 
L 662.800469 17.357812 
" style="fill:none;stroke:#cccccc;stroke-linecap:round;"/>
     </g>
     <g id="line2d_41">
      <g>
       <use style="fill:#262626;stroke:#262626;" x="49.00046875" xlink:href="#ma8fe7864f8" y="17.3578125"/>
      </g>
     </g>
     <g id="line2d_42">
      <g>
       <use style="fill:#262626;stroke:#262626;" x="662.80046875" xlink:href="#ma8fe7864f8" y="17.3578125"/>
      </g>
     </g>
     <g id="text_15">
      <!-- 2.5 -->
      <g style="fill:#262626;" transform="translate(28.10046875 19.94296875)scale(0.1 -0.1)">
       <use xlink:href="#ArialMT-32"/>
       <use x="55.615234375" xlink:href="#ArialMT-2e"/>
       <use x="83.3984375" xlink:href="#ArialMT-35"/>
      </g>
     </g>
    </g>
    <g id="text_16">
     <!-- TIC -->
     <defs>
      <path d="M 25.921875 0 
L 25.921875 63.140625 
L 2.34375 63.140625 
L 2.34375 71.578125 
L 59.078125 71.578125 
L 59.078125 63.140625 
L 35.40625 63.140625 
L 35.40625 0 
z
" id="ArialMT-54"/>
      <path d="M 58.796875 25.09375 
L 68.265625 22.703125 
Q 65.28125 11.03125 57.546875 4.90625 
Q 49.8125 -1.21875 38.625 -1.21875 
Q 27.046875 -1.21875 19.796875 3.484375 
Q 12.546875 8.203125 8.765625 17.140625 
Q 4.984375 26.078125 4.984375 36.328125 
Q 4.984375 47.515625 9.25 55.828125 
Q 13.53125 64.15625 21.40625 68.46875 
Q 29.296875 72.796875 38.765625 72.796875 
Q 49.515625 72.796875 56.828125 67.328125 
Q 64.15625 61.859375 67.046875 51.953125 
L 57.71875 49.75 
Q 55.21875 57.5625 50.484375 61.125 
Q 45.75 64.703125 38.578125 64.703125 
Q 30.328125 64.703125 24.78125 60.734375 
Q 19.234375 56.78125 16.984375 50.109375 
Q 14.75 43.453125 14.75 36.375 
Q 14.75 27.25 17.40625 20.4375 
Q 20.0625 13.625 25.671875 10.25 
Q 31.296875 6.890625 37.84375 6.890625 
Q 45.796875 6.890625 51.3125 11.46875 
Q 56.84375 16.0625 58.796875 25.09375 
" id="ArialMT-43"/>
      <path d="M 9.328125 0 
L 9.328125 71.578125 
L 18.796875 71.578125 
L 18.796875 0 
z
" id="ArialMT-49"/>
     </defs>
     <g style="fill:#262626;" transform="translate(15.07359375 221.517109375)rotate(-90.0)scale(0.11 -0.11)">
      <use xlink:href="#ArialMT-54"/>
      <use x="61.083984375" xlink:href="#ArialMT-49"/>
      <use x="88.8671875" xlink:href="#ArialMT-43"/>
     </g>
    </g>
    <g id="text_17">
     <!-- 1e10 -->
     <g style="fill:#262626;" transform="translate(49.00046875 14.3578125)scale(0.1 -0.1)">
      <use xlink:href="#ArialMT-31"/>
      <use x="55.615234375" xlink:href="#ArialMT-65"/>
      <use x="111.23046875" xlink:href="#ArialMT-31"/>
      <use x="166.845703125" xlink:href="#ArialMT-30"/>
     </g>
    </g>
   </g>
   <g id="PathCollection_1">
    <defs>
     <path d="M 0 2.236068 
C 0.593012 2.236068 1.161816 2.000462 1.581139 1.581139 
C 2.000462 1.161816 2.236068 0.593012 2.236068 0 
C 2.236068 -0.593012 2.000462 -1.161816 1.581139 -1.581139 
C 1.161816 -2.000462 0.593012 -2.236068 0 -2.236068 
C -0.593012 -2.236068 -1.161816 -2.000462 -1.581139 -1.581139 
C -2.000462 -1.161816 -2.236068 -0.593012 -2.236068 0 
C -2.236068 0.593012 -2.000462 1.161816 -1.581139 1.581139 
C -1.161816 2.000462 -0.593012 2.236068 0 2.236068 
z
" id="C0_0_866323588c"/>
    </defs>
    <g clip-path="url(#pfb3fb04f75)">
     <use style="fill:#000080;stroke:#1a1a1a;stroke-width:0.3;" x="151.30046875" xlink:href="#C0_0_866323588c" y="323.608565648"/>
    </g>
    <g clip-path="url(#pfb3fb04f75)">
     <use style="fill:#000080;stroke:#1a1a1a;stroke-width:0.3;" x="156.41546875" xlink:href="#C0_0_866323588c" y="323.633470613"/>
    </g>
    <g clip-path="url(#pfb3fb04f75)">
     <use style="fill:#000080;stroke:#1a1a1a;stroke-width:0.3;" x="161.53046875" xlink:href="#C0_0_866323588c" y="323.789672338"/>
    </g>
    <g clip-path="url(#pfb3fb04f75)">
     <use style="fill:#000080;stroke:#1a1a1a;stroke-width:0.3;" x="166.64546875" xlink:href="#C0_0_866323588c" y="323.687089012"/>
    </g>
    <g clip-path="url(#pfb3fb04f75)">
     <use style="fill:#000080;stroke:#1a1a1a;stroke-width:0.3;" x="171.76046875" xlink:href="#C0_0_866323588c" y="323.931751166"/>
    </g>
    <g clip-path="url(#pfb3fb04f75)">
     <use style="fill:#000080;stroke:#1a1a1a;stroke-width:0.3;" x="176.87546875" xlink:href="#C0_0_866323588c" y="323.703827597"/>
    </g>
    <g clip-path="url(#pfb3fb04f75)">
     <use style="fill:#000080;stroke:#1a1a1a;stroke-width:0.3;" x="181.99046875" xlink:href="#C0_0_866323588c" y="323.947175855"/>
    </g>
    <g clip-path="url(#pfb3fb04f75)">
     <use style="fill:#000080;stroke:#1a1a1a;stroke-width:0.3;" x="187.10546875" xlink:href="#C0_0_866323588c" y="323.659704137"/>
    </g>
    <g clip-path="url(#pfb3fb04f75)">
     <use style="fill:#000080;stroke:#1a1a1a;stroke-width:0.3;" x="192.22046875" xlink:href="#C0_0_866323588c" y="323.536396307"/>
    </g>
    <g clip-path="url(#pfb3fb04f75)">
     <use style="fill:#000080;stroke:#1a1a1a;stroke-width:0.3;" x="197.33546875" xlink:href="#C0_0_866323588c" y="323.627414014"/>
    </g>
    <g clip-path="url(#pfb3fb04f75)">
     <use style="fill:#0000e8;stroke:#1a1a1a;stroke-width:0.3;" x="202.45046875" xlink:href="#C0_0_866323588c" y="285.522787642"/>
    </g>
    <g clip-path="url(#pfb3fb04f75)">
     <use style="fill:#0000e8;stroke:#1a1a1a;stroke-width:0.3;" x="207.56546875" xlink:href="#C0_0_866323588c" y="285.381781972"/>
    </g>
    <g clip-path="url(#pfb3fb04f75)">
     <use style="fill:#0000e8;stroke:#1a1a1a;stroke-width:0.3;" x="212.68046875" xlink:href="#C0_0_866323588c" y="287.042301109"/>
    </g>
    <g clip-path="url(#pfb3fb04f75)">
     <use style="fill:#0000e8;stroke:#1a1a1a;stroke-width:0.3;" x="217.79546875" xlink:href="#C0_0_866323588c" y="285.003270571"/>
    </g>
    <g clip-path="url(#pfb3fb04f75)">
     <use style="fill:#0000e8;stroke:#1a1a1a;stroke-width:0.3;" x="222.91046875" xlink:href="#C0_0_866323588c" y="285.635891118"/>
    </g>
    <g clip-path="url(#pfb3fb04f75)">
     <use style="fill:#0000e8;stroke:#1a1a1a;stroke-width:0.3;" x="228.02546875" xlink:href="#C0_0_866323588c" y="285.674319384"/>
    </g>
    <g clip-path="url(#pfb3fb04f75)">
     <use style="fill:#0000e8;stroke:#1a1a1a;stroke-width:0.3;" x="233.14046875" xlink:href="#C0_0_866323588c" y="284.998131914"/>
    </g>
    <g clip-path="url(#pfb3fb04f75)">
     <use style="fill:#0000e8;stroke:#1a1a1a;stroke-width:0.3;" x="238.25546875" xlink:href="#C0_0_866323588c" y="284.980999785"/>
    </g>
    <g clip-path="url(#pfb3fb04f75)">
     <use style="fill:#0000e8;stroke:#1a1a1a;stroke-width:0.3;" x="243.37046875" xlink:href="#C0_0_866323588c" y="285.442800826"/>
    </g>
    <g clip-path="url(#pfb3fb04f75)">
     <use style="fill:#0000e8;stroke:#1a1a1a;stroke-width:0.3;" x="248.48546875" xlink:href="#C0_0_866323588c" y="284.943356343"/>
    </g>
    <g clip-path="url(#pfb3fb04f75)">
     <use style="fill:#0044ff;stroke:#1a1a1a;stroke-width:0.3;" x="253.60046875" xlink:href="#C0_0_866323588c" y="256.463529494"/>
    </g>
    <g clip-path="url(#pfb3fb04f75)">
     <use style="fill:#0044ff;stroke:#1a1a1a;stroke-width:0.3;" x="258.71546875" xlink:href="#C0_0_866323588c" y="256.38406987"/>
    </g>
    <g clip-path="url(#pfb3fb04f75)">
     <use style="fill:#0044ff;stroke:#1a1a1a;stroke-width:0.3;" x="263.83046875" xlink:href="#C0_0_866323588c" y="255.95830247"/>
    </g>
    <g clip-path="url(#pfb3fb04f75)">
     <use style="fill:#0044ff;stroke:#1a1a1a;stroke-width:0.3;" x="268.94546875" xlink:href="#C0_0_866323588c" y="256.416306865"/>
    </g>
    <g clip-path="url(#pfb3fb04f75)">
     <use style="fill:#0044ff;stroke:#1a1a1a;stroke-width:0.3;" x="274.06046875" xlink:href="#C0_0_866323588c" y="256.495460028"/>
    </g>
    <g clip-path="url(#pfb3fb04f75)">
     <use style="fill:#23ffd4;stroke:#1a1a1a;stroke-width:0.3;" x="279.17546875" xlink:href="#C0_0_866323588c" y="210.208674429"/>
    </g>
    <g clip-path="url(#pfb3fb04f75)">
     <use style="fill:#23ffd4;stroke:#1a1a1a;stroke-width:0.3;" x="284.29046875" xlink:href="#C0_0_866323588c" y="210.432174819"/>
    </g>
    <g clip-path="url(#pfb3fb04f75)">
     <use style="fill:#23ffd4;stroke:#1a1a1a;stroke-width:0.3;" x="289.40546875" xlink:href="#C0_0_866323588c" y="210.440623356"/>
    </g>
    <g clip-path="url(#pfb3fb04f75)">
     <use style="fill:#caff2c;stroke:#1a1a1a;stroke-width:0.3;" x="294.52046875" xlink:href="#C0_0_866323588c" y="176.775374567"/>
    </g>
    <g clip-path="url(#pfb3fb04f75)">
     <use style="fill:#caff2c;stroke:#1a1a1a;stroke-width:0.3;" x="299.63546875" xlink:href="#C0_0_866323588c" y="176.303507687"/>
    </g>
    <g clip-path="url(#pfb3fb04f75)">
     <use style="fill:#caff2c;stroke:#1a1a1a;stroke-width:0.3;" x="304.75046875" xlink:href="#C0_0_866323588c" y="177.870899464"/>
    </g>
    <g clip-path="url(#pfb3fb04f75)">
     <use style="fill:#ff6800;stroke:#1a1a1a;stroke-width:0.3;" x="309.86546875" xlink:href="#C0_0_866323588c" y="144.648553463"/>
    </g>
    <g clip-path="url(#pfb3fb04f75)">
     <use style="fill:#ff6800;stroke:#1a1a1a;stroke-width:0.3;" x="314.98046875" xlink:href="#C0_0_866323588c" y="147.848741227"/>
    </g>
    <g clip-path="url(#pfb3fb04f75)">
     <use style="fill:#ff6800;stroke:#1a1a1a;stroke-width:0.3;" x="320.09546875" xlink:href="#C0_0_866323588c" y="145.12663157"/>
    </g>
    <g clip-path="url(#pfb3fb04f75)">
     <use style="fill:#ff6800;stroke:#1a1a1a;stroke-width:0.3;" x="325.21046875" xlink:href="#C0_0_866323588c" y="143.716845309"/>
    </g>
    <g clip-path="url(#pfb3fb04f75)">
     <use style="fill:#ff6800;stroke:#1a1a1a;stroke-width:0.3;" x="330.32546875" xlink:href="#C0_0_866323588c" y="147.601622187"/>
    </g>
    <g clip-path="url(#pfb3fb04f75)">
     <use style="fill:#800000;stroke:#1a1a1a;stroke-width:0.3;" x="335.44046875" xlink:href="#C0_0_866323588c" y="121.221063099"/>
    </g>
    <g clip-path="url(#pfb3fb04f75)">
     <use style="fill:#800000;stroke:#1a1a1a;stroke-width:0.3;" x="340.55546875" xlink:href="#C0_0_866323588c" y="121.134327335"/>
    </g>
    <g clip-path="url(#pfb3fb04f75)">
     <use style="fill:#800000;stroke:#1a1a1a;stroke-width:0.3;" x="345.67046875" xlink:href="#C0_0_866323588c" y="118.825626045"/>
    </g>
    <g clip-path="url(#pfb3fb04f75)">
     <use style="fill:#800000;stroke:#1a1a1a;stroke-width:0.3;" x="350.78546875" xlink:href="#C0_0_866323588c" y="120.922223673"/>
    </g>
    <g clip-path="url(#pfb3fb04f75)">
     <use style="fill:#800000;stroke:#1a1a1a;stroke-width:0.3;" x="355.90046875" xlink:href="#C0_0_866323588c" y="118.991850376"/>
    </g>
    <g clip-path="url(#pfb3fb04f75)">
     <use style="fill:#800000;stroke:#1a1a1a;stroke-width:0.3;" x="361.01546875" xlink:href="#C0_0_866323588c" y="120.875780059"/>
    </g>
    <g clip-path="url(#pfb3fb04f75)">
     <use style="fill:#800000;stroke:#1a1a1a;stroke-width:0.3;" x="366.13046875" xlink:href="#C0_0_866323588c" y="121.739664044"/>
    </g>
    <g clip-path="url(#pfb3fb04f75)">
     <use style="fill:#800000;stroke:#1a1a1a;stroke-width:0.3;" x="371.24546875" xlink:href="#C0_0_866323588c" y="119.071384651"/>
    </g>
    <g clip-path="url(#pfb3fb04f75)">
     <use style="fill:#800000;stroke:#1a1a1a;stroke-width:0.3;" x="376.36046875" xlink:href="#C0_0_866323588c" y="124.03745095"/>
    </g>
    <g clip-path="url(#pfb3fb04f75)">
     <use style="fill:#800000;stroke:#1a1a1a;stroke-width:0.3;" x="381.47546875" xlink:href="#C0_0_866323588c" y="121.082477018"/>
    </g>
    <g clip-path="url(#pfb3fb04f75)">
     <use style="fill:#000080;stroke:#1a1a1a;stroke-width:0.3;" x="616.76546875" xlink:href="#C0_0_866323588c" y="322.805160336"/>
    </g>
    <g clip-path="url(#pfb3fb04f75)">
     <use style="fill:#000080;stroke:#1a1a1a;stroke-width:0.3;" x="611.65046875" xlink:href="#C0_0_866323588c" y="322.132016616"/>
    </g>
    <g clip-path="url(#pfb3fb04f75)">
     <use style="fill:#000080;stroke:#1a1a1a;stroke-width:0.3;" x="606.53546875" xlink:href="#C0_0_866323588c" y="322.247431195"/>
    </g>
    <g clip-path="url(#pfb3fb04f75)">
     <use style="fill:#000080;stroke:#1a1a1a;stroke-width:0.3;" x="601.42046875" xlink:href="#C0_0_866323588c" y="322.985833232"/>
    </g>
    <g clip-path="url(#pfb3fb04f75)">
     <use style="fill:#000080;stroke:#1a1a1a;stroke-width:0.3;" x="596.30546875" xlink:href="#C0_0_866323588c" y="326.325343589"/>
    </g>
    <g clip-path="url(#pfb3fb04f75)">
     <use style="fill:#000080;stroke:#1a1a1a;stroke-width:0.3;" x="591.19046875" xlink:href="#C0_0_866323588c" y="322.884232012"/>
    </g>
    <g clip-path="url(#pfb3fb04f75)">
     <use style="fill:#000080;stroke:#1a1a1a;stroke-width:0.3;" x="586.07546875" xlink:href="#C0_0_866323588c" y="325.171718449"/>
    </g>
    <g clip-path="url(#pfb3fb04f75)">
     <use style="fill:#000080;stroke:#1a1a1a;stroke-width:0.3;" x="580.96046875" xlink:href="#C0_0_866323588c" y="323.489853456"/>
    </g>
    <g clip-path="url(#pfb3fb04f75)">
     <use style="fill:#000080;stroke:#1a1a1a;stroke-width:0.3;" x="575.84546875" xlink:href="#C0_0_866323588c" y="323.210162329"/>
    </g>
    <g clip-path="url(#pfb3fb04f75)">
     <use style="fill:#000080;stroke:#1a1a1a;stroke-width:0.3;" x="570.73046875" xlink:href="#C0_0_866323588c" y="322.643941733"/>
    </g>
    <g clip-path="url(#pfb3fb04f75)">
     <use style="fill:#0000e8;stroke:#1a1a1a;stroke-width:0.3;" x="565.61546875" xlink:href="#C0_0_866323588c" y="291.981949271"/>
    </g>
    <g clip-path="url(#pfb3fb04f75)">
     <use style="fill:#0000e8;stroke:#1a1a1a;stroke-width:0.3;" x="560.50046875" xlink:href="#C0_0_866323588c" y="291.524785772"/>
    </g>
    <g clip-path="url(#pfb3fb04f75)">
     <use style="fill:#0000e8;stroke:#1a1a1a;stroke-width:0.3;" x="555.38546875" xlink:href="#C0_0_866323588c" y="291.416703118"/>
    </g>
    <g clip-path="url(#pfb3fb04f75)">
     <use style="fill:#0000e8;stroke:#1a1a1a;stroke-width:0.3;" x="550.27046875" xlink:href="#C0_0_866323588c" y="291.800837158"/>
    </g>
    <g clip-path="url(#pfb3fb04f75)">
     <use style="fill:#0000e8;stroke:#1a1a1a;stroke-width:0.3;" x="545.15546875" xlink:href="#C0_0_866323588c" y="317.582224632"/>
    </g>
    <g clip-path="url(#pfb3fb04f75)">
     <use style="fill:#0000e8;stroke:#1a1a1a;stroke-width:0.3;" x="540.04046875" xlink:href="#C0_0_866323588c" y="292.354677305"/>
    </g>
    <g clip-path="url(#pfb3fb04f75)">
     <use style="fill:#0000e8;stroke:#1a1a1a;stroke-width:0.3;" x="534.92546875" xlink:href="#C0_0_866323588c" y="291.713083919"/>
    </g>
    <g clip-path="url(#pfb3fb04f75)">
     <use style="fill:#0000e8;stroke:#1a1a1a;stroke-width:0.3;" x="529.81046875" xlink:href="#C0_0_866323588c" y="292.268138914"/>
    </g>
    <g clip-path="url(#pfb3fb04f75)">
     <use style="fill:#0000e8;stroke:#1a1a1a;stroke-width:0.3;" x="524.69546875" xlink:href="#C0_0_866323588c" y="292.360626116"/>
    </g>
    <g clip-path="url(#pfb3fb04f75)">
     <use style="fill:#0000e8;stroke:#1a1a1a;stroke-width:0.3;" x="519.58046875" xlink:href="#C0_0_866323588c" y="292.612639059"/>
    </g>
    <g clip-path="url(#pfb3fb04f75)">
     <use style="fill:#0044ff;stroke:#1a1a1a;stroke-width:0.3;" x="514.46546875" xlink:href="#C0_0_866323588c" y="268.476622986"/>
    </g>
    <g clip-path="url(#pfb3fb04f75)">
     <use style="fill:#0044ff;stroke:#1a1a1a;stroke-width:0.3;" x="509.35046875" xlink:href="#C0_0_866323588c" y="266.694389129"/>
    </g>
    <g clip-path="url(#pfb3fb04f75)">
     <use style="fill:#0044ff;stroke:#1a1a1a;stroke-width:0.3;" x="504.23546875" xlink:href="#C0_0_866323588c" y="267.061001252"/>
    </g>
    <g clip-path="url(#pfb3fb04f75)">
     <use style="fill:#0044ff;stroke:#1a1a1a;stroke-width:0.3;" x="499.12046875" xlink:href="#C0_0_866323588c" y="266.908050899"/>
    </g>
    <g clip-path="url(#pfb3fb04f75)">
     <use style="fill:#0044ff;stroke:#1a1a1a;stroke-width:0.3;" x="494.00546875" xlink:href="#C0_0_866323588c" y="265.697001756"/>
    </g>
    <g clip-path="url(#pfb3fb04f75)">
     <use style="fill:#23ffd4;stroke:#1a1a1a;stroke-width:0.3;" x="488.89046875" xlink:href="#C0_0_866323588c" y="225.365328101"/>
    </g>
    <g clip-path="url(#pfb3fb04f75)">
     <use style="fill:#23ffd4;stroke:#1a1a1a;stroke-width:0.3;" x="483.77546875" xlink:href="#C0_0_866323588c" y="224.085277715"/>
    </g>
    <g clip-path="url(#pfb3fb04f75)">
     <use style="fill:#23ffd4;stroke:#1a1a1a;stroke-width:0.3;" x="478.66046875" xlink:href="#C0_0_866323588c" y="224.778271442"/>
    </g>
    <g clip-path="url(#pfb3fb04f75)">
     <use style="fill:#caff2c;stroke:#1a1a1a;stroke-width:0.3;" x="473.54546875" xlink:href="#C0_0_866323588c" y="197.267517208"/>
    </g>
    <g clip-path="url(#pfb3fb04f75)">
     <use style="fill:#caff2c;stroke:#1a1a1a;stroke-width:0.3;" x="468.43046875" xlink:href="#C0_0_866323588c" y="191.669234764"/>
    </g>
    <g clip-path="url(#pfb3fb04f75)">
     <use style="fill:#caff2c;stroke:#1a1a1a;stroke-width:0.3;" x="463.31546875" xlink:href="#C0_0_866323588c" y="191.002203551"/>
    </g>
    <g clip-path="url(#pfb3fb04f75)">
     <use style="fill:#ff6800;stroke:#1a1a1a;stroke-width:0.3;" x="458.20046875" xlink:href="#C0_0_866323588c" y="160.820711404"/>
    </g>
    <g clip-path="url(#pfb3fb04f75)">
     <use style="fill:#ff6800;stroke:#1a1a1a;stroke-width:0.3;" x="453.08546875" xlink:href="#C0_0_866323588c" y="160.861154571"/>
    </g>
    <g clip-path="url(#pfb3fb04f75)">
     <use style="fill:#ff6800;stroke:#1a1a1a;stroke-width:0.3;" x="447.97046875" xlink:href="#C0_0_866323588c" y="159.609511467"/>
    </g>
    <g clip-path="url(#pfb3fb04f75)">
     <use style="fill:#ff6800;stroke:#1a1a1a;stroke-width:0.3;" x="442.85546875" xlink:href="#C0_0_866323588c" y="161.961198141"/>
    </g>
    <g clip-path="url(#pfb3fb04f75)">
     <use style="fill:#ff6800;stroke:#1a1a1a;stroke-width:0.3;" x="437.74046875" xlink:href="#C0_0_866323588c" y="161.763248934"/>
    </g>
    <g clip-path="url(#pfb3fb04f75)">
     <use style="fill:#800000;stroke:#1a1a1a;stroke-width:0.3;" x="432.62546875" xlink:href="#C0_0_866323588c" y="133.739968646"/>
    </g>
    <g clip-path="url(#pfb3fb04f75)">
     <use style="fill:#800000;stroke:#1a1a1a;stroke-width:0.3;" x="427.51046875" xlink:href="#C0_0_866323588c" y="134.94913194"/>
    </g>
    <g clip-path="url(#pfb3fb04f75)">
     <use style="fill:#800000;stroke:#1a1a1a;stroke-width:0.3;" x="422.39546875" xlink:href="#C0_0_866323588c" y="136.983949209"/>
    </g>
    <g clip-path="url(#pfb3fb04f75)">
     <use style="fill:#800000;stroke:#1a1a1a;stroke-width:0.3;" x="417.28046875" xlink:href="#C0_0_866323588c" y="133.580784774"/>
    </g>
    <g clip-path="url(#pfb3fb04f75)">
     <use style="fill:#800000;stroke:#1a1a1a;stroke-width:0.3;" x="412.16546875" xlink:href="#C0_0_866323588c" y="136.146861711"/>
    </g>
    <g clip-path="url(#pfb3fb04f75)">
     <use style="fill:#800000;stroke:#1a1a1a;stroke-width:0.3;" x="407.05046875" xlink:href="#C0_0_866323588c" y="137.141549961"/>
    </g>
    <g clip-path="url(#pfb3fb04f75)">
     <use style="fill:#800000;stroke:#1a1a1a;stroke-width:0.3;" x="401.93546875" xlink:href="#C0_0_866323588c" y="140.090065988"/>
    </g>
    <g clip-path="url(#pfb3fb04f75)">
     <use style="fill:#800000;stroke:#1a1a1a;stroke-width:0.3;" x="396.82046875" xlink:href="#C0_0_866323588c" y="138.939180312"/>
    </g>
    <g clip-path="url(#pfb3fb04f75)">
     <use style="fill:#800000;stroke:#1a1a1a;stroke-width:0.3;" x="391.70546875" xlink:href="#C0_0_866323588c" y="139.482074167"/>
    </g>
    <g clip-path="url(#pfb3fb04f75)">
     <use style="fill:#800000;stroke:#1a1a1a;stroke-width:0.3;" x="386.59046875" xlink:href="#C0_0_866323588c" y="140.565370906"/>
    </g>
   </g>
   <g id="line2d_43">
    <path clip-path="url(#pfb3fb04f75)" d="M 384.032969 342.857812 
L 384.032969 82.457812 
" style="fill:none;stroke:#1a1a1a;stroke-linecap:round;stroke-width:0.5;"/>
   </g>
   <g id="patch_3">
    <path d="M 49.000469 407.957812 
L 662.800469 407.957812 
" style="fill:none;stroke:#cccccc;stroke-linecap:square;stroke-linejoin:miter;"/>
   </g>
   <g id="patch_4">
    <path d="M 662.800469 407.957812 
L 662.800469 17.357812 
" style="fill:none;stroke:#cccccc;stroke-linecap:square;stroke-linejoin:miter;"/>
   </g>
   <g id="patch_5">
    <path d="M 49.000469 17.357812 
L 662.800469 17.357812 
" style="fill:none;stroke:#cccccc;stroke-linecap:square;stroke-linejoin:miter;"/>
   </g>
   <g id="patch_6">
    <path d="M 49.000469 407.957812 
L 49.000469 17.357812 
" style="fill:none;stroke:#cccccc;stroke-linecap:square;stroke-linejoin:miter;"/>
   </g>
  </g>
 </g>
 <defs>
  <clipPath id="pfb3fb04f75">
   <rect height="390.6" width="613.8" x="49.00046875" y="17.3578125"/>
  </clipPath>
 </defs>
</svg>
