<?xml version="1.0" encoding="utf-8"?>
<!-- Generator: Adobe Illustrator 16.0.4, SVG Export Plug-In . SVG Version: 6.00 Build 0)  -->
<!DOCTYPE svg PUBLIC "-//W3C//DTD SVG 1.1//EN" "http://www.w3.org/Graphics/SVG/1.1/DTD/svg11.dtd">
<svg version="1.1" id="Layer_1" xmlns="http://www.w3.org/2000/svg" xmlns:xlink="http://www.w3.org/1999/xlink" x="0px" y="0px"
	 width="647px" height="443px" viewBox="0 0 647 443" enable-background="new 0 0 647 443" xml:space="preserve">
<g>
	<rect x="21" y="15.4" fill="#EAEAF2" width="613.8" height="390.6"/>
	<g>
		<g>
			<defs>
				<rect id="SVGID_1_" x="21" y="15.4" width="613.8" height="390.6"/>
			</defs>
			<clipPath id="SVGID_2_">
				<use xlink:href="#SVGID_1_"  overflow="visible"/>
			</clipPath>
			
				<line clip-path="url(#SVGID_2_)" fill="none" stroke="#FFFFFF" stroke-linecap="round" stroke-linejoin="round" stroke-miterlimit="10" x1="634.8" y1="406" x2="634.8" y2="15.4"/>
		</g>
	</g>
	<line fill="none" x1="634.8" y1="406" x2="634.8" y2="406"/>
	<line fill="none" stroke="#262626" stroke-linejoin="round" stroke-miterlimit="10" x1="634.8" y1="406" x2="634.8" y2="406"/>
	<line fill="none" x1="634.8" y1="15.4" x2="634.8" y2="15.4"/>
	<line fill="none" stroke="#262626" stroke-linejoin="round" stroke-miterlimit="10" x1="634.8" y1="15.4" x2="634.8" y2="15.4"/>
	<path fill="#262626" d="M628.796,420.156h-0.88v-5.6c-0.221,0.198-0.5,0.408-0.841,0.608c-0.34,0.2-0.649,0.351-0.92,0.45v-0.85
		c0.49-0.23,0.92-0.512,1.29-0.842c0.359-0.318,0.62-0.64,0.779-0.96h0.57L628.796,420.156"/>
	<polyline fill="#262626" points="631.535,420.156 631.535,419.156 632.535,419.156 632.535,420.156 631.535,420.156 	"/>
	<path fill="#262626" d="M638.436,419.316v0.84h-4.729c-0.011-0.211,0.029-0.41,0.109-0.61c0.119-0.319,0.311-0.63,0.569-0.948
		c0.26-0.312,0.649-0.672,1.149-1.092c0.78-0.63,1.301-1.13,1.58-1.51c0.271-0.37,0.41-0.721,0.41-1.061s-0.131-0.641-0.381-0.879
		c-0.25-0.24-0.569-0.361-0.97-0.361c-0.42,0-0.76,0.131-1.01,0.381c-0.261,0.26-0.391,0.609-0.391,1.061l-0.899-0.101
		c0.06-0.67,0.29-1.181,0.689-1.54c0.399-0.35,0.949-0.53,1.63-0.53s1.229,0.2,1.63,0.58c0.399,0.38,0.601,0.851,0.601,1.41
		c0,0.29-0.061,0.569-0.18,0.851c-0.12,0.279-0.311,0.569-0.58,0.869c-0.271,0.311-0.721,0.73-1.351,1.262
		c-0.53,0.438-0.87,0.738-1.021,0.898s-0.271,0.32-0.37,0.48H638.436"/>
	<path fill="#262626" d="M640.285,416.626c0,1.181,0.131,1.96,0.41,2.351c0.271,0.391,0.609,0.58,1.021,0.58
		c0.399,0,0.729-0.189,1.01-0.58s0.42-1.17,0.42-2.351s-0.14-1.96-0.42-2.351c-0.279-0.379-0.619-0.58-1.021-0.58
		c-0.409,0-0.729,0.171-0.97,0.511C640.436,414.646,640.285,415.456,640.285,416.626 M639.386,416.626c0-0.84,0.08-1.521,0.26-2.04
		c0.171-0.52,0.431-0.92,0.771-1.199c0.34-0.279,0.779-0.421,1.3-0.421c0.38,0,0.72,0.08,1.01,0.24c0.28,0.16,0.521,0.38,0.71,0.67
		c0.19,0.29,0.341,0.642,0.45,1.062c0.101,0.42,0.16,0.988,0.16,1.688c0,0.84-0.091,1.521-0.261,2.04
		c-0.17,0.521-0.43,0.91-0.771,1.189c-0.34,0.281-0.779,0.41-1.3,0.41c-0.7,0-1.24-0.24-1.63-0.729
		C639.615,418.945,639.386,417.977,639.386,416.626"/>
	<g>
		<g>
			<defs>
				<rect id="SVGID_3_" x="21" y="15.4" width="613.8" height="390.6"/>
			</defs>
			<clipPath id="SVGID_4_">
				<use xlink:href="#SVGID_3_"  overflow="visible"/>
			</clipPath>
			
				<line clip-path="url(#SVGID_4_)" fill="none" stroke="#FFFFFF" stroke-linecap="round" stroke-linejoin="round" stroke-miterlimit="10" x1="558.075" y1="406" x2="558.075" y2="15.4"/>
		</g>
	</g>
	<line fill="none" x1="558.075" y1="406" x2="558.075" y2="406"/>
	<line fill="none" stroke="#262626" stroke-linejoin="round" stroke-miterlimit="10" x1="558.075" y1="406" x2="558.075" y2="406"/>
	<line fill="none" x1="558.075" y1="15.4" x2="558.075" y2="15.4"/>
	
		<line fill="none" stroke="#262626" stroke-linejoin="round" stroke-miterlimit="10" x1="558.075" y1="15.4" x2="558.075" y2="15.4"/>
	<path fill="#262626" d="M552.07,420.156h-0.88v-5.6c-0.221,0.198-0.5,0.408-0.841,0.608c-0.34,0.2-0.649,0.351-0.92,0.45v-0.85
		c0.49-0.23,0.92-0.512,1.29-0.842c0.36-0.318,0.62-0.64,0.78-0.96h0.569L552.07,420.156"/>
	<polyline fill="#262626" points="554.811,420.156 554.811,419.156 555.811,419.156 555.811,420.156 554.811,420.156 	"/>
	<path fill="#262626" d="M561.711,419.316v0.84h-4.729c-0.011-0.211,0.029-0.41,0.109-0.61c0.12-0.319,0.311-0.63,0.569-0.948
		c0.261-0.312,0.649-0.672,1.149-1.092c0.78-0.63,1.301-1.13,1.58-1.51c0.271-0.37,0.41-0.721,0.41-1.061s-0.13-0.641-0.38-0.879
		c-0.25-0.24-0.57-0.361-0.97-0.361c-0.421,0-0.761,0.131-1.011,0.381c-0.261,0.26-0.391,0.609-0.391,1.061l-0.899-0.101
		c0.061-0.67,0.289-1.181,0.689-1.54c0.399-0.35,0.95-0.53,1.63-0.53c0.681,0,1.23,0.2,1.63,0.58c0.4,0.38,0.602,0.851,0.602,1.41
		c0,0.29-0.062,0.569-0.182,0.851c-0.119,0.279-0.31,0.569-0.58,0.869c-0.27,0.311-0.72,0.73-1.35,1.262
		c-0.53,0.438-0.87,0.738-1.021,0.898c-0.149,0.16-0.271,0.32-0.369,0.48H561.711"/>
	<path fill="#262626" d="M567.271,419.316v0.84h-4.729c-0.011-0.211,0.029-0.41,0.109-0.61c0.119-0.319,0.311-0.63,0.569-0.948
		c0.261-0.312,0.65-0.672,1.15-1.092c0.779-0.63,1.3-1.13,1.579-1.51c0.271-0.37,0.41-0.721,0.41-1.061s-0.131-0.641-0.381-0.879
		c-0.25-0.24-0.569-0.361-0.97-0.361c-0.42,0-0.76,0.131-1.01,0.381c-0.261,0.26-0.391,0.609-0.391,1.061l-0.899-0.101
		c0.061-0.67,0.29-1.181,0.689-1.54c0.399-0.35,0.949-0.53,1.63-0.53s1.229,0.2,1.63,0.58s0.601,0.851,0.601,1.41
		c0,0.29-0.061,0.569-0.18,0.851c-0.12,0.279-0.311,0.569-0.58,0.869c-0.271,0.311-0.721,0.73-1.351,1.262
		c-0.529,0.438-0.87,0.738-1.021,0.898c-0.149,0.16-0.271,0.32-0.37,0.48H567.271"/>
	<g>
		<g>
			<defs>
				<rect id="SVGID_5_" x="21" y="15.4" width="613.8" height="390.6"/>
			</defs>
			<clipPath id="SVGID_6_">
				<use xlink:href="#SVGID_5_"  overflow="visible"/>
			</clipPath>
			
				<line clip-path="url(#SVGID_6_)" fill="none" stroke="#FFFFFF" stroke-linecap="round" stroke-linejoin="round" stroke-miterlimit="10" x1="481.35" y1="406" x2="481.35" y2="15.4"/>
		</g>
	</g>
	<line fill="none" x1="481.35" y1="406" x2="481.35" y2="406"/>
	<line fill="none" stroke="#262626" stroke-linejoin="round" stroke-miterlimit="10" x1="481.35" y1="406" x2="481.35" y2="406"/>
	<line fill="none" x1="481.35" y1="15.4" x2="481.35" y2="15.4"/>
	<line fill="none" stroke="#262626" stroke-linejoin="round" stroke-miterlimit="10" x1="481.35" y1="15.4" x2="481.35" y2="15.4"/>
	<path fill="#262626" d="M475.346,420.156h-0.88v-5.6c-0.22,0.198-0.5,0.408-0.84,0.608c-0.341,0.2-0.65,0.351-0.92,0.45v-0.85
		c0.489-0.23,0.92-0.512,1.29-0.842c0.359-0.318,0.619-0.64,0.779-0.96h0.569L475.346,420.156"/>
	<polyline fill="#262626" points="478.086,420.156 478.086,419.156 479.086,419.156 479.086,420.156 478.086,420.156 	"/>
	<path fill="#262626" d="M484.985,419.316v0.84h-4.729c-0.011-0.211,0.029-0.41,0.109-0.61c0.12-0.319,0.311-0.63,0.569-0.948
		c0.261-0.312,0.65-0.672,1.15-1.092c0.779-0.63,1.3-1.13,1.58-1.51c0.27-0.37,0.409-0.721,0.409-1.061s-0.13-0.641-0.38-0.879
		c-0.25-0.24-0.569-0.361-0.971-0.361c-0.42,0-0.76,0.131-1.01,0.381c-0.261,0.26-0.391,0.609-0.391,1.061l-0.899-0.101
		c0.061-0.67,0.29-1.181,0.689-1.54c0.399-0.35,0.95-0.53,1.63-0.53c0.681,0,1.229,0.2,1.631,0.58c0.399,0.38,0.6,0.851,0.6,1.41
		c0,0.29-0.06,0.569-0.18,0.851c-0.12,0.279-0.311,0.569-0.58,0.869c-0.271,0.311-0.721,0.73-1.351,1.262
		c-0.529,0.438-0.87,0.738-1.021,0.898c-0.149,0.16-0.271,0.32-0.37,0.48H484.985"/>
	<path fill="#262626" d="M488.746,417.637v-3.229l-2.24,3.229H488.746 M488.746,420.156v-1.711h-3.102v-0.809l3.261-4.642h0.721
		v4.642h0.97v0.809h-0.97v1.711H488.746"/>
	<g>
		<g>
			<defs>
				<rect id="SVGID_7_" x="21" y="15.4" width="613.8" height="390.6"/>
			</defs>
			<clipPath id="SVGID_8_">
				<use xlink:href="#SVGID_7_"  overflow="visible"/>
			</clipPath>
			
				<line clip-path="url(#SVGID_8_)" fill="none" stroke="#FFFFFF" stroke-linecap="round" stroke-linejoin="round" stroke-miterlimit="10" x1="404.625" y1="406" x2="404.625" y2="15.4"/>
		</g>
	</g>
	<line fill="none" x1="404.625" y1="406" x2="404.625" y2="406"/>
	<line fill="none" stroke="#262626" stroke-linejoin="round" stroke-miterlimit="10" x1="404.625" y1="406" x2="404.625" y2="406"/>
	<line fill="none" x1="404.625" y1="15.4" x2="404.625" y2="15.4"/>
	
		<line fill="none" stroke="#262626" stroke-linejoin="round" stroke-miterlimit="10" x1="404.625" y1="15.4" x2="404.625" y2="15.4"/>
	<path fill="#262626" d="M398.621,420.156h-0.881v-5.6c-0.221,0.198-0.5,0.408-0.84,0.608c-0.341,0.2-0.649,0.351-0.921,0.45v-0.85
		c0.49-0.23,0.921-0.512,1.29-0.842c0.36-0.318,0.62-0.64,0.78-0.96h0.57L398.621,420.156"/>
	<polyline fill="#262626" points="401.36,420.156 401.36,419.156 402.36,419.156 402.36,420.156 401.36,420.156 	"/>
	<path fill="#262626" d="M408.261,419.316v0.84h-4.729c-0.011-0.211,0.029-0.41,0.109-0.61c0.12-0.319,0.311-0.63,0.57-0.948
		c0.26-0.312,0.649-0.672,1.149-1.092c0.779-0.63,1.3-1.13,1.58-1.51c0.271-0.37,0.409-0.721,0.409-1.061s-0.13-0.641-0.38-0.879
		c-0.25-0.24-0.569-0.361-0.97-0.361c-0.42,0-0.761,0.131-1.011,0.381c-0.261,0.26-0.391,0.609-0.391,1.061l-0.899-0.101
		c0.061-0.67,0.29-1.181,0.689-1.54c0.4-0.35,0.95-0.53,1.63-0.53c0.681,0,1.23,0.2,1.631,0.58c0.399,0.38,0.601,0.851,0.601,1.41
		c0,0.29-0.062,0.569-0.181,0.851c-0.12,0.279-0.311,0.569-0.58,0.869c-0.271,0.311-0.721,0.73-1.351,1.262
		c-0.529,0.438-0.87,0.738-1.02,0.898c-0.15,0.16-0.271,0.32-0.37,0.48H408.261"/>
	<path fill="#262626" d="M410.181,417.836c0,0.301,0.061,0.59,0.19,0.87c0.119,0.28,0.3,0.489,0.539,0.63
		c0.229,0.15,0.471,0.221,0.729,0.221c0.36,0,0.681-0.149,0.95-0.449c0.26-0.301,0.399-0.7,0.399-1.221
		c0-0.49-0.141-0.881-0.399-1.171c-0.26-0.278-0.59-0.43-0.99-0.43c-0.399,0-0.729,0.149-1.01,0.43
		C410.311,417.006,410.181,417.376,410.181,417.836 M413.771,414.746l-0.88,0.07c-0.08-0.34-0.189-0.59-0.33-0.75
		c-0.239-0.24-0.54-0.371-0.88-0.371c-0.279,0-0.529,0.08-0.739,0.229c-0.28,0.2-0.49,0.5-0.649,0.882
		c-0.16,0.39-0.25,0.938-0.25,1.658c0.21-0.318,0.47-0.55,0.779-0.71c0.301-0.159,0.62-0.239,0.96-0.239
		c0.58,0,1.08,0.221,1.489,0.649c0.41,0.431,0.62,0.989,0.62,1.67c0,0.45-0.1,0.87-0.29,1.25c-0.199,0.392-0.46,0.681-0.8,0.88
		c-0.34,0.2-0.72,0.301-1.149,0.301c-0.74,0-1.33-0.261-1.79-0.801c-0.46-0.529-0.689-1.42-0.689-2.658
		c0-1.382,0.25-2.382,0.76-3.021c0.44-0.54,1.04-0.82,1.801-0.82c0.561,0,1.029,0.16,1.391,0.48
		C413.48,413.768,413.69,414.195,413.771,414.746"/>
	<g>
		<g>
			<defs>
				<rect id="SVGID_9_" x="21" y="15.4" width="613.8" height="390.6"/>
			</defs>
			<clipPath id="SVGID_10_">
				<use xlink:href="#SVGID_9_"  overflow="visible"/>
			</clipPath>
			
				<line clip-path="url(#SVGID_10_)" fill="none" stroke="#FFFFFF" stroke-linecap="round" stroke-linejoin="round" stroke-miterlimit="10" x1="327.9" y1="406" x2="327.9" y2="15.4"/>
		</g>
	</g>
	<line fill="none" x1="327.9" y1="406" x2="327.9" y2="406"/>
	<line fill="none" stroke="#262626" stroke-linejoin="round" stroke-miterlimit="10" x1="327.9" y1="406" x2="327.9" y2="406"/>
	<line fill="none" x1="327.9" y1="15.4" x2="327.9" y2="15.4"/>
	<line fill="none" stroke="#262626" stroke-linejoin="round" stroke-miterlimit="10" x1="327.9" y1="15.4" x2="327.9" y2="15.4"/>
	<path fill="#262626" d="M321.896,420.156h-0.88v-5.6c-0.22,0.198-0.5,0.408-0.84,0.608s-0.649,0.351-0.92,0.45v-0.85
		c0.49-0.23,0.92-0.512,1.29-0.842c0.359-0.318,0.62-0.64,0.779-0.96h0.569L321.896,420.156"/>
	<polyline fill="#262626" points="324.636,420.156 324.636,419.156 325.636,419.156 325.636,420.156 324.636,420.156 	"/>
	<path fill="#262626" d="M331.535,419.316v0.84h-4.729c-0.01-0.211,0.03-0.41,0.11-0.61c0.119-0.319,0.31-0.63,0.569-0.948
		c0.261-0.312,0.649-0.672,1.149-1.092c0.78-0.63,1.3-1.13,1.58-1.51c0.271-0.37,0.41-0.721,0.41-1.061s-0.13-0.641-0.38-0.879
		c-0.25-0.24-0.57-0.361-0.971-0.361c-0.421,0-0.761,0.131-1.011,0.381c-0.26,0.26-0.39,0.609-0.39,1.061l-0.9-0.101
		c0.061-0.67,0.29-1.181,0.69-1.54c0.398-0.35,0.949-0.53,1.63-0.53c0.68,0,1.229,0.2,1.63,0.58c0.399,0.38,0.601,0.851,0.601,1.41
		c0,0.29-0.061,0.569-0.181,0.851c-0.12,0.279-0.311,0.569-0.58,0.869c-0.27,0.311-0.72,0.73-1.35,1.262
		c-0.53,0.438-0.87,0.738-1.021,0.898c-0.148,0.16-0.27,0.32-0.369,0.48H331.535"/>
	<path fill="#262626" d="M333.376,418.086c0,0.262,0.06,0.5,0.18,0.73c0.12,0.24,0.29,0.42,0.53,0.55
		c0.229,0.13,0.479,0.19,0.75,0.19c0.42,0,0.76-0.132,1.04-0.4c0.27-0.27,0.409-0.62,0.409-1.04c0-0.421-0.141-0.761-0.42-1.04
		c-0.279-0.28-0.641-0.42-1.061-0.42s-0.76,0.14-1.029,0.41C333.506,417.348,333.376,417.688,333.376,418.086 M333.655,414.786
		c0,0.34,0.109,0.62,0.33,0.83c0.221,0.22,0.5,0.319,0.851,0.319c0.34,0,0.609-0.101,0.83-0.319c0.22-0.21,0.33-0.47,0.33-0.78
		c0-0.318-0.12-0.59-0.341-0.811c-0.221-0.219-0.5-0.33-0.83-0.33c-0.34,0-0.619,0.111-0.84,0.32
		C333.766,414.236,333.655,414.486,333.655,414.786 M333.836,416.275c-0.37-0.129-0.641-0.319-0.82-0.569
		c-0.18-0.24-0.26-0.54-0.26-0.89c0-0.521,0.18-0.95,0.561-1.312c0.38-0.358,0.88-0.54,1.5-0.54c0.619,0,1.13,0.189,1.51,0.551
		c0.381,0.359,0.569,0.801,0.569,1.319c0,0.34-0.09,0.63-0.26,0.87c-0.18,0.25-0.439,0.439-0.8,0.57c0.439,0.14,0.771,0.369,1,0.688
		c0.229,0.32,0.35,0.7,0.35,1.142c0,0.619-0.22,1.129-0.649,1.539c-0.439,0.42-1.01,0.621-1.71,0.621
		c-0.71,0-1.279-0.201-1.71-0.621c-0.43-0.41-0.641-0.931-0.641-1.561c0-0.46,0.11-0.85,0.351-1.17
		C333.056,416.605,333.396,416.396,333.836,416.275"/>
	<g>
		<g>
			<defs>
				<rect id="SVGID_11_" x="21" y="15.4" width="613.8" height="390.6"/>
			</defs>
			<clipPath id="SVGID_12_">
				<use xlink:href="#SVGID_11_"  overflow="visible"/>
			</clipPath>
			
				<line clip-path="url(#SVGID_12_)" fill="none" stroke="#FFFFFF" stroke-linecap="round" stroke-linejoin="round" stroke-miterlimit="10" x1="251.175" y1="406" x2="251.175" y2="15.4"/>
		</g>
	</g>
	<line fill="none" x1="251.175" y1="406" x2="251.175" y2="406"/>
	<line fill="none" stroke="#262626" stroke-linejoin="round" stroke-miterlimit="10" x1="251.175" y1="406" x2="251.175" y2="406"/>
	<line fill="none" x1="251.175" y1="15.4" x2="251.175" y2="15.4"/>
	
		<line fill="none" stroke="#262626" stroke-linejoin="round" stroke-miterlimit="10" x1="251.175" y1="15.4" x2="251.175" y2="15.4"/>
	<path fill="#262626" d="M245.17,420.156h-0.88v-5.6c-0.22,0.198-0.5,0.408-0.84,0.608c-0.34,0.2-0.65,0.351-0.92,0.45v-0.85
		c0.49-0.23,0.92-0.512,1.29-0.842c0.36-0.318,0.62-0.64,0.78-0.96h0.57V420.156"/>
	<polyline fill="#262626" points="247.911,420.156 247.911,419.156 248.911,419.156 248.911,420.156 247.911,420.156 	"/>
	<path fill="#262626" d="M250.201,418.268l0.88-0.121c0.1,0.5,0.27,0.859,0.51,1.08c0.24,0.221,0.54,0.33,0.89,0.33
		c0.41,0,0.76-0.141,1.04-0.431c0.28-0.278,0.43-0.64,0.43-1.06c0-0.4-0.14-0.74-0.4-1c-0.26-0.26-0.6-0.4-1-0.4
		c-0.17,0-0.38,0.04-0.62,0.102l0.1-0.771c0.06,0.01,0.1,0.01,0.14,0.01c0.37,0,0.71-0.09,1.01-0.29c0.3-0.198,0.45-0.5,0.45-0.909
		c0-0.32-0.11-0.58-0.33-0.789c-0.22-0.211-0.5-0.32-0.84-0.32s-0.63,0.109-0.86,0.32c-0.23,0.219-0.37,0.539-0.43,0.959
		l-0.88-0.149c0.1-0.591,0.35-1.05,0.73-1.37c0.38-0.318,0.85-0.49,1.42-0.49c0.39,0,0.75,0.092,1.08,0.262
		c0.32,0.17,0.57,0.398,0.75,0.68c0.18,0.29,0.27,0.6,0.27,0.92s-0.09,0.6-0.25,0.85c-0.17,0.262-0.42,0.461-0.74,0.602
		c0.42,0.1,0.74,0.31,0.98,0.609c0.24,0.311,0.36,0.699,0.36,1.159c0,0.62-0.23,1.15-0.69,1.58c-0.46,0.44-1.03,0.649-1.72,0.649
		c-0.64,0-1.16-0.18-1.57-0.561C250.491,419.348,250.261,418.866,250.201,418.268"/>
	<path fill="#262626" d="M256.661,416.626c0,1.181,0.13,1.96,0.41,2.351c0.27,0.391,0.61,0.58,1.02,0.58c0.4,0,0.73-0.189,1.01-0.58
		c0.28-0.391,0.42-1.17,0.42-2.351s-0.14-1.96-0.42-2.351c-0.28-0.379-0.62-0.58-1.02-0.58c-0.41,0-0.73,0.171-0.97,0.511
		C256.811,414.646,256.661,415.456,256.661,416.626 M255.761,416.626c0-0.84,0.08-1.521,0.26-2.04c0.17-0.52,0.43-0.92,0.77-1.199
		s0.78-0.421,1.3-0.421c0.38,0,0.72,0.08,1.01,0.24c0.28,0.16,0.52,0.38,0.71,0.67s0.34,0.642,0.45,1.062
		c0.1,0.42,0.16,0.988,0.16,1.688c0,0.84-0.09,1.521-0.26,2.04c-0.17,0.521-0.43,0.91-0.77,1.189c-0.34,0.281-0.78,0.41-1.3,0.41
		c-0.7,0-1.24-0.24-1.63-0.729C255.991,418.945,255.761,417.977,255.761,416.626"/>
	<g>
		<g>
			<defs>
				<rect id="SVGID_13_" x="21" y="15.4" width="613.8" height="390.6"/>
			</defs>
			<clipPath id="SVGID_14_">
				<use xlink:href="#SVGID_13_"  overflow="visible"/>
			</clipPath>
			
				<line clip-path="url(#SVGID_14_)" fill="none" stroke="#FFFFFF" stroke-linecap="round" stroke-linejoin="round" stroke-miterlimit="10" x1="174.45" y1="406" x2="174.45" y2="15.4"/>
		</g>
	</g>
	<line fill="none" x1="174.45" y1="406" x2="174.45" y2="406"/>
	<line fill="none" stroke="#262626" stroke-linejoin="round" stroke-miterlimit="10" x1="174.45" y1="406" x2="174.45" y2="406"/>
	<line fill="none" x1="174.45" y1="15.4" x2="174.45" y2="15.4"/>
	<line fill="none" stroke="#262626" stroke-linejoin="round" stroke-miterlimit="10" x1="174.45" y1="15.4" x2="174.45" y2="15.4"/>
	<path fill="#262626" d="M168.446,420.156h-0.88v-5.6c-0.22,0.198-0.5,0.408-0.84,0.608s-0.65,0.351-0.92,0.45v-0.85
		c0.49-0.23,0.92-0.512,1.29-0.842c0.36-0.318,0.62-0.64,0.78-0.96h0.57V420.156"/>
	<polyline fill="#262626" points="171.186,420.156 171.186,419.156 172.186,419.156 172.186,420.156 171.186,420.156 	"/>
	<path fill="#262626" d="M173.476,418.268l0.88-0.121c0.1,0.5,0.27,0.859,0.51,1.08c0.24,0.221,0.54,0.33,0.89,0.33
		c0.41,0,0.76-0.141,1.04-0.431c0.28-0.278,0.43-0.64,0.43-1.06c0-0.4-0.14-0.74-0.4-1c-0.26-0.26-0.6-0.4-1-0.4
		c-0.17,0-0.38,0.04-0.62,0.102l0.1-0.771c0.06,0.01,0.1,0.01,0.14,0.01c0.37,0,0.71-0.09,1.01-0.29c0.3-0.198,0.45-0.5,0.45-0.909
		c0-0.32-0.11-0.58-0.33-0.789c-0.22-0.211-0.5-0.32-0.84-0.32c-0.34,0-0.63,0.109-0.86,0.32c-0.23,0.219-0.37,0.539-0.43,0.959
		l-0.88-0.149c0.1-0.591,0.35-1.05,0.73-1.37c0.38-0.318,0.85-0.49,1.42-0.49c0.39,0,0.75,0.092,1.08,0.262
		c0.32,0.17,0.57,0.398,0.75,0.68c0.18,0.29,0.27,0.6,0.27,0.92s-0.09,0.6-0.25,0.85c-0.17,0.262-0.42,0.461-0.74,0.602
		c0.42,0.1,0.74,0.31,0.98,0.609c0.24,0.311,0.36,0.699,0.36,1.159c0,0.62-0.23,1.15-0.69,1.58c-0.46,0.44-1.03,0.649-1.72,0.649
		c-0.64,0-1.16-0.18-1.57-0.561C173.766,419.348,173.536,418.866,173.476,418.268"/>
	<path fill="#262626" d="M183.646,419.316v0.84h-4.73c-0.01-0.211,0.03-0.41,0.11-0.61c0.12-0.319,0.31-0.63,0.57-0.948
		c0.26-0.312,0.65-0.672,1.15-1.092c0.78-0.63,1.3-1.13,1.58-1.51c0.27-0.37,0.41-0.721,0.41-1.061s-0.13-0.641-0.38-0.879
		c-0.25-0.24-0.57-0.361-0.97-0.361c-0.42,0-0.76,0.131-1.01,0.381c-0.26,0.26-0.39,0.609-0.39,1.061l-0.9-0.101
		c0.06-0.67,0.29-1.181,0.69-1.54c0.4-0.35,0.95-0.53,1.63-0.53c0.68,0,1.23,0.2,1.63,0.58s0.6,0.851,0.6,1.41
		c0,0.29-0.06,0.569-0.18,0.851c-0.12,0.279-0.31,0.569-0.58,0.869c-0.27,0.311-0.72,0.73-1.35,1.262
		c-0.53,0.438-0.87,0.738-1.02,0.898c-0.15,0.16-0.271,0.32-0.37,0.48H183.646"/>
	<g>
		<g>
			<defs>
				<rect id="SVGID_15_" x="21" y="15.4" width="613.8" height="390.6"/>
			</defs>
			<clipPath id="SVGID_16_">
				<use xlink:href="#SVGID_15_"  overflow="visible"/>
			</clipPath>
			
				<line clip-path="url(#SVGID_16_)" fill="none" stroke="#FFFFFF" stroke-linecap="round" stroke-linejoin="round" stroke-miterlimit="10" x1="97.725" y1="406" x2="97.725" y2="15.4"/>
		</g>
	</g>
	<line fill="none" x1="97.725" y1="406" x2="97.725" y2="406"/>
	<line fill="none" stroke="#262626" stroke-linejoin="round" stroke-miterlimit="10" x1="97.725" y1="406" x2="97.725" y2="406"/>
	<line fill="none" x1="97.725" y1="15.4" x2="97.725" y2="15.4"/>
	<line fill="none" stroke="#262626" stroke-linejoin="round" stroke-miterlimit="10" x1="97.725" y1="15.4" x2="97.725" y2="15.4"/>
	<path fill="#262626" d="M91.721,420.156h-0.88v-5.6c-0.22,0.198-0.5,0.408-0.84,0.608s-0.65,0.351-0.92,0.45v-0.85
		c0.49-0.23,0.92-0.512,1.29-0.842c0.36-0.318,0.62-0.64,0.78-0.96h0.57V420.156"/>
	<polyline fill="#262626" points="94.46,420.156 94.46,419.156 95.46,419.156 95.46,420.156 94.46,420.156 	"/>
	<path fill="#262626" d="M96.75,418.268l0.88-0.121c0.1,0.5,0.27,0.859,0.51,1.08c0.24,0.221,0.54,0.33,0.89,0.33
		c0.41,0,0.76-0.141,1.04-0.431c0.28-0.278,0.43-0.64,0.43-1.06c0-0.4-0.14-0.74-0.4-1c-0.26-0.26-0.6-0.4-1-0.4
		c-0.17,0-0.38,0.04-0.62,0.102l0.1-0.771c0.06,0.01,0.1,0.01,0.14,0.01c0.37,0,0.71-0.09,1.01-0.29c0.3-0.198,0.45-0.5,0.45-0.909
		c0-0.32-0.11-0.58-0.33-0.789c-0.22-0.211-0.5-0.32-0.84-0.32c-0.34,0-0.63,0.109-0.86,0.32c-0.23,0.219-0.37,0.539-0.43,0.959
		l-0.88-0.149c0.1-0.591,0.35-1.05,0.73-1.37c0.38-0.318,0.85-0.49,1.42-0.49c0.39,0,0.75,0.092,1.08,0.262
		c0.32,0.17,0.57,0.398,0.75,0.68c0.18,0.29,0.27,0.6,0.27,0.92s-0.09,0.6-0.25,0.85c-0.17,0.262-0.42,0.461-0.74,0.602
		c0.42,0.1,0.74,0.31,0.98,0.609c0.24,0.311,0.36,0.699,0.36,1.159c0,0.62-0.23,1.15-0.69,1.58c-0.46,0.44-1.03,0.649-1.72,0.649
		c-0.64,0-1.16-0.18-1.57-0.561C97.041,419.348,96.811,418.866,96.75,418.268"/>
	<path fill="#262626" d="M105.121,417.637v-3.229l-2.24,3.229H105.121 M105.121,420.156v-1.711h-3.1v-0.809l3.26-4.642H106v4.642
		h0.97v0.809H106v1.711H105.121"/>
	<g>
		<g>
			<defs>
				<rect id="SVGID_17_" x="21" y="15.4" width="613.8" height="390.6"/>
			</defs>
			<clipPath id="SVGID_18_">
				<use xlink:href="#SVGID_17_"  overflow="visible"/>
			</clipPath>
			
				<line clip-path="url(#SVGID_18_)" fill="none" stroke="#FFFFFF" stroke-linecap="round" stroke-linejoin="round" stroke-miterlimit="10" x1="21" y1="406" x2="21" y2="15.4"/>
		</g>
	</g>
	<line fill="none" x1="21" y1="406" x2="21" y2="406"/>
	<line fill="none" stroke="#262626" stroke-linejoin="round" stroke-miterlimit="10" x1="21" y1="406" x2="21" y2="406"/>
	<line fill="none" x1="21" y1="15.4" x2="21" y2="15.4"/>
	<line fill="none" stroke="#262626" stroke-linejoin="round" stroke-miterlimit="10" x1="21" y1="15.4" x2="21" y2="15.4"/>
	<path fill="#262626" d="M14.996,420.156h-0.88v-5.6c-0.22,0.198-0.5,0.408-0.84,0.608c-0.34,0.2-0.65,0.351-0.92,0.45v-0.85
		c0.49-0.23,0.92-0.512,1.29-0.842c0.36-0.318,0.62-0.64,0.78-0.96h0.57V420.156"/>
	<polyline fill="#262626" points="17.736,420.156 17.736,419.156 18.736,419.156 18.736,420.156 17.736,420.156 	"/>
	<path fill="#262626" d="M20.025,418.268l0.88-0.121c0.1,0.5,0.27,0.859,0.51,1.08c0.24,0.221,0.54,0.33,0.89,0.33
		c0.41,0,0.76-0.141,1.04-0.431c0.28-0.278,0.43-0.64,0.43-1.06c0-0.4-0.14-0.74-0.4-1s-0.6-0.4-1-0.4c-0.17,0-0.38,0.04-0.62,0.102
		l0.1-0.771c0.06,0.01,0.1,0.01,0.14,0.01c0.37,0,0.71-0.09,1.01-0.29c0.3-0.198,0.45-0.5,0.45-0.909c0-0.32-0.11-0.58-0.33-0.789
		c-0.22-0.211-0.5-0.32-0.84-0.32c-0.34,0-0.63,0.109-0.86,0.32c-0.23,0.219-0.37,0.539-0.43,0.959l-0.88-0.149
		c0.1-0.591,0.35-1.05,0.73-1.37c0.38-0.318,0.85-0.49,1.42-0.49c0.39,0,0.75,0.092,1.08,0.262c0.32,0.17,0.57,0.398,0.75,0.68
		c0.18,0.29,0.27,0.6,0.27,0.92s-0.09,0.6-0.25,0.85c-0.17,0.262-0.42,0.461-0.74,0.602c0.42,0.1,0.74,0.31,0.98,0.609
		c0.24,0.311,0.36,0.699,0.36,1.159c0,0.62-0.23,1.15-0.69,1.58c-0.46,0.44-1.03,0.649-1.72,0.649c-0.64,0-1.16-0.18-1.57-0.561
		C20.315,419.348,20.085,418.866,20.025,418.268"/>
	<path fill="#262626" d="M26.556,417.836c0,0.301,0.06,0.59,0.19,0.87c0.12,0.28,0.3,0.489,0.54,0.63
		c0.23,0.15,0.47,0.221,0.73,0.221c0.36,0,0.68-0.149,0.95-0.449c0.26-0.301,0.4-0.7,0.4-1.221c0-0.49-0.14-0.881-0.4-1.171
		c-0.26-0.278-0.59-0.43-0.99-0.43s-0.73,0.149-1.01,0.43C26.686,417.006,26.556,417.376,26.556,417.836 M30.146,414.746l-0.88,0.07
		c-0.08-0.34-0.19-0.59-0.33-0.75c-0.24-0.24-0.54-0.371-0.88-0.371c-0.28,0-0.53,0.08-0.74,0.229c-0.28,0.2-0.49,0.5-0.65,0.882
		c-0.16,0.39-0.25,0.938-0.25,1.658c0.21-0.318,0.47-0.55,0.78-0.71c0.3-0.159,0.62-0.239,0.96-0.239c0.58,0,1.08,0.221,1.49,0.649
		c0.41,0.431,0.62,0.989,0.62,1.67c0,0.45-0.1,0.87-0.29,1.25c-0.2,0.392-0.46,0.681-0.8,0.88c-0.34,0.2-0.72,0.301-1.15,0.301
		c-0.74,0-1.33-0.261-1.79-0.801c-0.46-0.529-0.69-1.42-0.69-2.658c0-1.382,0.25-2.382,0.76-3.021c0.44-0.54,1.04-0.82,1.8-0.82
		c0.56,0,1.03,0.16,1.39,0.48S30.065,414.195,30.146,414.746"/>
	<path fill="#262626" d="M318.795,432.199c0,0.736,0.145,1.275,0.44,1.628c0.297,0.353,0.66,0.518,1.078,0.518
		c0.429,0,0.792-0.176,1.1-0.539c0.308-0.362,0.462-0.924,0.462-1.693c0-0.727-0.154-1.266-0.451-1.628
		c-0.297-0.353-0.647-0.539-1.065-0.539s-0.781,0.197-1.091,0.583C318.949,430.913,318.795,431.474,318.795,432.199
		 M317.915,437.193v-7.888h0.88v0.748c0.198-0.286,0.44-0.506,0.704-0.648c0.264-0.144,0.572-0.221,0.946-0.221
		c0.482,0,0.913,0.133,1.287,0.374c0.374,0.253,0.647,0.605,0.847,1.067c0.187,0.462,0.286,0.957,0.286,1.496
		c0,0.583-0.11,1.11-0.319,1.572c-0.209,0.474-0.517,0.836-0.913,1.077c-0.396,0.242-0.812,0.363-1.254,0.363
		c-0.33,0-0.616-0.065-0.869-0.198c-0.264-0.132-0.473-0.297-0.627-0.517v2.771h-0.968"/>
	<path fill="#262626" d="M324.911,432.199c0,0.736,0.143,1.275,0.438,1.628c0.299,0.353,0.66,0.518,1.078,0.518
		c0.431,0,0.792-0.176,1.102-0.539c0.308-0.362,0.462-0.924,0.462-1.693c0-0.727-0.154-1.266-0.451-1.628
		c-0.297-0.353-0.649-0.539-1.067-0.539s-0.779,0.197-1.089,0.583C325.065,430.913,324.911,431.474,324.911,432.199
		 M324.031,437.193v-7.888h0.88v0.748c0.198-0.286,0.438-0.506,0.704-0.648c0.264-0.144,0.571-0.221,0.946-0.221
		c0.482,0,0.911,0.133,1.285,0.374c0.374,0.253,0.649,0.605,0.849,1.067c0.187,0.462,0.286,0.957,0.286,1.496
		c0,0.583-0.11,1.11-0.319,1.572c-0.209,0.474-0.517,0.836-0.913,1.077c-0.396,0.242-0.812,0.363-1.254,0.363
		c-0.33,0-0.616-0.065-0.869-0.198c-0.264-0.132-0.473-0.297-0.627-0.517v2.771h-0.968"/>
	<path fill="#262626" d="M330.147,435.016v-5.709h0.867v0.804c0.178-0.274,0.407-0.495,0.704-0.671
		c0.297-0.165,0.64-0.254,1.023-0.254c0.418,0,0.759,0.089,1.034,0.265c0.264,0.177,0.462,0.43,0.57,0.737
		c0.451-0.66,1.034-1.002,1.762-1.002c0.57,0,1.001,0.165,1.309,0.474s0.462,0.792,0.462,1.44v3.916h-0.968v-3.597
		c0-0.374-0.033-0.649-0.099-0.825c-0.066-0.176-0.178-0.309-0.343-0.418c-0.165-0.1-0.352-0.153-0.57-0.153
		c-0.407,0-0.737,0.144-1.001,0.406c-0.266,0.265-0.396,0.693-0.396,1.276v3.311h-0.968v-3.707c0-0.429-0.088-0.748-0.242-0.968
		c-0.154-0.209-0.418-0.318-0.77-0.318c-0.275,0-0.528,0.076-0.761,0.22c-0.229,0.144-0.396,0.353-0.494,0.627
		c-0.109,0.275-0.153,0.672-0.153,1.188v2.959H330.147"/>
	<g>
		<g>
			<defs>
				<rect id="SVGID_19_" x="21" y="15.4" width="613.8" height="390.6"/>
			</defs>
			<clipPath id="SVGID_20_">
				<use xlink:href="#SVGID_19_"  overflow="visible"/>
			</clipPath>
			
				<line clip-path="url(#SVGID_20_)" fill="none" stroke="#FFFFFF" stroke-linecap="round" stroke-linejoin="round" stroke-miterlimit="10" x1="21" y1="406" x2="634.8" y2="406"/>
		</g>
	</g>
	<line fill="none" x1="21" y1="406" x2="21" y2="406"/>
	<line fill="none" stroke="#262626" stroke-linejoin="round" stroke-miterlimit="10" x1="21" y1="406" x2="21" y2="406"/>
	<line fill="none" x1="634.8" y1="406" x2="634.8" y2="406"/>
	<line fill="none" stroke="#262626" stroke-linejoin="round" stroke-miterlimit="10" x1="634.8" y1="406" x2="634.8" y2="406"/>
	<path fill="#262626" d="M9.757,405.057c0,1.18,0.13,1.959,0.41,2.351c0.27,0.39,0.61,0.579,1.02,0.579c0.4,0,0.73-0.189,1.01-0.579
		c0.28-0.392,0.42-1.171,0.42-2.351c0-1.181-0.14-1.961-0.42-2.351c-0.28-0.38-0.62-0.58-1.02-0.58c-0.41,0-0.73,0.17-0.97,0.511
		C9.908,403.076,9.757,403.886,9.757,405.057 M8.857,405.057c0-0.841,0.08-1.521,0.26-2.041c0.17-0.52,0.43-0.92,0.77-1.199
		c0.34-0.279,0.78-0.42,1.3-0.42c0.38,0,0.72,0.08,1.01,0.239c0.28,0.16,0.52,0.38,0.71,0.671c0.19,0.289,0.34,0.641,0.45,1.061
		c0.1,0.42,0.16,0.988,0.16,1.689c0,0.84-0.09,1.521-0.26,2.039c-0.17,0.521-0.43,0.91-0.77,1.19c-0.34,0.28-0.78,0.409-1.3,0.409
		c-0.7,0-1.24-0.239-1.63-0.729C9.087,407.376,8.857,406.406,8.857,405.057"/>
	<g>
		<g>
			<defs>
				<rect id="SVGID_21_" x="21" y="15.4" width="613.8" height="390.6"/>
			</defs>
			<clipPath id="SVGID_22_">
				<use xlink:href="#SVGID_21_"  overflow="visible"/>
			</clipPath>
			
				<line clip-path="url(#SVGID_22_)" fill="none" stroke="#FFFFFF" stroke-linecap="round" stroke-linejoin="round" stroke-miterlimit="10" x1="21" y1="362.6" x2="634.8" y2="362.6"/>
		</g>
	</g>
	<line fill="none" x1="21" y1="362.6" x2="21" y2="362.6"/>
	<line fill="none" stroke="#262626" stroke-linejoin="round" stroke-miterlimit="10" x1="21" y1="362.6" x2="21" y2="362.6"/>
	<line fill="none" x1="634.8" y1="362.6" x2="634.8" y2="362.6"/>
	<line fill="none" stroke="#262626" stroke-linejoin="round" stroke-miterlimit="10" x1="634.8" y1="362.6" x2="634.8" y2="362.6"/>
	<path fill="#262626" d="M12.167,365.186h-0.88v-5.6c-0.22,0.2-0.5,0.41-0.84,0.609c-0.34,0.199-0.65,0.351-0.92,0.449v-0.85
		c0.49-0.229,0.92-0.51,1.29-0.84c0.36-0.32,0.62-0.641,0.78-0.96h0.57V365.186"/>
	<g>
		<g>
			<defs>
				<rect id="SVGID_23_" x="21" y="15.4" width="613.8" height="390.6"/>
			</defs>
			<clipPath id="SVGID_24_">
				<use xlink:href="#SVGID_23_"  overflow="visible"/>
			</clipPath>
			
				<line clip-path="url(#SVGID_24_)" fill="none" stroke="#FFFFFF" stroke-linecap="round" stroke-linejoin="round" stroke-miterlimit="10" x1="21" y1="319.2" x2="634.8" y2="319.2"/>
		</g>
	</g>
	<line fill="none" x1="21" y1="319.2" x2="21" y2="319.2"/>
	<line fill="none" stroke="#262626" stroke-linejoin="round" stroke-miterlimit="10" x1="21" y1="319.2" x2="21" y2="319.2"/>
	<line fill="none" x1="634.8" y1="319.2" x2="634.8" y2="319.2"/>
	<line fill="none" stroke="#262626" stroke-linejoin="round" stroke-miterlimit="10" x1="634.8" y1="319.2" x2="634.8" y2="319.2"/>
	<path fill="#262626" d="M13.467,320.945v0.841h-4.73c-0.01-0.21,0.03-0.41,0.11-0.61c0.12-0.32,0.31-0.63,0.57-0.949
		c0.26-0.311,0.65-0.67,1.15-1.09c0.78-0.631,1.3-1.131,1.58-1.511c0.27-0.37,0.41-0.72,0.41-1.06c0-0.342-0.13-0.642-0.38-0.881
		c-0.25-0.24-0.57-0.359-0.97-0.359c-0.42,0-0.76,0.13-1.01,0.38c-0.26,0.26-0.39,0.61-0.39,1.06l-0.9-0.1
		c0.06-0.67,0.29-1.18,0.69-1.54c0.4-0.351,0.95-0.53,1.63-0.53s1.23,0.2,1.63,0.58c0.4,0.381,0.6,0.852,0.6,1.41
		c0,0.29-0.06,0.57-0.18,0.85c-0.12,0.28-0.31,0.57-0.58,0.871c-0.27,0.311-0.72,0.729-1.35,1.26c-0.53,0.439-0.87,0.74-1.02,0.899
		c-0.15,0.16-0.27,0.32-0.37,0.479H13.467"/>
	<g>
		<g>
			<defs>
				<rect id="SVGID_25_" x="21" y="15.4" width="613.8" height="390.6"/>
			</defs>
			<clipPath id="SVGID_26_">
				<use xlink:href="#SVGID_25_"  overflow="visible"/>
			</clipPath>
			
				<line clip-path="url(#SVGID_26_)" fill="none" stroke="#FFFFFF" stroke-linecap="round" stroke-linejoin="round" stroke-miterlimit="10" x1="21" y1="275.8" x2="634.8" y2="275.8"/>
		</g>
	</g>
	<line fill="none" x1="21" y1="275.8" x2="21" y2="275.8"/>
	<line fill="none" stroke="#262626" stroke-linejoin="round" stroke-miterlimit="10" x1="21" y1="275.8" x2="21" y2="275.8"/>
	<line fill="none" x1="634.8" y1="275.8" x2="634.8" y2="275.8"/>
	<line fill="none" stroke="#262626" stroke-linejoin="round" stroke-miterlimit="10" x1="634.8" y1="275.8" x2="634.8" y2="275.8"/>
	<path fill="#262626" d="M8.857,276.496l0.88-0.12c0.1,0.5,0.27,0.86,0.51,1.08c0.24,0.22,0.54,0.33,0.89,0.33
		c0.41,0,0.76-0.142,1.04-0.431c0.28-0.279,0.43-0.641,0.43-1.061c0-0.4-0.14-0.74-0.4-1c-0.26-0.26-0.6-0.4-1-0.4
		c-0.17,0-0.38,0.041-0.62,0.102l0.1-0.771c0.06,0.012,0.1,0.012,0.14,0.012c0.37,0,0.71-0.092,1.01-0.291
		c0.3-0.199,0.45-0.5,0.45-0.909c0-0.32-0.11-0.58-0.33-0.79c-0.22-0.21-0.5-0.32-0.84-0.32c-0.34,0-0.63,0.11-0.86,0.32
		c-0.23,0.22-0.37,0.54-0.43,0.96l-0.88-0.149c0.1-0.591,0.35-1.051,0.73-1.371c0.38-0.318,0.85-0.488,1.42-0.488
		c0.39,0,0.75,0.09,1.08,0.26c0.32,0.17,0.57,0.398,0.75,0.68c0.18,0.29,0.27,0.602,0.27,0.92c0,0.32-0.09,0.602-0.25,0.852
		c-0.17,0.26-0.42,0.46-0.74,0.6c0.42,0.1,0.74,0.311,0.98,0.61c0.24,0.31,0.36,0.7,0.36,1.159c0,0.619-0.23,1.149-0.69,1.58
		c-0.46,0.439-1.03,0.649-1.72,0.649c-0.64,0-1.16-0.18-1.57-0.56C9.147,277.576,8.917,277.096,8.857,276.496"/>
	<g>
		<g>
			<defs>
				<rect id="SVGID_27_" x="21" y="15.4" width="613.8" height="390.6"/>
			</defs>
			<clipPath id="SVGID_28_">
				<use xlink:href="#SVGID_27_"  overflow="visible"/>
			</clipPath>
			
				<line clip-path="url(#SVGID_28_)" fill="none" stroke="#FFFFFF" stroke-linecap="round" stroke-linejoin="round" stroke-miterlimit="10" x1="21" y1="232.4" x2="634.8" y2="232.4"/>
		</g>
	</g>
	<line fill="none" x1="21" y1="232.4" x2="21" y2="232.4"/>
	<line fill="none" stroke="#262626" stroke-linejoin="round" stroke-miterlimit="10" x1="21" y1="232.4" x2="21" y2="232.4"/>
	<line fill="none" x1="634.8" y1="232.4" x2="634.8" y2="232.4"/>
	<line fill="none" stroke="#262626" stroke-linejoin="round" stroke-miterlimit="10" x1="634.8" y1="232.4" x2="634.8" y2="232.4"/>
	<path fill="#262626" d="M11.667,232.466v-3.229l-2.24,3.229H11.667 M11.667,234.986v-1.711h-3.1v-0.811l3.26-4.64h0.72v4.64h0.97
		v0.811h-0.97v1.711H11.667"/>
	<g>
		<g>
			<defs>
				<rect id="SVGID_29_" x="21" y="15.4" width="613.8" height="390.6"/>
			</defs>
			<clipPath id="SVGID_30_">
				<use xlink:href="#SVGID_29_"  overflow="visible"/>
			</clipPath>
			
				<line clip-path="url(#SVGID_30_)" fill="none" stroke="#FFFFFF" stroke-linecap="round" stroke-linejoin="round" stroke-miterlimit="10" x1="21" y1="189" x2="634.8" y2="189"/>
		</g>
	</g>
	<line fill="none" x1="21" y1="189" x2="21" y2="189"/>
	<line fill="none" stroke="#262626" stroke-linejoin="round" stroke-miterlimit="10" x1="21" y1="189" x2="21" y2="189"/>
	<line fill="none" x1="634.8" y1="189" x2="634.8" y2="189"/>
	<line fill="none" stroke="#262626" stroke-linejoin="round" stroke-miterlimit="10" x1="634.8" y1="189" x2="634.8" y2="189"/>
	<path fill="#262626" d="M8.857,189.706l0.92-0.07c0.06,0.45,0.22,0.79,0.47,1.01c0.25,0.23,0.55,0.34,0.9,0.34
		c0.42,0,0.78-0.16,1.08-0.48c0.29-0.32,0.44-0.74,0.44-1.27c0-0.5-0.15-0.89-0.43-1.18c-0.28-0.29-0.65-0.44-1.1-0.44
		c-0.28,0-0.54,0.07-0.77,0.2s-0.41,0.29-0.53,0.49l-0.83-0.1l0.69-3.68h3.56v0.84h-2.85l-0.39,1.92c0.43-0.3,0.88-0.45,1.35-0.45
		c0.62,0,1.15,0.22,1.58,0.65c0.43,0.44,0.65,0.99,0.65,1.67c0,0.65-0.19,1.21-0.57,1.68c-0.46,0.58-1.08,0.86-1.88,0.86
		c-0.65,0-1.18-0.18-1.59-0.54C9.138,190.796,8.908,190.316,8.857,189.706"/>
	<g>
		<g>
			<defs>
				<rect id="SVGID_31_" x="21" y="15.4" width="613.8" height="390.6"/>
			</defs>
			<clipPath id="SVGID_32_">
				<use xlink:href="#SVGID_31_"  overflow="visible"/>
			</clipPath>
			
				<line clip-path="url(#SVGID_32_)" fill="none" stroke="#FFFFFF" stroke-linecap="round" stroke-linejoin="round" stroke-miterlimit="10" x1="21" y1="145.6" x2="634.8" y2="145.6"/>
		</g>
	</g>
	<line fill="none" x1="21" y1="145.6" x2="21" y2="145.6"/>
	<line fill="none" stroke="#262626" stroke-linejoin="round" stroke-miterlimit="10" x1="21" y1="145.6" x2="21" y2="145.6"/>
	<line fill="none" x1="634.8" y1="145.6" x2="634.8" y2="145.6"/>
	<line fill="none" stroke="#262626" stroke-linejoin="round" stroke-miterlimit="10" x1="634.8" y1="145.6" x2="634.8" y2="145.6"/>
	<path fill="#262626" d="M9.828,145.866c0,0.3,0.06,0.59,0.19,0.87c0.12,0.28,0.3,0.49,0.54,0.63c0.23,0.15,0.47,0.22,0.73,0.22
		c0.36,0,0.68-0.15,0.95-0.45c0.26-0.3,0.4-0.7,0.4-1.22c0-0.49-0.14-0.88-0.4-1.17c-0.26-0.28-0.59-0.43-0.99-0.43
		s-0.73,0.15-1.01,0.43C9.958,145.036,9.828,145.406,9.828,145.866 M13.417,142.776l-0.88,0.07c-0.08-0.34-0.19-0.59-0.33-0.75
		c-0.24-0.24-0.54-0.37-0.88-0.37c-0.28,0-0.53,0.08-0.74,0.23c-0.28,0.2-0.49,0.5-0.65,0.88c-0.16,0.39-0.25,0.94-0.25,1.66
		c0.21-0.32,0.47-0.55,0.78-0.71c0.3-0.16,0.62-0.24,0.96-0.24c0.58,0,1.08,0.22,1.49,0.65c0.41,0.43,0.62,0.99,0.62,1.67
		c0,0.45-0.1,0.87-0.29,1.25c-0.2,0.39-0.46,0.68-0.8,0.88c-0.34,0.2-0.72,0.3-1.15,0.3c-0.74,0-1.33-0.26-1.79-0.8
		c-0.46-0.53-0.69-1.42-0.69-2.66c0-1.38,0.25-2.38,0.76-3.02c0.44-0.54,1.04-0.82,1.8-0.82c0.56,0,1.03,0.16,1.39,0.48
		S13.337,142.226,13.417,142.776"/>
	<g>
		<g>
			<defs>
				<rect id="SVGID_33_" x="21" y="15.4" width="613.8" height="390.6"/>
			</defs>
			<clipPath id="SVGID_34_">
				<use xlink:href="#SVGID_33_"  overflow="visible"/>
			</clipPath>
			
				<line clip-path="url(#SVGID_34_)" fill="none" stroke="#FFFFFF" stroke-linecap="round" stroke-linejoin="round" stroke-miterlimit="10" x1="21" y1="102.2" x2="634.8" y2="102.2"/>
		</g>
	</g>
	<line fill="none" x1="21" y1="102.2" x2="21" y2="102.2"/>
	<line fill="none" stroke="#262626" stroke-linejoin="round" stroke-miterlimit="10" x1="21" y1="102.2" x2="21" y2="102.2"/>
	<line fill="none" x1="634.8" y1="102.2" x2="634.8" y2="102.2"/>
	<line fill="none" stroke="#262626" stroke-linejoin="round" stroke-miterlimit="10" x1="634.8" y1="102.2" x2="634.8" y2="102.2"/>
	<path fill="#262626" d="M8.908,98.566v-0.85h4.64v0.69c-0.46,0.49-0.92,1.14-1.36,1.94c-0.45,0.8-0.8,1.63-1.04,2.47
		c-0.18,0.6-0.29,1.26-0.33,1.97h-0.91c0.01-0.56,0.12-1.24,0.33-2.04c0.21-0.8,0.51-1.57,0.91-2.31s0.82-1.36,1.27-1.87H8.908"/>
	<g>
		<g>
			<defs>
				<rect id="SVGID_35_" x="21" y="15.4" width="613.8" height="390.6"/>
			</defs>
			<clipPath id="SVGID_36_">
				<use xlink:href="#SVGID_35_"  overflow="visible"/>
			</clipPath>
			
				<line clip-path="url(#SVGID_36_)" fill="none" stroke="#FFFFFF" stroke-linecap="round" stroke-linejoin="round" stroke-miterlimit="10" x1="21" y1="58.8" x2="634.8" y2="58.8"/>
		</g>
	</g>
	<line fill="none" x1="21" y1="58.8" x2="21" y2="58.8"/>
	<line fill="none" stroke="#262626" stroke-linejoin="round" stroke-miterlimit="10" x1="21" y1="58.8" x2="21" y2="58.8"/>
	<line fill="none" x1="634.8" y1="58.8" x2="634.8" y2="58.8"/>
	<line fill="none" stroke="#262626" stroke-linejoin="round" stroke-miterlimit="10" x1="634.8" y1="58.8" x2="634.8" y2="58.8"/>
	<path fill="#262626" d="M9.748,59.316c0,0.26,0.06,0.5,0.18,0.73c0.12,0.24,0.29,0.42,0.53,0.55c0.23,0.13,0.48,0.19,0.75,0.19
		c0.42,0,0.76-0.13,1.04-0.4c0.27-0.27,0.41-0.62,0.41-1.04c0-0.42-0.14-0.76-0.42-1.04c-0.28-0.28-0.64-0.42-1.06-0.42
		c-0.42,0-0.76,0.14-1.03,0.41C9.877,58.576,9.748,58.916,9.748,59.316 M10.027,56.016c0,0.34,0.11,0.62,0.33,0.83
		c0.22,0.22,0.5,0.32,0.85,0.32c0.34,0,0.61-0.1,0.83-0.32c0.22-0.21,0.33-0.47,0.33-0.78c0-0.32-0.12-0.59-0.34-0.81
		c-0.22-0.22-0.5-0.33-0.83-0.33c-0.34,0-0.62,0.11-0.84,0.32C10.138,55.466,10.027,55.716,10.027,56.016 M10.208,57.506
		c-0.37-0.13-0.64-0.32-0.82-0.57c-0.18-0.24-0.26-0.54-0.26-0.89c0-0.52,0.18-0.95,0.56-1.31c0.38-0.36,0.88-0.54,1.5-0.54
		s1.13,0.19,1.51,0.55c0.38,0.36,0.57,0.8,0.57,1.32c0,0.34-0.09,0.63-0.26,0.87c-0.18,0.25-0.44,0.44-0.8,0.57
		c0.44,0.14,0.77,0.37,1,0.69c0.23,0.32,0.35,0.7,0.35,1.14c0,0.62-0.22,1.13-0.65,1.54c-0.44,0.42-1.01,0.62-1.71,0.62
		c-0.71,0-1.28-0.2-1.71-0.62c-0.43-0.41-0.64-0.93-0.64-1.56c0-0.46,0.11-0.85,0.35-1.17C9.428,57.836,9.768,57.626,10.208,57.506"
		/>
	<g>
		<g>
			<defs>
				<rect id="SVGID_37_" x="21" y="15.4" width="613.8" height="390.6"/>
			</defs>
			<clipPath id="SVGID_38_">
				<use xlink:href="#SVGID_37_"  overflow="visible"/>
			</clipPath>
			
				<line clip-path="url(#SVGID_38_)" fill="none" stroke="#FFFFFF" stroke-linecap="round" stroke-linejoin="round" stroke-miterlimit="10" x1="21" y1="15.4" x2="634.8" y2="15.4"/>
		</g>
	</g>
	<line fill="none" x1="21" y1="15.4" x2="21" y2="15.4"/>
	<line fill="none" stroke="#262626" stroke-linejoin="round" stroke-miterlimit="10" x1="21" y1="15.4" x2="21" y2="15.4"/>
	<line fill="none" x1="634.8" y1="15.4" x2="634.8" y2="15.4"/>
	<line fill="none" stroke="#262626" stroke-linejoin="round" stroke-miterlimit="10" x1="634.8" y1="15.4" x2="634.8" y2="15.4"/>
	<path fill="#262626" d="M12.587,13.176c0-0.5-0.14-0.9-0.41-1.2c-0.27-0.3-0.59-0.45-0.97-0.45c-0.39,0-0.73,0.16-1.02,0.48
		c-0.29,0.32-0.43,0.74-0.43,1.24c0,0.46,0.13,0.83,0.41,1.11c0.27,0.29,0.61,0.43,1.02,0.43c0.4,0,0.74-0.14,1-0.43
		C12.447,14.076,12.587,13.676,12.587,13.176 M8.987,16.326l0.84-0.07c0.07,0.4,0.21,0.68,0.41,0.86c0.2,0.18,0.46,0.27,0.78,0.27
		c0.26,0,0.5-0.06,0.7-0.18c0.2-0.12,0.37-0.29,0.5-0.5c0.13-0.2,0.24-0.48,0.33-0.84c0.09-0.35,0.14-0.71,0.14-1.07
		c0-0.04-0.01-0.1-0.01-0.18c-0.18,0.28-0.42,0.51-0.72,0.68c-0.3,0.18-0.63,0.26-0.99,0.26c-0.59,0-1.09-0.21-1.5-0.64
		c-0.41-0.43-0.61-1-0.61-1.7c0-0.72,0.21-1.31,0.64-1.75c0.42-0.44,0.96-0.67,1.61-0.67c0.46,0,0.88,0.13,1.27,0.38
		c0.38,0.25,0.68,0.61,0.88,1.07c0.2,0.47,0.3,1.14,0.3,2.01c0,0.92-0.1,1.65-0.3,2.19c-0.2,0.54-0.49,0.95-0.88,1.23
		c-0.4,0.28-0.86,0.42-1.38,0.42c-0.56,0-1.02-0.15-1.38-0.46C9.257,17.336,9.047,16.896,8.987,16.326"/>
	<path fill="#262626" d="M24.73,12.4h-0.88V6.8c-0.22,0.2-0.5,0.41-0.84,0.61c-0.34,0.2-0.65,0.35-0.92,0.45V7.01
		c0.49-0.229,0.92-0.51,1.29-0.84c0.36-0.32,0.62-0.64,0.78-0.96h0.57V12.4"/>
	<path fill="#262626" d="M27.88,9.31h2.9c-0.04-0.44-0.15-0.76-0.33-0.98c-0.28-0.34-0.65-0.51-1.09-0.51
		c-0.41,0-0.75,0.14-1.02,0.41C28.06,8.5,27.91,8.86,27.88,9.31 M30.77,10.73l0.91,0.11c-0.15,0.54-0.42,0.95-0.8,1.24
		c-0.39,0.29-0.88,0.43-1.48,0.43c-0.76,0-1.37-0.229-1.81-0.69c-0.44-0.46-0.66-1.12-0.66-1.97c0-0.87,0.22-1.55,0.67-2.03
		c0.44-0.48,1.03-0.72,1.75-0.72c0.69,0,1.26,0.24,1.7,0.71c0.44,0.47,0.66,1.13,0.66,1.99c0,0.06-0.01,0.13-0.01,0.23h-3.87
		c0.03,0.58,0.19,1.01,0.48,1.31c0.29,0.3,0.65,0.45,1.09,0.45c0.32,0,0.6-0.08,0.83-0.25C30.45,11.38,30.63,11.11,30.77,10.73"/>
	<path fill="#262626" d="M32.54,10.52l0.92-0.07c0.06,0.45,0.22,0.79,0.47,1.01c0.25,0.23,0.55,0.34,0.9,0.34
		c0.42,0,0.78-0.16,1.08-0.48c0.29-0.32,0.44-0.74,0.44-1.27c0-0.5-0.15-0.89-0.43-1.18c-0.28-0.29-0.65-0.44-1.1-0.44
		c-0.28,0-0.54,0.07-0.77,0.2s-0.41,0.29-0.53,0.49l-0.83-0.1l0.69-3.68h3.56v0.84h-2.85L33.7,8.1c0.43-0.3,0.88-0.45,1.35-0.45
		c0.62,0,1.15,0.22,1.58,0.65c0.43,0.44,0.65,0.99,0.65,1.67c0,0.65-0.19,1.21-0.57,1.68c-0.46,0.58-1.08,0.86-1.88,0.86
		c-0.65,0-1.18-0.18-1.59-0.54C32.82,11.61,32.59,11.13,32.54,10.52"/>
	<g>
		<g>
			<defs>
				<rect id="SVGID_39_" x="21" y="15.4" width="613.8" height="390.6"/>
			</defs>
			<clipPath id="SVGID_40_">
				<use xlink:href="#SVGID_39_"  overflow="visible"/>
			</clipPath>
			<g clip-path="url(#SVGID_40_)">
				<path opacity="0.5" fill="#4C72B0" enable-background="new    " d="M634.519,369.434c0.406,1.75,0,4.019,0,5.823
					c-12.564-3.914-23.733-10.647-35.167-16.886c-11.663-6.363-23.063-11.314-35.166-16.596
					c-10.847-4.73-23.774-9.436-35.167-11.852c-11.116-2.357-24.024-3.015-35.167-7.219c-14.546-5.488-9.849-19.432-16.88-30.691
					c-1.402,4.83-1.851,14.661-5.627,18.209c-3.854,3.621-4.868,1.289-9.144,1.098c-6.013-0.271-12.965-5.036-17.583-8.131
					c-5.768-3.863-12.839-6.094-17.583-11.228c-6.129-6.63-11.81-13.06-17.584-19.966c-5.663-6.771-10.905-12.475-17.584-18.28
					c-6.386-5.554-11.946-1.329-17.583,2.896c-13.916,10.428-21.46,27.752-35.167,38.793c-10.049,8.096-21.901,16.339-34.463,20.479
					c-10.279,3.39-28.078,7.871-35.167,16.111c-2.349,2.729-13.553,9.512-16.88,10.096c-5.571,0.979-11.821,5.979-17.583,7.769
					c-2.766,0.858-6.49,1.567-8.44,2.285c-1.738,0.641-8.457,5.506-9.144,5.303c-3.465-1.025-5.051,2.697-8.44,1.133
					c-1.593-0.736-2.448,1.879-4.22,0.844c-2.607-1.523-1.801-4.777-4.923-2.392c-6.148-7.591-6.735-25.165-7.137-34.556
					c-0.58-13.509-1.21-27.013-1.582-40.528c-0.793-28.892,0.013-58.642-3.941-87.293c-0.949,29.794-1.773,59.6-3.106,89.379
					c-0.693,15.478-1.086,31.053-2.799,46.463c-1.104,9.933-2.364,27.241-12.381,32.603c-22.43,12.006-20.385-49.67-20.807-59.129
					c-1.294-29.039-1.066-58.261-3.41-87.243c-0.368-4.544-0.735-9.089-1.103-13.633c-1.356,28.316-2.142,56.627-3.033,84.961
					c-0.508,16.146-0.87,32.293-1.81,48.418c-0.432,7.428-0.493,14.806-2.556,22.008c-0.927,3.24-1.839,6.482-2.668,9.748
					c-1.202,4.734-1.79,3.088-4,5.996c-5.068,6.67-9.058,7.617-16.88,9.67c-5.746,1.509-11.91,2.691-17.584,4.443
					c-9.641,2.979-23.816,6.239-34.463,5.074c-1.541-6.174,10.979-4.239,15.473-5.198c5.95-1.27,11.754-2.565,17.583-4.19
					c10.899-3.034,29.573-5.901,35.167-16.893c12.469-24.496,9.122-59.529,10.285-86.308c1.265-29.132,1.496-58.323,2.3-87.473
					c0.596-21.616,1.355-43.214,2.186-64.823c5.285,61.227,3.089,123.15,6.623,184.533c0.572,9.938-1.288,33.049,6.037,40.508
					c7.275,7.408,14.423-3.205,16.88-9.103c10.354-24.84,9.167-55.253,9.993-81.879c0.814-26.271,1.592-52.543,2.324-78.818
					c0.647-23.208-0.346-46.953,3.156-69.898c1.668,61.723,2.663,123.493,5.611,185.169c0.62,12.967,0.756,27.714,5.277,40.028
					c1.163,3.166,4.91,9.337,8.102,6.447c1.137-1.029,2.56,0.431,4.22-0.631c2.248-1.436,2.765-6.455,4.924-7.154
					c3.718-1.201,4.522,3.582,8.44,2.471c4.362-1.238,4.602-8.098,9.143-9.307c2.699-0.717,5.271,5.972,8.44,4.58
					c3.588-1.574,5.983-3.596,9.143-5.666c11.49-7.526,22.631-16.924,35.167-23.676c12.233-6.588,23.396-11.13,35.167-18.884
					c14.434-9.508,25.739-22.062,35.167-37.28c6.47-10.445,18.626-39.876,34.463-28.393c4.093,2.969,7.995,8.79,11.254,12.732
					c4.228,5.113,7.434,10.44,11.254,15.813c6.984,9.826,12.814,19.229,22.506,26.703c6.936,5.346,14.638,10.629,22.508,14.571
					c15.488,7.762,15.942-14.867,18.989-24.711c2.125,11.309,2.794,28.086,11.957,36.065c4.193,3.651,12.043,5.767,17.583,6.921
					c12.219,2.549,23.273,4.857,35.167,9.874c5.999,2.53,12.193,2.556,17.583,5.394c5.815,3.063,11.854,5.643,17.584,8.728
					c12.235,6.588,23.709,15.804,35.167,23.845C619.917,362.077,627.194,366.305,634.519,369.434z"/>
			</g>
		</g>
	</g>
	<g>
		<g>
			<defs>
				<rect id="SVGID_41_" x="21" y="15.4" width="613.8" height="390.6"/>
			</defs>
			<clipPath id="SVGID_42_">
				<use xlink:href="#SVGID_41_"  overflow="visible"/>
			</clipPath>
			<g clip-path="url(#SVGID_42_)">
				<path opacity="0.5" fill="#55A868" enable-background="new    " d="M634.519,370.787c0.436,1.689,0,3.992,0,5.748
					c-11.935-0.34-23.926-7.819-35.167-11.676c-6.209-2.129-11.698-3.709-17.583-6.308c-5.796-2.56-11.69-3.022-17.583-5.6
					c-22.283-9.748-48.22-11.418-70.334-22.773c-10.391-5.336-10.893-10.858-16.88-20.381c-3.906,3.108-3.199,7.321-8.439,7.931
					c-3.091,0.357-6.408-2.603-9.144-3.43c-6.202-1.876-11.889-6.138-17.584-9.163c-12.073-6.413-24.273-5.979-35.167,2.38
					c-10.811,8.297-22.3,13.098-35.167,17.661c-11.411,4.048-23.385,8.983-35.166,12.359c-12.159,3.483-23.601,9.106-35.167,14.629
					c-10.758,5.136-23.689,7.367-35.167,11.528c-9.975,3.617-24.395,7.057-35.167,4.615c-7.162-1.623-11.811-4.856-17.583,1.371
					c-6.493,7.004-15.495-12.188-16.177-15.515c-6.748-32.913-5.012-68.472-5.668-101.909c-0.768-39.158-1.621-78.299-2.772-117.447
					c-4.816,30.747-2.944,63.547-3.81,94.694c-0.837,30.126-1.671,60.231-3.206,90.332c-0.482,9.457-3.717,64.019-22.525,45.509
					c-8.456-8.32-8.196-24.853-8.85-36.191c-0.944-16.36-1.502-32.705-2.039-49.084c-1.535-46.84-2.171-93.727-3.178-140.581
					c-5.158,60.178-3.181,120.808-5.92,181.108c-0.488,10.75,0.414,72.737-20.103,69.034c-4.515-0.813-13.047,4.164-17.583,5.015
					c-5.81,1.088-11.573,1.312-17.583,1.834c-7.181,0.623-16.505-0.276-23.21,1.959c-0.667-5.541,11.91-2.775,16.177-4.207
					c5.31-1.779,12.24-1.692,17.583-2.594c12.031-2.025,30.409-5.755,34.802-18.957c8.612-25.882,8.096-56.709,8.853-83.748
					c0.955-34.123,1.751-68.238,2.433-102.368c0.882-44.204,1.994-88.401,3.146-132.599c3.321,60.092,3.312,120.396,4.821,180.561
					c0.753,30.026,1.747,60.07,3.875,90.037c0.561,7.89,1.078,15.685,2.192,23.511c0.464,3.264,3.938,12.138,7.398,13.53
					c7.373,2.971,12.98-20.078,14.287-26.101c9.932-45.78,6.759-95.782,7.855-142.415c1.062-45.18,2.084-90.359,3.178-135.538
					c5.704,28.759,2.888,61.143,3.488,90.542c0.671,32.875,1.355,65.749,2.04,98.623c0.579,27.807,2.585,55.672,4.296,83.428
					c0.154,2.498,6.109,34.494,11.979,28.646c1.827-1.819,1.97-5.326,3.517-6.743c4.058-3.717,0.475-0.115,4.22-0.305
					c1.356-0.068,2.807-0.949,4.22-1.053c0.602-0.043,1.069,1.672,2.11,1.694c2.099,0.048,0.712-3.315,2.813-3.073
					c2.065,0.237,6.018,9.616,8.439,11.463c2.587,1.973,6.281,0.01,9.144-0.33c5.321-0.633,12.286-3.827,17.583-3.42
					c3.972,0.307,13.317-4.313,17.584-5.838c4.258-1.521,14.567-4.162,17.583-7.412c3.803-4.099,12.763-6.779,17.583-9.375
					c5.621-3.025,11.587-5.862,17.583-8.402c11.102-4.702,24.634-7.752,35.167-13.414c11.778-6.331,24.891-9.725,35.167-19.311
					c5.044-4.705,10.563-9.5,17.583-11.115c6.758-1.555,11.356,1.916,17.583,2.931c7.23,1.181,28.264,23.955,35.167,16.897
					c4.885-4.992,3.438-8.907,7.737-1.129c2.703,4.892,4.101,8.848,8.438,12.711c3.531,3.144,12.635,9.968,17.584,9.144
					c3.138-0.522,5.244,3.144,7.736,4.188c2.467,1.033,5.861,0.496,7.736,1.6c4.908,2.885,10.881,4.143,16.177,6.083
					c11.262,4.126,21.287,7.29,32.354,11.503c5.016,1.909,11.017,6.575,16.177,7.725c5.084,1.135,11.489,2.707,16.177,4.558
					C613.658,362.898,622.003,368.877,634.519,370.787z"/>
			</g>
		</g>
	</g>
	<g>
		<g>
			<defs>
				<rect id="SVGID_43_" x="21" y="15.4" width="613.8" height="390.6"/>
			</defs>
			<clipPath id="SVGID_44_">
				<use xlink:href="#SVGID_43_"  overflow="visible"/>
			</clipPath>
			<g clip-path="url(#SVGID_44_)">
				<path opacity="0.5" fill="#C44E52" enable-background="new    " d="M634.519,365.502c0,4.449,0,8.898,0,13.35
					c-12.382-1.797-23.742-9.727-35.167-14c-11.714-4.384-22.897-9.066-35.166-11.931c-22.979-5.364-47.035-7.003-70.334-13.247
					c-25.203-6.755-47.12-17.326-70.334-30.093c-5.379-2.958-12.149-11.065-17.583-12.556c-5.097-1.398-12.255-2.188-17.583-1.455
					c-12,1.648-25.354,14.371-35.167,21.484c-21.486,15.578-46.443,21.324-70.333,30.984c-11.541,4.666-23.358,9.052-35.167,12.461
					c-4.808,1.389-12.25,4.379-17.583,2.438c-8.377-3.047-9.911,2.977-17.583,4.816c-21.089,5.061-19.505-30.931-20.188-44.357
					c-1.394-27.379-2.375-54.775-3.725-82.158c-5.293,9.345-2.293,26.291-2.831,36.844c-0.688,13.506-1.372,27.004-2.266,40.498
					c-0.86,12.973-0.002,52.496-18.113,54.257c-19.484,1.896-16.521-36.725-17.266-48.667c-1.556-24.939-0.663-50.624-4.537-75.298
					c-1.285,26.455-2.201,52.926-3.587,79.375c-0.941,17.942,1.696,49.767-17.513,58.156c-18.38,8.026-41.217,8.325-61.894,10.186
					c0-3.429-1.982-18.448,0.703-20.022c2.818-1.65,6.364-1.219,9.144-1.93c5.873-1.502,11.795-5.729,17.583-6.673
					c6.196-1.011,12.066-4.663,17.583-7.306c5.208-2.494,14.261-4.577,17.583-8.452c3.439-4.011,6.095-5.565,8.44-11.295
					c2.823-6.896,3.456-14.33,4.22-21.681c1.521-14.629,2.209-29.281,2.763-43.974c1.074-28.502,1.679-57.021,2.221-85.539
					c0.736-38.749,1.551-77.475,2.753-116.212c4.381,27.719,2.416,56.851,2.974,84.914c0.69,34.717,1.443,69.42,2.463,104.129
					c0.401,13.676-3.617,64.276,14.257,67.352c17.7,3.047,18.16-55.467,18.688-66.75c1.58-33.715,2.285-67.458,3.025-101.2
					c0.739-33.718-1.125-68.815,3.606-102.176c1.625,62.032,2.708,124.073,4.205,186.107c0.148,6.158,0.575,74.846,14.786,66.694
					c3.399-1.95,5.157-2.347,8.44-5.472c3.488-3.318,5.739-6.852,9.143-9.105c6.212-4.116,12.425-6.812,17.583-12.406
					c11.75-12.74,22.23-26.424,35.167-38.188c9.812-8.924,27.168-11.955,35.166-22.666c5.55-7.432,12.587-13.525,17.584-21.534
					c6.614-10.6,11.58-20.188,15.475-32.169c3.853-11.855,9.03-23.6,11.956-35.662c1.276-5.269,3.947-10.716,6.329-15.647
					c1.13-2.336,2.46-4.385,3.518-6.676c2.521-5.458,1.663-1.885,4.924-1.68c1.924,0.121,3.11,2.191,4.22,3.5
					c4.893-3.307,14.028,18.959,15.838,25.227c3.683,12.753,6.577,25.408,10.89,37.932c7.809,22.682,14.664,48.402,28.837,68.354
					c4.949,6.967,11.799,12.268,17.583,18.561c4.88,5.311,10.861,12.494,17.584,15.707c11.513,5.5,23.957,9.836,35.166,15.304
					c9.93,4.845,22.011,4.198,32.354,10.356c10.809,6.435,22.044,9.941,33.059,16.696c11.244,6.896,21.406,14.773,33.057,20.849
					C613.079,349.916,621.176,362.352,634.519,365.502z"/>
			</g>
		</g>
	</g>
	<g>
		<g>
			<defs>
				<rect id="SVGID_45_" x="21" y="15.4" width="613.8" height="390.6"/>
			</defs>
			<clipPath id="SVGID_46_">
				<use xlink:href="#SVGID_45_"  overflow="visible"/>
			</clipPath>
			
				<path clip-path="url(#SVGID_46_)" fill="none" stroke="#4C72B0" stroke-width="1.75" stroke-linecap="round" stroke-linejoin="round" stroke-miterlimit="10" d="
				M634.519,372.127c-5.378-0.821-10.421-3.833-15.239-6.271c-2.818-1.426-5.242-3.34-8.104-4.757
				c-1.073-0.531-1.897-1.443-2.68-2.337c-1.144-1.307-1.954-1.958-3.516-2.619c-1.246-0.527-2.618-1.143-3.726-1.909
				c-1.196-0.828-2.595-0.913-3.804-1.607c-1.229-0.707-2.189-1.629-3.491-2.211c-1.502-0.672-2.705-1.431-3.959-2.505
				c-2.181-1.867-5.342-1.757-7.675-3.129c-1.392-0.818-2.542-1.817-3.78-2.857c-1.031-0.866-2.624-1.465-3.783-2.183
				c-1.333-0.826-1.663-1.935-3.323-1.776c-1.517,0.146-3.154-0.862-4.294-1.719c-0.664-0.499-2.285-1.337-3.08-1.545
				c-0.857-0.226-1.714-0.45-2.571-0.676c-0.65-0.17-1.059-1.001-1.675-1.286c-1.549-0.719-2.456-0.362-4.073-0.455
				c-1.84-0.105-2.709-1.085-4.22-1.722c-1.306-0.551-2.864-0.293-4.221-0.828c-1.524-0.602-2.583-0.445-4.22-0.618
				c-1.605-0.17-2.483-0.951-4-1.469c-1.524-0.521-2.504-0.812-3.736-1.942c-0.524-0.481-1.022-0.858-1.615-1.257
				c-0.778-0.521-1.043,0.066-1.901-0.037c-1.207-0.146-2.985-0.92-4.221-1.247c-2.872-0.76-5.214-1.492-8.22-1.686
				c-1.058-0.068-2.26-1.319-3.253-1.183c-1.903,0.262-2.896,0.114-4.678-0.588c-2.627-1.036-5.581-0.274-8.224-1.571
				c-1.561-0.766-2.566-1.184-4.275-1.415c-1.529-0.207-2.255-1.371-3.924-1.393c-2.258-0.028-5.991-2.229-7.517-3.914
				c-1.992-2.199-3.237-4.553-4.221-7.339c-0.925-2.62-1.704-5.394-2.135-8.142c-0.46-2.934-0.542-6.26-1.471-9.079
				c-0.197-0.601-1.021-4.06-1.537-3.959c-1.887,0.369-1.919,2.21-2.561,3.94c-0.964,2.6-0.795,5.668-1.508,8.354
				c-0.853,3.211-1.184,6.068-4.298,7.863c-1.434,0.827-2.2,2.003-3.854,1.591c-1.538-0.383-2.535-1.21-4.22-1.243
				c-1.004-0.02-2.238-1.188-3.253-1.47c-1.536-0.426-2.679-0.591-4.053-1.411c-2.746-1.641-5.555-3.117-8.291-4.763
				c-2.54-1.526-3.938-4.392-6.635-5.613c-1.323-0.6-2.407-0.101-3.387-1.587c-1.012-1.536-1.846-2.253-3.23-3.397
				c-2.314-1.913-4.617-3.386-6.729-5.594c-0.801-0.837-2.023-1.73-2.664-2.676c-0.891-1.314-1.688-2.939-2.772-4.094
				c-1.938-2.062-3.711-4.054-5.21-6.535c-1.674-2.771-3.842-4.729-5.765-7.329c-1.693-2.292-2.882-4.786-4.863-6.898
				c-2.126-2.269-4.001-4.497-6.375-6.537c-2.138-1.836-3.743-4.385-5.815-6.339c-1.045-0.985-2.355-0.515-3.413-1.209
				c-1.609-1.058-2.735-0.297-4.429-0.624c-1.577-0.306-2.344,0.594-3.736,1.012c-1.505,0.451-2.658,2.029-4,2.404
				c-0.8,0.224-1.141-0.436-1.771,0.243c-0.438,0.471-0.925,0.893-1.22,1.466c-0.803,1.565-1.443,2.624-2.636,3.899
				c-1.979,2.116-3.251,4.702-5.262,6.802c-1.916,2.002-3.647,4.557-5.03,6.963c-0.693,1.208-1.737,1.92-2.429,3.023
				c-0.429,0.684-0.856,1.366-1.285,2.05c-0.352,0.561-1.181,0.803-1.498,1.376c-1.422,2.566-2.672,5.639-4.893,7.634
				c-2.158,1.939-3.794,4.746-5.816,6.893c-1.907,2.023-3.432,4.184-5.724,5.856c-1.257,0.917-2.312,1.809-3.421,2.897
				c-1.132,1.109-2.191,1.484-3.534,2.273c-1.071,0.63-2.309,1.292-3.309,2.013c-1.256,0.905-1.983,2.01-3.517,2.551
				c-1.368,0.482-2.384,1.763-3.451,2.726c-0.506,0.456-0.922,1.052-1.368,1.567c-0.287,0.333-1.443-0.115-2.006,0.192
				c-2.572,1.406-4.751,3.212-7.449,4.401c-2.523,1.113-5.99,1.513-8.716,1.573c-1.126,0.025-2.352,1.082-3.136,1.789
				c-1.262,1.138-2.489,1.32-3.883,2.221c-0.814,0.525-2.431,2.287-3.267,2.478c-1.59,0.364-2.755,1.247-4.219,1.71
				c-1.638,0.519-2.536,0.419-4.001,1.392c-1.294,0.858-2.677,1.326-4.123,1.874c-1.163,0.439-1.908,1.835-3.056,2.326
				c-1.658,0.71-2.693,0.946-3.97,2.275c-0.905,0.942-2.741,0.617-3.829,1.526c-1.209,1.012-1.803,2.273-3.162,3.163
				c-1.779,1.165-3.578,2.164-5.334,3.511c-1.512,1.158-3.003,2.281-4.512,3.469c-0.745,0.586-2.128,0.045-2.959,0.452
				c-0.884,0.434-1.339,1.443-2.319,1.888c-0.769,0.349-1.339,1.42-2.121,1.553c-1.462,0.25-1.609,0.832-2.594,1.932
				c-0.956,1.066-3.543,3.37-4.923,2.941c-1.104-0.343-2.243-0.204-3.396-0.192c-0.433,0.004-0.887,0.166-1.307,0.257
				c-0.554,0.12-1.097-0.371-1.627-0.292c-0.384,0.058-0.924,0.55-1.26,0.75c-0.456,0.271-1.101,0.046-1.554,0.282
				c-1.248,0.651-1.05,1.541-2.593,1.815c-1.213,0.216-1.487,0.791-2.813,0.616c-1.432-0.189-2.017,0.433-3.033,1.312
				c-1.029-1.513-1.11-2.532-2.814-1.256c-0.464,0.348-0.877,1.122-1.407,1.34c-0.599,0.245-1.91,0.111-2.593,0.218
				c-0.707,0.11-2.527,1.666-3.179,2.158c-1.254,0.947-2.26,2.139-3.579,2.982c-1.426,0.912-2.702-1.147-3.454-0.781
				c-1.772,0.863-2.49,0.296-3.521-1.293c-0.881-1.358-2.184-0.401-3.367-1.688c-0.931-1.013-1.426-2.69-1.771-4.003
				c-3.165-12.049-3.794-24.543-4.525-36.93c-1.285-21.788-1.958-43.608-2.577-65.425c-0.793-27.941-1.586-55.883-2.379-83.825
				c-2.941,22.477-2.938,45.36-3.636,68.009c-0.839,27.257-1.414,54.522-2.957,81.749c-0.646,11.401-0.931,23.838-5.364,34.506
				c-0.581,1.396-1.039,2.774-1.487,4.222c-0.516,1.661-1.251,2.671-2.03,4.206c-1.117,2.201-1.571,6.144-4.439,6.908
				c-1.489,0.396-2.4,1.456-4,1.24c-1.311-0.177-3.058,0.074-4.22-0.646c-1.669-1.036-4.953-3.762-5.659-5.65
				c-4.495-12.013-4.551-25.529-5.463-38.181c-0.914-12.684-1.011-25.463-1.484-38.17c-0.889-23.893-1.543-47.794-2.179-71.694
				c-0.202-7.582-0.403-15.163-0.605-22.744c-0.122-4.598-0.881-9.105-1.49-13.666c-1.235,25.623-2.048,51.23-2.793,76.874
				c-0.701,24.095-1.033,48.188-2.256,72.264c-0.617,12.149-1.816,24.15-3.386,36.216c-0.347,2.669-0.894,5.52-1.728,8.084
				c-1.003,3.086-2.547,5.346-4.165,8.141c-0.717,1.239-1.441,2.394-2.272,3.56c-0.977,1.372-2.315,1.108-3.587,1.834
				c-1.312,0.749-2.056,1.839-3.505,2.344c-1.596,0.555-2.78,0.097-4.293,1.039c-1.951,1.215-4.411,0.538-6.268,1.755
				c-1.106,0.725-2.221,1.036-3.505,1.336c-0.52,0.121-1.129,0.011-1.626,0.18c-0.587,0.199-0.995,0.85-1.626,0.939
				c-1.185,0.168-2.339,0.083-3.484,0.427c-1.132,0.34-2.227,1.005-3.33,1.312c-1.102,0.308-2.254-0.247-3.308,0.146
				c-1.203,0.448-2.406,0.766-3.579,1.295c-0.994,0.447-2.274-0.539-3.031-0.222c-1.293,0.542-2.586,1.084-3.88,1.627
				c-0.936,0.392-2.095,0.004-3.083,0.171c-1.447,0.244-2.502,0.936-4,0.907c-2.549-0.048-4.668,1.173-7.253,0.962
				c-1.042-0.085-2.173,0.715-3.034,0.568c-1.481-0.254-2.571-0.133-3.999,0.32"/>
		</g>
	</g>
	<g>
		<g>
			<defs>
				<rect id="SVGID_47_" x="21" y="15.4" width="613.8" height="390.6"/>
			</defs>
			<clipPath id="SVGID_48_">
				<use xlink:href="#SVGID_47_"  overflow="visible"/>
			</clipPath>
			
				<path clip-path="url(#SVGID_48_)" fill="none" stroke="#55A868" stroke-width="1.75" stroke-linecap="round" stroke-linejoin="round" stroke-miterlimit="10" d="
				M634.519,373.046c-2.955,0.827-5.681,0.271-8.44-1.155c-1.437-0.743-2.351-1.077-4-0.961c-1.343,0.095-2.517-1.271-3.736-1.642
				c-2.471-0.751-5.737-1.224-7.884-2.766c-2.287-1.642-4.975-3.042-7.563-4.212c-1.168-0.528-2.575-0.006-3.689-0.561
				c-1.406-0.7-2.713-1.112-4.254-1.392c-1.673-0.304-2.569-0.607-4.039-1.335c-1.296-0.642-2.57-1.419-4.001-1.484
				c-0.979-0.045-2.238-1.083-3.252-1.352c-1.272-0.337-3.021-0.697-4.147-1.365c-2.074-1.231-5.001-3.033-7.326-3.677
				c-0.748-0.206-1.679-0.313-2.374-0.656c-0.583-0.287-0.977-0.994-1.626-1.135c-1.477-0.319-3.318-0.604-4.495-1.569
				c-2.127-1.743-5.953-2.4-8.649-2.764c-1.446-0.194-2.776-0.372-4.219-0.626c-1.498-0.264-2.634-1.312-4.221-1.5
				c-1.438-0.17-2.77,0.167-4.012-0.771c-1.425-1.076-2.28-0.857-3.846-1.267c-3.105-0.813-5.645-1.753-8.24-3.602
				c-0.945-0.672-2.935-0.668-4.079-0.64c-1.206,0.03-2.873-1.062-3.944-1.652c-2.557-1.409-5.895-0.931-8.44-2.426
				c-0.988-0.579-2.396-1.36-3.528-1.457c-0.832-0.072-1.562-0.194-2.374-0.393c-0.702-0.172-1.153-0.898-1.846-1.108
				c-0.784-0.238-1.873-0.221-2.594-0.516c-0.808-0.33-1.173-1.116-2.066-1.354c-1.699-0.45-3.556-0.721-5.046-1.718
				c-3.231-2.164-7.079-2.868-9.663-5.987c-1.075-1.298-2.145-1.939-2.943-3.57c-0.897-1.834-1.794-3.668-2.691-5.502
				c-1.547-3.161-2.208-6.572-4.316-9.402c-1.831,2.17-2.36,5.828-4.716,7.455c-2.29,1.583-4.786,2.563-7.491,1.383
				c-1.476-0.645-2.923-1.313-4.453-1.814c-1.217-0.399-2.162-2.049-3.473-1.991c-2.162,0.094-2.197,0.078-3.781-1.253
				c-1.149-0.966-2.472-1.793-3.725-2.623c-1.386-0.918-2.221-1.635-3.824-2.196c-1.344-0.47-2.295-1.558-3.558-2.247
				c-1.282-0.7-2.748-1.155-4.098-1.713c-1.097-0.454-2.038-1.354-3.18-1.866c-1.376-0.618-2.693-1.206-3.977-1.995
				c-1.074-0.66-3.145-0.383-4.365-0.35c-1.483,0.041-2.774-0.746-4.221-0.655c-1.505,0.095-2.743,1.279-4.221,1.621
				c-1.526,0.353-2.724,0.345-4.073,1.176c-1.254,0.771-2.917,1.14-4.295,1.661c-2.543,0.964-4.788,3.216-6.795,4.975
				c-4.165,3.653-9.521,6.838-14.376,9.526c-1.106,0.612-2.306,1.016-3.179,1.974c-1.11,1.22-2.12,2.478-3.855,2.659
				c-3.14,0.329-5.874,0.771-8.674,2.396c-2.393,1.39-4.832,2.797-7.502,3.637c-2.676,0.842-5.218,1.178-7.957,2.095
				c-2.916,0.977-5.289,3.234-8.44,3.562c-2.437,0.254-5.142,1.992-7.309,3.164c-1.257,0.68-2.536,0.358-3.871,0.979
				c-1.367,0.636-2.608,1.021-4.073,1.35c-3.096,0.693-5.492,2.042-8.344,3.312c-2.495,1.111-5.272,1.243-7.625,2.775
				c-1.02,0.665-2.042,1.205-3.197,1.589c-1.43,0.475-3.7,0.761-4.894,1.688c-1.239,0.964-2.333,1.604-3.854,2.013
				c-1.38,0.37-2.043,1.781-3.18,2.477c-1.396,0.853-2.602,0.562-4.073,1.2c-1.454,0.631-2.424,1.672-4,2.004
				c-0.642,0.136-1.024,0.845-1.627,1.045c-0.614,0.204-1.269,0.006-1.901,0.258c-1.34,0.532-2.61,1.187-3.958,1.707
				c-1.493,0.576-2.549,0.533-3.84,1.563c-1.093,0.872-2.99,1.224-4.295,1.732c-2.521,0.981-5.38,0.829-7.6,2.495
				c-1.323,0.992-2.213,0.935-3.725,1.286c-1.443,0.335-2.745,1.427-4.22,1.826c-1.424,0.386-2.799,0.144-4.219,0.401
				c-0.793,0.145-1.614,0.566-2.375,0.833c-0.661,0.231-1.377-0.124-1.993,0.113c-2.84,1.095-5.801,0.417-8.527,1.412
				c-1.417,0.518-2.512,0.606-3.987,0.708c-1.508,0.104-2.924,1.052-4.44,0.987c-1.515-0.063-2.721,0.197-4-0.786
				c-0.482-0.371-0.859-1.189-1.407-1.439c-0.649-0.296-1.903-0.067-2.593-0.018c-0.767,0.055-2.839-0.422-3.397-0.929
				c-0.245-0.223-0.854-1.029-1.188-0.881c-0.64,0.284-1.112,0.833-1.479,0.152c-0.719-1.332-1.051-2.657-2.814-2.632
				c-1.661,0.024-1.748-0.905-2.593-2.298c-0.418,1.24-0.662,3.111-1.407,4.176c-0.619,0.884-2.549,2.776-3.516,3.07
				c-2.036,0.619-5.98,1.608-7.841-0.191c-1.908-1.847-4.596-3.535-5.669-6.073c-1.383-3.272-1.808-6.364-2.377-9.885
				c-1.884-11.642-2.59-23.737-3.105-35.503c-1.17-26.719-1.939-53.413-2.609-80.149c-0.633-25.249-1.027-50.506-1.519-75.758
				c-0.391-20.102-0.988-40.201-1.496-60.3c-1.505,1.683-1.416,1.919-1.472,4.082c-0.079,3.09-0.159,6.181-0.238,9.271
				c-0.229,8.918-0.458,17.835-0.687,26.753c-0.236,9.202-0.462,18.402-0.657,27.604c-0.573,27.159-1.136,54.313-1.945,81.467
				c-0.715,24.004-1.074,48.095-3.574,71.991c-0.706,6.746-1.474,13.388-2.578,20.078c-0.917,5.558-3.098,10.937-4.378,16.423
				c-0.653,2.798-0.996,6.453-2.759,8.866c-1.272,1.74-4.793,4.695-7.033,4.019c-2.976-0.899-4.132-4.177-6.539-5.661
				c-1.881-1.161-2.27-6.523-2.655-8.592c-4.172-22.41-4.606-45.733-5.16-68.472c-0.652-26.741-1.286-53.481-1.873-80.224
				c-0.579-26.39-1.215-52.777-1.858-79.166c-0.198-8.114-0.894-16.102-1.609-24.195c-0.835,23.815-1.538,47.599-1.954,71.424
				c-0.448,25.632-0.911,51.26-1.529,76.888c-0.582,24.149-0.928,48.361-2.303,72.48c-0.738,12.952-1.105,25.997-3.312,38.807
				c-1.025,5.951-2.245,11.647-5.018,17.076c-1.524,2.984-2.884,5.146-5.333,7.446c-1.659,1.56-5.064,3.071-7.279,3.432
				c-1.741,0.283-5.039,0.582-6.33,1.715c-1.415,1.241-4.658,1.729-6.55,1.984c-2.299,0.312-4.559,0.64-6.813,1.223
				c-1.256,0.325-2.495,0.245-3.78,0.232c-1.183-0.011-2.297,0.561-3.472,0.625c-1.275,0.071-2.505-0.104-3.781-0.061
				c-1.101,0.038-2.175,0.813-3.252,1.058c-1.218,0.275-2.277-0.006-3.484,0.214c-1.479,0.271-2.854,0.627-4.297,1.054
				c-0.584,0.173-1.021,0.017-1.627-0.102c-0.547-0.106-1.089,0.295-1.625,0.394c-1.325,0.244-2.79,0.157-4.137,0.233
				c-2.349,0.133-4.754-0.128-7.116,0.084"/>
		</g>
	</g>
	<g>
		<g>
			<defs>
				<rect id="SVGID_49_" x="21" y="15.4" width="613.8" height="390.6"/>
			</defs>
			<clipPath id="SVGID_50_">
				<use xlink:href="#SVGID_49_"  overflow="visible"/>
			</clipPath>
			
				<path clip-path="url(#SVGID_50_)" fill="none" stroke="#C44E52" stroke-width="1.75" stroke-linecap="round" stroke-linejoin="round" stroke-miterlimit="10" d="
				M634.519,372.764c-5.834-1.45-11.198-4.204-16.463-7.117c-2.04-1.129-4.422-1.831-6.372-3.099
				c-2.715-1.767-5.464-3.486-8.111-5.353c-2.514-1.772-5.867-2.704-8.673-4.047c-2.346-1.122-4.352-2.633-6.801-3.545
				c-2.702-1.007-5.087-2.352-7.711-3.524c-2.487-1.112-4.193-3.554-7.06-3.844c-2.716-0.275-5.291-2.567-7.956-3.259
				c-2.768-0.719-5.14-2.591-8.001-3.233c-2.666-0.6-6.147-0.443-8.513-1.561c-1.343-0.635-2.682-1.078-4.147-0.99
				c-1.535,0.091-3.009-0.87-4.344-1.485c-0.969-0.447-2.564-1.095-3.612-1.228c-1.492-0.188-2.8-1.112-4.22-1.602
				c-2.661-0.917-6.352-0.571-8.648-2.08c-1.034-0.679-2.538-0.124-3.748-0.471c-1.667-0.478-3.338-0.598-4.968-1.103
				c-2.843-0.882-5.681-1.222-8.576-2.062c-1.435-0.417-2.615-0.593-4.123-0.72c-1.518-0.127-2.688-0.786-4.181-0.904
				c-2.723-0.216-5.391-1.734-7.956-2.547c-1.267-0.401-2.206-1.501-3.517-1.816c-1.462-0.353-2.742-0.621-4.221-1.131
				c-2.911-1.004-5.392-2.471-8.356-3.457c-5.233-1.74-10.898-3.531-15.478-6.814c-0.92-0.66-2.534-1.055-3.569-1.517
				c-1.318-0.588-2.362-1.509-3.543-2.319c-0.962-0.66-2.235-0.974-3.106-1.698c-1.309-1.089-2.469-1.976-3.927-2.81
				c-1.107-0.634-1.9-1.613-2.96-2.265c-1.323-0.813-2.587-1.379-3.709-2.462c-0.943-0.91-2.336-0.823-3.283-1.98
				c-1.093-1.337-2.127-2.439-3.62-3.328c-1.224-0.729-2.136-2.058-3.1-3.094c-0.846-0.908-2.407-1.29-3.1-2.298
				c-1.665-2.423-2.925-5.612-5.402-7.24c-1.983-1.303-3.38-5.444-4.414-7.429c-1.399-2.683-3.115-5.125-4.618-7.744
				c-1.369-2.388-2.978-4.853-4.703-6.997c-1.882-2.339-2.823-5.357-5.062-7.349c-2.227-1.979-3.106-4.933-5.157-7.086
				c-1.882-1.976-3.306-4.241-5.731-5.477c-1.395-0.71-2.141-0.883-3.704-1.06c-1.374-0.155-3.412-1.125-4.736-0.92
				c-1.146,0.178-2.615,1.536-3.517,2.149c-1.267,0.865-2.477,1.652-3.517,2.795c-1.852,2.034-4.168,4.066-5.705,6.343
				c-1.679,2.486-3.852,4.418-5.285,7.041c-1.623,2.97-3.529,5.455-5.607,8.137c-0.72,0.929-1.056,2.091-1.688,3.073
				c-0.86,1.336-2.003,2.556-2.982,3.807c-3.73,4.761-7.632,8.953-11.978,13.155c-0.864,0.837-1.745,1.634-2.475,2.592
				c-0.887,1.167-1.926,1.454-2.999,2.384c-2.38,2.061-4.777,4.226-7.554,5.726c-1.293,0.698-2.014,1.705-2.882,2.846
				c-0.733,0.963-2.484,1.509-3.595,1.855c-1.327,0.415-2.209,1.586-3.517,2.1c-1.513,0.595-2.703,0.769-4.074,1.732
				c-1.293,0.908-2.005,1.574-3.662,1.612c-1.718,0.039-2.994,0.883-4.463,1.688c-1.145,0.628-2.81,0.97-3.769,1.741
				c-0.862,0.693-2.828,1.969-3.944,2.027c-1.906,0.101-2.423,1.007-4,1.713c-1.295,0.58-3.06,0.225-4.317,0.934
				c-2.596,1.466-5.428,2.873-7.848,4.565c-2.341,1.638-5.065,2.495-7.164,4.473c-0.999,0.942-1.996,1.412-3.178,2.038
				c-1.403,0.742-2.128,1.953-3.308,2.942c-1.244,1.043-2.358,1.097-3.725,1.749c-1.305,0.622-2.222,2.255-3.309,3.173
				c-1.143,0.967-2.393,1.742-3.645,2.562c-1.108,0.727-1.757,2.115-2.99,2.722c-2.586,1.272-4.782,3.312-7.431,4.384
				c-1.334,0.54-2.125,1.576-3.505,2.061c-0.549,0.193-1.3-0.102-1.773,0.226c-0.933,0.645-1.328,0.879-2.447,1.007
				c-1.124,0.129-1.948,1.696-3.154,1.784c-1.512,0.11-3.426-0.326-4.803,0.001c-1.479,0.352-2.676,0.971-4.22,0.567
				c-1.097-0.286-2.933,0.793-4.011,1.298c-1.286,0.602-2.427,1.039-3.58,1.888c-1.076,0.791-1.697,2.453-3.179,2.697
				c-1.745,0.287-2.534,1.587-3.755,2.849c-1.111,1.147-2.379,0.664-3.762,0.552c-1.299-0.104-2.912,0.9-4.012,0.09
				c-1.3-0.958-2.46-2.07-3.659-3.151c-0.377-0.341-1.278-0.202-1.533-0.646c-0.429-0.746-0.857-1.492-1.286-2.238
				c-0.765-1.331-0.882-3.46-1.247-4.949c-1.517-6.19-2.107-12.569-2.861-18.883c-1.321-11.07-1.6-22.335-2.004-33.475
				c-0.428-11.762-0.879-23.521-1.226-35.285c-0.757-25.644-1.608-51.276-2.568-76.913c-1.597,1.964-1.441,2.644-1.533,5.155
				c-0.142,3.85-0.283,7.7-0.424,11.55c-0.275,7.481-0.55,14.962-0.825,22.443c-0.477,12.962-0.815,25.932-1.221,38.898
				c-0.733,23.432-1.2,47.053-3.954,70.35c-1.381,11.681-3.056,24.581-11.491,33.457c-1.855,1.952-5.495,2.795-7.773,1.21
				c-2.16-1.502-5.192-2.723-6.538-5.144c-1.438-2.587-1.801-6.418-2.382-9.271c-0.643-3.158-1.053-6.352-1.521-9.541
				c-1.723-11.746-1.887-23.817-2.371-35.666c-0.402-9.845-0.796-19.688-1.125-29.535c-0.575-17.202-1.149-34.404-1.724-51.606
				c-0.354-10.619-0.62-20.917-2.086-31.428c-0.015-0.108-0.03-0.215-0.045-0.323c-1.231,25.897-2.038,51.776-2.775,77.692
				c-0.358,12.59-0.834,25.177-1.255,37.765c-0.358,10.721-0.433,21.644-1.627,32.293c-0.746,6.65-1.522,13.27-2.485,19.892
				c-0.405,2.788-1.074,5.512-1.69,8.262c-0.702,3.133-2.306,5.23-4.187,7.734c-1.72,2.289-2.033,5.905-5.454,5.756
				c-1.167-0.051-2.218,1.727-3.034,2.333c-1.585,1.179-2.611-0.045-4.22,0.485c-0.596,0.196-0.943,1.036-1.552,1.259
				c-0.659,0.24-1.279,0.463-1.964,0.609c-1.645,0.352-2.605,0.391-4.012,1.453c-1.378,1.04-2.367,0.679-3.945,0.965
				c-1.485,0.269-2.611,1.21-4.121,1.41c-1.796,0.238-3.423,0.375-5.011,1.292c-1.421,0.821-3.326,0.19-4.861,0.901
				c-1.857,0.86-3.285,0.854-5.26,1.092c-1.68,0.202-2.903,1.299-4.66,1.271c-1.859-0.029-3.401,0.811-5.188,1.219
				c-1.71,0.391-3.404,0.266-5.143,0.729c-3.429,0.913-7.018,0.563-10.549,1.25"/>
		</g>
	</g>
	
		<line fill="none" stroke="#4C72B0" stroke-width="1.75" stroke-linecap="round" stroke-linejoin="round" stroke-miterlimit="10" x1="499.987" y1="28.181" x2="519.987" y2="28.181"/>
	<polyline fill="#262626" points="528.718,31.681 528.718,24.521 529.668,24.521 529.668,30.841 533.197,30.841 533.197,31.681 
		528.718,31.681 	"/>
	<path fill="#262626" d="M534.787,29.091c0,0.66,0.141,1.16,0.431,1.49c0.279,0.33,0.649,0.49,1.09,0.49
		c0.439,0,0.801-0.16,1.091-0.49s0.439-0.84,0.439-1.52c0-0.64-0.149-1.12-0.439-1.46c-0.301-0.33-0.66-0.5-1.091-0.5
		c-0.439,0-0.811,0.17-1.09,0.5C534.928,27.931,534.787,28.431,534.787,29.091 M533.878,29.091c0-0.96,0.26-1.67,0.8-2.14
		c0.439-0.38,0.99-0.57,1.63-0.57c0.71,0,1.29,0.24,1.75,0.7c0.45,0.47,0.681,1.11,0.681,1.93c0,0.67-0.101,1.2-0.3,1.58
		c-0.2,0.38-0.5,0.68-0.881,0.89c-0.38,0.2-0.8,0.31-1.25,0.31c-0.729,0-1.319-0.23-1.76-0.69
		C534.098,30.641,533.878,29.971,533.878,29.091"/>
	<path fill="#262626" d="M539.768,31.681v-5.19h0.79v0.74c0.381-0.56,0.931-0.85,1.649-0.85c0.311,0,0.601,0.06,0.86,0.17
		c0.259,0.11,0.46,0.26,0.59,0.44c0.13,0.18,0.221,0.4,0.271,0.65c0.029,0.16,0.05,0.45,0.05,0.85v3.19h-0.88v-3.15
		c0-0.36-0.04-0.62-0.101-0.8c-0.069-0.18-0.189-0.32-0.359-0.43c-0.181-0.1-0.38-0.16-0.609-0.16c-0.381,0-0.71,0.12-0.979,0.36
		c-0.271,0.24-0.399,0.69-0.399,1.35v2.83H539.768"/>
	<path fill="#262626" d="M545.897,28.991c0,0.68,0.13,1.18,0.399,1.49c0.271,0.32,0.609,0.47,1.021,0.47
		c0.399,0,0.729-0.15,1.01-0.46c0.271-0.31,0.41-0.8,0.41-1.47c0-0.63-0.141-1.11-0.42-1.43c-0.28-0.32-0.62-0.49-1.021-0.49
		c-0.391,0-0.721,0.16-0.99,0.48C546.027,27.901,545.897,28.371,545.897,28.991 M545.168,32.101l0.85,0.13
		c0.04,0.26,0.141,0.45,0.301,0.57c0.22,0.16,0.51,0.25,0.89,0.25c0.4,0,0.721-0.09,0.94-0.25c0.219-0.16,0.38-0.39,0.46-0.68
		c0.04-0.18,0.061-0.55,0.061-1.12c-0.391,0.46-0.87,0.68-1.439,0.68c-0.721,0-1.271-0.25-1.66-0.77
		c-0.391-0.51-0.58-1.13-0.58-1.85c0-0.49,0.09-0.95,0.271-1.37s0.439-0.74,0.779-0.97c0.341-0.22,0.74-0.34,1.2-0.34
		c0.609,0,1.109,0.25,1.51,0.74v-0.63h0.811v4.49c0,0.8-0.09,1.36-0.25,1.7c-0.159,0.34-0.42,0.6-0.779,0.8
		c-0.359,0.19-0.79,0.29-1.311,0.29c-0.62,0-1.12-0.14-1.5-0.42C545.338,33.071,545.147,32.661,545.168,32.101"/>
	<polyline fill="#262626" points="550.548,29.531 550.548,28.651 553.247,28.651 553.247,29.531 550.548,29.531 	"/>
	<polyline fill="#262626" points="556.147,31.681 556.147,25.371 553.787,25.371 553.787,24.521 559.468,24.521 559.468,25.371 
		557.098,25.371 557.098,31.681 556.147,31.681 	"/>
	<path fill="#262626" d="M560.987,28.591h2.899c-0.04-0.44-0.149-0.76-0.33-0.98c-0.279-0.34-0.649-0.51-1.09-0.51
		c-0.41,0-0.75,0.14-1.021,0.41C561.167,27.781,561.018,28.141,560.987,28.591 M563.877,30.011l0.91,0.11
		c-0.149,0.54-0.42,0.95-0.8,1.24c-0.391,0.29-0.88,0.43-1.479,0.43c-0.761,0-1.37-0.23-1.811-0.69c-0.439-0.46-0.66-1.12-0.66-1.97
		c0-0.87,0.221-1.55,0.67-2.03c0.44-0.48,1.03-0.72,1.75-0.72c0.69,0,1.261,0.24,1.7,0.71c0.439,0.47,0.66,1.13,0.66,1.99
		c0,0.06-0.011,0.13-0.011,0.23h-3.87c0.03,0.58,0.189,1.01,0.479,1.31c0.29,0.3,0.65,0.45,1.091,0.45
		c0.319,0,0.601-0.08,0.829-0.25C563.558,30.661,563.737,30.391,563.877,30.011"/>
	<path fill="#262626" d="M565.877,31.681v-5.19h0.79v0.79c0.2-0.36,0.38-0.6,0.561-0.72c0.17-0.12,0.359-0.18,0.561-0.18
		c0.3,0,0.601,0.1,0.91,0.28l-0.311,0.82c-0.221-0.12-0.431-0.19-0.641-0.19c-0.2,0-0.37,0.06-0.521,0.17
		c-0.159,0.12-0.271,0.28-0.33,0.48c-0.101,0.32-0.14,0.66-0.14,1.03v2.71H565.877"/>
	<path fill="#262626" d="M569.217,31.681v-5.19h0.79v0.73c0.16-0.25,0.37-0.45,0.641-0.61c0.271-0.15,0.58-0.23,0.931-0.23
		c0.38,0,0.689,0.08,0.939,0.24c0.239,0.16,0.42,0.39,0.521,0.67c0.41-0.6,0.939-0.91,1.601-0.91c0.521,0,0.909,0.15,1.189,0.43
		s0.42,0.72,0.42,1.31v3.56h-0.88v-3.27c0-0.34-0.03-0.59-0.09-0.75c-0.062-0.16-0.16-0.28-0.312-0.38
		c-0.148-0.09-0.318-0.14-0.52-0.14c-0.37,0-0.67,0.13-0.91,0.37c-0.24,0.24-0.359,0.63-0.359,1.16v3.01h-0.881v-3.37
		c0-0.39-0.08-0.68-0.22-0.88c-0.141-0.19-0.38-0.29-0.7-0.29c-0.25,0-0.479,0.07-0.688,0.2c-0.211,0.13-0.36,0.32-0.45,0.57
		c-0.101,0.25-0.141,0.61-0.141,1.08v2.69H569.217"/>
	<path fill="#262626" d="M581.397,27.681h2.039c0.431,0,0.771-0.04,1.011-0.13c0.239-0.09,0.43-0.23,0.56-0.43
		c0.12-0.2,0.19-0.41,0.19-0.65c0-0.33-0.13-0.61-0.37-0.83c-0.25-0.22-0.641-0.33-1.16-0.33h-2.27V27.681 M580.457,31.681v-7.16
		h3.17c0.641,0,1.12,0.07,1.45,0.2c0.33,0.13,0.6,0.36,0.8,0.68c0.2,0.32,0.3,0.68,0.3,1.07c0,0.52-0.17,0.95-0.5,1.29
		c-0.329,0.35-0.84,0.57-1.52,0.66c0.25,0.12,0.439,0.24,0.569,0.36c0.279,0.26,0.54,0.57,0.79,0.95l1.239,1.95h-1.188l-0.94-1.49
		c-0.279-0.42-0.51-0.75-0.689-0.98c-0.181-0.23-0.34-0.39-0.479-0.48c-0.141-0.09-0.29-0.15-0.43-0.19
		c-0.11-0.02-0.29-0.04-0.53-0.04h-1.101v3.18H580.457"/>
	<path fill="#262626" d="M588.207,28.591h2.9c-0.04-0.44-0.15-0.76-0.33-0.98c-0.28-0.34-0.65-0.51-1.091-0.51
		c-0.409,0-0.75,0.14-1.021,0.41C588.387,27.781,588.237,28.141,588.207,28.591 M591.098,30.011l0.909,0.11
		c-0.148,0.54-0.42,0.95-0.8,1.24c-0.39,0.29-0.88,0.43-1.479,0.43c-0.761,0-1.369-0.23-1.811-0.69c-0.439-0.46-0.66-1.12-0.66-1.97
		c0-0.87,0.222-1.55,0.67-2.03c0.44-0.48,1.03-0.72,1.75-0.72c0.69,0,1.262,0.24,1.7,0.71c0.44,0.47,0.66,1.13,0.66,1.99
		c0,0.06-0.01,0.13-0.01,0.23h-3.87c0.03,0.58,0.189,1.01,0.479,1.31c0.29,0.3,0.65,0.45,1.092,0.45c0.318,0,0.6-0.08,0.829-0.25
		C590.777,30.661,590.957,30.391,591.098,30.011"/>
	<path fill="#262626" d="M593.317,31.681v-4.5h-0.78v-0.69h0.78v-0.55c0-0.34,0.029-0.6,0.09-0.77c0.08-0.23,0.229-0.42,0.45-0.56
		c0.21-0.14,0.51-0.21,0.89-0.21c0.25,0,0.53,0.03,0.83,0.09l-0.14,0.76c-0.182-0.02-0.352-0.04-0.512-0.04
		c-0.27,0-0.46,0.06-0.568,0.17c-0.12,0.12-0.17,0.33-0.17,0.64v0.47h1.01v0.69h-1.01v4.5H593.317"/>
	<path fill="#262626" d="M596.547,28.591h2.9c-0.04-0.44-0.15-0.76-0.33-0.98c-0.28-0.34-0.65-0.51-1.09-0.51
		c-0.41,0-0.75,0.14-1.021,0.41C596.728,27.781,596.577,28.141,596.547,28.591 M599.438,30.011l0.909,0.11
		c-0.149,0.54-0.421,0.95-0.801,1.24c-0.39,0.29-0.88,0.43-1.479,0.43c-0.761,0-1.37-0.23-1.812-0.69
		c-0.438-0.46-0.659-1.12-0.659-1.97c0-0.87,0.221-1.55,0.67-2.03c0.439-0.48,1.029-0.72,1.75-0.72c0.689,0,1.261,0.24,1.699,0.71
		c0.44,0.47,0.66,1.13,0.66,1.99c0,0.06-0.01,0.13-0.01,0.23h-3.87c0.03,0.58,0.189,1.01,0.479,1.31c0.29,0.3,0.649,0.45,1.091,0.45
		c0.318,0,0.6-0.08,0.829-0.25C599.117,30.661,599.297,30.391,599.438,30.011"/>
	<path fill="#262626" d="M601.438,31.681v-5.19h0.789v0.79c0.199-0.36,0.381-0.6,0.561-0.72c0.17-0.12,0.359-0.18,0.561-0.18
		c0.301,0,0.601,0.1,0.909,0.28l-0.31,0.82c-0.221-0.12-0.431-0.19-0.641-0.19c-0.199,0-0.37,0.06-0.521,0.17
		c-0.16,0.12-0.271,0.28-0.33,0.48c-0.101,0.32-0.14,0.66-0.14,1.03v2.71H601.438"/>
	<path fill="#262626" d="M605.438,28.591h2.898c-0.04-0.44-0.148-0.76-0.33-0.98c-0.28-0.34-0.648-0.51-1.09-0.51
		c-0.41,0-0.75,0.14-1.021,0.41C605.617,27.781,605.467,28.141,605.438,28.591 M608.327,30.011l0.91,0.11
		c-0.15,0.54-0.42,0.95-0.801,1.24c-0.391,0.29-0.881,0.43-1.479,0.43c-0.76,0-1.37-0.23-1.81-0.69c-0.44-0.46-0.66-1.12-0.66-1.97
		c0-0.87,0.22-1.55,0.67-2.03c0.438-0.48,1.03-0.72,1.75-0.72c0.688,0,1.26,0.24,1.7,0.71c0.438,0.47,0.659,1.13,0.659,1.99
		c0,0.06-0.011,0.13-0.011,0.23h-3.87c0.03,0.58,0.19,1.01,0.48,1.31c0.29,0.3,0.649,0.45,1.09,0.45c0.32,0,0.6-0.08,0.83-0.25
		C608.007,30.661,608.188,30.391,608.327,30.011"/>
	<path fill="#262626" d="M610.337,31.681v-5.19h0.79v0.74c0.38-0.56,0.93-0.85,1.65-0.85c0.31,0,0.6,0.06,0.858,0.17
		c0.262,0.11,0.46,0.26,0.591,0.44c0.131,0.18,0.221,0.4,0.271,0.65c0.03,0.16,0.05,0.45,0.05,0.85v3.19h-0.88v-3.15
		c0-0.36-0.04-0.62-0.1-0.8c-0.07-0.18-0.19-0.32-0.36-0.43c-0.18-0.1-0.38-0.16-0.61-0.16c-0.38,0-0.71,0.12-0.979,0.36
		c-0.271,0.24-0.4,0.69-0.4,1.35v2.83H610.337"/>
	<path fill="#262626" d="M619.277,29.781l0.87,0.11c-0.102,0.6-0.342,1.07-0.73,1.4c-0.39,0.34-0.87,0.5-1.43,0.5
		c-0.721,0-1.29-0.23-1.721-0.69s-0.641-1.12-0.641-1.99c0-0.56,0.09-1.05,0.28-1.47c0.18-0.42,0.46-0.73,0.84-0.94
		s0.79-0.32,1.24-0.32c0.56,0,1.02,0.15,1.38,0.43c0.359,0.28,0.59,0.69,0.688,1.21l-0.85,0.13c-0.08-0.34-0.229-0.6-0.43-0.78
		c-0.21-0.18-0.46-0.27-0.75-0.27c-0.45,0-0.812,0.16-1.09,0.48c-0.28,0.32-0.41,0.82-0.41,1.5c0,0.7,0.13,1.21,0.398,1.52
		c0.262,0.32,0.61,0.47,1.05,0.47c0.342,0,0.632-0.1,0.86-0.31C619.067,30.551,619.217,30.221,619.277,29.781"/>
	<path fill="#262626" d="M621.557,28.591h2.9c-0.04-0.44-0.15-0.76-0.33-0.98c-0.28-0.34-0.65-0.51-1.09-0.51
		c-0.41,0-0.75,0.14-1.021,0.41C621.737,27.781,621.587,28.141,621.557,28.591 M624.447,30.011l0.91,0.11
		c-0.15,0.54-0.421,0.95-0.802,1.24c-0.39,0.29-0.88,0.43-1.479,0.43c-0.76,0-1.37-0.23-1.811-0.69
		c-0.439-0.46-0.659-1.12-0.659-1.97c0-0.87,0.22-1.55,0.67-2.03c0.438-0.48,1.028-0.72,1.75-0.72c0.688,0,1.26,0.24,1.698,0.71
		c0.44,0.47,0.66,1.13,0.66,1.99c0,0.06-0.01,0.13-0.01,0.23h-3.87c0.03,0.58,0.19,1.01,0.48,1.31c0.29,0.3,0.648,0.45,1.09,0.45
		c0.319,0,0.6-0.08,0.83-0.25C624.127,30.661,624.307,30.391,624.447,30.011"/>
	
		<line fill="none" stroke="#55A868" stroke-width="1.75" stroke-linecap="round" stroke-linejoin="round" stroke-miterlimit="10" x1="499.987" y1="42.572" x2="519.987" y2="42.572"/>
	<path fill="#262626" d="M528.438,43.772l0.89-0.08c0.04,0.36,0.141,0.66,0.301,0.89c0.149,0.23,0.39,0.41,0.72,0.55
		c0.32,0.14,0.689,0.21,1.101,0.21c0.359,0,0.67-0.05,0.95-0.16c0.279-0.1,0.479-0.25,0.619-0.44c0.131-0.18,0.2-0.39,0.2-0.61
		c0-0.22-0.069-0.42-0.2-0.59c-0.13-0.16-0.34-0.3-0.64-0.42c-0.19-0.08-0.61-0.19-1.271-0.35s-1.12-0.31-1.381-0.45
		c-0.34-0.18-0.6-0.4-0.771-0.66c-0.17-0.26-0.25-0.56-0.25-0.9c0-0.36,0.101-0.69,0.311-1.01c0.2-0.31,0.5-0.55,0.9-0.71
		c0.39-0.16,0.829-0.25,1.31-0.25c0.53,0,1,0.09,1.4,0.26c0.399,0.17,0.72,0.42,0.939,0.75c0.22,0.34,0.33,0.71,0.351,1.13
		l-0.91,0.07c-0.051-0.45-0.21-0.79-0.489-1.03c-0.28-0.23-0.7-0.35-1.25-0.35c-0.58,0-0.99,0.11-1.25,0.32
		c-0.261,0.21-0.391,0.46-0.391,0.76c0,0.26,0.09,0.47,0.271,0.63c0.18,0.17,0.659,0.34,1.43,0.52s1.301,0.33,1.591,0.45
		c0.409,0.2,0.72,0.44,0.92,0.73c0.199,0.3,0.3,0.64,0.3,1.02c0,0.38-0.109,0.74-0.33,1.08c-0.22,0.34-0.54,0.6-0.939,0.78
		c-0.41,0.18-0.87,0.27-1.38,0.27c-0.649,0-1.189-0.09-1.63-0.27c-0.439-0.18-0.78-0.47-1.03-0.85
		C528.577,44.682,528.447,44.252,528.438,43.772"/>
	<path fill="#262626" d="M537.237,45.282l0.13,0.78c-0.26,0.04-0.479,0.07-0.67,0.07c-0.319,0-0.569-0.05-0.739-0.14
		c-0.181-0.1-0.301-0.23-0.37-0.4c-0.08-0.16-0.11-0.51-0.11-1.04v-2.979h-0.64v-0.69h0.64v-1.28l0.87-0.53v1.81h0.891v0.69h-0.891
		v3.03c0,0.26,0.011,0.42,0.051,0.49c0.029,0.07,0.079,0.13,0.149,0.17c0.069,0.04,0.17,0.06,0.3,0.06
		C536.947,45.322,537.077,45.312,537.237,45.282"/>
	<path fill="#262626" d="M541.498,46.072v-0.76c-0.41,0.58-0.961,0.87-1.65,0.87c-0.311,0-0.6-0.06-0.859-0.17
		c-0.261-0.11-0.46-0.26-0.591-0.44c-0.13-0.18-0.22-0.39-0.27-0.65c-0.04-0.17-0.051-0.44-0.051-0.82v-3.22h0.881v2.88
		c0,0.46,0.01,0.77,0.05,0.93c0.06,0.23,0.17,0.41,0.35,0.54c0.181,0.14,0.4,0.2,0.671,0.2c0.26,0,0.5-0.06,0.739-0.2
		c0.23-0.13,0.391-0.31,0.49-0.55c0.09-0.23,0.14-0.57,0.14-1.02v-2.78h0.881v5.19H541.498"/>
	<path fill="#262626" d="M544.248,43.482c0,0.67,0.13,1.17,0.409,1.49c0.279,0.33,0.609,0.49,1,0.49c0.38,0,0.7-0.15,0.971-0.47
		c0.271-0.31,0.409-0.79,0.409-1.43c0-0.71-0.14-1.23-0.409-1.57c-0.28-0.33-0.61-0.5-1.011-0.5c-0.399,0-0.72,0.16-0.979,0.48
		C544.378,42.292,544.248,42.802,544.248,43.482 M547.018,46.072v-0.65c-0.329,0.51-0.81,0.76-1.449,0.76
		c-0.42,0-0.801-0.11-1.141-0.34c-0.351-0.22-0.62-0.54-0.811-0.95c-0.189-0.4-0.279-0.87-0.279-1.41c0-0.51,0.08-0.98,0.26-1.4
		c0.17-0.42,0.431-0.75,0.771-0.97c0.341-0.22,0.729-0.34,1.16-0.34c0.311,0,0.59,0.07,0.84,0.2c0.24,0.13,0.439,0.3,0.591,0.51
		v-2.57h0.88v7.16H547.018"/>
	<path fill="#262626" d="M549.178,48.062l-0.101-0.83c0.189,0.05,0.359,0.08,0.511,0.08c0.189,0,0.34-0.04,0.46-0.1
		c0.12-0.07,0.21-0.16,0.29-0.27c0.06-0.09,0.149-0.31,0.271-0.66c0.021-0.05,0.039-0.12,0.08-0.21l-1.971-5.19h0.95l1.08,3.01
		c0.14,0.38,0.26,0.78,0.369,1.2c0.101-0.4,0.221-0.8,0.36-1.18l1.109-3.03h0.88l-1.97,5.27c-0.221,0.56-0.381,0.95-0.49,1.17
		c-0.16,0.29-0.34,0.5-0.54,0.64c-0.2,0.13-0.439,0.2-0.72,0.2C549.567,48.162,549.378,48.122,549.178,48.062"/>
	<path fill="#262626" d="M558.067,42.072h2.04c0.43,0,0.771-0.04,1.01-0.13c0.24-0.09,0.431-0.23,0.561-0.43
		c0.12-0.2,0.189-0.41,0.189-0.65c0-0.33-0.13-0.61-0.37-0.83c-0.25-0.22-0.64-0.33-1.159-0.33h-2.271V42.072 M557.128,46.072v-7.16
		h3.17c0.641,0,1.12,0.07,1.449,0.2c0.33,0.13,0.601,0.36,0.801,0.68c0.199,0.32,0.3,0.68,0.3,1.07c0,0.52-0.17,0.95-0.5,1.29
		c-0.33,0.35-0.84,0.57-1.521,0.66c0.25,0.12,0.439,0.24,0.57,0.36c0.279,0.26,0.539,0.57,0.789,0.95l1.24,1.95h-1.189l-0.939-1.49
		c-0.28-0.42-0.511-0.75-0.689-0.98c-0.18-0.23-0.341-0.39-0.479-0.48c-0.141-0.09-0.29-0.15-0.431-0.19
		c-0.109-0.02-0.29-0.04-0.529-0.04h-1.102v3.18H557.128"/>
	<path fill="#262626" d="M564.878,42.982h2.899c-0.04-0.44-0.149-0.76-0.33-0.98c-0.279-0.34-0.649-0.51-1.091-0.51
		c-0.409,0-0.75,0.14-1.02,0.41C565.058,42.172,564.907,42.532,564.878,42.982 M567.768,44.402l0.91,0.11
		c-0.149,0.54-0.42,0.95-0.8,1.24c-0.391,0.29-0.88,0.43-1.479,0.43c-0.761,0-1.37-0.23-1.811-0.69c-0.439-0.46-0.66-1.12-0.66-1.97
		c0-0.87,0.221-1.55,0.67-2.03c0.439-0.48,1.03-0.72,1.75-0.72c0.689,0,1.261,0.24,1.7,0.71c0.439,0.47,0.66,1.13,0.66,1.99
		c0,0.06-0.011,0.13-0.011,0.23h-3.87c0.03,0.58,0.189,1.01,0.479,1.31c0.29,0.3,0.65,0.45,1.091,0.45c0.319,0,0.601-0.08,0.83-0.25
		C567.447,45.052,567.628,44.782,567.768,44.402"/>
	<path fill="#262626" d="M569.987,46.072v-4.5h-0.779v-0.69h0.779v-0.55c0-0.34,0.029-0.6,0.09-0.77c0.08-0.23,0.229-0.42,0.45-0.56
		c0.21-0.14,0.51-0.21,0.891-0.21c0.25,0,0.529,0.03,0.83,0.09l-0.141,0.76c-0.181-0.02-0.351-0.04-0.511-0.04
		c-0.271,0-0.46,0.06-0.569,0.17c-0.12,0.12-0.17,0.33-0.17,0.64v0.47h1.01v0.69h-1.01v4.5H569.987"/>
	<path fill="#262626" d="M573.218,42.982h2.899c-0.04-0.44-0.149-0.76-0.33-0.98c-0.279-0.34-0.649-0.51-1.09-0.51
		c-0.41,0-0.75,0.14-1.021,0.41C573.397,42.172,573.248,42.532,573.218,42.982 M576.107,44.402l0.909,0.11
		c-0.149,0.54-0.42,0.95-0.8,1.24c-0.391,0.29-0.88,0.43-1.479,0.43c-0.761,0-1.37-0.23-1.811-0.69c-0.439-0.46-0.66-1.12-0.66-1.97
		c0-0.87,0.221-1.55,0.67-2.03c0.44-0.48,1.03-0.72,1.75-0.72c0.69,0,1.261,0.24,1.7,0.71c0.439,0.47,0.66,1.13,0.66,1.99
		c0,0.06-0.011,0.13-0.011,0.23h-3.869c0.029,0.58,0.189,1.01,0.479,1.31c0.29,0.3,0.65,0.45,1.091,0.45
		c0.319,0,0.601-0.08,0.83-0.25C575.787,45.052,575.968,44.782,576.107,44.402"/>
	<path fill="#262626" d="M578.107,46.072v-5.19h0.79v0.79c0.199-0.36,0.38-0.6,0.56-0.72c0.171-0.12,0.36-0.18,0.561-0.18
		c0.301,0,0.601,0.1,0.91,0.28l-0.311,0.82c-0.22-0.12-0.431-0.19-0.641-0.19c-0.199,0-0.37,0.06-0.521,0.17
		c-0.159,0.12-0.271,0.28-0.329,0.48c-0.101,0.32-0.141,0.66-0.141,1.03v2.71H578.107"/>
	<path fill="#262626" d="M582.107,42.982h2.899c-0.04-0.44-0.149-0.76-0.33-0.98c-0.279-0.34-0.649-0.51-1.09-0.51
		c-0.41,0-0.75,0.14-1.021,0.41C582.287,42.172,582.138,42.532,582.107,42.982 M584.997,44.402l0.91,0.11
		c-0.149,0.54-0.42,0.95-0.8,1.24c-0.391,0.29-0.881,0.43-1.479,0.43c-0.761,0-1.37-0.23-1.811-0.69
		c-0.439-0.46-0.66-1.12-0.66-1.97c0-0.87,0.221-1.55,0.67-2.03c0.439-0.48,1.03-0.72,1.75-0.72c0.689,0,1.261,0.24,1.7,0.71
		c0.439,0.47,0.659,1.13,0.659,1.99c0,0.06-0.01,0.13-0.01,0.23h-3.87c0.03,0.58,0.189,1.01,0.479,1.31
		c0.29,0.3,0.65,0.45,1.091,0.45c0.319,0,0.6-0.08,0.829-0.25C584.678,45.052,584.857,44.782,584.997,44.402"/>
	<path fill="#262626" d="M587.008,46.072v-5.19h0.79v0.74c0.38-0.56,0.93-0.85,1.649-0.85c0.311,0,0.601,0.06,0.859,0.17
		s0.46,0.26,0.591,0.44c0.13,0.18,0.22,0.4,0.271,0.65c0.029,0.16,0.05,0.45,0.05,0.85v3.19h-0.88v-3.15c0-0.36-0.04-0.62-0.101-0.8
		c-0.069-0.18-0.189-0.32-0.359-0.43c-0.181-0.1-0.381-0.16-0.61-0.16c-0.38,0-0.71,0.12-0.979,0.36
		c-0.271,0.24-0.399,0.69-0.399,1.35v2.83H587.008"/>
	<path fill="#262626" d="M595.947,44.172l0.87,0.11c-0.101,0.6-0.341,1.07-0.729,1.4c-0.391,0.34-0.87,0.5-1.431,0.5
		c-0.721,0-1.29-0.23-1.721-0.69c-0.43-0.46-0.64-1.12-0.64-1.99c0-0.56,0.09-1.05,0.279-1.47c0.181-0.42,0.46-0.73,0.841-0.94
		c0.38-0.21,0.789-0.32,1.239-0.32c0.561,0,1.021,0.15,1.38,0.43c0.359,0.28,0.59,0.69,0.689,1.21l-0.851,0.13
		c-0.079-0.34-0.229-0.6-0.43-0.78c-0.21-0.18-0.46-0.27-0.75-0.27c-0.45,0-0.811,0.16-1.091,0.48c-0.279,0.32-0.409,0.82-0.409,1.5
		c0,0.7,0.13,1.21,0.399,1.52c0.261,0.32,0.609,0.47,1.051,0.47c0.34,0,0.63-0.1,0.859-0.31
		C595.737,44.942,595.888,44.612,595.947,44.172"/>
	<path fill="#262626" d="M598.228,42.982h2.899c-0.039-0.44-0.149-0.76-0.329-0.98c-0.28-0.34-0.649-0.51-1.091-0.51
		c-0.409,0-0.75,0.14-1.021,0.41C598.407,42.172,598.258,42.532,598.228,42.982 M601.117,44.402l0.91,0.11
		c-0.15,0.54-0.42,0.95-0.801,1.24c-0.39,0.29-0.88,0.43-1.479,0.43c-0.76,0-1.37-0.23-1.811-0.69
		c-0.439-0.46-0.659-1.12-0.659-1.97c0-0.87,0.22-1.55,0.67-2.03c0.439-0.48,1.03-0.72,1.75-0.72c0.689,0,1.26,0.24,1.7,0.71
		c0.439,0.47,0.659,1.13,0.659,1.99c0,0.06-0.01,0.13-0.01,0.23h-3.87c0.029,0.58,0.189,1.01,0.479,1.31
		c0.29,0.3,0.649,0.45,1.09,0.45c0.32,0,0.601-0.08,0.83-0.25C600.798,45.052,600.978,44.782,601.117,44.402"/>
	
		<line fill="none" stroke="#C44E52" stroke-width="1.75" stroke-linecap="round" stroke-linejoin="round" stroke-miterlimit="10" x1="499.987" y1="56.962" x2="519.987" y2="56.962"/>
	<path fill="#262626" d="M528.438,58.163l0.89-0.08c0.04,0.36,0.141,0.66,0.301,0.89c0.149,0.23,0.39,0.41,0.72,0.55
		c0.32,0.14,0.689,0.21,1.101,0.21c0.359,0,0.67-0.05,0.95-0.16c0.279-0.1,0.479-0.25,0.619-0.44c0.131-0.18,0.2-0.39,0.2-0.61
		s-0.069-0.42-0.2-0.59c-0.13-0.16-0.34-0.3-0.64-0.42c-0.19-0.08-0.61-0.19-1.271-0.35s-1.12-0.31-1.381-0.45
		c-0.34-0.18-0.6-0.4-0.771-0.66c-0.17-0.26-0.25-0.56-0.25-0.9c0-0.36,0.101-0.69,0.311-1.01c0.2-0.31,0.5-0.55,0.9-0.71
		c0.39-0.16,0.829-0.25,1.31-0.25c0.53,0,1,0.09,1.4,0.26c0.399,0.17,0.72,0.42,0.939,0.75c0.22,0.34,0.33,0.71,0.351,1.13
		l-0.91,0.07c-0.051-0.45-0.21-0.79-0.489-1.03c-0.28-0.23-0.7-0.35-1.25-0.35c-0.58,0-0.99,0.11-1.25,0.32
		c-0.261,0.21-0.391,0.46-0.391,0.76c0,0.26,0.09,0.47,0.271,0.63c0.18,0.17,0.659,0.34,1.43,0.52c0.771,0.18,1.301,0.33,1.591,0.45
		c0.409,0.2,0.72,0.44,0.92,0.73c0.199,0.3,0.3,0.64,0.3,1.02c0,0.38-0.109,0.74-0.33,1.08c-0.22,0.34-0.54,0.6-0.939,0.78
		c-0.41,0.18-0.87,0.271-1.38,0.271c-0.649,0-1.189-0.09-1.63-0.271c-0.439-0.18-0.78-0.47-1.03-0.85
		C528.577,59.072,528.447,58.643,528.438,58.163"/>
	<path fill="#262626" d="M537.237,59.672l0.13,0.78c-0.26,0.04-0.479,0.07-0.67,0.07c-0.319,0-0.569-0.05-0.739-0.14
		c-0.181-0.1-0.301-0.23-0.37-0.4c-0.08-0.16-0.11-0.51-0.11-1.04v-2.98h-0.64v-0.69h0.64v-1.28l0.87-0.53v1.81h0.891v0.69h-0.891
		v3.03c0,0.26,0.011,0.42,0.051,0.49c0.029,0.07,0.079,0.13,0.149,0.17c0.069,0.04,0.17,0.06,0.3,0.06
		C536.947,59.712,537.077,59.703,537.237,59.672"/>
	<path fill="#262626" d="M541.498,60.462v-0.76c-0.41,0.58-0.961,0.87-1.65,0.87c-0.311,0-0.6-0.06-0.859-0.17
		c-0.261-0.11-0.46-0.26-0.591-0.44c-0.13-0.18-0.22-0.39-0.27-0.65c-0.04-0.17-0.051-0.44-0.051-0.82v-3.22h0.881v2.88
		c0,0.46,0.01,0.77,0.05,0.93c0.06,0.23,0.17,0.41,0.35,0.54c0.181,0.14,0.4,0.2,0.671,0.2c0.26,0,0.5-0.06,0.739-0.2
		c0.23-0.13,0.391-0.31,0.49-0.55c0.09-0.23,0.14-0.57,0.14-1.021v-2.78h0.881v5.19H541.498"/>
	<path fill="#262626" d="M544.248,57.873c0,0.67,0.13,1.17,0.409,1.49c0.279,0.33,0.609,0.49,1,0.49c0.38,0,0.7-0.15,0.971-0.47
		c0.271-0.31,0.409-0.79,0.409-1.43c0-0.71-0.14-1.23-0.409-1.57c-0.28-0.33-0.61-0.5-1.011-0.5c-0.399,0-0.72,0.16-0.979,0.48
		C544.378,56.683,544.248,57.192,544.248,57.873 M547.018,60.462v-0.65c-0.329,0.51-0.81,0.76-1.449,0.76
		c-0.42,0-0.801-0.11-1.141-0.34c-0.351-0.22-0.62-0.54-0.811-0.95c-0.189-0.4-0.279-0.87-0.279-1.41c0-0.51,0.08-0.98,0.26-1.4
		c0.17-0.42,0.431-0.75,0.771-0.97c0.341-0.22,0.729-0.34,1.16-0.34c0.311,0,0.59,0.07,0.84,0.2c0.24,0.13,0.439,0.3,0.591,0.51
		v-2.57h0.88v7.16H547.018"/>
	<path fill="#262626" d="M549.178,62.453l-0.101-0.83c0.189,0.05,0.359,0.08,0.511,0.08c0.189,0,0.34-0.04,0.46-0.1
		c0.12-0.07,0.21-0.16,0.29-0.27c0.06-0.09,0.149-0.31,0.271-0.66c0.021-0.05,0.039-0.12,0.08-0.21l-1.971-5.19h0.95l1.08,3.01
		c0.14,0.38,0.26,0.78,0.369,1.2c0.101-0.4,0.221-0.8,0.36-1.18l1.109-3.03h0.88l-1.97,5.27c-0.221,0.56-0.381,0.95-0.49,1.17
		c-0.16,0.29-0.34,0.5-0.54,0.64c-0.2,0.13-0.439,0.2-0.72,0.2C549.567,62.553,549.378,62.513,549.178,62.453"/>
	<path fill="#262626" d="M556.787,58.163l0.891-0.08c0.04,0.36,0.141,0.66,0.3,0.89c0.15,0.23,0.391,0.41,0.721,0.55
		c0.319,0.14,0.689,0.21,1.101,0.21c0.359,0,0.67-0.05,0.949-0.16c0.28-0.1,0.479-0.25,0.62-0.44c0.13-0.18,0.2-0.39,0.2-0.61
		s-0.07-0.42-0.2-0.59c-0.13-0.16-0.34-0.3-0.641-0.42c-0.189-0.08-0.609-0.19-1.271-0.35c-0.659-0.16-1.119-0.31-1.38-0.45
		c-0.34-0.18-0.601-0.4-0.771-0.66c-0.17-0.26-0.25-0.56-0.25-0.9c0-0.36,0.101-0.69,0.311-1.01c0.2-0.31,0.5-0.55,0.899-0.71
		c0.391-0.16,0.83-0.25,1.311-0.25c0.529,0,1,0.09,1.399,0.26c0.4,0.17,0.721,0.42,0.94,0.75c0.22,0.34,0.329,0.71,0.35,1.13
		l-0.91,0.07c-0.05-0.45-0.21-0.79-0.489-1.03c-0.279-0.23-0.699-0.35-1.25-0.35c-0.58,0-0.989,0.11-1.25,0.32
		s-0.391,0.46-0.391,0.76c0,0.26,0.091,0.47,0.271,0.63c0.181,0.17,0.66,0.34,1.431,0.52c0.771,0.18,1.3,0.33,1.59,0.45
		c0.41,0.2,0.721,0.44,0.921,0.73c0.199,0.3,0.3,0.64,0.3,1.02c0,0.38-0.109,0.74-0.33,1.08c-0.22,0.34-0.54,0.6-0.939,0.78
		c-0.41,0.18-0.87,0.271-1.38,0.271c-0.65,0-1.189-0.09-1.631-0.271c-0.439-0.18-0.779-0.47-1.029-0.85
		C556.928,59.072,556.798,58.643,556.787,58.163"/>
	<path fill="#262626" d="M566.978,57.862c-0.319,0.13-0.8,0.24-1.438,0.33c-0.36,0.06-0.62,0.12-0.771,0.18
		c-0.15,0.06-0.26,0.16-0.34,0.28c-0.08,0.13-0.12,0.27-0.12,0.42c0,0.24,0.08,0.43,0.261,0.59s0.439,0.23,0.779,0.23
		c0.341,0,0.641-0.07,0.9-0.22c0.26-0.15,0.46-0.35,0.59-0.61c0.09-0.2,0.141-0.49,0.141-0.88L566.978,57.862 M567.048,59.822
		c-0.33,0.28-0.641,0.479-0.939,0.59c-0.301,0.1-0.631,0.16-0.971,0.16c-0.569,0-1.01-0.13-1.31-0.41
		c-0.312-0.28-0.461-0.63-0.461-1.07c0-0.25,0.051-0.48,0.171-0.69c0.119-0.21,0.27-0.38,0.46-0.51c0.18-0.12,0.39-0.22,0.63-0.29
		c0.17-0.04,0.43-0.08,0.779-0.13c0.71-0.08,1.229-0.18,1.57-0.3c0-0.12,0-0.19,0-0.23c0-0.36-0.08-0.61-0.24-0.76
		c-0.229-0.2-0.569-0.3-1.01-0.3c-0.421,0-0.721,0.08-0.921,0.22c-0.199,0.15-0.34,0.41-0.43,0.77l-0.86-0.12
		c0.08-0.36,0.211-0.66,0.391-0.89c0.181-0.22,0.431-0.4,0.771-0.52c0.341-0.12,0.729-0.18,1.181-0.18c0.439,0,0.8,0.06,1.08,0.16
		c0.279,0.1,0.479,0.229,0.609,0.39s0.221,0.35,0.271,0.59c0.03,0.16,0.05,0.43,0.05,0.82v1.17c0,0.82,0.011,1.33,0.051,1.55
		c0.04,0.22,0.109,0.42,0.229,0.62h-0.92C567.128,60.283,567.067,60.072,567.048,59.822"/>
	<path fill="#262626" d="M569.228,60.462v-5.19h0.79v0.73c0.16-0.25,0.37-0.45,0.641-0.61c0.271-0.15,0.58-0.23,0.931-0.23
		c0.38,0,0.689,0.08,0.939,0.24c0.24,0.16,0.42,0.39,0.521,0.67c0.41-0.6,0.939-0.91,1.601-0.91c0.521,0,0.909,0.15,1.189,0.43
		c0.279,0.28,0.42,0.72,0.42,1.31v3.56h-0.88v-3.27c0-0.34-0.03-0.59-0.091-0.75c-0.061-0.16-0.159-0.28-0.311-0.38
		c-0.148-0.09-0.319-0.14-0.52-0.14c-0.37,0-0.671,0.13-0.91,0.37c-0.24,0.24-0.359,0.63-0.359,1.16v3.01h-0.881v-3.37
		c0-0.39-0.08-0.68-0.22-0.88c-0.141-0.19-0.38-0.29-0.7-0.29c-0.25,0-0.479,0.07-0.689,0.2s-0.359,0.32-0.449,0.57
		c-0.101,0.25-0.141,0.61-0.141,1.08v2.69H569.228"/>
	<path fill="#262626" d="M578.357,57.902c0,0.67,0.13,1.16,0.399,1.48c0.271,0.32,0.601,0.47,0.979,0.47c0.391,0,0.721-0.16,1-0.49
		c0.279-0.33,0.42-0.84,0.42-1.54c0-0.66-0.141-1.15-0.409-1.48c-0.271-0.32-0.591-0.49-0.971-0.49c-0.381,0-0.71,0.18-0.99,0.53
		C578.498,56.732,578.357,57.243,578.357,57.902 M577.558,62.442v-7.17h0.801v0.68c0.18-0.26,0.399-0.46,0.641-0.59
		c0.239-0.13,0.52-0.2,0.859-0.2c0.439,0,0.83,0.12,1.17,0.34c0.34,0.23,0.59,0.55,0.771,0.97c0.17,0.42,0.26,0.87,0.26,1.36
		c0,0.53-0.1,1.01-0.29,1.43c-0.189,0.43-0.47,0.76-0.83,0.98c-0.359,0.22-0.739,0.33-1.14,0.33c-0.3,0-0.561-0.06-0.79-0.18
		c-0.24-0.12-0.431-0.27-0.57-0.47v2.52H577.558"/>
	<polyline fill="#262626" points="583.098,60.462 583.098,53.303 583.978,53.303 583.978,60.462 583.098,60.462 	"/>
	<path fill="#262626" d="M585.998,57.373h2.899c-0.04-0.44-0.149-0.76-0.33-0.98c-0.28-0.34-0.649-0.51-1.091-0.51
		c-0.409,0-0.75,0.14-1.02,0.41C586.178,56.562,586.027,56.922,585.998,57.373 M588.888,58.792l0.91,0.11
		c-0.15,0.54-0.42,0.95-0.8,1.24c-0.391,0.29-0.881,0.43-1.48,0.43c-0.76,0-1.369-0.23-1.81-0.69s-0.66-1.12-0.66-1.97
		c0-0.87,0.22-1.55,0.67-2.03c0.439-0.48,1.03-0.72,1.75-0.72c0.689,0,1.26,0.24,1.7,0.71c0.439,0.47,0.659,1.13,0.659,1.99
		c0,0.06-0.01,0.13-0.01,0.23h-3.87c0.03,0.58,0.189,1.01,0.479,1.31c0.29,0.3,0.649,0.45,1.09,0.45c0.32,0,0.601-0.08,0.83-0.25
		C588.567,59.442,588.748,59.172,588.888,58.792"/>
</g>
</svg>
