<?xml version="1.0" encoding="utf-8"?>
<!-- Generator: Adobe Illustrator 16.0.4, SVG Export Plug-In . SVG Version: 6.00 Build 0)  -->
<!DOCTYPE svg PUBLIC "-//W3C//DTD SVG 1.1//EN" "http://www.w3.org/Graphics/SVG/1.1/DTD/svg11.dtd">
<svg version="1.1" id="Layer_1" xmlns="http://www.w3.org/2000/svg" xmlns:xlink="http://www.w3.org/1999/xlink" x="0px" y="0px"
	 width="650px" height="369.5px" viewBox="15.249 20.085 650 369.5" enable-background="new 15.249 20.085 650 369.5"
	 xml:space="preserve">
<title>red person symbol</title>
<g>
	<title>Layer 1</title>
	<path id="path2457" fill="#56AAFF" stroke="#FFFFFF" stroke-width="0.4575" d="M75.093,126.823"/>
	<g id="svg_1">
		<path id="path2455" fill="#474747" d="M72.347,144.592c10.318,0,18.684-8.366,18.684-18.685c0-10.318-8.365-18.684-18.684-18.684
			s-18.684,8.366-18.684,18.684C53.664,136.226,62.029,144.592,72.347,144.592z"/>
		<path id="path2459" fill="#474747" d="M53.269,148.716c-13.231,0-23.872,10.791-23.872,24.25v57.365
			c0,11.153,16.322,11.153,16.322,0v-52.455h3.864v143.627c0,14.91,21.735,14.473,21.735,0V238.13h3.744v83.374
			c0,14.473,21.855,14.91,21.855,0V177.876h3.773v52.455c0,11.239,16.237,11.239,16.207,0v-57.022
			c0-12.41-9.638-24.567-24.165-24.567L53.269,148.716z"/>
	</g>
</g>
<g>
	<path fill-rule="evenodd" clip-rule="evenodd" fill="#F0FEFF" d="M220.632,319.647c-22.566-12.468-22.566-12.468-22.566-12.468
		c-1.289,3.088-1.289,3.088-1.289,3.088l0,0C178.702,343,178.702,343,178.702,343c-0.847,1.545-0.369,3.531,1.178,4.414
		c19.511,10.703,19.511,10.703,19.511,10.703c1.583,0.846,3.608,0.256,4.454-1.326c12.885-23.354,12.885-23.354,12.885-23.354
		c0.699-1.287,9.203-7.502,9.24-8.533C226.043,323.875,225.454,322.295,220.632,319.647"/>
	<path fill-rule="evenodd" clip-rule="evenodd" fill="#FFF364" d="M180.2,340.172c-1.587,2.736-1.587,2.736-1.587,2.736
		c-0.847,1.576-0.361,3.582,1.217,4.428c19.485,10.684,19.485,10.684,19.485,10.684c1.517,0.852,3.529,0.184,4.375-1.33
		c4.384-7.893,7.251-13.111,9.139-16.518H180.2z"/>
	<path fill="none" stroke="#99CCFF" stroke-miterlimit="8" d="M220.632,319.647c-22.566-12.468-22.566-12.468-22.566-12.468
		c-1.289,3.088-1.289,3.088-1.289,3.088l0,0C178.702,343,178.702,343,178.702,343c-0.847,1.545-0.369,3.531,1.178,4.414
		c19.511,10.703,19.511,10.703,19.511,10.703c1.583,0.846,3.608,0.256,4.454-1.326c12.885-23.354,12.885-23.354,12.885-23.354
		c0.7-1.287,9.203-7.502,9.241-8.533C226.043,323.875,225.454,322.295,220.632,319.647"/>
	
		<line fill="none" stroke="#99CCFF" stroke-width="0.25" stroke-miterlimit="8" x1="206.984" y1="334.329" x2="197.454" y2="351.59"/>
	
		<line fill="none" stroke="#99CCFF" stroke-width="0.25" stroke-miterlimit="8" x1="202.489" y1="331.811" x2="206.984" y2="334.329"/>
	
		<line fill="none" stroke="#99CCFF" stroke-width="0.25" stroke-miterlimit="8" x1="192.958" y1="349.073" x2="197.454" y2="351.59"/>
	
		<line fill="none" stroke="#99CCFF" stroke-width="0.25" stroke-miterlimit="8" x1="194.757" y1="345.657" x2="199.432" y2="348.174"/>
	
		<line fill="none" stroke="#99CCFF" stroke-width="0.25" stroke-miterlimit="8" x1="196.735" y1="342.241" x2="201.23" y2="344.758"/>
	
		<line fill="none" stroke="#99CCFF" stroke-width="0.25" stroke-miterlimit="8" x1="198.533" y1="338.825" x2="203.208" y2="341.34"/>
	
		<line fill="none" stroke="#99CCFF" stroke-width="0.25" stroke-miterlimit="8" x1="200.511" y1="335.227" x2="205.186" y2="337.745"/>
</g>
<g>
	<path fill-rule="evenodd" clip-rule="evenodd" fill="#F0FEFF" d="M213.444,122.475c-31.854,36.493-31.854,36.493-31.854,36.493
		c-2.009,2.257-1.642,5.823,0.798,7.93c2.408,2.114,6.014,1.97,7.983-0.288c31.854-36.493,31.854-36.493,31.854-36.493
		L213.444,122.475z"/>
	<path fill-rule="evenodd" clip-rule="evenodd" fill="#FF2727" d="M181.499,158.87c-2.002,2.259-1.642,5.828,0.798,7.942
		c2.401,2.115,6.006,1.971,7.976-0.294c15.285-17.56,15.285-17.56,15.285-17.56c-15.435,0-15.435,0-15.435,0L181.499,158.87z"/>
	<path fill="none" stroke="#99CCFF" stroke-miterlimit="8" d="M213.444,122.475c-31.854,36.493-31.854,36.493-31.854,36.493
		c-2.009,2.257-1.642,5.823,0.798,7.93c2.408,2.114,6.014,1.97,7.983-0.288c31.854-36.493,31.854-36.493,31.854-36.493
		L213.444,122.475z"/>
	
		<line fill="none" stroke="#99CCFF" stroke-width="0.25" stroke-miterlimit="8" x1="204.626" y1="139.397" x2="208.857" y2="143.121"/>
	
		<line fill="none" stroke="#99CCFF" stroke-width="0.25" stroke-miterlimit="8" x1="201.411" y1="142.951" x2="205.811" y2="146.843"/>
	
		<line fill="none" stroke="#99CCFF" stroke-width="0.25" stroke-miterlimit="8" x1="198.196" y1="146.674" x2="202.596" y2="150.397"/>
	<line fill="none" stroke="#99CCFF" stroke-width="0.25" stroke-miterlimit="8" x1="194.98" y1="150.397" x2="199.38" y2="154.12"/>
	
		<line fill="none" stroke="#99CCFF" stroke-width="0.25" stroke-miterlimit="8" x1="191.765" y1="153.951" x2="196.165" y2="157.843"/>
	
		<line fill="none" stroke="#99CCFF" stroke-width="0.25" stroke-miterlimit="8" x1="188.719" y1="157.673" x2="192.95" y2="161.396"/>
	
		<line fill="none" stroke="#99CCFF" stroke-width="0.25" stroke-miterlimit="8" x1="185.504" y1="161.228" x2="189.735" y2="165.119"/>
	
		<line fill="none" stroke="#99CCFF" stroke-width="0.25" stroke-miterlimit="8" x1="202.427" y1="147.013" x2="204.118" y2="148.705"/>
	
		<line fill="none" stroke="#99CCFF" stroke-width="0.25" stroke-miterlimit="8" x1="199.211" y1="150.735" x2="200.903" y2="152.258"/>
	
		<line fill="none" stroke="#99CCFF" stroke-width="0.25" stroke-miterlimit="8" x1="195.996" y1="154.458" x2="197.857" y2="155.981"/>
	
		<line fill="none" stroke="#99CCFF" stroke-width="0.25" stroke-miterlimit="8" x1="192.781" y1="158.012" x2="194.642" y2="159.535"/>
	
		<line fill="none" stroke="#99CCFF" stroke-width="0.25" stroke-miterlimit="8" x1="189.565" y1="161.735" x2="191.427" y2="163.258"/>
	
		<line fill="none" stroke="#99CCFF" stroke-width="0.25" stroke-miterlimit="8" x1="205.642" y1="143.458" x2="207.333" y2="144.981"/>
	
		<line fill="none" stroke="#99CCFF" stroke-width="0.25" stroke-miterlimit="8" x1="210.888" y1="132.121" x2="215.288" y2="135.844"/>
	
		<line fill="none" stroke="#99CCFF" stroke-width="0.25" stroke-miterlimit="8" x1="207.841" y1="135.674" x2="212.072" y2="139.566"/>
	
		<line fill="none" stroke="#99CCFF" stroke-width="0.25" stroke-miterlimit="8" x1="208.857" y1="139.905" x2="210.549" y2="141.259"/>
	
		<line fill="none" stroke="#99CCFF" stroke-width="0.25" stroke-miterlimit="8" x1="211.903" y1="136.182" x2="213.765" y2="137.705"/>
	<path fill-rule="evenodd" clip-rule="evenodd" fill="#369B77" d="M219.504,124.264c-2.715-2.4-5.161-4.074-5.464-3.733
		l-3.273,3.661c-0.302,0.34,1.65,2.556,4.365,4.956c2.715,2.399,5.161,4.073,5.463,3.733l3.274-3.661
		C224.172,128.879,222.213,126.663,219.504,124.264z"/>
	<path fill-rule="evenodd" clip-rule="evenodd" fill="#63C4A3" d="M214.148,120.535c-0.299,0.337,1.639,2.587,4.325,5.016
		c2.68,2.428,5.1,4.116,5.398,3.779c0.3-0.345-1.638-2.588-4.319-5.017C216.867,121.885,214.448,120.19,214.148,120.535"/>
</g>
<g>
	<ellipse fill="#F0FEFF" cx="297.023" cy="122.596" rx="8.005" ry="1.154"/>
	<ellipse fill="none" stroke="#99CCFF" stroke-miterlimit="8" cx="297.023" cy="122.596" rx="8.005" ry="1.154"/>
	<path fill="none" stroke="#99CCFF" stroke-miterlimit="8" d="M297.239,125.769c2.859,0,5.192-0.178,5.192-0.474
		c0-2.459,0-2.459,0-2.459c0-0.177-2.333-0.385-5.192-0.385c-2.83,0-5.191,0.208-5.191,0.385c0,2.459,0,2.459,0,2.459
		C292.047,125.591,294.409,125.769,297.239,125.769"/>
	<path fill-rule="evenodd" clip-rule="evenodd" fill="#F0FEFF" d="M297.239,125.769c2.859,0,5.192-0.178,5.192-0.474
		c0-2.459,0-2.459,0-2.459c0-0.177-2.333-0.385-5.192-0.385c-2.83,0-5.191,0.208-5.191,0.385c0,2.459,0,2.459,0,2.459
		C292.047,125.591,294.409,125.769,297.239,125.769"/>
	<path fill-rule="evenodd" clip-rule="evenodd" fill="#F0FEFF" d="M303.874,123.882c0-0.187-2.984-0.277-6.707-0.277
		c-3.729,0-6.706,0.09-6.706,0.277c0,1.685,0,1.685,0,1.685c0,0.091,0.372,0.091,1.02,0.181c0,21.37,0,21.37,0,21.37
		c4.384,13.624,4.384,13.624,4.384,13.624c1.117,2.24,1.393,2.24,2.51,0c4.288-13.715,4.288-13.715,4.288-13.715
		c0-21.279,0-21.279,0-21.279c0.744-0.09,1.212-0.09,1.212-0.181V123.882z"/>
	<path fill-rule="evenodd" clip-rule="evenodd" fill="#FF2727" d="M291.397,132.717c0,14.29,0,14.29,0,14.29
		c4.407,13.523,4.407,13.523,4.407,13.523c1.218,2.237,1.408,2.237,2.627,0c4.217-13.71,4.217-13.71,4.217-13.71
		c0-4.103,0-14.103,0-14.103H291.397z"/>
	<path fill="none" stroke="#99CCFF" stroke-miterlimit="8" d="M289.167,122.614c-0.629,0.093-2.966-0.019-3.595,0.353
		c-0.665,0.39-0.737,1.486,0.09,1.783c0.755,0.298,3.882,0.13,4.799,0.13"/>
	<path fill="none" stroke="#99CCFF" stroke-miterlimit="8" d="M303.874,123.882c0-0.187-2.984-0.277-6.707-0.277
		c-3.729,0-6.706,0.09-6.706,0.277c0,1.685,0,1.685,0,1.685c0,0.091,0.372,0.091,1.02,0.181c0,21.37,0,21.37,0,21.37
		c4.384,13.624,4.384,13.624,4.384,13.624c1.117,2.24,1.393,2.24,2.51,0c4.288-13.715,4.288-13.715,4.288-13.715
		c0-21.279,0-21.279,0-21.279c0.744-0.09,1.212-0.09,1.212-0.181V123.882z"/>
</g>
<text transform="matrix(1 0 0 1 48.6221 52.0522)" font-family="'GillSansMTPro-Book'" font-size="17">Subject</text>
<text transform="matrix(1 0 0 1 177.7256 44.8521)"><tspan x="0" y="0" font-family="'GillSansMTPro-Book'" font-size="17">Sampling</tspan><tspan x="10.888" y="20.4" font-family="'GillSansMTPro-Book'" font-size="17">Event</tspan></text>
<text transform="matrix(1 0 0 1 274.4346 44.8521)"><tspan x="0" y="0" font-family="'GillSansMTPro-Book'" font-size="17">Sample</tspan><tspan x="-0.621" y="20.4" font-family="'GillSansMTPro-Book'" font-size="17">Aliquot</tspan></text>
<text transform="matrix(1 0 0 1 50.1406 82.5854)" font-family="'GillSansMTPro-BookItalic'" font-size="12">Subject ID</text>
<text transform="matrix(1 0 0 1 180.1812 82.5854)" font-family="'GillSansMTPro-BookItalic'" font-size="12">Sampling ID</text>
<text transform="matrix(1 0 0 1 276.5996 82.5854)" font-family="'GillSansMTPro-BookItalic'" font-size="12">Aliquot ID</text>
<g>
	<path fill-rule="evenodd" clip-rule="evenodd" fill="#F0FEFF" d="M213.444,210.413c-31.854,36.493-31.854,36.493-31.854,36.493
		c-2.01,2.257-1.643,5.823,0.798,7.93c2.408,2.114,6.014,1.97,7.983-0.288c31.854-36.493,31.854-36.493,31.854-36.493
		L213.444,210.413z"/>
	<path fill-rule="evenodd" clip-rule="evenodd" fill="#FF2727" d="M181.499,246.808c-2.002,2.259-1.643,5.828,0.799,7.942
		c2.4,2.115,6.006,1.971,7.975-0.294c15.285-17.56,15.285-17.56,15.285-17.56c-15.436,0-15.436,0-15.436,0L181.499,246.808z"/>
	<path fill="none" stroke="#99CCFF" stroke-miterlimit="8" d="M213.444,210.413c-31.854,36.493-31.854,36.493-31.854,36.493
		c-2.01,2.257-1.643,5.823,0.798,7.93c2.408,2.114,6.014,1.97,7.983-0.288c31.854-36.493,31.854-36.493,31.854-36.493
		L213.444,210.413z"/>
	
		<line fill="none" stroke="#99CCFF" stroke-width="0.25" stroke-miterlimit="8" x1="204.626" y1="227.335" x2="208.857" y2="231.059"/>
	
		<line fill="none" stroke="#99CCFF" stroke-width="0.25" stroke-miterlimit="8" x1="201.411" y1="230.889" x2="205.811" y2="234.781"/>
	
		<line fill="none" stroke="#99CCFF" stroke-width="0.25" stroke-miterlimit="8" x1="198.196" y1="234.612" x2="202.596" y2="238.335"/>
	
		<line fill="none" stroke="#99CCFF" stroke-width="0.25" stroke-miterlimit="8" x1="194.981" y1="238.335" x2="199.38" y2="242.058"/>
	
		<line fill="none" stroke="#99CCFF" stroke-width="0.25" stroke-miterlimit="8" x1="191.765" y1="241.889" x2="196.165" y2="245.781"/>
	
		<line fill="none" stroke="#99CCFF" stroke-width="0.25" stroke-miterlimit="8" x1="188.719" y1="245.611" x2="192.95" y2="249.334"/>
	
		<line fill="none" stroke="#99CCFF" stroke-width="0.25" stroke-miterlimit="8" x1="185.504" y1="249.166" x2="189.735" y2="253.057"/>
	
		<line fill="none" stroke="#99CCFF" stroke-width="0.25" stroke-miterlimit="8" x1="202.426" y1="234.951" x2="204.118" y2="236.643"/>
	
		<line fill="none" stroke="#99CCFF" stroke-width="0.25" stroke-miterlimit="8" x1="199.211" y1="238.673" x2="200.903" y2="240.196"/>
	
		<line fill="none" stroke="#99CCFF" stroke-width="0.25" stroke-miterlimit="8" x1="195.996" y1="242.396" x2="197.858" y2="243.919"/>
	
		<line fill="none" stroke="#99CCFF" stroke-width="0.25" stroke-miterlimit="8" x1="192.781" y1="245.95" x2="194.642" y2="247.473"/>
	
		<line fill="none" stroke="#99CCFF" stroke-width="0.25" stroke-miterlimit="8" x1="189.565" y1="249.673" x2="191.426" y2="251.196"/>
	
		<line fill="none" stroke="#99CCFF" stroke-width="0.25" stroke-miterlimit="8" x1="205.641" y1="231.396" x2="207.333" y2="232.919"/>
	
		<line fill="none" stroke="#99CCFF" stroke-width="0.25" stroke-miterlimit="8" x1="210.887" y1="220.059" x2="215.288" y2="223.782"/>
	
		<line fill="none" stroke="#99CCFF" stroke-width="0.25" stroke-miterlimit="8" x1="207.841" y1="223.612" x2="212.072" y2="227.504"/>
	
		<line fill="none" stroke="#99CCFF" stroke-width="0.25" stroke-miterlimit="8" x1="208.857" y1="227.843" x2="210.549" y2="229.197"/>
	
		<line fill="none" stroke="#99CCFF" stroke-width="0.25" stroke-miterlimit="8" x1="211.903" y1="224.12" x2="213.764" y2="225.643"/>
	<path fill-rule="evenodd" clip-rule="evenodd" fill="#369B77" d="M219.504,212.202c-2.715-2.4-5.16-4.074-5.465-3.733l-3.272,3.661
		c-0.302,0.34,1.649,2.556,4.365,4.956c2.715,2.399,5.161,4.073,5.464,3.733l3.273-3.661
		C224.172,216.817,222.213,214.601,219.504,212.202z"/>
	<path fill-rule="evenodd" clip-rule="evenodd" fill="#63C4A3" d="M214.149,208.473c-0.3,0.337,1.639,2.587,4.324,5.016
		c2.68,2.428,5.101,4.116,5.398,3.779c0.301-0.345-1.638-2.588-4.318-5.017C216.868,209.823,214.448,208.128,214.149,208.473"/>
</g>
<g>
	<ellipse fill="#F0FEFF" cx="291.038" cy="201.997" rx="8.005" ry="1.154"/>
	<ellipse fill="none" stroke="#99CCFF" stroke-miterlimit="8" cx="291.038" cy="201.997" rx="8.005" ry="1.154"/>
	<path fill="none" stroke="#99CCFF" stroke-miterlimit="8" d="M291.254,205.17c2.859,0,5.191-0.178,5.191-0.474
		c0-2.459,0-2.459,0-2.459c0-0.177-2.332-0.385-5.191-0.385c-2.83,0-5.191,0.208-5.191,0.385c0,2.459,0,2.459,0,2.459
		C286.062,204.992,288.424,205.17,291.254,205.17"/>
	<path fill-rule="evenodd" clip-rule="evenodd" fill="#F0FEFF" d="M291.254,205.17c2.859,0,5.191-0.178,5.191-0.474
		c0-2.459,0-2.459,0-2.459c0-0.177-2.332-0.385-5.191-0.385c-2.83,0-5.191,0.208-5.191,0.385c0,2.459,0,2.459,0,2.459
		C286.062,204.992,288.424,205.17,291.254,205.17"/>
	<path fill-rule="evenodd" clip-rule="evenodd" fill="#F0FEFF" d="M297.889,203.283c0-0.187-2.984-0.277-6.707-0.277
		c-3.729,0-6.707,0.09-6.707,0.277c0,1.685,0,1.685,0,1.685c0,0.091,0.373,0.091,1.02,0.181c0,21.37,0,21.37,0,21.37
		c4.385,13.624,4.385,13.624,4.385,13.624c1.117,2.24,1.393,2.24,2.51,0c4.287-13.715,4.287-13.715,4.287-13.715
		c0-21.279,0-21.279,0-21.279c0.744-0.09,1.213-0.09,1.213-0.181V203.283z"/>
	<path fill-rule="evenodd" clip-rule="evenodd" fill="#FF2727" d="M285.412,222.118c0,4.29,0,4.29,0,4.29
		c4.406,13.523,4.406,13.523,4.406,13.523c1.219,2.237,1.408,2.237,2.627,0c4.217-13.71,4.217-13.71,4.217-13.71
		c0-4.103,0-4.103,0-4.103H285.412z"/>
	<path fill="none" stroke="#99CCFF" stroke-miterlimit="8" d="M283.182,202.015c-0.629,0.093-2.967-0.019-3.596,0.353
		c-0.664,0.39-0.736,1.486,0.09,1.783c0.756,0.298,3.883,0.13,4.799,0.13"/>
	<path fill="none" stroke="#99CCFF" stroke-miterlimit="8" d="M297.889,203.283c0-0.187-2.984-0.277-6.707-0.277
		c-3.729,0-6.707,0.09-6.707,0.277c0,1.685,0,1.685,0,1.685c0,0.091,0.373,0.091,1.02,0.181c0,21.37,0,21.37,0,21.37
		c4.385,13.624,4.385,13.624,4.385,13.624c1.117,2.24,1.393,2.24,2.51,0c4.287-13.715,4.287-13.715,4.287-13.715
		c0-21.279,0-21.279,0-21.279c0.744-0.09,1.213-0.09,1.213-0.181V203.283z"/>
</g>
<g>
	<ellipse fill="#F0FEFF" cx="301.024" cy="221.028" rx="8.005" ry="1.154"/>
	<ellipse fill="none" stroke="#99CCFF" stroke-miterlimit="8" cx="301.024" cy="221.028" rx="8.005" ry="1.154"/>
	<path fill="none" stroke="#99CCFF" stroke-miterlimit="8" d="M301.24,224.201c2.859,0,5.191-0.178,5.191-0.474
		c0-2.459,0-2.459,0-2.459c0-0.177-2.332-0.385-5.191-0.385c-2.83,0-5.191,0.208-5.191,0.385c0,2.459,0,2.459,0,2.459
		C296.049,224.023,298.41,224.201,301.24,224.201"/>
	<path fill-rule="evenodd" clip-rule="evenodd" fill="#F0FEFF" d="M301.24,224.201c2.859,0,5.191-0.178,5.191-0.474
		c0-2.459,0-2.459,0-2.459c0-0.177-2.332-0.385-5.191-0.385c-2.83,0-5.191,0.208-5.191,0.385c0,2.459,0,2.459,0,2.459
		C296.049,224.023,298.41,224.201,301.24,224.201"/>
	<path fill-rule="evenodd" clip-rule="evenodd" fill="#F0FEFF" d="M307.875,222.314c0-0.187-2.984-0.277-6.707-0.277
		c-3.729,0-6.707,0.09-6.707,0.277c0,1.685,0,1.685,0,1.685c0,0.091,0.373,0.091,1.02,0.181c0,21.37,0,21.37,0,21.37
		c4.385,13.624,4.385,13.624,4.385,13.624c1.117,2.24,1.393,2.24,2.51,0c4.287-13.715,4.287-13.715,4.287-13.715
		c0-21.279,0-21.279,0-21.279c0.744-0.09,1.213-0.09,1.213-0.181V222.314z"/>
	<path fill-rule="evenodd" clip-rule="evenodd" fill="#FF2727" d="M295.398,243.149c0,2.29,0,2.29,0,2.29
		c4.406,13.523,4.406,13.523,4.406,13.523c1.219,2.237,1.408,2.237,2.627,0c4.217-13.71,4.217-13.71,4.217-13.71
		c0-4.103,0-2.103,0-2.103H295.398z"/>
	<path fill="none" stroke="#99CCFF" stroke-miterlimit="8" d="M293.168,221.046c-0.629,0.093-2.967-0.019-3.596,0.353
		c-0.664,0.39-0.736,1.486,0.09,1.783c0.756,0.298,3.883,0.13,4.799,0.13"/>
	<path fill="none" stroke="#99CCFF" stroke-miterlimit="8" d="M307.875,222.314c0-0.187-2.984-0.277-6.707-0.277
		c-3.729,0-6.707,0.09-6.707,0.277c0,1.685,0,1.685,0,1.685c0,0.091,0.373,0.091,1.02,0.181c0,21.37,0,21.37,0,21.37
		c4.385,13.624,4.385,13.624,4.385,13.624c1.117,2.24,1.393,2.24,2.51,0c4.287-13.715,4.287-13.715,4.287-13.715
		c0-21.279,0-21.279,0-21.279c0.744-0.09,1.213-0.09,1.213-0.181V222.314z"/>
</g>
<g>
	<ellipse fill="#F0FEFF" cx="297.023" cy="315.334" rx="8.005" ry="1.154"/>
	<ellipse fill="none" stroke="#99CCFF" stroke-miterlimit="8" cx="297.023" cy="315.334" rx="8.005" ry="1.154"/>
	<path fill="none" stroke="#99CCFF" stroke-miterlimit="8" d="M297.239,318.507c2.859,0,5.191-0.178,5.191-0.473
		c0-2.46,0-2.46,0-2.46c0-0.177-2.332-0.385-5.191-0.385c-2.83,0-5.191,0.208-5.191,0.385c0,2.46,0,2.46,0,2.46
		C292.048,318.33,294.409,318.507,297.239,318.507"/>
	<path fill-rule="evenodd" clip-rule="evenodd" fill="#F0FEFF" d="M297.239,318.507c2.859,0,5.191-0.178,5.191-0.473
		c0-2.46,0-2.46,0-2.46c0-0.177-2.332-0.385-5.191-0.385c-2.83,0-5.191,0.208-5.191,0.385c0,2.46,0,2.46,0,2.46
		C292.048,318.33,294.409,318.507,297.239,318.507"/>
	<path fill-rule="evenodd" clip-rule="evenodd" fill="#F0FEFF" d="M303.874,316.621c0-0.187-2.984-0.276-6.707-0.276
		c-3.729,0-6.707,0.09-6.707,0.276c0,1.686,0,1.686,0,1.686c0,0.091,0.373,0.091,1.02,0.181c0,21.37,0,21.37,0,21.37
		c4.385,13.624,4.385,13.624,4.385,13.624c1.117,2.239,1.393,2.239,2.51,0c4.287-13.715,4.287-13.715,4.287-13.715
		c0-21.279,0-21.279,0-21.279c0.744-0.09,1.213-0.09,1.213-0.181V316.621z"/>
	<path fill-rule="evenodd" clip-rule="evenodd" fill="#FFF364" d="M291.397,322.456c0,17.29,0,17.29,0,17.29
		c4.406,13.522,4.406,13.522,4.406,13.522c1.219,2.237,1.408,2.237,2.627,0c4.217-13.71,4.217-13.71,4.217-13.71
		c0-4.103,0-17.103,0-17.103H291.397z"/>
	<path fill="none" stroke="#99CCFF" stroke-miterlimit="8" d="M289.167,315.353c-0.629,0.094-2.967-0.019-3.596,0.354
		c-0.664,0.389-0.736,1.485,0.09,1.782c0.756,0.298,3.883,0.13,4.799,0.13"/>
	<path fill="none" stroke="#99CCFF" stroke-miterlimit="8" d="M303.874,316.621c0-0.187-2.984-0.276-6.707-0.276
		c-3.729,0-6.707,0.09-6.707,0.276c0,1.686,0,1.686,0,1.686c0,0.091,0.373,0.091,1.02,0.181c0,21.37,0,21.37,0,21.37
		c4.385,13.624,4.385,13.624,4.385,13.624c1.117,2.239,1.393,2.239,2.51,0c4.287-13.715,4.287-13.715,4.287-13.715
		c0-21.279,0-21.279,0-21.279c0.744-0.09,1.213-0.09,1.213-0.181V316.621z"/>
</g>
<g>
	<g>
		<line fill="none" stroke="#000000" stroke-width="2" x1="121.896" y1="141.085" x2="177.689" y2="141.085"/>
		<g>
			<polygon points="173.706,144.476 177.098,141.085 173.706,137.695 176.584,137.695 179.975,141.085 176.584,144.476 			"/>
		</g>
	</g>
</g>
<g>
	<g>
		<line fill="none" stroke="#000000" stroke-width="2" x1="129.082" y1="228.085" x2="177.688" y2="228.085"/>
		<g>
			<polygon points="173.705,231.476 177.098,228.085 173.705,224.695 176.584,224.695 179.975,228.085 176.584,231.476 			"/>
		</g>
	</g>
</g>
<g>
	<g>
		<line fill="none" stroke="#000000" stroke-width="2" x1="121.896" y1="329.085" x2="177.688" y2="329.085"/>
		<g>
			<polygon points="173.705,332.476 177.097,329.085 173.705,325.695 176.583,325.695 179.974,329.085 176.583,332.476 			"/>
		</g>
	</g>
</g>
<g>
	<g>
		<line fill="none" stroke="#000000" stroke-width="2" x1="227.582" y1="141.085" x2="273.207" y2="141.085"/>
		<g>
			<polygon points="269.224,144.476 272.616,141.085 269.224,137.695 272.103,137.695 275.493,141.085 272.103,144.476 			"/>
		</g>
	</g>
</g>
<g>
	<g>
		<line fill="none" stroke="#000000" stroke-width="2" x1="230.582" y1="329.085" x2="273.207" y2="329.085"/>
		<g>
			<polygon points="269.224,332.476 272.616,329.085 269.224,325.695 272.103,325.695 275.493,329.085 272.103,332.476 			"/>
		</g>
	</g>
</g>
<text transform="matrix(1 0 0 1 44.3076 357.9185)" font-family="'GillSansMTPro-Book'" font-size="12">Participant A</text>
<text transform="matrix(1 0 0 1 163.0889 181.0522)" font-family="'GillSansMTPro-Book'" font-size="12">Plasma Time 1</text>
<text transform="matrix(1 0 0 1 163.0889 281.2192)" font-family="'GillSansMTPro-Book'" font-size="12">Plasma Time 2</text>
<text transform="matrix(1 0 0 1 166.1309 377.1685)" font-family="'GillSansMTPro-Book'" font-size="12">Urine Time 1</text>
<text transform="matrix(1 0 0 1 266.2959 181.0522)" font-family="'GillSansMTPro-Book'" font-size="12">Plasma Time 1</text>
<text transform="matrix(1 0 0 1 259.0234 274.019)"><tspan x="0" y="0" font-family="'GillSansMTPro-Book'" font-size="12">Plasma Time 2A</tspan><tspan x="0" y="14.4" font-family="'GillSansMTPro-Book'" font-size="12">Plasma Time 2B</tspan></text>
<text transform="matrix(1 0 0 1 269.3379 377.1685)" font-family="'GillSansMTPro-Book'" font-size="12">Urine Time 1</text>
<g>
	<g>
		<g>
			
				<line fill="none" stroke="#000000" stroke-width="2" stroke-linejoin="round" x1="245.874" y1="235.085" x2="273.207" y2="235.085"/>
			<g>
				<polygon points="269.224,238.476 272.616,235.085 269.224,231.695 272.103,231.695 275.493,235.085 272.103,238.476 				"/>
			</g>
		</g>
	</g>
	<g>
		<g>
			<polyline fill="none" stroke="#000000" stroke-width="2" stroke-linejoin="round" points="227.582,228.085 241.261,228.085 
				245.916,235.085 241.261,228.085 245.249,221.085 273.207,221.085 			"/>
			<g>
				<polygon points="269.224,224.476 272.616,221.085 269.224,217.695 272.103,217.695 275.493,221.085 272.103,224.476 				"/>
			</g>
		</g>
	</g>
</g>
<g>
	<g>
		<line fill="none" stroke="#000000" stroke-width="2" x1="319.082" y1="141.085" x2="364.707" y2="141.085"/>
		<g>
			<polygon points="360.724,144.476 364.116,141.085 360.724,137.695 363.603,137.695 366.993,141.085 363.603,144.476 			"/>
		</g>
	</g>
</g>
<g>
	<g>
		<line fill="none" stroke="#000000" stroke-width="2" x1="322.082" y1="329.085" x2="364.707" y2="329.085"/>
		<g>
			<polygon points="360.724,332.476 364.116,329.085 360.724,325.695 363.603,325.695 366.993,329.085 363.603,332.476 			"/>
		</g>
	</g>
</g>
<g>
	
		<line fill="none" stroke="#000000" stroke-width="2" stroke-linejoin="round" x1="348.702" y1="221.085" x2="319.082" y2="221.085"/>
	<g>
		<g>
			<polyline fill="none" stroke="#000000" stroke-width="2" stroke-linejoin="round" points="364.707,228.085 353.313,228.085 
				348.659,221.085 353.313,228.085 349.327,235.085 319.082,235.085 			"/>
			<g>
				<polygon points="360.724,224.695 364.116,228.085 360.724,231.476 363.603,231.476 366.993,228.085 363.603,224.695 				"/>
			</g>
		</g>
	</g>
</g>
<text transform="matrix(1 0 0 1 574.6562 44.8521)"><tspan x="0" y="0" font-family="'GillSansMTPro-Book'" font-size="17">Assay</tspan><tspan x="3" y="20.4" font-family="'GillSansMTPro-Book'" font-size="17">Data</tspan></text>
<text transform="matrix(1 0 0 1 549.8301 82.5854)" font-family="'GillSansMTPro-BookItalic'" font-size="12">Sample Base Name</text>
<path fill="none" stroke="#0BD81E" stroke-linejoin="round" stroke-miterlimit="10" d="M611.053,124.889
	c0.772,2.016,1.393,4.18,2.031,6.302c0.635,2.11,1.165,4.292,1.631,6.503c0.944,4.487,1.776,9.02,2.87,13.43
	c0.527,2.126,1.07,4.335,1.821,6.299c0.378,0.984,0.812,1.923,1.338,2.733c0.498,0.769,1.091,1.263,1.716,1.734
	c0.601,0.454,1.265,0.687,1.91,0.917c0.745,0.265,1.5,0.474,2.262,0.61c0.772,0.137,1.562,0.141,2.328,0.323
	c0.367,0.087,0.781,0.011,1.154,0.025c0.381,0.015,0.765,0.116,1.145,0.116c3.094,0,6.185,0.422,9.284,0.498
	c0.772,0.019,1.562,0.021,2.329,0.111c0.743,0.088,1.556,0.172,2.299,0.083c0.771-0.092,1.554,0.12,2.329,0.12
	c0.776,0,1.552,0,2.329,0c0.893,0,1.799,0.085,2.691-0.017 M569.468,160.812c0.24-0.43,0.41-0.903,0.566-1.419
	c0.129-0.426,0.372-1.488,0.729-0.81c0.17,0.322,0.47,1.079,0.811,0.836c0.347-0.246,0.494-0.847,0.619-1.367
	c0.272-1.132,0.361-2.355,0.554-3.522c0.078-0.471,0.305-1.369,0.476-0.417c0.104,0.582,0.198,1.168,0.301,1.75
	c0.137,0.759,0.264,1.974,0.696,2.487c0.565,0.67,0.938-0.326,1.122-1.089c0.198-0.826,0.314-1.688,0.432-2.549
	c0.113-0.834,0.157-1.952,0.51-2.624c0.448,0.904,0.468,2.234,0.758,3.267c0.131,0.463,0.339,1.164,0.733,1.07
	c0.313-0.074,0.518-0.869,0.612-1.26c0.265-1.098,0.397-2.312,0.776-3.335c0.205-0.555,0.734,0.041,1.034-0.208
	c0.317-0.264,0.559-0.709,0.698-1.224c0.314-1.155,0.479-2.366,0.659-3.583c0.084-0.573,0.169-1.144,0.265-1.713
	c0.077-0.454,0.241-1.464,0.567-0.807c0.205,0.416,0.285,1.015,0.441,1.479c0.175,0.517,0.353,1.009,0.669,1.347
	c0.641,0.683,1.066-1.853,1.269-2.365c0.318-0.802,0.554,0.257,0.663,0.712c0.128,0.528,0.241,1.063,0.381,1.585
	c0.233,0.872,0.756,2.138,1.462,2.098c0.396-0.023,0.601-0.525,0.794-0.997c0.272-0.666,0.498-0.296,0.678,0.236
	c0.334,0.994,0.626,2.069,1.195,2.812c0.261,0.342,0.561,0.692,0.908,0.775c0.352,0.083,0.689-0.443,1.015-0.24
	c0.312,0.194,0.521,0.788,0.759,1.127c0.267,0.379,0.545,0.591,0.888,0.753c1.584,0.753,2.702-1.278,3.304-3.287
	c0.642-2.148,0.947-4.507,1.448-6.737c0.503-2.237,0.954-4.452,1.261-6.778c0.311-2.356,0.581-4.724,0.825-7.098
	c0.25-2.432,0.462-4.876,0.835-7.271c0.183-1.169,0.609-2.077,0.964-3.127c0.332-0.988,0.498-2.135,0.71-3.194
	c0.217-1.079,0.428-2.319,0.985-3.113c0.296-0.42,0.614-0.646,0.957-0.201c0.271,0.352,0.507,0.761,0.747,1.16
	c0.497,0.825,1.033,1.556,1.463,2.474c0.416,0.889,0.987,1.549,1.417,2.416c0.456,0.921,0.823,1.927,1.232,2.898
	c0.396,0.941,0.835,1.844,1.248,2.771c0.051,0.117,0.1,0.237,0.149,0.355 M541.234,164.013c0.77,0.103,1.55,0.219,2.321,0.121
	c0.762-0.097,1.531,0.062,2.295,0.062c0.772,0,1.567,0.005,2.329-0.232c0.343-0.106,0.67-0.214,0.979-0.481
	c0.353-0.305,0.602-0.295,0.978-0.066c0.689,0.42,1.3,0.345,1.969-0.131c0.294-0.209,0.601-0.615,0.945-0.499
	c0.336,0.114,0.576,0.465,0.942,0.465c0.364,0,0.734,0.025,1.074-0.215c0.292-0.209,0.594-0.375,0.886-0.583
	c0.307-0.218,0.616-0.387,0.86-0.762c0.254-0.388,0.448-0.903,0.566-1.42c0.265-1.161,0.401-2.357,0.595-3.547
	c0.065-0.408,0.249-1.685,0.505-0.754c0.142,0.515,0.197,1.114,0.291,1.652c0.168,0.979,0.31,2.478,0.84,3.169
	c0.729,0.951,1.142-1.003,1.288-1.838c0.091-0.517,0.162-1.04,0.245-1.56c0.092-0.573,0.146-1.192,0.39-1.656
	c0.266,0.41,0.304,1.115,0.389,1.667c0.088,0.579,0.178,1.157,0.274,1.733c0.179,1.058,0.401,2.161,0.874,3.001
	c0.246,0.436,0.559,0.698,0.932,0.742c0.396,0.047,0.676-0.074,1.052-0.208c0.755-0.269,1.24-1.035,1.602-2.064
	c0.119-0.337,0.262-1.152,0.518-1.273c0.271-0.128,0.517,0.709,0.64,0.985c0.179,0.404,0.381,0.883,0.714,1.001
	c0.383,0.136,0.667-0.119,0.942-0.51"/>
<path fill="none" stroke="#0BD81E" stroke-linejoin="round" stroke-miterlimit="10" d="M611.246,215.558
	c0.745-0.044,1.387,1.022,1.951,1.978c0.298,0.505,0.563,1.121,0.871,1.596c0.302,0.467,0.604,0.945,0.839,1.583
	c0.474,1.281,0.793,2.769,1.126,4.234c0.333,1.462,0.66,2.926,0.991,4.389c0.328,1.443,0.6,3.009,1,4.363
	c0.41,1.387,0.731,2.869,1.066,4.347c0.338,1.487,0.71,2.92,1.107,4.334c0.195,0.695,0.403,1.369,0.638,2.002
	c0.246,0.667,0.536,1.091,0.818,1.661c0.54,1.087,1.083,1.84,1.742,2.51c0.334,0.338,0.692,0.327,1.03,0.612
	c0.335,0.284,0.675,0.439,1.025,0.618c0.377,0.191,0.775,0.246,1.159,0.33c0.403,0.087,0.771,0.175,1.17,0.378
	c0.781,0.397,1.572,0.013,2.36,0.174c0.401,0.081,0.75,0.301,1.159,0.233c0.403-0.068,0.799-0.042,1.201-0.042
	c0.374,0,0.763,0.321,1.123,0.139c0.348-0.177,0.819-0.185,1.169-0.02c0.371,0.174,0.745,0.145,1.123,0.216
	c0.396,0.075,0.779-0.132,1.17-0.066c0.392,0.067,0.8,0.139,1.191,0.139c0.189,0,0.374,0.143,0.565,0.143
	c0.203,0,0.399-0.072,0.604-0.023c0.389,0.093,0.767,0.132,1.158,0.065c0.189-0.032,0.378-0.088,0.566-0.12
	c0.218-0.037,0.42,0.156,0.636,0.191c0.195,0.034,0.354,0.111,0.556,0.043c0.214-0.073,0.39,0.051,0.603,0.083
	c0.204,0.031,0.369-0.123,0.566-0.168c0.189-0.043,0.411,0.021,0.601,0.054c0.399,0.073,0.795,0.018,1.193,0.018
	c0.191,0,0.378,0.096,0.567,0.096c0.205,0,0.388-0.052,0.593,0.024c0.4,0.147,0.771-0.086,1.17-0.019
	c0.188,0.033,0.378,0.162,0.566,0.162c0.209,0,0.417-0.13,0.623-0.061c0.383,0.129,0.756-0.201,1.134-0.137
	c0.371,0.062,0.75,0.15,1.123,0.15c0.189,0,0.376-0.096,0.565-0.096c0.175,0,0.319,0.191,0.499,0.162
	c0.368-0.062,0.738,0.03,1.107,0.03 M569.097,246.158c0.137-0.812,0.256-1.633,0.375-2.459c0.066-0.461,0.268-2.317,0.534-1.461
	c0.214,0.686,0.325,1.547,0.459,2.319c0.1,0.573,0.288,1.78,0.604,1.937c0.681,0.34,0.929-3.001,0.993-3.925
	c0.126-1.806,0.248-3.613,0.367-5.422c0.08-1.229,0.176-2.432,0.329-3.626c0.352,0.016,0.511,4.209,0.565,4.924
	c0.128,1.703,0.274,3.407,0.518,5.051c0.101,0.683,0.298,1.909,0.71,1.698c0.349-0.176,0.483-1.53,0.573-2.156
	c0.245-1.702,0.322-3.57,0.447-5.329c0.065-0.941,0.126-1.885,0.193-2.825c0.047-0.639,0.069-2.713,0.382-2.946
	c0.311,1.629,0.399,3.454,0.543,5.184c0.067,0.814,0.176,1.61,0.284,2.401c0.066,0.487,0.303,1.975,0.579,1.122
	c0.218-0.677,0.291-1.697,0.388-2.484c0.102-0.821,0.188-1.651,0.283-2.476c0.039-0.332,0.225-2.182,0.485-1.873
	c0.327,0.39,0.428,1.319,0.746,1.748c0.655,0.889,0.976-2.961,1.062-3.812c0.18-1.774,0.289-3.586,0.416-5.381
	c0.113-1.631,0.209-3.273,0.352-4.895c0.036-0.4,0.066-0.774,0.131-1.154c0.107-0.638,0.195-0.631,0.338-0.032
	c0.174,0.734,0.224,1.741,0.309,2.542c0.173,1.627,0.275,3.401,0.598,4.928c0.056,0.261,0.148,0.885,0.277,1.017
	c0.216,0.219,0.359-0.043,0.468-0.466c0.184-0.708,0.287-1.524,0.366-2.317c0.176-1.786,0.334-3.58,0.538-5.351
	c0.026-0.221,0.094-0.934,0.189-0.966c0.188-0.063,0.242,0.532,0.29,0.889c0.104,0.796,0.189,1.6,0.269,2.412
	c0.165,1.709,0.318,3.435,0.552,5.107c0.09,0.645,0.726,4.697,1.266,3.417c0.519-1.231,0.626-3.147,0.832-4.712
	c0.047-0.357,0.111-0.679,0.255-0.863c0.103-0.131,0.275,0.928,0.298,1.045c0.14,0.738,0.228,1.542,0.348,2.297
	c0.236,1.479,0.492,3.185,0.947,4.418c0.226,0.607,0.536,1.473,0.93,1.273c0.371-0.189,0.525-1.008,0.864-1.295
	c0.265-0.225,0.586,1.383,0.676,1.745c0.177,0.722,0.319,1.486,0.61,2.025c0.274,0.508,0.61,0.838,0.956,1.013
	c0.328,0.167,0.601,0.578,0.921,0.811c1.549,1.135,2.515-2.76,3.212-5.121c0.865-2.932,1.224-6.283,1.626-9.619
	c0.399-3.318,0.643-6.722,1.116-9.999c0.24-1.672,0.609-3.181,0.903-4.801c0.279-1.54,0.491-3.15,0.714-4.731
	c0.115-0.82,0.227-1.642,0.366-2.443c0.12-0.691,0.253-1.596,0.506-2.112c0.314-0.641,0.698-0.467,1.101-0.434
	c0.392,0.033,0.741-0.131,1.062,0.467c0.568,1.061,0.808,2.682,1.096,4.148c0.295,1.498,0.605,3.026,1.139,4.198
	c0.305,0.671,0.771,0.57,1.087,1.266c0.324,0.712,0.56,1.551,0.799,2.402c0.475,1.687,1.038,3.139,2.009,3.081 M540.48,250.667
	c0.757,0.622,1.572,0.139,2.353,0.281c0.393,0.072,0.773,0.187,1.167,0.127c0.395-0.06,0.768-0.036,1.159,0.03
	c0.78,0.131,1.587,0.161,2.361-0.126c0.342-0.127,0.6-0.598,0.921-0.815c0.29-0.197,0.646,0.513,0.921,0.696
	c0.751,0.502,1.441-0.053,2.136-0.642c0.162-0.138,0.322-0.317,0.497-0.317c0.153,0,0.32,0.285,0.462,0.408
	c0.292,0.256,0.635,0.661,0.955,0.605c0.749-0.128,1.458-0.47,2.187-0.84c0.814-0.413,1.017-2.459,1.19-3.998
	c0.198-1.747,0.31-3.544,0.432-5.322c0.113-1.66,0.159-3.421,0.455-4.978c0.287,0.535,0.308,1.651,0.373,2.441
	c0.069,0.832,0.129,1.666,0.194,2.5c0.133,1.703,0.252,3.455,0.484,5.108c0.11,0.784,0.237,1.7,0.615,2.019
	c0.37,0.313,0.581-1.174,0.66-1.695c0.255-1.682,0.367-3.456,0.494-5.201c0.063-0.869,0.113-1.743,0.18-2.612
	c0.062-0.82,0.066-2.296,0.377-2.824c0.248,1.596,0.326,3.295,0.451,4.957c0.137,1.796,0.271,3.596,0.487,5.354
	c0.199,1.617,0.446,3.172,1.198,3.809c0.366,0.31,0.768,0.17,1.147,0.041c0.36-0.122,0.681-0.397,0.955-0.947
	c0.486-0.976,0.648-2.629,0.826-3.961c0.086-0.634,0.153-1.374,0.296-1.962c0.254-1.053,0.443,0.291,0.545,0.859
	c0.224,1.25,0.359,2.761,0.77,3.8c0.564,1.434,1.108-0.122,1.367-1.302"/>
<path fill="none" stroke="#0BD81E" stroke-linejoin="round" stroke-miterlimit="10" d="M569.651,346.134
	c-0.806-0.747-0.963-4.081-1.035-6.616c-0.122-4.315-0.168-8.66-0.339-12.953c-0.229,5.162-0.134,10.617-0.477,15.702
	c-0.243,3.606-1.561,5.289-2.281,2.166c-0.59-2.564-0.505-6.639-0.548-9.758c-0.074-5.424-0.144-10.889-0.297-16.293
	c-0.132,4.199-0.127,8.43-0.178,12.64c-0.048,3.91-0.007,9.584-0.621,12.986c-0.479,2.636-1.494,2.569-2.267,2.682
	c-1.347,0.198-2.698,0.119-4.048,0.106c-1.188-0.01-2.385,0.12-3.572-0.041c-1.105-0.15-1.96-0.419-2.303-4.518
	c-0.101-1.188-0.271-0.228-0.397-0.812c-0.158-0.727-0.191-1.959-0.24-2.826c-0.111-2.022-0.151-4.105-0.276-6.113
	c-0.153,1.42-0.094,3.098-0.338,4.403c-0.467-3.175-0.285-7.069-0.429-10.501c-0.147,1.885,0.005,4.365-0.348,6.004
	c-0.374-5.768-0.227-11.741-0.428-17.58c-0.193,7.126-0.225,14.303-0.372,21.446c-0.036,1.756-0.061,6.521-0.623,7.371
	c-0.328,0.501-0.52-2.976-0.636-3.608c-0.191,1.571-0.169,3.499-0.491,4.858c-0.294,1.247-0.806,1.078-1.211,1.223
	c-0.172,0.067-0.328-0.08-0.47-0.438c-0.222-0.556-0.394,0.498-0.619,0.067c-0.382-0.725-0.433,0.03-0.784,0.505 M595.296,346.843
	c-2.169,0-4.342-0.124-6.511-0.009c-0.965,0.054-1.93,0.187-2.895,0.079c-0.849-0.095-1.996,0.055-2.741-1.644
	c-1.061-2.407-1.037-8.113-1.078-12.066c-0.077-7.569-0.148-15.2-0.328-22.747c-0.107,4.155-0.174,8.35-0.204,12.525
	c-0.026,3.519,0.057,7.298-0.313,10.64c-0.403-2.582-0.283-5.991-0.299-8.832c-0.02-3.912-0.1-7.868-0.21-11.761
	c-0.176,6.917-0.178,13.873-0.337,20.793c-0.114,4.93-0.081,11.285-1.747,12.36c-0.634,0.408-1.324,0.656-1.967,0.537
	c-0.322-0.06-0.746-0.889-1.052-0.617c-0.384,0.334-0.603,0.657-1.005,0.278c-0.718-0.675-1.52,0.437-2.272,0.396
	c-0.886-0.047-1.824,0.236-2.686-0.643 M620.95,345.375c-8.54,1.594-17.104,1.464-25.654,1.464 M646.595,345.888
	c-2.872-0.601-5.87-0.538-8.583-4.485c-1.408-2.049-2.516-5.406-3.779-8.302c-1.057-2.418-2.106-2.298-3.123,0.304
	c-0.596,1.531-1.534,4.609-2.339,3.793c-1.049-1.065-0.938-9.547-0.994-12.519c-0.226-11.81-0.229-23.658-0.397-35.475
	c-0.146,3.202-0.154,6.454-0.258,9.676c-0.11-2.52-0.057-5.135-0.26-7.6c-0.165,13.158-0.16,26.375-0.474,39.502
	c-0.109,4.625-0.443,10.13-1.701,12.436c-1.142,2.084-2.501,1.661-3.736,2.156 M655.494,346.594c-2.962,0-5.939-0.174-8.899-0.706"
	/>
<g>
	<g>
		<line fill="none" stroke="#000000" stroke-width="2" x1="489.082" y1="228.085" x2="534.707" y2="228.085"/>
		<g>
			<polygon points="530.724,231.476 534.116,228.085 530.724,224.695 533.603,224.695 536.993,228.085 533.603,231.476 			"/>
		</g>
	</g>
</g>
<g>
	<g>
		<line fill="none" stroke="#000000" stroke-width="2" x1="492.082" y1="329.085" x2="534.707" y2="329.085"/>
		<g>
			<polygon points="530.724,332.476 534.116,329.085 530.724,325.695 533.603,325.695 536.993,329.085 533.603,332.476 			"/>
		</g>
	</g>
</g>
<path fill="none" stroke="#0BD81E" stroke-linejoin="round" stroke-miterlimit="10" d="M444.852,117.728
	c0.772,2.017,1.393,4.18,2.031,6.302c0.635,2.11,1.165,4.292,1.631,6.503c0.944,4.486,1.776,9.02,2.87,13.43
	c0.527,2.125,1.07,4.335,1.821,6.299c0.378,0.984,0.812,1.923,1.338,2.733c0.498,0.769,1.091,1.263,1.716,1.734
	c0.601,0.454,1.265,0.687,1.91,0.917c0.745,0.266,1.5,0.474,2.262,0.61c0.772,0.137,1.562,0.141,2.328,0.323
	c0.367,0.086,0.781,0.01,1.154,0.025c0.381,0.014,0.765,0.116,1.145,0.116c3.094,0,6.185,0.422,9.284,0.498
	c0.772,0.019,1.562,0.021,2.329,0.111c0.743,0.088,1.556,0.172,2.299,0.083c0.771-0.092,1.554,0.12,2.329,0.12
	c0.776,0,1.552,0,2.329,0c0.893,0,1.799,0.085,2.691-0.016 M403.267,153.651c0.24-0.429,0.41-0.903,0.566-1.419
	c0.129-0.426,0.372-1.488,0.729-0.809c0.17,0.322,0.47,1.079,0.811,0.835c0.347-0.246,0.494-0.847,0.619-1.367
	c0.272-1.131,0.361-2.355,0.554-3.522c0.078-0.47,0.305-1.369,0.476-0.417c0.104,0.582,0.198,1.168,0.301,1.75
	c0.137,0.759,0.264,1.974,0.696,2.487c0.565,0.67,0.938-0.326,1.122-1.089c0.198-0.826,0.314-1.688,0.432-2.55
	c0.113-0.834,0.157-1.952,0.51-2.623c0.448,0.904,0.468,2.233,0.758,3.267c0.131,0.463,0.339,1.164,0.733,1.071
	c0.313-0.074,0.518-0.869,0.612-1.26c0.265-1.098,0.397-2.312,0.776-3.335c0.205-0.554,0.734,0.041,1.034-0.208
	c0.317-0.264,0.559-0.709,0.698-1.223c0.314-1.155,0.479-2.366,0.659-3.583c0.084-0.574,0.169-1.144,0.265-1.713
	c0.077-0.453,0.241-1.464,0.567-0.806c0.205,0.416,0.285,1.015,0.441,1.479c0.175,0.516,0.353,1.009,0.669,1.347
	c0.641,0.683,1.066-1.853,1.269-2.365c0.318-0.802,0.554,0.257,0.663,0.713c0.128,0.528,0.241,1.062,0.381,1.584
	c0.233,0.872,0.756,2.138,1.462,2.098c0.396-0.022,0.601-0.525,0.794-0.997c0.272-0.666,0.498-0.296,0.678,0.236
	c0.334,0.994,0.626,2.069,1.195,2.812c0.261,0.342,0.561,0.692,0.908,0.776c0.352,0.083,0.689-0.443,1.015-0.24
	c0.312,0.193,0.521,0.788,0.759,1.127c0.267,0.379,0.545,0.59,0.888,0.753c1.584,0.753,2.702-1.278,3.304-3.287
	c0.642-2.148,0.947-4.507,1.448-6.737c0.503-2.237,0.954-4.452,1.261-6.778c0.311-2.355,0.581-4.724,0.825-7.098
	c0.25-2.432,0.462-4.877,0.835-7.272c0.183-1.168,0.609-2.077,0.964-3.127c0.332-0.988,0.498-2.135,0.71-3.193
	c0.217-1.079,0.428-2.32,0.985-3.113c0.296-0.421,0.614-0.646,0.957-0.202c0.271,0.352,0.507,0.761,0.747,1.16
	c0.497,0.825,1.033,1.556,1.463,2.475c0.416,0.888,0.987,1.549,1.417,2.416c0.456,0.921,0.823,1.928,1.232,2.898
	c0.396,0.941,0.835,1.844,1.248,2.771c0.051,0.117,0.1,0.237,0.149,0.355 M375.033,156.852c0.77,0.103,1.55,0.219,2.321,0.121
	c0.762-0.097,1.531,0.062,2.295,0.062c0.772,0,1.567,0.005,2.329-0.232c0.343-0.106,0.67-0.214,0.979-0.481
	c0.353-0.305,0.602-0.295,0.978-0.066c0.689,0.42,1.3,0.345,1.969-0.131c0.294-0.209,0.601-0.615,0.945-0.499
	c0.336,0.114,0.576,0.464,0.942,0.464c0.364,0,0.734,0.026,1.074-0.215c0.292-0.209,0.594-0.375,0.886-0.583
	c0.307-0.218,0.616-0.386,0.86-0.761c0.254-0.389,0.448-0.903,0.566-1.421c0.265-1.161,0.401-2.357,0.595-3.547
	c0.065-0.408,0.249-1.685,0.505-0.754c0.142,0.515,0.197,1.114,0.291,1.652c0.168,0.979,0.31,2.478,0.84,3.169
	c0.729,0.951,1.142-1.003,1.288-1.837c0.091-0.518,0.162-1.04,0.245-1.56c0.092-0.573,0.146-1.192,0.39-1.657
	c0.266,0.41,0.304,1.115,0.389,1.668c0.088,0.579,0.178,1.157,0.274,1.733c0.179,1.058,0.401,2.162,0.874,3.001
	c0.246,0.435,0.559,0.697,0.932,0.742c0.396,0.047,0.676-0.074,1.052-0.208c0.755-0.269,1.24-1.034,1.602-2.063
	c0.119-0.338,0.262-1.152,0.518-1.273c0.271-0.129,0.517,0.709,0.64,0.985c0.179,0.404,0.381,0.883,0.714,1.001
	c0.383,0.136,0.667-0.119,0.942-0.511"/>
<path fill="none" stroke="#0BD81E" stroke-linejoin="round" stroke-miterlimit="10" d="M445.045,215.601
	c0.745-0.044,1.387,1.022,1.951,1.978c0.298,0.505,0.563,1.121,0.871,1.596c0.302,0.467,0.604,0.945,0.839,1.583
	c0.474,1.281,0.793,2.769,1.126,4.234c0.333,1.462,0.66,2.926,0.991,4.389c0.328,1.443,0.6,3.009,1,4.363
	c0.41,1.387,0.731,2.87,1.066,4.347c0.338,1.487,0.71,2.921,1.107,4.334c0.195,0.695,0.403,1.369,0.638,2.002
	c0.246,0.667,0.536,1.092,0.818,1.662c0.54,1.087,1.083,1.84,1.742,2.51c0.334,0.338,0.692,0.327,1.03,0.612
	c0.335,0.284,0.675,0.438,1.025,0.618c0.377,0.191,0.775,0.246,1.159,0.33c0.403,0.087,0.771,0.175,1.17,0.378
	c0.781,0.397,1.572,0.013,2.36,0.173c0.401,0.081,0.75,0.302,1.159,0.234c0.403-0.068,0.799-0.042,1.201-0.042
	c0.374,0,0.763,0.321,1.123,0.139c0.348-0.177,0.819-0.184,1.169-0.02c0.371,0.174,0.745,0.146,1.123,0.216
	c0.396,0.075,0.779-0.132,1.17-0.066c0.392,0.067,0.8,0.138,1.191,0.138c0.189,0,0.374,0.144,0.565,0.144
	c0.203,0,0.399-0.072,0.604-0.023c0.389,0.094,0.767,0.132,1.158,0.065c0.189-0.032,0.378-0.088,0.566-0.12
	c0.218-0.037,0.42,0.155,0.636,0.191c0.195,0.034,0.354,0.111,0.556,0.043c0.214-0.073,0.39,0.051,0.603,0.083
	c0.204,0.031,0.369-0.123,0.566-0.168c0.189-0.043,0.411,0.021,0.601,0.054c0.399,0.073,0.795,0.018,1.193,0.018
	c0.191,0,0.378,0.096,0.567,0.096c0.205,0,0.388-0.052,0.593,0.024c0.4,0.147,0.771-0.085,1.17-0.019
	c0.188,0.033,0.378,0.162,0.566,0.162c0.209,0,0.417-0.13,0.623-0.061c0.383,0.129,0.756-0.201,1.134-0.137
	c0.371,0.062,0.75,0.15,1.123,0.15c0.189,0,0.376-0.096,0.565-0.096c0.175,0,0.319,0.192,0.499,0.162
	c0.368-0.063,0.738,0.03,1.107,0.03 M402.896,246.201c0.137-0.812,0.256-1.633,0.375-2.459c0.066-0.461,0.268-2.317,0.534-1.461
	c0.214,0.686,0.325,1.547,0.459,2.319c0.1,0.573,0.288,1.78,0.604,1.937c0.681,0.339,0.929-3.001,0.993-3.925
	c0.126-1.806,0.248-3.613,0.367-5.422c0.08-1.229,0.176-2.432,0.329-3.626c0.352,0.016,0.511,4.209,0.565,4.923
	c0.128,1.703,0.274,3.407,0.518,5.052c0.101,0.683,0.298,1.909,0.71,1.698c0.349-0.177,0.483-1.53,0.573-2.157
	c0.245-1.702,0.322-3.569,0.447-5.329c0.065-0.941,0.126-1.885,0.193-2.825c0.047-0.639,0.069-2.713,0.382-2.946
	c0.311,1.629,0.399,3.454,0.543,5.184c0.067,0.813,0.176,1.61,0.284,2.4c0.066,0.487,0.303,1.975,0.579,1.122
	c0.218-0.677,0.291-1.696,0.388-2.484c0.102-0.822,0.188-1.651,0.283-2.476c0.039-0.332,0.225-2.182,0.485-1.873
	c0.327,0.39,0.428,1.319,0.746,1.748c0.655,0.889,0.976-2.961,1.062-3.812c0.18-1.774,0.289-3.586,0.416-5.381
	c0.113-1.632,0.209-3.274,0.352-4.895c0.036-0.4,0.066-0.774,0.131-1.154c0.107-0.638,0.195-0.631,0.338-0.033
	c0.174,0.735,0.224,1.741,0.309,2.542c0.173,1.628,0.275,3.401,0.598,4.928c0.056,0.261,0.148,0.885,0.277,1.017
	c0.216,0.219,0.359-0.043,0.468-0.466c0.184-0.708,0.287-1.524,0.366-2.317c0.176-1.786,0.334-3.58,0.538-5.351
	c0.026-0.221,0.094-0.934,0.189-0.966c0.188-0.064,0.242,0.531,0.29,0.889c0.104,0.796,0.189,1.6,0.269,2.412
	c0.165,1.709,0.318,3.435,0.552,5.107c0.09,0.645,0.726,4.697,1.266,3.417c0.519-1.231,0.626-3.147,0.832-4.713
	c0.047-0.357,0.111-0.678,0.255-0.862c0.103-0.131,0.275,0.928,0.298,1.045c0.14,0.738,0.228,1.541,0.348,2.296
	c0.236,1.479,0.492,3.185,0.947,4.419c0.226,0.607,0.536,1.473,0.93,1.273c0.371-0.189,0.525-1.008,0.864-1.295
	c0.265-0.225,0.586,1.383,0.676,1.745c0.177,0.722,0.319,1.486,0.61,2.025c0.274,0.508,0.61,0.838,0.956,1.013
	c0.328,0.167,0.601,0.578,0.921,0.811c1.549,1.135,2.515-2.76,3.212-5.121c0.865-2.932,1.224-6.283,1.626-9.619
	c0.399-3.318,0.643-6.722,1.116-9.999c0.24-1.672,0.609-3.181,0.903-4.801c0.279-1.539,0.491-3.149,0.714-4.73
	c0.115-0.82,0.227-1.642,0.366-2.443c0.12-0.691,0.253-1.596,0.506-2.112c0.314-0.64,0.698-0.467,1.101-0.433
	c0.392,0.033,0.741-0.131,1.062,0.467c0.568,1.061,0.808,2.682,1.096,4.148c0.295,1.498,0.605,3.026,1.139,4.198
	c0.305,0.671,0.771,0.57,1.087,1.266c0.324,0.713,0.56,1.551,0.799,2.403c0.475,1.687,1.038,3.139,2.009,3.081 M374.279,250.709
	c0.757,0.623,1.572,0.139,2.353,0.281c0.393,0.072,0.773,0.187,1.167,0.127c0.395-0.06,0.768-0.037,1.159,0.03
	c0.78,0.131,1.587,0.16,2.361-0.126c0.342-0.127,0.6-0.598,0.921-0.815c0.29-0.197,0.646,0.513,0.921,0.696
	c0.751,0.502,1.441-0.053,2.136-0.643c0.162-0.138,0.322-0.317,0.497-0.317c0.153,0,0.32,0.285,0.462,0.408
	c0.292,0.256,0.635,0.66,0.955,0.605c0.749-0.128,1.458-0.47,2.187-0.84c0.814-0.414,1.017-2.46,1.19-3.998
	c0.198-1.747,0.31-3.544,0.432-5.322c0.113-1.66,0.159-3.421,0.455-4.978c0.287,0.535,0.308,1.651,0.373,2.441
	c0.069,0.832,0.129,1.666,0.194,2.5c0.133,1.703,0.252,3.455,0.484,5.108c0.11,0.785,0.237,1.7,0.615,2.02
	c0.37,0.313,0.581-1.174,0.66-1.695c0.255-1.682,0.367-3.456,0.494-5.201c0.063-0.869,0.113-1.743,0.18-2.611
	c0.062-0.82,0.066-2.296,0.377-2.824c0.248,1.596,0.326,3.295,0.451,4.957c0.137,1.796,0.271,3.595,0.487,5.354
	c0.199,1.617,0.446,3.172,1.198,3.808c0.366,0.311,0.768,0.17,1.147,0.042c0.36-0.122,0.681-0.398,0.955-0.947
	c0.486-0.976,0.648-2.629,0.826-3.961c0.086-0.635,0.153-1.374,0.296-1.962c0.254-1.053,0.443,0.291,0.545,0.859
	c0.224,1.25,0.359,2.761,0.77,3.8c0.564,1.433,1.108-0.122,1.367-1.302"/>
<path fill="none" stroke="#0BD81E" stroke-linejoin="round" stroke-miterlimit="10" d="M403.45,346.177
	c-0.806-0.748-0.963-4.082-1.035-6.617c-0.122-4.314-0.168-8.66-0.339-12.953c-0.229,5.163-0.134,10.618-0.477,15.703
	c-0.243,3.605-1.561,5.288-2.281,2.166c-0.59-2.564-0.505-6.639-0.548-9.758c-0.074-5.424-0.144-10.891-0.297-16.293
	c-0.132,4.197-0.127,8.429-0.178,12.64c-0.048,3.909-0.007,9.584-0.621,12.985c-0.479,2.637-1.494,2.57-2.267,2.682
	c-1.347,0.199-2.698,0.12-4.048,0.107c-1.188-0.011-2.385,0.12-3.572-0.042c-1.105-0.15-1.96-0.418-2.303-4.518
	c-0.101-1.188-0.271-0.227-0.397-0.812c-0.158-0.728-0.191-1.959-0.24-2.827c-0.111-2.021-0.151-4.105-0.276-6.112
	c-0.153,1.42-0.094,3.098-0.338,4.402c-0.467-3.174-0.285-7.069-0.429-10.5c-0.147,1.885,0.005,4.365-0.348,6.003
	c-0.374-5.767-0.227-11.741-0.428-17.58c-0.193,7.126-0.225,14.303-0.372,21.447c-0.036,1.756-0.061,6.521-0.623,7.371
	c-0.328,0.5-0.52-2.977-0.636-3.608c-0.191,1.571-0.169,3.498-0.491,4.858c-0.294,1.247-0.806,1.077-1.211,1.222
	c-0.172,0.067-0.328-0.079-0.47-0.438c-0.222-0.555-0.394,0.498-0.619,0.067c-0.382-0.725-0.433,0.031-0.784,0.505 M429.095,346.886
	c-2.169,0-4.342-0.124-6.511-0.01c-0.965,0.055-1.93,0.188-2.895,0.08c-0.849-0.095-1.996,0.054-2.741-1.644
	c-1.061-2.407-1.037-8.113-1.078-12.067c-0.077-7.568-0.148-15.199-0.328-22.746c-0.107,4.155-0.174,8.35-0.204,12.524
	c-0.026,3.519,0.057,7.298-0.313,10.64c-0.403-2.581-0.283-5.99-0.299-8.831c-0.02-3.913-0.1-7.868-0.21-11.761
	c-0.176,6.917-0.178,13.873-0.337,20.793c-0.114,4.929-0.081,11.284-1.747,12.359c-0.634,0.408-1.324,0.657-1.967,0.538
	c-0.322-0.06-0.746-0.89-1.052-0.618c-0.384,0.335-0.603,0.658-1.005,0.279c-0.718-0.676-1.52,0.437-2.272,0.396
	c-0.886-0.047-1.824,0.236-2.686-0.643 M454.749,345.417c-8.54,1.594-17.104,1.465-25.654,1.465 M480.394,345.93
	c-2.872-0.601-5.87-0.538-8.583-4.485c-1.408-2.048-2.516-5.405-3.779-8.301c-1.057-2.418-2.106-2.298-3.123,0.304
	c-0.596,1.531-1.534,4.609-2.339,3.793c-1.049-1.065-0.938-9.547-0.994-12.519c-0.226-11.811-0.229-23.658-0.397-35.476
	c-0.146,3.202-0.154,6.454-0.258,9.676c-0.11-2.52-0.057-5.135-0.26-7.6c-0.165,13.158-0.16,26.375-0.474,39.503
	c-0.109,4.625-0.443,10.13-1.701,12.436c-1.142,2.084-2.501,1.661-3.736,2.155 M489.293,346.637c-2.962,0-5.939-0.174-8.899-0.707"
	/>
<path fill="none" stroke="#E22D2D" stroke-linejoin="round" stroke-miterlimit="10" d="M444.853,126.522
	c0.772,0.19,1.393,0.395,2.031,0.595c0.635,0.2,1.165,0.406,1.631,0.615c0.944,0.424,1.776,0.853,2.87,1.27
	c0.527,0.201,1.07,0.41,1.821,0.595c0.378,0.093,0.812,0.182,1.338,0.258c0.498,0.073,1.091,0.12,1.716,0.164
	c0.601,0.043,1.265,0.065,1.91,0.086c0.745,0.025,1.5,0.045,2.262,0.058c0.772,0.013,1.562,0.014,2.328,0.031
	c0.367,0.008,0.781,0.001,1.154,0.002c0.381,0.001,0.765,0.011,1.145,0.011c3.094,0,6.185,0.04,9.284,0.047
	c0.772,0.002,1.562,0.002,2.329,0.011c0.743,0.008,1.556,0.016,2.299,0.008c0.771-0.009,1.554,0.011,2.329,0.011
	c0.776,0,1.552,0,2.329,0c0.893,0,1.799,0.008,2.691-0.001 M403.268,129.917c0.24-0.041,0.41-0.085,0.566-0.134
	c0.129-0.041,0.372-0.141,0.729-0.077c0.17,0.03,0.47,0.102,0.811,0.079c0.347-0.023,0.494-0.08,0.619-0.129
	c0.272-0.107,0.361-0.223,0.554-0.333c0.078-0.044,0.305-0.129,0.476-0.04c0.104,0.055,0.198,0.111,0.301,0.166
	c0.137,0.072,0.264,0.187,0.696,0.235c0.565,0.063,0.938-0.031,1.122-0.103c0.198-0.078,0.314-0.16,0.432-0.241
	c0.113-0.079,0.157-0.184,0.51-0.248c0.448,0.085,0.468,0.211,0.758,0.309c0.131,0.044,0.339,0.11,0.733,0.101
	c0.313-0.007,0.518-0.082,0.612-0.119c0.265-0.104,0.397-0.218,0.776-0.315c0.205-0.053,0.734,0.004,1.034-0.02
	c0.317-0.025,0.559-0.067,0.698-0.115c0.314-0.109,0.479-0.224,0.659-0.339c0.084-0.054,0.169-0.108,0.265-0.162
	c0.077-0.042,0.241-0.138,0.567-0.076c0.205,0.04,0.285,0.096,0.441,0.14c0.175,0.049,0.353,0.095,0.669,0.127
	c0.641,0.064,1.066-0.175,1.269-0.224c0.318-0.076,0.554,0.024,0.663,0.067c0.128,0.05,0.241,0.1,0.381,0.149
	c0.233,0.083,0.756,0.202,1.462,0.198c0.396-0.002,0.601-0.049,0.794-0.094c0.272-0.062,0.498-0.028,0.678,0.022
	c0.334,0.094,0.626,0.196,1.195,0.266c0.261,0.033,0.561,0.066,0.908,0.074c0.352,0.008,0.689-0.042,1.015-0.023
	c0.312,0.019,0.521,0.075,0.759,0.106c0.267,0.036,0.545,0.056,0.888,0.071c1.584,0.071,2.702-0.121,3.304-0.311
	c0.642-0.203,0.947-0.426,1.448-0.637c0.503-0.211,0.954-0.421,1.261-0.641c0.311-0.223,0.581-0.447,0.825-0.671
	c0.25-0.23,0.462-0.461,0.835-0.688c0.183-0.11,0.609-0.196,0.964-0.295c0.332-0.093,0.498-0.202,0.71-0.302
	c0.217-0.102,0.428-0.219,0.985-0.294c0.296-0.04,0.614-0.061,0.957-0.019c0.271,0.033,0.507,0.072,0.747,0.11
	c0.497,0.078,1.033,0.147,1.463,0.234c0.416,0.084,0.987,0.146,1.417,0.229c0.456,0.087,0.823,0.182,1.232,0.273
	c0.396,0.089,0.835,0.174,1.248,0.262c0.051,0.011,0.1,0.022,0.149,0.034 M375.034,130.22c0.77,0.01,1.55,0.021,2.321,0.011
	c0.762-0.009,1.531,0.006,2.295,0.006c0.772,0,1.567,0,2.329-0.022c0.343-0.01,0.67-0.02,0.979-0.045
	c0.353-0.029,0.602-0.028,0.978-0.006c0.689,0.04,1.3,0.033,1.969-0.012c0.294-0.02,0.601-0.059,0.945-0.047
	c0.336,0.011,0.576,0.044,0.942,0.044c0.364,0,0.734,0.002,1.074-0.02c0.292-0.02,0.594-0.036,0.886-0.055
	c0.307-0.021,0.616-0.037,0.86-0.072c0.254-0.037,0.448-0.085,0.566-0.135c0.265-0.109,0.401-0.223,0.595-0.335
	c0.065-0.039,0.249-0.159,0.505-0.071c0.142,0.049,0.197,0.105,0.291,0.156c0.168,0.092,0.31,0.234,0.84,0.299
	c0.729,0.09,1.142-0.095,1.288-0.173c0.091-0.049,0.162-0.099,0.245-0.147c0.092-0.054,0.146-0.113,0.39-0.157
	c0.266,0.039,0.304,0.105,0.389,0.158c0.088,0.055,0.178,0.109,0.274,0.164c0.179,0.1,0.401,0.205,0.874,0.284
	c0.246,0.042,0.559,0.066,0.932,0.07c0.396,0.004,0.676-0.007,1.052-0.02c0.755-0.026,1.24-0.098,1.602-0.195
	c0.119-0.032,0.262-0.109,0.518-0.12c0.271-0.012,0.517,0.067,0.64,0.093c0.179,0.038,0.381,0.084,0.714,0.095
	c0.383,0.013,0.667-0.011,0.942-0.048"/>
<text transform="matrix(1 0 0 1 412.1016 44.8521)"><tspan x="0" y="0" font-family="'GillSansMTPro-Book'" font-size="17">Sample</tspan><tspan x="4.887" y="20.4" font-family="'GillSansMTPro-Book'" font-size="17">Assay</tspan></text>
<text transform="matrix(1 0 0 1 395.4277 82.5854)" font-family="'GillSansMTPro-BookItalic'" font-size="12">Sample File Name</text>
<text transform="matrix(1 0 0 1 573.79 181.0522)" font-family="'GillSansMTPro-Book'" font-size="12">SubA_Pl1</text>
<text transform="matrix(1 0 0 1 571.0156 281.2188)" font-family="'GillSansMTPro-Book'" font-size="12">SubA_Pl2</text>
<text transform="matrix(1 0 0 1 566.3809 377.1694)" font-family="'GillSansMTPro-Book'" font-size="12">SubA_Ur1</text>
<text transform="matrix(1 0 0 1 413.1367 173.8521)"><tspan x="0" y="0" font-family="'GillSansMTPro-Book'" font-size="12">SubA_Pl1</tspan><tspan x="-6.09" y="14.4" font-family="'GillSansMTPro-Book'" font-size="12">SubA_Pl1_b</tspan></text>
<text transform="matrix(1 0 0 1 410.3623 281.2188)" font-family="'GillSansMTPro-Book'" font-size="12">SubA_Pl2</text>
<text transform="matrix(1 0 0 1 405.7275 377.1694)" font-family="'GillSansMTPro-Book'" font-size="12">SubA_Ur1</text>
<g>
	<g>
		<line fill="none" stroke="#000000" stroke-width="2" x1="489.082" y1="137.773" x2="509.415" y2="137.773"/>
		<g>
			<rect x="508.415" y="131.273" width="2" height="13"/>
		</g>
	</g>
</g>
<g>
	<g>
		<line fill="none" stroke="#000000" stroke-width="2" x1="489.082" y1="151.411" x2="534.707" y2="151.411"/>
		<g>
			<polygon points="530.724,154.802 534.116,151.411 530.724,148.021 533.603,148.021 536.993,151.411 533.603,154.802 			"/>
		</g>
	</g>
</g>
</svg>
